<?xml version="1.0" encoding="UTF-8" standalone="no"?>
<!DOCTYPE svg PUBLIC "-//W3C//DTD SVG 1.1//EN"
 "http://www.w3.org/Graphics/SVG/1.1/DTD/svg11.dtd">
<!-- Generated by graphviz version 11.0.0 (0)
 -->
<!-- Title: DGtal::ArithmeticalDSSComputer&lt; TIterator, TInteger, adjacency &gt; Pages: 1 -->
<svg width="494pt" height="189pt"
 viewBox="0.00 0.00 493.75 189.12" xmlns="http://www.w3.org/2000/svg" xmlns:xlink="http://www.w3.org/1999/xlink">
<g id="graph0" class="graph" transform="scale(1 1) rotate(0) translate(4 185.12)">
<title>DGtal::ArithmeticalDSSComputer&lt; TIterator, TInteger, adjacency &gt;</title>
<!-- Node1 -->
<g id="Node000001" class="node">
<title>Node1</title>
<g id="a_Node000001"><a xlink:title="Aim: This class is a wrapper around ArithmeticalDSS that is devoted to the dynamic recognition of dig...">
<polygon fill="#999999" stroke="#666666" points="169.75,-105.62 0,-105.62 0,-69.12 169.75,-69.12 169.75,-105.62"/>
<text text-anchor="start" x="8" y="-92.12" font-family="FreeSans" font-size="10.00">DGtal::ArithmeticalDSSComputer</text>
<text text-anchor="middle" x="84.88" y="-77.88" font-family="FreeSans" font-size="10.00">&lt; TIterator, TInteger, adjacency &gt;</text>
</a>
</g>
</g>
<!-- Node2 -->
<g id="Node000002" class="node">
<title>Node2</title>
<g id="a_Node000002"><a xlink:href="classDGtal_1_1ArithmeticalDSSComputer.html" target="_top" xlink:title=" ">
<polygon fill="white" stroke="#666666" points="485.75,-174.75 316,-174.75 316,-124 485.75,-124 485.75,-174.75"/>
<text text-anchor="start" x="324" y="-161.25" font-family="FreeSans" font-size="10.00">DGtal::ArithmeticalDSSComputer</text>
<text text-anchor="start" x="324" y="-147" font-family="FreeSans" font-size="10.00">&lt; std::vector&lt; Z2i::Point</text>
<text text-anchor="middle" x="400.88" y="-132.75" font-family="FreeSans" font-size="10.00"> &gt;::const_iterator, int, 4 &gt;</text>
</a>
</g>
</g>
<!-- Node1&#45;&gt;Node2 -->
<g id="edge1_Node000001_Node000002" class="edge">
<title>Node1&#45;&gt;Node2</title>
<g id="a_edge1_Node000001_Node000002"><a xlink:title=" ">
<path fill="none" stroke="orange" stroke-dasharray="5,2" d="M148.16,-109.48C161.13,-113.54 174.79,-117.42 187.75,-120.38 229.42,-129.89 276.46,-136.71 315.63,-141.34"/>
<polygon fill="orange" stroke="orange" points="149.5,-106.23 138.91,-106.51 147.36,-112.9 149.5,-106.23"/>
</a>
</g>
<text text-anchor="start" x="188.12" y="-171.62" font-family="FreeSans" font-size="10.00" fill="grey"> &lt; std::vector&lt; Z2i</text>
<text text-anchor="start" x="188.12" y="-157.38" font-family="FreeSans" font-size="10.00" fill="grey">::Point &gt;::const_iterator,</text>
<text text-anchor="middle" x="242.88" y="-143.12" font-family="FreeSans" font-size="10.00" fill="grey"> int, 4 &gt;</text>
</g>
<!-- Node3 -->
<g id="Node000003" class="node">
<title>Node3</title>
<g id="a_Node000003"><a xlink:href="classDGtal_1_1ArithmeticalDSSComputer.html" target="_top" xlink:title=" ">
<polygon fill="white" stroke="#666666" points="485.75,-105.62 316,-105.62 316,-69.12 485.75,-69.12 485.75,-105.62"/>
<text text-anchor="start" x="324" y="-92.12" font-family="FreeSans" font-size="10.00">DGtal::ArithmeticalDSSComputer</text>
<text text-anchor="middle" x="400.88" y="-77.88" font-family="FreeSans" font-size="10.00">&lt; IteratorAdapter, TInteger, 8 &gt;</text>
</a>
</g>
</g>
<!-- Node1&#45;&gt;Node3 -->
<g id="edge2_Node000001_Node000003" class="edge">
<title>Node1&#45;&gt;Node3</title>
<g id="a_edge2_Node000001_Node000003"><a xlink:title=" ">
<path fill="none" stroke="orange" stroke-dasharray="5,2" d="M181.33,-87.38C224.19,-87.38 274.34,-87.38 315.77,-87.38"/>
<polygon fill="orange" stroke="orange" points="181.53,-83.88 171.53,-87.38 181.53,-90.88 181.53,-83.88"/>
</a>
</g>
<text text-anchor="start" x="199.75" y="-106.38" font-family="FreeSans" font-size="10.00" fill="grey"> &lt; IteratorAdapter,</text>
<text text-anchor="middle" x="242.88" y="-92.12" font-family="FreeSans" font-size="10.00" fill="grey"> TInteger, 8 &gt;</text>
</g>
<!-- Node4 -->
<g id="Node000004" class="node">
<title>Node4</title>
<g id="a_Node000004"><a xlink:href="classDGtal_1_1ArithmeticalDSSComputer.html" target="_top" xlink:title=" ">
<polygon fill="white" stroke="#666666" points="485.75,-50.75 316,-50.75 316,0 485.75,0 485.75,-50.75"/>
<text text-anchor="start" x="324" y="-37.25" font-family="FreeSans" font-size="10.00">DGtal::ArithmeticalDSSComputer</text>
<text text-anchor="start" x="324" y="-23" font-family="FreeSans" font-size="10.00">&lt; IteratorAdapter, TInteger,</text>
<text text-anchor="middle" x="400.88" y="-8.75" font-family="FreeSans" font-size="10.00"> connectivity &gt;</text>
</a>
</g>
</g>
<!-- Node1&#45;&gt;Node4 -->
<g id="edge3_Node000001_Node000004" class="edge">
<title>Node1&#45;&gt;Node4</title>
<g id="a_edge3_Node000001_Node000004"><a xlink:title=" ">
<path fill="none" stroke="orange" stroke-dasharray="5,2" d="M149.42,-65.27C162.02,-61.41 175.22,-57.72 187.75,-54.88 229.45,-45.4 276.49,-38.48 315.66,-33.74"/>
<polygon fill="orange" stroke="orange" points="148.47,-61.9 139.98,-68.23 150.57,-68.57 148.47,-61.9"/>
</a>
</g>
<text text-anchor="start" x="187.75" y="-73.38" font-family="FreeSans" font-size="10.00" fill="grey"> &lt; IteratorAdapter,</text>
<text text-anchor="middle" x="242.88" y="-59.12" font-family="FreeSans" font-size="10.00" fill="grey"> TInteger, connectivity &gt;</text>
</g>
</g>
</svg>
