<?xml version="1.0" encoding="UTF-8" standalone="no"?>
<!DOCTYPE svg PUBLIC "-//W3C//DTD SVG 1.1//EN"
 "http://www.w3.org/Graphics/SVG/1.1/DTD/svg11.dtd">
<!-- Generated by graphviz version 11.0.0 (0)
 -->
<!-- Title: DGtal::ArithmeticalDSS&lt; TCoordinate, TInteger, adjacency &gt; Pages: 1 -->
<!--zoomable 224 -->

<svg id="main" version="1.1" xmlns="http://www.w3.org/2000/svg" xmlns:xlink="http://www.w3.org/1999/xlink" xml:space="preserve" onload="init(evt)">
<style type="text/css"><![CDATA[
.node, .edge {opacity: 0.7;}
.node.selected, .edge.selected {opacity: 1;}
.edge:hover path { stroke: red; }
.edge:hover polygon { stroke: red; fill: red; }
]]></style>

<defs>
  <circle id="rim" cx="0" cy="0" r="7"/>
  <circle id="rim2" cx="0" cy="0" r="3.5"/>
  <g id="zoomPlus">
    <use xlink:href="#rim" fill="#404040"><set attributeName="fill" to="#808080" begin="zoomplus.mouseover" end="zoomplus.mouseout"/></use>
    <path d="M-4,0h8M0,-4v8" fill="none" stroke="white" stroke-width="1.5" pointer-events="none"/>
  </g>
  <g id="zoomMin">
    <use xlink:href="#rim" fill="#404040"><set attributeName="fill" to="#808080" begin="zoomminus.mouseover" end="zoomminus.mouseout"/></use>
    <path d="M-4,0h8" fill="none" stroke="white" stroke-width="1.5" pointer-events="none"/>
  </g>
  <g id="arrowUp" transform="translate(30 24)">
    <use xlink:href="#rim"/>
    <path pointer-events="none" fill="none" stroke="white" stroke-width="1.5" d="M0,-3.0v7 M-2.5,-0.5L0,-3.0L2.5,-0.5"/>
  </g>
  <g id="arrowRight" transform="rotate(90) translate(36 -43)">
    <use xlink:href="#rim"/>
    <path pointer-events="none" fill="none" stroke="white" stroke-width="1.5" d="M0,-3.0v7 M-2.5,-0.5L0,-3.0L2.5,-0.5"/>
  </g>
  <g id="arrowDown" transform="rotate(180) translate(-30 -48)">
    <use xlink:href="#rim"/>
    <path pointer-events="none" fill="none" stroke="white" stroke-width="1.5" d="M0,-3.0v7 M-2.5,-0.5L0,-3.0L2.5,-0.5"/>
  </g>
  <g id="arrowLeft" transform="rotate(270) translate(-36 17)">
    <use xlink:href="#rim"/>
    <path pointer-events="none" fill="none" stroke="white" stroke-width="1.5" d="M0,-3.0v7 M-2.5,-0.5L0,-3.0L2.5,-0.5"/>
  </g>
  <g id="resetDef">
    <use xlink:href="#rim2" fill="#404040"><set attributeName="fill" to="#808080" begin="reset.mouseover" end="reset.mouseout"/></use>
  </g>
</defs>
<script type="application/ecmascript">
var viewWidth = 683;
var viewHeight = 224;
var sectionId = 'dynsection-0';
</script>
<script type="application/ecmascript" xlink:href="svg.min.js"/>
<svg id="graph" class="graph">
<g id="viewport">
<title>DGtal::ArithmeticalDSS&lt; TCoordinate, TInteger, adjacency &gt;</title>
<!-- Node1 -->
<g id="Node000001" class="node">
<title>Node1</title>
<g id="a_Node000001"><a xlink:title="Aim: This class represents a naive (resp. standard) digital straight segment (DSS),...">
<polygon fill="#999999" stroke="#666666" points="127.75,-130.75 0,-130.75 0,-80 127.75,-80 127.75,-130.75"/>
<text text-anchor="start" x="8" y="-117.25" font-family="FreeSans" font-size="10.00">DGtal::ArithmeticalDSS</text>
<text text-anchor="start" x="8" y="-103" font-family="FreeSans" font-size="10.00">&lt; TCoordinate, TInteger,</text>
<text text-anchor="middle" x="63.88" y="-88.75" font-family="FreeSans" font-size="10.00"> adjacency &gt;</text>
</a>
</g>
</g>
<!-- Node2 -->
<g id="Node000002" class="node">
<title>Node2</title>
<g id="a_Node000002"><a xlink:href="classDGtal_1_1ArithmeticalDSS.html" target="_top" xlink:title=" ">
<polygon fill="white" stroke="#666666" points="473,-215.62 311.5,-215.62 311.5,-179.12 473,-179.12 473,-215.62"/>
<text text-anchor="start" x="319.5" y="-202.12" font-family="FreeSans" font-size="10.00">DGtal::ArithmeticalDSS</text>
<text text-anchor="middle" x="392.25" y="-187.88" font-family="FreeSans" font-size="10.00">&lt; TCoordinate, TCoordinate, 8 &gt;</text>
</a>
</g>
</g>
<!-- Node1&#45;&gt;Node2 -->
<g id="edge1_Node000001_Node000002" class="edge">
<title>Node1&#45;&gt;Node2</title>
<g id="a_edge1_Node000001_Node000002"><a xlink:title=" ">
<path fill="none" stroke="orange" stroke-dasharray="5,2" d="M117.93,-136.37C127.01,-140.86 136.5,-145.07 145.75,-148.38 199.37,-167.51 262.4,-179.9 311.17,-187.43"/>
<polygon fill="orange" stroke="orange" points="119.72,-133.36 109.23,-131.91 116.53,-139.59 119.72,-133.36"/>
</a>
</g>
<text text-anchor="middle" x="219.62" y="-188.12" font-family="FreeSans" font-size="10.00" fill="grey"> &lt; TCoordinate, TCoordinate, 8 &gt;</text>
</g>
<!-- Node4 -->
<g id="Node000004" class="node">
<title>Node4</title>
<g id="a_Node000004"><a xlink:href="classDGtal_1_1ArithmeticalDSS.html" target="_top" xlink:title=" ">
<polygon fill="white" stroke="#666666" points="473,-160.62 311.5,-160.62 311.5,-124.12 473,-124.12 473,-160.62"/>
<text text-anchor="start" x="319.5" y="-147.12" font-family="FreeSans" font-size="10.00">DGtal::ArithmeticalDSS</text>
<text text-anchor="middle" x="392.25" y="-132.88" font-family="FreeSans" font-size="10.00">&lt; TCoordinate, TCoordinate, 4 &gt;</text>
</a>
</g>
</g>
<!-- Node1&#45;&gt;Node4 -->
<g id="edge3_Node000001_Node000004" class="edge">
<title>Node1&#45;&gt;Node4</title>
<g id="a_edge3_Node000001_Node000004"><a xlink:title=" ">
<path fill="none" stroke="orange" stroke-dasharray="5,2" d="M139.51,-113.84C190.74,-119.64 258.66,-127.34 311.04,-133.28"/>
<polygon fill="orange" stroke="orange" points="140.02,-110.37 129.69,-112.72 139.24,-117.33 140.02,-110.37"/>
</a>
</g>
<text text-anchor="middle" x="219.62" y="-135.12" font-family="FreeSans" font-size="10.00" fill="grey"> &lt; TCoordinate, TCoordinate, 4 &gt;</text>
</g>
<!-- Node6 -->
<g id="Node000006" class="node">
<title>Node6</title>
<g id="a_Node000006"><a xlink:href="classDGtal_1_1ArithmeticalDSS.html" target="_top" xlink:title=" ">
<polygon fill="white" stroke="#666666" points="459.12,-105.62 325.38,-105.62 325.38,-69.12 459.12,-69.12 459.12,-105.62"/>
<text text-anchor="start" x="333.38" y="-92.12" font-family="FreeSans" font-size="10.00">DGtal::ArithmeticalDSS</text>
<text text-anchor="middle" x="392.25" y="-77.88" font-family="FreeSans" font-size="10.00">&lt; Coordinate, Integer, 8 &gt;</text>
</a>
</g>
</g>
<!-- Node1&#45;&gt;Node6 -->
<g id="edge5_Node000001_Node000006" class="edge">
<title>Node1&#45;&gt;Node6</title>
<g id="a_edge5_Node000001_Node000006"><a xlink:title=" ">
<path fill="none" stroke="orange" stroke-dasharray="5,2" d="M139.45,-97.6C141.57,-97.43 143.68,-97.27 145.75,-97.12 206.38,-92.83 275.58,-90.3 325.02,-88.89"/>
<polygon fill="orange" stroke="orange" points="139.16,-94.11 129.49,-98.43 139.74,-101.08 139.16,-94.11"/>
</a>
</g>
<text text-anchor="middle" x="219.62" y="-101.12" font-family="FreeSans" font-size="10.00" fill="grey"> &lt; Coordinate, Integer, 8 &gt;</text>
</g>
<!-- Node7 -->
<g id="Node000007" class="node">
<title>Node7</title>
<g id="a_Node000007"><a xlink:href="classDGtal_1_1ArithmeticalDSS.html" target="_top" xlink:title=" ">
<polygon fill="white" stroke="#666666" points="453.5,-50.75 331,-50.75 331,0 453.5,0 453.5,-50.75"/>
<text text-anchor="start" x="339" y="-37.25" font-family="FreeSans" font-size="10.00">DGtal::ArithmeticalDSS</text>
<text text-anchor="start" x="339" y="-23" font-family="FreeSans" font-size="10.00">&lt; Coordinate, Integer,</text>
<text text-anchor="middle" x="392.25" y="-8.75" font-family="FreeSans" font-size="10.00"> adjacency &gt;</text>
</a>
</g>
</g>
<!-- Node1&#45;&gt;Node7 -->
<g id="edge6_Node000001_Node000007" class="edge">
<title>Node1&#45;&gt;Node7</title>
<g id="a_edge6_Node000001_Node000007"><a xlink:title=" ">
<path fill="none" stroke="orange" stroke-dasharray="5,2" d="M110.25,-73.74C121.43,-67.22 133.67,-61.07 145.75,-56.88 206.44,-35.82 279.97,-28.61 330.65,-26.26"/>
<polygon fill="orange" stroke="orange" points="108.75,-70.55 102.03,-78.74 112.39,-76.53 108.75,-70.55"/>
</a>
</g>
<text text-anchor="start" x="167.88" y="-75.38" font-family="FreeSans" font-size="10.00" fill="grey"> &lt; Coordinate, Integer,</text>
<text text-anchor="middle" x="219.62" y="-61.12" font-family="FreeSans" font-size="10.00" fill="grey"> adjacency &gt;</text>
</g>
<!-- Node3 -->
<g id="Node000003" class="node">
<title>Node3</title>
<g id="a_Node000003"><a xlink:href="classDGtal_1_1NaiveDSS8.html" target="_top" xlink:title="Aim: This class represents a standard digital straight segment (DSS), ie. the sequence of simply 8&#45;co...">
<polygon fill="white" stroke="#666666" points="675,-215.62 509,-215.62 509,-179.12 675,-179.12 675,-215.62"/>
<text text-anchor="start" x="517" y="-202.12" font-family="FreeSans" font-size="10.00">DGtal::NaiveDSS8&lt; TCoordinate,</text>
<text text-anchor="middle" x="592" y="-187.88" font-family="FreeSans" font-size="10.00"> TInteger &gt;</text>
</a>
</g>
</g>
<!-- Node2&#45;&gt;Node3 -->
<g id="edge2_Node000002_Node000003" class="edge">
<title>Node2&#45;&gt;Node3</title>
<g id="a_edge2_Node000002_Node000003"><a xlink:title=" ">
<path fill="none" stroke="#63b8ff" d="M484.7,-197.38C492.74,-197.38 500.85,-197.38 508.81,-197.38"/>
<polygon fill="#63b8ff" stroke="#63b8ff" points="484.91,-193.88 474.91,-197.38 484.91,-200.88 484.91,-193.88"/>
</a>
</g>
</g>
<!-- Node5 -->
<g id="Node000005" class="node">
<title>Node5</title>
<g id="a_Node000005"><a xlink:href="classDGtal_1_1StandardDSS4.html" target="_top" xlink:title="Aim: This class represents a standard digital straight segment (DSS), ie. the sequence of simply 4&#45;co...">
<polygon fill="white" stroke="#666666" points="659.62,-160.62 524.38,-160.62 524.38,-124.12 659.62,-124.12 659.62,-160.62"/>
<text text-anchor="start" x="532.38" y="-147.12" font-family="FreeSans" font-size="10.00">DGtal::StandardDSS4</text>
<text text-anchor="middle" x="592" y="-132.88" font-family="FreeSans" font-size="10.00">&lt; TCoordinate, TInteger &gt;</text>
</a>
</g>
</g>
<!-- Node4&#45;&gt;Node5 -->
<g id="edge4_Node000004_Node000005" class="edge">
<title>Node4&#45;&gt;Node5</title>
<g id="a_edge4_Node000004_Node000005"><a xlink:title=" ">
<path fill="none" stroke="#63b8ff" d="M484.51,-142.38C497.83,-142.38 511.32,-142.38 524.03,-142.38"/>
<polygon fill="#63b8ff" stroke="#63b8ff" points="484.91,-138.88 474.91,-142.38 484.91,-145.88 484.91,-138.88"/>
</a>
</g>
</g>
</g>
</svg>

<g id="navigator" transform="translate(0 0)" fill="#404254">
  <rect fill="#f2f5e9" fill-opacity="0.5" stroke="#606060" stroke-width=".5" x="0" y="0" width="60" height="60"/>
  <use id="zoomplus" xlink:href="#zoomPlus" x="17" y="9" onmousedown="handleZoom(evt,'in')"/>
  <use id="zoomminus" xlink:href="#zoomMin" x="42" y="9" onmousedown="handleZoom(evt,'out')"/>
  <use id="reset" xlink:href="#resetDef" x="30" y="36" onmousedown="handleReset()"/>
   <use id="arrowup" xlink:href="#arrowUp" x="0" y="0" onmousedown="handlePan(0,-1)"/>
  <use id="arrowright" xlink:href="#arrowRight" x="0" y="0" onmousedown="handlePan(1,0)"/>
  <use id="arrowdown" xlink:href="#arrowDown" x="0" y="0" onmousedown="handlePan(0,1)"/>
  <use id="arrowleft" xlink:href="#arrowLeft" x="0" y="0" onmousedown="handlePan(-1,0)"/>
</g>
<svg viewBox="0 0 15 15" width="100%" height="30px" preserveAspectRatio="xMaxYMin meet">
 <g id="arrow_out" transform="scale(0.3 0.3)">
  <a xlink:href="classDGtal_1_1ArithmeticalDSS__inherit__graph_org.svg" target="_base">
   <rect id="button" ry="5" rx="5" y="6" x="6" height="38" width="38"
        fill="#f2f5e9" fill-opacity="0.5" stroke="#606060" stroke-width="1.0"/>
   <path id="arrow"
     d="M 11.500037,31.436501 C 11.940474,20.09759 22.043105,11.32322 32.158766,21.979434 L 37.068811,17.246167 C 37.068811,17.246167 37.088388,32 37.088388,32 L 22.160133,31.978069 C 22.160133,31.978069 26.997745,27.140456 26.997745,27.140456 C 18.528582,18.264221 13.291696,25.230495 11.500037,31.436501 z"
     style="fill:#404040;"/>
  </a>
 </g>
</svg>

<style type='text/css'>
<![CDATA[
[data-mouse-over-selected='false'] { opacity: 0.7; }
[data-mouse-over-selected='true']  { opacity: 1.0; }
]]>
</style>
<script type="application/ecmascript"><![CDATA[
document.addEventListener('DOMContentLoaded', (event) => {
  highlightEdges();
  highlightAdjacentNodes();
});
]]></script>
</svg>
