<?xml version="1.0" encoding="UTF-8" standalone="no"?>
<!DOCTYPE svg PUBLIC "-//W3C//DTD SVG 1.1//EN"
 "http://www.w3.org/Graphics/SVG/1.1/DTD/svg11.dtd">
<!-- Generated by graphviz version 11.0.0 (0)
 -->
<!-- Title: DGtal::Simple2x2DetComputer&lt; TArgumentInteger, TResultInteger &gt; Pages: 1 -->
<svg width="529pt" height="114pt"
 viewBox="0.00 0.00 529.00 113.62" xmlns="http://www.w3.org/2000/svg" xmlns:xlink="http://www.w3.org/1999/xlink">
<g id="graph0" class="graph" transform="scale(1 1) rotate(0) translate(4 109.62)">
<title>DGtal::Simple2x2DetComputer&lt; TArgumentInteger, TResultInteger &gt;</title>
<!-- Node1 -->
<g id="Node000001" class="node">
<title>Node1</title>
<g id="a_Node000001"><a xlink:title="Aim: Small class useful to compute the determinant of a 2x2 matrix from its four coefficients,...">
<polygon fill="#999999" stroke="#666666" points="193,-74.62 0,-74.62 0,-38.12 193,-38.12 193,-74.62"/>
<text text-anchor="start" x="8" y="-61.12" font-family="FreeSans" font-size="10.00">DGtal::Simple2x2DetComputer</text>
<text text-anchor="middle" x="96.5" y="-46.88" font-family="FreeSans" font-size="10.00">&lt; TArgumentInteger, TResultInteger &gt;</text>
</a>
</g>
</g>
<!-- Node2 -->
<g id="Node000002" class="node">
<title>Node2</title>
<g id="a_Node000002"><a xlink:href="classDGtal_1_1Simple2x2DetComputer.html" target="_top" xlink:title=" ">
<polygon fill="white" stroke="#666666" points="519.88,-105.62 359.12,-105.62 359.12,-69.12 519.88,-69.12 519.88,-105.62"/>
<text text-anchor="start" x="367.12" y="-92.12" font-family="FreeSans" font-size="10.00">DGtal::Simple2x2DetComputer</text>
<text text-anchor="middle" x="439.5" y="-77.88" font-family="FreeSans" font-size="10.00">&lt; Integer &gt;</text>
</a>
</g>
</g>
<!-- Node1&#45;&gt;Node2 -->
<g id="edge1_Node000001_Node000002" class="edge">
<title>Node1&#45;&gt;Node2</title>
<g id="a_edge1_Node000001_Node000002"><a xlink:title=" ">
<path fill="none" stroke="orange" stroke-dasharray="5,2" d="M204.57,-66.11C254.5,-70.65 312.9,-75.96 358.86,-80.13"/>
<polygon fill="orange" stroke="orange" points="205.18,-62.65 194.9,-65.23 204.54,-69.62 205.18,-62.65"/>
</a>
</g>
<text text-anchor="middle" x="275.5" y="-82.12" font-family="FreeSans" font-size="10.00" fill="grey"> &lt; Integer &gt;</text>
</g>
<!-- Node3 -->
<g id="Node000003" class="node">
<title>Node3</title>
<g id="a_Node000003"><a xlink:href="classDGtal_1_1Simple2x2DetComputer.html" target="_top" xlink:title=" ">
<polygon fill="white" stroke="#666666" points="521,-50.75 358,-50.75 358,0 521,0 521,-50.75"/>
<text text-anchor="start" x="366" y="-37.25" font-family="FreeSans" font-size="10.00">DGtal::Simple2x2DetComputer</text>
<text text-anchor="start" x="366" y="-23" font-family="FreeSans" font-size="10.00">&lt; typename TPoint::Coordinate,</text>
<text text-anchor="middle" x="439.5" y="-8.75" font-family="FreeSans" font-size="10.00"> DGtal::int64_t &gt;</text>
</a>
</g>
</g>
<!-- Node1&#45;&gt;Node3 -->
<g id="edge2_Node000001_Node000003" class="edge">
<title>Node1&#45;&gt;Node3</title>
<g id="a_edge2_Node000001_Node000003"><a xlink:title=" ">
<path fill="none" stroke="orange" stroke-dasharray="5,2" d="M195.87,-35.89C200.97,-35.14 206.04,-34.46 211,-33.88 259.48,-28.2 314.13,-26.02 357.72,-25.29"/>
<polygon fill="orange" stroke="orange" points="195.48,-32.41 186.15,-37.42 196.57,-39.32 195.48,-32.41"/>
</a>
</g>
<text text-anchor="start" x="211" y="-52.38" font-family="FreeSans" font-size="10.00" fill="grey"> &lt; typename TPoint::</text>
<text text-anchor="middle" x="275.5" y="-38.12" font-family="FreeSans" font-size="10.00" fill="grey">Coordinate, DGtal::int64_t &gt;</text>
</g>
</g>
</svg>
