<?xml version="1.0" encoding="UTF-8" standalone="no"?>
<!DOCTYPE svg PUBLIC "-//W3C//DTD SVG 1.1//EN"
 "http://www.w3.org/Graphics/SVG/1.1/DTD/svg11.dtd">
<!-- Generated by graphviz version 11.0.0 (0)
 -->
<!-- Title: DGtal::LambdaMST3DEstimator&lt; TSpace, TSegmentation, Functor, DSSFilter &gt; Pages: 1 -->
<!--zoomable 174 -->

<svg id="main" version="1.1" xmlns="http://www.w3.org/2000/svg" xmlns:xlink="http://www.w3.org/1999/xlink" xml:space="preserve" onload="init(evt)">
<style type="text/css"><![CDATA[
.node, .edge {opacity: 0.7;}
.node.selected, .edge.selected {opacity: 1;}
.edge:hover path { stroke: red; }
.edge:hover polygon { stroke: red; fill: red; }
]]></style>

<defs>
  <circle id="rim" cx="0" cy="0" r="7"/>
  <circle id="rim2" cx="0" cy="0" r="3.5"/>
  <g id="zoomPlus">
    <use xlink:href="#rim" fill="#404040"><set attributeName="fill" to="#808080" begin="zoomplus.mouseover" end="zoomplus.mouseout"/></use>
    <path d="M-4,0h8M0,-4v8" fill="none" stroke="white" stroke-width="1.5" pointer-events="none"/>
  </g>
  <g id="zoomMin">
    <use xlink:href="#rim" fill="#404040"><set attributeName="fill" to="#808080" begin="zoomminus.mouseover" end="zoomminus.mouseout"/></use>
    <path d="M-4,0h8" fill="none" stroke="white" stroke-width="1.5" pointer-events="none"/>
  </g>
  <g id="arrowUp" transform="translate(30 24)">
    <use xlink:href="#rim"/>
    <path pointer-events="none" fill="none" stroke="white" stroke-width="1.5" d="M0,-3.0v7 M-2.5,-0.5L0,-3.0L2.5,-0.5"/>
  </g>
  <g id="arrowRight" transform="rotate(90) translate(36 -43)">
    <use xlink:href="#rim"/>
    <path pointer-events="none" fill="none" stroke="white" stroke-width="1.5" d="M0,-3.0v7 M-2.5,-0.5L0,-3.0L2.5,-0.5"/>
  </g>
  <g id="arrowDown" transform="rotate(180) translate(-30 -48)">
    <use xlink:href="#rim"/>
    <path pointer-events="none" fill="none" stroke="white" stroke-width="1.5" d="M0,-3.0v7 M-2.5,-0.5L0,-3.0L2.5,-0.5"/>
  </g>
  <g id="arrowLeft" transform="rotate(270) translate(-36 17)">
    <use xlink:href="#rim"/>
    <path pointer-events="none" fill="none" stroke="white" stroke-width="1.5" d="M0,-3.0v7 M-2.5,-0.5L0,-3.0L2.5,-0.5"/>
  </g>
  <g id="resetDef">
    <use xlink:href="#rim2" fill="#404040"><set attributeName="fill" to="#808080" begin="reset.mouseover" end="reset.mouseout"/></use>
  </g>
</defs>
<script type="application/ecmascript">
var viewWidth = 792;
var viewHeight = 174;
var sectionId = 'dynsection-0';
</script>
<script type="application/ecmascript" xlink:href="svg.min.js"/>
<svg id="graph" class="graph">
<g id="viewport">
<title>DGtal::LambdaMST3DEstimator&lt; TSpace, TSegmentation, Functor, DSSFilter &gt;</title>
<!-- Node1 -->
<g id="Node000001" class="node">
<title>Node1</title>
<g id="a_Node000001"><a xlink:title=" ">
<polygon fill="#999999" stroke="#666666" points="162.25,-119.12 0,-119.12 0,-68.38 162.25,-68.38 162.25,-119.12"/>
<text text-anchor="start" x="8" y="-105.62" font-family="FreeSans" font-size="10.00">DGtal::LambdaMST3DEstimator</text>
<text text-anchor="start" x="8" y="-91.38" font-family="FreeSans" font-size="10.00">&lt; TSpace, TSegmentation,</text>
<text text-anchor="middle" x="81.12" y="-77.12" font-family="FreeSans" font-size="10.00"> Functor, DSSFilter &gt;</text>
</a>
</g>
</g>
<!-- Node2 -->
<g id="Node000002" class="node">
<title>Node2</title>
<g id="a_Node000002"><a xlink:href="classDGtal_1_1LambdaMST3D.html" target="_top" xlink:title="Aim: Simplify creation of Lambda MST tangent estimator.">
<polygon fill="white" stroke="#666666" points="719,-166.12 563.5,-166.12 563.5,-115.38 719,-115.38 719,-166.12"/>
<text text-anchor="start" x="571.5" y="-152.62" font-family="FreeSans" font-size="10.00">DGtal::LambdaMST3D</text>
<text text-anchor="start" x="571.5" y="-138.38" font-family="FreeSans" font-size="10.00">&lt; DSSSegmentationComputer,</text>
<text text-anchor="middle" x="641.25" y="-124.12" font-family="FreeSans" font-size="10.00"> LambdaFunction, DSSFilter &gt;</text>
</a>
</g>
</g>
<!-- Node1&#45;&gt;Node2 -->
<g id="edge1_Node000001_Node000002" class="edge">
<title>Node1&#45;&gt;Node2</title>
<g id="a_edge1_Node000001_Node000002"><a xlink:title=" ">
<path fill="none" stroke="#63b8ff" d="M174.01,-117.75C176.11,-118.11 178.19,-118.44 180.25,-118.75 313.88,-138.76 471.55,-141.94 563.28,-141.79"/>
<polygon fill="#63b8ff" stroke="#63b8ff" points="174.68,-114.32 164.21,-115.93 173.4,-121.2 174.68,-114.32"/>
</a>
</g>
</g>
<!-- Node3 -->
<g id="Node000003" class="node">
<title>Node3</title>
<g id="a_Node000003"><a xlink:href="classDGtal_1_1LambdaMST3DEstimator.html" target="_top" xlink:title=" ">
<polygon fill="white" stroke="#666666" points="784.25,-93.5 498.25,-93.5 498.25,0 784.25,0 784.25,-93.5"/>
<text text-anchor="start" x="506.25" y="-80" font-family="FreeSans" font-size="10.00">DGtal::LambdaMST3DEstimator</text>
<text text-anchor="start" x="506.25" y="-65.75" font-family="FreeSans" font-size="10.00">&lt; Z3i::Space, DSSSegmentationComputer,</text>
<text text-anchor="start" x="506.25" y="-51.5" font-family="FreeSans" font-size="10.00"> TangentFromDSS3DFunctor&lt; DSSSegmentationComputer</text>
<text text-anchor="start" x="506.25" y="-37.25" font-family="FreeSans" font-size="10.00">::SegmentComputer, functors::Lambda64Function</text>
<text text-anchor="start" x="506.25" y="-23" font-family="FreeSans" font-size="10.00"> &gt;, DSSMuteFilter&lt; typename DSSSegmentationComputer</text>
<text text-anchor="middle" x="641.25" y="-8.75" font-family="FreeSans" font-size="10.00">::SegmentComputer &gt; &gt;</text>
</a>
</g>
</g>
<!-- Node1&#45;&gt;Node3 -->
<g id="edge2_Node000001_Node000003" class="edge">
<title>Node1&#45;&gt;Node3</title>
<g id="a_edge2_Node000001_Node000003"><a xlink:title=" ">
<path fill="none" stroke="orange" stroke-dasharray="5,2" d="M132,-62.48C146.95,-54.71 163.77,-47.47 180.25,-43.5 284.48,-18.36 405.89,-20.49 497.81,-28.19"/>
<polygon fill="orange" stroke="orange" points="130.43,-59.35 123.3,-67.19 133.76,-65.51 130.43,-59.35"/>
</a>
</g>
<text text-anchor="start" x="180.25" y="-105.5" font-family="FreeSans" font-size="10.00" fill="grey"> &lt; Z3i::Space, DSSSegmentation</text>
<text text-anchor="start" x="180.25" y="-91.25" font-family="FreeSans" font-size="10.00" fill="grey">Computer, TangentFromDSS3DFunctor</text>
<text text-anchor="start" x="180.25" y="-77" font-family="FreeSans" font-size="10.00" fill="grey">&lt; DSSSegmentationComputer::SegmentComputer,</text>
<text text-anchor="start" x="180.25" y="-62.75" font-family="FreeSans" font-size="10.00" fill="grey"> functors::Lambda64Function &gt;, DSSMuteFilter</text>
<text text-anchor="middle" x="330.25" y="-48.5" font-family="FreeSans" font-size="10.00" fill="grey">&lt; typename DSSSegmentationComputer::SegmentComputer &gt; &gt;</text>
</g>
</g>
</svg>

<g id="navigator" transform="translate(0 0)" fill="#404254">
  <rect fill="#f2f5e9" fill-opacity="0.5" stroke="#606060" stroke-width=".5" x="0" y="0" width="60" height="60"/>
  <use id="zoomplus" xlink:href="#zoomPlus" x="17" y="9" onmousedown="handleZoom(evt,'in')"/>
  <use id="zoomminus" xlink:href="#zoomMin" x="42" y="9" onmousedown="handleZoom(evt,'out')"/>
  <use id="reset" xlink:href="#resetDef" x="30" y="36" onmousedown="handleReset()"/>
   <use id="arrowup" xlink:href="#arrowUp" x="0" y="0" onmousedown="handlePan(0,-1)"/>
  <use id="arrowright" xlink:href="#arrowRight" x="0" y="0" onmousedown="handlePan(1,0)"/>
  <use id="arrowdown" xlink:href="#arrowDown" x="0" y="0" onmousedown="handlePan(0,1)"/>
  <use id="arrowleft" xlink:href="#arrowLeft" x="0" y="0" onmousedown="handlePan(-1,0)"/>
</g>
<svg viewBox="0 0 15 15" width="100%" height="30px" preserveAspectRatio="xMaxYMin meet">
 <g id="arrow_out" transform="scale(0.3 0.3)">
  <a xlink:href="classDGtal_1_1LambdaMST3DEstimator__inherit__graph_org.svg" target="_base">
   <rect id="button" ry="5" rx="5" y="6" x="6" height="38" width="38"
        fill="#f2f5e9" fill-opacity="0.5" stroke="#606060" stroke-width="1.0"/>
   <path id="arrow"
     d="M 11.500037,31.436501 C 11.940474,20.09759 22.043105,11.32322 32.158766,21.979434 L 37.068811,17.246167 C 37.068811,17.246167 37.088388,32 37.088388,32 L 22.160133,31.978069 C 22.160133,31.978069 26.997745,27.140456 26.997745,27.140456 C 18.528582,18.264221 13.291696,25.230495 11.500037,31.436501 z"
     style="fill:#404040;"/>
  </a>
 </g>
</svg>

<style type='text/css'>
<![CDATA[
[data-mouse-over-selected='false'] { opacity: 0.7; }
[data-mouse-over-selected='true']  { opacity: 1.0; }
]]>
</style>
<script type="application/ecmascript"><![CDATA[
document.addEventListener('DOMContentLoaded', (event) => {
  highlightEdges();
  highlightAdjacentNodes();
});
]]></script>
</svg>
