<?xml version="1.0" encoding="UTF-8" standalone="no"?>
<!DOCTYPE svg PUBLIC "-//W3C//DTD SVG 1.1//EN"
 "http://www.w3.org/Graphics/SVG/1.1/DTD/svg11.dtd">
<!-- Generated by graphviz version 11.0.0 (0)
 -->
<!-- Title: DGtal::MPolynomialEvaluatorImpl&lt; n, TRing, TOwner, TAlloc, TX &gt; Pages: 1 -->
<svg width="476pt" height="100pt"
 viewBox="0.00 0.00 475.75 99.50" xmlns="http://www.w3.org/2000/svg" xmlns:xlink="http://www.w3.org/1999/xlink">
<g id="graph0" class="graph" transform="scale(1 1) rotate(0) translate(4 95.5)">
<title>DGtal::MPolynomialEvaluatorImpl&lt; n, TRing, TOwner, TAlloc, TX &gt;</title>
<!-- Node1 -->
<g id="Node000001" class="node">
<title>Node1</title>
<g id="a_Node000001"><a xlink:title=" ">
<polygon fill="#999999" stroke="#666666" points="151,-70.62 0,-70.62 0,-19.88 151,-19.88 151,-70.62"/>
<text text-anchor="start" x="8" y="-57.12" font-family="FreeSans" font-size="10.00">DGtal::MPolynomialEvaluator</text>
<text text-anchor="start" x="8" y="-42.88" font-family="FreeSans" font-size="10.00">Impl&lt; n, TRing, TOwner,</text>
<text text-anchor="middle" x="75.5" y="-28.62" font-family="FreeSans" font-size="10.00"> TAlloc, TX &gt;</text>
</a>
</g>
</g>
<!-- Node2 -->
<g id="Node000002" class="node">
<title>Node2</title>
<g id="a_Node000002"><a xlink:href="classDGtal_1_1MPolynomialEvaluatorImpl.html" target="_top" xlink:title=" ">
<polygon fill="white" stroke="#666666" points="467.75,-91.5 310,-91.5 310,-55 467.75,-55 467.75,-91.5"/>
<text text-anchor="start" x="318" y="-78" font-family="FreeSans" font-size="10.00">DGtal::MPolynomialEvaluator</text>
<text text-anchor="middle" x="388.88" y="-63.75" font-family="FreeSans" font-size="10.00">Impl&lt; n, Ring, Owner, Alloc, X &gt;</text>
</a>
</g>
</g>
<!-- Node1&#45;&gt;Node2 -->
<g id="edge1_Node000001_Node000002" class="edge">
<title>Node1&#45;&gt;Node2</title>
<g id="a_edge1_Node000001_Node000002"><a xlink:title=" ">
<path fill="none" stroke="orange" stroke-dasharray="5,2" d="M162.94,-53.02C208.94,-57.16 265.07,-62.21 309.75,-66.22"/>
<polygon fill="orange" stroke="orange" points="163.26,-49.54 152.99,-52.13 162.63,-56.51 163.26,-49.54"/>
</a>
</g>
<text text-anchor="middle" x="230.5" y="-68" font-family="FreeSans" font-size="10.00" fill="grey"> &lt; n, Ring, Owner, Alloc, X &gt;</text>
</g>
<!-- Node3 -->
<g id="Node000003" class="node">
<title>Node3</title>
<g id="a_Node000003"><a xlink:href="classDGtal_1_1MPolynomialEvaluatorImpl.html" target="_top" xlink:title=" ">
<polygon fill="white" stroke="#666666" points="467.75,-36.5 310,-36.5 310,0 467.75,0 467.75,-36.5"/>
<text text-anchor="start" x="318" y="-23" font-family="FreeSans" font-size="10.00">DGtal::MPolynomialEvaluator</text>
<text text-anchor="middle" x="388.88" y="-8.75" font-family="FreeSans" font-size="10.00">Impl&lt; 1, Ring, Owner, Alloc, X &gt;</text>
</a>
</g>
</g>
<!-- Node1&#45;&gt;Node3 -->
<g id="edge2_Node000001_Node000003" class="edge">
<title>Node1&#45;&gt;Node3</title>
<g id="a_edge2_Node000001_Node000003"><a xlink:title=" ">
<path fill="none" stroke="orange" stroke-dasharray="5,2" d="M162.78,-37.54C164.88,-37.36 166.95,-37.18 169,-37 215.64,-32.92 267.87,-28.44 309.61,-24.89"/>
<polygon fill="orange" stroke="orange" points="162.63,-34.04 152.97,-38.41 163.24,-41.02 162.63,-34.04"/>
</a>
</g>
<text text-anchor="middle" x="230.5" y="-41" font-family="FreeSans" font-size="10.00" fill="grey"> &lt; 1, Ring, Owner, Alloc, X &gt;</text>
</g>
</g>
</svg>
