<?xml version="1.0" encoding="UTF-8" standalone="no"?>
<!DOCTYPE svg PUBLIC "-//W3C//DTD SVG 1.1//EN"
 "http://www.w3.org/Graphics/SVG/1.1/DTD/svg11.dtd">
<!-- Generated by graphviz version 11.0.0 (0)
 -->
<!-- Title: DGtal::IteratorCompletion&lt; TDerived &gt; Pages: 1 -->
<svg width="719pt" height="119pt"
 viewBox="0.00 0.00 719.00 119.00" xmlns="http://www.w3.org/2000/svg" xmlns:xlink="http://www.w3.org/1999/xlink">
<g id="graph0" class="graph" transform="scale(1 1) rotate(0) translate(4 115)">
<title>DGtal::IteratorCompletion&lt; TDerived &gt;</title>
<!-- Node1 -->
<g id="Node000001" class="node">
<title>Node1</title>
<g id="a_Node000001"><a xlink:title="Aim: Class that uses CRTP to add reverse iterators and ranges to a derived class.">
<polygon fill="#999999" stroke="#666666" points="138.25,-66.5 0,-66.5 0,-30 138.25,-30 138.25,-66.5"/>
<text text-anchor="start" x="8" y="-53" font-family="FreeSans" font-size="10.00">DGtal::IteratorCompletion</text>
<text text-anchor="middle" x="69.12" y="-38.75" font-family="FreeSans" font-size="10.00">&lt; TDerived &gt;</text>
</a>
</g>
</g>
<!-- Node2 -->
<g id="Node000002" class="node">
<title>Node2</title>
<g id="a_Node000002"><a xlink:href="classDGtal_1_1IteratorCompletion.html" target="_top" xlink:title=" ">
<polygon fill="white" stroke="#666666" points="495.5,-105.62 301.75,-105.62 301.75,-54.88 495.5,-54.88 495.5,-105.62"/>
<text text-anchor="start" x="309.75" y="-92.12" font-family="FreeSans" font-size="10.00">DGtal::IteratorCompletion</text>
<text text-anchor="start" x="309.75" y="-77.88" font-family="FreeSans" font-size="10.00">&lt; ArrayImageAdapter&lt; TArrayIterator,</text>
<text text-anchor="middle" x="398.62" y="-63.62" font-family="FreeSans" font-size="10.00"> HyperRectDomain&lt; TSpace &gt; &gt; &gt;</text>
</a>
</g>
</g>
<!-- Node1&#45;&gt;Node2 -->
<g id="edge1_Node000001_Node000002" class="edge">
<title>Node1&#45;&gt;Node2</title>
<g id="a_edge1_Node000001_Node000002"><a xlink:title=" ">
<path fill="none" stroke="orange" stroke-dasharray="5,2" d="M149.74,-56.03C195.48,-60.5 253.25,-66.14 301.51,-70.86"/>
<polygon fill="orange" stroke="orange" points="150.18,-52.56 139.89,-55.07 149.5,-59.52 150.18,-52.56"/>
</a>
</g>
<text text-anchor="start" x="156.25" y="-101.5" font-family="FreeSans" font-size="10.00" fill="grey"> &lt; ArrayImageAdapter</text>
<text text-anchor="start" x="156.25" y="-87.25" font-family="FreeSans" font-size="10.00" fill="grey">&lt; TArrayIterator, HyperRect</text>
<text text-anchor="middle" x="220" y="-73" font-family="FreeSans" font-size="10.00" fill="grey">Domain&lt; TSpace &gt; &gt; &gt;</text>
</g>
<!-- Node4 -->
<g id="Node000004" class="node">
<title>Node4</title>
<g id="a_Node000004"><a xlink:href="classDGtal_1_1IteratorCompletion.html" target="_top" xlink:title=" ">
<polygon fill="white" stroke="#666666" points="467.75,-36.5 329.5,-36.5 329.5,0 467.75,0 467.75,-36.5"/>
<text text-anchor="start" x="337.5" y="-23" font-family="FreeSans" font-size="10.00">DGtal::IteratorCompletion</text>
<text text-anchor="middle" x="398.62" y="-8.75" font-family="FreeSans" font-size="10.00">&lt; MyImage&lt; T, N &gt; &gt;</text>
</a>
</g>
</g>
<!-- Node1&#45;&gt;Node4 -->
<g id="edge3_Node000001_Node000004" class="edge">
<title>Node1&#45;&gt;Node4</title>
<g id="a_edge3_Node000001_Node000004"><a xlink:title=" ">
<path fill="none" stroke="orange" stroke-dasharray="5,2" d="M150.03,-37.67C152.13,-37.44 154.2,-37.21 156.25,-37 214.46,-30.94 280.77,-25.93 329.13,-22.61"/>
<polygon fill="orange" stroke="orange" points="149.76,-34.17 140.23,-38.79 150.56,-41.13 149.76,-34.17"/>
</a>
</g>
<text text-anchor="middle" x="220" y="-41" font-family="FreeSans" font-size="10.00" fill="grey"> &lt; MyImage&lt; T, N &gt; &gt;</text>
</g>
<!-- Node3 -->
<g id="Node000003" class="node">
<title>Node3</title>
<g id="a_Node000003"><a xlink:href="classDGtal_1_1ArrayImageAdapter_3_01TArrayIterator_00_01HyperRectDomain_3_01TSpace_01_4_01_4.html" target="_top" xlink:title="Aim: Image adapter for generic arrays with sub&#45;domain view capability.">
<polygon fill="white" stroke="#666666" points="711,-105.62 531.5,-105.62 531.5,-54.88 711,-54.88 711,-105.62"/>
<text text-anchor="start" x="539.5" y="-92.12" font-family="FreeSans" font-size="10.00">DGtal::ArrayImageAdapter</text>
<text text-anchor="start" x="539.5" y="-77.88" font-family="FreeSans" font-size="10.00">&lt; TArrayIterator, HyperRectDomain</text>
<text text-anchor="middle" x="621.25" y="-63.62" font-family="FreeSans" font-size="10.00">&lt; TSpace &gt; &gt;</text>
</a>
</g>
</g>
<!-- Node2&#45;&gt;Node3 -->
<g id="edge2_Node000002_Node000003" class="edge">
<title>Node2&#45;&gt;Node3</title>
<g id="a_edge2_Node000002_Node000003"><a xlink:title=" ">
<path fill="none" stroke="#63b8ff" d="M507.07,-80.25C515.1,-80.25 523.15,-80.25 531.05,-80.25"/>
<polygon fill="#63b8ff" stroke="#63b8ff" points="507.27,-76.75 497.27,-80.25 507.27,-83.75 507.27,-76.75"/>
</a>
</g>
</g>
<!-- Node5 -->
<g id="Node000005" class="node">
<title>Node5</title>
<g id="a_Node000005"><a xlink:title=" ">
<polygon fill="white" stroke="#666666" points="668.62,-29.38 573.88,-29.38 573.88,-7.12 668.62,-7.12 668.62,-29.38"/>
<text text-anchor="middle" x="621.25" y="-15.88" font-family="FreeSans" font-size="10.00">MyImage&lt; T, N &gt;</text>
</a>
</g>
</g>
<!-- Node4&#45;&gt;Node5 -->
<g id="edge4_Node000004_Node000005" class="edge">
<title>Node4&#45;&gt;Node5</title>
<g id="a_edge4_Node000004_Node000005"><a xlink:title=" ">
<path fill="none" stroke="#63b8ff" d="M479.68,-18.25C511.26,-18.25 546.43,-18.25 573.69,-18.25"/>
<polygon fill="#63b8ff" stroke="#63b8ff" points="479.74,-14.75 469.74,-18.25 479.74,-21.75 479.74,-14.75"/>
</a>
</g>
</g>
</g>
</svg>
