<?xml version="1.0" encoding="UTF-8" standalone="no"?>
<!DOCTYPE svg PUBLIC "-//W3C//DTD SVG 1.1//EN"
 "http://www.w3.org/Graphics/SVG/1.1/DTD/svg11.dtd">
<!-- Generated by graphviz version 11.0.0 (0)
 -->
<!-- Title: DGtal::detail::PosIndepScaleIndepSCEstimator&lt; TSegmentComputer, Functor, ReturnType &gt; Pages: 1 -->
<svg width="855pt" height="211pt"
 viewBox="0.00 0.00 854.75 210.88" xmlns="http://www.w3.org/2000/svg" xmlns:xlink="http://www.w3.org/1999/xlink">
<g id="graph0" class="graph" transform="scale(1 1) rotate(0) translate(4 206.88)">
<title>DGtal::detail::PosIndepScaleIndepSCEstimator&lt; TSegmentComputer, Functor, ReturnType &gt;</title>
<!-- Node1 -->
<g id="Node000001" class="node">
<title>Node1</title>
<g id="a_Node000001"><a xlink:title=" ">
<polygon fill="#999999" stroke="#666666" points="202.75,-133.88 0,-133.88 0,-83.12 202.75,-83.12 202.75,-133.88"/>
<text text-anchor="start" x="8" y="-120.38" font-family="FreeSans" font-size="10.00">DGtal::detail::PosIndepScale</text>
<text text-anchor="start" x="8" y="-106.12" font-family="FreeSans" font-size="10.00">IndepSCEstimator&lt; TSegmentComputer,</text>
<text text-anchor="middle" x="101.38" y="-91.88" font-family="FreeSans" font-size="10.00"> Functor, ReturnType &gt;</text>
</a>
</g>
</g>
<!-- Node2 -->
<g id="Node000002" class="node">
<title>Node2</title>
<g id="a_Node000002"><a xlink:href="classDGtal_1_1detail_1_1PosIndepScaleIndepSCEstimator.html" target="_top" xlink:title=" ">
<polygon fill="white" stroke="#666666" points="587.75,-202.88 414.25,-202.88 414.25,-152.12 587.75,-152.12 587.75,-202.88"/>
<text text-anchor="start" x="422.25" y="-189.38" font-family="FreeSans" font-size="10.00">DGtal::detail::PosIndepScale</text>
<text text-anchor="start" x="422.25" y="-175.12" font-family="FreeSans" font-size="10.00">IndepSCEstimator&lt; DSSComputer,</text>
<text text-anchor="middle" x="501" y="-160.88" font-family="FreeSans" font-size="10.00"> detail::TangentAngleFromDSS &gt;</text>
</a>
</g>
</g>
<!-- Node1&#45;&gt;Node2 -->
<g id="edge1_Node000001_Node000002" class="edge">
<title>Node1&#45;&gt;Node2</title>
<g id="a_edge1_Node000001_Node000002"><a xlink:title=" ">
<path fill="none" stroke="orange" stroke-dasharray="5,2" d="M171.05,-138.28C187.1,-144.2 204.31,-149.75 220.75,-153.5 284.44,-168.04 358.12,-173.93 413.81,-176.25"/>
<polygon fill="orange" stroke="orange" points="172.69,-135.16 162.1,-134.88 170.21,-141.7 172.69,-135.16"/>
</a>
</g>
<text text-anchor="start" x="236.12" y="-192.5" font-family="FreeSans" font-size="10.00" fill="grey"> &lt; DSSComputer, detail</text>
<text text-anchor="middle" x="296.5" y="-178.25" font-family="FreeSans" font-size="10.00" fill="grey">::TangentAngleFromDSS &gt;</text>
</g>
<!-- Node4 -->
<g id="Node000004" class="node">
<title>Node4</title>
<g id="a_Node000004"><a xlink:href="classDGtal_1_1detail_1_1PosIndepScaleIndepSCEstimator.html" target="_top" xlink:title=" ">
<polygon fill="white" stroke="#666666" points="611.75,-133.88 390.25,-133.88 390.25,-83.12 611.75,-83.12 611.75,-133.88"/>
<text text-anchor="start" x="398.25" y="-120.38" font-family="FreeSans" font-size="10.00">DGtal::detail::PosIndepScale</text>
<text text-anchor="start" x="398.25" y="-106.12" font-family="FreeSans" font-size="10.00">IndepSCEstimator&lt; DSSComputer,</text>
<text text-anchor="middle" x="501" y="-91.88" font-family="FreeSans" font-size="10.00"> detail::NormalizedTangentVectorFromDSS &gt;</text>
</a>
</g>
</g>
<!-- Node1&#45;&gt;Node4 -->
<g id="edge3_Node000001_Node000004" class="edge">
<title>Node1&#45;&gt;Node4</title>
<g id="a_edge3_Node000001_Node000004"><a xlink:title=" ">
<path fill="none" stroke="orange" stroke-dasharray="5,2" d="M214.41,-108.5C269.3,-108.5 335.17,-108.5 389.82,-108.5"/>
<polygon fill="orange" stroke="orange" points="214.74,-105 204.74,-108.5 214.74,-112 214.74,-105"/>
</a>
</g>
<text text-anchor="start" x="220.75" y="-141.75" font-family="FreeSans" font-size="10.00" fill="grey"> &lt; DSSComputer, detail</text>
<text text-anchor="start" x="220.75" y="-127.5" font-family="FreeSans" font-size="10.00" fill="grey">::NormalizedTangentVectorFrom</text>
<text text-anchor="middle" x="296.5" y="-113.25" font-family="FreeSans" font-size="10.00" fill="grey">DSS &gt;</text>
</g>
<!-- Node6 -->
<g id="Node000006" class="node">
<title>Node6</title>
<g id="a_Node000006"><a xlink:href="classDGtal_1_1detail_1_1PosIndepScaleIndepSCEstimator.html" target="_top" xlink:title=" ">
<polygon fill="white" stroke="#666666" points="587.75,-65 414.25,-65 414.25,0 587.75,0 587.75,-65"/>
<text text-anchor="start" x="422.25" y="-51.5" font-family="FreeSans" font-size="10.00">DGtal::detail::PosIndepScale</text>
<text text-anchor="start" x="422.25" y="-37.25" font-family="FreeSans" font-size="10.00">IndepSCEstimator&lt; DSSComputer,</text>
<text text-anchor="start" x="422.25" y="-23" font-family="FreeSans" font-size="10.00"> detail::TangentVectorFromDSS</text>
<text text-anchor="middle" x="501" y="-8.75" font-family="FreeSans" font-size="10.00">&lt; DSSComputer &gt; &gt;</text>
</a>
</g>
</g>
<!-- Node1&#45;&gt;Node6 -->
<g id="edge5_Node000001_Node000006" class="edge">
<title>Node1&#45;&gt;Node6</title>
<g id="a_edge5_Node000001_Node000006"><a xlink:title=" ">
<path fill="none" stroke="orange" stroke-dasharray="5,2" d="M169.22,-78.45C185.78,-72.03 203.67,-65.93 220.75,-61.75 284.43,-46.15 358.28,-38.87 414.03,-35.47"/>
<polygon fill="orange" stroke="orange" points="167.95,-75.19 159.96,-82.14 170.54,-81.69 167.95,-75.19"/>
</a>
</g>
<text text-anchor="start" x="238.38" y="-94.75" font-family="FreeSans" font-size="10.00" fill="grey"> &lt; DSSComputer, detail</text>
<text text-anchor="start" x="238.38" y="-80.5" font-family="FreeSans" font-size="10.00" fill="grey">::TangentVectorFromDSS</text>
<text text-anchor="middle" x="296.5" y="-66.25" font-family="FreeSans" font-size="10.00" fill="grey">&lt; DSSComputer &gt; &gt;</text>
</g>
<!-- Node3 -->
<g id="Node000003" class="node">
<title>Node3</title>
<g id="a_Node000003"><a xlink:href="classDGtal_1_1TangentAngleFromDSSEstimator.html" target="_top" xlink:title=" ">
<polygon fill="white" stroke="#666666" points="846.75,-195.75 647.75,-195.75 647.75,-159.25 846.75,-159.25 846.75,-195.75"/>
<text text-anchor="start" x="655.75" y="-182.25" font-family="FreeSans" font-size="10.00">DGtal::TangentAngleFromDSSEstimator</text>
<text text-anchor="middle" x="747.25" y="-168" font-family="FreeSans" font-size="10.00">&lt; DSSComputer &gt;</text>
</a>
</g>
</g>
<!-- Node2&#45;&gt;Node3 -->
<g id="edge2_Node000002_Node000003" class="edge">
<title>Node2&#45;&gt;Node3</title>
<g id="a_edge2_Node000002_Node000003"><a xlink:title=" ">
<path fill="none" stroke="#63b8ff" d="M599.51,-177.5C615.33,-177.5 631.72,-177.5 647.57,-177.5"/>
<polygon fill="#63b8ff" stroke="#63b8ff" points="599.63,-174 589.63,-177.5 599.63,-181 599.63,-174"/>
</a>
</g>
</g>
<!-- Node5 -->
<g id="Node000005" class="node">
<title>Node5</title>
<g id="a_Node000005"><a xlink:href="classDGtal_1_1TangentFromDSSEstimator.html" target="_top" xlink:title=" ">
<polygon fill="white" stroke="#666666" points="833.25,-126.75 661.25,-126.75 661.25,-90.25 833.25,-90.25 833.25,-126.75"/>
<text text-anchor="start" x="669.25" y="-113.25" font-family="FreeSans" font-size="10.00">DGtal::TangentFromDSSEstimator</text>
<text text-anchor="middle" x="747.25" y="-99" font-family="FreeSans" font-size="10.00">&lt; DSSComputer &gt;</text>
</a>
</g>
</g>
<!-- Node4&#45;&gt;Node5 -->
<g id="edge4_Node000004_Node000005" class="edge">
<title>Node4&#45;&gt;Node5</title>
<g id="a_edge4_Node000004_Node000005"><a xlink:title=" ">
<path fill="none" stroke="#63b8ff" d="M623.2,-108.5C635.99,-108.5 648.79,-108.5 661.04,-108.5"/>
<polygon fill="#63b8ff" stroke="#63b8ff" points="623.49,-105 613.49,-108.5 623.49,-112 623.49,-105"/>
</a>
</g>
</g>
<!-- Node7 -->
<g id="Node000007" class="node">
<title>Node7</title>
<g id="a_Node000007"><a xlink:href="classDGtal_1_1TangentVectorFromDSSEstimator.html" target="_top" xlink:title=" ">
<polygon fill="white" stroke="#666666" points="827.25,-50.75 667.25,-50.75 667.25,-14.25 827.25,-14.25 827.25,-50.75"/>
<text text-anchor="start" x="675.25" y="-37.25" font-family="FreeSans" font-size="10.00">DGtal::TangentVectorFrom</text>
<text text-anchor="middle" x="747.25" y="-23" font-family="FreeSans" font-size="10.00">DSSEstimator&lt; DSSComputer &gt;</text>
</a>
</g>
</g>
<!-- Node6&#45;&gt;Node7 -->
<g id="edge6_Node000006_Node000007" class="edge">
<title>Node6&#45;&gt;Node7</title>
<g id="a_edge6_Node000006_Node000007"><a xlink:title=" ">
<path fill="none" stroke="#63b8ff" d="M599.38,-32.5C621.84,-32.5 645.46,-32.5 667.03,-32.5"/>
<polygon fill="#63b8ff" stroke="#63b8ff" points="599.63,-29 589.63,-32.5 599.63,-36 599.63,-29"/>
</a>
</g>
</g>
</g>
</svg>
