<?xml version="1.0" encoding="UTF-8" standalone="no"?>
<!DOCTYPE svg PUBLIC "-//W3C//DTD SVG 1.1//EN"
 "http://www.w3.org/Graphics/SVG/1.1/DTD/svg11.dtd">
<!-- Generated by graphviz version 11.0.0 (0)
 -->
<!-- Title: DGtal::detail::CurvatureFromDSSBaseEstimator&lt; DSSComputer, Functor &gt; Pages: 1 -->
<svg width="703pt" height="156pt"
 viewBox="0.00 0.00 702.50 156.00" xmlns="http://www.w3.org/2000/svg" xmlns:xlink="http://www.w3.org/1999/xlink">
<g id="graph0" class="graph" transform="scale(1 1) rotate(0) translate(4 152)">
<title>DGtal::detail::CurvatureFromDSSBaseEstimator&lt; DSSComputer, Functor &gt;</title>
<!-- Node1 -->
<g id="Node000001" class="node">
<title>Node1</title>
<g id="a_Node000001"><a xlink:title=" ">
<polygon fill="#999999" stroke="#666666" points="130.75,-98.88 0,-98.88 0,-48.12 130.75,-48.12 130.75,-98.88"/>
<text text-anchor="start" x="8" y="-85.38" font-family="FreeSans" font-size="10.00">DGtal::detail::Curvature</text>
<text text-anchor="start" x="8" y="-71.12" font-family="FreeSans" font-size="10.00">FromDSSBaseEstimator&lt;</text>
<text text-anchor="middle" x="65.38" y="-56.88" font-family="FreeSans" font-size="10.00"> DSSComputer, Functor &gt;</text>
</a>
</g>
</g>
<!-- Node2 -->
<g id="Node000002" class="node">
<title>Node2</title>
<g id="a_Node000002"><a xlink:href="classDGtal_1_1detail_1_1CurvatureFromDSSBaseEstimator.html" target="_top" xlink:title=" ">
<polygon fill="white" stroke="#666666" points="477.5,-148 313,-148 313,-83 477.5,-83 477.5,-148"/>
<text text-anchor="start" x="321" y="-134.5" font-family="FreeSans" font-size="10.00">DGtal::detail::Curvature</text>
<text text-anchor="start" x="321" y="-120.25" font-family="FreeSans" font-size="10.00">FromDSSBaseEstimator&lt;</text>
<text text-anchor="start" x="321" y="-106" font-family="FreeSans" font-size="10.00"> DSSComputer, detail::Curvature</text>
<text text-anchor="middle" x="395.25" y="-91.75" font-family="FreeSans" font-size="10.00">FromDSSLengthAndWidth &gt;</text>
</a>
</g>
</g>
<!-- Node1&#45;&gt;Node2 -->
<g id="edge1_Node000001_Node000002" class="edge">
<title>Node1&#45;&gt;Node2</title>
<g id="a_edge1_Node000001_Node000002"><a xlink:title=" ">
<path fill="none" stroke="orange" stroke-dasharray="5,2" d="M142.5,-84.65C144.6,-84.94 146.69,-85.22 148.75,-85.5 203.33,-92.81 264.84,-100.32 312.64,-106"/>
<polygon fill="orange" stroke="orange" points="142.99,-81.19 132.61,-83.28 142.03,-88.12 142.99,-81.19"/>
</a>
</g>
<text text-anchor="start" x="148.75" y="-136.75" font-family="FreeSans" font-size="10.00" fill="grey"> &lt; DSSComputer, detail</text>
<text text-anchor="start" x="148.75" y="-122.5" font-family="FreeSans" font-size="10.00" fill="grey">::CurvatureFromDSSLengthAnd</text>
<text text-anchor="middle" x="221.88" y="-108.25" font-family="FreeSans" font-size="10.00" fill="grey">Width &gt;</text>
</g>
<!-- Node4 -->
<g id="Node000004" class="node">
<title>Node4</title>
<g id="a_Node000004"><a xlink:href="classDGtal_1_1detail_1_1CurvatureFromDSSBaseEstimator.html" target="_top" xlink:title=" ">
<polygon fill="white" stroke="#666666" points="477.5,-65 313,-65 313,0 477.5,0 477.5,-65"/>
<text text-anchor="start" x="321" y="-51.5" font-family="FreeSans" font-size="10.00">DGtal::detail::Curvature</text>
<text text-anchor="start" x="321" y="-37.25" font-family="FreeSans" font-size="10.00">FromDSSBaseEstimator&lt;</text>
<text text-anchor="start" x="321" y="-23" font-family="FreeSans" font-size="10.00"> DSSComputer, detail::Curvature</text>
<text text-anchor="middle" x="395.25" y="-8.75" font-family="FreeSans" font-size="10.00">FromDSSLength &gt;</text>
</a>
</g>
</g>
<!-- Node1&#45;&gt;Node4 -->
<g id="edge3_Node000001_Node000004" class="edge">
<title>Node1&#45;&gt;Node4</title>
<g id="a_edge3_Node000001_Node000004"><a xlink:title=" ">
<path fill="none" stroke="orange" stroke-dasharray="5,2" d="M142.18,-58.02C144.39,-57.67 146.59,-57.32 148.75,-57 203.18,-48.85 264.83,-42.71 312.73,-38.62"/>
<polygon fill="orange" stroke="orange" points="141.78,-54.54 132.51,-59.67 142.96,-61.44 141.78,-54.54"/>
</a>
</g>
<text text-anchor="start" x="154" y="-75.5" font-family="FreeSans" font-size="10.00" fill="grey"> &lt; DSSComputer, detail</text>
<text text-anchor="middle" x="221.88" y="-61.25" font-family="FreeSans" font-size="10.00" fill="grey">::CurvatureFromDSSLength &gt;</text>
</g>
<!-- Node3 -->
<g id="Node000003" class="node">
<title>Node3</title>
<g id="a_Node000003"><a xlink:href="classDGtal_1_1CurvatureFromDSSEstimator.html" target="_top" xlink:title=" ">
<polygon fill="white" stroke="#666666" points="694.5,-133.75 513.5,-133.75 513.5,-97.25 694.5,-97.25 694.5,-133.75"/>
<text text-anchor="start" x="521.5" y="-120.25" font-family="FreeSans" font-size="10.00">DGtal::CurvatureFromDSSEstimator</text>
<text text-anchor="middle" x="604" y="-106" font-family="FreeSans" font-size="10.00">&lt; DSSComputer &gt;</text>
</a>
</g>
</g>
<!-- Node2&#45;&gt;Node3 -->
<g id="edge2_Node000002_Node000003" class="edge">
<title>Node2&#45;&gt;Node3</title>
<g id="a_edge2_Node000002_Node000003"><a xlink:title=" ">
<path fill="none" stroke="#63b8ff" d="M489.4,-115.5C497.25,-115.5 505.19,-115.5 513.02,-115.5"/>
<polygon fill="#63b8ff" stroke="#63b8ff" points="489.48,-112 479.48,-115.5 489.48,-119 489.48,-112"/>
</a>
</g>
</g>
<!-- Node5 -->
<g id="Node000005" class="node">
<title>Node5</title>
<g id="a_Node000005"><a xlink:href="classDGtal_1_1CurvatureFromDSSLengthEstimator.html" target="_top" xlink:title=" ">
<polygon fill="white" stroke="#666666" points="688.88,-50.75 519.12,-50.75 519.12,-14.25 688.88,-14.25 688.88,-50.75"/>
<text text-anchor="start" x="527.12" y="-37.25" font-family="FreeSans" font-size="10.00">DGtal::CurvatureFromDSSLength</text>
<text text-anchor="middle" x="604" y="-23" font-family="FreeSans" font-size="10.00">Estimator&lt; DSSComputer &gt;</text>
</a>
</g>
</g>
<!-- Node4&#45;&gt;Node5 -->
<g id="edge4_Node000004_Node000005" class="edge">
<title>Node4&#45;&gt;Node5</title>
<g id="a_edge4_Node000004_Node000005"><a xlink:title=" ">
<path fill="none" stroke="#63b8ff" d="M489.4,-32.5C499.2,-32.5 509.13,-32.5 518.83,-32.5"/>
<polygon fill="#63b8ff" stroke="#63b8ff" points="489.48,-29 479.48,-32.5 489.48,-36 489.48,-29"/>
</a>
</g>
</g>
</g>
</svg>
