<?xml version="1.0" encoding="UTF-8" standalone="no"?>
<!DOCTYPE svg PUBLIC "-//W3C//DTD SVG 1.1//EN"
 "http://www.w3.org/Graphics/SVG/1.1/DTD/svg11.dtd">
<!-- Generated by graphviz version 11.0.0 (0)
 -->
<!-- Title: DGtal::CountedConstPtrOrConstPtr&lt; T &gt; Pages: 1 -->
<svg width="498pt" height="910pt"
 viewBox="0.00 0.00 498.25 909.50" xmlns="http://www.w3.org/2000/svg" xmlns:xlink="http://www.w3.org/1999/xlink">
<g id="graph0" class="graph" transform="scale(1 1) rotate(0) translate(4 905.5)">
<title>DGtal::CountedConstPtrOrConstPtr&lt; T &gt;</title>
<!-- Node1 -->
<g id="Node000001" class="node">
<title>Node1</title>
<g id="a_Node000001"><a xlink:title="Aim: Smart or simple const pointer on T. It can be a smart pointer based on reference counts or a sim...">
<polygon fill="#999999" stroke="#666666" points="140.5,-462.5 0,-462.5 0,-426 140.5,-426 140.5,-462.5"/>
<text text-anchor="start" x="8" y="-449" font-family="FreeSans" font-size="10.00">DGtal::CountedConstPtrOr</text>
<text text-anchor="middle" x="70.25" y="-434.75" font-family="FreeSans" font-size="10.00">ConstPtr&lt; T &gt;</text>
</a>
</g>
</g>
<!-- Node2 -->
<g id="Node000002" class="node">
<title>Node2</title>
<g id="a_Node000002"><a xlink:href="classDGtal_1_1CountedConstPtrOrConstPtr.html" target="_top" xlink:title=" ">
<polygon fill="white" stroke="#666666" points="468.5,-889.5 328,-889.5 328,-853 468.5,-853 468.5,-889.5"/>
<text text-anchor="start" x="336" y="-876" font-family="FreeSans" font-size="10.00">DGtal::CountedConstPtrOr</text>
<text text-anchor="middle" x="398.25" y="-861.75" font-family="FreeSans" font-size="10.00">ConstPtr&lt; DummyTbl &gt;</text>
</a>
</g>
</g>
<!-- Node1&#45;&gt;Node2 -->
<g id="edge1_Node000001_Node000002" class="edge">
<title>Node1&#45;&gt;Node2</title>
<g id="a_edge1_Node000001_Node000002"><a xlink:title=" ">
<path fill="none" stroke="orange" stroke-dasharray="5,2" d="M73.24,-474.31C79.55,-559.43 102.07,-799.23 158.5,-849.25 203.82,-889.42 274.75,-891.04 327.54,-884.95"/>
<polygon fill="orange" stroke="orange" points="76.74,-474.15 72.54,-464.42 69.76,-474.64 76.74,-474.15"/>
</a>
</g>
<text text-anchor="middle" x="223.38" y="-892" font-family="FreeSans" font-size="10.00" fill="grey"> &lt; DummyTbl &gt;</text>
</g>
<!-- Node3 -->
<g id="Node000003" class="node">
<title>Node3</title>
<g id="a_Node000003"><a xlink:href="classDGtal_1_1CountedConstPtrOrConstPtr.html" target="_top" xlink:title=" ">
<polygon fill="white" stroke="#666666" points="484.62,-834.62 311.88,-834.62 311.88,-783.88 484.62,-783.88 484.62,-834.62"/>
<text text-anchor="start" x="319.88" y="-821.12" font-family="FreeSans" font-size="10.00">DGtal::CountedConstPtrOr</text>
<text text-anchor="start" x="319.88" y="-806.88" font-family="FreeSans" font-size="10.00">ConstPtr&lt; DGtal::DiscreteExterior</text>
<text text-anchor="middle" x="398.25" y="-792.62" font-family="FreeSans" font-size="10.00">Calculus &gt;</text>
</a>
</g>
</g>
<!-- Node1&#45;&gt;Node3 -->
<g id="edge2_Node000001_Node000003" class="edge">
<title>Node1&#45;&gt;Node3</title>
<g id="a_edge2_Node000001_Node000003"><a xlink:title=" ">
<path fill="none" stroke="orange" stroke-dasharray="5,2" d="M74.97,-473.72C84.77,-546.54 113.67,-731.95 158.5,-772.25 199.44,-809.06 261.16,-817.85 311.59,-817.67"/>
<polygon fill="orange" stroke="orange" points="78.48,-473.61 73.71,-464.16 71.54,-474.53 78.48,-473.61"/>
</a>
</g>
<text text-anchor="start" x="164.12" y="-835.25" font-family="FreeSans" font-size="10.00" fill="grey"> &lt; DGtal::DiscreteExterior</text>
<text text-anchor="middle" x="223.38" y="-821" font-family="FreeSans" font-size="10.00" fill="grey">Calculus &gt;</text>
</g>
<!-- Node4 -->
<g id="Node000004" class="node">
<title>Node4</title>
<g id="a_Node000004"><a xlink:href="classDGtal_1_1CountedConstPtrOrConstPtr.html" target="_top" xlink:title=" ">
<polygon fill="white" stroke="#666666" points="468.5,-765.5 328,-765.5 328,-729 468.5,-729 468.5,-765.5"/>
<text text-anchor="start" x="336" y="-752" font-family="FreeSans" font-size="10.00">DGtal::CountedConstPtrOr</text>
<text text-anchor="middle" x="398.25" y="-737.75" font-family="FreeSans" font-size="10.00">ConstPtr&lt; ShapeA &gt;</text>
</a>
</g>
</g>
<!-- Node1&#45;&gt;Node4 -->
<g id="edge3_Node000001_Node000004" class="edge">
<title>Node1&#45;&gt;Node4</title>
<g id="a_edge3_Node000001_Node000004"><a xlink:title=" ">
<path fill="none" stroke="orange" stroke-dasharray="5,2" d="M71.39,-474.02C73.4,-530.14 86.38,-651.4 158.5,-712.25 204.93,-751.42 275.36,-757.45 327.7,-755.31"/>
<polygon fill="orange" stroke="orange" points="74.9,-474.19 71.15,-464.28 67.9,-474.37 74.9,-474.19"/>
</a>
</g>
<text text-anchor="middle" x="223.38" y="-759" font-family="FreeSans" font-size="10.00" fill="grey"> &lt; ShapeA &gt;</text>
</g>
<!-- Node5 -->
<g id="Node000005" class="node">
<title>Node5</title>
<g id="a_Node000005"><a xlink:href="classDGtal_1_1CountedConstPtrOrConstPtr.html" target="_top" xlink:title=" ">
<polygon fill="white" stroke="#666666" points="468.5,-710.5 328,-710.5 328,-674 468.5,-674 468.5,-710.5"/>
<text text-anchor="start" x="336" y="-697" font-family="FreeSans" font-size="10.00">DGtal::CountedConstPtrOr</text>
<text text-anchor="middle" x="398.25" y="-682.75" font-family="FreeSans" font-size="10.00">ConstPtr&lt; ShapeB &gt;</text>
</a>
</g>
</g>
<!-- Node1&#45;&gt;Node5 -->
<g id="edge4_Node000001_Node000005" class="edge">
<title>Node1&#45;&gt;Node5</title>
<g id="a_edge4_Node000001_Node000005"><a xlink:title=" ">
<path fill="none" stroke="orange" stroke-dasharray="5,2" d="M74.9,-474.05C82.17,-519.62 102.84,-605.96 158.5,-650.25 206,-688.05 275.78,-696.59 327.64,-696.84"/>
<polygon fill="orange" stroke="orange" points="78.4,-473.76 73.48,-464.37 71.47,-474.77 78.4,-473.76"/>
</a>
</g>
<text text-anchor="middle" x="223.38" y="-699" font-family="FreeSans" font-size="10.00" fill="grey"> &lt; ShapeB &gt;</text>
</g>
<!-- Node6 -->
<g id="Node000006" class="node">
<title>Node6</title>
<g id="a_Node000006"><a xlink:href="classDGtal_1_1CountedConstPtrOrConstPtr.html" target="_top" xlink:title=" ">
<polygon fill="white" stroke="#666666" points="468.5,-655.5 328,-655.5 328,-619 468.5,-619 468.5,-655.5"/>
<text text-anchor="start" x="336" y="-642" font-family="FreeSans" font-size="10.00">DGtal::CountedConstPtrOr</text>
<text text-anchor="middle" x="398.25" y="-627.75" font-family="FreeSans" font-size="10.00">ConstPtr&lt; Surface &gt;</text>
</a>
</g>
</g>
<!-- Node1&#45;&gt;Node6 -->
<g id="edge5_Node000001_Node000006" class="edge">
<title>Node1&#45;&gt;Node6</title>
<g id="a_edge5_Node000001_Node000006"><a xlink:title=" ">
<path fill="none" stroke="orange" stroke-dasharray="5,2" d="M81.1,-473.76C93.7,-506.75 118.76,-559.19 158.5,-587.25 207.97,-622.17 276.67,-633.68 327.68,-637.04"/>
<polygon fill="orange" stroke="orange" points="84.4,-472.59 77.68,-464.4 77.83,-475 84.4,-472.59"/>
</a>
</g>
<text text-anchor="middle" x="223.38" y="-637" font-family="FreeSans" font-size="10.00" fill="grey"> &lt; Surface &gt;</text>
</g>
<!-- Node7 -->
<g id="Node000007" class="node">
<title>Node7</title>
<g id="a_Node000007"><a xlink:href="classDGtal_1_1CountedConstPtrOrConstPtr.html" target="_top" xlink:title=" ">
<polygon fill="white" stroke="#666666" points="470.75,-600.5 325.75,-600.5 325.75,-564 470.75,-564 470.75,-600.5"/>
<text text-anchor="start" x="333.75" y="-587" font-family="FreeSans" font-size="10.00">DGtal::CountedConstPtrOr</text>
<text text-anchor="middle" x="398.25" y="-572.75" font-family="FreeSans" font-size="10.00">ConstPtr&lt; EuclideanShape &gt;</text>
</a>
</g>
</g>
<!-- Node1&#45;&gt;Node7 -->
<g id="edge6_Node000001_Node000007" class="edge">
<title>Node1&#45;&gt;Node7</title>
<g id="a_edge6_Node000001_Node000007"><a xlink:title=" ">
<path fill="none" stroke="orange" stroke-dasharray="5,2" d="M92.47,-471.38C108.61,-490.15 132.41,-514.19 158.5,-528.25 210.31,-556.18 275.94,-569.69 325.27,-576.22"/>
<polygon fill="orange" stroke="orange" points="95.26,-469.26 86.16,-463.82 89.88,-473.74 95.26,-469.26"/>
</a>
</g>
<text text-anchor="middle" x="223.38" y="-574" font-family="FreeSans" font-size="10.00" fill="grey"> &lt; EuclideanShape &gt;</text>
</g>
<!-- Node8 -->
<g id="Node000008" class="node">
<title>Node8</title>
<g id="a_Node000008"><a xlink:href="classDGtal_1_1CountedConstPtrOrConstPtr.html" target="_top" xlink:title=" ">
<polygon fill="white" stroke="#666666" points="489.88,-545.5 306.62,-545.5 306.62,-509 489.88,-509 489.88,-545.5"/>
<text text-anchor="start" x="314.62" y="-532" font-family="FreeSans" font-size="10.00">DGtal::CountedConstPtrOr</text>
<text text-anchor="middle" x="398.25" y="-517.75" font-family="FreeSans" font-size="10.00">ConstPtr&lt; DigitalSurfaceContainer &gt;</text>
</a>
</g>
</g>
<!-- Node1&#45;&gt;Node8 -->
<g id="edge7_Node000001_Node000008" class="edge">
<title>Node1&#45;&gt;Node8</title>
<g id="a_edge7_Node000001_Node000008"><a xlink:title=" ">
<path fill="none" stroke="orange" stroke-dasharray="5,2" d="M122.41,-467.32C134.11,-472.05 146.61,-476.66 158.5,-480.25 206.53,-494.73 261.37,-505.89 306.37,-513.7"/>
<polygon fill="orange" stroke="orange" points="123.9,-464.15 113.32,-463.56 121.22,-470.62 123.9,-464.15"/>
</a>
</g>
<text text-anchor="middle" x="223.38" y="-515" font-family="FreeSans" font-size="10.00" fill="grey"> &lt; DigitalSurfaceContainer &gt;</text>
</g>
<!-- Node9 -->
<g id="Node000009" class="node">
<title>Node9</title>
<g id="a_Node000009"><a xlink:href="classDGtal_1_1CountedConstPtrOrConstPtr.html" target="_top" xlink:title=" ">
<polygon fill="white" stroke="#666666" points="468.5,-490.5 328,-490.5 328,-454 468.5,-454 468.5,-490.5"/>
<text text-anchor="start" x="336" y="-477" font-family="FreeSans" font-size="10.00">DGtal::CountedConstPtrOr</text>
<text text-anchor="middle" x="398.25" y="-462.75" font-family="FreeSans" font-size="10.00">ConstPtr&lt; PointPredicate &gt;</text>
</a>
</g>
</g>
<!-- Node1&#45;&gt;Node9 -->
<g id="edge8_Node000001_Node000009" class="edge">
<title>Node1&#45;&gt;Node9</title>
<g id="a_edge8_Node000001_Node000009"><a xlink:title=" ">
<path fill="none" stroke="orange" stroke-dasharray="5,2" d="M152.03,-451.19C205.93,-455.82 276.09,-461.84 327.54,-466.26"/>
<polygon fill="orange" stroke="orange" points="152.56,-447.72 142.29,-450.35 151.96,-454.69 152.56,-447.72"/>
</a>
</g>
<text text-anchor="middle" x="223.38" y="-467" font-family="FreeSans" font-size="10.00" fill="grey"> &lt; PointPredicate &gt;</text>
</g>
<!-- Node10 -->
<g id="Node000010" class="node">
<title>Node10</title>
<g id="a_Node000010"><a xlink:href="classDGtal_1_1CountedConstPtrOrConstPtr.html" target="_top" xlink:title=" ">
<polygon fill="white" stroke="#666666" points="483.12,-435.5 313.38,-435.5 313.38,-399 483.12,-399 483.12,-435.5"/>
<text text-anchor="start" x="321.38" y="-422" font-family="FreeSans" font-size="10.00">DGtal::CountedConstPtrOr</text>
<text text-anchor="middle" x="398.25" y="-407.75" font-family="FreeSans" font-size="10.00">ConstPtr&lt; DGtal::DigitalSurface &gt;</text>
</a>
</g>
</g>
<!-- Node1&#45;&gt;Node10 -->
<g id="edge9_Node000001_Node000010" class="edge">
<title>Node1&#45;&gt;Node10</title>
<g id="a_edge9_Node000001_Node000010"><a xlink:title=" ">
<path fill="none" stroke="orange" stroke-dasharray="5,2" d="M152.22,-436.55C154.33,-436.36 156.43,-436.18 158.5,-436 209.76,-431.56 267.25,-427.04 312.97,-423.54"/>
<polygon fill="orange" stroke="orange" points="151.93,-433.06 142.28,-437.44 152.55,-440.03 151.93,-433.06"/>
</a>
</g>
<text text-anchor="middle" x="223.38" y="-440" font-family="FreeSans" font-size="10.00" fill="grey"> &lt; DGtal::DigitalSurface &gt;</text>
</g>
<!-- Node11 -->
<g id="Node000011" class="node">
<title>Node11</title>
<g id="a_Node000011"><a xlink:href="classDGtal_1_1CountedConstPtrOrConstPtr.html" target="_top" xlink:title=" ">
<polygon fill="white" stroke="#666666" points="468.5,-380.5 328,-380.5 328,-344 468.5,-344 468.5,-380.5"/>
<text text-anchor="start" x="336" y="-367" font-family="FreeSans" font-size="10.00">DGtal::CountedConstPtrOr</text>
<text text-anchor="middle" x="398.25" y="-352.75" font-family="FreeSans" font-size="10.00">ConstPtr&lt; Metric &gt;</text>
</a>
</g>
</g>
<!-- Node1&#45;&gt;Node11 -->
<g id="edge10_Node000001_Node000011" class="edge">
<title>Node1&#45;&gt;Node11</title>
<g id="a_edge10_Node000001_Node000011"><a xlink:title=" ">
<path fill="none" stroke="orange" stroke-dasharray="5,2" d="M120.54,-421C132.75,-415.85 145.94,-410.81 158.5,-407 214.29,-390.08 279.46,-378.39 327.6,-371.21"/>
<polygon fill="orange" stroke="orange" points="119.27,-417.73 111.49,-424.91 122.05,-424.15 119.27,-417.73"/>
</a>
</g>
<text text-anchor="middle" x="223.38" y="-411" font-family="FreeSans" font-size="10.00" fill="grey"> &lt; Metric &gt;</text>
</g>
<!-- Node12 -->
<g id="Node000012" class="node">
<title>Node12</title>
<g id="a_Node000012"><a xlink:href="classDGtal_1_1CountedConstPtrOrConstPtr.html" target="_top" xlink:title=" ">
<polygon fill="white" stroke="#666666" points="480.5,-325.5 316,-325.5 316,-289 480.5,-289 480.5,-325.5"/>
<text text-anchor="start" x="324" y="-312" font-family="FreeSans" font-size="10.00">DGtal::CountedConstPtrOr</text>
<text text-anchor="middle" x="398.25" y="-297.75" font-family="FreeSans" font-size="10.00">ConstPtr&lt; ConvolutionFunctor &gt;</text>
</a>
</g>
</g>
<!-- Node1&#45;&gt;Node12 -->
<g id="edge11_Node000001_Node000012" class="edge">
<title>Node1&#45;&gt;Node12</title>
<g id="a_edge11_Node000001_Node000012"><a xlink:title=" ">
<path fill="none" stroke="orange" stroke-dasharray="5,2" d="M92.35,-416.64C108.43,-397.55 132.22,-373.14 158.5,-359 206.96,-332.93 267.63,-319.99 315.68,-313.57"/>
<polygon fill="orange" stroke="orange" points="89.68,-414.38 86.06,-424.34 95.1,-418.81 89.68,-414.38"/>
</a>
</g>
<text text-anchor="middle" x="223.38" y="-363" font-family="FreeSans" font-size="10.00" fill="grey"> &lt; ConvolutionFunctor &gt;</text>
</g>
<!-- Node13 -->
<g id="Node000013" class="node">
<title>Node13</title>
<g id="a_Node000013"><a xlink:href="classDGtal_1_1CountedConstPtrOrConstPtr.html" target="_top" xlink:title=" ">
<polygon fill="white" stroke="#666666" points="468.5,-270.5 328,-270.5 328,-234 468.5,-234 468.5,-270.5"/>
<text text-anchor="start" x="336" y="-257" font-family="FreeSans" font-size="10.00">DGtal::CountedConstPtrOr</text>
<text text-anchor="middle" x="398.25" y="-242.75" font-family="FreeSans" font-size="10.00">ConstPtr&lt; KSpace &gt;</text>
</a>
</g>
</g>
<!-- Node1&#45;&gt;Node13 -->
<g id="edge12_Node000001_Node000013" class="edge">
<title>Node1&#45;&gt;Node13</title>
<g id="a_edge12_Node000001_Node000013"><a xlink:title=" ">
<path fill="none" stroke="orange" stroke-dasharray="5,2" d="M80.72,-415.12C93.12,-381.84 118.15,-328.33 158.5,-300 207.97,-265.27 276.67,-254.44 327.68,-251.65"/>
<polygon fill="orange" stroke="orange" points="77.57,-413.55 77.51,-424.14 84.16,-415.9 77.57,-413.55"/>
</a>
</g>
<text text-anchor="middle" x="223.38" y="-304" font-family="FreeSans" font-size="10.00" fill="grey"> &lt; KSpace &gt;</text>
</g>
<!-- Node14 -->
<g id="Node000014" class="node">
<title>Node14</title>
<g id="a_Node000014"><a xlink:href="classDGtal_1_1CountedConstPtrOrConstPtr.html" target="_top" xlink:title=" ">
<polygon fill="white" stroke="#666666" points="468.5,-215.5 328,-215.5 328,-179 468.5,-179 468.5,-215.5"/>
<text text-anchor="start" x="336" y="-202" font-family="FreeSans" font-size="10.00">DGtal::CountedConstPtrOr</text>
<text text-anchor="middle" x="398.25" y="-187.75" font-family="FreeSans" font-size="10.00">ConstPtr&lt; Shape &gt;</text>
</a>
</g>
</g>
<!-- Node1&#45;&gt;Node14 -->
<g id="edge13_Node000001_Node000014" class="edge">
<title>Node1&#45;&gt;Node14</title>
<g id="a_edge13_Node000001_Node000014"><a xlink:title=" ">
<path fill="none" stroke="orange" stroke-dasharray="5,2" d="M74.74,-414.55C81.81,-368.73 102.26,-281.43 158.5,-237 206.06,-199.42 275.83,-191.57 327.67,-191.88"/>
<polygon fill="orange" stroke="orange" points="71.3,-413.9 73.37,-424.29 78.23,-414.88 71.3,-413.9"/>
</a>
</g>
<text text-anchor="middle" x="223.38" y="-241" font-family="FreeSans" font-size="10.00" fill="grey"> &lt; Shape &gt;</text>
</g>
<!-- Node15 -->
<g id="Node000015" class="node">
<title>Node15</title>
<g id="a_Node000015"><a xlink:href="classDGtal_1_1CountedConstPtrOrConstPtr.html" target="_top" xlink:title=" ">
<polygon fill="white" stroke="#666666" points="490.25,-160.62 306.25,-160.62 306.25,-109.88 490.25,-109.88 490.25,-160.62"/>
<text text-anchor="start" x="314.25" y="-147.12" font-family="FreeSans" font-size="10.00">DGtal::CountedConstPtrOr</text>
<text text-anchor="start" x="314.25" y="-132.88" font-family="FreeSans" font-size="10.00">ConstPtr&lt; DGtal::VoronoiCovariance</text>
<text text-anchor="middle" x="398.25" y="-118.62" font-family="FreeSans" font-size="10.00">MeasureOnDigitalSurface &gt;</text>
</a>
</g>
</g>
<!-- Node1&#45;&gt;Node15 -->
<g id="edge14_Node000001_Node000015" class="edge">
<title>Node1&#45;&gt;Node15</title>
<g id="a_edge14_Node000001_Node000015"><a xlink:title=" ">
<path fill="none" stroke="orange" stroke-dasharray="5,2" d="M70.55,-414.2C70.98,-355.21 81.15,-224.5 158.5,-160.75 198.87,-127.48 257.04,-120.7 305.85,-122.43"/>
<polygon fill="orange" stroke="orange" points="67.05,-414.14 70.58,-424.13 74.05,-414.12 67.05,-414.14"/>
</a>
</g>
<text text-anchor="start" x="158.5" y="-179.25" font-family="FreeSans" font-size="10.00" fill="grey"> &lt; DGtal::VoronoiCovariance</text>
<text text-anchor="middle" x="223.38" y="-165" font-family="FreeSans" font-size="10.00" fill="grey">MeasureOnDigitalSurface &gt;</text>
</g>
<!-- Node16 -->
<g id="Node000016" class="node">
<title>Node16</title>
<g id="a_Node000016"><a xlink:href="classDGtal_1_1CountedConstPtrOrConstPtr.html" target="_top" xlink:title=" ">
<polygon fill="white" stroke="#666666" points="471.5,-91.5 325,-91.5 325,-55 471.5,-55 471.5,-91.5"/>
<text text-anchor="start" x="333" y="-78" font-family="FreeSans" font-size="10.00">DGtal::CountedConstPtrOr</text>
<text text-anchor="middle" x="398.25" y="-63.75" font-family="FreeSans" font-size="10.00">ConstPtr&lt; Eigen::MatrixXd &gt;</text>
</a>
</g>
</g>
<!-- Node1&#45;&gt;Node16 -->
<g id="edge15_Node000001_Node000016" class="edge">
<title>Node1&#45;&gt;Node16</title>
<g id="a_edge15_Node000001_Node000016"><a xlink:title=" ">
<path fill="none" stroke="orange" stroke-dasharray="5,2" d="M74.67,-414.14C83.87,-338.84 111.65,-145.42 158.5,-104 203.2,-64.49 272.28,-59.48 324.66,-62.78"/>
<polygon fill="orange" stroke="orange" points="71.2,-413.72 73.49,-424.07 78.15,-414.55 71.2,-413.72"/>
</a>
</g>
<text text-anchor="middle" x="223.38" y="-108" font-family="FreeSans" font-size="10.00" fill="grey"> &lt; Eigen::MatrixXd &gt;</text>
</g>
<!-- Node17 -->
<g id="Node000017" class="node">
<title>Node17</title>
<g id="a_Node000017"><a xlink:href="classDGtal_1_1CountedConstPtrOrConstPtr.html" target="_top" xlink:title=" ">
<polygon fill="white" stroke="#666666" points="484.25,-36.5 312.25,-36.5 312.25,0 484.25,0 484.25,-36.5"/>
<text text-anchor="start" x="320.25" y="-23" font-family="FreeSans" font-size="10.00">DGtal::CountedConstPtrOr</text>
<text text-anchor="middle" x="398.25" y="-8.75" font-family="FreeSans" font-size="10.00">ConstPtr&lt; VCMOnDigitalSurface &gt;</text>
</a>
</g>
</g>
<!-- Node1&#45;&gt;Node17 -->
<g id="edge16_Node000001_Node000017" class="edge">
<title>Node1&#45;&gt;Node17</title>
<g id="a_edge16_Node000001_Node000017"><a xlink:title=" ">
<path fill="none" stroke="orange" stroke-dasharray="5,2" d="M73.31,-414.5C79.81,-330.24 102.8,-92.84 158.5,-43 199.41,-6.39 261.45,-0.9 312.03,-4.21"/>
<polygon fill="orange" stroke="orange" points="69.84,-414.04 72.59,-424.27 76.82,-414.56 69.84,-414.04"/>
</a>
</g>
<text text-anchor="middle" x="223.38" y="-47" font-family="FreeSans" font-size="10.00" fill="grey"> &lt; VCMOnDigitalSurface &gt;</text>
</g>
</g>
</svg>
