<?xml version="1.0" encoding="UTF-8" standalone="no"?>
<!DOCTYPE svg PUBLIC "-//W3C//DTD SVG 1.1//EN"
 "http://www.w3.org/Graphics/SVG/1.1/DTD/svg11.dtd">
<!-- Generated by graphviz version 11.0.0 (0)
 -->
<!-- Title: DGtal::TangentFromDCAEstimator&lt; DCAComputer &gt; Pages: 1 -->
<svg width="759pt" height="62pt"
 viewBox="0.00 0.00 758.75 61.88" xmlns="http://www.w3.org/2000/svg" xmlns:xlink="http://www.w3.org/1999/xlink">
<g id="graph0" class="graph" transform="scale(1 1) rotate(0) translate(4 57.88)">
<title>DGtal::TangentFromDCAEstimator&lt; DCAComputer &gt;</title>
<!-- Node1 -->
<g id="Node000001" class="node">
<title>Node1</title>
<g id="a_Node000001"><a xlink:title=" ">
<polygon fill="#999999" stroke="#666666" points="750.75,-43.62 576.5,-43.62 576.5,-7.12 750.75,-7.12 750.75,-43.62"/>
<text text-anchor="start" x="584.5" y="-30.12" font-family="FreeSans" font-size="10.00">DGtal::TangentFromDCAEstimator</text>
<text text-anchor="middle" x="663.62" y="-15.88" font-family="FreeSans" font-size="10.00">&lt; DCAComputer &gt;</text>
</a>
</g>
</g>
<!-- Node2 -->
<g id="Node000002" class="node">
<title>Node2</title>
<g id="a_Node000002"><a xlink:href="classDGtal_1_1detail_1_1PosDepScaleIndepSCEstimator.html" target="_top" xlink:title=" ">
<polygon fill="white" stroke="#666666" points="540.5,-50.75 365.5,-50.75 365.5,0 540.5,0 540.5,-50.75"/>
<text text-anchor="start" x="373.5" y="-37.25" font-family="FreeSans" font-size="10.00">DGtal::detail::PosDepScale</text>
<text text-anchor="start" x="373.5" y="-23" font-family="FreeSans" font-size="10.00">IndepSCEstimator&lt; DCAComputer,</text>
<text text-anchor="middle" x="453" y="-8.75" font-family="FreeSans" font-size="10.00"> detail::TangentVectorFromDCA &gt;</text>
</a>
</g>
</g>
<!-- Node2&#45;&gt;Node1 -->
<g id="edge1_Node000001_Node000002" class="edge">
<title>Node2&#45;&gt;Node1</title>
<g id="a_edge1_Node000001_Node000002"><a xlink:title=" ">
<path fill="none" stroke="#63b8ff" d="M552.21,-25.38C560.2,-25.38 568.24,-25.38 576.14,-25.38"/>
<polygon fill="#63b8ff" stroke="#63b8ff" points="552.48,-21.88 542.48,-25.38 552.48,-28.88 552.48,-21.88"/>
</a>
</g>
</g>
<!-- Node3 -->
<g id="Node000003" class="node">
<title>Node3</title>
<g id="a_Node000003"><a xlink:href="classDGtal_1_1detail_1_1PosDepScaleIndepSCEstimator.html" target="_top" xlink:title=" ">
<polygon fill="white" stroke="#666666" points="202.75,-50.75 0,-50.75 0,0 202.75,0 202.75,-50.75"/>
<text text-anchor="start" x="8" y="-37.25" font-family="FreeSans" font-size="10.00">DGtal::detail::PosDepScale</text>
<text text-anchor="start" x="8" y="-23" font-family="FreeSans" font-size="10.00">IndepSCEstimator&lt; TSegmentComputer,</text>
<text text-anchor="middle" x="101.38" y="-8.75" font-family="FreeSans" font-size="10.00"> Functor, ReturnType &gt;</text>
</a>
</g>
</g>
<!-- Node3&#45;&gt;Node2 -->
<g id="edge2_Node000002_Node000003" class="edge">
<title>Node3&#45;&gt;Node2</title>
<g id="a_edge2_Node000002_Node000003"><a xlink:title=" ">
<path fill="none" stroke="orange" stroke-dasharray="5,2" d="M214.3,-25.38C263.12,-25.38 319.5,-25.38 365.09,-25.38"/>
<polygon fill="orange" stroke="orange" points="214.55,-21.88 204.55,-25.38 214.55,-28.88 214.55,-21.88"/>
</a>
</g>
<text text-anchor="start" x="220.75" y="-44.38" font-family="FreeSans" font-size="10.00" fill="grey"> &lt; DCAComputer, detail</text>
<text text-anchor="middle" x="284.12" y="-30.12" font-family="FreeSans" font-size="10.00" fill="grey">::TangentVectorFromDCA &gt;</text>
</g>
</g>
</svg>
