<?xml version="1.0" encoding="UTF-8" standalone="no"?>
<!DOCTYPE svg PUBLIC "-//W3C//DTD SVG 1.1//EN"
 "http://www.w3.org/Graphics/SVG/1.1/DTD/svg11.dtd">
<!-- Generated by graphviz version 11.0.0 (0)
 -->
<!-- Title: DGtal::AngleLinearMinimizer Pages: 1 -->
<svg width="363pt" height="155pt"
 viewBox="0.00 0.00 363.25 154.50" xmlns="http://www.w3.org/2000/svg" xmlns:xlink="http://www.w3.org/1999/xlink">
<g id="graph0" class="graph" transform="scale(1 1) rotate(0) translate(4 150.5)">
<title>DGtal::AngleLinearMinimizer</title>
<!-- Node1 -->
<g id="Node000001" class="node">
<title>Node1</title>
<g id="a_Node000001"><a xlink:title="Aim: Used to minimize the angle variation between different angles while taking into accounts min and...">
<polygon fill="#999999" stroke="#666666" points="150.25,-84.38 0,-84.38 0,-62.12 150.25,-62.12 150.25,-84.38"/>
<text text-anchor="middle" x="75.12" y="-70.88" font-family="FreeSans" font-size="10.00">DGtal::AngleLinearMinimizer</text>
</a>
</g>
</g>
<!-- Node2 -->
<g id="Node000002" class="node">
<title>Node2</title>
<g id="a_Node000002"><a xlink:href="classDGtal_1_1AngleLinearMinimizerByAdaptiveStepGradientDescent.html" target="_top" xlink:title=" ">
<polygon fill="white" stroke="#666666" points="355.25,-146.5 186.25,-146.5 186.25,-110 355.25,-110 355.25,-146.5"/>
<text text-anchor="start" x="194.25" y="-133" font-family="FreeSans" font-size="10.00">DGtal::AngleLinearMinimizer</text>
<text text-anchor="middle" x="270.75" y="-118.75" font-family="FreeSans" font-size="10.00">ByAdaptiveStepGradientDescent</text>
</a>
</g>
</g>
<!-- Node1&#45;&gt;Node2 -->
<g id="edge1_Node000001_Node000002" class="edge">
<title>Node1&#45;&gt;Node2</title>
<g id="a_edge1_Node000001_Node000002"><a xlink:title=" ">
<path fill="none" stroke="#63b8ff" d="M127.49,-87.84C150.98,-94.51 179.07,-102.49 204.07,-109.59"/>
<polygon fill="#63b8ff" stroke="#63b8ff" points="128.75,-84.56 118.17,-85.19 126.83,-91.29 128.75,-84.56"/>
</a>
</g>
</g>
<!-- Node3 -->
<g id="Node000003" class="node">
<title>Node3</title>
<g id="a_Node000003"><a xlink:href="classDGtal_1_1AngleLinearMinimizerByGradientDescent.html" target="_top" xlink:title=" ">
<polygon fill="white" stroke="#666666" points="345.88,-91.5 195.62,-91.5 195.62,-55 345.88,-55 345.88,-91.5"/>
<text text-anchor="start" x="203.62" y="-78" font-family="FreeSans" font-size="10.00">DGtal::AngleLinearMinimizer</text>
<text text-anchor="middle" x="270.75" y="-63.75" font-family="FreeSans" font-size="10.00">ByGradientDescent</text>
</a>
</g>
</g>
<!-- Node1&#45;&gt;Node3 -->
<g id="edge2_Node000001_Node000003" class="edge">
<title>Node1&#45;&gt;Node3</title>
<g id="a_edge2_Node000001_Node000003"><a xlink:title=" ">
<path fill="none" stroke="#63b8ff" d="M162.11,-73.25C173.15,-73.25 184.37,-73.25 195.2,-73.25"/>
<polygon fill="#63b8ff" stroke="#63b8ff" points="162.22,-69.75 152.22,-73.25 162.22,-76.75 162.22,-69.75"/>
</a>
</g>
</g>
<!-- Node4 -->
<g id="Node000004" class="node">
<title>Node4</title>
<g id="a_Node000004"><a xlink:href="classDGtal_1_1AngleLinearMinimizerByRelaxation.html" target="_top" xlink:title=" ">
<polygon fill="white" stroke="#666666" points="345.88,-36.5 195.62,-36.5 195.62,0 345.88,0 345.88,-36.5"/>
<text text-anchor="start" x="203.62" y="-23" font-family="FreeSans" font-size="10.00">DGtal::AngleLinearMinimizer</text>
<text text-anchor="middle" x="270.75" y="-8.75" font-family="FreeSans" font-size="10.00">ByRelaxation</text>
</a>
</g>
</g>
<!-- Node1&#45;&gt;Node4 -->
<g id="edge3_Node000001_Node000004" class="edge">
<title>Node1&#45;&gt;Node4</title>
<g id="a_edge3_Node000001_Node000004"><a xlink:title=" ">
<path fill="none" stroke="#63b8ff" d="M127.49,-58.66C150.98,-51.99 179.07,-44.01 204.07,-36.91"/>
<polygon fill="#63b8ff" stroke="#63b8ff" points="126.83,-55.21 118.17,-61.31 128.75,-61.94 126.83,-55.21"/>
</a>
</g>
</g>
</g>
</svg>
