<?xml version="1.0" encoding="UTF-8" standalone="no"?>
<!DOCTYPE svg PUBLIC "-//W3C//DTD SVG 1.1//EN"
 "http://www.w3.org/Graphics/SVG/1.1/DTD/svg11.dtd">
<!-- Generated by graphviz version 11.0.0 (0)
 -->
<!-- Title: DGtal::COBANaivePlaneComputer&lt; TSpace, TInternalInteger &gt; Pages: 1 -->
<svg width="517pt" height="100pt"
 viewBox="0.00 0.00 517.00 99.50" xmlns="http://www.w3.org/2000/svg" xmlns:xlink="http://www.w3.org/1999/xlink">
<g id="graph0" class="graph" transform="scale(1 1) rotate(0) translate(4 95.5)">
<title>DGtal::COBANaivePlaneComputer&lt; TSpace, TInternalInteger &gt;</title>
<!-- Node1 -->
<g id="Node000001" class="node">
<title>Node1</title>
<g id="a_Node000001"><a xlink:title="Aim: A class that contains the COBA algorithm (Emilie Charrier, Lilian Buzer, DGCI2008) for recognizi...">
<polygon fill="#999999" stroke="#666666" points="174.25,-63.5 0,-63.5 0,-27 174.25,-27 174.25,-63.5"/>
<text text-anchor="start" x="8" y="-50" font-family="FreeSans" font-size="10.00">DGtal::COBANaivePlaneComputer</text>
<text text-anchor="middle" x="87.12" y="-35.75" font-family="FreeSans" font-size="10.00">&lt; TSpace, TInternalInteger &gt;</text>
</a>
</g>
</g>
<!-- Node2 -->
<g id="Node000002" class="node">
<title>Node2</title>
<g id="a_Node000002"><a xlink:href="classDGtal_1_1COBANaivePlaneComputer.html" target="_top" xlink:title=" ">
<polygon fill="white" stroke="#666666" points="509,-91.5 334.75,-91.5 334.75,-55 509,-55 509,-91.5"/>
<text text-anchor="start" x="342.75" y="-78" font-family="FreeSans" font-size="10.00">DGtal::COBANaivePlaneComputer</text>
<text text-anchor="middle" x="421.88" y="-63.75" font-family="FreeSans" font-size="10.00">&lt; Space, InternalInteger &gt;</text>
</a>
</g>
</g>
<!-- Node1&#45;&gt;Node2 -->
<g id="edge1_Node000001_Node000002" class="edge">
<title>Node1&#45;&gt;Node2</title>
<g id="a_edge1_Node000001_Node000002"><a xlink:title=" ">
<path fill="none" stroke="orange" stroke-dasharray="5,2" d="M186.13,-53.5C233.17,-57.45 289.03,-62.16 334.46,-65.98"/>
<polygon fill="orange" stroke="orange" points="186.45,-50.01 176.19,-52.66 185.86,-56.99 186.45,-50.01"/>
</a>
</g>
<text text-anchor="middle" x="254.5" y="-68" font-family="FreeSans" font-size="10.00" fill="grey"> &lt; Space, InternalInteger &gt;</text>
</g>
<!-- Node3 -->
<g id="Node000003" class="node">
<title>Node3</title>
<g id="a_Node000003"><a xlink:href="classDGtal_1_1COBANaivePlaneComputer.html" target="_top" xlink:title=" ">
<polygon fill="white" stroke="#666666" points="509,-36.5 334.75,-36.5 334.75,0 509,0 509,-36.5"/>
<text text-anchor="start" x="342.75" y="-23" font-family="FreeSans" font-size="10.00">DGtal::COBANaivePlaneComputer</text>
<text text-anchor="middle" x="421.88" y="-8.75" font-family="FreeSans" font-size="10.00">&lt; Z3, InternalInteger &gt;</text>
</a>
</g>
</g>
<!-- Node1&#45;&gt;Node3 -->
<g id="edge2_Node000001_Node000003" class="edge">
<title>Node1&#45;&gt;Node3</title>
<g id="a_edge2_Node000001_Node000003"><a xlink:title=" ">
<path fill="none" stroke="orange" stroke-dasharray="5,2" d="M186.13,-37.3C233.17,-33.48 289.03,-28.95 334.46,-25.26"/>
<polygon fill="orange" stroke="orange" points="185.88,-33.81 176.19,-38.1 186.44,-40.78 185.88,-33.81"/>
</a>
</g>
<text text-anchor="middle" x="254.5" y="-41" font-family="FreeSans" font-size="10.00" fill="grey"> &lt; Z3, InternalInteger &gt;</text>
</g>
</g>
</svg>
