<?xml version="1.0" encoding="UTF-8" standalone="no"?>
<!DOCTYPE svg PUBLIC "-//W3C//DTD SVG 1.1//EN"
 "http://www.w3.org/Graphics/SVG/1.1/DTD/svg11.dtd">
<!-- Generated by graphviz version 11.0.0 (0)
 -->
<!-- Title: DGtal::ArrayImageAdapter&lt; TArrayIterator, HyperRectDomain&lt; TSpace &gt; &gt; Pages: 1 -->
<!--zoomable 76 -->

<svg id="main" version="1.1" xmlns="http://www.w3.org/2000/svg" xmlns:xlink="http://www.w3.org/1999/xlink" xml:space="preserve" onload="init(evt)">
<style type="text/css"><![CDATA[
.node, .edge {opacity: 0.7;}
.node.selected, .edge.selected {opacity: 1;}
.edge:hover path { stroke: red; }
.edge:hover polygon { stroke: red; fill: red; }
]]></style>

<defs>
  <circle id="rim" cx="0" cy="0" r="7"/>
  <circle id="rim2" cx="0" cy="0" r="3.5"/>
  <g id="zoomPlus">
    <use xlink:href="#rim" fill="#404040"><set attributeName="fill" to="#808080" begin="zoomplus.mouseover" end="zoomplus.mouseout"/></use>
    <path d="M-4,0h8M0,-4v8" fill="none" stroke="white" stroke-width="1.5" pointer-events="none"/>
  </g>
  <g id="zoomMin">
    <use xlink:href="#rim" fill="#404040"><set attributeName="fill" to="#808080" begin="zoomminus.mouseover" end="zoomminus.mouseout"/></use>
    <path d="M-4,0h8" fill="none" stroke="white" stroke-width="1.5" pointer-events="none"/>
  </g>
  <g id="arrowUp" transform="translate(30 24)">
    <use xlink:href="#rim"/>
    <path pointer-events="none" fill="none" stroke="white" stroke-width="1.5" d="M0,-3.0v7 M-2.5,-0.5L0,-3.0L2.5,-0.5"/>
  </g>
  <g id="arrowRight" transform="rotate(90) translate(36 -43)">
    <use xlink:href="#rim"/>
    <path pointer-events="none" fill="none" stroke="white" stroke-width="1.5" d="M0,-3.0v7 M-2.5,-0.5L0,-3.0L2.5,-0.5"/>
  </g>
  <g id="arrowDown" transform="rotate(180) translate(-30 -48)">
    <use xlink:href="#rim"/>
    <path pointer-events="none" fill="none" stroke="white" stroke-width="1.5" d="M0,-3.0v7 M-2.5,-0.5L0,-3.0L2.5,-0.5"/>
  </g>
  <g id="arrowLeft" transform="rotate(270) translate(-36 17)">
    <use xlink:href="#rim"/>
    <path pointer-events="none" fill="none" stroke="white" stroke-width="1.5" d="M0,-3.0v7 M-2.5,-0.5L0,-3.0L2.5,-0.5"/>
  </g>
  <g id="resetDef">
    <use xlink:href="#rim2" fill="#404040"><set attributeName="fill" to="#808080" begin="reset.mouseover" end="reset.mouseout"/></use>
  </g>
</defs>
<script type="application/ecmascript">
var viewWidth = 719;
var viewHeight = 76;
var sectionId = 'dynsection-0';
</script>
<script type="application/ecmascript" xlink:href="svg.min.js"/>
<svg id="graph" class="graph">
<g id="viewport">
<title>DGtal::ArrayImageAdapter&lt; TArrayIterator, HyperRectDomain&lt; TSpace &gt; &gt;</title>
<!-- Node1 -->
<g id="Node000001" class="node">
<title>Node1</title>
<g id="a_Node000001"><a xlink:title="Aim: Image adapter for generic arrays with sub&#45;domain view capability.">
<polygon fill="#999999" stroke="#666666" points="711,-50.75 531.5,-50.75 531.5,0 711,0 711,-50.75"/>
<text text-anchor="start" x="539.5" y="-37.25" font-family="FreeSans" font-size="10.00">DGtal::ArrayImageAdapter</text>
<text text-anchor="start" x="539.5" y="-23" font-family="FreeSans" font-size="10.00">&lt; TArrayIterator, HyperRectDomain</text>
<text text-anchor="middle" x="621.25" y="-8.75" font-family="FreeSans" font-size="10.00">&lt; TSpace &gt; &gt;</text>
</a>
</g>
</g>
<!-- Node2 -->
<g id="Node000002" class="node">
<title>Node2</title>
<g id="a_Node000002"><a xlink:href="classDGtal_1_1IteratorCompletion.html" target="_top" xlink:title=" ">
<polygon fill="white" stroke="#666666" points="495.5,-50.75 301.75,-50.75 301.75,0 495.5,0 495.5,-50.75"/>
<text text-anchor="start" x="309.75" y="-37.25" font-family="FreeSans" font-size="10.00">DGtal::IteratorCompletion</text>
<text text-anchor="start" x="309.75" y="-23" font-family="FreeSans" font-size="10.00">&lt; ArrayImageAdapter&lt; TArrayIterator,</text>
<text text-anchor="middle" x="398.62" y="-8.75" font-family="FreeSans" font-size="10.00"> HyperRectDomain&lt; TSpace &gt; &gt; &gt;</text>
</a>
</g>
</g>
<!-- Node2&#45;&gt;Node1 -->
<g id="edge1_Node000001_Node000002" class="edge">
<title>Node2&#45;&gt;Node1</title>
<g id="a_edge1_Node000001_Node000002"><a xlink:title=" ">
<path fill="none" stroke="#63b8ff" d="M507.07,-25.38C515.1,-25.38 523.15,-25.38 531.05,-25.38"/>
<polygon fill="#63b8ff" stroke="#63b8ff" points="507.27,-21.88 497.27,-25.38 507.27,-28.88 507.27,-21.88"/>
</a>
</g>
</g>
<!-- Node3 -->
<g id="Node000003" class="node">
<title>Node3</title>
<g id="a_Node000003"><a xlink:href="classDGtal_1_1IteratorCompletion.html" target="_top" xlink:title="Aim: Class that uses CRTP to add reverse iterators and ranges to a derived class.">
<polygon fill="white" stroke="#666666" points="138.25,-43.62 0,-43.62 0,-7.12 138.25,-7.12 138.25,-43.62"/>
<text text-anchor="start" x="8" y="-30.12" font-family="FreeSans" font-size="10.00">DGtal::IteratorCompletion</text>
<text text-anchor="middle" x="69.12" y="-15.88" font-family="FreeSans" font-size="10.00">&lt; TDerived &gt;</text>
</a>
</g>
</g>
<!-- Node3&#45;&gt;Node2 -->
<g id="edge2_Node000002_Node000003" class="edge">
<title>Node3&#45;&gt;Node2</title>
<g id="a_edge2_Node000002_Node000003"><a xlink:title=" ">
<path fill="none" stroke="orange" stroke-dasharray="5,2" d="M149.74,-25.38C195.48,-25.38 253.25,-25.38 301.51,-25.38"/>
<polygon fill="orange" stroke="orange" points="149.89,-21.88 139.89,-25.38 149.89,-28.88 149.89,-21.88"/>
</a>
</g>
<text text-anchor="start" x="156.25" y="-58.62" font-family="FreeSans" font-size="10.00" fill="grey"> &lt; ArrayImageAdapter</text>
<text text-anchor="start" x="156.25" y="-44.38" font-family="FreeSans" font-size="10.00" fill="grey">&lt; TArrayIterator, HyperRect</text>
<text text-anchor="middle" x="220" y="-30.12" font-family="FreeSans" font-size="10.00" fill="grey">Domain&lt; TSpace &gt; &gt; &gt;</text>
</g>
</g>
</svg>

<g id="navigator" transform="translate(0 0)" fill="#404254">
  <rect fill="#f2f5e9" fill-opacity="0.5" stroke="#606060" stroke-width=".5" x="0" y="0" width="60" height="60"/>
  <use id="zoomplus" xlink:href="#zoomPlus" x="17" y="9" onmousedown="handleZoom(evt,'in')"/>
  <use id="zoomminus" xlink:href="#zoomMin" x="42" y="9" onmousedown="handleZoom(evt,'out')"/>
  <use id="reset" xlink:href="#resetDef" x="30" y="36" onmousedown="handleReset()"/>
   <use id="arrowup" xlink:href="#arrowUp" x="0" y="0" onmousedown="handlePan(0,-1)"/>
  <use id="arrowright" xlink:href="#arrowRight" x="0" y="0" onmousedown="handlePan(1,0)"/>
  <use id="arrowdown" xlink:href="#arrowDown" x="0" y="0" onmousedown="handlePan(0,1)"/>
  <use id="arrowleft" xlink:href="#arrowLeft" x="0" y="0" onmousedown="handlePan(-1,0)"/>
</g>
<svg viewBox="0 0 15 15" width="100%" height="30px" preserveAspectRatio="xMaxYMin meet">
 <g id="arrow_out" transform="scale(0.3 0.3)">
  <a xlink:href="classDGtal_1_1ArrayImageAdapter_3_01TArrayIterator_00_01HyperRectDomain_3_01TSpace_01_4_01_4__inherit__graph_org.svg" target="_base">
   <rect id="button" ry="5" rx="5" y="6" x="6" height="38" width="38"
        fill="#f2f5e9" fill-opacity="0.5" stroke="#606060" stroke-width="1.0"/>
   <path id="arrow"
     d="M 11.500037,31.436501 C 11.940474,20.09759 22.043105,11.32322 32.158766,21.979434 L 37.068811,17.246167 C 37.068811,17.246167 37.088388,32 37.088388,32 L 22.160133,31.978069 C 22.160133,31.978069 26.997745,27.140456 26.997745,27.140456 C 18.528582,18.264221 13.291696,25.230495 11.500037,31.436501 z"
     style="fill:#404040;"/>
  </a>
 </g>
</svg>

<style type='text/css'>
<![CDATA[
[data-mouse-over-selected='false'] { opacity: 0.7; }
[data-mouse-over-selected='true']  { opacity: 1.0; }
]]>
</style>
<script type="application/ecmascript"><![CDATA[
document.addEventListener('DOMContentLoaded', (event) => {
  highlightEdges();
  highlightAdjacentNodes();
});
]]></script>
</svg>
