<?xml version="1.0" encoding="UTF-8" standalone="no"?>
<!DOCTYPE svg PUBLIC "-//W3C//DTD SVG 1.1//EN"
 "http://www.w3.org/Graphics/SVG/1.1/DTD/svg11.dtd">
<!-- Generated by graphviz version 11.0.0 (0)
 -->
<!-- Title: DGtal::CountedPtr&lt; T &gt; Pages: 1 -->
<svg width="501pt" height="1826pt"
 viewBox="0.00 0.00 501.25 1825.88" xmlns="http://www.w3.org/2000/svg" xmlns:xlink="http://www.w3.org/1999/xlink">
<g id="graph0" class="graph" transform="scale(1 1) rotate(0) translate(4 1821.88)">
<title>DGtal::CountedPtr&lt; T &gt;</title>
<!-- Node1 -->
<g id="Node000001" class="node">
<title>Node1</title>
<g id="a_Node000001"><a xlink:title="Aim: Smart pointer based on reference counts.">
<polygon fill="#999999" stroke="#666666" points="124,-929.76 0,-929.76 0,-907.51 124,-907.51 124,-929.76"/>
<text text-anchor="middle" x="62" y="-916.26" font-family="FreeSans" font-size="10.00">DGtal::CountedPtr&lt; T &gt;</text>
</a>
</g>
</g>
<!-- Node2 -->
<g id="Node000002" class="node">
<title>Node2</title>
<g id="a_Node000002"><a xlink:href="classDGtal_1_1CountedPtr.html" target="_top" xlink:title=" ">
<polygon fill="white" stroke="#666666" points="476.75,-1806.88 339.25,-1806.88 339.25,-1770.38 476.75,-1770.38 476.75,-1806.88"/>
<text text-anchor="start" x="347.25" y="-1793.38" font-family="FreeSans" font-size="10.00">DGtal::CountedPtr&lt;</text>
<text text-anchor="middle" x="408" y="-1779.13" font-family="FreeSans" font-size="10.00"> DrawableWithDisplay3D &gt;</text>
</a>
</g>
</g>
<!-- Node1&#45;&gt;Node2 -->
<g id="edge1_Node000001_Node000002" class="edge">
<title>Node1&#45;&gt;Node2</title>
<g id="a_edge1_Node000001_Node000002"><a xlink:title=" ">
<path fill="none" stroke="orange" stroke-dasharray="5,2" d="M63.48,-941.56C66.42,-1069.89 83.64,-1695.51 142,-1755.63 191.97,-1807.11 278.36,-1808.41 338.88,-1801.39"/>
<polygon fill="orange" stroke="orange" points="66.99,-941.57 63.27,-931.65 59.99,-941.73 66.99,-941.57"/>
</a>
</g>
<text text-anchor="middle" x="223.38" y="-1808.38" font-family="FreeSans" font-size="10.00" fill="grey"> &lt; DrawableWithDisplay3D &gt;</text>
</g>
<!-- Node3 -->
<g id="Node000003" class="node">
<title>Node3</title>
<g id="a_Node000003"><a xlink:href="classDGtal_1_1CountedPtr.html" target="_top" xlink:title=" ">
<polygon fill="white" stroke="#666666" points="462.12,-1751.88 353.88,-1751.88 353.88,-1715.38 462.12,-1715.38 462.12,-1751.88"/>
<text text-anchor="start" x="361.88" y="-1738.38" font-family="FreeSans" font-size="10.00">DGtal::CountedPtr&lt;</text>
<text text-anchor="middle" x="408" y="-1724.13" font-family="FreeSans" font-size="10.00"> OutputImage &gt;</text>
</a>
</g>
</g>
<!-- Node1&#45;&gt;Node3 -->
<g id="edge2_Node000001_Node000003" class="edge">
<title>Node1&#45;&gt;Node3</title>
<g id="a_edge2_Node000001_Node000003"><a xlink:title=" ">
<path fill="none" stroke="orange" stroke-dasharray="5,2" d="M63.57,-941.55C66.89,-1065.89 85.56,-1656.11 142,-1711.63 170.88,-1740.04 284.71,-1739.84 353.44,-1736.9"/>
<polygon fill="orange" stroke="orange" points="67.07,-941.56 63.31,-931.65 60.07,-941.74 67.07,-941.56"/>
</a>
</g>
<text text-anchor="middle" x="223.38" y="-1742.38" font-family="FreeSans" font-size="10.00" fill="grey"> &lt; OutputImage &gt;</text>
</g>
<!-- Node4 -->
<g id="Node000004" class="node">
<title>Node4</title>
<g id="a_Node000004"><a xlink:href="classDGtal_1_1CountedPtr.html" target="_top" xlink:title=" ">
<polygon fill="white" stroke="#666666" points="462.12,-1696.88 353.88,-1696.88 353.88,-1660.38 462.12,-1660.38 462.12,-1696.88"/>
<text text-anchor="start" x="361.88" y="-1683.38" font-family="FreeSans" font-size="10.00">DGtal::CountedPtr&lt;</text>
<text text-anchor="middle" x="408" y="-1669.13" font-family="FreeSans" font-size="10.00"> DummyTbl &gt;</text>
</a>
</g>
</g>
<!-- Node1&#45;&gt;Node4 -->
<g id="edge3_Node000001_Node000004" class="edge">
<title>Node1&#45;&gt;Node4</title>
<g id="a_edge3_Node000001_Node000004"><a xlink:title=" ">
<path fill="none" stroke="orange" stroke-dasharray="5,2" d="M63.8,-941.55C68.15,-1059.89 90.65,-1598.21 142,-1649.63 196.78,-1704.49 293.32,-1699.97 353.53,-1690.3"/>
<polygon fill="orange" stroke="orange" points="67.3,-941.44 63.44,-931.57 60.3,-941.69 67.3,-941.44"/>
</a>
</g>
<text text-anchor="middle" x="223.38" y="-1700.38" font-family="FreeSans" font-size="10.00" fill="grey"> &lt; DummyTbl &gt;</text>
</g>
<!-- Node5 -->
<g id="Node000005" class="node">
<title>Node5</title>
<g id="a_Node000005"><a xlink:href="classDGtal_1_1CountedPtr.html" target="_top" xlink:title=" ">
<polygon fill="white" stroke="#666666" points="462.12,-1642.01 353.88,-1642.01 353.88,-1591.26 462.12,-1591.26 462.12,-1642.01"/>
<text text-anchor="start" x="361.88" y="-1628.51" font-family="FreeSans" font-size="10.00">DGtal::CountedPtr&lt;</text>
<text text-anchor="start" x="361.88" y="-1614.26" font-family="FreeSans" font-size="10.00"> DGtal::SignalData&lt;</text>
<text text-anchor="middle" x="408" y="-1600.01" font-family="FreeSans" font-size="10.00"> Value &gt; &gt;</text>
</a>
</g>
</g>
<!-- Node1&#45;&gt;Node5 -->
<g id="edge4_Node000001_Node000005" class="edge">
<title>Node1&#45;&gt;Node5</title>
<g id="a_edge4_Node000001_Node000005"><a xlink:title=" ">
<path fill="none" stroke="orange" stroke-dasharray="5,2" d="M64.04,-941.31C69.35,-1052.88 95.12,-1539.99 142,-1586.63 170.8,-1615.29 284.66,-1618.76 353.41,-1618.1"/>
<polygon fill="orange" stroke="orange" points="67.55,-941.47 63.58,-931.64 60.56,-941.8 67.55,-941.47"/>
</a>
</g>
<text text-anchor="start" x="177.62" y="-1635.63" font-family="FreeSans" font-size="10.00" fill="grey"> &lt; DGtal::SignalData</text>
<text text-anchor="middle" x="223.38" y="-1621.38" font-family="FreeSans" font-size="10.00" fill="grey">&lt; Value &gt; &gt;</text>
</g>
<!-- Node6 -->
<g id="Node000006" class="node">
<title>Node6</title>
<g id="a_Node000006"><a xlink:href="classDGtal_1_1CountedPtr.html" target="_top" xlink:title=" ">
<polygon fill="white" stroke="#666666" points="474.12,-1572.88 341.88,-1572.88 341.88,-1536.38 474.12,-1536.38 474.12,-1572.88"/>
<text text-anchor="start" x="349.88" y="-1559.38" font-family="FreeSans" font-size="10.00">DGtal::CountedPtr&lt;</text>
<text text-anchor="middle" x="408" y="-1545.13" font-family="FreeSans" font-size="10.00"> DrawableWithBoard2D &gt;</text>
</a>
</g>
</g>
<!-- Node1&#45;&gt;Node6 -->
<g id="edge5_Node000001_Node000006" class="edge">
<title>Node1&#45;&gt;Node6</title>
<g id="a_edge5_Node000001_Node000006"><a xlink:title=" ">
<path fill="none" stroke="orange" stroke-dasharray="5,2" d="M64.38,-941.65C70.9,-1046.88 100.08,-1478.84 142,-1520.63 193.49,-1571.97 281.27,-1573.19 341.61,-1566.41"/>
<polygon fill="orange" stroke="orange" points="67.88,-941.52 63.77,-931.75 60.89,-941.95 67.88,-941.52"/>
</a>
</g>
<text text-anchor="middle" x="223.38" y="-1573.38" font-family="FreeSans" font-size="10.00" fill="grey"> &lt; DrawableWithBoard2D &gt;</text>
</g>
<!-- Node7 -->
<g id="Node000007" class="node">
<title>Node7</title>
<g id="a_Node000007"><a xlink:href="classDGtal_1_1CountedPtr.html" target="_top" xlink:title=" ">
<polygon fill="white" stroke="#666666" points="490.25,-1517.88 325.75,-1517.88 325.75,-1481.38 490.25,-1481.38 490.25,-1517.88"/>
<text text-anchor="start" x="333.75" y="-1504.38" font-family="FreeSans" font-size="10.00">DGtal::CountedPtr&lt;</text>
<text text-anchor="middle" x="408" y="-1490.13" font-family="FreeSans" font-size="10.00"> DGtal::DrawableWithBoard2D &gt;</text>
</a>
</g>
</g>
<!-- Node1&#45;&gt;Node7 -->
<g id="edge6_Node000001_Node000007" class="edge">
<title>Node1&#45;&gt;Node7</title>
<g id="a_edge6_Node000001_Node000007"><a xlink:title=" ">
<path fill="none" stroke="orange" stroke-dasharray="5,2" d="M62.64,-941.23C61.64,-1036.24 63.06,-1401.85 142,-1476.63 167.65,-1500.93 257.29,-1504.4 325.28,-1503.26"/>
<polygon fill="orange" stroke="orange" points="66.14,-941.46 62.77,-931.41 59.14,-941.37 66.14,-941.46"/>
</a>
</g>
<text text-anchor="middle" x="223.38" y="-1507.38" font-family="FreeSans" font-size="10.00" fill="grey"> &lt; DGtal::DrawableWithBoard2D &gt;</text>
</g>
<!-- Node8 -->
<g id="Node000008" class="node">
<title>Node8</title>
<g id="a_Node000008"><a xlink:href="classDGtal_1_1CountedPtr.html" target="_top" xlink:title=" ">
<polygon fill="white" stroke="#666666" points="492.88,-1462.88 323.12,-1462.88 323.12,-1426.38 492.88,-1426.38 492.88,-1462.88"/>
<text text-anchor="start" x="331.12" y="-1449.38" font-family="FreeSans" font-size="10.00">DGtal::CountedPtr&lt;</text>
<text text-anchor="middle" x="408" y="-1435.13" font-family="FreeSans" font-size="10.00"> DGtal::DrawableWithDisplay3D &gt;</text>
</a>
</g>
</g>
<!-- Node1&#45;&gt;Node8 -->
<g id="edge7_Node000001_Node000008" class="edge">
<title>Node1&#45;&gt;Node8</title>
<g id="a_edge7_Node000001_Node000008"><a xlink:title=" ">
<path fill="none" stroke="orange" stroke-dasharray="5,2" d="M63.2,-941.52C64.46,-1029.53 73.75,-1344.51 142,-1410.63 188.89,-1456.06 264.32,-1461.81 322.74,-1457.79"/>
<polygon fill="orange" stroke="orange" points="66.7,-941.71 63.08,-931.75 59.7,-941.79 66.7,-941.71"/>
</a>
</g>
<text text-anchor="middle" x="223.38" y="-1463.38" font-family="FreeSans" font-size="10.00" fill="grey"> &lt; DGtal::DrawableWithDisplay3D &gt;</text>
</g>
<!-- Node9 -->
<g id="Node000009" class="node">
<title>Node9</title>
<g id="a_Node000009"><a xlink:href="classDGtal_1_1CountedPtr.html" target="_top" xlink:title=" ">
<polygon fill="white" stroke="#666666" points="462.12,-1407.88 353.88,-1407.88 353.88,-1371.38 462.12,-1371.38 462.12,-1407.88"/>
<text text-anchor="start" x="361.88" y="-1394.38" font-family="FreeSans" font-size="10.00">DGtal::CountedPtr&lt;</text>
<text text-anchor="middle" x="408" y="-1380.13" font-family="FreeSans" font-size="10.00"> Domain &gt;</text>
</a>
</g>
</g>
<!-- Node1&#45;&gt;Node9 -->
<g id="edge8_Node000001_Node000009" class="edge">
<title>Node1&#45;&gt;Node9</title>
<g id="a_edge8_Node000001_Node000009"><a xlink:title=" ">
<path fill="none" stroke="orange" stroke-dasharray="5,2" d="M63.52,-941.34C65.93,-1024.05 78.73,-1307.5 142,-1365.63 171.81,-1393.02 284.99,-1394.16 353.43,-1392.15"/>
<polygon fill="orange" stroke="orange" points="67.03,-941.46 63.26,-931.56 60.03,-941.65 67.03,-941.46"/>
</a>
</g>
<text text-anchor="middle" x="223.38" y="-1397.38" font-family="FreeSans" font-size="10.00" fill="grey"> &lt; Domain &gt;</text>
</g>
<!-- Node10 -->
<g id="Node000010" class="node">
<title>Node10</title>
<g id="a_Node000010"><a xlink:href="classDGtal_1_1CountedPtr.html" target="_top" xlink:title=" ">
<polygon fill="white" stroke="#666666" points="476.38,-1352.88 339.62,-1352.88 339.62,-1316.38 476.38,-1316.38 476.38,-1352.88"/>
<text text-anchor="start" x="347.62" y="-1339.38" font-family="FreeSans" font-size="10.00">DGtal::CountedPtr&lt;</text>
<text text-anchor="middle" x="408" y="-1325.13" font-family="FreeSans" font-size="10.00"> DigitalSurfaceContainer &gt;</text>
</a>
</g>
</g>
<!-- Node1&#45;&gt;Node10 -->
<g id="edge9_Node000001_Node000010" class="edge">
<title>Node1&#45;&gt;Node10</title>
<g id="a_edge9_Node000001_Node000010"><a xlink:title=" ">
<path fill="none" stroke="orange" stroke-dasharray="5,2" d="M64.35,-941.51C69.25,-1016.25 88.7,-1251.25 142,-1300.63 194.4,-1349.18 279.65,-1351.62 339.27,-1345.86"/>
<polygon fill="orange" stroke="orange" points="67.85,-941.49 63.74,-931.73 60.87,-941.93 67.85,-941.49"/>
</a>
</g>
<text text-anchor="middle" x="223.38" y="-1352.38" font-family="FreeSans" font-size="10.00" fill="grey"> &lt; DigitalSurfaceContainer &gt;</text>
</g>
<!-- Node11 -->
<g id="Node000011" class="node">
<title>Node11</title>
<g id="a_Node000011"><a xlink:href="classDGtal_1_1CountedPtr.html" target="_top" xlink:title=" ">
<polygon fill="white" stroke="#666666" points="462.12,-1297.88 353.88,-1297.88 353.88,-1261.38 462.12,-1261.38 462.12,-1297.88"/>
<text text-anchor="start" x="361.88" y="-1284.38" font-family="FreeSans" font-size="10.00">DGtal::CountedPtr&lt;</text>
<text text-anchor="middle" x="408" y="-1270.13" font-family="FreeSans" font-size="10.00"> DigSurface &gt;</text>
</a>
</g>
</g>
<!-- Node1&#45;&gt;Node11 -->
<g id="edge10_Node000001_Node000011" class="edge">
<title>Node1&#45;&gt;Node11</title>
<g id="a_edge10_Node000001_Node000011"><a xlink:title=" ">
<path fill="none" stroke="orange" stroke-dasharray="5,2" d="M64.88,-941.24C71.1,-1010.2 93.45,-1215.71 142,-1257.63 172.57,-1284.04 285.18,-1284.62 353.38,-1282.35"/>
<polygon fill="orange" stroke="orange" points="68.39,-941.19 64.03,-931.53 61.41,-941.8 68.39,-941.19"/>
</a>
</g>
<text text-anchor="middle" x="223.38" y="-1287.38" font-family="FreeSans" font-size="10.00" fill="grey"> &lt; DigSurface &gt;</text>
</g>
<!-- Node12 -->
<g id="Node000012" class="node">
<title>Node12</title>
<g id="a_Node000012"><a xlink:href="classDGtal_1_1CountedPtr.html" target="_top" xlink:title=" ">
<polygon fill="white" stroke="#666666" points="462.12,-1242.88 353.88,-1242.88 353.88,-1206.38 462.12,-1206.38 462.12,-1242.88"/>
<text text-anchor="start" x="361.88" y="-1229.38" font-family="FreeSans" font-size="10.00">DGtal::CountedPtr&lt;</text>
<text text-anchor="middle" x="408" y="-1215.13" font-family="FreeSans" font-size="10.00"> GraphVisitor &gt;</text>
</a>
</g>
</g>
<!-- Node1&#45;&gt;Node12 -->
<g id="edge11_Node000001_Node000012" class="edge">
<title>Node1&#45;&gt;Node12</title>
<g id="a_edge11_Node000001_Node000012"><a xlink:title=" ">
<path fill="none" stroke="orange" stroke-dasharray="5,2" d="M66.14,-941.57C74.93,-1002.31 101.86,-1165.04 142,-1198.63 200.85,-1247.88 294.8,-1244.19 353.59,-1235.51"/>
<polygon fill="orange" stroke="orange" points="69.61,-941.15 64.75,-931.73 62.68,-942.12 69.61,-941.15"/>
</a>
</g>
<text text-anchor="middle" x="223.38" y="-1245.38" font-family="FreeSans" font-size="10.00" fill="grey"> &lt; GraphVisitor &gt;</text>
</g>
<!-- Node13 -->
<g id="Node000013" class="node">
<title>Node13</title>
<g id="a_Node000013"><a xlink:href="classDGtal_1_1CountedPtr.html" target="_top" xlink:title=" ">
<polygon fill="white" stroke="#666666" points="462.12,-1187.88 353.88,-1187.88 353.88,-1151.38 462.12,-1151.38 462.12,-1187.88"/>
<text text-anchor="start" x="361.88" y="-1174.38" font-family="FreeSans" font-size="10.00">DGtal::CountedPtr&lt;</text>
<text text-anchor="middle" x="408" y="-1160.13" font-family="FreeSans" font-size="10.00"> TImageContainer &gt;</text>
</a>
</g>
</g>
<!-- Node1&#45;&gt;Node13 -->
<g id="edge12_Node000001_Node000013" class="edge">
<title>Node1&#45;&gt;Node13</title>
<g id="a_edge12_Node000001_Node000013"><a xlink:title=" ">
<path fill="none" stroke="orange" stroke-dasharray="5,2" d="M63.81,-941.51C66.75,-986.97 80.28,-1088.49 142,-1137.63 202,-1185.4 295.18,-1184.78 353.56,-1178.37"/>
<polygon fill="orange" stroke="orange" points="67.3,-941.35 63.29,-931.54 60.31,-941.71 67.3,-941.35"/>
</a>
</g>
<text text-anchor="middle" x="223.38" y="-1185.38" font-family="FreeSans" font-size="10.00" fill="grey"> &lt; TImageContainer &gt;</text>
</g>
<!-- Node14 -->
<g id="Node000014" class="node">
<title>Node14</title>
<g id="a_Node000014"><a xlink:href="classDGtal_1_1CountedPtr.html" target="_top" xlink:title=" ">
<polygon fill="white" stroke="#666666" points="462.12,-1132.88 353.88,-1132.88 353.88,-1096.38 462.12,-1096.38 462.12,-1132.88"/>
<text text-anchor="start" x="361.88" y="-1119.38" font-family="FreeSans" font-size="10.00">DGtal::CountedPtr&lt;</text>
<text text-anchor="middle" x="408" y="-1105.13" font-family="FreeSans" font-size="10.00"> const Domain &gt;</text>
</a>
</g>
</g>
<!-- Node1&#45;&gt;Node14 -->
<g id="edge13_Node000001_Node000014" class="edge">
<title>Node1&#45;&gt;Node14</title>
<g id="a_edge13_Node000001_Node000014"><a xlink:title=" ">
<path fill="none" stroke="orange" stroke-dasharray="5,2" d="M67.62,-941.09C75.99,-975.61 97.11,-1041.14 142,-1073.63 204.04,-1118.53 295.77,-1122.66 353.42,-1119.87"/>
<polygon fill="orange" stroke="orange" points="71.04,-940.35 65.43,-931.36 64.21,-941.89 71.04,-940.35"/>
</a>
</g>
<text text-anchor="middle" x="223.38" y="-1124.38" font-family="FreeSans" font-size="10.00" fill="grey"> &lt; const Domain &gt;</text>
</g>
<!-- Node15 -->
<g id="Node000015" class="node">
<title>Node15</title>
<g id="a_Node000015"><a xlink:href="classDGtal_1_1CountedPtr.html" target="_top" xlink:title=" ">
<polygon fill="white" stroke="#666666" points="462.12,-1077.88 353.88,-1077.88 353.88,-1041.38 462.12,-1041.38 462.12,-1077.88"/>
<text text-anchor="start" x="361.88" y="-1064.38" font-family="FreeSans" font-size="10.00">DGtal::CountedPtr&lt;</text>
<text text-anchor="middle" x="408" y="-1050.13" font-family="FreeSans" font-size="10.00"> Sequence &gt;</text>
</a>
</g>
</g>
<!-- Node1&#45;&gt;Node15 -->
<g id="edge14_Node000001_Node000015" class="edge">
<title>Node1&#45;&gt;Node15</title>
<g id="a_edge14_Node000001_Node000015"><a xlink:title=" ">
<path fill="none" stroke="orange" stroke-dasharray="5,2" d="M75.32,-939.73C88.87,-960.92 112.66,-992.79 142,-1009.63 208.08,-1047.57 297.25,-1057.48 353.44,-1059.67"/>
<polygon fill="orange" stroke="orange" points="78.37,-938 70.15,-931.31 72.4,-941.67 78.37,-938"/>
</a>
</g>
<text text-anchor="middle" x="223.38" y="-1060.38" font-family="FreeSans" font-size="10.00" fill="grey"> &lt; Sequence &gt;</text>
</g>
<!-- Node16 -->
<g id="Node000016" class="node">
<title>Node16</title>
<g id="a_Node000016"><a xlink:href="classDGtal_1_1CountedPtr.html" target="_top" xlink:title=" ">
<polygon fill="white" stroke="#666666" points="462.5,-1022.88 353.5,-1022.88 353.5,-986.38 462.5,-986.38 462.5,-1022.88"/>
<text text-anchor="start" x="361.5" y="-1009.38" font-family="FreeSans" font-size="10.00">DGtal::CountedPtr&lt;</text>
<text text-anchor="middle" x="408" y="-995.13" font-family="FreeSans" font-size="10.00"> DGtal::ImplicitBall &gt;</text>
</a>
</g>
</g>
<!-- Node1&#45;&gt;Node16 -->
<g id="edge15_Node000001_Node000016" class="edge">
<title>Node1&#45;&gt;Node16</title>
<g id="a_edge15_Node000001_Node000016"><a xlink:title=" ">
<path fill="none" stroke="orange" stroke-dasharray="5,2" d="M93.02,-935.43C107.45,-942.89 125.23,-951.19 142,-956.63 213.16,-979.72 298.88,-992.7 353.17,-999.19"/>
<polygon fill="orange" stroke="orange" points="94.97,-932.51 84.5,-930.91 91.69,-938.69 94.97,-932.51"/>
</a>
</g>
<text text-anchor="middle" x="223.38" y="-996.38" font-family="FreeSans" font-size="10.00" fill="grey"> &lt; DGtal::ImplicitBall &gt;</text>
</g>
<!-- Node17 -->
<g id="Node000017" class="node">
<title>Node17</title>
<g id="a_Node000017"><a xlink:href="classDGtal_1_1CountedPtr.html" target="_top" xlink:title=" ">
<polygon fill="white" stroke="#666666" points="470.75,-967.88 345.25,-967.88 345.25,-931.38 470.75,-931.38 470.75,-967.88"/>
<text text-anchor="start" x="353.25" y="-954.38" font-family="FreeSans" font-size="10.00">DGtal::CountedPtr&lt;</text>
<text text-anchor="middle" x="408" y="-940.13" font-family="FreeSans" font-size="10.00"> DGtal::GaussDigitizer &gt;</text>
</a>
</g>
</g>
<!-- Node1&#45;&gt;Node17 -->
<g id="edge16_Node000001_Node000017" class="edge">
<title>Node1&#45;&gt;Node17</title>
<g id="a_edge16_Node000001_Node000017"><a xlink:title=" ">
<path fill="none" stroke="orange" stroke-dasharray="5,2" d="M135.38,-925.16C197.51,-930.75 286.1,-938.74 345.02,-944.05"/>
<polygon fill="orange" stroke="orange" points="135.89,-921.69 125.61,-924.28 135.26,-928.66 135.89,-921.69"/>
</a>
</g>
<text text-anchor="middle" x="223.38" y="-943.38" font-family="FreeSans" font-size="10.00" fill="grey"> &lt; DGtal::GaussDigitizer &gt;</text>
</g>
<!-- Node18 -->
<g id="Node000018" class="node">
<title>Node18</title>
<g id="a_Node000018"><a xlink:href="classDGtal_1_1CountedPtr.html" target="_top" xlink:title=" ">
<polygon fill="white" stroke="#666666" points="476,-913.01 340,-913.01 340,-862.26 476,-862.26 476,-913.01"/>
<text text-anchor="start" x="348" y="-899.51" font-family="FreeSans" font-size="10.00">DGtal::CountedPtr&lt;</text>
<text text-anchor="start" x="348" y="-885.26" font-family="FreeSans" font-size="10.00"> DGtal::HyperRectDomain</text>
<text text-anchor="middle" x="408" y="-871.01" font-family="FreeSans" font-size="10.00">&lt; Space &gt; &gt;</text>
</a>
</g>
</g>
<!-- Node1&#45;&gt;Node18 -->
<g id="edge17_Node000001_Node000018" class="edge">
<title>Node1&#45;&gt;Node18</title>
<g id="a_edge17_Node000001_Node000018"><a xlink:title=" ">
<path fill="none" stroke="orange" stroke-dasharray="5,2" d="M102.3,-903.46C114.8,-899.31 128.81,-895.35 142,-893.13 208.48,-881.96 285.66,-881.77 339.52,-883.66"/>
<polygon fill="orange" stroke="orange" points="101.49,-900.04 93.19,-906.62 103.78,-906.65 101.49,-900.04"/>
</a>
</g>
<text text-anchor="start" x="159.25" y="-911.63" font-family="FreeSans" font-size="10.00" fill="grey"> &lt; DGtal::HyperRectDomain</text>
<text text-anchor="middle" x="223.38" y="-897.38" font-family="FreeSans" font-size="10.00" fill="grey">&lt; Space &gt; &gt;</text>
</g>
<!-- Node19 -->
<g id="Node000019" class="node">
<title>Node19</title>
<g id="a_Node000019"><a xlink:href="classDGtal_1_1CountedPtr.html" target="_top" xlink:title=" ">
<polygon fill="white" stroke="#666666" points="493.25,-844.01 322.75,-844.01 322.75,-793.26 493.25,-793.26 493.25,-844.01"/>
<text text-anchor="start" x="330.75" y="-830.51" font-family="FreeSans" font-size="10.00">DGtal::CountedPtr&lt;</text>
<text text-anchor="start" x="330.75" y="-816.26" font-family="FreeSans" font-size="10.00"> DGtal::functors::PointFunctor</text>
<text text-anchor="middle" x="408" y="-802.01" font-family="FreeSans" font-size="10.00">FromPointPredicateAndDomain &gt;</text>
</a>
</g>
</g>
<!-- Node1&#45;&gt;Node19 -->
<g id="edge18_Node000001_Node000019" class="edge">
<title>Node1&#45;&gt;Node19</title>
<g id="a_edge18_Node000001_Node000019"><a xlink:title=" ">
<path fill="none" stroke="orange" stroke-dasharray="5,2" d="M76.04,-897.84C89.77,-878.02 113.34,-849.26 142,-835.88 198.08,-809.7 268.22,-806.23 322.25,-808.86"/>
<polygon fill="orange" stroke="orange" points="73.24,-895.73 70.63,-906 79.07,-899.61 73.24,-895.73"/>
</a>
</g>
<text text-anchor="start" x="147.62" y="-868.88" font-family="FreeSans" font-size="10.00" fill="grey"> &lt; DGtal::functors::</text>
<text text-anchor="start" x="147.62" y="-854.63" font-family="FreeSans" font-size="10.00" fill="grey">PointFunctorFromPointPredicate</text>
<text text-anchor="middle" x="223.38" y="-840.38" font-family="FreeSans" font-size="10.00" fill="grey">AndDomain &gt;</text>
</g>
<!-- Node20 -->
<g id="Node000020" class="node">
<title>Node20</title>
<g id="a_Node000020"><a xlink:href="classDGtal_1_1CountedPtr.html" target="_top" xlink:title=" ">
<polygon fill="white" stroke="#666666" points="472.62,-774.88 343.38,-774.88 343.38,-738.38 472.62,-738.38 472.62,-774.88"/>
<text text-anchor="start" x="351.38" y="-761.38" font-family="FreeSans" font-size="10.00">DGtal::CountedPtr&lt;</text>
<text text-anchor="middle" x="408" y="-747.13" font-family="FreeSans" font-size="10.00"> DGtal::FunctorOnCells &gt;</text>
</a>
</g>
</g>
<!-- Node1&#45;&gt;Node20 -->
<g id="edge19_Node000001_Node000020" class="edge">
<title>Node1&#45;&gt;Node20</title>
<g id="a_edge19_Node000001_Node000020"><a xlink:title=" ">
<path fill="none" stroke="orange" stroke-dasharray="5,2" d="M69.81,-896.34C80.17,-866.54 102.95,-814.55 142,-789.38 202,-750.7 285.71,-746.71 342.89,-749.67"/>
<polygon fill="orange" stroke="orange" points="66.49,-895.23 66.69,-905.83 73.14,-897.42 66.49,-895.23"/>
</a>
</g>
<text text-anchor="middle" x="223.38" y="-793.38" font-family="FreeSans" font-size="10.00" fill="grey"> &lt; DGtal::FunctorOnCells &gt;</text>
</g>
<!-- Node21 -->
<g id="Node000021" class="node">
<title>Node21</title>
<g id="a_Node000021"><a xlink:href="classDGtal_1_1CountedPtr.html" target="_top" xlink:title=" ">
<polygon fill="white" stroke="#666666" points="493.25,-719.88 322.75,-719.88 322.75,-683.38 493.25,-683.38 493.25,-719.88"/>
<text text-anchor="start" x="330.75" y="-706.38" font-family="FreeSans" font-size="10.00">DGtal::CountedPtr&lt;</text>
<text text-anchor="middle" x="408" y="-692.13" font-family="FreeSans" font-size="10.00"> DGtal::DigitalSurfaceConvolver &gt;</text>
</a>
</g>
</g>
<!-- Node1&#45;&gt;Node21 -->
<g id="edge20_Node000001_Node000021" class="edge">
<title>Node1&#45;&gt;Node21</title>
<g id="a_edge20_Node000001_Node000021"><a xlink:title=" ">
<path fill="none" stroke="orange" stroke-dasharray="5,2" d="M65.21,-896.09C70.5,-855.55 87.79,-770.81 142,-730.38 193.1,-692.27 265.94,-686.85 322.32,-689.98"/>
<polygon fill="orange" stroke="orange" points="61.75,-895.53 64.08,-905.87 68.71,-896.34 61.75,-895.53"/>
</a>
</g>
<text text-anchor="middle" x="223.38" y="-734.38" font-family="FreeSans" font-size="10.00" fill="grey"> &lt; DGtal::DigitalSurfaceConvolver &gt;</text>
</g>
<!-- Node22 -->
<g id="Node000022" class="node">
<title>Node22</title>
<g id="a_Node000022"><a xlink:href="classDGtal_1_1CountedPtr.html" target="_top" xlink:title=" ">
<polygon fill="white" stroke="#666666" points="462.12,-664.88 353.88,-664.88 353.88,-628.38 462.12,-628.38 462.12,-664.88"/>
<text text-anchor="start" x="361.88" y="-651.38" font-family="FreeSans" font-size="10.00">DGtal::CountedPtr&lt;</text>
<text text-anchor="middle" x="408" y="-637.13" font-family="FreeSans" font-size="10.00"> DigitalTopology &gt;</text>
</a>
</g>
</g>
<!-- Node1&#45;&gt;Node22 -->
<g id="edge21_Node000001_Node000022" class="edge">
<title>Node1&#45;&gt;Node22</title>
<g id="a_edge21_Node000001_Node000022"><a xlink:title=" ">
<path fill="none" stroke="orange" stroke-dasharray="5,2" d="M62.56,-895.69C62.98,-845.66 71.73,-726.75 142,-670.38 201.63,-622.55 294.92,-626.64 353.42,-635.51"/>
<polygon fill="orange" stroke="orange" points="59.06,-895.6 62.6,-905.59 66.06,-895.58 59.06,-895.6"/>
</a>
</g>
<text text-anchor="middle" x="223.38" y="-674.38" font-family="FreeSans" font-size="10.00" fill="grey"> &lt; DigitalTopology &gt;</text>
</g>
<!-- Node23 -->
<g id="Node000023" class="node">
<title>Node23</title>
<g id="a_Node000023"><a xlink:href="classDGtal_1_1CountedPtr.html" target="_top" xlink:title=" ">
<polygon fill="white" stroke="#666666" points="462.12,-609.88 353.88,-609.88 353.88,-573.38 462.12,-573.38 462.12,-609.88"/>
<text text-anchor="start" x="361.88" y="-596.38" font-family="FreeSans" font-size="10.00">DGtal::CountedPtr&lt;</text>
<text text-anchor="middle" x="408" y="-582.13" font-family="FreeSans" font-size="10.00"> DigitalSet &gt;</text>
</a>
</g>
</g>
<!-- Node1&#45;&gt;Node23 -->
<g id="edge22_Node000001_Node000023" class="edge">
<title>Node1&#45;&gt;Node23</title>
<g id="a_edge22_Node000001_Node000023"><a xlink:title=" ">
<path fill="none" stroke="orange" stroke-dasharray="5,2" d="M65.44,-896.03C72.9,-831.47 97.65,-648.5 142,-611.38 200.73,-562.24 294.72,-568.52 353.55,-579.02"/>
<polygon fill="orange" stroke="orange" points="61.98,-895.45 64.35,-905.78 68.94,-896.23 61.98,-895.45"/>
</a>
</g>
<text text-anchor="middle" x="223.38" y="-615.38" font-family="FreeSans" font-size="10.00" fill="grey"> &lt; DigitalSet &gt;</text>
</g>
<!-- Node24 -->
<g id="Node000024" class="node">
<title>Node24</title>
<g id="a_Node000024"><a xlink:href="classDGtal_1_1CountedPtr.html" target="_top" xlink:title=" ">
<polygon fill="white" stroke="#666666" points="488.75,-554.88 327.25,-554.88 327.25,-518.38 488.75,-518.38 488.75,-554.88"/>
<text text-anchor="start" x="335.25" y="-541.38" font-family="FreeSans" font-size="10.00">DGtal::CountedPtr&lt;</text>
<text text-anchor="middle" x="408" y="-527.13" font-family="FreeSans" font-size="10.00"> DGtal::IndexedDigitalSurface &gt;</text>
</a>
</g>
</g>
<!-- Node1&#45;&gt;Node24 -->
<g id="edge23_Node000001_Node000024" class="edge">
<title>Node1&#45;&gt;Node24</title>
<g id="a_edge23_Node000001_Node000024"><a xlink:title=" ">
<path fill="none" stroke="orange" stroke-dasharray="5,2" d="M64.46,-895.69C69.59,-822.78 89.46,-598.59 142,-553.38 191.97,-510.39 268.8,-510.2 326.89,-518.41"/>
<polygon fill="orange" stroke="orange" points="60.97,-895.39 63.79,-905.6 67.95,-895.86 60.97,-895.39"/>
</a>
</g>
<text text-anchor="middle" x="223.38" y="-557.38" font-family="FreeSans" font-size="10.00" fill="grey"> &lt; DGtal::IndexedDigitalSurface &gt;</text>
</g>
<!-- Node25 -->
<g id="Node000025" class="node">
<title>Node25</title>
<g id="a_Node000025"><a xlink:href="classDGtal_1_1CountedPtr.html" target="_top" xlink:title=" ">
<polygon fill="white" stroke="#666666" points="462.12,-500.01 353.88,-500.01 353.88,-449.26 462.12,-449.26 462.12,-500.01"/>
<text text-anchor="start" x="361.88" y="-486.51" font-family="FreeSans" font-size="10.00">DGtal::CountedPtr&lt;</text>
<text text-anchor="start" x="361.88" y="-472.26" font-family="FreeSans" font-size="10.00"> DGtal::SignalData&lt;</text>
<text text-anchor="middle" x="408" y="-458.01" font-family="FreeSans" font-size="10.00"> TValue &gt; &gt;</text>
</a>
</g>
</g>
<!-- Node1&#45;&gt;Node25 -->
<g id="edge24_Node000001_Node000025" class="edge">
<title>Node1&#45;&gt;Node25</title>
<g id="a_edge24_Node000001_Node000025"><a xlink:title=" ">
<path fill="none" stroke="orange" stroke-dasharray="5,2" d="M63.49,-896.02C65.76,-814.24 78.15,-535.83 142,-481.13 200.1,-431.36 294.5,-443.49 353.55,-458.12"/>
<polygon fill="orange" stroke="orange" points="59.99,-895.79 63.24,-905.88 66.99,-895.97 59.99,-895.79"/>
</a>
</g>
<text text-anchor="start" x="177.62" y="-499.63" font-family="FreeSans" font-size="10.00" fill="grey"> &lt; DGtal::SignalData</text>
<text text-anchor="middle" x="223.38" y="-485.38" font-family="FreeSans" font-size="10.00" fill="grey">&lt; TValue &gt; &gt;</text>
</g>
<!-- Node26 -->
<g id="Node000026" class="node">
<title>Node26</title>
<g id="a_Node000026"><a xlink:href="classDGtal_1_1CountedPtr.html" target="_top" xlink:title=" ">
<polygon fill="white" stroke="#666666" points="470.75,-431.01 345.25,-431.01 345.25,-380.26 470.75,-380.26 470.75,-431.01"/>
<text text-anchor="start" x="353.25" y="-417.51" font-family="FreeSans" font-size="10.00">DGtal::CountedPtr&lt;</text>
<text text-anchor="start" x="353.25" y="-403.26" font-family="FreeSans" font-size="10.00"> StabbingLineComputer</text>
<text text-anchor="middle" x="408" y="-389.01" font-family="FreeSans" font-size="10.00">&lt; ConstIterator &gt; &gt;</text>
</a>
</g>
</g>
<!-- Node1&#45;&gt;Node26 -->
<g id="edge25_Node000001_Node000026" class="edge">
<title>Node1&#45;&gt;Node26</title>
<g id="a_edge25_Node000001_Node000026"><a xlink:title=" ">
<path fill="none" stroke="orange" stroke-dasharray="5,2" d="M62.88,-895.72C62.94,-805.54 68.29,-476.82 142,-412.13 196.82,-364.02 285.34,-372.99 344.82,-386.81"/>
<polygon fill="orange" stroke="orange" points="59.38,-895.52 62.9,-905.51 66.38,-895.51 59.38,-895.52"/>
</a>
</g>
<text text-anchor="start" x="164.5" y="-430.63" font-family="FreeSans" font-size="10.00" fill="grey"> &lt; StabbingLineComputer</text>
<text text-anchor="middle" x="223.38" y="-416.38" font-family="FreeSans" font-size="10.00" fill="grey">&lt; ConstIterator &gt; &gt;</text>
</g>
<!-- Node27 -->
<g id="Node000027" class="node">
<title>Node27</title>
<g id="a_Node000027"><a xlink:href="classDGtal_1_1CountedPtr.html" target="_top" xlink:title=" ">
<polygon fill="white" stroke="#666666" points="462.12,-361.88 353.88,-361.88 353.88,-325.38 462.12,-325.38 462.12,-361.88"/>
<text text-anchor="start" x="361.88" y="-348.38" font-family="FreeSans" font-size="10.00">DGtal::CountedPtr&lt;</text>
<text text-anchor="middle" x="408" y="-334.13" font-family="FreeSans" font-size="10.00"> Preimage &gt;</text>
</a>
</g>
</g>
<!-- Node1&#45;&gt;Node27 -->
<g id="edge26_Node000001_Node000027" class="edge">
<title>Node1&#45;&gt;Node27</title>
<g id="a_edge26_Node000001_Node000027"><a xlink:title=" ">
<path fill="none" stroke="orange" stroke-dasharray="5,2" d="M62.55,-895.83C61.19,-799.98 61.34,-431.24 142,-357.38 198.66,-305.51 293.94,-315.38 353.49,-328.57"/>
<polygon fill="orange" stroke="orange" points="59.05,-895.81 62.72,-905.75 66.05,-895.7 59.05,-895.81"/>
</a>
</g>
<text text-anchor="middle" x="223.38" y="-361.38" font-family="FreeSans" font-size="10.00" fill="grey"> &lt; Preimage &gt;</text>
</g>
<!-- Node28 -->
<g id="Node000028" class="node">
<title>Node28</title>
<g id="a_Node000028"><a xlink:href="classDGtal_1_1CountedPtr.html" target="_top" xlink:title=" ">
<polygon fill="white" stroke="#666666" points="464,-306.88 352,-306.88 352,-270.38 464,-270.38 464,-306.88"/>
<text text-anchor="start" x="360" y="-293.38" font-family="FreeSans" font-size="10.00">DGtal::CountedPtr&lt;</text>
<text text-anchor="middle" x="408" y="-279.13" font-family="FreeSans" font-size="10.00"> GeometricFunctor &gt;</text>
</a>
</g>
</g>
<!-- Node1&#45;&gt;Node28 -->
<g id="edge27_Node000001_Node000028" class="edge">
<title>Node1&#45;&gt;Node28</title>
<g id="a_edge27_Node000001_Node000028"><a xlink:title=" ">
<path fill="none" stroke="orange" stroke-dasharray="5,2" d="M64.19,-895.89C70.01,-789.07 97,-340.65 142,-299.38 197.99,-248.03 291.89,-258.41 351.58,-272.28"/>
<polygon fill="orange" stroke="orange" points="60.71,-895.49 63.67,-905.66 67.7,-895.86 60.71,-895.49"/>
</a>
</g>
<text text-anchor="middle" x="223.38" y="-303.38" font-family="FreeSans" font-size="10.00" fill="grey"> &lt; GeometricFunctor &gt;</text>
</g>
<!-- Node29 -->
<g id="Node000029" class="node">
<title>Node29</title>
<g id="a_Node000029"><a xlink:href="classDGtal_1_1CountedPtr.html" target="_top" xlink:title=" ">
<polygon fill="white" stroke="#666666" points="465.5,-251.88 350.5,-251.88 350.5,-215.38 465.5,-215.38 465.5,-251.88"/>
<text text-anchor="start" x="358.5" y="-238.38" font-family="FreeSans" font-size="10.00">DGtal::CountedPtr&lt;</text>
<text text-anchor="middle" x="408" y="-224.13" font-family="FreeSans" font-size="10.00"> ShapePointFunctor &gt;</text>
</a>
</g>
</g>
<!-- Node1&#45;&gt;Node29 -->
<g id="edge28_Node000001_Node000029" class="edge">
<title>Node1&#45;&gt;Node29</title>
<g id="a_edge28_Node000001_Node000029"><a xlink:title=" ">
<path fill="none" stroke="orange" stroke-dasharray="5,2" d="M63.93,-895.96C68.75,-783.34 92.69,-287.75 142,-242.38 171.22,-215.5 281.38,-220.87 350.14,-227.24"/>
<polygon fill="orange" stroke="orange" points="60.44,-895.57 63.52,-905.71 67.43,-895.87 60.44,-895.57"/>
</a>
</g>
<text text-anchor="middle" x="223.38" y="-246.38" font-family="FreeSans" font-size="10.00" fill="grey"> &lt; ShapePointFunctor &gt;</text>
</g>
<!-- Node30 -->
<g id="Node000030" class="node">
<title>Node30</title>
<g id="a_Node000030"><a xlink:href="classDGtal_1_1CountedPtr.html" target="_top" xlink:title=" ">
<polygon fill="white" stroke="#666666" points="473.75,-197.76 342.25,-197.76 342.25,-175.51 473.75,-175.51 473.75,-197.76"/>
<text text-anchor="middle" x="408" y="-184.26" font-family="FreeSans" font-size="10.00">DGtal::CountedPtr&lt; A1 &gt;</text>
</a>
</g>
</g>
<!-- Node1&#45;&gt;Node30 -->
<g id="edge29_Node000001_Node000030" class="edge">
<title>Node1&#45;&gt;Node30</title>
<g id="a_edge29_Node000001_Node000030"><a xlink:title=" ">
<path fill="none" stroke="orange" stroke-dasharray="5,2" d="M63.81,-895.79C68.17,-779.04 90.6,-252.43 142,-203.38 169.68,-176.97 272.89,-177.77 342.03,-181.59"/>
<polygon fill="orange" stroke="orange" points="60.32,-895.52 63.45,-905.64 67.31,-895.77 60.32,-895.52"/>
</a>
</g>
<text text-anchor="middle" x="223.38" y="-207.38" font-family="FreeSans" font-size="10.00" fill="grey"> &lt; A1 &gt;</text>
</g>
<!-- Node31 -->
<g id="Node000031" class="node">
<title>Node31</title>
<g id="a_Node000031"><a xlink:href="classDGtal_1_1CountedPtr.html" target="_top" xlink:title=" ">
<polygon fill="white" stroke="#666666" points="462.12,-157.88 353.88,-157.88 353.88,-121.38 462.12,-121.38 462.12,-157.88"/>
<text text-anchor="start" x="361.88" y="-144.38" font-family="FreeSans" font-size="10.00">DGtal::CountedPtr&lt;</text>
<text text-anchor="middle" x="408" y="-130.13" font-family="FreeSans" font-size="10.00"> Point &gt;</text>
</a>
</g>
</g>
<!-- Node1&#45;&gt;Node31 -->
<g id="edge30_Node000001_Node000031" class="edge">
<title>Node1&#45;&gt;Node31</title>
<g id="a_edge30_Node000001_Node000031"><a xlink:title=" ">
<path fill="none" stroke="orange" stroke-dasharray="5,2" d="M63.68,-895.59C67.48,-774.27 87.93,-213.08 142,-160.38 197.27,-106.51 293.43,-114.17 353.46,-125.96"/>
<polygon fill="orange" stroke="orange" points="60.18,-895.44 63.38,-905.54 67.18,-895.65 60.18,-895.44"/>
</a>
</g>
<text text-anchor="middle" x="223.38" y="-164.38" font-family="FreeSans" font-size="10.00" fill="grey"> &lt; Point &gt;</text>
</g>
<!-- Node32 -->
<g id="Node000032" class="node">
<title>Node32</title>
<g id="a_Node000032"><a xlink:href="classDGtal_1_1CountedPtr.html" target="_top" xlink:title=" ">
<polygon fill="white" stroke="#666666" points="479.75,-102.88 336.25,-102.88 336.25,-66.38 479.75,-66.38 479.75,-102.88"/>
<text text-anchor="start" x="344.25" y="-89.38" font-family="FreeSans" font-size="10.00">DGtal::CountedPtr&lt;</text>
<text text-anchor="middle" x="408" y="-75.13" font-family="FreeSans" font-size="10.00"> AdjacentVertexContainer &gt;</text>
</a>
</g>
</g>
<!-- Node1&#45;&gt;Node32 -->
<g id="edge31_Node000001_Node000032" class="edge">
<title>Node1&#45;&gt;Node32</title>
<g id="a_edge31_Node000001_Node000032"><a xlink:title=" ">
<path fill="none" stroke="orange" stroke-dasharray="5,2" d="M63.46,-895.7C66.25,-768.67 82.72,-155.1 142,-98.38 193.01,-49.58 277.92,-54.28 337.85,-65.91"/>
<polygon fill="orange" stroke="orange" points="59.97,-895.44 63.25,-905.51 66.97,-895.58 59.97,-895.44"/>
</a>
</g>
<text text-anchor="middle" x="223.38" y="-102.38" font-family="FreeSans" font-size="10.00" fill="grey"> &lt; AdjacentVertexContainer &gt;</text>
</g>
<!-- Node33 -->
<g id="Node000033" class="node">
<title>Node33</title>
<g id="a_Node000033"><a xlink:href="classDGtal_1_1CountedPtr.html" target="_top" xlink:title=" ">
<polygon fill="white" stroke="#666666" points="464.38,-47.88 351.62,-47.88 351.62,-11.38 464.38,-11.38 464.38,-47.88"/>
<text text-anchor="start" x="359.62" y="-34.38" font-family="FreeSans" font-size="10.00">DGtal::CountedPtr&lt;</text>
<text text-anchor="middle" x="408" y="-20.13" font-family="FreeSans" font-size="10.00"> OutEdgeContainer &gt;</text>
</a>
</g>
</g>
<!-- Node1&#45;&gt;Node33 -->
<g id="edge32_Node000001_Node000033" class="edge">
<title>Node1&#45;&gt;Node33</title>
<g id="a_edge32_Node000001_Node000033"><a xlink:title=" ">
<path fill="none" stroke="orange" stroke-dasharray="5,2" d="M63.29,-895.72C65.21,-763.32 77.97,-100.12 142,-39.38 197.11,12.89 291.27,1.83 351.24,-12.64"/>
<polygon fill="orange" stroke="orange" points="59.79,-895.57 63.16,-905.62 66.79,-895.67 59.79,-895.57"/>
</a>
</g>
<text text-anchor="middle" x="223.38" y="-43.38" font-family="FreeSans" font-size="10.00" fill="grey"> &lt; OutEdgeContainer &gt;</text>
</g>
</g>
</svg>
