<?xml version="1.0" encoding="UTF-8" standalone="no"?>
<!DOCTYPE svg PUBLIC "-//W3C//DTD SVG 1.1//EN"
 "http://www.w3.org/Graphics/SVG/1.1/DTD/svg11.dtd">
<!-- Generated by graphviz version 11.0.0 (0)
 -->
<!-- Title: DGtal::Viewer3D&lt; TSpace, TKSpace &gt; Pages: 1 -->
<svg width="662pt" height="100pt"
 viewBox="0.00 0.00 662.00 99.50" xmlns="http://www.w3.org/2000/svg" xmlns:xlink="http://www.w3.org/1999/xlink">
<g id="graph0" class="graph" transform="scale(1 1) rotate(0) translate(4 95.5)">
<title>DGtal::Viewer3D&lt; TSpace, TKSpace &gt;</title>
<!-- Node1 -->
<g id="Node000001" class="node">
<title>Node1</title>
<g id="a_Node000001"><a xlink:title=" ">
<polygon fill="#999999" stroke="#666666" points="305.75,-63.5 169,-63.5 169,-27 305.75,-27 305.75,-63.5"/>
<text text-anchor="start" x="177" y="-50" font-family="FreeSans" font-size="10.00">DGtal::Viewer3D&lt; TSpace,</text>
<text text-anchor="middle" x="237.38" y="-35.75" font-family="FreeSans" font-size="10.00"> TKSpace &gt;</text>
</a>
</g>
</g>
<!-- Node4 -->
<g id="Node000004" class="node">
<title>Node4</title>
<g id="a_Node000004"><a xlink:href="classDGtal_1_1Viewer3D.html" target="_top" xlink:title=" ">
<polygon fill="white" stroke="#666666" points="621.38,-91.5 489.88,-91.5 489.88,-55 621.38,-55 621.38,-91.5"/>
<text text-anchor="start" x="497.88" y="-78" font-family="FreeSans" font-size="10.00">DGtal::Viewer3D&lt; Space,</text>
<text text-anchor="middle" x="555.62" y="-63.75" font-family="FreeSans" font-size="10.00"> KSpace &gt;</text>
</a>
</g>
</g>
<!-- Node1&#45;&gt;Node4 -->
<g id="edge3_Node000001_Node000004" class="edge">
<title>Node1&#45;&gt;Node4</title>
<g id="a_edge3_Node000001_Node000004"><a xlink:title=" ">
<path fill="none" stroke="orange" stroke-dasharray="5,2" d="M317.63,-52.27C370.72,-56.97 439.74,-63.08 489.6,-67.49"/>
<polygon fill="orange" stroke="orange" points="318,-48.79 307.73,-51.39 317.38,-55.76 318,-48.79"/>
</a>
</g>
<text text-anchor="middle" x="381.5" y="-67" font-family="FreeSans" font-size="10.00" fill="grey"> &lt; Space, KSpace &gt;</text>
</g>
<!-- Node5 -->
<g id="Node000005" class="node">
<title>Node5</title>
<g id="a_Node000005"><a xlink:href="classDGtal_1_1Viewer3D.html" target="_top" xlink:title=" ">
<polygon fill="white" stroke="#666666" points="654,-36.5 457.25,-36.5 457.25,0 654,0 654,-36.5"/>
<text text-anchor="start" x="465.25" y="-23" font-family="FreeSans" font-size="10.00">DGtal::Viewer3D&lt; DGtal</text>
<text text-anchor="middle" x="555.62" y="-8.75" font-family="FreeSans" font-size="10.00">::SpaceND, DGtal::KhalimskySpaceND &gt;</text>
</a>
</g>
</g>
<!-- Node1&#45;&gt;Node5 -->
<g id="edge4_Node000001_Node000005" class="edge">
<title>Node1&#45;&gt;Node5</title>
<g id="a_edge4_Node000001_Node000005"><a xlink:title=" ">
<path fill="none" stroke="orange" stroke-dasharray="5,2" d="M314.02,-24.31C317.29,-23.72 320.55,-23.2 323.75,-22.75 367.13,-16.7 415.53,-14.99 456.77,-15.03"/>
<polygon fill="orange" stroke="orange" points="313.45,-20.86 304.33,-26.24 314.82,-27.72 313.45,-20.86"/>
</a>
</g>
<text text-anchor="start" x="323.75" y="-41.25" font-family="FreeSans" font-size="10.00" fill="grey"> &lt; DGtal::SpaceND, DGtal</text>
<text text-anchor="middle" x="381.5" y="-27" font-family="FreeSans" font-size="10.00" fill="grey">::KhalimskySpaceND &gt;</text>
</g>
<!-- Node2 -->
<g id="Node000002" class="node">
<title>Node2</title>
<g id="a_Node000002"><a xlink:title=" ">
<polygon fill="white" stroke="#666666" points="100.38,-80.38 32.62,-80.38 32.62,-58.12 100.38,-58.12 100.38,-80.38"/>
<text text-anchor="middle" x="66.5" y="-66.88" font-family="FreeSans" font-size="10.00">QGLViewer</text>
</a>
</g>
</g>
<!-- Node2&#45;&gt;Node1 -->
<g id="edge1_Node000001_Node000002" class="edge">
<title>Node2&#45;&gt;Node1</title>
<g id="a_edge1_Node000001_Node000002"><a xlink:title=" ">
<path fill="none" stroke="#63b8ff" d="M111.79,-62.96C129.13,-60.49 149.4,-57.61 168.51,-54.9"/>
<polygon fill="#63b8ff" stroke="#63b8ff" points="111.77,-59.42 102.36,-64.3 112.76,-66.35 111.77,-59.42"/>
</a>
</g>
</g>
<!-- Node3 -->
<g id="Node000003" class="node">
<title>Node3</title>
<g id="a_Node000003"><a xlink:href="classDGtal_1_1Display3D.html" target="_top" xlink:title="Aim: This semi abstract class defines the stream mechanism to display 3d primitive (like BallVector,...">
<polygon fill="white" stroke="#666666" points="133,-40.5 0,-40.5 0,-4 133,-4 133,-40.5"/>
<text text-anchor="start" x="8" y="-27" font-family="FreeSans" font-size="10.00">DGtal::Display3D&lt; Space,</text>
<text text-anchor="middle" x="66.5" y="-12.75" font-family="FreeSans" font-size="10.00"> KSpace &gt;</text>
</a>
</g>
</g>
<!-- Node3&#45;&gt;Node1 -->
<g id="edge2_Node000001_Node000003" class="edge">
<title>Node3&#45;&gt;Node1</title>
<g id="a_edge2_Node000001_Node000003"><a xlink:title=" ">
<path fill="none" stroke="#63b8ff" d="M144.52,-32.74C152.54,-33.83 160.65,-34.94 168.55,-36.01"/>
<polygon fill="#63b8ff" stroke="#63b8ff" points="145.16,-29.29 134.77,-31.41 144.21,-36.23 145.16,-29.29"/>
</a>
</g>
</g>
</g>
</svg>
