<?xml version="1.0" encoding="UTF-8" standalone="no"?>
<!DOCTYPE svg PUBLIC "-//W3C//DTD SVG 1.1//EN"
 "http://www.w3.org/Graphics/SVG/1.1/DTD/svg11.dtd">
<!-- Generated by graphviz version 11.0.0 (0)
 -->
<!-- Title: DGtal::KhalimskySpaceNDHelper&lt; TKhalimskySpace &gt; Pages: 1 -->
<svg width="1127pt" height="110pt"
 viewBox="0.00 0.00 1126.75 109.75" xmlns="http://www.w3.org/2000/svg" xmlns:xlink="http://www.w3.org/1999/xlink">
<g id="graph0" class="graph" transform="scale(1 1) rotate(0) translate(4 105.75)">
<title>DGtal::KhalimskySpaceNDHelper&lt; TKhalimskySpace &gt;</title>
<!-- Node1 -->
<g id="Node000001" class="node">
<title>Node1</title>
<g id="a_Node000001"><a xlink:title="Internal class of KhalimskySpaceND that provides some optimizations depending on the space type.">
<polygon fill="#999999" stroke="#666666" points="168.25,-67.62 0,-67.62 0,-31.12 168.25,-31.12 168.25,-67.62"/>
<text text-anchor="start" x="8" y="-54.12" font-family="FreeSans" font-size="10.00">DGtal::KhalimskySpaceNDHelper</text>
<text text-anchor="middle" x="84.12" y="-39.88" font-family="FreeSans" font-size="10.00">&lt; TKhalimskySpace &gt;</text>
</a>
</g>
</g>
<!-- Node2 -->
<g id="Node000002" class="node">
<title>Node2</title>
<g id="a_Node000002"><a xlink:href="classDGtal_1_1KhalimskySpaceNDHelper.html" target="_top" xlink:title=" ">
<polygon fill="white" stroke="#666666" points="484.25,-101.75 316,-101.75 316,-51 484.25,-51 484.25,-101.75"/>
<text text-anchor="start" x="324" y="-88.25" font-family="FreeSans" font-size="10.00">DGtal::KhalimskySpaceNDHelper</text>
<text text-anchor="start" x="324" y="-74" font-family="FreeSans" font-size="10.00">&lt; KhalimskySpaceND&lt; dim,</text>
<text text-anchor="middle" x="400.12" y="-59.75" font-family="FreeSans" font-size="10.00"> TInteger &gt; &gt;</text>
</a>
</g>
</g>
<!-- Node1&#45;&gt;Node2 -->
<g id="edge1_Node000001_Node000002" class="edge">
<title>Node1&#45;&gt;Node2</title>
<g id="a_edge1_Node000001_Node000002"><a xlink:title=" ">
<path fill="none" stroke="orange" stroke-dasharray="5,2" d="M179.85,-57.52C223.11,-61.24 273.89,-65.61 315.69,-69.2"/>
<polygon fill="orange" stroke="orange" points="180.22,-54.04 169.95,-56.67 179.62,-61.01 180.22,-54.04"/>
</a>
</g>
<text text-anchor="start" x="193" y="-86.38" font-family="FreeSans" font-size="10.00" fill="grey"> &lt; KhalimskySpaceND</text>
<text text-anchor="middle" x="242.12" y="-72.12" font-family="FreeSans" font-size="10.00" fill="grey">&lt; dim, TInteger &gt; &gt;</text>
</g>
<!-- Node5 -->
<g id="Node000005" class="node">
<title>Node5</title>
<g id="a_Node000005"><a xlink:href="classDGtal_1_1KhalimskySpaceNDHelper.html" target="_top" xlink:title=" ">
<polygon fill="white" stroke="#666666" points="670.5,-50.75 502.25,-50.75 502.25,0 670.5,0 670.5,-50.75"/>
<text text-anchor="start" x="510.25" y="-37.25" font-family="FreeSans" font-size="10.00">DGtal::KhalimskySpaceNDHelper</text>
<text text-anchor="start" x="510.25" y="-23" font-family="FreeSans" font-size="10.00">&lt; KhalimskySpaceND&lt; dim,</text>
<text text-anchor="middle" x="586.38" y="-8.75" font-family="FreeSans" font-size="10.00"> DGtal::int32_t &gt; &gt;</text>
</a>
</g>
</g>
<!-- Node1&#45;&gt;Node5 -->
<g id="edge4_Node000001_Node000005" class="edge">
<title>Node1&#45;&gt;Node5</title>
<g id="a_edge4_Node000001_Node000005"><a xlink:title=" ">
<path fill="none" stroke="orange" stroke-dasharray="5,2" d="M163.75,-28.42C171.31,-26.98 178.9,-25.75 186.25,-24.88 294.79,-11.91 421.12,-15.12 502.09,-19.48"/>
<polygon fill="orange" stroke="orange" points="163.3,-24.93 154.2,-30.36 164.7,-31.79 163.3,-24.93"/>
</a>
</g>
<text text-anchor="start" x="186.25" y="-43.38" font-family="FreeSans" font-size="10.00" fill="grey"> &lt; KhalimskySpaceND</text>
<text text-anchor="middle" x="242.12" y="-29.12" font-family="FreeSans" font-size="10.00" fill="grey">&lt; dim, DGtal::int32_t &gt; &gt;</text>
</g>
<!-- Node3 -->
<g id="Node000003" class="node">
<title>Node3</title>
<g id="a_Node000003"><a xlink:href="classDGtal_1_1KhalimskySpaceND.html" target="_top" xlink:title="Aim: This class is a model of CCellularGridSpaceND. It represents the cubical grid as a cell complex,...">
<polygon fill="white" stroke="#666666" points="824.5,-88.62 688.5,-88.62 688.5,-52.12 824.5,-52.12 824.5,-88.62"/>
<text text-anchor="start" x="696.5" y="-75.12" font-family="FreeSans" font-size="10.00">DGtal::KhalimskySpaceND</text>
<text text-anchor="middle" x="756.5" y="-60.88" font-family="FreeSans" font-size="10.00">&lt; dim, TInteger &gt;</text>
</a>
</g>
</g>
<!-- Node2&#45;&gt;Node3 -->
<g id="edge2_Node000002_Node000003" class="edge">
<title>Node2&#45;&gt;Node3</title>
<g id="a_edge2_Node000002_Node000003"><a xlink:title=" ">
<path fill="none" stroke="#8b1a1a" d="M496.17,-74.77C556.8,-73.74 633.91,-72.43 688.23,-71.51"/>
<polygon fill="#8b1a1a" stroke="#8b1a1a" points="496.11,-71.27 486.17,-74.94 496.23,-78.27 496.11,-71.27"/>
</a>
</g>
</g>
<!-- Node4 -->
<g id="Node000004" class="node">
<title>Node4</title>
<g id="a_Node000004"><a xlink:href="classDGtal_1_1KhalimskySpaceND.html" target="_top" xlink:title=" ">
<polygon fill="white" stroke="#666666" points="1118.75,-65.62 959.5,-65.62 959.5,-29.12 1118.75,-29.12 1118.75,-65.62"/>
<text text-anchor="start" x="967.5" y="-52.12" font-family="FreeSans" font-size="10.00">DGtal::KhalimskySpaceND</text>
<text text-anchor="middle" x="1039.12" y="-37.88" font-family="FreeSans" font-size="10.00">&lt; dimAmbient, DGtal::int32_t &gt;</text>
</a>
</g>
</g>
<!-- Node3&#45;&gt;Node4 -->
<g id="edge3_Node000003_Node000004" class="edge">
<title>Node3&#45;&gt;Node4</title>
<g id="a_edge3_Node000003_Node000004"><a xlink:title=" ">
<path fill="none" stroke="orange" stroke-dasharray="5,2" d="M835.86,-63.95C874.29,-60.8 920.47,-57.02 959.01,-53.86"/>
<polygon fill="orange" stroke="orange" points="835.91,-60.44 826.23,-64.74 836.48,-67.41 835.91,-60.44"/>
</a>
</g>
<text text-anchor="start" x="842.5" y="-81.38" font-family="FreeSans" font-size="10.00" fill="grey"> &lt; dimAmbient, DGtal</text>
<text text-anchor="middle" x="892" y="-67.12" font-family="FreeSans" font-size="10.00" fill="grey">::int32_t &gt;</text>
</g>
<!-- Node5&#45;&gt;Node4 -->
<g id="edge5_Node000005_Node000004" class="edge">
<title>Node5&#45;&gt;Node4</title>
<g id="a_edge5_Node000005_Node000004"><a xlink:title=" ">
<path fill="none" stroke="#8b1a1a" d="M682.2,-30C764.45,-34.02 882.1,-39.76 959.28,-43.53"/>
<polygon fill="#8b1a1a" stroke="#8b1a1a" points="682.51,-26.51 672.35,-29.52 682.17,-33.51 682.51,-26.51"/>
</a>
</g>
</g>
</g>
</svg>
