<?xml version="1.0" encoding="UTF-8" standalone="no"?>
<!DOCTYPE svg PUBLIC "-//W3C//DTD SVG 1.1//EN"
 "http://www.w3.org/Graphics/SVG/1.1/DTD/svg11.dtd">
<!-- Generated by graphviz version 11.0.0 (0)
 -->
<!-- Title: DGtal::StarShaped2D&lt; TSpace &gt; Pages: 1 -->
<svg width="568pt" height="353pt"
 viewBox="0.00 0.00 568.25 352.50" xmlns="http://www.w3.org/2000/svg" xmlns:xlink="http://www.w3.org/1999/xlink">
<g id="graph0" class="graph" transform="scale(1 1) rotate(0) translate(4 348.5)">
<title>DGtal::StarShaped2D&lt; TSpace &gt;</title>
<!-- Node1 -->
<g id="Node000001" class="node">
<title>Node1</title>
<g id="a_Node000001"><a xlink:title=" ">
<polygon fill="#999999" stroke="#666666" points="115,-197.5 0,-197.5 0,-161 115,-161 115,-197.5"/>
<text text-anchor="start" x="8" y="-184" font-family="FreeSans" font-size="10.00">DGtal::StarShaped2D</text>
<text text-anchor="middle" x="57.5" y="-169.75" font-family="FreeSans" font-size="10.00">&lt; TSpace &gt;</text>
</a>
</g>
</g>
<!-- Node2 -->
<g id="Node000002" class="node">
<title>Node2</title>
<g id="a_Node000002"><a xlink:href="classDGtal_1_1AccFlower2D.html" target="_top" xlink:title="Aim: Model of the concept StarShaped represents any accelerated flower in the plane.">
<polygon fill="white" stroke="#666666" points="323,-344.5 214,-344.5 214,-308 323,-308 323,-344.5"/>
<text text-anchor="start" x="222" y="-331" font-family="FreeSans" font-size="10.00">DGtal::AccFlower2D</text>
<text text-anchor="middle" x="268.5" y="-316.75" font-family="FreeSans" font-size="10.00">&lt; TSpace &gt;</text>
</a>
</g>
</g>
<!-- Node1&#45;&gt;Node2 -->
<g id="edge1_Node000001_Node000002" class="edge">
<title>Node1&#45;&gt;Node2</title>
<g id="a_edge1_Node000001_Node000002"><a xlink:title=" ">
<path fill="none" stroke="#63b8ff" d="M82.15,-205.9C107.79,-233.2 151.19,-274.97 196.75,-299.25 202.32,-302.22 208.29,-305.02 214.31,-307.62"/>
<polygon fill="#63b8ff" stroke="#63b8ff" points="84.85,-203.67 75.5,-198.7 79.71,-208.42 84.85,-203.67"/>
</a>
</g>
</g>
<!-- Node3 -->
<g id="Node000003" class="node">
<title>Node3</title>
<g id="a_Node000003"><a xlink:href="classDGtal_1_1Astroid2D.html" target="_top" xlink:title="Aim: Model of the concept StarShaped represents an astroid.">
<polygon fill="white" stroke="#666666" points="340.25,-290.38 196.75,-290.38 196.75,-268.12 340.25,-268.12 340.25,-290.38"/>
<text text-anchor="middle" x="268.5" y="-276.88" font-family="FreeSans" font-size="10.00">DGtal::Astroid2D&lt; TSpace &gt;</text>
</a>
</g>
</g>
<!-- Node1&#45;&gt;Node3 -->
<g id="edge2_Node000001_Node000003" class="edge">
<title>Node1&#45;&gt;Node3</title>
<g id="a_edge2_Node000001_Node000003"><a xlink:title=" ">
<path fill="none" stroke="#63b8ff" d="M95.49,-204.06C122.61,-221.39 160.81,-244.05 196.75,-259.25 204.16,-262.38 212.2,-265.18 220.12,-267.63"/>
<polygon fill="#63b8ff" stroke="#63b8ff" points="97.6,-201.26 87.3,-198.76 93.8,-207.13 97.6,-201.26"/>
</a>
</g>
</g>
<!-- Node5 -->
<g id="Node000005" class="node">
<title>Node5</title>
<g id="a_Node000005"><a xlink:href="classDGtal_1_1Ball2D.html" target="_top" xlink:title="Aim: Model of the concept StarShaped represents any circle in the plane.">
<polygon fill="white" stroke="#666666" points="332,-250.38 205,-250.38 205,-228.12 332,-228.12 332,-250.38"/>
<text text-anchor="middle" x="268.5" y="-236.88" font-family="FreeSans" font-size="10.00">DGtal::Ball2D&lt; TSpace &gt;</text>
</a>
</g>
</g>
<!-- Node1&#45;&gt;Node5 -->
<g id="edge4_Node000001_Node000005" class="edge">
<title>Node1&#45;&gt;Node5</title>
<g id="a_edge4_Node000001_Node000005"><a xlink:title=" ">
<path fill="none" stroke="#63b8ff" d="M126.11,-198.9C148.58,-205.41 173.73,-212.67 196.75,-219.25 206.32,-221.99 216.63,-224.91 226.34,-227.66"/>
<polygon fill="#63b8ff" stroke="#63b8ff" points="127.35,-195.62 116.77,-196.19 125.4,-202.34 127.35,-195.62"/>
</a>
</g>
</g>
<!-- Node6 -->
<g id="Node000006" class="node">
<title>Node6</title>
<g id="a_Node000006"><a xlink:href="classDGtal_1_1Ellipse2D.html" target="_top" xlink:title="Aim: Model of the concept StarShaped represents any ellipse in the plane.">
<polygon fill="white" stroke="#666666" points="338,-210.38 199,-210.38 199,-188.12 338,-188.12 338,-210.38"/>
<text text-anchor="middle" x="268.5" y="-196.88" font-family="FreeSans" font-size="10.00">DGtal::Ellipse2D&lt; TSpace &gt;</text>
</a>
</g>
</g>
<!-- Node1&#45;&gt;Node6 -->
<g id="edge5_Node000001_Node000006" class="edge">
<title>Node1&#45;&gt;Node6</title>
<g id="a_edge5_Node000001_Node000006"><a xlink:title=" ">
<path fill="none" stroke="#63b8ff" d="M126.78,-185.78C149.87,-187.99 175.65,-190.46 198.77,-192.67"/>
<polygon fill="#63b8ff" stroke="#63b8ff" points="127.13,-182.3 116.84,-184.83 126.46,-189.27 127.13,-182.3"/>
</a>
</g>
</g>
<!-- Node7 -->
<g id="Node000007" class="node">
<title>Node7</title>
<g id="a_Node000007"><a xlink:href="classDGtal_1_1Flower2D.html" target="_top" xlink:title="Aim: Model of the concept StarShaped represents any flower with k&#45;petals in the plane.">
<polygon fill="white" stroke="#666666" points="339.5,-170.38 197.5,-170.38 197.5,-148.12 339.5,-148.12 339.5,-170.38"/>
<text text-anchor="middle" x="268.5" y="-156.88" font-family="FreeSans" font-size="10.00">DGtal::Flower2D&lt; TSpace &gt;</text>
</a>
</g>
</g>
<!-- Node1&#45;&gt;Node7 -->
<g id="edge6_Node000001_Node000007" class="edge">
<title>Node1&#45;&gt;Node7</title>
<g id="a_edge6_Node000001_Node000007"><a xlink:title=" ">
<path fill="none" stroke="#63b8ff" d="M126.56,-172.74C149.2,-170.57 174.44,-168.15 197.24,-165.97"/>
<polygon fill="#63b8ff" stroke="#63b8ff" points="126.46,-169.23 116.84,-173.67 127.13,-176.2 126.46,-169.23"/>
</a>
</g>
</g>
<!-- Node8 -->
<g id="Node000008" class="node">
<title>Node8</title>
<g id="a_Node000008"><a xlink:href="classDGtal_1_1Lemniscate2D.html" target="_top" xlink:title="Aim: Model of the concept StarShaped represents a lemniscate.">
<polygon fill="white" stroke="#666666" points="325.62,-130.5 211.38,-130.5 211.38,-94 325.62,-94 325.62,-130.5"/>
<text text-anchor="start" x="219.38" y="-117" font-family="FreeSans" font-size="10.00">DGtal::Lemniscate2D</text>
<text text-anchor="middle" x="268.5" y="-102.75" font-family="FreeSans" font-size="10.00">&lt; TSpace &gt;</text>
</a>
</g>
</g>
<!-- Node1&#45;&gt;Node8 -->
<g id="edge7_Node000001_Node000008" class="edge">
<title>Node1&#45;&gt;Node8</title>
<g id="a_edge7_Node000001_Node000008"><a xlink:title=" ">
<path fill="none" stroke="#63b8ff" d="M126.04,-157.6C153.48,-148.8 184.84,-138.75 211.04,-130.35"/>
<polygon fill="#63b8ff" stroke="#63b8ff" points="125.23,-154.18 116.78,-160.57 127.37,-160.85 125.23,-154.18"/>
</a>
</g>
</g>
<!-- Node9 -->
<g id="Node000009" class="node">
<title>Node9</title>
<g id="a_Node000009"><a xlink:href="classDGtal_1_1NGon2D.html" target="_top" xlink:title="Aim: Model of the concept StarShaped represents any regular k&#45;gon in the plane.">
<polygon fill="white" stroke="#666666" points="337.25,-76.38 199.75,-76.38 199.75,-54.12 337.25,-54.12 337.25,-76.38"/>
<text text-anchor="middle" x="268.5" y="-62.88" font-family="FreeSans" font-size="10.00">DGtal::NGon2D&lt; TSpace &gt;</text>
</a>
</g>
</g>
<!-- Node1&#45;&gt;Node9 -->
<g id="edge8_Node000001_Node000009" class="edge">
<title>Node1&#45;&gt;Node9</title>
<g id="a_edge8_Node000001_Node000009"><a xlink:title=" ">
<path fill="none" stroke="#63b8ff" d="M89.53,-153.83C116.46,-132.87 157.22,-103.68 196.75,-85.25 203.69,-82.01 211.26,-79.2 218.79,-76.78"/>
<polygon fill="#63b8ff" stroke="#63b8ff" points="87.48,-150.99 81.8,-159.93 91.82,-156.48 87.48,-150.99"/>
</a>
</g>
</g>
<!-- Node10 -->
<g id="Node000010" class="node">
<title>Node10</title>
<g id="a_Node000010"><a xlink:href="classDGtal_1_1StarShaped2D.html" target="_top" xlink:title=" ">
<polygon fill="white" stroke="#666666" points="326,-36.5 211,-36.5 211,0 326,0 326,-36.5"/>
<text text-anchor="start" x="219" y="-23" font-family="FreeSans" font-size="10.00">DGtal::StarShaped2D</text>
<text text-anchor="middle" x="268.5" y="-8.75" font-family="FreeSans" font-size="10.00">&lt; Space &gt;</text>
</a>
</g>
</g>
<!-- Node1&#45;&gt;Node10 -->
<g id="edge9_Node000001_Node000010" class="edge">
<title>Node1&#45;&gt;Node10</title>
<g id="a_edge9_Node000001_Node000010"><a xlink:title=" ">
<path fill="none" stroke="orange" stroke-dasharray="5,2" d="M74.17,-150.65C87.5,-128.36 108.38,-97.81 133,-77 155.48,-58 185.05,-44.19 210.74,-34.75"/>
<polygon fill="orange" stroke="orange" points="71.18,-148.83 69.18,-159.24 77.23,-152.35 71.18,-148.83"/>
</a>
</g>
<text text-anchor="middle" x="155.88" y="-81" font-family="FreeSans" font-size="10.00" fill="grey"> &lt; Space &gt;</text>
</g>
<!-- Node4 -->
<g id="Node000004" class="node">
<title>Node4</title>
<g id="a_Node000004"><a xlink:href="classDGtal_1_1Astroid2D.html" target="_top" xlink:title=" ">
<polygon fill="white" stroke="#666666" points="560.25,-159.38 422,-159.38 422,-137.12 560.25,-137.12 560.25,-159.38"/>
<text text-anchor="middle" x="491.12" y="-145.88" font-family="FreeSans" font-size="10.00">DGtal::Astroid2D&lt; Space &gt;</text>
</a>
</g>
</g>
<!-- Node3&#45;&gt;Node4 -->
<g id="edge3_Node000003_Node000004" class="edge">
<title>Node3&#45;&gt;Node4</title>
<g id="a_edge3_Node000003_Node000004"><a xlink:title=" ">
<path fill="none" stroke="orange" stroke-dasharray="5,2" d="M329.89,-263.81C333.45,-262.4 336.93,-260.88 340.25,-259.25 396.63,-231.56 453.63,-182.09 477.93,-159.76"/>
<polygon fill="orange" stroke="orange" points="328.71,-260.52 320.5,-267.21 331.09,-267.1 328.71,-260.52"/>
</a>
</g>
<text text-anchor="middle" x="381.12" y="-252" font-family="FreeSans" font-size="10.00" fill="grey"> &lt; Space &gt;</text>
</g>
<!-- Node10&#45;&gt;Node4 -->
<g id="edge10_Node000010_Node000004" class="edge">
<title>Node10&#45;&gt;Node4</title>
<g id="a_edge10_Node000010_Node000004"><a xlink:title=" ">
<path fill="none" stroke="#63b8ff" d="M332.99,-41.62C335.47,-42.8 337.89,-44.01 340.25,-45.25 393.37,-73.13 450.2,-116.36 475.97,-136.8"/>
<polygon fill="#63b8ff" stroke="#63b8ff" points="334.59,-38.5 324.03,-37.57 331.71,-44.88 334.59,-38.5"/>
</a>
</g>
</g>
</g>
</svg>
