<?xml version="1.0" encoding="UTF-8" standalone="no"?>
<!DOCTYPE svg PUBLIC "-//W3C//DTD SVG 1.1//EN"
 "http://www.w3.org/Graphics/SVG/1.1/DTD/svg11.dtd">
<!-- Generated by graphviz version 11.0.0 (0)
 -->
<!-- Title: DGtal::NaiveDSL&lt; TCoordinate, TInteger &gt; Pages: 1 -->
<svg width="237pt" height="218pt"
 viewBox="0.00 0.00 236.50 218.00" xmlns="http://www.w3.org/2000/svg" xmlns:xlink="http://www.w3.org/1999/xlink">
<g id="graph0" class="graph" transform="scale(1 1) rotate(0) translate(4 214)">
<title>DGtal::NaiveDSL&lt; TCoordinate, TInteger &gt;</title>
<!-- Node1 -->
<g id="Node000001" class="node">
<title>Node1</title>
<g id="a_Node000001"><a xlink:title="Aim: This class is an alias of ArithmeticalDSS for naive DSL. It represents a naive digital straight ...">
<polygon fill="#999999" stroke="#666666" points="160.75,-36.5 0.75,-36.5 0.75,0 160.75,0 160.75,-36.5"/>
<text text-anchor="start" x="8.75" y="-23" font-family="FreeSans" font-size="10.00">DGtal::NaiveDSL&lt; TCoordinate,</text>
<text text-anchor="middle" x="80.75" y="-8.75" font-family="FreeSans" font-size="10.00"> TInteger &gt;</text>
</a>
</g>
</g>
<!-- Node2 -->
<g id="Node000002" class="node">
<title>Node2</title>
<g id="a_Node000002"><a xlink:href="classDGtal_1_1ArithmeticalDSL.html" target="_top" xlink:title=" ">
<polygon fill="white" stroke="#666666" points="161.5,-109 0,-109 0,-72.5 161.5,-72.5 161.5,-109"/>
<text text-anchor="start" x="8" y="-95.5" font-family="FreeSans" font-size="10.00">DGtal::ArithmeticalDSL</text>
<text text-anchor="middle" x="80.75" y="-81.25" font-family="FreeSans" font-size="10.00">&lt; TCoordinate, TCoordinate, 8 &gt;</text>
</a>
</g>
</g>
<!-- Node2&#45;&gt;Node1 -->
<g id="edge1_Node000001_Node000002" class="edge">
<title>Node2&#45;&gt;Node1</title>
<g id="a_edge1_Node000001_Node000002"><a xlink:title=" ">
<path fill="none" stroke="#63b8ff" d="M80.75,-60.97C80.75,-52.84 80.75,-44.23 80.75,-36.97"/>
<polygon fill="#63b8ff" stroke="#63b8ff" points="77.25,-60.81 80.75,-70.81 84.25,-60.81 77.25,-60.81"/>
</a>
</g>
</g>
<!-- Node3 -->
<g id="Node000003" class="node">
<title>Node3</title>
<g id="a_Node000003"><a xlink:href="classDGtal_1_1ArithmeticalDSL.html" target="_top" xlink:title="Aim: This class represents a naive (resp. standard) digital straight line (DSL), ie....">
<polygon fill="white" stroke="#666666" points="144.62,-210 16.88,-210 16.88,-159.25 144.62,-159.25 144.62,-210"/>
<text text-anchor="start" x="24.88" y="-196.5" font-family="FreeSans" font-size="10.00">DGtal::ArithmeticalDSL</text>
<text text-anchor="start" x="24.88" y="-182.25" font-family="FreeSans" font-size="10.00">&lt; TCoordinate, TInteger,</text>
<text text-anchor="middle" x="80.75" y="-168" font-family="FreeSans" font-size="10.00"> adjacency &gt;</text>
</a>
</g>
</g>
<!-- Node3&#45;&gt;Node2 -->
<g id="edge2_Node000002_Node000003" class="edge">
<title>Node3&#45;&gt;Node2</title>
<g id="a_edge2_Node000002_Node000003"><a xlink:title=" ">
<path fill="none" stroke="orange" stroke-dasharray="5,2" d="M80.75,-147.85C80.75,-134.68 80.75,-120.33 80.75,-109.45"/>
<polygon fill="orange" stroke="orange" points="77.25,-147.49 80.75,-157.49 84.25,-147.49 77.25,-147.49"/>
</a>
</g>
<text text-anchor="middle" x="154.62" y="-131.75" font-family="FreeSans" font-size="10.00" fill="grey"> &lt; TCoordinate, TCoordinate, 8 &gt;</text>
</g>
</g>
</svg>
