<?xml version="1.0" encoding="UTF-8" standalone="no"?>
<!DOCTYPE svg PUBLIC "-//W3C//DTD SVG 1.1//EN"
 "http://www.w3.org/Graphics/SVG/1.1/DTD/svg11.dtd">
<!-- Generated by graphviz version 11.0.0 (0)
 -->
<!-- Title: DGtal::SimpleMatrix&lt; TComponent, TM, TN &gt; Pages: 1 -->
<svg width="471pt" height="194pt"
 viewBox="0.00 0.00 471.25 193.50" xmlns="http://www.w3.org/2000/svg" xmlns:xlink="http://www.w3.org/1999/xlink">
<g id="graph0" class="graph" transform="scale(1 1) rotate(0) translate(4 189.5)">
<title>DGtal::SimpleMatrix&lt; TComponent, TM, TN &gt;</title>
<!-- Node1 -->
<g id="Node000001" class="node">
<title>Node1</title>
<g id="a_Node000001"><a xlink:title="Aim: implements basic MxN Matrix services (M,N&gt;=1).">
<polygon fill="#999999" stroke="#666666" points="130,-105.5 0,-105.5 0,-69 130,-69 130,-105.5"/>
<text text-anchor="start" x="8" y="-92" font-family="FreeSans" font-size="10.00">DGtal::SimpleMatrix</text>
<text text-anchor="middle" x="65" y="-77.75" font-family="FreeSans" font-size="10.00">&lt; TComponent, TM, TN &gt;</text>
</a>
</g>
</g>
<!-- Node2 -->
<g id="Node000002" class="node">
<title>Node2</title>
<g id="a_Node000002"><a xlink:href="classDGtal_1_1SimpleMatrix.html" target="_top" xlink:title=" ">
<polygon fill="white" stroke="#666666" points="432.12,-185.5 323.12,-185.5 323.12,-149 432.12,-149 432.12,-185.5"/>
<text text-anchor="start" x="331.12" y="-172" font-family="FreeSans" font-size="10.00">DGtal::SimpleMatrix</text>
<text text-anchor="middle" x="377.62" y="-157.75" font-family="FreeSans" font-size="10.00">&lt; Integer, 3, 3 &gt;</text>
</a>
</g>
</g>
<!-- Node1&#45;&gt;Node2 -->
<g id="edge1_Node000001_Node000002" class="edge">
<title>Node1&#45;&gt;Node2</title>
<g id="a_edge1_Node000001_Node000002"><a xlink:title=" ">
<path fill="none" stroke="orange" stroke-dasharray="5,2" d="M94.51,-113.02C109.38,-124.93 128.51,-138.01 148,-145.25 205,-166.43 275.22,-170.18 322.68,-169.76"/>
<polygon fill="orange" stroke="orange" points="96.93,-110.48 87,-106.79 92.46,-115.87 96.93,-110.48"/>
</a>
</g>
<text text-anchor="middle" x="211" y="-173" font-family="FreeSans" font-size="10.00" fill="grey"> &lt; Integer, 3, 3 &gt;</text>
</g>
<!-- Node3 -->
<g id="Node000003" class="node">
<title>Node3</title>
<g id="a_Node000003"><a xlink:href="classDGtal_1_1SimpleMatrix.html" target="_top" xlink:title=" ">
<polygon fill="white" stroke="#666666" points="463.25,-119.75 292,-119.75 292,-54.75 463.25,-54.75 463.25,-119.75"/>
<text text-anchor="start" x="300" y="-106.25" font-family="FreeSans" font-size="10.00">DGtal::SimpleMatrix</text>
<text text-anchor="start" x="300" y="-92" font-family="FreeSans" font-size="10.00">&lt; typename TSpace::RealVector</text>
<text text-anchor="start" x="300" y="-77.75" font-family="FreeSans" font-size="10.00">::Component, TSpace::dimension,</text>
<text text-anchor="middle" x="377.62" y="-63.5" font-family="FreeSans" font-size="10.00"> TSpace::dimension &gt;</text>
</a>
</g>
</g>
<!-- Node1&#45;&gt;Node3 -->
<g id="edge2_Node000001_Node000003" class="edge">
<title>Node1&#45;&gt;Node3</title>
<g id="a_edge2_Node000001_Node000003"><a xlink:title=" ">
<path fill="none" stroke="orange" stroke-dasharray="5,2" d="M141.61,-87.25C186.97,-87.25 244.78,-87.25 291.7,-87.25"/>
<polygon fill="orange" stroke="orange" points="141.88,-83.75 131.88,-87.25 141.88,-90.75 141.88,-83.75"/>
</a>
</g>
<text text-anchor="start" x="148" y="-134.75" font-family="FreeSans" font-size="10.00" fill="grey"> &lt; typename TSpace::</text>
<text text-anchor="start" x="148" y="-120.5" font-family="FreeSans" font-size="10.00" fill="grey">RealVector::Component,</text>
<text text-anchor="start" x="148" y="-106.25" font-family="FreeSans" font-size="10.00" fill="grey"> TSpace::dimension, TSpace</text>
<text text-anchor="middle" x="211" y="-92" font-family="FreeSans" font-size="10.00" fill="grey">::dimension &gt;</text>
</g>
<!-- Node4 -->
<g id="Node000004" class="node">
<title>Node4</title>
<g id="a_Node000004"><a xlink:href="classDGtal_1_1SimpleMatrix.html" target="_top" xlink:title=" ">
<polygon fill="white" stroke="#666666" points="432.12,-36.5 323.12,-36.5 323.12,0 432.12,0 432.12,-36.5"/>
<text text-anchor="start" x="331.12" y="-23" font-family="FreeSans" font-size="10.00">DGtal::SimpleMatrix</text>
<text text-anchor="middle" x="377.62" y="-8.75" font-family="FreeSans" font-size="10.00">&lt; double, 3, 3 &gt;</text>
</a>
</g>
</g>
<!-- Node1&#45;&gt;Node4 -->
<g id="edge3_Node000001_Node000004" class="edge">
<title>Node1&#45;&gt;Node4</title>
<g id="a_edge3_Node000001_Node000004"><a xlink:title=" ">
<path fill="none" stroke="orange" stroke-dasharray="5,2" d="M141.51,-70.44C143.7,-69.96 145.86,-69.47 148,-69 207.93,-55.68 276.7,-40.42 323.04,-30.14"/>
<polygon fill="orange" stroke="orange" points="140.94,-66.98 131.93,-72.57 142.46,-73.82 140.94,-66.98"/>
</a>
</g>
<text text-anchor="middle" x="211" y="-73" font-family="FreeSans" font-size="10.00" fill="grey"> &lt; double, 3, 3 &gt;</text>
</g>
</g>
</svg>
