<?xml version="1.0" encoding="UTF-8" standalone="no"?>
<!DOCTYPE svg PUBLIC "-//W3C//DTD SVG 1.1//EN"
 "http://www.w3.org/Graphics/SVG/1.1/DTD/svg11.dtd">
<!-- Generated by graphviz version 11.0.0 (0)
 -->
<!-- Title: DGtal::ImageContainerBySTLVector&lt; TDomain, TValue &gt; Pages: 1 -->
<svg width="637pt" height="100pt"
 viewBox="0.00 0.00 636.50 99.50" xmlns="http://www.w3.org/2000/svg" xmlns:xlink="http://www.w3.org/1999/xlink">
<g id="graph0" class="graph" transform="scale(1 1) rotate(0) translate(4 95.5)">
<title>DGtal::ImageContainerBySTLVector&lt; TDomain, TValue &gt;</title>
<!-- Node1 -->
<g id="Node000001" class="node">
<title>Node1</title>
<g id="a_Node000001"><a xlink:title=" ">
<polygon fill="#999999" stroke="#666666" points="306.5,-63.5 124,-63.5 124,-27 306.5,-27 306.5,-63.5"/>
<text text-anchor="start" x="132" y="-50" font-family="FreeSans" font-size="10.00">DGtal::ImageContainerBySTLVector</text>
<text text-anchor="middle" x="215.25" y="-35.75" font-family="FreeSans" font-size="10.00">&lt; TDomain, TValue &gt;</text>
</a>
</g>
</g>
<!-- Node3 -->
<g id="Node000003" class="node">
<title>Node3</title>
<g id="a_Node000003"><a xlink:href="classDGtal_1_1ImageContainerBySTLVector.html" target="_top" xlink:title=" ">
<polygon fill="white" stroke="#666666" points="628.5,-91.5 446,-91.5 446,-55 628.5,-55 628.5,-91.5"/>
<text text-anchor="start" x="454" y="-78" font-family="FreeSans" font-size="10.00">DGtal::ImageContainerBySTLVector</text>
<text text-anchor="middle" x="537.25" y="-63.75" font-family="FreeSans" font-size="10.00">&lt; Domain, Value &gt;</text>
</a>
</g>
</g>
<!-- Node1&#45;&gt;Node3 -->
<g id="edge2_Node000001_Node000003" class="edge">
<title>Node1&#45;&gt;Node3</title>
<g id="a_edge2_Node000001_Node000003"><a xlink:title=" ">
<path fill="none" stroke="orange" stroke-dasharray="5,2" d="M318.04,-54.16C358.96,-57.74 405.76,-61.83 445.5,-65.31"/>
<polygon fill="orange" stroke="orange" points="318.44,-50.68 308.17,-53.29 317.83,-57.65 318.44,-50.68"/>
</a>
</g>
<text text-anchor="middle" x="376.25" y="-68" font-family="FreeSans" font-size="10.00" fill="grey"> &lt; Domain, Value &gt;</text>
</g>
<!-- Node4 -->
<g id="Node000004" class="node">
<title>Node4</title>
<g id="a_Node000004"><a xlink:href="classDGtal_1_1ImageContainerBySTLVector.html" target="_top" xlink:title=" ">
<polygon fill="white" stroke="#666666" points="628.5,-36.5 446,-36.5 446,0 628.5,0 628.5,-36.5"/>
<text text-anchor="start" x="454" y="-23" font-family="FreeSans" font-size="10.00">DGtal::ImageContainerBySTLVector</text>
<text text-anchor="middle" x="537.25" y="-8.75" font-family="FreeSans" font-size="10.00">&lt; Domain, Storage * &gt;</text>
</a>
</g>
</g>
<!-- Node1&#45;&gt;Node4 -->
<g id="edge3_Node000001_Node000004" class="edge">
<title>Node1&#45;&gt;Node4</title>
<g id="a_edge3_Node000001_Node000004"><a xlink:title=" ">
<path fill="none" stroke="orange" stroke-dasharray="5,2" d="M318.04,-36.66C358.96,-33.21 405.76,-29.26 445.5,-25.91"/>
<polygon fill="orange" stroke="orange" points="317.84,-33.17 308.17,-37.49 318.43,-40.14 317.84,-33.17"/>
</a>
</g>
<text text-anchor="middle" x="376.25" y="-41" font-family="FreeSans" font-size="10.00" fill="grey"> &lt; Domain, Storage * &gt;</text>
</g>
<!-- Node2 -->
<g id="Node000002" class="node">
<title>Node2</title>
<g id="a_Node000002"><a xlink:title=" ">
<polygon fill="white" stroke="#666666" points="88,-56.38 0,-56.38 0,-34.12 88,-34.12 88,-56.38"/>
<text text-anchor="middle" x="44" y="-42.88" font-family="FreeSans" font-size="10.00">std::vector&lt; T &gt;</text>
</a>
</g>
</g>
<!-- Node2&#45;&gt;Node1 -->
<g id="edge1_Node000001_Node000002" class="edge">
<title>Node2&#45;&gt;Node1</title>
<g id="a_edge1_Node000001_Node000002"><a xlink:title=" ">
<path fill="none" stroke="#63b8ff" d="M99.58,-45.25C107.33,-45.25 115.48,-45.25 123.69,-45.25"/>
<polygon fill="#63b8ff" stroke="#63b8ff" points="99.66,-41.75 89.66,-45.25 99.66,-48.75 99.66,-41.75"/>
</a>
</g>
</g>
</g>
</svg>
