<?xml version="1.0" encoding="UTF-8" standalone="no"?>
<!DOCTYPE svg PUBLIC "-//W3C//DTD SVG 1.1//EN"
 "http://www.w3.org/Graphics/SVG/1.1/DTD/svg11.dtd">
<!-- Generated by graphviz version 11.0.0 (0)
 -->
<!-- Title: DGtal::CurvatureFromDSSLengthEstimator&lt; DSSComputer &gt; Pages: 1 -->
<svg width="681pt" height="73pt"
 viewBox="0.00 0.00 680.75 73.00" xmlns="http://www.w3.org/2000/svg" xmlns:xlink="http://www.w3.org/1999/xlink">
<g id="graph0" class="graph" transform="scale(1 1) rotate(0) translate(4 69)">
<title>DGtal::CurvatureFromDSSLengthEstimator&lt; DSSComputer &gt;</title>
<!-- Node1 -->
<g id="Node000001" class="node">
<title>Node1</title>
<g id="a_Node000001"><a xlink:title=" ">
<polygon fill="#999999" stroke="#666666" points="672.75,-50.75 503,-50.75 503,-14.25 672.75,-14.25 672.75,-50.75"/>
<text text-anchor="start" x="511" y="-37.25" font-family="FreeSans" font-size="10.00">DGtal::CurvatureFromDSSLength</text>
<text text-anchor="middle" x="587.88" y="-23" font-family="FreeSans" font-size="10.00">Estimator&lt; DSSComputer &gt;</text>
</a>
</g>
</g>
<!-- Node2 -->
<g id="Node000002" class="node">
<title>Node2</title>
<g id="a_Node000002"><a xlink:href="classDGtal_1_1detail_1_1CurvatureFromDSSBaseEstimator.html" target="_top" xlink:title=" ">
<polygon fill="white" stroke="#666666" points="467,-65 302.5,-65 302.5,0 467,0 467,-65"/>
<text text-anchor="start" x="310.5" y="-51.5" font-family="FreeSans" font-size="10.00">DGtal::detail::Curvature</text>
<text text-anchor="start" x="310.5" y="-37.25" font-family="FreeSans" font-size="10.00">FromDSSBaseEstimator&lt;</text>
<text text-anchor="start" x="310.5" y="-23" font-family="FreeSans" font-size="10.00"> DSSComputer, detail::Curvature</text>
<text text-anchor="middle" x="384.75" y="-8.75" font-family="FreeSans" font-size="10.00">FromDSSLength &gt;</text>
</a>
</g>
</g>
<!-- Node2&#45;&gt;Node1 -->
<g id="edge1_Node000001_Node000002" class="edge">
<title>Node2&#45;&gt;Node1</title>
<g id="a_edge1_Node000001_Node000002"><a xlink:title=" ">
<path fill="none" stroke="#63b8ff" d="M478.55,-32.5C486.58,-32.5 494.67,-32.5 502.62,-32.5"/>
<polygon fill="#63b8ff" stroke="#63b8ff" points="478.78,-29 468.78,-32.5 478.78,-36 478.78,-29"/>
</a>
</g>
</g>
<!-- Node3 -->
<g id="Node000003" class="node">
<title>Node3</title>
<g id="a_Node000003"><a xlink:href="classDGtal_1_1detail_1_1CurvatureFromDSSBaseEstimator.html" target="_top" xlink:title=" ">
<polygon fill="white" stroke="#666666" points="130.75,-57.88 0,-57.88 0,-7.12 130.75,-7.12 130.75,-57.88"/>
<text text-anchor="start" x="8" y="-44.38" font-family="FreeSans" font-size="10.00">DGtal::detail::Curvature</text>
<text text-anchor="start" x="8" y="-30.12" font-family="FreeSans" font-size="10.00">FromDSSBaseEstimator&lt;</text>
<text text-anchor="middle" x="65.38" y="-15.88" font-family="FreeSans" font-size="10.00"> DSSComputer, Functor &gt;</text>
</a>
</g>
</g>
<!-- Node3&#45;&gt;Node2 -->
<g id="edge2_Node000002_Node000003" class="edge">
<title>Node3&#45;&gt;Node2</title>
<g id="a_edge2_Node000002_Node000003"><a xlink:title=" ">
<path fill="none" stroke="orange" stroke-dasharray="5,2" d="M142.3,-32.5C190.56,-32.5 252.99,-32.5 302.28,-32.5"/>
<polygon fill="orange" stroke="orange" points="142.5,-29 132.5,-32.5 142.5,-36 142.5,-29"/>
</a>
</g>
<text text-anchor="start" x="148.75" y="-51.5" font-family="FreeSans" font-size="10.00" fill="grey"> &lt; DSSComputer, detail</text>
<text text-anchor="middle" x="216.62" y="-37.25" font-family="FreeSans" font-size="10.00" fill="grey">::CurvatureFromDSSLength &gt;</text>
</g>
</g>
</svg>
