<?xml version="1.0" encoding="UTF-8" standalone="no"?>
<!DOCTYPE svg PUBLIC "-//W3C//DTD SVG 1.1//EN"
 "http://www.w3.org/Graphics/SVG/1.1/DTD/svg11.dtd">
<!-- Generated by graphviz version 11.0.0 (0)
 -->
<!-- Title: DGtal::CountedPtrOrPtr&lt; T &gt; Pages: 1 -->
<svg width="472pt" height="279pt"
 viewBox="0.00 0.00 472.00 278.50" xmlns="http://www.w3.org/2000/svg" xmlns:xlink="http://www.w3.org/1999/xlink">

<svg id="main" version="1.1" xmlns="http://www.w3.org/2000/svg" xmlns:xlink="http://www.w3.org/1999/xlink" xml:space="preserve" onload="init(evt)">
<style type="text/css"><![CDATA[
.node, .edge {opacity: 0.7;}
.node.selected, .edge.selected {opacity: 1;}
.edge:hover path { stroke: red; }
.edge:hover polygon { stroke: red; fill: red; }
]]></style>
<script type="application/ecmascript" xlink:href="svg.min.js"/>
<svg id="graph" class="graph">
<g id="graph0" class="graph" transform="scale(1 1) rotate(0) translate(4 274.5)">
<title>DGtal::CountedPtrOrPtr&lt; T &gt;</title>
<!-- Node1 -->
<g id="Node000001" class="node">
<title>Node1</title>
<g id="a_Node000001"><a xlink:title="Aim: Smart or simple pointer on T. It can be a smart pointer based on reference counts or a simple po...">
<polygon fill="#999999" stroke="#666666" points="150.25,-146.38 0,-146.38 0,-124.12 150.25,-124.12 150.25,-146.38"/>
<text text-anchor="middle" x="75.12" y="-132.88" font-family="FreeSans" font-size="10.00">DGtal::CountedPtrOrPtr&lt; T &gt;</text>
</a>
</g>
</g>
<!-- Node2 -->
<g id="Node000002" class="node">
<title>Node2</title>
<g id="a_Node000002"><a xlink:href="classDGtal_1_1CountedPtrOrPtr.html" target="_top" xlink:title=" ">
<polygon fill="white" stroke="#666666" points="455.38,-270.5 326.88,-270.5 326.88,-234 455.38,-234 455.38,-270.5"/>
<text text-anchor="start" x="334.88" y="-257" font-family="FreeSans" font-size="10.00">DGtal::CountedPtrOrPtr</text>
<text text-anchor="middle" x="391.12" y="-242.75" font-family="FreeSans" font-size="10.00">&lt; DummyTbl &gt;</text>
</a>
</g>
</g>
<!-- Node1&#45;&gt;Node2 -->
<g id="edge1_Node000001_Node000002" class="edge">
<title>Node1&#45;&gt;Node2</title>
<g id="a_edge1_Node000001_Node000002"><a xlink:title=" ">
<path fill="none" stroke="orange" stroke-dasharray="5,2" d="M95.36,-154.71C112.85,-171.25 140.15,-194.3 168.25,-207.25 218.58,-230.44 280.78,-241.74 326.5,-247.21"/>
<polygon fill="orange" stroke="orange" points="97.86,-152.26 88.24,-147.8 92.98,-157.28 97.86,-152.26"/>
</a>
</g>
<text text-anchor="middle" x="234.25" y="-247" font-family="FreeSans" font-size="10.00" fill="grey"> &lt; DummyTbl &gt;</text>
</g>
<!-- Node3 -->
<g id="Node000003" class="node">
<title>Node3</title>
<g id="a_Node000003"><a xlink:href="classDGtal_1_1CountedPtrOrPtr.html" target="_top" xlink:title=" ">
<polygon fill="white" stroke="#666666" points="464,-215.5 318.25,-215.5 318.25,-179 464,-179 464,-215.5"/>
<text text-anchor="start" x="326.25" y="-202" font-family="FreeSans" font-size="10.00">DGtal::CountedPtrOrPtr</text>
<text text-anchor="middle" x="391.12" y="-187.75" font-family="FreeSans" font-size="10.00">&lt; boost::dynamic_bitset&lt;&gt; &gt;</text>
</a>
</g>
</g>
<!-- Node1&#45;&gt;Node3 -->
<g id="edge2_Node000001_Node000003" class="edge">
<title>Node1&#45;&gt;Node3</title>
<g id="a_edge2_Node000001_Node000003"><a xlink:title=" ">
<path fill="none" stroke="orange" stroke-dasharray="5,2" d="M113.78,-150.8C130.26,-157.06 149.96,-163.83 168.25,-168.25 217.53,-180.15 274.22,-187.45 317.97,-191.76"/>
<polygon fill="orange" stroke="orange" points="115.47,-147.7 104.88,-147.34 112.93,-154.23 115.47,-147.7"/>
</a>
</g>
<text text-anchor="middle" x="234.25" y="-194" font-family="FreeSans" font-size="10.00" fill="grey"> &lt; boost::dynamic_bitset&lt;&gt; &gt;</text>
</g>
<!-- Node4 -->
<g id="Node000004" class="node">
<title>Node4</title>
<g id="a_Node000004"><a xlink:href="classDGtal_1_1CountedPtrOrPtr.html" target="_top" xlink:title=" ">
<polygon fill="white" stroke="#666666" points="455.38,-160.62 326.88,-160.62 326.88,-109.88 455.38,-109.88 455.38,-160.62"/>
<text text-anchor="start" x="334.88" y="-147.12" font-family="FreeSans" font-size="10.00">DGtal::CountedPtrOrPtr</text>
<text text-anchor="start" x="334.88" y="-132.88" font-family="FreeSans" font-size="10.00">&lt; std::unordered_map&lt;</text>
<text text-anchor="middle" x="391.12" y="-118.62" font-family="FreeSans" font-size="10.00"> Point, unsigned int &gt; &gt;</text>
</a>
</g>
</g>
<!-- Node1&#45;&gt;Node4 -->
<g id="edge3_Node000001_Node000004" class="edge">
<title>Node1&#45;&gt;Node4</title>
<g id="a_edge3_Node000001_Node000004"><a xlink:title=" ">
<path fill="none" stroke="orange" stroke-dasharray="5,2" d="M161.77,-135.25C213.81,-135.25 279.15,-135.25 326.58,-135.25"/>
<polygon fill="orange" stroke="orange" points="162.05,-131.75 152.05,-135.25 162.05,-138.75 162.05,-131.75"/>
</a>
</g>
<text text-anchor="start" x="178.75" y="-154.25" font-family="FreeSans" font-size="10.00" fill="grey"> &lt; std::unordered_map</text>
<text text-anchor="middle" x="234.25" y="-140" font-family="FreeSans" font-size="10.00" fill="grey">&lt; Point, unsigned int &gt; &gt;</text>
</g>
<!-- Node5 -->
<g id="Node000005" class="node">
<title>Node5</title>
<g id="a_Node000005"><a xlink:href="classDGtal_1_1CountedPtrOrPtr.html" target="_top" xlink:title=" ">
<polygon fill="white" stroke="#666666" points="455.38,-91.5 326.88,-91.5 326.88,-55 455.38,-55 455.38,-91.5"/>
<text text-anchor="start" x="334.88" y="-78" font-family="FreeSans" font-size="10.00">DGtal::CountedPtrOrPtr</text>
<text text-anchor="middle" x="391.12" y="-63.75" font-family="FreeSans" font-size="10.00">&lt; ConfigMap &gt;</text>
</a>
</g>
</g>
<!-- Node1&#45;&gt;Node5 -->
<g id="edge4_Node000001_Node000005" class="edge">
<title>Node1&#45;&gt;Node5</title>
<g id="a_edge4_Node000001_Node000005"><a xlink:title=" ">
<path fill="none" stroke="orange" stroke-dasharray="5,2" d="M145.7,-121.46C153.31,-119.95 160.94,-118.44 168.25,-117 221.6,-106.46 282.16,-94.52 326.52,-85.78"/>
<polygon fill="orange" stroke="orange" points="145.22,-117.99 136.09,-123.36 146.58,-124.85 145.22,-117.99"/>
</a>
</g>
<text text-anchor="middle" x="234.25" y="-121" font-family="FreeSans" font-size="10.00" fill="grey"> &lt; ConfigMap &gt;</text>
</g>
<!-- Node6 -->
<g id="Node000006" class="node">
<title>Node6</title>
<g id="a_Node000006"><a xlink:href="classDGtal_1_1CountedPtrOrPtr.html" target="_top" xlink:title=" ">
<polygon fill="white" stroke="#666666" points="455.38,-36.5 326.88,-36.5 326.88,0 455.38,0 455.38,-36.5"/>
<text text-anchor="start" x="334.88" y="-23" font-family="FreeSans" font-size="10.00">DGtal::CountedPtrOrPtr</text>
<text text-anchor="middle" x="391.12" y="-8.75" font-family="FreeSans" font-size="10.00">&lt; PointToMaskMap &gt;</text>
</a>
</g>
</g>
<!-- Node1&#45;&gt;Node6 -->
<g id="edge5_Node000001_Node000006" class="edge">
<title>Node1&#45;&gt;Node6</title>
<g id="a_edge5_Node000001_Node000006"><a xlink:title=" ">
<path fill="none" stroke="orange" stroke-dasharray="5,2" d="M98.04,-116.78C115.89,-102.61 142.3,-83.58 168.25,-72 219.1,-49.31 280.97,-35.34 326.44,-27.35"/>
<polygon fill="orange" stroke="orange" points="96.27,-113.71 90.7,-122.73 100.68,-119.15 96.27,-113.71"/>
</a>
</g>
<text text-anchor="middle" x="234.25" y="-76" font-family="FreeSans" font-size="10.00" fill="grey"> &lt; PointToMaskMap &gt;</text>
</g>
</g>
</svg>
</svg>

<style type='text/css'>
<![CDATA[
[data-mouse-over-selected='false'] { opacity: 0.7; }
[data-mouse-over-selected='true']  { opacity: 1.0; }
]]>
</style>
<script type="application/ecmascript"><![CDATA[
document.addEventListener('DOMContentLoaded', (event) => {
  highlightEdges();
  highlightAdjacentNodes();
});
]]></script>
</svg>
