<?xml version="1.0" encoding="UTF-8" standalone="no"?>
<!DOCTYPE svg PUBLIC "-//W3C//DTD SVG 1.1//EN"
 "http://www.w3.org/Graphics/SVG/1.1/DTD/svg11.dtd">
<!-- Generated by graphviz version 11.0.0 (0)
 -->
<!-- Title: DGtal::Viewer3D&lt; TSpace, TKSpace &gt; Pages: 1 -->
<!--zoomable 100 -->

<svg id="main" version="1.1" xmlns="http://www.w3.org/2000/svg" xmlns:xlink="http://www.w3.org/1999/xlink" xml:space="preserve" onload="init(evt)">
<style type="text/css"><![CDATA[
.node, .edge {opacity: 0.7;}
.node.selected, .edge.selected {opacity: 1;}
.edge:hover path { stroke: red; }
.edge:hover polygon { stroke: red; fill: red; }
]]></style>

<defs>
  <circle id="rim" cx="0" cy="0" r="7"/>
  <circle id="rim2" cx="0" cy="0" r="3.5"/>
  <g id="zoomPlus">
    <use xlink:href="#rim" fill="#404040"><set attributeName="fill" to="#808080" begin="zoomplus.mouseover" end="zoomplus.mouseout"/></use>
    <path d="M-4,0h8M0,-4v8" fill="none" stroke="white" stroke-width="1.5" pointer-events="none"/>
  </g>
  <g id="zoomMin">
    <use xlink:href="#rim" fill="#404040"><set attributeName="fill" to="#808080" begin="zoomminus.mouseover" end="zoomminus.mouseout"/></use>
    <path d="M-4,0h8" fill="none" stroke="white" stroke-width="1.5" pointer-events="none"/>
  </g>
  <g id="arrowUp" transform="translate(30 24)">
    <use xlink:href="#rim"/>
    <path pointer-events="none" fill="none" stroke="white" stroke-width="1.5" d="M0,-3.0v7 M-2.5,-0.5L0,-3.0L2.5,-0.5"/>
  </g>
  <g id="arrowRight" transform="rotate(90) translate(36 -43)">
    <use xlink:href="#rim"/>
    <path pointer-events="none" fill="none" stroke="white" stroke-width="1.5" d="M0,-3.0v7 M-2.5,-0.5L0,-3.0L2.5,-0.5"/>
  </g>
  <g id="arrowDown" transform="rotate(180) translate(-30 -48)">
    <use xlink:href="#rim"/>
    <path pointer-events="none" fill="none" stroke="white" stroke-width="1.5" d="M0,-3.0v7 M-2.5,-0.5L0,-3.0L2.5,-0.5"/>
  </g>
  <g id="arrowLeft" transform="rotate(270) translate(-36 17)">
    <use xlink:href="#rim"/>
    <path pointer-events="none" fill="none" stroke="white" stroke-width="1.5" d="M0,-3.0v7 M-2.5,-0.5L0,-3.0L2.5,-0.5"/>
  </g>
  <g id="resetDef">
    <use xlink:href="#rim2" fill="#404040"><set attributeName="fill" to="#808080" begin="reset.mouseover" end="reset.mouseout"/></use>
  </g>
</defs>
<script type="application/ecmascript">
var viewWidth = 662;
var viewHeight = 100;
var sectionId = 'dynsection-0';
</script>
<script type="application/ecmascript" xlink:href="svg.min.js"/>
<svg id="graph" class="graph">
<g id="viewport">
<title>DGtal::Viewer3D&lt; TSpace, TKSpace &gt;</title>
<!-- Node1 -->
<g id="Node000001" class="node">
<title>Node1</title>
<g id="a_Node000001"><a xlink:title=" ">
<polygon fill="#999999" stroke="#666666" points="305.75,-63.5 169,-63.5 169,-27 305.75,-27 305.75,-63.5"/>
<text text-anchor="start" x="177" y="-50" font-family="FreeSans" font-size="10.00">DGtal::Viewer3D&lt; TSpace,</text>
<text text-anchor="middle" x="237.38" y="-35.75" font-family="FreeSans" font-size="10.00"> TKSpace &gt;</text>
</a>
</g>
</g>
<!-- Node4 -->
<g id="Node000004" class="node">
<title>Node4</title>
<g id="a_Node000004"><a xlink:href="classDGtal_1_1Viewer3D.html" target="_top" xlink:title=" ">
<polygon fill="white" stroke="#666666" points="621.38,-91.5 489.88,-91.5 489.88,-55 621.38,-55 621.38,-91.5"/>
<text text-anchor="start" x="497.88" y="-78" font-family="FreeSans" font-size="10.00">DGtal::Viewer3D&lt; Space,</text>
<text text-anchor="middle" x="555.62" y="-63.75" font-family="FreeSans" font-size="10.00"> KSpace &gt;</text>
</a>
</g>
</g>
<!-- Node1&#45;&gt;Node4 -->
<g id="edge3_Node000001_Node000004" class="edge">
<title>Node1&#45;&gt;Node4</title>
<g id="a_edge3_Node000001_Node000004"><a xlink:title=" ">
<path fill="none" stroke="orange" stroke-dasharray="5,2" d="M317.63,-52.27C370.72,-56.97 439.74,-63.08 489.6,-67.49"/>
<polygon fill="orange" stroke="orange" points="318,-48.79 307.73,-51.39 317.38,-55.76 318,-48.79"/>
</a>
</g>
<text text-anchor="middle" x="381.5" y="-67" font-family="FreeSans" font-size="10.00" fill="grey"> &lt; Space, KSpace &gt;</text>
</g>
<!-- Node5 -->
<g id="Node000005" class="node">
<title>Node5</title>
<g id="a_Node000005"><a xlink:href="classDGtal_1_1Viewer3D.html" target="_top" xlink:title=" ">
<polygon fill="white" stroke="#666666" points="654,-36.5 457.25,-36.5 457.25,0 654,0 654,-36.5"/>
<text text-anchor="start" x="465.25" y="-23" font-family="FreeSans" font-size="10.00">DGtal::Viewer3D&lt; DGtal</text>
<text text-anchor="middle" x="555.62" y="-8.75" font-family="FreeSans" font-size="10.00">::SpaceND, DGtal::KhalimskySpaceND &gt;</text>
</a>
</g>
</g>
<!-- Node1&#45;&gt;Node5 -->
<g id="edge4_Node000001_Node000005" class="edge">
<title>Node1&#45;&gt;Node5</title>
<g id="a_edge4_Node000001_Node000005"><a xlink:title=" ">
<path fill="none" stroke="orange" stroke-dasharray="5,2" d="M314.02,-24.31C317.29,-23.72 320.55,-23.2 323.75,-22.75 367.13,-16.7 415.53,-14.99 456.77,-15.03"/>
<polygon fill="orange" stroke="orange" points="313.45,-20.86 304.33,-26.24 314.82,-27.72 313.45,-20.86"/>
</a>
</g>
<text text-anchor="start" x="323.75" y="-41.25" font-family="FreeSans" font-size="10.00" fill="grey"> &lt; DGtal::SpaceND, DGtal</text>
<text text-anchor="middle" x="381.5" y="-27" font-family="FreeSans" font-size="10.00" fill="grey">::KhalimskySpaceND &gt;</text>
</g>
<!-- Node2 -->
<g id="Node000002" class="node">
<title>Node2</title>
<g id="a_Node000002"><a xlink:title=" ">
<polygon fill="white" stroke="#666666" points="100.38,-80.38 32.62,-80.38 32.62,-58.12 100.38,-58.12 100.38,-80.38"/>
<text text-anchor="middle" x="66.5" y="-66.88" font-family="FreeSans" font-size="10.00">QGLViewer</text>
</a>
</g>
</g>
<!-- Node2&#45;&gt;Node1 -->
<g id="edge1_Node000001_Node000002" class="edge">
<title>Node2&#45;&gt;Node1</title>
<g id="a_edge1_Node000001_Node000002"><a xlink:title=" ">
<path fill="none" stroke="#63b8ff" d="M111.79,-62.96C129.13,-60.49 149.4,-57.61 168.51,-54.9"/>
<polygon fill="#63b8ff" stroke="#63b8ff" points="111.77,-59.42 102.36,-64.3 112.76,-66.35 111.77,-59.42"/>
</a>
</g>
</g>
<!-- Node3 -->
<g id="Node000003" class="node">
<title>Node3</title>
<g id="a_Node000003"><a xlink:href="classDGtal_1_1Display3D.html" target="_top" xlink:title="Aim: This semi abstract class defines the stream mechanism to display 3d primitive (like BallVector,...">
<polygon fill="white" stroke="#666666" points="133,-40.5 0,-40.5 0,-4 133,-4 133,-40.5"/>
<text text-anchor="start" x="8" y="-27" font-family="FreeSans" font-size="10.00">DGtal::Display3D&lt; Space,</text>
<text text-anchor="middle" x="66.5" y="-12.75" font-family="FreeSans" font-size="10.00"> KSpace &gt;</text>
</a>
</g>
</g>
<!-- Node3&#45;&gt;Node1 -->
<g id="edge2_Node000001_Node000003" class="edge">
<title>Node3&#45;&gt;Node1</title>
<g id="a_edge2_Node000001_Node000003"><a xlink:title=" ">
<path fill="none" stroke="#63b8ff" d="M144.52,-32.74C152.54,-33.83 160.65,-34.94 168.55,-36.01"/>
<polygon fill="#63b8ff" stroke="#63b8ff" points="145.16,-29.29 134.77,-31.41 144.21,-36.23 145.16,-29.29"/>
</a>
</g>
</g>
</g>
</svg>

<g id="navigator" transform="translate(0 0)" fill="#404254">
  <rect fill="#f2f5e9" fill-opacity="0.5" stroke="#606060" stroke-width=".5" x="0" y="0" width="60" height="60"/>
  <use id="zoomplus" xlink:href="#zoomPlus" x="17" y="9" onmousedown="handleZoom(evt,'in')"/>
  <use id="zoomminus" xlink:href="#zoomMin" x="42" y="9" onmousedown="handleZoom(evt,'out')"/>
  <use id="reset" xlink:href="#resetDef" x="30" y="36" onmousedown="handleReset()"/>
   <use id="arrowup" xlink:href="#arrowUp" x="0" y="0" onmousedown="handlePan(0,-1)"/>
  <use id="arrowright" xlink:href="#arrowRight" x="0" y="0" onmousedown="handlePan(1,0)"/>
  <use id="arrowdown" xlink:href="#arrowDown" x="0" y="0" onmousedown="handlePan(0,1)"/>
  <use id="arrowleft" xlink:href="#arrowLeft" x="0" y="0" onmousedown="handlePan(-1,0)"/>
</g>
<svg viewBox="0 0 15 15" width="100%" height="30px" preserveAspectRatio="xMaxYMin meet">
 <g id="arrow_out" transform="scale(0.3 0.3)">
  <a xlink:href="classDGtal_1_1Viewer3D__inherit__graph_org.svg" target="_base">
   <rect id="button" ry="5" rx="5" y="6" x="6" height="38" width="38"
        fill="#f2f5e9" fill-opacity="0.5" stroke="#606060" stroke-width="1.0"/>
   <path id="arrow"
     d="M 11.500037,31.436501 C 11.940474,20.09759 22.043105,11.32322 32.158766,21.979434 L 37.068811,17.246167 C 37.068811,17.246167 37.088388,32 37.088388,32 L 22.160133,31.978069 C 22.160133,31.978069 26.997745,27.140456 26.997745,27.140456 C 18.528582,18.264221 13.291696,25.230495 11.500037,31.436501 z"
     style="fill:#404040;"/>
  </a>
 </g>
</svg>

<style type='text/css'>
<![CDATA[
[data-mouse-over-selected='false'] { opacity: 0.7; }
[data-mouse-over-selected='true']  { opacity: 1.0; }
]]>
</style>
<script type="application/ecmascript"><![CDATA[
document.addEventListener('DOMContentLoaded', (event) => {
  highlightEdges();
  highlightAdjacentNodes();
});
]]></script>
</svg>
