<?xml version="1.0" encoding="UTF-8" standalone="no"?>
<!DOCTYPE svg PUBLIC "-//W3C//DTD SVG 1.1//EN"
 "http://www.w3.org/Graphics/SVG/1.1/DTD/svg11.dtd">
<!-- Generated by graphviz version 11.0.0 (0)
 -->
<!-- Title: DGtal::CubicalComplex&lt; TKSpace, TCellContainer &gt; Pages: 1 -->
<svg width="1105pt" height="186pt"
 viewBox="0.00 0.00 1105.00 186.00" xmlns="http://www.w3.org/2000/svg" xmlns:xlink="http://www.w3.org/1999/xlink">
<g id="graph0" class="graph" transform="scale(1 1) rotate(0) translate(4 182)">
<title>DGtal::CubicalComplex&lt; TKSpace, TCellContainer &gt;</title>
<!-- Node1 -->
<g id="Node000001" class="node">
<title>Node1</title>
<g id="a_Node000001"><a xlink:title="Aim: This class represents an arbitrary cubical complex living in some Khalimsky space....">
<polygon fill="#999999" stroke="#666666" points="143.5,-88.5 0,-88.5 0,-52 143.5,-52 143.5,-88.5"/>
<text text-anchor="start" x="8" y="-75" font-family="FreeSans" font-size="10.00">DGtal::CubicalComplex</text>
<text text-anchor="middle" x="71.75" y="-60.75" font-family="FreeSans" font-size="10.00">&lt; TKSpace, TCellContainer &gt;</text>
</a>
</g>
</g>
<!-- Node2 -->
<g id="Node000002" class="node">
<title>Node2</title>
<g id="a_Node000002"><a xlink:href="classDGtal_1_1CubicalComplex.html" target="_top" xlink:title=" ">
<polygon fill="white" stroke="#666666" points="488.75,-107.75 307,-107.75 307,-42.75 488.75,-42.75 488.75,-107.75"/>
<text text-anchor="start" x="315" y="-94.25" font-family="FreeSans" font-size="10.00">DGtal::CubicalComplex</text>
<text text-anchor="start" x="315" y="-80" font-family="FreeSans" font-size="10.00">&lt; TKSpace, typename TKSpace</text>
<text text-anchor="start" x="315" y="-65.75" font-family="FreeSans" font-size="10.00">::template CellMap&lt; CubicalCellData</text>
<text text-anchor="middle" x="397.88" y="-51.5" font-family="FreeSans" font-size="10.00"> &gt;::Type &gt;</text>
</a>
</g>
</g>
<!-- Node1&#45;&gt;Node2 -->
<g id="edge1_Node000001_Node000002" class="edge">
<title>Node1&#45;&gt;Node2</title>
<g id="a_edge1_Node000001_Node000002"><a xlink:title=" ">
<path fill="none" stroke="orange" stroke-dasharray="5,2" d="M155.25,-70.17C195.58,-70.27 244.83,-70.6 289,-71.5 294.71,-71.62 300.6,-71.76 306.53,-71.92"/>
<polygon fill="orange" stroke="orange" points="155.38,-66.67 145.37,-70.15 155.36,-73.67 155.38,-66.67"/>
</a>
</g>
<text text-anchor="start" x="161.5" y="-104.5" font-family="FreeSans" font-size="10.00" fill="grey"> &lt; TKSpace, typename</text>
<text text-anchor="start" x="161.5" y="-90.25" font-family="FreeSans" font-size="10.00" fill="grey"> TKSpace::template CellMap</text>
<text text-anchor="middle" x="225.25" y="-76" font-family="FreeSans" font-size="10.00" fill="grey">&lt; CubicalCellData &gt;::Type &gt;</text>
</g>
<!-- Node6 -->
<g id="Node000006" class="node">
<title>Node6</title>
<g id="a_Node000006"><a xlink:href="classDGtal_1_1CubicalComplex.html" target="_top" xlink:title=" ">
<polygon fill="white" stroke="#666666" points="666.75,-166.75 506.75,-166.75 506.75,-101.75 666.75,-101.75 666.75,-166.75"/>
<text text-anchor="start" x="514.75" y="-153.25" font-family="FreeSans" font-size="10.00">DGtal::CubicalComplex</text>
<text text-anchor="start" x="514.75" y="-139" font-family="FreeSans" font-size="10.00">&lt; KSpace, typename KSpace</text>
<text text-anchor="start" x="514.75" y="-124.75" font-family="FreeSans" font-size="10.00">::template CellMap&lt; CubicalCell</text>
<text text-anchor="middle" x="586.75" y="-110.5" font-family="FreeSans" font-size="10.00">Data &gt;::Type &gt;</text>
</a>
</g>
</g>
<!-- Node1&#45;&gt;Node6 -->
<g id="edge5_Node000001_Node000006" class="edge">
<title>Node1&#45;&gt;Node6</title>
<g id="a_edge5_Node000001_Node000006"><a xlink:title=" ">
<path fill="none" stroke="orange" stroke-dasharray="5,2" d="M112.22,-94.18C127.13,-102.04 144.59,-109.87 161.5,-114.25 278.74,-144.65 420.18,-144.27 506.5,-140.1"/>
<polygon fill="orange" stroke="orange" points="114.12,-91.23 103.67,-89.51 110.76,-97.38 114.12,-91.23"/>
</a>
</g>
<text text-anchor="start" x="163.38" y="-168.5" font-family="FreeSans" font-size="10.00" fill="grey"> &lt; KSpace, typename</text>
<text text-anchor="start" x="163.38" y="-154.25" font-family="FreeSans" font-size="10.00" fill="grey"> KSpace::template CellMap</text>
<text text-anchor="middle" x="225.25" y="-140" font-family="FreeSans" font-size="10.00" fill="grey">&lt; CubicalCellData &gt;::Type &gt;</text>
</g>
<!-- Node7 -->
<g id="Node000007" class="node">
<title>Node7</title>
<g id="a_Node000007"><a xlink:href="classDGtal_1_1CubicalComplex.html" target="_top" xlink:title=" ">
<polygon fill="white" stroke="#666666" points="648.38,-36.5 525.12,-36.5 525.12,0 648.38,0 648.38,-36.5"/>
<text text-anchor="start" x="533.12" y="-23" font-family="FreeSans" font-size="10.00">DGtal::CubicalComplex</text>
<text text-anchor="middle" x="586.75" y="-8.75" font-family="FreeSans" font-size="10.00">&lt; KSpace, FixtureMap &gt;</text>
</a>
</g>
</g>
<!-- Node1&#45;&gt;Node7 -->
<g id="edge7_Node000001_Node000007" class="edge">
<title>Node1&#45;&gt;Node7</title>
<g id="a_edge7_Node000001_Node000007"><a xlink:title=" ">
<path fill="none" stroke="orange" stroke-dasharray="5,2" d="M154.95,-52.12C157.16,-51.73 159.34,-51.36 161.5,-51 289.77,-29.76 442.19,-22.25 524.93,-19.62"/>
<polygon fill="orange" stroke="orange" points="154.52,-48.64 145.33,-53.91 155.8,-55.53 154.52,-48.64"/>
</a>
</g>
<text text-anchor="middle" x="225.25" y="-55" font-family="FreeSans" font-size="10.00" fill="grey"> &lt; KSpace, FixtureMap &gt;</text>
</g>
<!-- Node3 -->
<g id="Node000003" class="node">
<title>Node3</title>
<g id="a_Node000003"><a xlink:href="classDGtal_1_1VoxelComplex.html" target="_top" xlink:title="This class represents a voxel complex living in some Khalimsky space. Voxel complexes are derived fro...">
<polygon fill="white" stroke="#666666" points="828.25,-93.5 684.75,-93.5 684.75,-57 828.25,-57 828.25,-93.5"/>
<text text-anchor="start" x="692.75" y="-80" font-family="FreeSans" font-size="10.00">DGtal::VoxelComplex</text>
<text text-anchor="middle" x="756.5" y="-65.75" font-family="FreeSans" font-size="10.00">&lt; TKSpace, TCellContainer &gt;</text>
</a>
</g>
</g>
<!-- Node2&#45;&gt;Node3 -->
<g id="edge2_Node000002_Node000003" class="edge">
<title>Node2&#45;&gt;Node3</title>
<g id="a_edge2_Node000002_Node000003"><a xlink:title=" ">
<path fill="none" stroke="#63b8ff" d="M500.06,-75.25C558.88,-75.25 631.58,-75.25 684.36,-75.25"/>
<polygon fill="#63b8ff" stroke="#63b8ff" points="500.38,-71.75 490.38,-75.25 500.38,-78.75 500.38,-71.75"/>
</a>
</g>
</g>
<!-- Node4 -->
<g id="Node000004" class="node">
<title>Node4</title>
<g id="a_Node000004"><a xlink:href="classDGtal_1_1VoxelComplex.html" target="_top" xlink:title=" ">
<polygon fill="white" stroke="#666666" points="1092.12,-131.5 978.62,-131.5 978.62,-95 1092.12,-95 1092.12,-131.5"/>
<text text-anchor="start" x="986.62" y="-118" font-family="FreeSans" font-size="10.00">DGtal::VoxelComplex</text>
<text text-anchor="middle" x="1035.38" y="-103.75" font-family="FreeSans" font-size="10.00">&lt; KSpace &gt;</text>
</a>
</g>
</g>
<!-- Node3&#45;&gt;Node4 -->
<g id="edge3_Node000003_Node000004" class="edge">
<title>Node3&#45;&gt;Node4</title>
<g id="a_edge3_Node000003_Node000004"><a xlink:title=" ">
<path fill="none" stroke="orange" stroke-dasharray="5,2" d="M839.6,-86.52C884.36,-92.66 938.59,-100.1 978.45,-105.58"/>
<polygon fill="orange" stroke="orange" points="840.33,-83.08 829.94,-85.19 839.37,-90.02 840.33,-83.08"/>
</a>
</g>
<text text-anchor="middle" x="901" y="-106" font-family="FreeSans" font-size="10.00" fill="grey"> &lt; KSpace &gt;</text>
</g>
<!-- Node5 -->
<g id="Node000005" class="node">
<title>Node5</title>
<g id="a_Node000005"><a xlink:href="classDGtal_1_1VoxelComplex.html" target="_top" xlink:title=" ">
<polygon fill="white" stroke="#666666" points="1097,-69.5 973.75,-69.5 973.75,-33 1097,-33 1097,-69.5"/>
<text text-anchor="start" x="981.75" y="-56" font-family="FreeSans" font-size="10.00">DGtal::VoxelComplex</text>
<text text-anchor="middle" x="1035.38" y="-41.75" font-family="FreeSans" font-size="10.00">&lt; KSpace, FixtureMap &gt;</text>
</a>
</g>
</g>
<!-- Node3&#45;&gt;Node5 -->
<g id="edge4_Node000003_Node000005" class="edge">
<title>Node3&#45;&gt;Node5</title>
<g id="a_edge4_Node000003_Node000005"><a xlink:title=" ">
<path fill="none" stroke="orange" stroke-dasharray="5,2" d="M840.03,-66.58C842.12,-66.38 844.2,-66.19 846.25,-66 888.66,-62.13 936.51,-58.38 973.34,-55.64"/>
<polygon fill="orange" stroke="orange" points="839.82,-63.08 830.2,-67.52 840.49,-70.05 839.82,-63.08"/>
</a>
</g>
<text text-anchor="middle" x="901" y="-70" font-family="FreeSans" font-size="10.00" fill="grey"> &lt; KSpace, FixtureMap &gt;</text>
</g>
<!-- Node6&#45;&gt;Node4 -->
<g id="edge6_Node000006_Node000004" class="edge">
<title>Node6&#45;&gt;Node4</title>
<g id="a_edge6_Node000006_Node000004"><a xlink:title=" ">
<path fill="none" stroke="#63b8ff" d="M678.3,-130.82C752.8,-127.88 861.15,-123.31 955.75,-118.25 963.13,-117.86 970.89,-117.4 978.55,-116.94"/>
<polygon fill="#63b8ff" stroke="#63b8ff" points="678.46,-127.31 668.61,-131.2 678.74,-134.3 678.46,-127.31"/>
</a>
</g>
</g>
<!-- Node7&#45;&gt;Node5 -->
<g id="edge8_Node000007_Node000005" class="edge">
<title>Node7&#45;&gt;Node5</title>
<g id="a_edge8_Node000007_Node000005"><a xlink:title=" ">
<path fill="none" stroke="#63b8ff" d="M659.81,-23.57C746.85,-30.01 891.73,-40.71 973.45,-46.75"/>
<polygon fill="#63b8ff" stroke="#63b8ff" points="660.19,-20.09 649.96,-22.85 659.67,-27.07 660.19,-20.09"/>
</a>
</g>
</g>
</g>
</svg>
