<?xml version="1.0" encoding="UTF-8" standalone="no"?>
<!DOCTYPE svg PUBLIC "-//W3C//DTD SVG 1.1//EN"
 "http://www.w3.org/Graphics/SVG/1.1/DTD/svg11.dtd">
<!-- Generated by graphviz version 11.0.0 (0)
 -->
<!-- Title: DGtal::NormalFromDCAEstimator&lt; DCAComputer &gt; Pages: 1 -->
<svg width="753pt" height="62pt"
 viewBox="0.00 0.00 752.75 61.88" xmlns="http://www.w3.org/2000/svg" xmlns:xlink="http://www.w3.org/1999/xlink">
<g id="graph0" class="graph" transform="scale(1 1) rotate(0) translate(4 57.88)">
<title>DGtal::NormalFromDCAEstimator&lt; DCAComputer &gt;</title>
<!-- Node1 -->
<g id="Node000001" class="node">
<title>Node1</title>
<g id="a_Node000001"><a xlink:title=" ">
<polygon fill="#999999" stroke="#666666" points="744.75,-43.62 573.5,-43.62 573.5,-7.12 744.75,-7.12 744.75,-43.62"/>
<text text-anchor="start" x="581.5" y="-30.12" font-family="FreeSans" font-size="10.00">DGtal::NormalFromDCAEstimator</text>
<text text-anchor="middle" x="659.12" y="-15.88" font-family="FreeSans" font-size="10.00">&lt; DCAComputer &gt;</text>
</a>
</g>
</g>
<!-- Node2 -->
<g id="Node000002" class="node">
<title>Node2</title>
<g id="a_Node000002"><a xlink:href="classDGtal_1_1detail_1_1PosDepScaleIndepSCEstimator.html" target="_top" xlink:title=" ">
<polygon fill="white" stroke="#666666" points="537.5,-50.75 362.5,-50.75 362.5,0 537.5,0 537.5,-50.75"/>
<text text-anchor="start" x="370.5" y="-37.25" font-family="FreeSans" font-size="10.00">DGtal::detail::PosDepScale</text>
<text text-anchor="start" x="370.5" y="-23" font-family="FreeSans" font-size="10.00">IndepSCEstimator&lt; DCAComputer,</text>
<text text-anchor="middle" x="450" y="-8.75" font-family="FreeSans" font-size="10.00"> detail::NormalVectorFromDCA &gt;</text>
</a>
</g>
</g>
<!-- Node2&#45;&gt;Node1 -->
<g id="edge1_Node000001_Node000002" class="edge">
<title>Node2&#45;&gt;Node1</title>
<g id="a_edge1_Node000001_Node000002"><a xlink:title=" ">
<path fill="none" stroke="#63b8ff" d="M549.18,-25.38C557.16,-25.38 565.19,-25.38 573.07,-25.38"/>
<polygon fill="#63b8ff" stroke="#63b8ff" points="549.45,-21.88 539.45,-25.38 549.45,-28.88 549.45,-21.88"/>
</a>
</g>
</g>
<!-- Node3 -->
<g id="Node000003" class="node">
<title>Node3</title>
<g id="a_Node000003"><a xlink:href="classDGtal_1_1detail_1_1PosDepScaleIndepSCEstimator.html" target="_top" xlink:title=" ">
<polygon fill="white" stroke="#666666" points="202.75,-50.75 0,-50.75 0,0 202.75,0 202.75,-50.75"/>
<text text-anchor="start" x="8" y="-37.25" font-family="FreeSans" font-size="10.00">DGtal::detail::PosDepScale</text>
<text text-anchor="start" x="8" y="-23" font-family="FreeSans" font-size="10.00">IndepSCEstimator&lt; TSegmentComputer,</text>
<text text-anchor="middle" x="101.38" y="-8.75" font-family="FreeSans" font-size="10.00"> Functor, ReturnType &gt;</text>
</a>
</g>
</g>
<!-- Node3&#45;&gt;Node2 -->
<g id="edge2_Node000002_Node000003" class="edge">
<title>Node3&#45;&gt;Node2</title>
<g id="a_edge2_Node000002_Node000003"><a xlink:title=" ">
<path fill="none" stroke="orange" stroke-dasharray="5,2" d="M214.47,-25.38C262.36,-25.38 317.41,-25.38 362.14,-25.38"/>
<polygon fill="orange" stroke="orange" points="214.61,-21.88 204.61,-25.38 214.61,-28.88 214.61,-21.88"/>
</a>
</g>
<text text-anchor="start" x="220.75" y="-44.38" font-family="FreeSans" font-size="10.00" fill="grey"> &lt; DCAComputer, detail</text>
<text text-anchor="middle" x="282.62" y="-30.12" font-family="FreeSans" font-size="10.00" fill="grey">::NormalVectorFromDCA &gt;</text>
</g>
</g>
</svg>
