<?xml version="1.0" encoding="UTF-8" standalone="no"?>
<!DOCTYPE svg PUBLIC "-//W3C//DTD SVG 1.1//EN"
 "http://www.w3.org/Graphics/SVG/1.1/DTD/svg11.dtd">
<!-- Generated by graphviz version 11.0.0 (0)
 -->
<!-- Title: DGtal::detail::PosDepScaleIndepSCEstimator&lt; TSegmentComputer, Functor, ReturnType &gt; Pages: 1 -->
<svg width="759pt" height="128pt"
 viewBox="0.00 0.00 758.75 127.75" xmlns="http://www.w3.org/2000/svg" xmlns:xlink="http://www.w3.org/1999/xlink">
<g id="graph0" class="graph" transform="scale(1 1) rotate(0) translate(4 123.75)">
<title>DGtal::detail::PosDepScaleIndepSCEstimator&lt; TSegmentComputer, Functor, ReturnType &gt;</title>
<!-- Node1 -->
<g id="Node000001" class="node">
<title>Node1</title>
<g id="a_Node000001"><a xlink:title=" ">
<polygon fill="#999999" stroke="#666666" points="202.75,-84.75 0,-84.75 0,-34 202.75,-34 202.75,-84.75"/>
<text text-anchor="start" x="8" y="-71.25" font-family="FreeSans" font-size="10.00">DGtal::detail::PosDepScale</text>
<text text-anchor="start" x="8" y="-57" font-family="FreeSans" font-size="10.00">IndepSCEstimator&lt; TSegmentComputer,</text>
<text text-anchor="middle" x="101.38" y="-42.75" font-family="FreeSans" font-size="10.00"> Functor, ReturnType &gt;</text>
</a>
</g>
</g>
<!-- Node2 -->
<g id="Node000002" class="node">
<title>Node2</title>
<g id="a_Node000002"><a xlink:href="classDGtal_1_1detail_1_1PosDepScaleIndepSCEstimator.html" target="_top" xlink:title=" ">
<polygon fill="white" stroke="#666666" points="540.5,-119.75 365.5,-119.75 365.5,-69 540.5,-69 540.5,-119.75"/>
<text text-anchor="start" x="373.5" y="-106.25" font-family="FreeSans" font-size="10.00">DGtal::detail::PosDepScale</text>
<text text-anchor="start" x="373.5" y="-92" font-family="FreeSans" font-size="10.00">IndepSCEstimator&lt; DCAComputer,</text>
<text text-anchor="middle" x="453" y="-77.75" font-family="FreeSans" font-size="10.00"> detail::NormalVectorFromDCA &gt;</text>
</a>
</g>
</g>
<!-- Node1&#45;&gt;Node2 -->
<g id="edge1_Node000001_Node000002" class="edge">
<title>Node1&#45;&gt;Node2</title>
<g id="a_edge1_Node000001_Node000002"><a xlink:title=" ">
<path fill="none" stroke="orange" stroke-dasharray="5,2" d="M214.3,-70.58C263.12,-75.47 319.5,-81.11 365.09,-85.67"/>
<polygon fill="orange" stroke="orange" points="214.84,-67.12 204.54,-69.6 214.14,-74.08 214.84,-67.12"/>
</a>
</g>
<text text-anchor="start" x="222.25" y="-101.38" font-family="FreeSans" font-size="10.00" fill="grey"> &lt; DCAComputer, detail</text>
<text text-anchor="middle" x="284.12" y="-87.12" font-family="FreeSans" font-size="10.00" fill="grey">::NormalVectorFromDCA &gt;</text>
</g>
<!-- Node4 -->
<g id="Node000004" class="node">
<title>Node4</title>
<g id="a_Node000004"><a xlink:href="classDGtal_1_1detail_1_1PosDepScaleIndepSCEstimator.html" target="_top" xlink:title=" ">
<polygon fill="white" stroke="#666666" points="540.5,-50.75 365.5,-50.75 365.5,0 540.5,0 540.5,-50.75"/>
<text text-anchor="start" x="373.5" y="-37.25" font-family="FreeSans" font-size="10.00">DGtal::detail::PosDepScale</text>
<text text-anchor="start" x="373.5" y="-23" font-family="FreeSans" font-size="10.00">IndepSCEstimator&lt; DCAComputer,</text>
<text text-anchor="middle" x="453" y="-8.75" font-family="FreeSans" font-size="10.00"> detail::TangentVectorFromDCA &gt;</text>
</a>
</g>
</g>
<!-- Node1&#45;&gt;Node4 -->
<g id="edge3_Node000001_Node000004" class="edge">
<title>Node1&#45;&gt;Node4</title>
<g id="a_edge3_Node000001_Node000004"><a xlink:title=" ">
<path fill="none" stroke="orange" stroke-dasharray="5,2" d="M214.17,-39.67C216.38,-39.39 218.57,-39.13 220.75,-38.88 268.29,-33.39 321.6,-30.09 365.05,-28.12"/>
<polygon fill="orange" stroke="orange" points="213.96,-36.17 204.51,-40.95 214.88,-43.1 213.96,-36.17"/>
</a>
</g>
<text text-anchor="start" x="220.75" y="-57.38" font-family="FreeSans" font-size="10.00" fill="grey"> &lt; DCAComputer, detail</text>
<text text-anchor="middle" x="284.12" y="-43.12" font-family="FreeSans" font-size="10.00" fill="grey">::TangentVectorFromDCA &gt;</text>
</g>
<!-- Node3 -->
<g id="Node000003" class="node">
<title>Node3</title>
<g id="a_Node000003"><a xlink:href="classDGtal_1_1NormalFromDCAEstimator.html" target="_top" xlink:title=" ">
<polygon fill="white" stroke="#666666" points="749.25,-112.62 578,-112.62 578,-76.12 749.25,-76.12 749.25,-112.62"/>
<text text-anchor="start" x="586" y="-99.12" font-family="FreeSans" font-size="10.00">DGtal::NormalFromDCAEstimator</text>
<text text-anchor="middle" x="663.62" y="-84.88" font-family="FreeSans" font-size="10.00">&lt; DCAComputer &gt;</text>
</a>
</g>
</g>
<!-- Node2&#45;&gt;Node3 -->
<g id="edge2_Node000002_Node000003" class="edge">
<title>Node2&#45;&gt;Node3</title>
<g id="a_edge2_Node000002_Node000003"><a xlink:title=" ">
<path fill="none" stroke="#63b8ff" d="M552.46,-94.38C560.94,-94.38 569.46,-94.38 577.81,-94.38"/>
<polygon fill="#63b8ff" stroke="#63b8ff" points="552.48,-90.88 542.48,-94.38 552.48,-97.88 552.48,-90.88"/>
</a>
</g>
</g>
<!-- Node5 -->
<g id="Node000005" class="node">
<title>Node5</title>
<g id="a_Node000005"><a xlink:href="classDGtal_1_1TangentFromDCAEstimator.html" target="_top" xlink:title=" ">
<polygon fill="white" stroke="#666666" points="750.75,-43.62 576.5,-43.62 576.5,-7.12 750.75,-7.12 750.75,-43.62"/>
<text text-anchor="start" x="584.5" y="-30.12" font-family="FreeSans" font-size="10.00">DGtal::TangentFromDCAEstimator</text>
<text text-anchor="middle" x="663.62" y="-15.88" font-family="FreeSans" font-size="10.00">&lt; DCAComputer &gt;</text>
</a>
</g>
</g>
<!-- Node4&#45;&gt;Node5 -->
<g id="edge4_Node000004_Node000005" class="edge">
<title>Node4&#45;&gt;Node5</title>
<g id="a_edge4_Node000004_Node000005"><a xlink:title=" ">
<path fill="none" stroke="#63b8ff" d="M552.21,-25.38C560.2,-25.38 568.24,-25.38 576.14,-25.38"/>
<polygon fill="#63b8ff" stroke="#63b8ff" points="552.48,-21.88 542.48,-25.38 552.48,-28.88 552.48,-21.88"/>
</a>
</g>
</g>
</g>
</svg>
