<?xml version="1.0" encoding="UTF-8" standalone="no"?>
<!DOCTYPE svg PUBLIC "-//W3C//DTD SVG 1.1//EN"
 "http://www.w3.org/Graphics/SVG/1.1/DTD/svg11.dtd">
<!-- Generated by graphviz version 11.0.0 (0)
 -->
<!-- Title: DGtal::CowPtr&lt; T &gt; Pages: 1 -->
<!--zoomable 613 -->

<svg id="main" version="1.1" xmlns="http://www.w3.org/2000/svg" xmlns:xlink="http://www.w3.org/1999/xlink" xml:space="preserve" onload="init(evt)">
<style type="text/css"><![CDATA[
.node, .edge {opacity: 0.7;}
.node.selected, .edge.selected {opacity: 1;}
.edge:hover path { stroke: red; }
.edge:hover polygon { stroke: red; fill: red; }
]]></style>

<defs>
  <circle id="rim" cx="0" cy="0" r="7"/>
  <circle id="rim2" cx="0" cy="0" r="3.5"/>
  <g id="zoomPlus">
    <use xlink:href="#rim" fill="#404040"><set attributeName="fill" to="#808080" begin="zoomplus.mouseover" end="zoomplus.mouseout"/></use>
    <path d="M-4,0h8M0,-4v8" fill="none" stroke="white" stroke-width="1.5" pointer-events="none"/>
  </g>
  <g id="zoomMin">
    <use xlink:href="#rim" fill="#404040"><set attributeName="fill" to="#808080" begin="zoomminus.mouseover" end="zoomminus.mouseout"/></use>
    <path d="M-4,0h8" fill="none" stroke="white" stroke-width="1.5" pointer-events="none"/>
  </g>
  <g id="arrowUp" transform="translate(30 24)">
    <use xlink:href="#rim"/>
    <path pointer-events="none" fill="none" stroke="white" stroke-width="1.5" d="M0,-3.0v7 M-2.5,-0.5L0,-3.0L2.5,-0.5"/>
  </g>
  <g id="arrowRight" transform="rotate(90) translate(36 -43)">
    <use xlink:href="#rim"/>
    <path pointer-events="none" fill="none" stroke="white" stroke-width="1.5" d="M0,-3.0v7 M-2.5,-0.5L0,-3.0L2.5,-0.5"/>
  </g>
  <g id="arrowDown" transform="rotate(180) translate(-30 -48)">
    <use xlink:href="#rim"/>
    <path pointer-events="none" fill="none" stroke="white" stroke-width="1.5" d="M0,-3.0v7 M-2.5,-0.5L0,-3.0L2.5,-0.5"/>
  </g>
  <g id="arrowLeft" transform="rotate(270) translate(-36 17)">
    <use xlink:href="#rim"/>
    <path pointer-events="none" fill="none" stroke="white" stroke-width="1.5" d="M0,-3.0v7 M-2.5,-0.5L0,-3.0L2.5,-0.5"/>
  </g>
  <g id="resetDef">
    <use xlink:href="#rim2" fill="#404040"><set attributeName="fill" to="#808080" begin="reset.mouseover" end="reset.mouseout"/></use>
  </g>
</defs>
<script type="application/ecmascript">
var viewWidth = 445;
var viewHeight = 613;
var sectionId = 'dynsection-0';
</script>
<script type="application/ecmascript" xlink:href="svg.min.js"/>
<svg id="graph" class="graph">
<g id="viewport">
<title>DGtal::CowPtr&lt; T &gt;</title>
<!-- Node1 -->
<g id="Node000001" class="node">
<title>Node1</title>
<g id="a_Node000001"><a xlink:title="Aim: Copy on write shared pointer.">
<polygon fill="#999999" stroke="#666666" points="103.75,-322.12 0,-322.12 0,-299.87 103.75,-299.87 103.75,-322.12"/>
<text text-anchor="middle" x="51.88" y="-308.62" font-family="FreeSans" font-size="10.00">DGtal::CowPtr&lt; T &gt;</text>
</a>
</g>
</g>
<!-- Node2 -->
<g id="Node000002" class="node">
<title>Node2</title>
<g id="a_Node000002"><a xlink:href="classDGtal_1_1CowPtr.html" target="_top" xlink:title=" ">
<polygon fill="white" stroke="#666666" points="421.62,-589.12 272.88,-589.12 272.88,-566.87 421.62,-566.87 421.62,-589.12"/>
<text text-anchor="middle" x="347.25" y="-575.62" font-family="FreeSans" font-size="10.00">DGtal::CowPtr&lt; DummyTbl &gt;</text>
</a>
</g>
</g>
<!-- Node1&#45;&gt;Node2 -->
<g id="edge1_Node000001_Node000002" class="edge">
<title>Node1&#45;&gt;Node2</title>
<g id="a_edge1_Node000001_Node000002"><a xlink:title=" ">
<path fill="none" stroke="orange" stroke-dasharray="5,2" d="M56.01,-333.92C64.06,-389.15 87.26,-527.11 121.75,-555.99 165.66,-592.77 232.67,-594.7 282.05,-589.6"/>
<polygon fill="orange" stroke="orange" points="59.49,-333.52 54.62,-324.11 52.56,-334.5 59.49,-333.52"/>
</a>
</g>
<text text-anchor="middle" x="180.62" y="-595.74" font-family="FreeSans" font-size="10.00" fill="grey"> &lt; DummyTbl &gt;</text>
</g>
<!-- Node3 -->
<g id="Node000003" class="node">
<title>Node3</title>
<g id="a_Node000003"><a xlink:href="classDGtal_1_1CowPtr.html" target="_top" xlink:title=" ">
<polygon fill="white" stroke="#666666" points="407.75,-547.24 286.75,-547.24 286.75,-510.74 407.75,-510.74 407.75,-547.24"/>
<text text-anchor="start" x="294.75" y="-533.74" font-family="FreeSans" font-size="10.00">DGtal::CowPtr&lt; DGtal</text>
<text text-anchor="middle" x="347.25" y="-519.49" font-family="FreeSans" font-size="10.00">::SignalData&lt; Value &gt; &gt;</text>
</a>
</g>
</g>
<!-- Node1&#45;&gt;Node3 -->
<g id="edge2_Node000001_Node000003" class="edge">
<title>Node1&#45;&gt;Node3</title>
<g id="a_edge2_Node000001_Node000003"><a xlink:title=" ">
<path fill="none" stroke="orange" stroke-dasharray="5,2" d="M54.12,-333.83C57.63,-373.79 70.97,-456.02 121.75,-496.99 146.38,-516.86 228.6,-524.39 286.37,-527.25"/>
<polygon fill="orange" stroke="orange" points="57.62,-333.68 53.41,-323.96 50.64,-334.19 57.62,-333.68"/>
</a>
</g>
<text text-anchor="start" x="134.88" y="-541.99" font-family="FreeSans" font-size="10.00" fill="grey"> &lt; DGtal::SignalData</text>
<text text-anchor="middle" x="180.62" y="-527.74" font-family="FreeSans" font-size="10.00" fill="grey">&lt; Value &gt; &gt;</text>
</g>
<!-- Node4 -->
<g id="Node000004" class="node">
<title>Node4</title>
<g id="a_Node000004"><a xlink:href="classDGtal_1_1CowPtr.html" target="_top" xlink:title=" ">
<polygon fill="white" stroke="#666666" points="414.5,-493.12 280,-493.12 280,-470.87 414.5,-470.87 414.5,-493.12"/>
<text text-anchor="middle" x="347.25" y="-479.62" font-family="FreeSans" font-size="10.00">DGtal::CowPtr&lt; Domain &gt;</text>
</a>
</g>
</g>
<!-- Node1&#45;&gt;Node4 -->
<g id="edge3_Node000001_Node000004" class="edge">
<title>Node1&#45;&gt;Node4</title>
<g id="a_edge3_Node000001_Node000004"><a xlink:title=" ">
<path fill="none" stroke="orange" stroke-dasharray="5,2" d="M56.53,-333.71C63.16,-366.8 80.5,-427.52 121.75,-456.99 146.36,-474.58 222.82,-480.05 279.71,-481.62"/>
<polygon fill="orange" stroke="orange" points="60,-333.2 54.76,-323.99 53.11,-334.46 60,-333.2"/>
</a>
</g>
<text text-anchor="middle" x="180.62" y="-483.74" font-family="FreeSans" font-size="10.00" fill="grey"> &lt; Domain &gt;</text>
</g>
<!-- Node5 -->
<g id="Node000005" class="node">
<title>Node5</title>
<g id="a_Node000005"><a xlink:href="classDGtal_1_1CowPtr.html" target="_top" xlink:title=" ">
<polygon fill="white" stroke="#666666" points="437,-453.12 257.5,-453.12 257.5,-430.87 437,-430.87 437,-453.12"/>
<text text-anchor="middle" x="347.25" y="-439.62" font-family="FreeSans" font-size="10.00">DGtal::CowPtr&lt; TImageContainer &gt;</text>
</a>
</g>
</g>
<!-- Node1&#45;&gt;Node5 -->
<g id="edge4_Node000001_Node000005" class="edge">
<title>Node1&#45;&gt;Node5</title>
<g id="a_edge4_Node000001_Node000005"><a xlink:title=" ">
<path fill="none" stroke="orange" stroke-dasharray="5,2" d="M62.99,-332.68C74.2,-354.16 94.37,-386.2 121.75,-402.99 162.05,-427.7 213.64,-437.84 257.21,-441.63"/>
<polygon fill="orange" stroke="orange" points="66.21,-331.3 58.63,-323.9 59.94,-334.41 66.21,-331.3"/>
</a>
</g>
<text text-anchor="middle" x="180.62" y="-443.74" font-family="FreeSans" font-size="10.00" fill="grey"> &lt; TImageContainer &gt;</text>
</g>
<!-- Node6 -->
<g id="Node000006" class="node">
<title>Node6</title>
<g id="a_Node000006"><a xlink:href="classDGtal_1_1CowPtr.html" target="_top" xlink:title=" ">
<polygon fill="white" stroke="#666666" points="404.75,-413.24 289.75,-413.24 289.75,-376.74 404.75,-376.74 404.75,-413.24"/>
<text text-anchor="start" x="297.75" y="-399.74" font-family="FreeSans" font-size="10.00">DGtal::CowPtr&lt; const</text>
<text text-anchor="middle" x="347.25" y="-385.49" font-family="FreeSans" font-size="10.00"> Domain &gt;</text>
</a>
</g>
</g>
<!-- Node1&#45;&gt;Node6 -->
<g id="edge5_Node000001_Node000006" class="edge">
<title>Node1&#45;&gt;Node6</title>
<g id="a_edge5_Node000001_Node000006"><a xlink:title=" ">
<path fill="none" stroke="orange" stroke-dasharray="5,2" d="M75.37,-329.56C88.2,-339.21 105.03,-350.35 121.75,-356.99 176.3,-378.67 243.11,-387.98 289.59,-391.98"/>
<polygon fill="orange" stroke="orange" points="77.63,-326.88 67.59,-323.5 73.33,-332.41 77.63,-326.88"/>
</a>
</g>
<text text-anchor="middle" x="180.62" y="-389.74" font-family="FreeSans" font-size="10.00" fill="grey"> &lt; const Domain &gt;</text>
</g>
<!-- Node7 -->
<g id="Node000007" class="node">
<title>Node7</title>
<g id="a_Node000007"><a xlink:href="classDGtal_1_1CowPtr.html" target="_top" xlink:title=" ">
<polygon fill="white" stroke="#666666" points="432.12,-359.12 262.38,-359.12 262.38,-336.87 432.12,-336.87 432.12,-359.12"/>
<text text-anchor="middle" x="347.25" y="-345.62" font-family="FreeSans" font-size="10.00">DGtal::CowPtr&lt; DigitalTopology &gt;</text>
</a>
</g>
</g>
<!-- Node1&#45;&gt;Node7 -->
<g id="edge6_Node000001_Node000007" class="edge">
<title>Node1&#45;&gt;Node7</title>
<g id="a_edge6_Node000001_Node000007"><a xlink:title=" ">
<path fill="none" stroke="orange" stroke-dasharray="5,2" d="M113.83,-324.66C116.5,-325.13 119.15,-325.58 121.75,-325.99 167.88,-333.25 219.75,-338.52 262,-342.08"/>
<polygon fill="orange" stroke="orange" points="114.74,-321.27 104.27,-322.86 113.44,-328.15 114.74,-321.27"/>
</a>
</g>
<text text-anchor="middle" x="180.62" y="-343.74" font-family="FreeSans" font-size="10.00" fill="grey"> &lt; DigitalTopology &gt;</text>
</g>
<!-- Node8 -->
<g id="Node000008" class="node">
<title>Node8</title>
<g id="a_Node000008"><a xlink:href="classDGtal_1_1CowPtr.html" target="_top" xlink:title=" ">
<polygon fill="white" stroke="#666666" points="418.62,-319.12 275.88,-319.12 275.88,-296.87 418.62,-296.87 418.62,-319.12"/>
<text text-anchor="middle" x="347.25" y="-305.62" font-family="FreeSans" font-size="10.00">DGtal::CowPtr&lt; DigitalSet &gt;</text>
</a>
</g>
</g>
<!-- Node1&#45;&gt;Node8 -->
<g id="edge7_Node000001_Node000008" class="edge">
<title>Node1&#45;&gt;Node8</title>
<g id="a_edge7_Node000001_Node000008"><a xlink:title=" ">
<path fill="none" stroke="orange" stroke-dasharray="5,2" d="M115.21,-310.35C162.14,-309.87 226.53,-309.21 275.41,-308.72"/>
<polygon fill="orange" stroke="orange" points="115.45,-306.85 105.49,-310.45 115.53,-313.85 115.45,-306.85"/>
</a>
</g>
<text text-anchor="middle" x="180.62" y="-314.74" font-family="FreeSans" font-size="10.00" fill="grey"> &lt; DigitalSet &gt;</text>
</g>
<!-- Node9 -->
<g id="Node000009" class="node">
<title>Node9</title>
<g id="a_Node000009"><a xlink:href="classDGtal_1_1CowPtr.html" target="_top" xlink:title=" ">
<polygon fill="white" stroke="#666666" points="410.38,-279.24 284.12,-279.24 284.12,-242.74 410.38,-242.74 410.38,-279.24"/>
<text text-anchor="start" x="292.12" y="-265.74" font-family="FreeSans" font-size="10.00">DGtal::CowPtr&lt; DGtal</text>
<text text-anchor="middle" x="347.25" y="-251.49" font-family="FreeSans" font-size="10.00">::SignalData&lt; TValue &gt; &gt;</text>
</a>
</g>
</g>
<!-- Node1&#45;&gt;Node9 -->
<g id="edge8_Node000001_Node000009" class="edge">
<title>Node1&#45;&gt;Node9</title>
<g id="a_edge8_Node000001_Node000009"><a xlink:title=" ">
<path fill="none" stroke="orange" stroke-dasharray="5,2" d="M81,-293.74C93.1,-287.16 107.68,-280.33 121.75,-276.49 175.08,-261.92 238.04,-258.72 283.7,-258.78"/>
<polygon fill="orange" stroke="orange" points="79.36,-290.64 72.39,-298.62 82.81,-296.73 79.36,-290.64"/>
</a>
</g>
<text text-anchor="start" x="134.88" y="-294.99" font-family="FreeSans" font-size="10.00" fill="grey"> &lt; DGtal::SignalData</text>
<text text-anchor="middle" x="180.62" y="-280.74" font-family="FreeSans" font-size="10.00" fill="grey">&lt; TValue &gt; &gt;</text>
</g>
<!-- Node10 -->
<g id="Node000010" class="node">
<title>Node10</title>
<g id="a_Node000010"><a xlink:href="classDGtal_1_1CowPtr.html" target="_top" xlink:title=" ">
<polygon fill="white" stroke="#666666" points="422.75,-224.24 271.75,-224.24 271.75,-187.74 422.75,-187.74 422.75,-224.24"/>
<text text-anchor="start" x="279.75" y="-210.74" font-family="FreeSans" font-size="10.00">DGtal::CowPtr&lt; StabbingLine</text>
<text text-anchor="middle" x="347.25" y="-196.49" font-family="FreeSans" font-size="10.00">Computer&lt; ConstIterator &gt; &gt;</text>
</a>
</g>
</g>
<!-- Node1&#45;&gt;Node10 -->
<g id="edge9_Node000001_Node000010" class="edge">
<title>Node1&#45;&gt;Node10</title>
<g id="a_edge9_Node000001_Node000010"><a xlink:title=" ">
<path fill="none" stroke="orange" stroke-dasharray="5,2" d="M63.87,-289.41C75.36,-269.35 95.39,-240.52 121.75,-226.49 167.36,-202.22 225.62,-197.53 271.36,-198.68"/>
<polygon fill="orange" stroke="orange" points="60.81,-287.72 59.1,-298.18 66.96,-291.07 60.81,-287.72"/>
</a>
</g>
<text text-anchor="start" x="121.75" y="-244.99" font-family="FreeSans" font-size="10.00" fill="grey"> &lt; StabbingLineComputer</text>
<text text-anchor="middle" x="180.62" y="-230.74" font-family="FreeSans" font-size="10.00" fill="grey">&lt; ConstIterator &gt; &gt;</text>
</g>
<!-- Node11 -->
<g id="Node000011" class="node">
<title>Node11</title>
<g id="a_Node000011"><a xlink:href="classDGtal_1_1CowPtr.html" target="_top" xlink:title=" ">
<polygon fill="white" stroke="#666666" points="418.62,-170.12 275.88,-170.12 275.88,-147.87 418.62,-147.87 418.62,-170.12"/>
<text text-anchor="middle" x="347.25" y="-156.62" font-family="FreeSans" font-size="10.00">DGtal::CowPtr&lt; Preimage &gt;</text>
</a>
</g>
</g>
<!-- Node1&#45;&gt;Node11 -->
<g id="edge10_Node000001_Node000011" class="edge">
<title>Node1&#45;&gt;Node11</title>
<g id="a_edge10_Node000001_Node000011"><a xlink:title=" ">
<path fill="none" stroke="orange" stroke-dasharray="5,2" d="M57.73,-288.27C65.53,-257.92 83.97,-205.03 121.75,-179.74 166.56,-149.75 228.14,-146.03 275.48,-148.99"/>
<polygon fill="orange" stroke="orange" points="54.35,-287.39 55.44,-297.93 61.16,-289.01 54.35,-287.39"/>
</a>
</g>
<text text-anchor="middle" x="180.62" y="-183.74" font-family="FreeSans" font-size="10.00" fill="grey"> &lt; Preimage &gt;</text>
</g>
<!-- Node12 -->
<g id="Node000012" class="node">
<title>Node12</title>
<g id="a_Node000012"><a xlink:href="classDGtal_1_1CowPtr.html" target="_top" xlink:title=" ">
<polygon fill="white" stroke="#666666" points="417.12,-130.24 277.38,-130.24 277.38,-93.74 417.12,-93.74 417.12,-130.24"/>
<text text-anchor="start" x="285.38" y="-116.74" font-family="FreeSans" font-size="10.00">DGtal::CowPtr&lt; Geometric</text>
<text text-anchor="middle" x="347.25" y="-102.49" font-family="FreeSans" font-size="10.00">Functor &gt;</text>
</a>
</g>
</g>
<!-- Node1&#45;&gt;Node12 -->
<g id="edge11_Node000001_Node000012" class="edge">
<title>Node1&#45;&gt;Node12</title>
<g id="a_edge11_Node000001_Node000012"><a xlink:title=" ">
<path fill="none" stroke="orange" stroke-dasharray="5,2" d="M54.07,-288.39C57.49,-248.93 70.71,-168 121.75,-129.74 165.62,-96.85 228.81,-94.67 276.97,-99.42"/>
<polygon fill="orange" stroke="orange" points="50.6,-287.91 53.38,-298.13 57.58,-288.41 50.6,-287.91"/>
</a>
</g>
<text text-anchor="middle" x="180.62" y="-133.74" font-family="FreeSans" font-size="10.00" fill="grey"> &lt; GeometricFunctor &gt;</text>
</g>
<!-- Node13 -->
<g id="Node000013" class="node">
<title>Node13</title>
<g id="a_Node000013"><a xlink:href="classDGtal_1_1CowPtr.html" target="_top" xlink:title=" ">
<polygon fill="white" stroke="#666666" points="402.88,-76.12 291.62,-76.12 291.62,-53.87 402.88,-53.87 402.88,-76.12"/>
<text text-anchor="middle" x="347.25" y="-62.62" font-family="FreeSans" font-size="10.00">DGtal::CowPtr&lt; A1 &gt;</text>
</a>
</g>
</g>
<!-- Node1&#45;&gt;Node13 -->
<g id="edge12_Node000001_Node000013" class="edge">
<title>Node1&#45;&gt;Node13</title>
<g id="a_edge12_Node000001_Node000013"><a xlink:title=" ">
<path fill="none" stroke="orange" stroke-dasharray="5,2" d="M56.24,-288.47C64.67,-235.45 88.38,-105.28 121.75,-78.74 171.57,-39.12 248.96,-44.38 298.62,-53.43"/>
<polygon fill="orange" stroke="orange" points="52.82,-287.72 54.75,-298.14 59.74,-288.79 52.82,-287.72"/>
</a>
</g>
<text text-anchor="middle" x="180.62" y="-82.74" font-family="FreeSans" font-size="10.00" fill="grey"> &lt; A1 &gt;</text>
</g>
<!-- Node14 -->
<g id="Node000014" class="node">
<title>Node14</title>
<g id="a_Node000014"><a xlink:href="classDGtal_1_1CowPtr.html" target="_top" xlink:title=" ">
<polygon fill="white" stroke="#666666" points="408.5,-36.12 286,-36.12 286,-13.87 408.5,-13.87 408.5,-36.12"/>
<text text-anchor="middle" x="347.25" y="-22.62" font-family="FreeSans" font-size="10.00">DGtal::CowPtr&lt; Point &gt;</text>
</a>
</g>
</g>
<!-- Node1&#45;&gt;Node14 -->
<g id="edge13_Node000001_Node000014" class="edge">
<title>Node1&#45;&gt;Node14</title>
<g id="a_edge13_Node000001_Node000014"><a xlink:title=" ">
<path fill="none" stroke="orange" stroke-dasharray="5,2" d="M54.93,-288.15C60.97,-226.91 80.82,-61.44 121.75,-28.74 175.5,14.2 261.85,-0.29 310.3,-13.43"/>
<polygon fill="orange" stroke="orange" points="51.45,-287.76 54,-298.05 58.42,-288.42 51.45,-287.76"/>
</a>
</g>
<text text-anchor="middle" x="180.62" y="-32.74" font-family="FreeSans" font-size="10.00" fill="grey"> &lt; Point &gt;</text>
</g>
</g>
</svg>

<g id="navigator" transform="translate(0 0)" fill="#404254">
  <rect fill="#f2f5e9" fill-opacity="0.5" stroke="#606060" stroke-width=".5" x="0" y="0" width="60" height="60"/>
  <use id="zoomplus" xlink:href="#zoomPlus" x="17" y="9" onmousedown="handleZoom(evt,'in')"/>
  <use id="zoomminus" xlink:href="#zoomMin" x="42" y="9" onmousedown="handleZoom(evt,'out')"/>
  <use id="reset" xlink:href="#resetDef" x="30" y="36" onmousedown="handleReset()"/>
   <use id="arrowup" xlink:href="#arrowUp" x="0" y="0" onmousedown="handlePan(0,-1)"/>
  <use id="arrowright" xlink:href="#arrowRight" x="0" y="0" onmousedown="handlePan(1,0)"/>
  <use id="arrowdown" xlink:href="#arrowDown" x="0" y="0" onmousedown="handlePan(0,1)"/>
  <use id="arrowleft" xlink:href="#arrowLeft" x="0" y="0" onmousedown="handlePan(-1,0)"/>
</g>
<svg viewBox="0 0 15 15" width="100%" height="30px" preserveAspectRatio="xMaxYMin meet">
 <g id="arrow_out" transform="scale(0.3 0.3)">
  <a xlink:href="classDGtal_1_1CowPtr__inherit__graph_org.svg" target="_base">
   <rect id="button" ry="5" rx="5" y="6" x="6" height="38" width="38"
        fill="#f2f5e9" fill-opacity="0.5" stroke="#606060" stroke-width="1.0"/>
   <path id="arrow"
     d="M 11.500037,31.436501 C 11.940474,20.09759 22.043105,11.32322 32.158766,21.979434 L 37.068811,17.246167 C 37.068811,17.246167 37.088388,32 37.088388,32 L 22.160133,31.978069 C 22.160133,31.978069 26.997745,27.140456 26.997745,27.140456 C 18.528582,18.264221 13.291696,25.230495 11.500037,31.436501 z"
     style="fill:#404040;"/>
  </a>
 </g>
</svg>

<style type='text/css'>
<![CDATA[
[data-mouse-over-selected='false'] { opacity: 0.7; }
[data-mouse-over-selected='true']  { opacity: 1.0; }
]]>
</style>
<script type="application/ecmascript"><![CDATA[
document.addEventListener('DOMContentLoaded', (event) => {
  highlightEdges();
  highlightAdjacentNodes();
});
]]></script>
</svg>
