<?xml version="1.0" encoding="UTF-8" standalone="no"?>
<!DOCTYPE svg PUBLIC "-//W3C//DTD SVG 1.1//EN"
 "http://www.w3.org/Graphics/SVG/1.1/DTD/svg11.dtd">
<!-- Generated by graphviz version 11.0.0 (0)
 -->
<!-- Title: DGtal::PowerMap&lt; TWeightImage, TPowerSeparableMetric, TImageContainer &gt; Pages: 1 -->
<!--zoomable 184 -->

<svg id="main" version="1.1" xmlns="http://www.w3.org/2000/svg" xmlns:xlink="http://www.w3.org/1999/xlink" xml:space="preserve" onload="init(evt)">
<style type="text/css"><![CDATA[
.node, .edge {opacity: 0.7;}
.node.selected, .edge.selected {opacity: 1;}
.edge:hover path { stroke: red; }
.edge:hover polygon { stroke: red; fill: red; }
]]></style>

<defs>
  <circle id="rim" cx="0" cy="0" r="7"/>
  <circle id="rim2" cx="0" cy="0" r="3.5"/>
  <g id="zoomPlus">
    <use xlink:href="#rim" fill="#404040"><set attributeName="fill" to="#808080" begin="zoomplus.mouseover" end="zoomplus.mouseout"/></use>
    <path d="M-4,0h8M0,-4v8" fill="none" stroke="white" stroke-width="1.5" pointer-events="none"/>
  </g>
  <g id="zoomMin">
    <use xlink:href="#rim" fill="#404040"><set attributeName="fill" to="#808080" begin="zoomminus.mouseover" end="zoomminus.mouseout"/></use>
    <path d="M-4,0h8" fill="none" stroke="white" stroke-width="1.5" pointer-events="none"/>
  </g>
  <g id="arrowUp" transform="translate(30 24)">
    <use xlink:href="#rim"/>
    <path pointer-events="none" fill="none" stroke="white" stroke-width="1.5" d="M0,-3.0v7 M-2.5,-0.5L0,-3.0L2.5,-0.5"/>
  </g>
  <g id="arrowRight" transform="rotate(90) translate(36 -43)">
    <use xlink:href="#rim"/>
    <path pointer-events="none" fill="none" stroke="white" stroke-width="1.5" d="M0,-3.0v7 M-2.5,-0.5L0,-3.0L2.5,-0.5"/>
  </g>
  <g id="arrowDown" transform="rotate(180) translate(-30 -48)">
    <use xlink:href="#rim"/>
    <path pointer-events="none" fill="none" stroke="white" stroke-width="1.5" d="M0,-3.0v7 M-2.5,-0.5L0,-3.0L2.5,-0.5"/>
  </g>
  <g id="arrowLeft" transform="rotate(270) translate(-36 17)">
    <use xlink:href="#rim"/>
    <path pointer-events="none" fill="none" stroke="white" stroke-width="1.5" d="M0,-3.0v7 M-2.5,-0.5L0,-3.0L2.5,-0.5"/>
  </g>
  <g id="resetDef">
    <use xlink:href="#rim2" fill="#404040"><set attributeName="fill" to="#808080" begin="reset.mouseover" end="reset.mouseout"/></use>
  </g>
</defs>
<script type="application/ecmascript">
var viewWidth = 626;
var viewHeight = 184;
var sectionId = 'dynsection-0';
</script>
<script type="application/ecmascript" xlink:href="svg.min.js"/>
<svg id="graph" class="graph">
<g id="viewport">
<title>DGtal::PowerMap&lt; TWeightImage, TPowerSeparableMetric, TImageContainer &gt;</title>
<!-- Node1 -->
<g id="Node000001" class="node">
<title>Node1</title>
<g id="a_Node000001"><a xlink:title="Aim: Implementation of the linear in time Power map construction.">
<polygon fill="#999999" stroke="#666666" points="165.25,-127.25 0,-127.25 0,-76.5 165.25,-76.5 165.25,-127.25"/>
<text text-anchor="start" x="8" y="-113.75" font-family="FreeSans" font-size="10.00">DGtal::PowerMap&lt; TWeight</text>
<text text-anchor="start" x="8" y="-99.5" font-family="FreeSans" font-size="10.00">Image, TPowerSeparableMetric,</text>
<text text-anchor="middle" x="82.62" y="-85.25" font-family="FreeSans" font-size="10.00"> TImageContainer &gt;</text>
</a>
</g>
</g>
<!-- Node2 -->
<g id="Node000002" class="node">
<title>Node2</title>
<g id="a_Node000002"><a xlink:href="classDGtal_1_1ReverseDistanceTransformation.html" target="_top" xlink:title="Aim: Implementation of the linear in time reverse distance transformation for separable metrics.">
<polygon fill="white" stroke="#666666" points="617.75,-176.25 421,-176.25 421,-125.5 617.75,-125.5 617.75,-176.25"/>
<text text-anchor="start" x="429" y="-162.75" font-family="FreeSans" font-size="10.00">DGtal::ReverseDistanceTransformation</text>
<text text-anchor="start" x="429" y="-148.5" font-family="FreeSans" font-size="10.00">&lt; TWeightImage, TPSeparableMetric,</text>
<text text-anchor="middle" x="519.38" y="-134.25" font-family="FreeSans" font-size="10.00"> TImageContainer &gt;</text>
</a>
</g>
</g>
<!-- Node1&#45;&gt;Node2 -->
<g id="edge1_Node000001_Node000002" class="edge">
<title>Node1&#45;&gt;Node2</title>
<g id="a_edge1_Node000001_Node000002"><a xlink:title=" ">
<path fill="none" stroke="#63b8ff" d="M176.73,-127.72C178.92,-128.13 181.1,-128.52 183.25,-128.88 262.48,-142.08 353.47,-147.44 420.63,-149.58"/>
<polygon fill="#63b8ff" stroke="#63b8ff" points="177.68,-124.34 167.19,-125.79 176.3,-131.2 177.68,-124.34"/>
</a>
</g>
</g>
<!-- Node3 -->
<g id="Node000003" class="node">
<title>Node3</title>
<g id="a_Node000003"><a xlink:href="classDGtal_1_1PowerMap.html" target="_top" xlink:title=" ">
<polygon fill="white" stroke="#666666" points="614,-107.75 424.75,-107.75 424.75,0 614,0 614,-107.75"/>
<text text-anchor="start" x="432.75" y="-94.25" font-family="FreeSans" font-size="10.00">DGtal::PowerMap&lt; TWeight</text>
<text text-anchor="start" x="432.75" y="-80" font-family="FreeSans" font-size="10.00">Image, TPSeparableMetric,</text>
<text text-anchor="start" x="432.75" y="-65.75" font-family="FreeSans" font-size="10.00"> ImageContainerBySTLVector</text>
<text text-anchor="start" x="432.75" y="-51.5" font-family="FreeSans" font-size="10.00">&lt; HyperRectDomain&lt; typename</text>
<text text-anchor="start" x="432.75" y="-37.25" font-family="FreeSans" font-size="10.00"> TWeightImage::Domain::Space</text>
<text text-anchor="start" x="432.75" y="-23" font-family="FreeSans" font-size="10.00"> &gt;, typename TWeightImage::Domain</text>
<text text-anchor="middle" x="519.38" y="-8.75" font-family="FreeSans" font-size="10.00">::Space::Vector &gt; &gt;</text>
</a>
</g>
</g>
<!-- Node1&#45;&gt;Node3 -->
<g id="edge2_Node000001_Node000003" class="edge">
<title>Node1&#45;&gt;Node3</title>
<g id="a_edge2_Node000001_Node000003"><a xlink:title=" ">
<path fill="none" stroke="orange" stroke-dasharray="5,2" d="M141.62,-71.41C154.95,-65.75 169.32,-60.66 183.25,-57.62 263.27,-40.19 356.6,-40.79 424.42,-44.87"/>
<polygon fill="orange" stroke="orange" points="140.28,-68.17 132.56,-75.43 143.12,-74.57 140.28,-68.17"/>
</a>
</g>
<text text-anchor="start" x="183.25" y="-118.62" font-family="FreeSans" font-size="10.00" fill="grey"> &lt; TWeightImage, TPSeparable</text>
<text text-anchor="start" x="183.25" y="-104.38" font-family="FreeSans" font-size="10.00" fill="grey">Metric, ImageContainerBySTLVector</text>
<text text-anchor="start" x="183.25" y="-90.12" font-family="FreeSans" font-size="10.00" fill="grey">&lt; HyperRectDomain&lt; typename TWeightImage</text>
<text text-anchor="start" x="183.25" y="-75.88" font-family="FreeSans" font-size="10.00" fill="grey">::Domain::Space &gt;, typename TWeightImage</text>
<text text-anchor="middle" x="293.12" y="-61.62" font-family="FreeSans" font-size="10.00" fill="grey">::Domain::Space::Vector &gt; &gt;</text>
</g>
</g>
</svg>

<g id="navigator" transform="translate(0 0)" fill="#404254">
  <rect fill="#f2f5e9" fill-opacity="0.5" stroke="#606060" stroke-width=".5" x="0" y="0" width="60" height="60"/>
  <use id="zoomplus" xlink:href="#zoomPlus" x="17" y="9" onmousedown="handleZoom(evt,'in')"/>
  <use id="zoomminus" xlink:href="#zoomMin" x="42" y="9" onmousedown="handleZoom(evt,'out')"/>
  <use id="reset" xlink:href="#resetDef" x="30" y="36" onmousedown="handleReset()"/>
   <use id="arrowup" xlink:href="#arrowUp" x="0" y="0" onmousedown="handlePan(0,-1)"/>
  <use id="arrowright" xlink:href="#arrowRight" x="0" y="0" onmousedown="handlePan(1,0)"/>
  <use id="arrowdown" xlink:href="#arrowDown" x="0" y="0" onmousedown="handlePan(0,1)"/>
  <use id="arrowleft" xlink:href="#arrowLeft" x="0" y="0" onmousedown="handlePan(-1,0)"/>
</g>
<svg viewBox="0 0 15 15" width="100%" height="30px" preserveAspectRatio="xMaxYMin meet">
 <g id="arrow_out" transform="scale(0.3 0.3)">
  <a xlink:href="classDGtal_1_1PowerMap__inherit__graph_org.svg" target="_base">
   <rect id="button" ry="5" rx="5" y="6" x="6" height="38" width="38"
        fill="#f2f5e9" fill-opacity="0.5" stroke="#606060" stroke-width="1.0"/>
   <path id="arrow"
     d="M 11.500037,31.436501 C 11.940474,20.09759 22.043105,11.32322 32.158766,21.979434 L 37.068811,17.246167 C 37.068811,17.246167 37.088388,32 37.088388,32 L 22.160133,31.978069 C 22.160133,31.978069 26.997745,27.140456 26.997745,27.140456 C 18.528582,18.264221 13.291696,25.230495 11.500037,31.436501 z"
     style="fill:#404040;"/>
  </a>
 </g>
</svg>

<style type='text/css'>
<![CDATA[
[data-mouse-over-selected='false'] { opacity: 0.7; }
[data-mouse-over-selected='true']  { opacity: 1.0; }
]]>
</style>
<script type="application/ecmascript"><![CDATA[
document.addEventListener('DOMContentLoaded', (event) => {
  highlightEdges();
  highlightAdjacentNodes();
});
]]></script>
</svg>
