<?xml version="1.0" encoding="UTF-8" standalone="no"?>
<!DOCTYPE svg PUBLIC "-//W3C//DTD SVG 1.1//EN"
 "http://www.w3.org/Graphics/SVG/1.1/DTD/svg11.dtd">
<!-- Generated by graphviz version 11.0.0 (0)
 -->
<!-- Title: DGtal::ArithmeticalDSL&lt; TCoordinate, TInteger, adjacency &gt; Pages: 1 -->
<svg width="677pt" height="169pt"
 viewBox="0.00 0.00 677.00 168.50" xmlns="http://www.w3.org/2000/svg" xmlns:xlink="http://www.w3.org/1999/xlink">
<g id="graph0" class="graph" transform="scale(1 1) rotate(0) translate(4 164.5)">
<title>DGtal::ArithmeticalDSL&lt; TCoordinate, TInteger, adjacency &gt;</title>
<!-- Node1 -->
<g id="Node000001" class="node">
<title>Node1</title>
<g id="a_Node000001"><a xlink:title="Aim: This class represents a naive (resp. standard) digital straight line (DSL), ie....">
<polygon fill="#999999" stroke="#666666" points="127.75,-105.62 0,-105.62 0,-54.88 127.75,-54.88 127.75,-105.62"/>
<text text-anchor="start" x="8" y="-92.12" font-family="FreeSans" font-size="10.00">DGtal::ArithmeticalDSL</text>
<text text-anchor="start" x="8" y="-77.88" font-family="FreeSans" font-size="10.00">&lt; TCoordinate, TInteger,</text>
<text text-anchor="middle" x="63.88" y="-63.62" font-family="FreeSans" font-size="10.00"> adjacency &gt;</text>
</a>
</g>
</g>
<!-- Node2 -->
<g id="Node000002" class="node">
<title>Node2</title>
<g id="a_Node000002"><a xlink:href="classDGtal_1_1ArithmeticalDSL.html" target="_top" xlink:title=" ">
<polygon fill="white" stroke="#666666" points="473,-160.5 311.5,-160.5 311.5,-124 473,-124 473,-160.5"/>
<text text-anchor="start" x="319.5" y="-147" font-family="FreeSans" font-size="10.00">DGtal::ArithmeticalDSL</text>
<text text-anchor="middle" x="392.25" y="-132.75" font-family="FreeSans" font-size="10.00">&lt; TCoordinate, TCoordinate, 8 &gt;</text>
</a>
</g>
</g>
<!-- Node1&#45;&gt;Node2 -->
<g id="edge1_Node000001_Node000002" class="edge">
<title>Node1&#45;&gt;Node2</title>
<g id="a_edge1_Node000001_Node000002"><a xlink:title=" ">
<path fill="none" stroke="orange" stroke-dasharray="5,2" d="M133.44,-109.68C137.57,-111 141.69,-112.2 145.75,-113.25 199.98,-127.24 262.72,-134.5 311.2,-138.26"/>
<polygon fill="orange" stroke="orange" points="134.58,-106.37 123.98,-106.45 132.32,-113 134.58,-106.37"/>
</a>
</g>
<text text-anchor="middle" x="219.62" y="-141" font-family="FreeSans" font-size="10.00" fill="grey"> &lt; TCoordinate, TCoordinate, 8 &gt;</text>
</g>
<!-- Node4 -->
<g id="Node000004" class="node">
<title>Node4</title>
<g id="a_Node000004"><a xlink:href="classDGtal_1_1ArithmeticalDSL.html" target="_top" xlink:title=" ">
<polygon fill="white" stroke="#666666" points="453.5,-105.62 331,-105.62 331,-54.88 453.5,-54.88 453.5,-105.62"/>
<text text-anchor="start" x="339" y="-92.12" font-family="FreeSans" font-size="10.00">DGtal::ArithmeticalDSL</text>
<text text-anchor="start" x="339" y="-77.88" font-family="FreeSans" font-size="10.00">&lt; Coordinate, Integer,</text>
<text text-anchor="middle" x="392.25" y="-63.62" font-family="FreeSans" font-size="10.00"> adjacency &gt;</text>
</a>
</g>
</g>
<!-- Node1&#45;&gt;Node4 -->
<g id="edge3_Node000001_Node000004" class="edge">
<title>Node1&#45;&gt;Node4</title>
<g id="a_edge3_Node000001_Node000004"><a xlink:title=" ">
<path fill="none" stroke="orange" stroke-dasharray="5,2" d="M139.47,-80.25C197.35,-80.25 276.57,-80.25 330.59,-80.25"/>
<polygon fill="orange" stroke="orange" points="139.7,-76.75 129.7,-80.25 139.7,-83.75 139.7,-76.75"/>
</a>
</g>
<text text-anchor="start" x="167.88" y="-99.25" font-family="FreeSans" font-size="10.00" fill="grey"> &lt; Coordinate, Integer,</text>
<text text-anchor="middle" x="219.62" y="-85" font-family="FreeSans" font-size="10.00" fill="grey"> adjacency &gt;</text>
</g>
<!-- Node5 -->
<g id="Node000005" class="node">
<title>Node5</title>
<g id="a_Node000005"><a xlink:href="classDGtal_1_1ArithmeticalDSL.html" target="_top" xlink:title=" ">
<polygon fill="white" stroke="#666666" points="473,-36.5 311.5,-36.5 311.5,0 473,0 473,-36.5"/>
<text text-anchor="start" x="319.5" y="-23" font-family="FreeSans" font-size="10.00">DGtal::ArithmeticalDSL</text>
<text text-anchor="middle" x="392.25" y="-8.75" font-family="FreeSans" font-size="10.00">&lt; TCoordinate, TCoordinate, 4 &gt;</text>
</a>
</g>
</g>
<!-- Node1&#45;&gt;Node5 -->
<g id="edge4_Node000001_Node000005" class="edge">
<title>Node1&#45;&gt;Node5</title>
<g id="a_edge4_Node000001_Node000005"><a xlink:title=" ">
<path fill="none" stroke="orange" stroke-dasharray="5,2" d="M139.16,-63.35C141.38,-62.89 143.58,-62.44 145.75,-62 200.81,-50.89 263.12,-39.8 311.19,-31.57"/>
<polygon fill="orange" stroke="orange" points="138.49,-59.91 129.43,-65.41 139.94,-66.76 138.49,-59.91"/>
</a>
</g>
<text text-anchor="middle" x="219.62" y="-66" font-family="FreeSans" font-size="10.00" fill="grey"> &lt; TCoordinate, TCoordinate, 4 &gt;</text>
</g>
<!-- Node3 -->
<g id="Node000003" class="node">
<title>Node3</title>
<g id="a_Node000003"><a xlink:href="classDGtal_1_1NaiveDSL.html" target="_top" xlink:title="Aim: This class is an alias of ArithmeticalDSS for naive DSL. It represents a naive digital straight ...">
<polygon fill="white" stroke="#666666" points="669,-160.5 509,-160.5 509,-124 669,-124 669,-160.5"/>
<text text-anchor="start" x="517" y="-147" font-family="FreeSans" font-size="10.00">DGtal::NaiveDSL&lt; TCoordinate,</text>
<text text-anchor="middle" x="589" y="-132.75" font-family="FreeSans" font-size="10.00"> TInteger &gt;</text>
</a>
</g>
</g>
<!-- Node2&#45;&gt;Node3 -->
<g id="edge2_Node000002_Node000003" class="edge">
<title>Node2&#45;&gt;Node3</title>
<g id="a_edge2_Node000002_Node000003"><a xlink:title=" ">
<path fill="none" stroke="#63b8ff" d="M484.58,-142.25C492.59,-142.25 500.66,-142.25 508.57,-142.25"/>
<polygon fill="#63b8ff" stroke="#63b8ff" points="484.82,-138.75 474.82,-142.25 484.82,-145.75 484.82,-138.75"/>
</a>
</g>
</g>
<!-- Node6 -->
<g id="Node000006" class="node">
<title>Node6</title>
<g id="a_Node000006"><a xlink:href="classDGtal_1_1StandardDSL.html" target="_top" xlink:title="Aim: This class is an alias of ArithmeticalDSS for standard DSL. It represents a standard digital str...">
<polygon fill="white" stroke="#666666" points="656.62,-36.5 521.38,-36.5 521.38,0 656.62,0 656.62,-36.5"/>
<text text-anchor="start" x="529.38" y="-23" font-family="FreeSans" font-size="10.00">DGtal::StandardDSL</text>
<text text-anchor="middle" x="589" y="-8.75" font-family="FreeSans" font-size="10.00">&lt; TCoordinate, TInteger &gt;</text>
</a>
</g>
</g>
<!-- Node5&#45;&gt;Node6 -->
<g id="edge5_Node000005_Node000006" class="edge">
<title>Node5&#45;&gt;Node6</title>
<g id="a_edge5_Node000005_Node000006"><a xlink:title=" ">
<path fill="none" stroke="#63b8ff" d="M484.53,-18.25C496.81,-18.25 509.22,-18.25 520.98,-18.25"/>
<polygon fill="#63b8ff" stroke="#63b8ff" points="484.82,-14.75 474.82,-18.25 484.82,-21.75 484.82,-14.75"/>
</a>
</g>
</g>
</g>
</svg>
