<?xml version="1.0" encoding="UTF-8" standalone="no"?>
<!DOCTYPE svg PUBLIC "-//W3C//DTD SVG 1.1//EN"
 "http://www.w3.org/Graphics/SVG/1.1/DTD/svg11.dtd">
<!-- Generated by graphviz version 11.0.0 (0)
 -->
<!-- Title: DGtal::detail::DSSDecorator&lt; TDSS &gt; Pages: 1 -->
<svg width="340pt" height="100pt"
 viewBox="0.00 0.00 340.00 99.50" xmlns="http://www.w3.org/2000/svg" xmlns:xlink="http://www.w3.org/1999/xlink">
<g id="graph0" class="graph" transform="scale(1 1) rotate(0) translate(4 95.5)">
<title>DGtal::detail::DSSDecorator&lt; TDSS &gt;</title>
<!-- Node1 -->
<g id="Node000001" class="node">
<title>Node1</title>
<g id="a_Node000001"><a xlink:title="Aim: Abstract DSSDecorator for ArithmeticalDSSComputer. Has 2 virtual methods returning the first and...">
<polygon fill="#999999" stroke="#666666" points="145,-63.5 0,-63.5 0,-27 145,-27 145,-63.5"/>
<text text-anchor="start" x="8" y="-50" font-family="FreeSans" font-size="10.00">DGtal::detail::DSSDecorator</text>
<text text-anchor="middle" x="72.5" y="-35.75" font-family="FreeSans" font-size="10.00">&lt; TDSS &gt;</text>
</a>
</g>
</g>
<!-- Node2 -->
<g id="Node000002" class="node">
<title>Node2</title>
<g id="a_Node000002"><a xlink:href="classDGtal_1_1detail_1_1DSSDecorator4ConcavePart.html" target="_top" xlink:title="Aim: adapter for TDSS used by FP in CONCAVE parts. Has 2 methods:">
<polygon fill="white" stroke="#666666" points="332,-91.5 181,-91.5 181,-55 332,-55 332,-91.5"/>
<text text-anchor="start" x="189" y="-78" font-family="FreeSans" font-size="10.00">DGtal::detail::DSSDecorator4</text>
<text text-anchor="middle" x="256.5" y="-63.75" font-family="FreeSans" font-size="10.00">ConcavePart&lt; TDSS &gt;</text>
</a>
</g>
</g>
<!-- Node1&#45;&gt;Node2 -->
<g id="edge1_Node000001_Node000002" class="edge">
<title>Node1&#45;&gt;Node2</title>
<g id="a_edge1_Node000001_Node000002"><a xlink:title=" ">
<path fill="none" stroke="#63b8ff" d="M156.61,-58.04C164.58,-59.26 172.62,-60.5 180.51,-61.71"/>
<polygon fill="#63b8ff" stroke="#63b8ff" points="157.34,-54.61 146.93,-56.55 156.28,-61.53 157.34,-54.61"/>
</a>
</g>
</g>
<!-- Node3 -->
<g id="Node000003" class="node">
<title>Node3</title>
<g id="a_Node000003"><a xlink:href="classDGtal_1_1detail_1_1DSSDecorator4ConvexPart.html" target="_top" xlink:title="Aim: adapter for TDSS used by FP in CONVEX parts. Has 2 methods:">
<polygon fill="white" stroke="#666666" points="332,-36.5 181,-36.5 181,0 332,0 332,-36.5"/>
<text text-anchor="start" x="189" y="-23" font-family="FreeSans" font-size="10.00">DGtal::detail::DSSDecorator4</text>
<text text-anchor="middle" x="256.5" y="-8.75" font-family="FreeSans" font-size="10.00">ConvexPart&lt; TDSS &gt;</text>
</a>
</g>
</g>
<!-- Node1&#45;&gt;Node3 -->
<g id="edge2_Node000001_Node000003" class="edge">
<title>Node1&#45;&gt;Node3</title>
<g id="a_edge2_Node000001_Node000003"><a xlink:title=" ">
<path fill="none" stroke="#63b8ff" d="M156.61,-32.92C164.58,-31.74 172.62,-30.54 180.51,-29.38"/>
<polygon fill="#63b8ff" stroke="#63b8ff" points="156.31,-29.43 146.93,-34.36 157.33,-36.35 156.31,-29.43"/>
</a>
</g>
</g>
</g>
</svg>
