<?xml version="1.0" encoding="UTF-8" standalone="no"?>
<!DOCTYPE svg PUBLIC "-//W3C//DTD SVG 1.1//EN"
 "http://www.w3.org/Graphics/SVG/1.1/DTD/svg11.dtd">
<!-- Generated by graphviz version 11.0.0 (0)
 -->
<!-- Title: DGtal::PointVector&lt; dim, TEuclideanRing, TContainer &gt; Pages: 1 -->
<svg width="406pt" height="444pt"
 viewBox="0.00 0.00 406.00 443.50" xmlns="http://www.w3.org/2000/svg" xmlns:xlink="http://www.w3.org/1999/xlink">

<svg id="main" version="1.1" xmlns="http://www.w3.org/2000/svg" xmlns:xlink="http://www.w3.org/1999/xlink" xml:space="preserve" onload="init(evt)">
<style type="text/css"><![CDATA[
.node, .edge {opacity: 0.7;}
.node.selected, .edge.selected {opacity: 1;}
.edge:hover path { stroke: red; }
.edge:hover polygon { stroke: red; fill: red; }
]]></style>
<script type="application/ecmascript" xlink:href="svg.min.js"/>
<svg id="graph" class="graph">
<g id="graph0" class="graph" transform="scale(1 1) rotate(0) translate(4 439.5)">
<title>DGtal::PointVector&lt; dim, TEuclideanRing, TContainer &gt;</title>
<!-- Node1 -->
<g id="Node000001" class="node">
<title>Node1</title>
<g id="a_Node000001"><a xlink:title="Aim: Implements basic operations that will be used in Point and Vector classes.">
<polygon fill="#999999" stroke="#666666" points="118.75,-249.62 0,-249.62 0,-198.88 118.75,-198.88 118.75,-249.62"/>
<text text-anchor="start" x="8" y="-236.12" font-family="FreeSans" font-size="10.00">DGtal::PointVector</text>
<text text-anchor="start" x="8" y="-221.88" font-family="FreeSans" font-size="10.00">&lt; dim, TEuclideanRing,</text>
<text text-anchor="middle" x="59.38" y="-207.62" font-family="FreeSans" font-size="10.00"> TContainer &gt;</text>
</a>
</g>
</g>
<!-- Node2 -->
<g id="Node000002" class="node">
<title>Node2</title>
<g id="a_Node000002"><a xlink:href="classDGtal_1_1PointVector.html" target="_top" xlink:title=" ">
<polygon fill="white" stroke="#666666" points="385.25,-435.5 282.25,-435.5 282.25,-399 385.25,-399 385.25,-435.5"/>
<text text-anchor="start" x="290.25" y="-422" font-family="FreeSans" font-size="10.00">DGtal::PointVector</text>
<text text-anchor="middle" x="333.75" y="-407.75" font-family="FreeSans" font-size="10.00">&lt; 2, Integer &gt;</text>
</a>
</g>
</g>
<!-- Node1&#45;&gt;Node2 -->
<g id="edge1_Node000001_Node000002" class="edge">
<title>Node1&#45;&gt;Node2</title>
<g id="a_edge1_Node000001_Node000002"><a xlink:title=" ">
<path fill="none" stroke="orange" stroke-dasharray="5,2" d="M70.68,-261.05C81.73,-293.73 102.48,-340.37 136.75,-367.25 178.48,-399.97 239.17,-411.49 281.94,-415.43"/>
<polygon fill="orange" stroke="orange" points="74.03,-260.01 67.63,-251.56 67.36,-262.16 74.03,-260.01"/>
</a>
</g>
<text text-anchor="middle" x="194.12" y="-416" font-family="FreeSans" font-size="10.00" fill="grey"> &lt; 2, Integer &gt;</text>
</g>
<!-- Node3 -->
<g id="Node000003" class="node">
<title>Node3</title>
<g id="a_Node000003"><a xlink:href="classDGtal_1_1PointVector.html" target="_top" xlink:title=" ">
<polygon fill="white" stroke="#666666" points="392.38,-380.5 275.12,-380.5 275.12,-344 392.38,-344 392.38,-380.5"/>
<text text-anchor="start" x="283.12" y="-367" font-family="FreeSans" font-size="10.00">DGtal::PointVector</text>
<text text-anchor="middle" x="333.75" y="-352.75" font-family="FreeSans" font-size="10.00">&lt; 3, InternalInteger &gt;</text>
</a>
</g>
</g>
<!-- Node1&#45;&gt;Node3 -->
<g id="edge2_Node000001_Node000003" class="edge">
<title>Node1&#45;&gt;Node3</title>
<g id="a_edge2_Node000001_Node000003"><a xlink:title=" ">
<path fill="none" stroke="orange" stroke-dasharray="5,2" d="M84.2,-258.59C97.77,-275.79 116.16,-295.6 136.75,-308.25 179,-334.21 233.92,-347.94 274.86,-355.04"/>
<polygon fill="orange" stroke="orange" points="87.32,-256.92 78.47,-251.09 81.75,-261.16 87.32,-256.92"/>
</a>
</g>
<text text-anchor="middle" x="194.12" y="-354" font-family="FreeSans" font-size="10.00" fill="grey"> &lt; 3, InternalInteger &gt;</text>
</g>
<!-- Node4 -->
<g id="Node000004" class="node">
<title>Node4</title>
<g id="a_Node000004"><a xlink:href="classDGtal_1_1PointVector.html" target="_top" xlink:title=" ">
<polygon fill="white" stroke="#666666" points="387.88,-325.5 279.62,-325.5 279.62,-289 387.88,-289 387.88,-325.5"/>
<text text-anchor="start" x="287.62" y="-312" font-family="FreeSans" font-size="10.00">DGtal::PointVector</text>
<text text-anchor="middle" x="333.75" y="-297.75" font-family="FreeSans" font-size="10.00">&lt; 3, InternalScalar &gt;</text>
</a>
</g>
</g>
<!-- Node1&#45;&gt;Node4 -->
<g id="edge3_Node000001_Node000004" class="edge">
<title>Node1&#45;&gt;Node4</title>
<g id="a_edge3_Node000001_Node000004"><a xlink:title=" ">
<path fill="none" stroke="orange" stroke-dasharray="5,2" d="M121.77,-254.5C126.79,-256.57 131.82,-258.52 136.75,-260.25 183.96,-276.84 239.58,-289.56 279.49,-297.56"/>
<polygon fill="orange" stroke="orange" points="123.5,-251.44 112.93,-250.71 120.74,-257.87 123.5,-251.44"/>
</a>
</g>
<text text-anchor="middle" x="194.12" y="-295" font-family="FreeSans" font-size="10.00" fill="grey"> &lt; 3, InternalScalar &gt;</text>
</g>
<!-- Node5 -->
<g id="Node000005" class="node">
<title>Node5</title>
<g id="a_Node000005"><a xlink:href="classDGtal_1_1PointVector.html" target="_top" xlink:title=" ">
<polygon fill="white" stroke="#666666" points="398,-270.5 269.5,-270.5 269.5,-234 398,-234 398,-270.5"/>
<text text-anchor="start" x="277.5" y="-257" font-family="FreeSans" font-size="10.00">DGtal::PointVector</text>
<text text-anchor="middle" x="333.75" y="-242.75" font-family="FreeSans" font-size="10.00">&lt; dim, InternalInteger &gt;</text>
</a>
</g>
</g>
<!-- Node1&#45;&gt;Node5 -->
<g id="edge4_Node000001_Node000005" class="edge">
<title>Node1&#45;&gt;Node5</title>
<g id="a_edge4_Node000001_Node000005"><a xlink:title=" ">
<path fill="none" stroke="orange" stroke-dasharray="5,2" d="M130.34,-231.44C173.24,-235.85 227.71,-241.45 269.34,-245.73"/>
<polygon fill="orange" stroke="orange" points="130.95,-227.99 120.65,-230.45 130.24,-234.95 130.95,-227.99"/>
</a>
</g>
<text text-anchor="middle" x="194.12" y="-247" font-family="FreeSans" font-size="10.00" fill="grey"> &lt; dim, InternalInteger &gt;</text>
</g>
<!-- Node6 -->
<g id="Node000006" class="node">
<title>Node6</title>
<g id="a_Node000006"><a xlink:href="classDGtal_1_1PointVector.html" target="_top" xlink:title=" ">
<polygon fill="white" stroke="#666666" points="385.25,-215.5 282.25,-215.5 282.25,-179 385.25,-179 385.25,-215.5"/>
<text text-anchor="start" x="290.25" y="-202" font-family="FreeSans" font-size="10.00">DGtal::PointVector</text>
<text text-anchor="middle" x="333.75" y="-187.75" font-family="FreeSans" font-size="10.00">&lt; dim, Integer &gt;</text>
</a>
</g>
</g>
<!-- Node1&#45;&gt;Node6 -->
<g id="edge5_Node000001_Node000006" class="edge">
<title>Node1&#45;&gt;Node6</title>
<g id="a_edge5_Node000001_Node000006"><a xlink:title=" ">
<path fill="none" stroke="orange" stroke-dasharray="5,2" d="M130.52,-216.64C132.62,-216.42 134.7,-216.21 136.75,-216 186.06,-210.98 242.39,-205.63 281.97,-201.94"/>
<polygon fill="orange" stroke="orange" points="130.25,-213.15 120.67,-217.67 130.98,-220.11 130.25,-213.15"/>
</a>
</g>
<text text-anchor="middle" x="194.12" y="-220" font-family="FreeSans" font-size="10.00" fill="grey"> &lt; dim, Integer &gt;</text>
</g>
<!-- Node7 -->
<g id="Node000007" class="node">
<title>Node7</title>
<g id="a_Node000007"><a xlink:href="classDGtal_1_1PointVector.html" target="_top" xlink:title=" ">
<polygon fill="white" stroke="#666666" points="387.88,-160.62 279.62,-160.62 279.62,-109.88 387.88,-109.88 387.88,-160.62"/>
<text text-anchor="start" x="287.62" y="-147.12" font-family="FreeSans" font-size="10.00">DGtal::PointVector</text>
<text text-anchor="start" x="287.62" y="-132.88" font-family="FreeSans" font-size="10.00">&lt; Space::dimension,</text>
<text text-anchor="middle" x="333.75" y="-118.62" font-family="FreeSans" font-size="10.00"> Real &gt;</text>
</a>
</g>
</g>
<!-- Node1&#45;&gt;Node7 -->
<g id="edge6_Node000001_Node000007" class="edge">
<title>Node1&#45;&gt;Node7</title>
<g id="a_edge6_Node000001_Node000007"><a xlink:title=" ">
<path fill="none" stroke="orange" stroke-dasharray="5,2" d="M100.42,-192.11C111.64,-184.43 124.21,-176.95 136.75,-171.75 182.79,-152.65 239.05,-143.49 279.47,-139.13"/>
<polygon fill="orange" stroke="orange" points="98.7,-189.04 92.58,-197.7 102.75,-194.75 98.7,-189.04"/>
</a>
</g>
<text text-anchor="start" x="146.88" y="-190.25" font-family="FreeSans" font-size="10.00" fill="grey"> &lt; Space::dimension,</text>
<text text-anchor="middle" x="194.12" y="-176" font-family="FreeSans" font-size="10.00" fill="grey"> Real &gt;</text>
</g>
<!-- Node8 -->
<g id="Node000008" class="node">
<title>Node8</title>
<g id="a_Node000008"><a xlink:href="classDGtal_1_1PointVector.html" target="_top" xlink:title=" ">
<polygon fill="white" stroke="#666666" points="385.25,-91.5 282.25,-91.5 282.25,-55 385.25,-55 385.25,-91.5"/>
<text text-anchor="start" x="290.25" y="-78" font-family="FreeSans" font-size="10.00">DGtal::PointVector</text>
<text text-anchor="middle" x="333.75" y="-63.75" font-family="FreeSans" font-size="10.00">&lt; 2, double &gt;</text>
</a>
</g>
</g>
<!-- Node1&#45;&gt;Node8 -->
<g id="edge7_Node000001_Node000008" class="edge">
<title>Node1&#45;&gt;Node8</title>
<g id="a_edge7_Node000001_Node000008"><a xlink:title=" ">
<path fill="none" stroke="orange" stroke-dasharray="5,2" d="M79.3,-188.61C92.61,-166.86 112.37,-140.2 136.75,-124 180.52,-94.91 240.01,-82.49 281.93,-77.19"/>
<polygon fill="orange" stroke="orange" points="76.29,-186.82 74.24,-197.21 82.33,-190.37 76.29,-186.82"/>
</a>
</g>
<text text-anchor="middle" x="194.12" y="-128" font-family="FreeSans" font-size="10.00" fill="grey"> &lt; 2, double &gt;</text>
</g>
<!-- Node9 -->
<g id="Node000009" class="node">
<title>Node9</title>
<g id="a_Node000009"><a xlink:href="classDGtal_1_1PointVector.html" target="_top" xlink:title=" ">
<polygon fill="white" stroke="#666666" points="385.25,-36.5 282.25,-36.5 282.25,0 385.25,0 385.25,-36.5"/>
<text text-anchor="start" x="290.25" y="-23" font-family="FreeSans" font-size="10.00">DGtal::PointVector</text>
<text text-anchor="middle" x="333.75" y="-8.75" font-family="FreeSans" font-size="10.00">&lt; 3, double &gt;</text>
</a>
</g>
</g>
<!-- Node1&#45;&gt;Node9 -->
<g id="edge8_Node000001_Node000009" class="edge">
<title>Node1&#45;&gt;Node9</title>
<g id="a_edge8_Node000001_Node000009"><a xlink:title=" ">
<path fill="none" stroke="orange" stroke-dasharray="5,2" d="M68.01,-187.8C77.66,-151 97.91,-95.26 136.75,-64 177.99,-30.81 239.06,-20.88 282.05,-18.3"/>
<polygon fill="orange" stroke="orange" points="64.72,-186.55 65.72,-197.1 71.51,-188.23 64.72,-186.55"/>
</a>
</g>
<text text-anchor="middle" x="194.12" y="-68" font-family="FreeSans" font-size="10.00" fill="grey"> &lt; 3, double &gt;</text>
</g>
</g>
</svg>
</svg>

<style type='text/css'>
<![CDATA[
[data-mouse-over-selected='false'] { opacity: 0.7; }
[data-mouse-over-selected='true']  { opacity: 1.0; }
]]>
</style>
<script type="application/ecmascript"><![CDATA[
document.addEventListener('DOMContentLoaded', (event) => {
  highlightEdges();
  highlightAdjacentNodes();
});
]]></script>
</svg>
