<?xml version="1.0" encoding="UTF-8" standalone="no"?>
<!DOCTYPE svg PUBLIC "-//W3C//DTD SVG 1.1//EN"
 "http://www.w3.org/Graphics/SVG/1.1/DTD/svg11.dtd">
<!-- Generated by graphviz version 11.0.0 (0)
 -->
<!-- Title: DGtal::TwoStepLocalLengthEstimator&lt; TConstIterator &gt; Pages: 1 -->
<svg width="367pt" height="100pt"
 viewBox="0.00 0.00 367.00 99.50" xmlns="http://www.w3.org/2000/svg" xmlns:xlink="http://www.w3.org/1999/xlink">
<g id="graph0" class="graph" transform="scale(1 1) rotate(0) translate(4 95.5)">
<title>DGtal::TwoStepLocalLengthEstimator&lt; TConstIterator &gt;</title>
<!-- Node1 -->
<g id="Node000001" class="node">
<title>Node1</title>
<g id="a_Node000001"><a xlink:title="Aim: a simple model of CGlobalCurveEstimator that compute the length of a curve using the l_1 metric ...">
<polygon fill="#999999" stroke="#666666" points="145,-63.5 0,-63.5 0,-27 145,-27 145,-63.5"/>
<text text-anchor="start" x="8" y="-50" font-family="FreeSans" font-size="10.00">DGtal::TwoStepLocalLength</text>
<text text-anchor="middle" x="72.5" y="-35.75" font-family="FreeSans" font-size="10.00">Estimator&lt; TConstIterator &gt;</text>
</a>
</g>
</g>
<!-- Node2 -->
<g id="Node000002" class="node">
<title>Node2</title>
<g id="a_Node000002"><a xlink:href="classDGtal_1_1BLUELocalLengthEstimator.html" target="_top" xlink:title="Aim: Best Linear Unbiased Two step length estimator.">
<polygon fill="white" stroke="#666666" points="356.75,-91.5 183.25,-91.5 183.25,-55 356.75,-55 356.75,-91.5"/>
<text text-anchor="start" x="191.25" y="-78" font-family="FreeSans" font-size="10.00">DGtal::BLUELocalLengthEstimator</text>
<text text-anchor="middle" x="270" y="-63.75" font-family="FreeSans" font-size="10.00">&lt; TConstIterator &gt;</text>
</a>
</g>
</g>
<!-- Node1&#45;&gt;Node2 -->
<g id="edge1_Node000001_Node000002" class="edge">
<title>Node1&#45;&gt;Node2</title>
<g id="a_edge1_Node000001_Node000002"><a xlink:title=" ">
<path fill="none" stroke="#63b8ff" d="M156.75,-57.17C165.42,-58.41 174.24,-59.68 182.94,-60.92"/>
<polygon fill="#63b8ff" stroke="#63b8ff" points="157.36,-53.72 146.96,-55.77 156.37,-60.65 157.36,-53.72"/>
</a>
</g>
</g>
<!-- Node3 -->
<g id="Node000003" class="node">
<title>Node3</title>
<g id="a_Node000003"><a xlink:href="classDGtal_1_1RosenProffittLocalLengthEstimator.html" target="_top" xlink:title="Aim: Rosen&#45;Proffitt Length Estimator.">
<polygon fill="white" stroke="#666666" points="359,-36.5 181,-36.5 181,0 359,0 359,-36.5"/>
<text text-anchor="start" x="189" y="-23" font-family="FreeSans" font-size="10.00">DGtal::RosenProffittLocal</text>
<text text-anchor="middle" x="270" y="-8.75" font-family="FreeSans" font-size="10.00">LengthEstimator&lt; TConstIterator &gt;</text>
</a>
</g>
</g>
<!-- Node1&#45;&gt;Node3 -->
<g id="edge2_Node000001_Node000003" class="edge">
<title>Node1&#45;&gt;Node3</title>
<g id="a_edge2_Node000001_Node000003"><a xlink:title=" ">
<path fill="none" stroke="#63b8ff" d="M156.86,-33.74C164.71,-32.65 172.69,-31.55 180.59,-30.46"/>
<polygon fill="#63b8ff" stroke="#63b8ff" points="156.39,-30.27 146.96,-35.1 157.35,-37.2 156.39,-30.27"/>
</a>
</g>
</g>
</g>
</svg>
