<?xml version="1.0" encoding="UTF-8" standalone="no"?>
<!DOCTYPE svg PUBLIC "-//W3C//DTD SVG 1.1//EN"
 "http://www.w3.org/Graphics/SVG/1.1/DTD/svg11.dtd">
<!-- Generated by graphviz version 11.0.0 (0)
 -->
<!-- Title: DGtal::ArithmeticalDSL&lt; TCoordinate, TInteger, adjacency &gt; Pages: 1 -->
<!--zoomable 169 -->

<svg id="main" version="1.1" xmlns="http://www.w3.org/2000/svg" xmlns:xlink="http://www.w3.org/1999/xlink" xml:space="preserve" onload="init(evt)">
<style type="text/css"><![CDATA[
.node, .edge {opacity: 0.7;}
.node.selected, .edge.selected {opacity: 1;}
.edge:hover path { stroke: red; }
.edge:hover polygon { stroke: red; fill: red; }
]]></style>

<defs>
  <circle id="rim" cx="0" cy="0" r="7"/>
  <circle id="rim2" cx="0" cy="0" r="3.5"/>
  <g id="zoomPlus">
    <use xlink:href="#rim" fill="#404040"><set attributeName="fill" to="#808080" begin="zoomplus.mouseover" end="zoomplus.mouseout"/></use>
    <path d="M-4,0h8M0,-4v8" fill="none" stroke="white" stroke-width="1.5" pointer-events="none"/>
  </g>
  <g id="zoomMin">
    <use xlink:href="#rim" fill="#404040"><set attributeName="fill" to="#808080" begin="zoomminus.mouseover" end="zoomminus.mouseout"/></use>
    <path d="M-4,0h8" fill="none" stroke="white" stroke-width="1.5" pointer-events="none"/>
  </g>
  <g id="arrowUp" transform="translate(30 24)">
    <use xlink:href="#rim"/>
    <path pointer-events="none" fill="none" stroke="white" stroke-width="1.5" d="M0,-3.0v7 M-2.5,-0.5L0,-3.0L2.5,-0.5"/>
  </g>
  <g id="arrowRight" transform="rotate(90) translate(36 -43)">
    <use xlink:href="#rim"/>
    <path pointer-events="none" fill="none" stroke="white" stroke-width="1.5" d="M0,-3.0v7 M-2.5,-0.5L0,-3.0L2.5,-0.5"/>
  </g>
  <g id="arrowDown" transform="rotate(180) translate(-30 -48)">
    <use xlink:href="#rim"/>
    <path pointer-events="none" fill="none" stroke="white" stroke-width="1.5" d="M0,-3.0v7 M-2.5,-0.5L0,-3.0L2.5,-0.5"/>
  </g>
  <g id="arrowLeft" transform="rotate(270) translate(-36 17)">
    <use xlink:href="#rim"/>
    <path pointer-events="none" fill="none" stroke="white" stroke-width="1.5" d="M0,-3.0v7 M-2.5,-0.5L0,-3.0L2.5,-0.5"/>
  </g>
  <g id="resetDef">
    <use xlink:href="#rim2" fill="#404040"><set attributeName="fill" to="#808080" begin="reset.mouseover" end="reset.mouseout"/></use>
  </g>
</defs>
<script type="application/ecmascript">
var viewWidth = 677;
var viewHeight = 169;
var sectionId = 'dynsection-0';
</script>
<script type="application/ecmascript" xlink:href="svg.min.js"/>
<svg id="graph" class="graph">
<g id="viewport">
<title>DGtal::ArithmeticalDSL&lt; TCoordinate, TInteger, adjacency &gt;</title>
<!-- Node1 -->
<g id="Node000001" class="node">
<title>Node1</title>
<g id="a_Node000001"><a xlink:title="Aim: This class represents a naive (resp. standard) digital straight line (DSL), ie....">
<polygon fill="#999999" stroke="#666666" points="127.75,-105.62 0,-105.62 0,-54.88 127.75,-54.88 127.75,-105.62"/>
<text text-anchor="start" x="8" y="-92.12" font-family="FreeSans" font-size="10.00">DGtal::ArithmeticalDSL</text>
<text text-anchor="start" x="8" y="-77.88" font-family="FreeSans" font-size="10.00">&lt; TCoordinate, TInteger,</text>
<text text-anchor="middle" x="63.88" y="-63.62" font-family="FreeSans" font-size="10.00"> adjacency &gt;</text>
</a>
</g>
</g>
<!-- Node2 -->
<g id="Node000002" class="node">
<title>Node2</title>
<g id="a_Node000002"><a xlink:href="classDGtal_1_1ArithmeticalDSL.html" target="_top" xlink:title=" ">
<polygon fill="white" stroke="#666666" points="473,-160.5 311.5,-160.5 311.5,-124 473,-124 473,-160.5"/>
<text text-anchor="start" x="319.5" y="-147" font-family="FreeSans" font-size="10.00">DGtal::ArithmeticalDSL</text>
<text text-anchor="middle" x="392.25" y="-132.75" font-family="FreeSans" font-size="10.00">&lt; TCoordinate, TCoordinate, 8 &gt;</text>
</a>
</g>
</g>
<!-- Node1&#45;&gt;Node2 -->
<g id="edge1_Node000001_Node000002" class="edge">
<title>Node1&#45;&gt;Node2</title>
<g id="a_edge1_Node000001_Node000002"><a xlink:title=" ">
<path fill="none" stroke="orange" stroke-dasharray="5,2" d="M133.44,-109.68C137.57,-111 141.69,-112.2 145.75,-113.25 199.98,-127.24 262.72,-134.5 311.2,-138.26"/>
<polygon fill="orange" stroke="orange" points="134.58,-106.37 123.98,-106.45 132.32,-113 134.58,-106.37"/>
</a>
</g>
<text text-anchor="middle" x="219.62" y="-141" font-family="FreeSans" font-size="10.00" fill="grey"> &lt; TCoordinate, TCoordinate, 8 &gt;</text>
</g>
<!-- Node4 -->
<g id="Node000004" class="node">
<title>Node4</title>
<g id="a_Node000004"><a xlink:href="classDGtal_1_1ArithmeticalDSL.html" target="_top" xlink:title=" ">
<polygon fill="white" stroke="#666666" points="453.5,-105.62 331,-105.62 331,-54.88 453.5,-54.88 453.5,-105.62"/>
<text text-anchor="start" x="339" y="-92.12" font-family="FreeSans" font-size="10.00">DGtal::ArithmeticalDSL</text>
<text text-anchor="start" x="339" y="-77.88" font-family="FreeSans" font-size="10.00">&lt; Coordinate, Integer,</text>
<text text-anchor="middle" x="392.25" y="-63.62" font-family="FreeSans" font-size="10.00"> adjacency &gt;</text>
</a>
</g>
</g>
<!-- Node1&#45;&gt;Node4 -->
<g id="edge3_Node000001_Node000004" class="edge">
<title>Node1&#45;&gt;Node4</title>
<g id="a_edge3_Node000001_Node000004"><a xlink:title=" ">
<path fill="none" stroke="orange" stroke-dasharray="5,2" d="M139.47,-80.25C197.35,-80.25 276.57,-80.25 330.59,-80.25"/>
<polygon fill="orange" stroke="orange" points="139.7,-76.75 129.7,-80.25 139.7,-83.75 139.7,-76.75"/>
</a>
</g>
<text text-anchor="start" x="167.88" y="-99.25" font-family="FreeSans" font-size="10.00" fill="grey"> &lt; Coordinate, Integer,</text>
<text text-anchor="middle" x="219.62" y="-85" font-family="FreeSans" font-size="10.00" fill="grey"> adjacency &gt;</text>
</g>
<!-- Node5 -->
<g id="Node000005" class="node">
<title>Node5</title>
<g id="a_Node000005"><a xlink:href="classDGtal_1_1ArithmeticalDSL.html" target="_top" xlink:title=" ">
<polygon fill="white" stroke="#666666" points="473,-36.5 311.5,-36.5 311.5,0 473,0 473,-36.5"/>
<text text-anchor="start" x="319.5" y="-23" font-family="FreeSans" font-size="10.00">DGtal::ArithmeticalDSL</text>
<text text-anchor="middle" x="392.25" y="-8.75" font-family="FreeSans" font-size="10.00">&lt; TCoordinate, TCoordinate, 4 &gt;</text>
</a>
</g>
</g>
<!-- Node1&#45;&gt;Node5 -->
<g id="edge4_Node000001_Node000005" class="edge">
<title>Node1&#45;&gt;Node5</title>
<g id="a_edge4_Node000001_Node000005"><a xlink:title=" ">
<path fill="none" stroke="orange" stroke-dasharray="5,2" d="M139.16,-63.35C141.38,-62.89 143.58,-62.44 145.75,-62 200.81,-50.89 263.12,-39.8 311.19,-31.57"/>
<polygon fill="orange" stroke="orange" points="138.49,-59.91 129.43,-65.41 139.94,-66.76 138.49,-59.91"/>
</a>
</g>
<text text-anchor="middle" x="219.62" y="-66" font-family="FreeSans" font-size="10.00" fill="grey"> &lt; TCoordinate, TCoordinate, 4 &gt;</text>
</g>
<!-- Node3 -->
<g id="Node000003" class="node">
<title>Node3</title>
<g id="a_Node000003"><a xlink:href="classDGtal_1_1NaiveDSL.html" target="_top" xlink:title="Aim: This class is an alias of ArithmeticalDSS for naive DSL. It represents a naive digital straight ...">
<polygon fill="white" stroke="#666666" points="669,-160.5 509,-160.5 509,-124 669,-124 669,-160.5"/>
<text text-anchor="start" x="517" y="-147" font-family="FreeSans" font-size="10.00">DGtal::NaiveDSL&lt; TCoordinate,</text>
<text text-anchor="middle" x="589" y="-132.75" font-family="FreeSans" font-size="10.00"> TInteger &gt;</text>
</a>
</g>
</g>
<!-- Node2&#45;&gt;Node3 -->
<g id="edge2_Node000002_Node000003" class="edge">
<title>Node2&#45;&gt;Node3</title>
<g id="a_edge2_Node000002_Node000003"><a xlink:title=" ">
<path fill="none" stroke="#63b8ff" d="M484.58,-142.25C492.59,-142.25 500.66,-142.25 508.57,-142.25"/>
<polygon fill="#63b8ff" stroke="#63b8ff" points="484.82,-138.75 474.82,-142.25 484.82,-145.75 484.82,-138.75"/>
</a>
</g>
</g>
<!-- Node6 -->
<g id="Node000006" class="node">
<title>Node6</title>
<g id="a_Node000006"><a xlink:href="classDGtal_1_1StandardDSL.html" target="_top" xlink:title="Aim: This class is an alias of ArithmeticalDSS for standard DSL. It represents a standard digital str...">
<polygon fill="white" stroke="#666666" points="656.62,-36.5 521.38,-36.5 521.38,0 656.62,0 656.62,-36.5"/>
<text text-anchor="start" x="529.38" y="-23" font-family="FreeSans" font-size="10.00">DGtal::StandardDSL</text>
<text text-anchor="middle" x="589" y="-8.75" font-family="FreeSans" font-size="10.00">&lt; TCoordinate, TInteger &gt;</text>
</a>
</g>
</g>
<!-- Node5&#45;&gt;Node6 -->
<g id="edge5_Node000005_Node000006" class="edge">
<title>Node5&#45;&gt;Node6</title>
<g id="a_edge5_Node000005_Node000006"><a xlink:title=" ">
<path fill="none" stroke="#63b8ff" d="M484.53,-18.25C496.81,-18.25 509.22,-18.25 520.98,-18.25"/>
<polygon fill="#63b8ff" stroke="#63b8ff" points="484.82,-14.75 474.82,-18.25 484.82,-21.75 484.82,-14.75"/>
</a>
</g>
</g>
</g>
</svg>

<g id="navigator" transform="translate(0 0)" fill="#404254">
  <rect fill="#f2f5e9" fill-opacity="0.5" stroke="#606060" stroke-width=".5" x="0" y="0" width="60" height="60"/>
  <use id="zoomplus" xlink:href="#zoomPlus" x="17" y="9" onmousedown="handleZoom(evt,'in')"/>
  <use id="zoomminus" xlink:href="#zoomMin" x="42" y="9" onmousedown="handleZoom(evt,'out')"/>
  <use id="reset" xlink:href="#resetDef" x="30" y="36" onmousedown="handleReset()"/>
   <use id="arrowup" xlink:href="#arrowUp" x="0" y="0" onmousedown="handlePan(0,-1)"/>
  <use id="arrowright" xlink:href="#arrowRight" x="0" y="0" onmousedown="handlePan(1,0)"/>
  <use id="arrowdown" xlink:href="#arrowDown" x="0" y="0" onmousedown="handlePan(0,1)"/>
  <use id="arrowleft" xlink:href="#arrowLeft" x="0" y="0" onmousedown="handlePan(-1,0)"/>
</g>
<svg viewBox="0 0 15 15" width="100%" height="30px" preserveAspectRatio="xMaxYMin meet">
 <g id="arrow_out" transform="scale(0.3 0.3)">
  <a xlink:href="classDGtal_1_1ArithmeticalDSL__inherit__graph_org.svg" target="_base">
   <rect id="button" ry="5" rx="5" y="6" x="6" height="38" width="38"
        fill="#f2f5e9" fill-opacity="0.5" stroke="#606060" stroke-width="1.0"/>
   <path id="arrow"
     d="M 11.500037,31.436501 C 11.940474,20.09759 22.043105,11.32322 32.158766,21.979434 L 37.068811,17.246167 C 37.068811,17.246167 37.088388,32 37.088388,32 L 22.160133,31.978069 C 22.160133,31.978069 26.997745,27.140456 26.997745,27.140456 C 18.528582,18.264221 13.291696,25.230495 11.500037,31.436501 z"
     style="fill:#404040;"/>
  </a>
 </g>
</svg>

<style type='text/css'>
<![CDATA[
[data-mouse-over-selected='false'] { opacity: 0.7; }
[data-mouse-over-selected='true']  { opacity: 1.0; }
]]>
</style>
<script type="application/ecmascript"><![CDATA[
document.addEventListener('DOMContentLoaded', (event) => {
  highlightEdges();
  highlightAdjacentNodes();
});
]]></script>
</svg>
