<?xml version="1.0" encoding="UTF-8" standalone="no"?>
<!DOCTYPE svg PUBLIC "-//W3C//DTD SVG 1.1//EN"
 "http://www.w3.org/Graphics/SVG/1.1/DTD/svg11.dtd">
<!-- Generated by graphviz version 11.0.0 (0)
 -->
<!-- Title: DGtal::MPolynomial&lt; n, TRing, TAlloc &gt; Pages: 1 -->
<svg width="242pt" height="131pt"
 viewBox="0.00 0.00 241.50 131.25" xmlns="http://www.w3.org/2000/svg" xmlns:xlink="http://www.w3.org/1999/xlink">
<g id="graph0" class="graph" transform="scale(1 1) rotate(0) translate(4 127.25)">
<title>DGtal::MPolynomial&lt; n, TRing, TAlloc &gt;</title>
<!-- Node1 -->
<g id="Node000001" class="node">
<title>Node1</title>
<g id="a_Node000001"><a xlink:title="Aim: Represents a multivariate polynomial, i.e. an element of , where K is some ring or field.">
<polygon fill="#999999" stroke="#666666" points="170.5,-123.25 63,-123.25 63,-86.75 170.5,-86.75 170.5,-123.25"/>
<text text-anchor="start" x="71" y="-109.75" font-family="FreeSans" font-size="10.00">DGtal::MPolynomial</text>
<text text-anchor="middle" x="116.75" y="-95.5" font-family="FreeSans" font-size="10.00">&lt; n, TRing, TAlloc &gt;</text>
</a>
</g>
</g>
<!-- Node2 -->
<g id="Node000002" class="node">
<title>Node2</title>
<g id="a_Node000002"><a xlink:href="classDGtal_1_1MPolynomial.html" target="_top" xlink:title=" ">
<polygon fill="white" stroke="#666666" points="107.5,-36.5 0,-36.5 0,0 107.5,0 107.5,-36.5"/>
<text text-anchor="start" x="8" y="-23" font-family="FreeSans" font-size="10.00">DGtal::MPolynomial</text>
<text text-anchor="middle" x="53.75" y="-8.75" font-family="FreeSans" font-size="10.00">&lt; 3, Ring &gt;</text>
</a>
</g>
</g>
<!-- Node1&#45;&gt;Node2 -->
<g id="edge1_Node000001_Node000002" class="edge">
<title>Node1&#45;&gt;Node2</title>
<g id="a_edge1_Node000001_Node000002"><a xlink:title=" ">
<path fill="none" stroke="orange" stroke-dasharray="5,2" d="M96.92,-77.32C87.08,-64.09 75.48,-48.49 66.79,-36.79"/>
<polygon fill="orange" stroke="orange" points="94.02,-79.29 102.79,-85.23 99.64,-75.11 94.02,-79.29"/>
</a>
</g>
<text text-anchor="middle" x="114.88" y="-59.25" font-family="FreeSans" font-size="10.00" fill="grey"> &lt; 3, Ring &gt;</text>
</g>
<!-- Node3 -->
<g id="Node000003" class="node">
<title>Node3</title>
<g id="a_Node000003"><a xlink:href="classDGtal_1_1MPolynomial.html" target="_top" xlink:title=" ">
<polygon fill="white" stroke="#666666" points="233.5,-36.5 126,-36.5 126,0 233.5,0 233.5,-36.5"/>
<text text-anchor="start" x="134" y="-23" font-family="FreeSans" font-size="10.00">DGtal::MPolynomial</text>
<text text-anchor="middle" x="179.75" y="-8.75" font-family="FreeSans" font-size="10.00">&lt; n, Ring, Alloc &gt;</text>
</a>
</g>
</g>
<!-- Node1&#45;&gt;Node3 -->
<g id="edge2_Node000001_Node000003" class="edge">
<title>Node1&#45;&gt;Node3</title>
<g id="a_edge2_Node000001_Node000003"><a xlink:title=" ">
<path fill="none" stroke="orange" stroke-dasharray="5,2" d="M137.23,-77.4C139.44,-74.49 141.65,-71.56 143.75,-68.75 151.63,-58.19 160.32,-46.25 167.19,-36.74"/>
<polygon fill="orange" stroke="orange" points="134.5,-75.22 131.21,-85.29 140.06,-79.46 134.5,-75.22"/>
</a>
</g>
<text text-anchor="middle" x="191.38" y="-59.25" font-family="FreeSans" font-size="10.00" fill="grey"> &lt; n, Ring, Alloc &gt;</text>
</g>
</g>
</svg>
