<?xml version="1.0" encoding="UTF-8" standalone="no"?>
<!DOCTYPE svg PUBLIC "-//W3C//DTD SVG 1.1//EN"
 "http://www.w3.org/Graphics/SVG/1.1/DTD/svg11.dtd">
<!-- Generated by graphviz version 11.0.0 (0)
 -->
<!-- Title: DGtal::Display3D&lt; Space, KSpace &gt; Pages: 1 -->
<!--zoomable 322 -->

<svg id="main" version="1.1" xmlns="http://www.w3.org/2000/svg" xmlns:xlink="http://www.w3.org/1999/xlink" xml:space="preserve" onload="init(evt)">
<style type="text/css"><![CDATA[
.node, .edge {opacity: 0.7;}
.node.selected, .edge.selected {opacity: 1;}
.edge:hover path { stroke: red; }
.edge:hover polygon { stroke: red; fill: red; }
]]></style>

<defs>
  <circle id="rim" cx="0" cy="0" r="7"/>
  <circle id="rim2" cx="0" cy="0" r="3.5"/>
  <g id="zoomPlus">
    <use xlink:href="#rim" fill="#404040"><set attributeName="fill" to="#808080" begin="zoomplus.mouseover" end="zoomplus.mouseout"/></use>
    <path d="M-4,0h8M0,-4v8" fill="none" stroke="white" stroke-width="1.5" pointer-events="none"/>
  </g>
  <g id="zoomMin">
    <use xlink:href="#rim" fill="#404040"><set attributeName="fill" to="#808080" begin="zoomminus.mouseover" end="zoomminus.mouseout"/></use>
    <path d="M-4,0h8" fill="none" stroke="white" stroke-width="1.5" pointer-events="none"/>
  </g>
  <g id="arrowUp" transform="translate(30 24)">
    <use xlink:href="#rim"/>
    <path pointer-events="none" fill="none" stroke="white" stroke-width="1.5" d="M0,-3.0v7 M-2.5,-0.5L0,-3.0L2.5,-0.5"/>
  </g>
  <g id="arrowRight" transform="rotate(90) translate(36 -43)">
    <use xlink:href="#rim"/>
    <path pointer-events="none" fill="none" stroke="white" stroke-width="1.5" d="M0,-3.0v7 M-2.5,-0.5L0,-3.0L2.5,-0.5"/>
  </g>
  <g id="arrowDown" transform="rotate(180) translate(-30 -48)">
    <use xlink:href="#rim"/>
    <path pointer-events="none" fill="none" stroke="white" stroke-width="1.5" d="M0,-3.0v7 M-2.5,-0.5L0,-3.0L2.5,-0.5"/>
  </g>
  <g id="arrowLeft" transform="rotate(270) translate(-36 17)">
    <use xlink:href="#rim"/>
    <path pointer-events="none" fill="none" stroke="white" stroke-width="1.5" d="M0,-3.0v7 M-2.5,-0.5L0,-3.0L2.5,-0.5"/>
  </g>
  <g id="resetDef">
    <use xlink:href="#rim2" fill="#404040"><set attributeName="fill" to="#808080" begin="reset.mouseover" end="reset.mouseout"/></use>
  </g>
</defs>
<script type="application/ecmascript">
var viewWidth = 1037;
var viewHeight = 322;
var sectionId = 'dynsection-0';
</script>
<script type="application/ecmascript" xlink:href="svg.min.js"/>
<svg id="graph" class="graph">
<g id="viewport">
<title>DGtal::Display3D&lt; Space, KSpace &gt;</title>
<!-- Node1 -->
<g id="Node000001" class="node">
<title>Node1</title>
<g id="a_Node000001"><a xlink:title="Aim: This semi abstract class defines the stream mechanism to display 3d primitive (like BallVector,...">
<polygon fill="#999999" stroke="#666666" points="133,-156.5 0,-156.5 0,-120 133,-120 133,-156.5"/>
<text text-anchor="start" x="8" y="-143" font-family="FreeSans" font-size="10.00">DGtal::Display3D&lt; Space,</text>
<text text-anchor="middle" x="66.5" y="-128.75" font-family="FreeSans" font-size="10.00"> KSpace &gt;</text>
</a>
</g>
</g>
<!-- Node1&#45;&gt;Node1 -->
<g id="edge1_Node000001_Node000001" class="edge">
<title>Node1&#45;&gt;Node1</title>
<g id="a_edge1_Node000001_Node000001"><a xlink:title=" ">
<path fill="none" stroke="orange" stroke-dasharray="5,2" d="M54.46,-168.25C56.58,-172.02 60.59,-174.5 66.5,-174.5 77.3,-174.5 81.78,-166.2 79.92,-156.9"/>
<polygon fill="orange" stroke="orange" points="57.94,-167.91 53.26,-158.4 50.99,-168.75 57.94,-167.91"/>
</a>
</g>
<text text-anchor="middle" x="66.5" y="-179.25" font-family="FreeSans" font-size="10.00" fill="grey"> &lt; Space, KSpace &gt;</text>
</g>
<!-- Node1&#45;&gt;Node1 -->
<g id="edge12_Node000001_Node000001" class="edge">
<title>Node1&#45;&gt;Node1</title>
<g id="a_edge12_Node000001_Node000001"><a xlink:title=" ">
<path fill="none" stroke="orange" stroke-dasharray="5,2" d="M39.38,-167.32C36.45,-180.76 45.49,-192.5 66.5,-192.5 92.86,-192.5 100.38,-174.02 89.05,-156.87"/>
<polygon fill="orange" stroke="orange" points="42.54,-168.82 43.34,-158.26 36.13,-166.02 42.54,-168.82"/>
</a>
</g>
<text text-anchor="middle" x="66.5" y="-197.25" font-family="FreeSans" font-size="10.00" fill="grey"> &lt; Space, KSpace &gt;</text>
</g>
<!-- Node2 -->
<g id="Node000002" class="node">
<title>Node2</title>
<g id="a_Node000002"><a xlink:href="classDGtal_1_1Viewer3D.html" target="_top" xlink:title=" ">
<polygon fill="white" stroke="#666666" points="461.75,-293.5 325,-293.5 325,-257 461.75,-257 461.75,-293.5"/>
<text text-anchor="start" x="333" y="-280" font-family="FreeSans" font-size="10.00">DGtal::Viewer3D&lt; TSpace,</text>
<text text-anchor="middle" x="393.38" y="-265.75" font-family="FreeSans" font-size="10.00"> TKSpace &gt;</text>
</a>
</g>
</g>
<!-- Node1&#45;&gt;Node2 -->
<g id="edge2_Node000001_Node000002" class="edge">
<title>Node1&#45;&gt;Node2</title>
<g id="a_edge2_Node000001_Node000002"><a xlink:title=" ">
<path fill="none" stroke="#63b8ff" d="M81.35,-167.01C95.22,-192.41 119.08,-228.14 151,-246.25 203.86,-276.24 273.63,-281.67 324.55,-280.68"/>
<polygon fill="#63b8ff" stroke="#63b8ff" points="84.47,-165.42 76.73,-158.18 78.26,-168.67 84.47,-165.42"/>
</a>
</g>
</g>
<!-- Node5 -->
<g id="Node000005" class="node">
<title>Node5</title>
<g id="a_Node000005"><a xlink:href="classDGtal_1_1Display3D.html" target="_top" xlink:title=" ">
<polygon fill="white" stroke="#666666" points="452,-128.5 334.75,-128.5 334.75,-92 452,-92 452,-128.5"/>
<text text-anchor="start" x="342.75" y="-115" font-family="FreeSans" font-size="10.00">DGtal::Display3D&lt; Z3i</text>
<text text-anchor="middle" x="393.38" y="-100.75" font-family="FreeSans" font-size="10.00">::Space, Z3i::KSpace &gt;</text>
</a>
</g>
</g>
<!-- Node1&#45;&gt;Node5 -->
<g id="edge5_Node000001_Node000005" class="edge">
<title>Node1&#45;&gt;Node5</title>
<g id="a_edge5_Node000001_Node000005"><a xlink:title=" ">
<path fill="none" stroke="orange" stroke-dasharray="5,2" d="M131.38,-116.73C137.95,-115.12 144.57,-113.74 151,-112.75 213.12,-103.15 285.32,-103.94 334.45,-106.24"/>
<polygon fill="orange" stroke="orange" points="130.67,-113.3 121.89,-119.23 132.45,-120.06 130.67,-113.3"/>
</a>
</g>
<text text-anchor="start" x="172.38" y="-131.25" font-family="FreeSans" font-size="10.00" fill="grey"> &lt; Z3i::Space, Z3i::</text>
<text text-anchor="middle" x="214" y="-117" font-family="FreeSans" font-size="10.00" fill="grey">KSpace &gt;</text>
</g>
<!-- Node9 -->
<g id="Node000009" class="node">
<title>Node9</title>
<g id="a_Node000009"><a xlink:href="classDGtal_1_1Display3D.html" target="_top" xlink:title=" ">
<polygon fill="white" stroke="#666666" points="474.5,-183.5 312.25,-183.5 312.25,-147 474.5,-147 474.5,-183.5"/>
<text text-anchor="start" x="320.25" y="-170" font-family="FreeSans" font-size="10.00">DGtal::Display3D&lt; SpaceND</text>
<text text-anchor="middle" x="393.38" y="-155.75" font-family="FreeSans" font-size="10.00">&lt; 3 &gt;, KhalimskySpaceND&lt; 3 &gt; &gt;</text>
</a>
</g>
</g>
<!-- Node1&#45;&gt;Node9 -->
<g id="edge9_Node000001_Node000009" class="edge">
<title>Node1&#45;&gt;Node9</title>
<g id="a_edge9_Node000001_Node000009"><a xlink:title=" ">
<path fill="none" stroke="orange" stroke-dasharray="5,2" d="M144.41,-144.64C194.82,-148.83 260.62,-154.3 311.77,-158.55"/>
<polygon fill="orange" stroke="orange" points="145.01,-141.18 134.75,-143.84 144.43,-148.16 145.01,-141.18"/>
</a>
</g>
<text text-anchor="start" x="151" y="-173.25" font-family="FreeSans" font-size="10.00" fill="grey"> &lt; SpaceND&lt; 3 &gt;, Khalimsky</text>
<text text-anchor="middle" x="214" y="-159" font-family="FreeSans" font-size="10.00" fill="grey">SpaceND&lt; 3 &gt; &gt;</text>
</g>
<!-- Node10 -->
<g id="Node000010" class="node">
<title>Node10</title>
<g id="a_Node000010"><a xlink:href="classDGtal_1_1Display3D.html" target="_top" xlink:title=" ">
<polygon fill="white" stroke="#666666" points="623.12,-82.5 511.88,-82.5 511.88,-46 623.12,-46 623.12,-82.5"/>
<text text-anchor="start" x="519.88" y="-69" font-family="FreeSans" font-size="10.00">DGtal::Display3D&lt; S,</text>
<text text-anchor="middle" x="567.5" y="-54.75" font-family="FreeSans" font-size="10.00"> KS &gt;</text>
</a>
</g>
</g>
<!-- Node1&#45;&gt;Node10 -->
<g id="edge10_Node000001_Node000010" class="edge">
<title>Node1&#45;&gt;Node10</title>
<g id="a_edge10_Node000001_Node000010"><a xlink:title=" ">
<path fill="none" stroke="orange" stroke-dasharray="5,2" d="M99.23,-113.05C114.08,-102.72 132.54,-91.83 151,-86 275.16,-46.81 430.47,-52.03 511.5,-58.54"/>
<polygon fill="orange" stroke="orange" points="97.3,-110.13 91.25,-118.82 101.4,-115.8 97.3,-110.13"/>
</a>
</g>
<text text-anchor="middle" x="214" y="-90" font-family="FreeSans" font-size="10.00" fill="grey"> &lt; S, KS &gt;</text>
</g>
<!-- Node11 -->
<g id="Node000011" class="node">
<title>Node11</title>
<g id="a_Node000011"><a xlink:href="classDGtal_1_1Display3D.html" target="_top" xlink:title=" ">
<polygon fill="white" stroke="#666666" points="491.75,-238.5 295,-238.5 295,-202 491.75,-202 491.75,-238.5"/>
<text text-anchor="start" x="303" y="-225" font-family="FreeSans" font-size="10.00">DGtal::Display3D&lt; DGtal</text>
<text text-anchor="middle" x="393.38" y="-210.75" font-family="FreeSans" font-size="10.00">::SpaceND, DGtal::KhalimskySpaceND &gt;</text>
</a>
</g>
</g>
<!-- Node1&#45;&gt;Node11 -->
<g id="edge13_Node000001_Node000011" class="edge">
<title>Node1&#45;&gt;Node11</title>
<g id="a_edge13_Node000001_Node000011"><a xlink:title=" ">
<path fill="none" stroke="orange" stroke-dasharray="5,2" d="M102.72,-163.1C117.08,-172.09 134.22,-181.44 151,-187.25 196.76,-203.09 249.88,-211.37 294.61,-215.67"/>
<polygon fill="orange" stroke="orange" points="104.83,-160.3 94.54,-157.8 101.03,-166.17 104.83,-160.3"/>
</a>
</g>
<text text-anchor="start" x="156.25" y="-232.25" font-family="FreeSans" font-size="10.00" fill="grey"> &lt; DGtal::SpaceND, DGtal</text>
<text text-anchor="middle" x="214" y="-218" font-family="FreeSans" font-size="10.00" fill="grey">::KhalimskySpaceND &gt;</text>
</g>
<!-- Node12 -->
<g id="Node000012" class="node">
<title>Node12</title>
<g id="a_Node000012"><a xlink:href="classDGtal_1_1Display3D.html" target="_top" xlink:title=" ">
<polygon fill="white" stroke="#666666" points="452,-36.5 334.75,-36.5 334.75,0 452,0 452,-36.5"/>
<text text-anchor="start" x="342.75" y="-23" font-family="FreeSans" font-size="10.00">DGtal::Display3D&lt; Sp,</text>
<text text-anchor="middle" x="393.38" y="-8.75" font-family="FreeSans" font-size="10.00"> KSp &gt;</text>
</a>
</g>
</g>
<!-- Node1&#45;&gt;Node12 -->
<g id="edge15_Node000001_Node000012" class="edge">
<title>Node1&#45;&gt;Node12</title>
<g id="a_edge15_Node000001_Node000012"><a xlink:title=" ">
<path fill="none" stroke="orange" stroke-dasharray="5,2" d="M80.23,-109.53C93.65,-83.12 117.52,-45.49 151,-28 207.97,1.76 283.23,-0.61 334.47,-7.32"/>
<polygon fill="orange" stroke="orange" points="77.16,-107.84 75.94,-118.37 83.46,-110.9 77.16,-107.84"/>
</a>
</g>
<text text-anchor="middle" x="214" y="-33" font-family="FreeSans" font-size="10.00" fill="grey"> &lt; Sp, KSp &gt;</text>
</g>
<!-- Node3 -->
<g id="Node000003" class="node">
<title>Node3</title>
<g id="a_Node000003"><a xlink:href="classDGtal_1_1Viewer3D.html" target="_top" xlink:title=" ">
<polygon fill="white" stroke="#666666" points="807.38,-313.5 675.88,-313.5 675.88,-277 807.38,-277 807.38,-313.5"/>
<text text-anchor="start" x="683.88" y="-300" font-family="FreeSans" font-size="10.00">DGtal::Viewer3D&lt; Space,</text>
<text text-anchor="middle" x="741.62" y="-285.75" font-family="FreeSans" font-size="10.00"> KSpace &gt;</text>
</a>
</g>
</g>
<!-- Node2&#45;&gt;Node3 -->
<g id="edge3_Node000002_Node000003" class="edge">
<title>Node2&#45;&gt;Node3</title>
<g id="a_edge3_Node000002_Node000003"><a xlink:title=" ">
<path fill="none" stroke="orange" stroke-dasharray="5,2" d="M473.11,-279.8C534.29,-283.33 618.14,-288.17 675.56,-291.49"/>
<polygon fill="orange" stroke="orange" points="473.65,-276.32 463.47,-279.24 473.25,-283.31 473.65,-276.32"/>
</a>
</g>
<text text-anchor="middle" x="567.5" y="-292" font-family="FreeSans" font-size="10.00" fill="grey"> &lt; Space, KSpace &gt;</text>
</g>
<!-- Node4 -->
<g id="Node000004" class="node">
<title>Node4</title>
<g id="a_Node000004"><a xlink:href="classDGtal_1_1Viewer3D.html" target="_top" xlink:title=" ">
<polygon fill="white" stroke="#666666" points="840,-248.5 643.25,-248.5 643.25,-212 840,-212 840,-248.5"/>
<text text-anchor="start" x="651.25" y="-235" font-family="FreeSans" font-size="10.00">DGtal::Viewer3D&lt; DGtal</text>
<text text-anchor="middle" x="741.62" y="-220.75" font-family="FreeSans" font-size="10.00">::SpaceND, DGtal::KhalimskySpaceND &gt;</text>
</a>
</g>
</g>
<!-- Node2&#45;&gt;Node4 -->
<g id="edge4_Node000002_Node000004" class="edge">
<title>Node2&#45;&gt;Node4</title>
<g id="a_edge4_Node000002_Node000004"><a xlink:title=" ">
<path fill="none" stroke="orange" stroke-dasharray="5,2" d="M473.2,-256.37C485.39,-253.87 497.87,-251.56 509.75,-249.75 553.2,-243.14 601.61,-238.63 642.83,-235.61"/>
<polygon fill="orange" stroke="orange" points="472.66,-252.9 463.6,-258.39 474.1,-259.75 472.66,-252.9"/>
</a>
</g>
<text text-anchor="start" x="509.75" y="-268.25" font-family="FreeSans" font-size="10.00" fill="grey"> &lt; DGtal::SpaceND, DGtal</text>
<text text-anchor="middle" x="567.5" y="-254" font-family="FreeSans" font-size="10.00" fill="grey">::KhalimskySpaceND &gt;</text>
</g>
<!-- Node6 -->
<g id="Node000006" class="node">
<title>Node6</title>
<g id="a_Node000006"><a xlink:href="classDGtal_1_1Board3D.html" target="_top" xlink:title="The class Board3D is a type of Display3D which export the figures in the format OBJ/MTL when calling ...">
<polygon fill="white" stroke="#666666" points="805.5,-173.5 677.75,-173.5 677.75,-137 805.5,-137 805.5,-173.5"/>
<text text-anchor="start" x="685.75" y="-160" font-family="FreeSans" font-size="10.00">DGtal::Board3D&lt; Space,</text>
<text text-anchor="middle" x="741.62" y="-145.75" font-family="FreeSans" font-size="10.00"> KSpace &gt;</text>
</a>
</g>
</g>
<!-- Node5&#45;&gt;Node6 -->
<g id="edge6_Node000005_Node000006" class="edge">
<title>Node5&#45;&gt;Node6</title>
<g id="a_edge6_Node000005_Node000006"><a xlink:title=" ">
<path fill="none" stroke="#63b8ff" d="M463.64,-119.25C526.05,-127.36 617.04,-139.19 677.49,-147.05"/>
<polygon fill="#63b8ff" stroke="#63b8ff" points="464.2,-115.8 453.83,-117.98 463.3,-122.74 464.2,-115.8"/>
</a>
</g>
</g>
<!-- Node7 -->
<g id="Node000007" class="node">
<title>Node7</title>
<g id="a_Node000007"><a xlink:href="classDGtal_1_1Board3DTo2D.html" target="_top" xlink:title="Class for PDF, PNG, PS, EPS, SVG export drawings with Cairo with 3D&#45;&gt;2D projection.">
<polygon fill="white" stroke="#666666" points="798,-118.5 685.25,-118.5 685.25,-82 798,-82 798,-118.5"/>
<text text-anchor="start" x="693.25" y="-105" font-family="FreeSans" font-size="10.00">DGtal::Board3DTo2D</text>
<text text-anchor="middle" x="741.62" y="-90.75" font-family="FreeSans" font-size="10.00">&lt; Space, KSpace &gt;</text>
</a>
</g>
</g>
<!-- Node5&#45;&gt;Node7 -->
<g id="edge7_Node000005_Node000007" class="edge">
<title>Node5&#45;&gt;Node7</title>
<g id="a_edge7_Node000005_Node000007"><a xlink:title=" ">
<path fill="none" stroke="#63b8ff" d="M463.68,-108.25C528.66,-106.37 624.57,-103.6 684.78,-101.86"/>
<polygon fill="#63b8ff" stroke="#63b8ff" points="463.74,-104.75 453.84,-108.53 463.94,-111.74 463.74,-104.75"/>
</a>
</g>
</g>
<!-- Node8 -->
<g id="Node000008" class="node">
<title>Node8</title>
<g id="a_Node000008"><a xlink:href="classDGtal_1_1Board3DTo2D.html" target="_top" xlink:title=" ">
<polygon fill="white" stroke="#666666" points="1029.25,-98.5 916.5,-98.5 916.5,-62 1029.25,-62 1029.25,-98.5"/>
<text text-anchor="start" x="924.5" y="-85" font-family="FreeSans" font-size="10.00">DGtal::Board3DTo2D</text>
<text text-anchor="middle" x="972.88" y="-70.75" font-family="FreeSans" font-size="10.00">&lt; S, KS &gt;</text>
</a>
</g>
</g>
<!-- Node7&#45;&gt;Node8 -->
<g id="edge8_Node000007_Node000008" class="edge">
<title>Node7&#45;&gt;Node8</title>
<g id="a_edge8_Node000007_Node000008"><a xlink:title=" ">
<path fill="none" stroke="orange" stroke-dasharray="5,2" d="M809.62,-94.41C843.49,-91.45 884.11,-87.91 916.23,-85.1"/>
<polygon fill="orange" stroke="orange" points="809.58,-90.9 799.92,-95.25 810.19,-97.87 809.58,-90.9"/>
</a>
</g>
<text text-anchor="middle" x="878.25" y="-94" font-family="FreeSans" font-size="10.00" fill="grey"> &lt; S, KS &gt;</text>
</g>
<!-- Node10&#45;&gt;Node8 -->
<g id="edge11_Node000010_Node000008" class="edge">
<title>Node10&#45;&gt;Node8</title>
<g id="a_edge11_Node000010_Node000008"><a xlink:title=" ">
<path fill="none" stroke="#63b8ff" d="M634.96,-66.54C689.93,-68.47 770.04,-71.37 840,-74.25 864.96,-75.28 892.57,-76.52 916.05,-77.6"/>
<polygon fill="#63b8ff" stroke="#63b8ff" points="635.25,-63.05 625.14,-66.19 635.01,-70.04 635.25,-63.05"/>
</a>
</g>
</g>
<!-- Node11&#45;&gt;Node4 -->
<g id="edge14_Node000011_Node000004" class="edge">
<title>Node11&#45;&gt;Node4</title>
<g id="a_edge14_Node000011_Node000004"><a xlink:title=" ">
<path fill="none" stroke="#63b8ff" d="M503.71,-223.41C548.39,-224.7 599.65,-226.18 643.03,-227.43"/>
<polygon fill="#63b8ff" stroke="#63b8ff" points="503.82,-219.91 493.72,-223.12 503.62,-226.91 503.82,-219.91"/>
</a>
</g>
</g>
</g>
</svg>

<g id="navigator" transform="translate(0 0)" fill="#404254">
  <rect fill="#f2f5e9" fill-opacity="0.5" stroke="#606060" stroke-width=".5" x="0" y="0" width="60" height="60"/>
  <use id="zoomplus" xlink:href="#zoomPlus" x="17" y="9" onmousedown="handleZoom(evt,'in')"/>
  <use id="zoomminus" xlink:href="#zoomMin" x="42" y="9" onmousedown="handleZoom(evt,'out')"/>
  <use id="reset" xlink:href="#resetDef" x="30" y="36" onmousedown="handleReset()"/>
   <use id="arrowup" xlink:href="#arrowUp" x="0" y="0" onmousedown="handlePan(0,-1)"/>
  <use id="arrowright" xlink:href="#arrowRight" x="0" y="0" onmousedown="handlePan(1,0)"/>
  <use id="arrowdown" xlink:href="#arrowDown" x="0" y="0" onmousedown="handlePan(0,1)"/>
  <use id="arrowleft" xlink:href="#arrowLeft" x="0" y="0" onmousedown="handlePan(-1,0)"/>
</g>
<svg viewBox="0 0 15 15" width="100%" height="30px" preserveAspectRatio="xMaxYMin meet">
 <g id="arrow_out" transform="scale(0.3 0.3)">
  <a xlink:href="classDGtal_1_1Display3D__inherit__graph_org.svg" target="_base">
   <rect id="button" ry="5" rx="5" y="6" x="6" height="38" width="38"
        fill="#f2f5e9" fill-opacity="0.5" stroke="#606060" stroke-width="1.0"/>
   <path id="arrow"
     d="M 11.500037,31.436501 C 11.940474,20.09759 22.043105,11.32322 32.158766,21.979434 L 37.068811,17.246167 C 37.068811,17.246167 37.088388,32 37.088388,32 L 22.160133,31.978069 C 22.160133,31.978069 26.997745,27.140456 26.997745,27.140456 C 18.528582,18.264221 13.291696,25.230495 11.500037,31.436501 z"
     style="fill:#404040;"/>
  </a>
 </g>
</svg>

<style type='text/css'>
<![CDATA[
[data-mouse-over-selected='false'] { opacity: 0.7; }
[data-mouse-over-selected='true']  { opacity: 1.0; }
]]>
</style>
<script type="application/ecmascript"><![CDATA[
document.addEventListener('DOMContentLoaded', (event) => {
  highlightEdges();
  highlightAdjacentNodes();
});
]]></script>
</svg>
