<?xml version="1.0" encoding="UTF-8" standalone="no"?>
<!DOCTYPE svg PUBLIC "-//W3C//DTD SVG 1.1//EN"
 "http://www.w3.org/Graphics/SVG/1.1/DTD/svg11.dtd">
<!-- Generated by graphviz version 11.0.0 (0)
 -->
<!-- Title: DGtal::DistanceFromDCAEstimator&lt; DCAComputer &gt; Pages: 1 -->
<svg width="724pt" height="62pt"
 viewBox="0.00 0.00 723.50 61.88" xmlns="http://www.w3.org/2000/svg" xmlns:xlink="http://www.w3.org/1999/xlink">
<g id="graph0" class="graph" transform="scale(1 1) rotate(0) translate(4 57.88)">
<title>DGtal::DistanceFromDCAEstimator&lt; DCAComputer &gt;</title>
<!-- Node1 -->
<g id="Node000001" class="node">
<title>Node1</title>
<g id="a_Node000001"><a xlink:title=" ">
<polygon fill="#999999" stroke="#666666" points="715.5,-43.62 539,-43.62 539,-7.12 715.5,-7.12 715.5,-43.62"/>
<text text-anchor="start" x="547" y="-30.12" font-family="FreeSans" font-size="10.00">DGtal::DistanceFromDCAEstimator</text>
<text text-anchor="middle" x="627.25" y="-15.88" font-family="FreeSans" font-size="10.00">&lt; DCAComputer &gt;</text>
</a>
</g>
</g>
<!-- Node2 -->
<g id="Node000002" class="node">
<title>Node2</title>
<g id="a_Node000002"><a xlink:href="classDGtal_1_1detail_1_1PosDepScaleDepSCEstimator.html" target="_top" xlink:title=" ">
<polygon fill="white" stroke="#666666" points="503,-50.75 336.25,-50.75 336.25,0 503,0 503,-50.75"/>
<text text-anchor="start" x="344.25" y="-37.25" font-family="FreeSans" font-size="10.00">DGtal::detail::PosDepScale</text>
<text text-anchor="start" x="344.25" y="-23" font-family="FreeSans" font-size="10.00">DepSCEstimator&lt; DCAComputer,</text>
<text text-anchor="middle" x="419.62" y="-8.75" font-family="FreeSans" font-size="10.00"> detail::DistanceFromDCA &gt;</text>
</a>
</g>
</g>
<!-- Node2&#45;&gt;Node1 -->
<g id="edge1_Node000001_Node000002" class="edge">
<title>Node2&#45;&gt;Node1</title>
<g id="a_edge1_Node000001_Node000002"><a xlink:title=" ">
<path fill="none" stroke="#63b8ff" d="M514.61,-25.38C522.61,-25.38 530.68,-25.38 538.63,-25.38"/>
<polygon fill="#63b8ff" stroke="#63b8ff" points="514.89,-21.88 504.89,-25.38 514.89,-28.88 514.89,-21.88"/>
</a>
</g>
</g>
<!-- Node3 -->
<g id="Node000003" class="node">
<title>Node3</title>
<g id="a_Node000003"><a xlink:href="classDGtal_1_1detail_1_1PosDepScaleDepSCEstimator.html" target="_top" xlink:title=" ">
<polygon fill="white" stroke="#666666" points="194.5,-50.75 0,-50.75 0,0 194.5,0 194.5,-50.75"/>
<text text-anchor="start" x="8" y="-37.25" font-family="FreeSans" font-size="10.00">DGtal::detail::PosDepScale</text>
<text text-anchor="start" x="8" y="-23" font-family="FreeSans" font-size="10.00">DepSCEstimator&lt; TSegmentComputer,</text>
<text text-anchor="middle" x="97.25" y="-8.75" font-family="FreeSans" font-size="10.00"> Functor, ReturnType &gt;</text>
</a>
</g>
</g>
<!-- Node3&#45;&gt;Node2 -->
<g id="edge2_Node000002_Node000003" class="edge">
<title>Node3&#45;&gt;Node2</title>
<g id="a_edge2_Node000002_Node000003"><a xlink:title=" ">
<path fill="none" stroke="orange" stroke-dasharray="5,2" d="M206.29,-25.38C248.59,-25.38 296.32,-25.38 335.8,-25.38"/>
<polygon fill="orange" stroke="orange" points="206.32,-21.88 196.32,-25.38 206.32,-28.88 206.32,-21.88"/>
</a>
</g>
<text text-anchor="start" x="212.5" y="-44.38" font-family="FreeSans" font-size="10.00" fill="grey"> &lt; DCAComputer, detail</text>
<text text-anchor="middle" x="265.38" y="-30.12" font-family="FreeSans" font-size="10.00" fill="grey">::DistanceFromDCA &gt;</text>
</g>
</g>
</svg>
