<?xml version="1.0" encoding="UTF-8" standalone="no"?>
<!DOCTYPE svg PUBLIC "-//W3C//DTD SVG 1.1//EN"
 "http://www.w3.org/Graphics/SVG/1.1/DTD/svg11.dtd">
<!-- Generated by graphviz version 11.0.0 (0)
 -->
<!-- Title: GGraph Pages: 1 -->
<svg width="1913pt" height="499pt"
 viewBox="0.00 0.00 1913.00 498.50" xmlns="http://www.w3.org/2000/svg" xmlns:xlink="http://www.w3.org/1999/xlink">
<g id="graph0" class="graph" transform="scale(1 1) rotate(0) translate(4 494.5)">
<title>GGraph</title>
<polygon fill="white" stroke="none" points="-4,4 -4,-494.5 1909,-494.5 1909,4 -4,4"/>
<g id="clust1" class="cluster">
<title>cluster_ext</title>
</g>
<g id="clust2" class="cluster">
<title>cluster_base</title>
<polygon fill="#eeeeff" stroke="#eeeeff" points="458,-398 458,-474.5 576,-474.5 576,-398 458,-398"/>
<text text-anchor="middle" x="517" y="-405.2" font-family="Times,serif" font-size="14.00">base</text>
</g>
<g id="clust5" class="cluster">
<title>cluster_boost</title>
<polygon fill="white" stroke="white" points="584,-398 584,-474.5 1760,-474.5 1760,-398 584,-398"/>
<text text-anchor="middle" x="1172" y="-405.2" font-family="Times,serif" font-size="14.00">boost</text>
</g>
<g id="clust7" class="cluster">
<title>cluster_concepts</title>
<polygon fill="lightgrey" stroke="lightgrey" points="618,-133 618,-371 998,-371 998,-133 618,-133"/>
<text text-anchor="middle" x="808" y="-140.2" font-family="Times,serif" font-size="14.00">Graph (main concepts)</text>
</g>
<g id="clust8" class="cluster">
<title>cluster_down</title>
<polygon fill="none" stroke="black" points="8,-8 8,-100.5 1897,-100.5 1897,-8 8,-8"/>
</g>
<g id="clust9" class="cluster">
<title>cluster_models</title>
<polygon fill="#ccffcc" stroke="#ccffcc" points="596,-16 596,-92.5 1889,-92.5 1889,-16 596,-16"/>
<text text-anchor="middle" x="1242.5" y="-23.2" font-family="Times,serif" font-size="14.00">Graph (main models and classes)</text>
</g>
<g id="clust10" class="cluster">
<title>cluster_topology</title>
<polygon fill="#ccffcc" stroke="#ccffcc" points="16,-16 16,-92.5 588,-92.5 588,-16 16,-16"/>
<text text-anchor="middle" x="302" y="-23.2" font-family="Times,serif" font-size="14.00">Topology (related concepts and models)</text>
</g>
<!-- CPredicate -->
<g id="node1" class="node">
<title>CPredicate</title>
<g id="a_node1"><a xlink:href="structDGtal_1_1concepts_1_1CPredicate.html" target="_top" xlink:title="CPredicate">
<ellipse fill="white" stroke="white" cx="517" cy="-448.5" rx="51.35" ry="18"/>
<text text-anchor="middle" x="517" y="-443.45" font-family="Times,serif" font-size="14.00">CPredicate</text>
</a>
</g>
</g>
<!-- boost_Assignable -->
<g id="node2" class="node">
<title>boost_Assignable</title>
<g id="a_node2"><a xlink:href="structboost_1_1Assignable.html" target="_top" xlink:title="boost::Assignable">
<ellipse fill="orange" stroke="orange" cx="1094" cy="-448.5" rx="76.94" ry="18"/>
<text text-anchor="middle" x="1094" y="-443.45" font-family="Times,serif" font-size="14.00">boost::Assignable</text>
</a>
</g>
</g>
<!-- boost_CopyConstructible -->
<g id="node3" class="node">
<title>boost_CopyConstructible</title>
<g id="a_node3"><a xlink:href="structboost_1_1CopyConstructible.html" target="_top" xlink:title="boost::CopyConstructible">
<ellipse fill="orange" stroke="orange" cx="698" cy="-448.5" rx="105.6" ry="18"/>
<text text-anchor="middle" x="698" y="-443.45" font-family="Times,serif" font-size="14.00">boost::CopyConstructible</text>
</a>
</g>
</g>
<!-- boost_OutputIterator -->
<g id="node4" class="node">
<title>boost_OutputIterator</title>
<g id="a_node4"><a xlink:href="structboost_1_1OutputIterator.html" target="_top" xlink:title="boost::OutputIterator">
<ellipse fill="orange" stroke="orange" cx="910" cy="-448.5" rx="88.71" ry="18"/>
<text text-anchor="middle" x="910" y="-443.45" font-family="Times,serif" font-size="14.00">boost::OutputIterator</text>
</a>
</g>
</g>
<!-- boost_UniqueAssociativeContainer -->
<g id="node5" class="node">
<title>boost_UniqueAssociativeContainer</title>
<g id="a_node5"><a xlink:href="structboost_1_1UniqueAssociativeContainer.html" target="_top" xlink:title="boost::UniqueAssociativeContainer">
<ellipse fill="orange" stroke="orange" cx="1331" cy="-448.5" rx="142.45" ry="18"/>
<text text-anchor="middle" x="1331" y="-443.45" font-family="Times,serif" font-size="14.00">boost::UniqueAssociativeContainer</text>
</a>
</g>
</g>
<!-- boost_PairAssociativeContainer -->
<g id="node6" class="node">
<title>boost_PairAssociativeContainer</title>
<g id="a_node6"><a xlink:href="structboost_1_1PairAssociativeContainer.html" target="_top" xlink:title="boost::PairAssociativeContainer">
<ellipse fill="orange" stroke="orange" cx="1622" cy="-448.5" rx="130.17" ry="18"/>
<text text-anchor="middle" x="1622" y="-443.45" font-family="Times,serif" font-size="14.00">boost::PairAssociativeContainer</text>
</a>
</g>
</g>
<!-- CUndirectedSimpleLocalGraph -->
<g id="node7" class="node">
<title>CUndirectedSimpleLocalGraph</title>
<g id="a_node7"><a xlink:href="structDGtal_1_1concepts_1_1CUndirectedSimpleLocalGraph.html" target="_top" xlink:title="CUndirectedSimpleLocalGraph">
<ellipse fill="white" stroke="white" cx="861" cy="-256.5" rx="128.63" ry="18"/>
<text text-anchor="middle" x="861" y="-251.45" font-family="Times,serif" font-size="14.00">CUndirectedSimpleLocalGraph</text>
</a>
</g>
</g>
<!-- CUndirectedSimpleLocalGraph&#45;&gt;boost_OutputIterator -->
<g id="edge5" class="edge">
<title>CUndirectedSimpleLocalGraph&#45;&gt;boost_OutputIterator</title>
<path fill="none" stroke="black" stroke-dasharray="5,2" d="M770.08,-269.51C735,-279.08 698.26,-296.24 677,-327 665.88,-343.09 672.86,-351.89 677,-371 678.14,-376.25 677.58,-378.96 682,-382 706.03,-398.53 785.12,-381.44 813,-390 836.95,-397.36 861.2,-411.73 879.46,-424.27"/>
<polygon fill="black" stroke="black" points="877.27,-427 887.46,-429.92 881.31,-421.29 877.27,-427"/>
<text text-anchor="middle" x="686" y="-339.95" font-family="Times,serif" font-size="14.00">use</text>
</g>
<!-- CVertexPredicate -->
<g id="node9" class="node">
<title>CVertexPredicate</title>
<g id="a_node9"><a xlink:href="structDGtal_1_1concepts_1_1CVertexPredicate.html" target="_top" xlink:title="CVertexPredicate">
<ellipse fill="white" stroke="white" cx="779" cy="-345" rx="75.41" ry="18"/>
<text text-anchor="middle" x="779" y="-339.95" font-family="Times,serif" font-size="14.00">CVertexPredicate</text>
</a>
</g>
</g>
<!-- CUndirectedSimpleLocalGraph&#45;&gt;CVertexPredicate -->
<g id="edge6" class="edge">
<title>CUndirectedSimpleLocalGraph&#45;&gt;CVertexPredicate</title>
<path fill="none" stroke="black" stroke-dasharray="5,2" d="M844.8,-274.59C832.89,-287.15 816.52,-304.42 803.09,-318.59"/>
<polygon fill="black" stroke="black" points="800.55,-316.18 796.21,-325.85 805.63,-321 800.55,-316.18"/>
<text text-anchor="middle" x="836" y="-295.7" font-family="Times,serif" font-size="14.00">use</text>
</g>
<!-- CVertexMap -->
<g id="node10" class="node">
<title>CVertexMap</title>
<g id="a_node10"><a xlink:href="structDGtal_1_1concepts_1_1CVertexMap.html" target="_top" xlink:title="CVertexMap">
<ellipse fill="white" stroke="white" cx="931" cy="-345" rx="58.52" ry="18"/>
<text text-anchor="middle" x="931" y="-339.95" font-family="Times,serif" font-size="14.00">CVertexMap</text>
</a>
</g>
</g>
<!-- CUndirectedSimpleLocalGraph&#45;&gt;CVertexMap -->
<g id="edge4" class="edge">
<title>CUndirectedSimpleLocalGraph&#45;&gt;CVertexMap</title>
<path fill="none" stroke="black" stroke-dasharray="5,2" d="M874.83,-274.59C884.96,-287.11 898.89,-304.32 910.34,-318.46"/>
<polygon fill="black" stroke="black" points="907.47,-320.49 916.49,-326.06 912.92,-316.09 907.47,-320.49"/>
<text text-anchor="middle" x="911" y="-295.7" font-family="Times,serif" font-size="14.00">use</text>
</g>
<!-- CUndirectedSimpleGraph -->
<g id="node8" class="node">
<title>CUndirectedSimpleGraph</title>
<g id="a_node8"><a xlink:href="structDGtal_1_1concepts_1_1CUndirectedSimpleGraph.html" target="_top" xlink:title="CUndirectedSimpleGraph">
<ellipse fill="white" stroke="white" cx="734" cy="-183.5" rx="107.65" ry="18"/>
<text text-anchor="middle" x="734" y="-178.45" font-family="Times,serif" font-size="14.00">CUndirectedSimpleGraph</text>
</a>
</g>
</g>
<!-- CUndirectedSimpleGraph&#45;&gt;CUndirectedSimpleLocalGraph -->
<g id="edge3" class="edge">
<title>CUndirectedSimpleGraph&#45;&gt;CUndirectedSimpleLocalGraph</title>
<path fill="none" stroke="black" d="M763.78,-201.15C780.85,-210.69 802.5,-222.8 821.04,-233.16"/>
<polygon fill="black" stroke="black" points="819.21,-236.15 829.65,-237.97 822.63,-230.04 819.21,-236.15"/>
</g>
<!-- CVertexPredicate&#45;&gt;CPredicate -->
<g id="edge1" class="edge">
<title>CVertexPredicate&#45;&gt;CPredicate</title>
<path fill="none" stroke="black" d="M733.5,-359.75C719.61,-363.69 704.25,-367.78 690,-371 641.61,-381.95 624.56,-368.18 580,-390 564.05,-397.81 549.23,-410.92 537.97,-422.65"/>
<polygon fill="black" stroke="black" points="535.64,-420 531.46,-429.73 540.8,-424.74 535.64,-420"/>
</g>
<!-- CVertexMap&#45;&gt;boost_Assignable -->
<g id="edge2" class="edge">
<title>CVertexMap&#45;&gt;boost_Assignable</title>
<path fill="none" stroke="black" d="M958.72,-361.22C973.49,-369.49 991.9,-380.03 1008,-390 1025.71,-400.96 1045.01,-413.79 1060.84,-424.54"/>
<polygon fill="black" stroke="black" points="1058.72,-427.33 1068.95,-430.08 1062.67,-421.55 1058.72,-427.33"/>
</g>
<!-- CGraphVisitor -->
<g id="node11" class="node">
<title>CGraphVisitor</title>
<g id="a_node11"><a xlink:href="structDGtal_1_1concepts_1_1CGraphVisitor.html" target="_top" xlink:title="CGraphVisitor">
<ellipse fill="white" stroke="white" cx="925" cy="-183.5" rx="65.17" ry="18"/>
<text text-anchor="middle" x="925" y="-178.45" font-family="Times,serif" font-size="14.00">CGraphVisitor</text>
</a>
</g>
</g>
<!-- CGraphVisitor&#45;&gt;boost_CopyConstructible -->
<g id="edge7" class="edge">
<title>CGraphVisitor&#45;&gt;boost_CopyConstructible</title>
<path fill="none" stroke="black" d="M875.64,-195.7C819.92,-208.65 735.38,-229.37 723,-238.5 671.56,-276.47 654.77,-308.25 667,-371 670.3,-387.92 677.35,-405.84 683.89,-420.08"/>
<polygon fill="black" stroke="black" points="680.59,-421.3 688.07,-428.8 686.9,-418.27 680.59,-421.3"/>
</g>
<!-- CVertexPredicateArchetype -->
<g id="node12" class="node">
<title>CVertexPredicateArchetype</title>
<g id="a_node12"><a xlink:href="structDGtal_1_1concepts_1_1CVertexPredicateArchetype.html" target="_top" xlink:title="CVertexPredicateArchetype">
<ellipse fill="white" stroke="white" cx="1498" cy="-66.5" rx="113.79" ry="18"/>
<text text-anchor="middle" x="1498" y="-61.45" font-family="Times,serif" font-size="14.00">CVertexPredicateArchetype</text>
</a>
</g>
</g>
<!-- CVertexPredicateArchetype&#45;&gt;CVertexPredicate -->
<g id="edge8" class="edge">
<title>CVertexPredicateArchetype&#45;&gt;CVertexPredicate</title>
<path fill="none" stroke="black" d="M1470.04,-84.36C1424.33,-111.46 1330.24,-165.34 1246,-201.5 1107.36,-261.01 1069.02,-267.37 924,-309 897.98,-316.47 869.03,-323.67 843.89,-329.59"/>
<polygon fill="black" stroke="black" points="843.42,-326.1 834.47,-331.78 845.01,-332.92 843.42,-326.1"/>
</g>
<!-- STLMapToVertexMapAdapter -->
<g id="node13" class="node">
<title>STLMapToVertexMapAdapter</title>
<g id="a_node13"><a xlink:href="classDGtal_1_1STLMapToVertexMapAdapter.html" target="_top" xlink:title="STLMapToVertexMapAdapter">
<ellipse fill="white" stroke="white" cx="1755" cy="-66.5" rx="125.56" ry="18"/>
<text text-anchor="middle" x="1755" y="-61.45" font-family="Times,serif" font-size="14.00">STLMapToVertexMapAdapter</text>
</a>
</g>
</g>
<!-- STLMapToVertexMapAdapter&#45;&gt;boost_UniqueAssociativeContainer -->
<g id="edge10" class="edge">
<title>STLMapToVertexMapAdapter&#45;&gt;boost_UniqueAssociativeContainer</title>
<path fill="none" stroke="black" stroke-dasharray="5,2" d="M1684.65,-81.79C1632.71,-96.92 1571,-126.65 1571,-182.5 1571,-182.5 1571,-182.5 1571,-346 1571,-355.98 1456.99,-400.42 1386.13,-427.08"/>
<polygon fill="black" stroke="black" points="1385.13,-423.71 1377,-430.5 1387.59,-430.27 1385.13,-423.71"/>
<text text-anchor="middle" x="1580" y="-251.45" font-family="Times,serif" font-size="14.00">use</text>
</g>
<!-- STLMapToVertexMapAdapter&#45;&gt;boost_PairAssociativeContainer -->
<g id="edge11" class="edge">
<title>STLMapToVertexMapAdapter&#45;&gt;boost_PairAssociativeContainer</title>
<path fill="none" stroke="black" stroke-dasharray="5,2" d="M1727.78,-84.39C1699.7,-104.13 1660,-139.64 1660,-182.5 1660,-182.5 1660,-182.5 1660,-346 1660,-372.48 1648.52,-400.51 1638.18,-420.39"/>
<polygon fill="black" stroke="black" points="1635.23,-418.48 1633.51,-428.94 1641.38,-421.84 1635.23,-418.48"/>
<text text-anchor="middle" x="1669" y="-251.45" font-family="Times,serif" font-size="14.00">use</text>
</g>
<!-- STLMapToVertexMapAdapter&#45;&gt;CVertexMap -->
<g id="edge9" class="edge">
<title>STLMapToVertexMapAdapter&#45;&gt;CVertexMap</title>
<path fill="none" stroke="black" d="M1698.59,-82.95C1674.78,-89.06 1646.68,-95.75 1621,-100.5 1592.81,-105.71 1584.74,-101.27 1557,-108.5 1450.7,-136.22 1430.61,-162.27 1328,-201.5 1203.15,-249.23 1054.52,-301.34 979.49,-327.32"/>
<polygon fill="black" stroke="black" points="978.7,-323.89 970.39,-330.46 980.99,-330.5 978.7,-323.89"/>
</g>
<!-- BreadthFirstVisitor -->
<g id="node14" class="node">
<title>BreadthFirstVisitor</title>
<g id="a_node14"><a xlink:href="classDGtal_1_1BreadthFirstVisitor.html" target="_top" xlink:title="BreadthFirstVisitor">
<ellipse fill="white" stroke="white" cx="1116" cy="-66.5" rx="82.06" ry="18"/>
<text text-anchor="middle" x="1116" y="-61.45" font-family="Times,serif" font-size="14.00">BreadthFirstVisitor</text>
</a>
</g>
</g>
<!-- BreadthFirstVisitor&#45;&gt;CUndirectedSimpleLocalGraph -->
<g id="edge16" class="edge">
<title>BreadthFirstVisitor&#45;&gt;CUndirectedSimpleLocalGraph</title>
<path fill="none" stroke="black" stroke-dasharray="5,2" d="M1115.67,-84.95C1113.92,-119.58 1104.27,-195.75 1054,-220.5 1031.44,-231.6 1005.85,-239.21 980.84,-244.42"/>
<polygon fill="black" stroke="black" points="980.42,-240.94 971.27,-246.29 981.76,-247.81 980.42,-240.94"/>
<text text-anchor="middle" x="1118" y="-178.45" font-family="Times,serif" font-size="14.00">use</text>
</g>
<!-- BreadthFirstVisitor&#45;&gt;CGraphVisitor -->
<g id="edge17" class="edge">
<title>BreadthFirstVisitor&#45;&gt;CGraphVisitor</title>
<path fill="none" stroke="black" d="M1087.78,-83.68C1065.05,-96.8 1032.32,-115.85 1004,-133 989.41,-141.84 973.44,-151.79 959.7,-160.44"/>
<polygon fill="black" stroke="black" points="958.01,-157.37 951.42,-165.67 961.74,-163.29 958.01,-157.37"/>
</g>
<!-- DepthFirstVisitor -->
<g id="node15" class="node">
<title>DepthFirstVisitor</title>
<g id="a_node15"><a xlink:href="classDGtal_1_1DepthFirstVisitor.html" target="_top" xlink:title="DepthFirstVisitor">
<ellipse fill="white" stroke="white" cx="1291" cy="-66.5" rx="75.41" ry="18"/>
<text text-anchor="middle" x="1291" y="-61.45" font-family="Times,serif" font-size="14.00">DepthFirstVisitor</text>
</a>
</g>
</g>
<!-- DepthFirstVisitor&#45;&gt;CUndirectedSimpleLocalGraph -->
<g id="edge18" class="edge">
<title>DepthFirstVisitor&#45;&gt;CUndirectedSimpleLocalGraph</title>
<path fill="none" stroke="black" stroke-dasharray="5,2" d="M1275.39,-84.44C1248.51,-112.65 1190.62,-169.31 1131,-201.5 1086.9,-225.31 1033.63,-238.68 986.11,-246.16"/>
<polygon fill="black" stroke="black" points="985.67,-242.68 976.29,-247.62 986.7,-249.61 985.67,-242.68"/>
<text text-anchor="middle" x="1233" y="-178.45" font-family="Times,serif" font-size="14.00">use</text>
</g>
<!-- DepthFirstVisitor&#45;&gt;CGraphVisitor -->
<g id="edge19" class="edge">
<title>DepthFirstVisitor&#45;&gt;CGraphVisitor</title>
<path fill="none" stroke="black" d="M1256.83,-82.86C1241.8,-89.11 1223.78,-95.92 1207,-100.5 1195.98,-103.51 1014.69,-128.98 1004,-133 986.76,-139.47 969.25,-149.97 955.1,-159.63"/>
<polygon fill="black" stroke="black" points="953.28,-156.63 947.13,-165.25 957.32,-162.35 953.28,-156.63"/>
</g>
<!-- DistanceBreadthFirstVisitor -->
<g id="node16" class="node">
<title>DistanceBreadthFirstVisitor</title>
<g id="a_node16"><a xlink:href="classDGtal_1_1DistanceBreadthFirstVisitor.html" target="_top" xlink:title="DistanceBreadthFirstVisitor">
<ellipse fill="white" stroke="white" cx="902" cy="-66.5" rx="114.3" ry="18"/>
<text text-anchor="middle" x="902" y="-61.45" font-family="Times,serif" font-size="14.00">DistanceBreadthFirstVisitor</text>
</a>
</g>
</g>
<!-- DistanceBreadthFirstVisitor&#45;&gt;CUndirectedSimpleLocalGraph -->
<g id="edge20" class="edge">
<title>DistanceBreadthFirstVisitor&#45;&gt;CUndirectedSimpleLocalGraph</title>
<path fill="none" stroke="black" stroke-dasharray="5,2" d="M957.86,-82.6C983.98,-92.59 1013,-108.49 1030,-133 1052.31,-165.16 1064.88,-190.28 1040,-220.5 1031.03,-231.4 1006.59,-238.95 978.55,-244.17"/>
<polygon fill="black" stroke="black" points="977.97,-240.71 968.71,-245.86 979.16,-247.61 977.97,-240.71"/>
<text text-anchor="middle" x="1062" y="-178.45" font-family="Times,serif" font-size="14.00">use</text>
</g>
<!-- DistanceBreadthFirstVisitor&#45;&gt;CGraphVisitor -->
<g id="edge21" class="edge">
<title>DistanceBreadthFirstVisitor&#45;&gt;CGraphVisitor</title>
<path fill="none" stroke="black" d="M925.82,-84.56C933.06,-91.13 940.12,-99.3 944,-108.5 950.28,-123.4 946.27,-140.9 940.34,-155.13"/>
<polygon fill="black" stroke="black" points="937.3,-153.37 936.22,-163.91 943.64,-156.35 937.3,-153.37"/>
</g>
<!-- GraphVisitorRange -->
<g id="node17" class="node">
<title>GraphVisitorRange</title>
<g id="a_node17"><a xlink:href="classDGtal_1_1GraphVisitorRange.html" target="_top" xlink:title="GraphVisitorRange">
<ellipse fill="white" stroke="white" cx="687" cy="-66.5" rx="82.57" ry="18"/>
<text text-anchor="middle" x="687" y="-61.45" font-family="Times,serif" font-size="14.00">GraphVisitorRange</text>
</a>
</g>
</g>
<!-- GraphVisitorRange&#45;&gt;CGraphVisitor -->
<g id="edge22" class="edge">
<title>GraphVisitorRange&#45;&gt;CGraphVisitor</title>
<path fill="none" stroke="black" stroke-dasharray="5,2" d="M727.45,-82.54C768.45,-97.99 828.89,-121.36 851,-133 865.6,-140.69 880.9,-150.58 893.77,-159.49"/>
<polygon fill="black" stroke="black" points="891.66,-162.29 901.85,-165.19 895.7,-156.57 891.66,-162.29"/>
<text text-anchor="middle" x="840" y="-111.7" font-family="Times,serif" font-size="14.00">use</text>
</g>
<!-- CAdjacency -->
<g id="node18" class="node">
<title>CAdjacency</title>
<g id="a_node18"><a xlink:href="structDGtal_1_1concepts_1_1CAdjacency.html" target="_top" xlink:title="CAdjacency">
<ellipse fill="white" stroke="white" cx="524" cy="-66.5" rx="56.47" ry="18"/>
<text text-anchor="middle" x="524" y="-61.45" font-family="Times,serif" font-size="14.00">CAdjacency</text>
</a>
</g>
</g>
<!-- CAdjacency&#45;&gt;CUndirectedSimpleLocalGraph -->
<g id="edge12" class="edge">
<title>CAdjacency&#45;&gt;CUndirectedSimpleLocalGraph</title>
<path fill="none" stroke="black" d="M549.91,-82.9C562.24,-89.47 577.44,-96.54 592,-100.5 593.37,-100.87 998.04,-131.96 999,-133 1019.65,-155.37 1016.16,-176.35 999,-201.5 987.5,-218.35 969.88,-229.95 951.03,-237.92"/>
<polygon fill="black" stroke="black" points="949.95,-234.59 941.88,-241.45 952.47,-241.12 949.95,-234.59"/>
</g>
<!-- DigitalSurface -->
<g id="node19" class="node">
<title>DigitalSurface</title>
<g id="a_node19"><a xlink:href="classDGtal_1_1DigitalSurface.html" target="_top" xlink:title="DigitalSurface">
<ellipse fill="white" stroke="white" cx="89" cy="-66.5" rx="64.66" ry="18"/>
<text text-anchor="middle" x="89" y="-61.45" font-family="Times,serif" font-size="14.00">DigitalSurface</text>
</a>
</g>
</g>
<!-- DigitalSurface&#45;&gt;CUndirectedSimpleGraph -->
<g id="edge13" class="edge">
<title>DigitalSurface&#45;&gt;CUndirectedSimpleGraph</title>
<path fill="none" stroke="black" d="M118.53,-82.93C131.81,-89.27 147.86,-96.13 163,-100.5 318.86,-145.5 506.09,-166.38 622.59,-175.65"/>
<polygon fill="black" stroke="black" points="622.23,-179.13 632.48,-176.42 622.78,-172.15 622.23,-179.13"/>
</g>
<!-- IndexedDigitalSurface -->
<g id="node20" class="node">
<title>IndexedDigitalSurface</title>
<g id="a_node20"><a xlink:href="classDGtal_1_1IndexedDigitalSurface.html" target="_top" xlink:title="IndexedDigitalSurface">
<ellipse fill="white" stroke="white" cx="266" cy="-66.5" rx="94.34" ry="18"/>
<text text-anchor="middle" x="266" y="-61.45" font-family="Times,serif" font-size="14.00">IndexedDigitalSurface</text>
</a>
</g>
</g>
<!-- IndexedDigitalSurface&#45;&gt;CUndirectedSimpleGraph -->
<g id="edge14" class="edge">
<title>IndexedDigitalSurface&#45;&gt;CUndirectedSimpleGraph</title>
<path fill="none" stroke="black" d="M311.07,-82.67C329.27,-88.57 350.54,-95.17 370,-100.5 467.31,-127.14 580.96,-151.72 655.03,-166.88"/>
<polygon fill="black" stroke="black" points="654.14,-170.27 664.64,-168.84 655.54,-163.41 654.14,-170.27"/>
</g>
<!-- Object -->
<g id="node21" class="node">
<title>Object</title>
<g id="a_node21"><a xlink:href="classDGtal_1_1Object.html" target="_top" xlink:title="Object">
<ellipse fill="white" stroke="white" cx="414" cy="-66.5" rx="35.49" ry="18"/>
<text text-anchor="middle" x="414" y="-61.45" font-family="Times,serif" font-size="14.00">Object</text>
</a>
</g>
</g>
<!-- Object&#45;&gt;CUndirectedSimpleGraph -->
<g id="edge15" class="edge">
<title>Object&#45;&gt;CUndirectedSimpleGraph</title>
<path fill="none" stroke="black" d="M431.47,-82.49C439.46,-88.75 449.28,-95.67 459,-100.5 521.84,-131.73 598.79,-153.42 655.29,-166.61"/>
<polygon fill="black" stroke="black" points="654.3,-169.98 664.83,-168.8 655.87,-163.15 654.3,-169.98"/>
</g>
</g>
</svg>
