<?xml version="1.0" encoding="UTF-8" standalone="no"?>
<!DOCTYPE svg PUBLIC "-//W3C//DTD SVG 1.1//EN"
 "http://www.w3.org/Graphics/SVG/1.1/DTD/svg11.dtd">
<!-- Generated by graphviz version 11.0.0 (0)
 -->
<!-- Title: Graphical Class Hierarchy Pages: 1 -->
<svg width="285pt" height="84pt"
 viewBox="0.00 0.00 285.25 84.38" xmlns="http://www.w3.org/2000/svg" xmlns:xlink="http://www.w3.org/1999/xlink">
<g id="graph0" class="graph" transform="scale(1 1) rotate(0) translate(4 80.38)">
<title>Graphical Class Hierarchy</title>
<!-- Node0 -->
<g id="Node000000" class="node">
<title>Node0</title>
<g id="a_Node000000"><a xlink:title=" ">
<polygon fill="#e0e0e0" stroke="#999999" points="83.5,-52.38 0,-52.38 0,-30.12 83.5,-30.12 83.5,-52.38"/>
<text text-anchor="middle" x="41.75" y="-38.88" font-family="FreeSans" font-size="10.00">std::false_type</text>
</a>
</g>
</g>
<!-- Node1 -->
<g id="Node000001" class="node">
<title>Node1</title>
<g id="a_Node000001"><a xlink:href="structDGtal_1_1IsAPointVector.html" target="_top" xlink:title="Type trait to check if a given type is a PointVector.">
<polygon fill="white" stroke="#666666" points="268.25,-76.38 128.5,-76.38 128.5,-54.12 268.25,-54.12 268.25,-76.38"/>
<text text-anchor="middle" x="198.38" y="-62.88" font-family="FreeSans" font-size="10.00">DGtal::IsAPointVector&lt; T &gt;</text>
</a>
</g>
</g>
<!-- Node0&#45;&gt;Node1 -->
<g id="edge353_Node000000_Node000001" class="edge">
<title>Node0&#45;&gt;Node1</title>
<g id="a_edge353_Node000000_Node000001"><a xlink:title=" ">
<path fill="none" stroke="#63b8ff" d="M94.98,-49.36C105.6,-51.01 116.93,-52.76 128.04,-54.49"/>
<polygon fill="#63b8ff" stroke="#63b8ff" points="95.69,-45.93 85.28,-47.85 94.62,-52.84 95.69,-45.93"/>
</a>
</g>
</g>
<!-- Node2 -->
<g id="Node000002" class="node">
<title>Node2</title>
<g id="a_Node000002"><a xlink:href="structDGtal_1_1IsArithmeticConversionValid.html" target="_top" xlink:title="Helper to determine if an arithmetic operation between two given types has a valid result type (ie is...">
<polygon fill="white" stroke="#666666" points="277.25,-36.5 119.5,-36.5 119.5,0 277.25,0 277.25,-36.5"/>
<text text-anchor="start" x="127.5" y="-23" font-family="FreeSans" font-size="10.00">DGtal::IsArithmeticConversion</text>
<text text-anchor="middle" x="198.38" y="-8.75" font-family="FreeSans" font-size="10.00">Valid&lt; T, U, Enable &gt;</text>
</a>
</g>
</g>
<!-- Node0&#45;&gt;Node2 -->
<g id="edge354_Node000000_Node000002" class="edge">
<title>Node0&#45;&gt;Node2</title>
<g id="a_edge354_Node000000_Node000002"><a xlink:title=" ">
<path fill="none" stroke="#63b8ff" d="M95.16,-33.45C102.87,-32.31 110.96,-31.1 119.06,-29.9"/>
<polygon fill="#63b8ff" stroke="#63b8ff" points="94.65,-29.99 85.28,-34.92 95.68,-36.91 94.65,-29.99"/>
</a>
</g>
</g>
</g>
</svg>
