<?xml version="1.0" encoding="UTF-8" standalone="no"?>
<!DOCTYPE svg PUBLIC "-//W3C//DTD SVG 1.1//EN"
 "http://www.w3.org/Graphics/SVG/1.1/DTD/svg11.dtd">
<!-- Generated by graphviz version 11.0.0 (0)
 -->
<!-- Title: Graphical Class Hierarchy Pages: 1 -->
<svg width="303pt" height="298pt"
 viewBox="0.00 0.00 302.50 298.38" xmlns="http://www.w3.org/2000/svg" xmlns:xlink="http://www.w3.org/1999/xlink">
<g id="graph0" class="graph" transform="scale(1 1) rotate(0) translate(4 294.38)">
<title>Graphical Class Hierarchy</title>
<!-- Node0 -->
<g id="Node000000" class="node">
<title>Node0</title>
<g id="a_Node000000"><a xlink:href="classDGtal_1_1StarShaped2D.html" target="_top" xlink:title=" ">
<polygon fill="white" stroke="#666666" points="115,-163.38 0,-163.38 0,-126.88 115,-126.88 115,-163.38"/>
<text text-anchor="start" x="8" y="-149.88" font-family="FreeSans" font-size="10.00">DGtal::StarShaped2D</text>
<text text-anchor="middle" x="57.5" y="-135.62" font-family="FreeSans" font-size="10.00">&lt; TSpace &gt;</text>
</a>
</g>
</g>
<!-- Node1 -->
<g id="Node000001" class="node">
<title>Node1</title>
<g id="a_Node000001"><a xlink:href="classDGtal_1_1AccFlower2D.html" target="_top" xlink:title="Aim: Model of the concept StarShaped represents any accelerated flower in the plane.">
<polygon fill="white" stroke="#666666" points="277.25,-290.38 168.25,-290.38 168.25,-253.88 277.25,-253.88 277.25,-290.38"/>
<text text-anchor="start" x="176.25" y="-276.88" font-family="FreeSans" font-size="10.00">DGtal::AccFlower2D</text>
<text text-anchor="middle" x="222.75" y="-262.62" font-family="FreeSans" font-size="10.00">&lt; TSpace &gt;</text>
</a>
</g>
</g>
<!-- Node0&#45;&gt;Node1 -->
<g id="edge311_Node000000_Node000001" class="edge">
<title>Node0&#45;&gt;Node1</title>
<g id="a_edge311_Node000000_Node000001"><a xlink:title=" ">
<path fill="none" stroke="#63b8ff" d="M78.26,-172.7C95.35,-194.85 121.86,-225.42 151,-245.12 156.23,-248.66 161.98,-251.82 167.88,-254.62"/>
<polygon fill="#63b8ff" stroke="#63b8ff" points="81.25,-170.86 72.44,-164.98 75.66,-175.08 81.25,-170.86"/>
</a>
</g>
</g>
<!-- Node2 -->
<g id="Node000002" class="node">
<title>Node2</title>
<g id="a_Node000002"><a xlink:href="classDGtal_1_1Astroid2D.html" target="_top" xlink:title="Aim: Model of the concept StarShaped represents an astroid.">
<polygon fill="white" stroke="#666666" points="294.5,-236.25 151,-236.25 151,-214 294.5,-214 294.5,-236.25"/>
<text text-anchor="middle" x="222.75" y="-222.75" font-family="FreeSans" font-size="10.00">DGtal::Astroid2D&lt; TSpace &gt;</text>
</a>
</g>
</g>
<!-- Node0&#45;&gt;Node2 -->
<g id="edge312_Node000000_Node000002" class="edge">
<title>Node0&#45;&gt;Node2</title>
<g id="a_edge312_Node000000_Node000002"><a xlink:title=" ">
<path fill="none" stroke="#63b8ff" d="M91.81,-170.22C108.82,-182.1 130.26,-195.73 151,-205.12 158.09,-208.34 165.82,-211.16 173.48,-213.58"/>
<polygon fill="#63b8ff" stroke="#63b8ff" points="94.25,-167.66 84.08,-164.71 90.19,-173.36 94.25,-167.66"/>
</a>
</g>
</g>
<!-- Node3 -->
<g id="Node000003" class="node">
<title>Node3</title>
<g id="a_Node000003"><a xlink:href="classDGtal_1_1Ball2D.html" target="_top" xlink:title="Aim: Model of the concept StarShaped represents any circle in the plane.">
<polygon fill="white" stroke="#666666" points="286.25,-196.25 159.25,-196.25 159.25,-174 286.25,-174 286.25,-196.25"/>
<text text-anchor="middle" x="222.75" y="-182.75" font-family="FreeSans" font-size="10.00">DGtal::Ball2D&lt; TSpace &gt;</text>
</a>
</g>
</g>
<!-- Node0&#45;&gt;Node3 -->
<g id="edge313_Node000000_Node000003" class="edge">
<title>Node0&#45;&gt;Node3</title>
<g id="a_edge313_Node000000_Node000003"><a xlink:title=" ">
<path fill="none" stroke="#63b8ff" d="M126.2,-161.71C142.41,-165.68 159.36,-169.84 174.42,-173.53"/>
<polygon fill="#63b8ff" stroke="#63b8ff" points="127.15,-158.34 116.61,-159.36 125.49,-165.14 127.15,-158.34"/>
</a>
</g>
</g>
<!-- Node4 -->
<g id="Node000004" class="node">
<title>Node4</title>
<g id="a_Node000004"><a xlink:href="classDGtal_1_1Ellipse2D.html" target="_top" xlink:title="Aim: Model of the concept StarShaped represents any ellipse in the plane.">
<polygon fill="white" stroke="#666666" points="292.25,-156.25 153.25,-156.25 153.25,-134 292.25,-134 292.25,-156.25"/>
<text text-anchor="middle" x="222.75" y="-142.75" font-family="FreeSans" font-size="10.00">DGtal::Ellipse2D&lt; TSpace &gt;</text>
</a>
</g>
</g>
<!-- Node0&#45;&gt;Node4 -->
<g id="edge314_Node000000_Node000004" class="edge">
<title>Node0&#45;&gt;Node4</title>
<g id="a_edge314_Node000000_Node000004"><a xlink:title=" ">
<path fill="none" stroke="#63b8ff" d="M126.44,-145.12C135.16,-145.12 144.1,-145.12 152.83,-145.12"/>
<polygon fill="#63b8ff" stroke="#63b8ff" points="126.65,-141.63 116.65,-145.13 126.65,-148.63 126.65,-141.63"/>
</a>
</g>
</g>
<!-- Node5 -->
<g id="Node000005" class="node">
<title>Node5</title>
<g id="a_Node000005"><a xlink:href="classDGtal_1_1Flower2D.html" target="_top" xlink:title="Aim: Model of the concept StarShaped represents any flower with k&#45;petals in the plane.">
<polygon fill="white" stroke="#666666" points="293.75,-116.25 151.75,-116.25 151.75,-94 293.75,-94 293.75,-116.25"/>
<text text-anchor="middle" x="222.75" y="-102.75" font-family="FreeSans" font-size="10.00">DGtal::Flower2D&lt; TSpace &gt;</text>
</a>
</g>
</g>
<!-- Node0&#45;&gt;Node5 -->
<g id="edge315_Node000000_Node000005" class="edge">
<title>Node0&#45;&gt;Node5</title>
<g id="a_edge315_Node000000_Node000005"><a xlink:title=" ">
<path fill="none" stroke="#63b8ff" d="M126.2,-128.54C142.41,-124.57 159.36,-120.41 174.42,-116.72"/>
<polygon fill="#63b8ff" stroke="#63b8ff" points="125.49,-125.11 116.61,-130.89 127.15,-131.91 125.49,-125.11"/>
</a>
</g>
</g>
<!-- Node6 -->
<g id="Node000006" class="node">
<title>Node6</title>
<g id="a_Node000006"><a xlink:href="classDGtal_1_1Lemniscate2D.html" target="_top" xlink:title="Aim: Model of the concept StarShaped represents a lemniscate.">
<polygon fill="white" stroke="#666666" points="279.88,-76.38 165.62,-76.38 165.62,-39.88 279.88,-39.88 279.88,-76.38"/>
<text text-anchor="start" x="173.62" y="-62.88" font-family="FreeSans" font-size="10.00">DGtal::Lemniscate2D</text>
<text text-anchor="middle" x="222.75" y="-48.62" font-family="FreeSans" font-size="10.00">&lt; TSpace &gt;</text>
</a>
</g>
</g>
<!-- Node0&#45;&gt;Node6 -->
<g id="edge316_Node000000_Node000006" class="edge">
<title>Node0&#45;&gt;Node6</title>
<g id="a_edge316_Node000000_Node000006"><a xlink:title=" ">
<path fill="none" stroke="#63b8ff" d="M93.39,-120C110.28,-108.49 131.17,-95.2 151,-85.12 156.74,-82.21 162.88,-79.42 169.05,-76.81"/>
<polygon fill="#63b8ff" stroke="#63b8ff" points="91.42,-117.11 85.18,-125.67 95.4,-122.86 91.42,-117.11"/>
</a>
</g>
</g>
<!-- Node7 -->
<g id="Node000007" class="node">
<title>Node7</title>
<g id="a_Node000007"><a xlink:href="classDGtal_1_1NGon2D.html" target="_top" xlink:title="Aim: Model of the concept StarShaped represents any regular k&#45;gon in the plane.">
<polygon fill="white" stroke="#666666" points="291.5,-22.25 154,-22.25 154,0 291.5,0 291.5,-22.25"/>
<text text-anchor="middle" x="222.75" y="-8.75" font-family="FreeSans" font-size="10.00">DGtal::NGon2D&lt; TSpace &gt;</text>
</a>
</g>
</g>
<!-- Node0&#45;&gt;Node7 -->
<g id="edge317_Node000000_Node000007" class="edge">
<title>Node0&#45;&gt;Node7</title>
<g id="a_edge317_Node000000_Node000007"><a xlink:title=" ">
<path fill="none" stroke="#63b8ff" d="M74.26,-117.11C90.31,-91.09 117.55,-53.15 151,-31.12 156.12,-27.76 161.8,-24.95 167.66,-22.61"/>
<polygon fill="#63b8ff" stroke="#63b8ff" points="71.39,-115.1 69.25,-125.47 77.39,-118.69 71.39,-115.1"/>
</a>
</g>
</g>
</g>
</svg>
