<?xml version="1.0" encoding="UTF-8" standalone="no"?>
<!DOCTYPE svg PUBLIC "-//W3C//DTD SVG 1.1//EN"
 "http://www.w3.org/Graphics/SVG/1.1/DTD/svg11.dtd">
<!-- Generated by graphviz version 11.0.0 (0)
 -->
<!-- Title: Graphical Class Hierarchy Pages: 1 -->
<svg width="593pt" height="270pt"
 viewBox="0.00 0.00 593.25 270.25" xmlns="http://www.w3.org/2000/svg" xmlns:xlink="http://www.w3.org/1999/xlink">
<g id="graph0" class="graph" transform="scale(1 1) rotate(0) translate(4 266.25)">
<title>Graphical Class Hierarchy</title>
<!-- Node0 -->
<g id="Node000000" class="node">
<title>Node0</title>
<g id="a_Node000000"><a xlink:href="structLibBoard_1_1Shape.html" target="_top" xlink:title="Abstract structure for a 2D shape.">
<polygon fill="white" stroke="#666666" points="91.75,-162.25 0,-162.25 0,-140 91.75,-140 91.75,-162.25"/>
<text text-anchor="middle" x="45.88" y="-148.75" font-family="FreeSans" font-size="10.00">LibBoard::Shape</text>
</a>
</g>
</g>
<!-- Node1 -->
<g id="Node000001" class="node">
<title>Node1</title>
<g id="a_Node000001"><a xlink:href="structLibBoard_1_1Dot.html" target="_top" xlink:title="A line between two points.">
<polygon fill="white" stroke="#666666" points="221.75,-262.25 141.25,-262.25 141.25,-240 221.75,-240 221.75,-262.25"/>
<text text-anchor="middle" x="181.5" y="-248.75" font-family="FreeSans" font-size="10.00">LibBoard::Dot</text>
</a>
</g>
</g>
<!-- Node0&#45;&gt;Node1 -->
<g id="edge325_Node000000_Node000001" class="edge">
<title>Node0&#45;&gt;Node1</title>
<g id="a_edge325_Node000000_Node000001"><a xlink:title=" ">
<path fill="none" stroke="#63b8ff" d="M62.94,-171.23C78.05,-189.03 102.14,-214.67 127.75,-231.12 132.78,-234.35 138.4,-237.18 144.06,-239.61"/>
<polygon fill="#63b8ff" stroke="#63b8ff" points="65.93,-169.36 56.85,-163.89 60.54,-173.82 65.93,-169.36"/>
</a>
</g>
</g>
<!-- Node2 -->
<g id="Node000002" class="node">
<title>Node2</title>
<g id="a_Node000002"><a xlink:href="structLibBoard_1_1Ellipse.html" target="_top" xlink:title="An ellipse.">
<polygon fill="white" stroke="#666666" points="227.38,-222.25 135.62,-222.25 135.62,-200 227.38,-200 227.38,-222.25"/>
<text text-anchor="middle" x="181.5" y="-208.75" font-family="FreeSans" font-size="10.00">LibBoard::Ellipse</text>
</a>
</g>
</g>
<!-- Node0&#45;&gt;Node2 -->
<g id="edge326_Node000000_Node000002" class="edge">
<title>Node0&#45;&gt;Node2</title>
<g id="a_edge326_Node000000_Node000002"><a xlink:title=" ">
<path fill="none" stroke="#63b8ff" d="M79.02,-167.92C93.72,-175.36 111.46,-184.03 127.75,-191.12 134.39,-194.02 141.61,-196.91 148.5,-199.56"/>
<polygon fill="#63b8ff" stroke="#63b8ff" points="80.76,-164.88 70.26,-163.44 77.57,-171.11 80.76,-164.88"/>
</a>
</g>
</g>
<!-- Node5 -->
<g id="Node000005" class="node">
<title>Node5</title>
<g id="a_Node000005"><a xlink:href="structLibBoard_1_1Line.html" target="_top" xlink:title="A line between two points.">
<polygon fill="white" stroke="#666666" points="222.88,-182.25 140.12,-182.25 140.12,-160 222.88,-160 222.88,-182.25"/>
<text text-anchor="middle" x="181.5" y="-168.75" font-family="FreeSans" font-size="10.00">LibBoard::Line</text>
</a>
</g>
</g>
<!-- Node0&#45;&gt;Node5 -->
<g id="edge329_Node000000_Node000005" class="edge">
<title>Node0&#45;&gt;Node5</title>
<g id="a_edge329_Node000000_Node000005"><a xlink:title=" ">
<path fill="none" stroke="#63b8ff" d="M103.21,-159.56C115.49,-161.4 128.26,-163.31 139.8,-165.03"/>
<polygon fill="#63b8ff" stroke="#63b8ff" points="104.02,-156.14 93.61,-158.12 102.98,-163.06 104.02,-156.14"/>
</a>
</g>
</g>
<!-- Node7 -->
<g id="Node000007" class="node">
<title>Node7</title>
<g id="a_Node000007"><a xlink:href="structLibBoard_1_1Polyline.html" target="_top" xlink:title="A polygonal line described by a series of 2D points.">
<polygon fill="white" stroke="#666666" points="231.12,-142.25 131.88,-142.25 131.88,-120 231.12,-120 231.12,-142.25"/>
<text text-anchor="middle" x="181.5" y="-128.75" font-family="FreeSans" font-size="10.00">LibBoard::Polyline</text>
</a>
</g>
</g>
<!-- Node0&#45;&gt;Node7 -->
<g id="edge331_Node000000_Node000007" class="edge">
<title>Node0&#45;&gt;Node7</title>
<g id="a_edge331_Node000000_Node000007"><a xlink:title=" ">
<path fill="none" stroke="#63b8ff" d="M103.39,-142.67C112.78,-141.26 122.46,-139.81 131.64,-138.44"/>
<polygon fill="#63b8ff" stroke="#63b8ff" points="102.98,-139.19 93.61,-144.13 104.02,-146.11 102.98,-139.19"/>
</a>
</g>
</g>
<!-- Node13 -->
<g id="Node000013" class="node">
<title>Node13</title>
<g id="a_Node000013"><a xlink:href="structLibBoard_1_1ShapeList.html" target="_top" xlink:title="A group of shapes.">
<polygon fill="white" stroke="#666666" points="235.25,-82.25 127.75,-82.25 127.75,-60 235.25,-60 235.25,-82.25"/>
<text text-anchor="middle" x="181.5" y="-68.75" font-family="FreeSans" font-size="10.00">LibBoard::ShapeList</text>
</a>
</g>
</g>
<!-- Node0&#45;&gt;Node13 -->
<g id="edge337_Node000000_Node000013" class="edge">
<title>Node0&#45;&gt;Node13</title>
<g id="a_edge337_Node000000_Node000013"><a xlink:title=" ">
<path fill="none" stroke="#63b8ff" d="M75.68,-133.88C101.61,-118.36 138.98,-95.98 161.39,-82.57"/>
<polygon fill="#63b8ff" stroke="#63b8ff" points="74.1,-130.75 67.32,-138.89 77.7,-136.75 74.1,-130.75"/>
</a>
</g>
</g>
<!-- Node17 -->
<g id="Node000017" class="node">
<title>Node17</title>
<g id="a_Node000017"><a xlink:href="structLibBoard_1_1Text.html" target="_top" xlink:title="A piece of text.">
<polygon fill="white" stroke="#666666" points="222.5,-42.25 140.5,-42.25 140.5,-20 222.5,-20 222.5,-42.25"/>
<text text-anchor="middle" x="181.5" y="-28.75" font-family="FreeSans" font-size="10.00">LibBoard::Text</text>
</a>
</g>
</g>
<!-- Node0&#45;&gt;Node17 -->
<g id="edge341_Node000000_Node000017" class="edge">
<title>Node0&#45;&gt;Node17</title>
<g id="a_edge341_Node000000_Node000017"><a xlink:title=" ">
<path fill="none" stroke="#63b8ff" d="M59.2,-129.99C73.23,-107.61 98.08,-72.6 127.75,-51.12 132.27,-47.85 137.4,-45.04 142.63,-42.66"/>
<polygon fill="#63b8ff" stroke="#63b8ff" points="56.37,-127.92 54.16,-138.28 62.35,-131.55 56.37,-127.92"/>
</a>
</g>
</g>
<!-- Node3 -->
<g id="Node000003" class="node">
<title>Node3</title>
<g id="a_Node000003"><a xlink:href="structLibBoard_1_1Circle.html" target="_top" xlink:title="A circle.">
<polygon fill="white" stroke="#666666" points="385.88,-262.25 297.88,-262.25 297.88,-240 385.88,-240 385.88,-262.25"/>
<text text-anchor="middle" x="341.88" y="-248.75" font-family="FreeSans" font-size="10.00">LibBoard::Circle</text>
</a>
</g>
</g>
<!-- Node2&#45;&gt;Node3 -->
<g id="edge327_Node000002_Node000003" class="edge">
<title>Node2&#45;&gt;Node3</title>
<g id="a_edge327_Node000002_Node000003"><a xlink:title=" ">
<path fill="none" stroke="#63b8ff" d="M238.57,-225.29C257.91,-230.17 279.27,-235.57 297.44,-240.16"/>
<polygon fill="#63b8ff" stroke="#63b8ff" points="239.48,-221.91 228.93,-222.85 237.77,-228.69 239.48,-221.91"/>
</a>
</g>
</g>
<!-- Node4 -->
<g id="Node000004" class="node">
<title>Node4</title>
<g id="a_Node000004"><a xlink:href="structLibBoard_1_1Arc.html" target="_top" xlink:title="An arc.">
<polygon fill="white" stroke="#666666" points="556,-262.25 477.75,-262.25 477.75,-240 556,-240 556,-262.25"/>
<text text-anchor="middle" x="516.88" y="-248.75" font-family="FreeSans" font-size="10.00">LibBoard::Arc</text>
</a>
</g>
</g>
<!-- Node3&#45;&gt;Node4 -->
<g id="edge328_Node000003_Node000004" class="edge">
<title>Node3&#45;&gt;Node4</title>
<g id="a_edge328_Node000003_Node000004"><a xlink:title=" ">
<path fill="none" stroke="#63b8ff" d="M397.29,-251.12C423.28,-251.12 453.78,-251.12 477.34,-251.12"/>
<polygon fill="#63b8ff" stroke="#63b8ff" points="397.6,-247.63 387.6,-251.13 397.6,-254.63 397.6,-247.63"/>
</a>
</g>
</g>
<!-- Node6 -->
<g id="Node000006" class="node">
<title>Node6</title>
<g id="a_Node000006"><a xlink:href="structLibBoard_1_1Arrow.html" target="_top" xlink:title="A line between two points with an arrow at one extremity.">
<polygon fill="white" stroke="#666666" points="387.75,-222.25 296,-222.25 296,-200 387.75,-200 387.75,-222.25"/>
<text text-anchor="middle" x="341.88" y="-208.75" font-family="FreeSans" font-size="10.00">LibBoard::Arrow</text>
</a>
</g>
</g>
<!-- Node5&#45;&gt;Node6 -->
<g id="edge330_Node000005_Node000006" class="edge">
<title>Node5&#45;&gt;Node6</title>
<g id="a_edge330_Node000005_Node000006"><a xlink:title=" ">
<path fill="none" stroke="#63b8ff" d="M234.31,-184.21C254.15,-189.22 276.6,-194.89 295.77,-199.73"/>
<polygon fill="#63b8ff" stroke="#63b8ff" points="235.31,-180.85 224.75,-181.8 233.59,-187.64 235.31,-180.85"/>
</a>
</g>
</g>
<!-- Node8 -->
<g id="Node000008" class="node">
<title>Node8</title>
<g id="a_Node000008"><a xlink:href="structLibBoard_1_1GouraudTriangle.html" target="_top" xlink:title="A triangle with shaded filling according to colors given for each vertex.">
<polygon fill="white" stroke="#666666" points="412.5,-182.25 271.25,-182.25 271.25,-160 412.5,-160 412.5,-182.25"/>
<text text-anchor="middle" x="341.88" y="-168.75" font-family="FreeSans" font-size="10.00">LibBoard::GouraudTriangle</text>
</a>
</g>
</g>
<!-- Node7&#45;&gt;Node8 -->
<g id="edge332_Node000007_Node000008" class="edge">
<title>Node7&#45;&gt;Node8</title>
<g id="a_edge332_Node000007_Node000008"><a xlink:title=" ">
<path fill="none" stroke="#63b8ff" d="M239.39,-145.49C257.62,-150.1 277.55,-155.13 294.9,-159.51"/>
<polygon fill="#63b8ff" stroke="#63b8ff" points="240.33,-142.12 229.78,-143.07 238.61,-148.91 240.33,-142.12"/>
</a>
</g>
</g>
<!-- Node9 -->
<g id="Node000009" class="node">
<title>Node9</title>
<g id="a_Node000009"><a xlink:href="structLibBoard_1_1Rectangle.html" target="_top" xlink:title="A rectangle.">
<polygon fill="white" stroke="#666666" points="396.38,-142.25 287.38,-142.25 287.38,-120 396.38,-120 396.38,-142.25"/>
<text text-anchor="middle" x="341.88" y="-128.75" font-family="FreeSans" font-size="10.00">LibBoard::Rectangle</text>
</a>
</g>
</g>
<!-- Node7&#45;&gt;Node9 -->
<g id="edge333_Node000007_Node000009" class="edge">
<title>Node7&#45;&gt;Node9</title>
<g id="a_edge333_Node000007_Node000009"><a xlink:title=" ">
<path fill="none" stroke="#63b8ff" d="M242.74,-131.12C257.29,-131.12 272.75,-131.12 286.99,-131.12"/>
<polygon fill="#63b8ff" stroke="#63b8ff" points="242.82,-127.63 232.82,-131.13 242.82,-134.63 242.82,-127.63"/>
</a>
</g>
</g>
<!-- Node11 -->
<g id="Node000011" class="node">
<title>Node11</title>
<g id="a_Node000011"><a xlink:href="structLibBoard_1_1Triangle.html" target="_top" xlink:title="A triangle. Basically a Polyline with a convenient constructor.">
<polygon fill="white" stroke="#666666" points="392.25,-102.25 291.5,-102.25 291.5,-80 392.25,-80 392.25,-102.25"/>
<text text-anchor="middle" x="341.88" y="-88.75" font-family="FreeSans" font-size="10.00">LibBoard::Triangle</text>
</a>
</g>
</g>
<!-- Node7&#45;&gt;Node11 -->
<g id="edge335_Node000007_Node000011" class="edge">
<title>Node7&#45;&gt;Node11</title>
<g id="a_edge335_Node000007_Node000011"><a xlink:title=" ">
<path fill="none" stroke="#63b8ff" d="M239.39,-116.76C257.62,-112.15 277.55,-107.12 294.9,-102.74"/>
<polygon fill="#63b8ff" stroke="#63b8ff" points="238.61,-113.34 229.78,-119.18 240.33,-120.13 238.61,-113.34"/>
</a>
</g>
</g>
<!-- Node10 -->
<g id="Node000010" class="node">
<title>Node10</title>
<g id="a_Node000010"><a xlink:href="structLibBoard_1_1Image.html" target="_top" xlink:title="Used to draw image in figure.">
<polygon fill="white" stroke="#666666" points="563.5,-149.25 470.25,-149.25 470.25,-127 563.5,-127 563.5,-149.25"/>
<text text-anchor="middle" x="516.88" y="-135.75" font-family="FreeSans" font-size="10.00">LibBoard::Image</text>
</a>
</g>
</g>
<!-- Node9&#45;&gt;Node10 -->
<g id="edge334_Node000009_Node000010" class="edge">
<title>Node9&#45;&gt;Node10</title>
<g id="a_edge334_Node000009_Node000010"><a xlink:title=" ">
<path fill="none" stroke="#63b8ff" d="M407.93,-133.76C428.58,-134.59 450.98,-135.5 469.99,-136.27"/>
<polygon fill="#63b8ff" stroke="#63b8ff" points="408.31,-130.27 398.18,-133.36 408.03,-137.26 408.31,-130.27"/>
</a>
</g>
</g>
<!-- Node12 -->
<g id="Node000012" class="node">
<title>Node12</title>
<g id="a_Node000012"><a xlink:href="structLibBoard_1_1QuadraticBezierCurve.html" target="_top" xlink:title="A quadratic Bezier curve having 3 control points. NB. It is also a parabola arc.">
<polygon fill="white" stroke="#666666" points="585.25,-109.38 448.5,-109.38 448.5,-72.88 585.25,-72.88 585.25,-109.38"/>
<text text-anchor="start" x="456.5" y="-95.88" font-family="FreeSans" font-size="10.00">LibBoard::QuadraticBezier</text>
<text text-anchor="middle" x="516.88" y="-81.62" font-family="FreeSans" font-size="10.00">Curve</text>
</a>
</g>
</g>
<!-- Node11&#45;&gt;Node12 -->
<g id="edge336_Node000011_Node000012" class="edge">
<title>Node11&#45;&gt;Node12</title>
<g id="a_edge336_Node000011_Node000012"><a xlink:title=" ">
<path fill="none" stroke="#63b8ff" d="M403.74,-91.12C418.13,-91.12 433.57,-91.12 448.24,-91.12"/>
<polygon fill="#63b8ff" stroke="#63b8ff" points="403.96,-87.63 393.96,-91.13 403.96,-94.63 403.96,-87.63"/>
</a>
</g>
</g>
<!-- Node14 -->
<g id="Node000014" class="node">
<title>Node14</title>
<g id="a_Node000014"><a xlink:href="classLibBoard_1_1Board.html" target="_top" xlink:title="Class for EPS, FIG or SVG drawings.">
<polygon fill="white" stroke="#666666" points="387.38,-62.25 296.38,-62.25 296.38,-40 387.38,-40 387.38,-62.25"/>
<text text-anchor="middle" x="341.88" y="-48.75" font-family="FreeSans" font-size="10.00">LibBoard::Board</text>
</a>
</g>
</g>
<!-- Node13&#45;&gt;Node14 -->
<g id="edge338_Node000013_Node000014" class="edge">
<title>Node13&#45;&gt;Node14</title>
<g id="a_edge338_Node000013_Node000014"><a xlink:title=" ">
<path fill="none" stroke="#63b8ff" d="M246.91,-62.99C263.4,-60.91 280.77,-58.72 296.03,-56.79"/>
<polygon fill="#63b8ff" stroke="#63b8ff" points="246.66,-59.49 237.18,-64.22 247.54,-66.44 246.66,-59.49"/>
</a>
</g>
</g>
<!-- Node16 -->
<g id="Node000016" class="node">
<title>Node16</title>
<g id="a_Node000016"><a xlink:href="structLibBoard_1_1Group.html" target="_top" xlink:title="A group of shapes. A group is basically a ShapeList except that when rendered in either an SVG of a F...">
<polygon fill="white" stroke="#666666" points="388.12,-22.25 295.62,-22.25 295.62,0 388.12,0 388.12,-22.25"/>
<text text-anchor="middle" x="341.88" y="-8.75" font-family="FreeSans" font-size="10.00">LibBoard::Group</text>
</a>
</g>
</g>
<!-- Node13&#45;&gt;Node16 -->
<g id="edge340_Node000013_Node000016" class="edge">
<title>Node13&#45;&gt;Node16</title>
<g id="a_edge340_Node000013_Node000016"><a xlink:title=" ">
<path fill="none" stroke="#63b8ff" d="M225.65,-55.36C228.92,-53.98 232.15,-52.56 235.25,-51.12 251.85,-43.42 254.34,-38.14 271.25,-31.12 278.92,-27.94 287.26,-25.07 295.42,-22.56"/>
<polygon fill="#63b8ff" stroke="#63b8ff" points="224.54,-52.03 216.57,-59.02 227.15,-58.52 224.54,-52.03"/>
</a>
</g>
</g>
<!-- Node15 -->
<g id="Node000015" class="node">
<title>Node15</title>
<g id="a_Node000015"><a xlink:href="classDGtal_1_1Board2D.html" target="_top" xlink:title="Aim: This class specializes a &#39;Board&#39; class so as to display DGtal objects more naturally (with &lt;&lt;)....">
<polygon fill="white" stroke="#666666" points="561.62,-55.25 472.12,-55.25 472.12,-33 561.62,-33 561.62,-55.25"/>
<text text-anchor="middle" x="516.88" y="-41.75" font-family="FreeSans" font-size="10.00">DGtal::Board2D</text>
</a>
</g>
</g>
<!-- Node14&#45;&gt;Node15 -->
<g id="edge339_Node000014_Node000015" class="edge">
<title>Node14&#45;&gt;Node15</title>
<g id="a_edge339_Node000014_Node000015"><a xlink:title=" ">
<path fill="none" stroke="#63b8ff" d="M398.72,-48.87C422.38,-47.91 449.56,-46.81 471.77,-45.91"/>
<polygon fill="#63b8ff" stroke="#63b8ff" points="398.79,-45.36 388.94,-49.26 399.07,-52.35 398.79,-45.36"/>
</a>
</g>
</g>
</g>
</svg>
