<?xml version="1.0" encoding="UTF-8" standalone="no"?>
<!DOCTYPE svg PUBLIC "-//W3C//DTD SVG 1.1//EN"
 "http://www.w3.org/Graphics/SVG/1.1/DTD/svg11.dtd">
<!-- Generated by graphviz version 11.0.0 (0)
 -->
<!-- Title: Graphical Class Hierarchy Pages: 1 -->
<svg width="340pt" height="1053pt"
 viewBox="0.00 0.00 340.00 1052.75" xmlns="http://www.w3.org/2000/svg" xmlns:xlink="http://www.w3.org/1999/xlink">
<g id="graph0" class="graph" transform="scale(1 1) rotate(0) translate(4 1048.75)">
<title>Graphical Class Hierarchy</title>
<!-- Node0 -->
<g id="Node000000" class="node">
<title>Node0</title>
<g id="a_Node000000"><a xlink:title=" ">
<polygon fill="#e0e0e0" stroke="#999999" points="118.75,-596.5 0,-596.5 0,-574.25 118.75,-574.25 118.75,-596.5"/>
<text text-anchor="middle" x="59.38" y="-583" font-family="FreeSans" font-size="10.00">boost::iterator_facade</text>
</a>
</g>
</g>
<!-- Node1 -->
<g id="Node000001" class="node">
<title>Node1</title>
<g id="a_Node000001"><a xlink:href="classDGtal_1_1ArithmeticalDSL_1_1ConstIterator.html" target="_top" xlink:title="Aim: This class aims at representing an iterator that provides a way to scan the points of a DSL....">
<polygon fill="white" stroke="#666666" points="313.62,-1044.75 173.12,-1044.75 173.12,-994 313.62,-994 313.62,-1044.75"/>
<text text-anchor="start" x="181.12" y="-1031.25" font-family="FreeSans" font-size="10.00">DGtal::ArithmeticalDSL</text>
<text text-anchor="start" x="181.12" y="-1017" font-family="FreeSans" font-size="10.00">&lt; TCoordinate, TInteger,</text>
<text text-anchor="middle" x="243.38" y="-1002.75" font-family="FreeSans" font-size="10.00"> adjacency &gt;::ConstIterator</text>
</a>
</g>
</g>
<!-- Node0&#45;&gt;Node1 -->
<g id="edge156_Node000000_Node000001" class="edge">
<title>Node0&#45;&gt;Node1</title>
<g id="a_edge156_Node000000_Node000001"><a xlink:title=" ">
<path fill="none" stroke="#63b8ff" d="M62.95,-607.81C72.03,-683.25 104.67,-926.28 154.75,-984.38 159.88,-990.33 166.17,-995.28 173.01,-999.4"/>
<polygon fill="#63b8ff" stroke="#63b8ff" points="66.48,-607.85 61.84,-598.33 59.53,-608.67 66.48,-607.85"/>
</a>
</g>
</g>
<!-- Node2 -->
<g id="Node000002" class="node">
<title>Node2</title>
<g id="a_Node000002"><a xlink:href="structDGtal_1_1CubicalComplex_1_1ConstIterator.html" target="_top" xlink:title=" ">
<polygon fill="white" stroke="#666666" points="311,-975.75 175.75,-975.75 175.75,-925 311,-925 311,-975.75"/>
<text text-anchor="start" x="183.75" y="-962.25" font-family="FreeSans" font-size="10.00">DGtal::CubicalComplex</text>
<text text-anchor="start" x="183.75" y="-948" font-family="FreeSans" font-size="10.00">&lt; TKSpace, TCellContainer</text>
<text text-anchor="middle" x="243.38" y="-933.75" font-family="FreeSans" font-size="10.00"> &gt;::ConstIterator</text>
</a>
</g>
</g>
<!-- Node0&#45;&gt;Node2 -->
<g id="edge157_Node000000_Node000002" class="edge">
<title>Node0&#45;&gt;Node2</title>
<g id="a_edge157_Node000000_Node000002"><a xlink:title=" ">
<path fill="none" stroke="#63b8ff" d="M60.35,-607.89C61.51,-666.28 72.51,-824.33 154.75,-915.38 160.57,-921.82 167.74,-927.09 175.44,-931.41"/>
<polygon fill="#63b8ff" stroke="#63b8ff" points="63.86,-608.19 60.25,-598.23 56.86,-608.26 63.86,-608.19"/>
</a>
</g>
</g>
<!-- Node3 -->
<g id="Node000003" class="node">
<title>Node3</title>
<g id="a_Node000003"><a xlink:href="structDGtal_1_1CubicalComplex_1_1Iterator.html" target="_top" xlink:title=" ">
<polygon fill="white" stroke="#666666" points="311,-906.75 175.75,-906.75 175.75,-856 311,-856 311,-906.75"/>
<text text-anchor="start" x="183.75" y="-893.25" font-family="FreeSans" font-size="10.00">DGtal::CubicalComplex</text>
<text text-anchor="start" x="183.75" y="-879" font-family="FreeSans" font-size="10.00">&lt; TKSpace, TCellContainer</text>
<text text-anchor="middle" x="243.38" y="-864.75" font-family="FreeSans" font-size="10.00"> &gt;::Iterator</text>
</a>
</g>
</g>
<!-- Node0&#45;&gt;Node3 -->
<g id="edge158_Node000000_Node000003" class="edge">
<title>Node0&#45;&gt;Node3</title>
<g id="a_edge158_Node000000_Node000003"><a xlink:title=" ">
<path fill="none" stroke="#63b8ff" d="M62.4,-608.06C68,-657.78 88.02,-777.41 154.75,-846.38 160.67,-852.5 167.81,-857.58 175.41,-861.78"/>
<polygon fill="#63b8ff" stroke="#63b8ff" points="65.89,-607.84 61.4,-598.25 58.93,-608.55 65.89,-607.84"/>
</a>
</g>
</g>
<!-- Node4 -->
<g id="Node000004" class="node">
<title>Node4</title>
<g id="a_Node000004"><a xlink:href="classDGtal_1_1HyperRectDomain__Iterator.html" target="_top" xlink:title="Iterator for HyperRectDomain.">
<polygon fill="white" stroke="#666666" points="310.25,-837.62 176.5,-837.62 176.5,-801.12 310.25,-801.12 310.25,-837.62"/>
<text text-anchor="start" x="184.5" y="-824.12" font-family="FreeSans" font-size="10.00">DGtal::HyperRectDomain</text>
<text text-anchor="middle" x="243.38" y="-809.88" font-family="FreeSans" font-size="10.00">_Iterator&lt; TPoint &gt;</text>
</a>
</g>
</g>
<!-- Node0&#45;&gt;Node4 -->
<g id="edge159_Node000000_Node000004" class="edge">
<title>Node0&#45;&gt;Node4</title>
<g id="a_edge159_Node000000_Node000004"><a xlink:title=" ">
<path fill="none" stroke="#63b8ff" d="M64.51,-608.11C73.38,-650.37 98.2,-741.25 154.75,-791.38 161.08,-796.99 168.55,-801.48 176.41,-805.07"/>
<polygon fill="#63b8ff" stroke="#63b8ff" points="67.96,-607.5 62.59,-598.37 61.09,-608.86 67.96,-607.5"/>
</a>
</g>
</g>
<!-- Node5 -->
<g id="Node000005" class="node">
<title>Node5</title>
<g id="a_Node000005"><a xlink:href="classDGtal_1_1HyperRectDomain__ReverseIterator.html" target="_top" xlink:title="Reverse iterator for HyperRectDomain.">
<polygon fill="white" stroke="#666666" points="320,-782.62 166.75,-782.62 166.75,-746.12 320,-746.12 320,-782.62"/>
<text text-anchor="start" x="174.75" y="-769.12" font-family="FreeSans" font-size="10.00">DGtal::HyperRectDomain</text>
<text text-anchor="middle" x="243.38" y="-754.88" font-family="FreeSans" font-size="10.00">_ReverseIterator&lt; TIterator &gt;</text>
</a>
</g>
</g>
<!-- Node0&#45;&gt;Node5 -->
<g id="edge160_Node000000_Node000005" class="edge">
<title>Node0&#45;&gt;Node5</title>
<g id="a_edge160_Node000000_Node000005"><a xlink:title=" ">
<path fill="none" stroke="#63b8ff" d="M68.4,-607.45C81.47,-640.3 110.4,-701.9 154.75,-736.38 159.29,-739.9 164.28,-742.99 169.52,-745.7"/>
<polygon fill="#63b8ff" stroke="#63b8ff" points="71.69,-606.25 64.85,-598.16 65.16,-608.75 71.69,-606.25"/>
</a>
</g>
</g>
<!-- Node6 -->
<g id="Node000006" class="node">
<title>Node6</title>
<g id="a_Node000006"><a xlink:href="classDGtal_1_1HyperRectDomain__subIterator.html" target="_top" xlink:title=" ">
<polygon fill="white" stroke="#666666" points="310.25,-727.62 176.5,-727.62 176.5,-691.12 310.25,-691.12 310.25,-727.62"/>
<text text-anchor="start" x="184.5" y="-714.12" font-family="FreeSans" font-size="10.00">DGtal::HyperRectDomain</text>
<text text-anchor="middle" x="243.38" y="-699.88" font-family="FreeSans" font-size="10.00">_subIterator&lt; TPoint &gt;</text>
</a>
</g>
</g>
<!-- Node0&#45;&gt;Node6 -->
<g id="edge161_Node000000_Node000006" class="edge">
<title>Node0&#45;&gt;Node6</title>
<g id="a_edge161_Node000000_Node000006"><a xlink:title=" ">
<path fill="none" stroke="#63b8ff" d="M75.56,-605.92C92.59,-627.58 122.13,-661.3 154.75,-681.38 161.41,-685.48 168.74,-689.03 176.22,-692.1"/>
<polygon fill="#63b8ff" stroke="#63b8ff" points="78.44,-603.91 69.57,-598.1 72.88,-608.17 78.44,-603.91"/>
</a>
</g>
</g>
<!-- Node7 -->
<g id="Node000007" class="node">
<title>Node7</title>
<g id="a_Node000007"><a xlink:href="classDGtal_1_1IntegerSequenceIterator.html" target="_top" xlink:title="Aim: It is a simple class that mimics a (non mutable) iterator over integers. You can increment it,...">
<polygon fill="white" stroke="#666666" points="326.75,-672.62 160,-672.62 160,-636.12 326.75,-636.12 326.75,-672.62"/>
<text text-anchor="start" x="168" y="-659.12" font-family="FreeSans" font-size="10.00">DGtal::IntegerSequenceIterator</text>
<text text-anchor="middle" x="243.38" y="-644.88" font-family="FreeSans" font-size="10.00">&lt; TInteger &gt;</text>
</a>
</g>
</g>
<!-- Node0&#45;&gt;Node7 -->
<g id="edge162_Node000000_Node000007" class="edge">
<title>Node0&#45;&gt;Node7</title>
<g id="a_edge162_Node000000_Node000007"><a xlink:title=" ">
<path fill="none" stroke="#63b8ff" d="M94.52,-601.76C112.27,-609.97 134.45,-619.76 154.75,-627.38 162.35,-630.23 170.4,-633.01 178.42,-635.65"/>
<polygon fill="#63b8ff" stroke="#63b8ff" points="96.01,-598.59 85.47,-597.52 93.04,-604.93 96.01,-598.59"/>
</a>
</g>
</g>
<!-- Node8 -->
<g id="Node000008" class="node">
<title>Node8</title>
<g id="a_Node000008"><a xlink:href="structDGtal_1_1UnorderedSetByBlock_1_1const__iterator.html" target="_top" xlink:title="Read iterator on set elements. Model of ForwardIterator.">
<polygon fill="white" stroke="#666666" points="332,-617.88 154.75,-617.88 154.75,-552.88 332,-552.88 332,-617.88"/>
<text text-anchor="start" x="162.75" y="-604.38" font-family="FreeSans" font-size="10.00">DGtal::UnorderedSetByBlock</text>
<text text-anchor="start" x="162.75" y="-590.12" font-family="FreeSans" font-size="10.00">&lt; Key, TSplitter, Hash,</text>
<text text-anchor="start" x="162.75" y="-575.88" font-family="FreeSans" font-size="10.00"> KeyEqual, UnorderedMapAllocator</text>
<text text-anchor="middle" x="243.38" y="-561.62" font-family="FreeSans" font-size="10.00"> &gt;::const_iterator</text>
</a>
</g>
</g>
<!-- Node0&#45;&gt;Node8 -->
<g id="edge163_Node000000_Node000008" class="edge">
<title>Node0&#45;&gt;Node8</title>
<g id="a_edge163_Node000000_Node000008"><a xlink:title=" ">
<path fill="none" stroke="#63b8ff" d="M130.47,-585.38C138.27,-585.38 146.3,-585.38 154.29,-585.38"/>
<polygon fill="#63b8ff" stroke="#63b8ff" points="130.73,-581.88 120.73,-585.38 130.73,-588.88 130.73,-581.88"/>
</a>
</g>
</g>
<!-- Node9 -->
<g id="Node000009" class="node">
<title>Node9</title>
<g id="a_Node000009"><a xlink:href="structDGtal_1_1UnorderedSetByBlock_1_1iterator.html" target="_top" xlink:title="Read&#45;write iterator on set elements. Model of ForwardIterator.">
<polygon fill="white" stroke="#666666" points="332,-534.88 154.75,-534.88 154.75,-469.88 332,-469.88 332,-534.88"/>
<text text-anchor="start" x="162.75" y="-521.38" font-family="FreeSans" font-size="10.00">DGtal::UnorderedSetByBlock</text>
<text text-anchor="start" x="162.75" y="-507.12" font-family="FreeSans" font-size="10.00">&lt; Key, TSplitter, Hash,</text>
<text text-anchor="start" x="162.75" y="-492.88" font-family="FreeSans" font-size="10.00"> KeyEqual, UnorderedMapAllocator</text>
<text text-anchor="middle" x="243.38" y="-478.62" font-family="FreeSans" font-size="10.00"> &gt;::iterator</text>
</a>
</g>
</g>
<!-- Node0&#45;&gt;Node9 -->
<g id="edge164_Node000000_Node000009" class="edge">
<title>Node0&#45;&gt;Node9</title>
<g id="a_edge164_Node000000_Node000009"><a xlink:title=" ">
<path fill="none" stroke="#63b8ff" d="M96.1,-569.08C117.21,-559.45 144.72,-546.91 170.18,-535.3"/>
<polygon fill="#63b8ff" stroke="#63b8ff" points="94.7,-565.87 87.06,-573.21 97.61,-572.24 94.7,-565.87"/>
</a>
</g>
</g>
<!-- Node10 -->
<g id="Node000010" class="node">
<title>Node10</title>
<g id="a_Node000010"><a xlink:href="classboost_1_1graph__traits_3_01DGtal_1_1DigitalSurface_3_01TDigitalSurfaceContainer_01_4_01_4_1_1adjacency__iterator.html" target="_top" xlink:title=" ">
<polygon fill="white" stroke="#666666" points="313.25,-451.88 173.5,-451.88 173.5,-386.88 313.25,-386.88 313.25,-451.88"/>
<text text-anchor="start" x="181.5" y="-438.38" font-family="FreeSans" font-size="10.00">boost::graph_traits</text>
<text text-anchor="start" x="181.5" y="-424.12" font-family="FreeSans" font-size="10.00">&lt; DGtal::DigitalSurface</text>
<text text-anchor="start" x="181.5" y="-409.88" font-family="FreeSans" font-size="10.00">&lt; TDigitalSurfaceContainer</text>
<text text-anchor="middle" x="243.38" y="-395.62" font-family="FreeSans" font-size="10.00"> &gt; &gt;::adjacency_iterator</text>
</a>
</g>
</g>
<!-- Node0&#45;&gt;Node10 -->
<g id="edge165_Node000000_Node000010" class="edge">
<title>Node0&#45;&gt;Node10</title>
<g id="a_edge165_Node000000_Node000010"><a xlink:title=" ">
<path fill="none" stroke="#63b8ff" d="M72.22,-564.11C88.07,-537.25 118.43,-490.96 154.75,-461.38 160.37,-456.79 166.58,-452.57 173.02,-448.7"/>
<polygon fill="#63b8ff" stroke="#63b8ff" points="69.23,-562.29 67.27,-572.7 75.3,-565.78 69.23,-562.29"/>
</a>
</g>
</g>
<!-- Node11 -->
<g id="Node000011" class="node">
<title>Node11</title>
<g id="a_Node000011"><a xlink:href="classboost_1_1graph__traits_3_01DGtal_1_1DigitalSurface_3_01TDigitalSurfaceContainer_01_4_01_4_1_1edge__iterator.html" target="_top" xlink:title=" ">
<polygon fill="white" stroke="#666666" points="313.25,-368.88 173.5,-368.88 173.5,-303.88 313.25,-303.88 313.25,-368.88"/>
<text text-anchor="start" x="181.5" y="-355.38" font-family="FreeSans" font-size="10.00">boost::graph_traits</text>
<text text-anchor="start" x="181.5" y="-341.12" font-family="FreeSans" font-size="10.00">&lt; DGtal::DigitalSurface</text>
<text text-anchor="start" x="181.5" y="-326.88" font-family="FreeSans" font-size="10.00">&lt; TDigitalSurfaceContainer</text>
<text text-anchor="middle" x="243.38" y="-312.62" font-family="FreeSans" font-size="10.00"> &gt; &gt;::edge_iterator</text>
</a>
</g>
</g>
<!-- Node0&#45;&gt;Node11 -->
<g id="edge166_Node000000_Node000011" class="edge">
<title>Node0&#45;&gt;Node11</title>
<g id="a_edge166_Node000000_Node000011"><a xlink:title=" ">
<path fill="none" stroke="#63b8ff" d="M65.22,-562.94C75.21,-521.54 101.75,-432.41 154.75,-378.38 160.18,-372.84 166.49,-367.93 173.19,-363.61"/>
<polygon fill="#63b8ff" stroke="#63b8ff" points="61.86,-561.94 63.03,-572.48 68.68,-563.51 61.86,-561.94"/>
</a>
</g>
</g>
<!-- Node12 -->
<g id="Node000012" class="node">
<title>Node12</title>
<g id="a_Node000012"><a xlink:href="classboost_1_1graph__traits_3_01DGtal_1_1DigitalSurface_3_01TDigitalSurfaceContainer_01_4_01_4_1_1out__edge__iterator.html" target="_top" xlink:title=" ">
<polygon fill="white" stroke="#666666" points="313.25,-285.88 173.5,-285.88 173.5,-220.88 313.25,-220.88 313.25,-285.88"/>
<text text-anchor="start" x="181.5" y="-272.38" font-family="FreeSans" font-size="10.00">boost::graph_traits</text>
<text text-anchor="start" x="181.5" y="-258.12" font-family="FreeSans" font-size="10.00">&lt; DGtal::DigitalSurface</text>
<text text-anchor="start" x="181.5" y="-243.88" font-family="FreeSans" font-size="10.00">&lt; TDigitalSurfaceContainer</text>
<text text-anchor="middle" x="243.38" y="-229.62" font-family="FreeSans" font-size="10.00"> &gt; &gt;::out_edge_iterator</text>
</a>
</g>
</g>
<!-- Node0&#45;&gt;Node12 -->
<g id="edge167_Node000000_Node000012" class="edge">
<title>Node0&#45;&gt;Node12</title>
<g id="a_edge167_Node000000_Node000012"><a xlink:title=" ">
<path fill="none" stroke="#63b8ff" d="M61.84,-562.37C66.37,-509.08 84.5,-375.59 154.75,-295.38 160.08,-289.28 166.5,-284 173.4,-279.43"/>
<polygon fill="#63b8ff" stroke="#63b8ff" points="58.35,-562.1 61.08,-572.33 65.33,-562.63 58.35,-562.1"/>
</a>
</g>
</g>
<!-- Node13 -->
<g id="Node000013" class="node">
<title>Node13</title>
<g id="a_Node000013"><a xlink:href="classboost_1_1graph__traits_3_01DGtal_1_1Object_3_01TDigitalTopology_00_01TDigitalSet_01_4_01_4_1_1adjacency__iterator.html" target="_top" xlink:title=" ">
<polygon fill="white" stroke="#666666" points="330.12,-202.88 156.62,-202.88 156.62,-137.88 330.12,-137.88 330.12,-202.88"/>
<text text-anchor="start" x="164.62" y="-189.38" font-family="FreeSans" font-size="10.00">boost::graph_traits</text>
<text text-anchor="start" x="164.62" y="-175.12" font-family="FreeSans" font-size="10.00">&lt; DGtal::Object&lt; TDigitalTopology,</text>
<text text-anchor="start" x="164.62" y="-160.88" font-family="FreeSans" font-size="10.00"> TDigitalSet &gt; &gt;::adjacency</text>
<text text-anchor="middle" x="243.38" y="-146.62" font-family="FreeSans" font-size="10.00">_iterator</text>
</a>
</g>
</g>
<!-- Node0&#45;&gt;Node13 -->
<g id="edge168_Node000000_Node000013" class="edge">
<title>Node0&#45;&gt;Node13</title>
<g id="a_edge168_Node000000_Node000013"><a xlink:title=" ">
<path fill="none" stroke="#63b8ff" d="M59.8,-562.44C59.44,-499.21 66.69,-319.98 154.75,-212.38 157.42,-209.11 160.41,-206.08 163.62,-203.28"/>
<polygon fill="#63b8ff" stroke="#63b8ff" points="56.3,-562.33 59.94,-572.28 63.3,-562.23 56.3,-562.33"/>
</a>
</g>
</g>
<!-- Node14 -->
<g id="Node000014" class="node">
<title>Node14</title>
<g id="a_Node000014"><a xlink:href="classboost_1_1graph__traits_3_01DGtal_1_1Object_3_01TDigitalTopology_00_01TDigitalSet_01_4_01_4_1_1edge__iterator.html" target="_top" xlink:title=" ">
<polygon fill="white" stroke="#666666" points="330.12,-119.75 156.62,-119.75 156.62,-69 330.12,-69 330.12,-119.75"/>
<text text-anchor="start" x="164.62" y="-106.25" font-family="FreeSans" font-size="10.00">boost::graph_traits</text>
<text text-anchor="start" x="164.62" y="-92" font-family="FreeSans" font-size="10.00">&lt; DGtal::Object&lt; TDigitalTopology,</text>
<text text-anchor="middle" x="243.38" y="-77.75" font-family="FreeSans" font-size="10.00"> TDigitalSet &gt; &gt;::edge_iterator</text>
</a>
</g>
</g>
<!-- Node0&#45;&gt;Node14 -->
<g id="edge169_Node000000_Node000014" class="edge">
<title>Node0&#45;&gt;Node14</title>
<g id="a_edge169_Node000000_Node000014"><a xlink:title=" ">
<path fill="none" stroke="#63b8ff" d="M62.25,-562.76C69.49,-480.28 98.14,-196.94 154.75,-129.38 157.59,-125.98 160.81,-122.92 164.29,-120.15"/>
<polygon fill="#63b8ff" stroke="#63b8ff" points="58.78,-562.24 61.41,-572.51 65.75,-562.84 58.78,-562.24"/>
</a>
</g>
</g>
<!-- Node15 -->
<g id="Node000015" class="node">
<title>Node15</title>
<g id="a_Node000015"><a xlink:href="classboost_1_1graph__traits_3_01DGtal_1_1Object_3_01TDigitalTopology_00_01TDigitalSet_01_4_01_4_1_1out__edge__iterator.html" target="_top" xlink:title=" ">
<polygon fill="white" stroke="#666666" points="330.5,-50.75 156.25,-50.75 156.25,0 330.5,0 330.5,-50.75"/>
<text text-anchor="start" x="164.25" y="-37.25" font-family="FreeSans" font-size="10.00">boost::graph_traits</text>
<text text-anchor="start" x="164.25" y="-23" font-family="FreeSans" font-size="10.00">&lt; DGtal::Object&lt; TDigitalTopology,</text>
<text text-anchor="middle" x="243.38" y="-8.75" font-family="FreeSans" font-size="10.00"> TDigitalSet &gt; &gt;::out_edge_iterator</text>
</a>
</g>
</g>
<!-- Node0&#45;&gt;Node15 -->
<g id="edge170_Node000000_Node000015" class="edge">
<title>Node0&#45;&gt;Node15</title>
<g id="a_edge170_Node000000_Node000015"><a xlink:title=" ">
<path fill="none" stroke="#63b8ff" d="M61.57,-562.91C66.75,-472.94 90.1,-139.62 154.75,-60.38 157.55,-56.95 160.73,-53.85 164.18,-51.06"/>
<polygon fill="#63b8ff" stroke="#63b8ff" points="58.09,-562.46 61.02,-572.64 65.08,-562.85 58.09,-562.46"/>
</a>
</g>
</g>
</g>
</svg>
