<?xml version="1.0" encoding="UTF-8" standalone="no"?>
<!DOCTYPE svg PUBLIC "-//W3C//DTD SVG 1.1//EN"
 "http://www.w3.org/Graphics/SVG/1.1/DTD/svg11.dtd">
<!-- Generated by graphviz version 11.0.0 (0)
 -->
<!-- Title: Graphical Class Hierarchy Pages: 1 -->
<svg width="324pt" height="150pt"
 viewBox="0.00 0.00 324.25 150.25" xmlns="http://www.w3.org/2000/svg" xmlns:xlink="http://www.w3.org/1999/xlink">
<g id="graph0" class="graph" transform="scale(1 1) rotate(0) translate(4 146.25)">
<title>Graphical Class Hierarchy</title>
<!-- Node0 -->
<g id="Node000000" class="node">
<title>Node0</title>
<g id="a_Node000000"><a xlink:href="structDGtal_1_1DrawableWithBoard2D.html" target="_top" xlink:title=" ">
<polygon fill="white" stroke="#666666" points="154,-82.25 0,-82.25 0,-60 154,-60 154,-82.25"/>
<text text-anchor="middle" x="77" y="-68.75" font-family="FreeSans" font-size="10.00">DGtal::DrawableWithBoard2D</text>
</a>
</g>
</g>
<!-- Node1 -->
<g id="Node000001" class="node">
<title>Node1</title>
<g id="a_Node000001"><a xlink:href="structDGtal_1_1CustomColors.html" target="_top" xlink:title="Custom style class redefining the pen color and the fill color. You may use Board2D::Color::None for ...">
<polygon fill="white" stroke="#666666" points="309.5,-142.25 196.75,-142.25 196.75,-120 309.5,-120 309.5,-142.25"/>
<text text-anchor="middle" x="253.12" y="-128.75" font-family="FreeSans" font-size="10.00">DGtal::CustomColors</text>
</a>
</g>
</g>
<!-- Node0&#45;&gt;Node1 -->
<g id="edge260_Node000000_Node000001" class="edge">
<title>Node0&#45;&gt;Node1</title>
<g id="a_edge260_Node000000_Node000001"><a xlink:title=" ">
<path fill="none" stroke="#63b8ff" d="M120.08,-86.51C141.04,-94.08 166.8,-103.25 190,-111.12 198.26,-113.93 207.17,-116.86 215.6,-119.58"/>
<polygon fill="#63b8ff" stroke="#63b8ff" points="121.3,-83.23 110.71,-83.11 118.92,-89.81 121.3,-83.23"/>
</a>
</g>
</g>
<!-- Node2 -->
<g id="Node000002" class="node">
<title>Node2</title>
<g id="a_Node000002"><a xlink:href="structDGtal_1_1CustomFillColor.html" target="_top" xlink:title="Custom style class redefining the fill color. You may use Board2D::Color::None for transparent color.">
<polygon fill="white" stroke="#666666" points="313.25,-102.25 193,-102.25 193,-80 313.25,-80 313.25,-102.25"/>
<text text-anchor="middle" x="253.12" y="-88.75" font-family="FreeSans" font-size="10.00">DGtal::CustomFillColor</text>
</a>
</g>
</g>
<!-- Node0&#45;&gt;Node2 -->
<g id="edge261_Node000000_Node000002" class="edge">
<title>Node0&#45;&gt;Node2</title>
<g id="a_edge261_Node000000_Node000002"><a xlink:title=" ">
<path fill="none" stroke="#63b8ff" d="M165.52,-81.18C174.68,-82.23 183.82,-83.28 192.56,-84.28"/>
<polygon fill="#63b8ff" stroke="#63b8ff" points="166.21,-77.73 155.88,-80.07 165.41,-84.69 166.21,-77.73"/>
</a>
</g>
</g>
<!-- Node3 -->
<g id="Node000003" class="node">
<title>Node3</title>
<g id="a_Node000003"><a xlink:href="structDGtal_1_1CustomPen.html" target="_top" xlink:title="Custom style class redefining the pen attributes. You may use Board2D::Color::None for transparent co...">
<polygon fill="white" stroke="#666666" points="303.88,-62.25 202.38,-62.25 202.38,-40 303.88,-40 303.88,-62.25"/>
<text text-anchor="middle" x="253.12" y="-48.75" font-family="FreeSans" font-size="10.00">DGtal::CustomPen</text>
</a>
</g>
</g>
<!-- Node0&#45;&gt;Node3 -->
<g id="edge262_Node000000_Node000003" class="edge">
<title>Node0&#45;&gt;Node3</title>
<g id="a_edge262_Node000000_Node000003"><a xlink:title=" ">
<path fill="none" stroke="#63b8ff" d="M165.8,-61.04C178.27,-59.61 190.71,-58.18 202.12,-56.87"/>
<polygon fill="#63b8ff" stroke="#63b8ff" points="165.41,-57.56 155.88,-62.18 166.21,-64.52 165.41,-57.56"/>
</a>
</g>
</g>
<!-- Node4 -->
<g id="Node000004" class="node">
<title>Node4</title>
<g id="a_Node000004"><a xlink:href="structDGtal_1_1CustomPenColor.html" target="_top" xlink:title="Custom style class redefining the pen color. You may use Board2D::Color::None for transparent color.">
<polygon fill="white" stroke="#666666" points="316.25,-22.25 190,-22.25 190,0 316.25,0 316.25,-22.25"/>
<text text-anchor="middle" x="253.12" y="-8.75" font-family="FreeSans" font-size="10.00">DGtal::CustomPenColor</text>
</a>
</g>
</g>
<!-- Node0&#45;&gt;Node4 -->
<g id="edge263_Node000000_Node000004" class="edge">
<title>Node0&#45;&gt;Node4</title>
<g id="a_edge263_Node000000_Node000004"><a xlink:title=" ">
<path fill="none" stroke="#63b8ff" d="M120.08,-55.74C141.04,-48.17 166.8,-39 190,-31.12 198.26,-28.32 207.17,-25.39 215.6,-22.67"/>
<polygon fill="#63b8ff" stroke="#63b8ff" points="118.92,-52.44 110.71,-59.14 121.3,-59.02 118.92,-52.44"/>
</a>
</g>
</g>
</g>
</svg>
