<?xml version="1.0" encoding="UTF-8" standalone="no"?>
<!DOCTYPE svg PUBLIC "-//W3C//DTD SVG 1.1//EN"
 "http://www.w3.org/Graphics/SVG/1.1/DTD/svg11.dtd">
<!-- Generated by graphviz version 11.0.0 (0)
 -->
<!-- Title: Graphical Class Hierarchy Pages: 1 -->
<svg width="289pt" height="100pt"
 viewBox="0.00 0.00 289.00 99.50" xmlns="http://www.w3.org/2000/svg" xmlns:xlink="http://www.w3.org/1999/xlink">
<g id="graph0" class="graph" transform="scale(1 1) rotate(0) translate(4 95.5)">
<title>Graphical Class Hierarchy</title>
<!-- Node0 -->
<g id="Node000000" class="node">
<title>Node0</title>
<g id="a_Node000000"><a xlink:href="classDGtal_1_1Display3D.html" target="_top" xlink:title=" ">
<polygon fill="white" stroke="#666666" points="117.25,-63.5 0,-63.5 0,-27 117.25,-27 117.25,-63.5"/>
<text text-anchor="start" x="8" y="-50" font-family="FreeSans" font-size="10.00">DGtal::Display3D&lt; Z3i</text>
<text text-anchor="middle" x="58.62" y="-35.75" font-family="FreeSans" font-size="10.00">::Space, Z3i::KSpace &gt;</text>
</a>
</g>
</g>
<!-- Node1 -->
<g id="Node000001" class="node">
<title>Node1</title>
<g id="a_Node000001"><a xlink:href="classDGtal_1_1Board3D.html" target="_top" xlink:title="The class Board3D is a type of Display3D which export the figures in the format OBJ/MTL when calling ...">
<polygon fill="white" stroke="#666666" points="281,-91.5 153.25,-91.5 153.25,-55 281,-55 281,-91.5"/>
<text text-anchor="start" x="161.25" y="-78" font-family="FreeSans" font-size="10.00">DGtal::Board3D&lt; Space,</text>
<text text-anchor="middle" x="217.12" y="-63.75" font-family="FreeSans" font-size="10.00"> KSpace &gt;</text>
</a>
</g>
</g>
<!-- Node0&#45;&gt;Node1 -->
<g id="edge256_Node000000_Node000001" class="edge">
<title>Node0&#45;&gt;Node1</title>
<g id="a_edge256_Node000000_Node000001"><a xlink:title=" ">
<path fill="none" stroke="#63b8ff" d="M128.74,-57.62C136.82,-59.06 145.02,-60.53 153.01,-61.96"/>
<polygon fill="#63b8ff" stroke="#63b8ff" points="129.41,-54.18 118.95,-55.86 128.17,-61.07 129.41,-54.18"/>
</a>
</g>
</g>
<!-- Node2 -->
<g id="Node000002" class="node">
<title>Node2</title>
<g id="a_Node000002"><a xlink:href="classDGtal_1_1Board3DTo2D.html" target="_top" xlink:title="Class for PDF, PNG, PS, EPS, SVG export drawings with Cairo with 3D&#45;&gt;2D projection.">
<polygon fill="white" stroke="#666666" points="273.5,-36.5 160.75,-36.5 160.75,0 273.5,0 273.5,-36.5"/>
<text text-anchor="start" x="168.75" y="-23" font-family="FreeSans" font-size="10.00">DGtal::Board3DTo2D</text>
<text text-anchor="middle" x="217.12" y="-8.75" font-family="FreeSans" font-size="10.00">&lt; Space, KSpace &gt;</text>
</a>
</g>
</g>
<!-- Node0&#45;&gt;Node2 -->
<g id="edge257_Node000000_Node000002" class="edge">
<title>Node0&#45;&gt;Node2</title>
<g id="a_edge257_Node000000_Node000002"><a xlink:title=" ">
<path fill="none" stroke="#63b8ff" d="M128.79,-33.32C139.35,-31.5 150.13,-29.64 160.35,-27.87"/>
<polygon fill="#63b8ff" stroke="#63b8ff" points="128.21,-29.87 118.95,-35.02 129.4,-36.76 128.21,-29.87"/>
</a>
</g>
</g>
</g>
</svg>
