<?xml version="1.0" encoding="UTF-8" standalone="no"?>
<!DOCTYPE svg PUBLIC "-//W3C//DTD SVG 1.1//EN"
 "http://www.w3.org/Graphics/SVG/1.1/DTD/svg11.dtd">
<!-- Generated by graphviz version 11.0.0 (0)
 -->
<!-- Title: Graphical Class Hierarchy Pages: 1 -->
<svg width="1112pt" height="84pt"
 viewBox="0.00 0.00 1112.00 84.38" xmlns="http://www.w3.org/2000/svg" xmlns:xlink="http://www.w3.org/1999/xlink">
<g id="graph0" class="graph" transform="scale(1 1) rotate(0) translate(4 80.38)">
<title>Graphical Class Hierarchy</title>
<!-- Node0 -->
<g id="Node000000" class="node">
<title>Node0</title>
<g id="a_Node000000"><a xlink:href="structboost_1_1Assignable.html" target="_top" xlink:title=" ">
<polygon fill="white" stroke="#666666" points="118,-52.38 0,-52.38 0,-30.12 118,-30.12 118,-52.38"/>
<text text-anchor="middle" x="59" y="-38.88" font-family="FreeSans" font-size="10.00">boost::Assignable&lt; I &gt;</text>
</a>
</g>
</g>
<!-- Node1 -->
<g id="Node000001" class="node">
<title>Node1</title>
<g id="a_Node000001"><a xlink:href="structDGtal_1_1concepts_1_1CUnaryFunctor.html" target="_top" xlink:title=" ">
<polygon fill="white" stroke="#666666" points="320,-59.5 154,-59.5 154,-23 320,-23 320,-59.5"/>
<text text-anchor="start" x="162" y="-46" font-family="FreeSans" font-size="10.00">DGtal::concepts::CUnaryFunctor</text>
<text text-anchor="middle" x="237" y="-31.75" font-family="FreeSans" font-size="10.00">&lt; I, I::Point, I::Value &gt;</text>
</a>
</g>
</g>
<!-- Node0&#45;&gt;Node1 -->
<g id="edge9_Node000000_Node000001" class="edge">
<title>Node0&#45;&gt;Node1</title>
<g id="a_edge9_Node000000_Node000001"><a xlink:title=" ">
<path fill="none" stroke="#63b8ff" d="M129.57,-41.25C137.51,-41.25 145.65,-41.25 153.74,-41.25"/>
<polygon fill="#63b8ff" stroke="#63b8ff" points="129.63,-37.75 119.63,-41.25 129.63,-44.75 129.63,-37.75"/>
</a>
</g>
</g>
<!-- Node2 -->
<g id="Node000002" class="node">
<title>Node2</title>
<g id="a_Node000002"><a xlink:href="structDGtal_1_1concepts_1_1CPointFunctor.html" target="_top" xlink:title=" ">
<polygon fill="white" stroke="#666666" points="537.75,-52.38 356,-52.38 356,-30.12 537.75,-30.12 537.75,-52.38"/>
<text text-anchor="middle" x="446.88" y="-38.88" font-family="FreeSans" font-size="10.00">DGtal::concepts::CPointFunctor&lt; I &gt;</text>
</a>
</g>
</g>
<!-- Node1&#45;&gt;Node2 -->
<g id="edge10_Node000001_Node000002" class="edge">
<title>Node1&#45;&gt;Node2</title>
<g id="a_edge10_Node000001_Node000002"><a xlink:title=" ">
<path fill="none" stroke="#63b8ff" d="M331.94,-41.25C339.82,-41.25 347.79,-41.25 355.65,-41.25"/>
<polygon fill="#63b8ff" stroke="#63b8ff" points="331.97,-37.75 321.97,-41.25 331.97,-44.75 331.97,-37.75"/>
</a>
</g>
</g>
<!-- Node3 -->
<g id="Node000003" class="node">
<title>Node3</title>
<g id="a_Node000003"><a xlink:href="structDGtal_1_1concepts_1_1CTrivialConstImage.html" target="_top" xlink:title="Aim: Defines the concept describing a read&#45;only image, which is a refinement of CPointFunctor.">
<polygon fill="white" stroke="#666666" points="702.25,-59.5 573.75,-59.5 573.75,-23 702.25,-23 702.25,-59.5"/>
<text text-anchor="start" x="581.75" y="-46" font-family="FreeSans" font-size="10.00">DGtal::concepts::CTrivial</text>
<text text-anchor="middle" x="638" y="-31.75" font-family="FreeSans" font-size="10.00">ConstImage&lt; I &gt;</text>
</a>
</g>
</g>
<!-- Node2&#45;&gt;Node3 -->
<g id="edge11_Node000002_Node000003" class="edge">
<title>Node2&#45;&gt;Node3</title>
<g id="a_edge11_Node000002_Node000003"><a xlink:title=" ">
<path fill="none" stroke="#63b8ff" d="M549.25,-41.25C557.48,-41.25 565.64,-41.25 573.48,-41.25"/>
<polygon fill="#63b8ff" stroke="#63b8ff" points="549.52,-37.75 539.52,-41.25 549.52,-44.75 549.52,-37.75"/>
</a>
</g>
</g>
<!-- Node4 -->
<g id="Node000004" class="node">
<title>Node4</title>
<g id="a_Node000004"><a xlink:href="structDGtal_1_1concepts_1_1CConstImage.html" target="_top" xlink:title="Aim: Defines the concept describing a read&#45;only image, which is a refinement of CPointFunctor.">
<polygon fill="white" stroke="#666666" points="916.25,-76.38 738.25,-76.38 738.25,-54.12 916.25,-54.12 916.25,-76.38"/>
<text text-anchor="middle" x="827.25" y="-62.88" font-family="FreeSans" font-size="10.00">DGtal::concepts::CConstImage&lt; I &gt;</text>
</a>
</g>
</g>
<!-- Node3&#45;&gt;Node4 -->
<g id="edge12_Node000003_Node000004" class="edge">
<title>Node3&#45;&gt;Node4</title>
<g id="a_edge12_Node000003_Node000004"><a xlink:title=" ">
<path fill="none" stroke="#63b8ff" d="M714.01,-50.86C721.86,-51.87 729.9,-52.9 737.89,-53.92"/>
<polygon fill="#63b8ff" stroke="#63b8ff" points="714.52,-47.4 704.16,-49.6 713.63,-54.34 714.52,-47.4"/>
</a>
</g>
</g>
<!-- Node6 -->
<g id="Node000006" class="node">
<title>Node6</title>
<g id="a_Node000006"><a xlink:href="structDGtal_1_1concepts_1_1CTrivialImage.html" target="_top" xlink:title="Aim: Defines the concept describing an image without extra ranges, which is a refinement of CTrivialC...">
<polygon fill="white" stroke="#666666" points="891.5,-36.5 763,-36.5 763,0 891.5,0 891.5,-36.5"/>
<text text-anchor="start" x="771" y="-23" font-family="FreeSans" font-size="10.00">DGtal::concepts::CTrivial</text>
<text text-anchor="middle" x="827.25" y="-8.75" font-family="FreeSans" font-size="10.00">Image&lt; I &gt;</text>
</a>
</g>
</g>
<!-- Node3&#45;&gt;Node6 -->
<g id="edge14_Node000003_Node000006" class="edge">
<title>Node3&#45;&gt;Node6</title>
<g id="a_edge14_Node000003_Node000006"><a xlink:title=" ">
<path fill="none" stroke="#63b8ff" d="M713.75,-32.07C729.99,-30.07 747.02,-27.98 762.77,-26.05"/>
<polygon fill="#63b8ff" stroke="#63b8ff" points="713.66,-28.55 704.16,-33.25 714.51,-35.5 713.66,-28.55"/>
</a>
</g>
</g>
<!-- Node5 -->
<g id="Node000005" class="node">
<title>Node5</title>
<g id="a_Node000005"><a xlink:href="structDGtal_1_1concepts_1_1CImage.html" target="_top" xlink:title="Aim: Defines the concept describing a read/write image, having an output iterator.">
<polygon fill="white" stroke="#666666" points="1104,-52.38 952.25,-52.38 952.25,-30.12 1104,-30.12 1104,-52.38"/>
<text text-anchor="middle" x="1028.12" y="-38.88" font-family="FreeSans" font-size="10.00">DGtal::concepts::CImage&lt; I &gt;</text>
</a>
</g>
</g>
<!-- Node4&#45;&gt;Node5 -->
<g id="edge13_Node000004_Node000005" class="edge">
<title>Node4&#45;&gt;Node5</title>
<g id="a_edge13_Node000004_Node000005"><a xlink:title=" ">
<path fill="none" stroke="#63b8ff" d="M927.94,-53.22C935.96,-52.25 943.97,-51.29 951.77,-50.34"/>
<polygon fill="#63b8ff" stroke="#63b8ff" points="927.65,-49.73 918.14,-54.4 928.49,-56.68 927.65,-49.73"/>
</a>
</g>
</g>
<!-- Node6&#45;&gt;Node5 -->
<g id="edge15_Node000006_Node000005" class="edge">
<title>Node6&#45;&gt;Node5</title>
<g id="a_edge15_Node000006_Node000005"><a xlink:title=" ">
<path fill="none" stroke="#63b8ff" d="M903.39,-26.94C919.28,-28.78 936.05,-30.72 951.94,-32.56"/>
<polygon fill="#63b8ff" stroke="#63b8ff" points="903.84,-23.47 893.5,-25.8 903.03,-30.42 903.84,-23.47"/>
</a>
</g>
</g>
</g>
</svg>
