<?xml version="1.0" encoding="UTF-8" standalone="no"?>
<!DOCTYPE svg PUBLIC "-//W3C//DTD SVG 1.1//EN"
 "http://www.w3.org/Graphics/SVG/1.1/DTD/svg11.dtd">
<!-- Generated by graphviz version 11.0.0 (0)
 -->
<!-- Title: Graphical Class Hierarchy Pages: 1 -->
<svg width="326pt" height="375pt"
 viewBox="0.00 0.00 325.75 374.50" xmlns="http://www.w3.org/2000/svg" xmlns:xlink="http://www.w3.org/1999/xlink">
<g id="graph0" class="graph" transform="scale(1 1) rotate(0) translate(4 370.5)">
<title>Graphical Class Hierarchy</title>
<!-- Node0 -->
<g id="Node000000" class="node">
<title>Node0</title>
<g id="a_Node000000"><a xlink:href="structDGtal_1_1Display3D_1_1CommonD3D.html" target="_top" xlink:title=" ">
<polygon fill="white" stroke="#666666" points="133,-201.5 0,-201.5 0,-165 133,-165 133,-201.5"/>
<text text-anchor="start" x="8" y="-188" font-family="FreeSans" font-size="10.00">DGtal::Display3D&lt; Space,</text>
<text text-anchor="middle" x="66.5" y="-173.75" font-family="FreeSans" font-size="10.00"> KSpace &gt;::CommonD3D</text>
</a>
</g>
</g>
<!-- Node1 -->
<g id="Node000001" class="node">
<title>Node1</title>
<g id="a_Node000001"><a xlink:href="structDGtal_1_1Display3D_1_1BallD3D.html" target="_top" xlink:title=" ">
<polygon fill="white" stroke="#666666" points="309.88,-366.5 176.88,-366.5 176.88,-330 309.88,-330 309.88,-366.5"/>
<text text-anchor="start" x="184.88" y="-353" font-family="FreeSans" font-size="10.00">DGtal::Display3D&lt; Space,</text>
<text text-anchor="middle" x="243.38" y="-338.75" font-family="FreeSans" font-size="10.00"> KSpace &gt;::BallD3D</text>
</a>
</g>
</g>
<!-- Node0&#45;&gt;Node1 -->
<g id="edge249_Node000000_Node000001" class="edge">
<title>Node0&#45;&gt;Node1</title>
<g id="a_edge249_Node000000_Node000001"><a xlink:title=" ">
<path fill="none" stroke="#63b8ff" d="M82.23,-211.91C99.32,-242.59 130.18,-290.81 169,-320.25 173.56,-323.71 178.6,-326.79 183.84,-329.52"/>
<polygon fill="#63b8ff" stroke="#63b8ff" points="85.34,-210.3 77.49,-203.18 79.19,-213.64 85.34,-210.3"/>
</a>
</g>
</g>
<!-- Node2 -->
<g id="Node000002" class="node">
<title>Node2</title>
<g id="a_Node000002"><a xlink:href="structDGtal_1_1Display3D_1_1ClippingPlaneD3D.html" target="_top" xlink:title=" ">
<polygon fill="white" stroke="#666666" points="317.75,-311.5 169,-311.5 169,-275 317.75,-275 317.75,-311.5"/>
<text text-anchor="start" x="177" y="-298" font-family="FreeSans" font-size="10.00">DGtal::Display3D&lt; Space,</text>
<text text-anchor="middle" x="243.38" y="-283.75" font-family="FreeSans" font-size="10.00"> KSpace &gt;::ClippingPlaneD3D</text>
</a>
</g>
</g>
<!-- Node0&#45;&gt;Node2 -->
<g id="edge250_Node000000_Node000002" class="edge">
<title>Node0&#45;&gt;Node2</title>
<g id="a_edge250_Node000000_Node000002"><a xlink:title=" ">
<path fill="none" stroke="#63b8ff" d="M95.09,-209.56C114.57,-227.09 141.92,-249.67 169,-265.25 174.91,-268.65 181.31,-271.79 187.78,-274.64"/>
<polygon fill="#63b8ff" stroke="#63b8ff" points="97.58,-207.1 87.84,-202.93 92.86,-212.26 97.58,-207.1"/>
</a>
</g>
</g>
<!-- Node3 -->
<g id="Node000003" class="node">
<title>Node3</title>
<g id="a_Node000003"><a xlink:href="structDGtal_1_1Display3D_1_1CubeD3D.html" target="_top" xlink:title=" ">
<polygon fill="white" stroke="#666666" points="309.88,-256.5 176.88,-256.5 176.88,-220 309.88,-220 309.88,-256.5"/>
<text text-anchor="start" x="184.88" y="-243" font-family="FreeSans" font-size="10.00">DGtal::Display3D&lt; Space,</text>
<text text-anchor="middle" x="243.38" y="-228.75" font-family="FreeSans" font-size="10.00"> KSpace &gt;::CubeD3D</text>
</a>
</g>
</g>
<!-- Node0&#45;&gt;Node3 -->
<g id="edge251_Node000000_Node000003" class="edge">
<title>Node0&#45;&gt;Node3</title>
<g id="a_edge251_Node000000_Node000003"><a xlink:title=" ">
<path fill="none" stroke="#63b8ff" d="M137.51,-205.27C152.56,-210 168.33,-214.96 182.93,-219.56"/>
<polygon fill="#63b8ff" stroke="#63b8ff" points="138.74,-201.99 128.15,-202.32 136.64,-208.66 138.74,-201.99"/>
</a>
</g>
</g>
<!-- Node4 -->
<g id="Node000004" class="node">
<title>Node4</title>
<g id="a_Node000004"><a xlink:href="structDGtal_1_1Display3D_1_1LineD3D.html" target="_top" xlink:title=" ">
<polygon fill="white" stroke="#666666" points="309.88,-201.5 176.88,-201.5 176.88,-165 309.88,-165 309.88,-201.5"/>
<text text-anchor="start" x="184.88" y="-188" font-family="FreeSans" font-size="10.00">DGtal::Display3D&lt; Space,</text>
<text text-anchor="middle" x="243.38" y="-173.75" font-family="FreeSans" font-size="10.00"> KSpace &gt;::LineD3D</text>
</a>
</g>
</g>
<!-- Node0&#45;&gt;Node4 -->
<g id="edge252_Node000000_Node000004" class="edge">
<title>Node0&#45;&gt;Node4</title>
<g id="a_edge252_Node000000_Node000004"><a xlink:title=" ">
<path fill="none" stroke="#63b8ff" d="M144.53,-183.25C155.16,-183.25 165.99,-183.25 176.39,-183.25"/>
<polygon fill="#63b8ff" stroke="#63b8ff" points="144.63,-179.75 134.63,-183.25 144.63,-186.75 144.63,-179.75"/>
</a>
</g>
</g>
<!-- Node5 -->
<g id="Node000005" class="node">
<title>Node5</title>
<g id="a_Node000005"><a xlink:href="structDGtal_1_1Display3D_1_1PolygonD3D.html" target="_top" xlink:title=" ">
<polygon fill="white" stroke="#666666" points="309.88,-146.5 176.88,-146.5 176.88,-110 309.88,-110 309.88,-146.5"/>
<text text-anchor="start" x="184.88" y="-133" font-family="FreeSans" font-size="10.00">DGtal::Display3D&lt; Space,</text>
<text text-anchor="middle" x="243.38" y="-118.75" font-family="FreeSans" font-size="10.00"> KSpace &gt;::PolygonD3D</text>
</a>
</g>
</g>
<!-- Node0&#45;&gt;Node5 -->
<g id="edge253_Node000000_Node000005" class="edge">
<title>Node0&#45;&gt;Node5</title>
<g id="a_edge253_Node000000_Node000005"><a xlink:title=" ">
<path fill="none" stroke="#63b8ff" d="M137.51,-161.23C152.56,-156.5 168.33,-151.54 182.93,-146.94"/>
<polygon fill="#63b8ff" stroke="#63b8ff" points="136.64,-157.84 128.15,-164.18 138.74,-164.51 136.64,-157.84"/>
</a>
</g>
</g>
<!-- Node6 -->
<g id="Node000006" class="node">
<title>Node6</title>
<g id="a_Node000006"><a xlink:href="structDGtal_1_1Display3D_1_1QuadD3D.html" target="_top" xlink:title=" ">
<polygon fill="white" stroke="#666666" points="309.88,-91.5 176.88,-91.5 176.88,-55 309.88,-55 309.88,-91.5"/>
<text text-anchor="start" x="184.88" y="-78" font-family="FreeSans" font-size="10.00">DGtal::Display3D&lt; Space,</text>
<text text-anchor="middle" x="243.38" y="-63.75" font-family="FreeSans" font-size="10.00"> KSpace &gt;::QuadD3D</text>
</a>
</g>
</g>
<!-- Node0&#45;&gt;Node6 -->
<g id="edge254_Node000000_Node000006" class="edge">
<title>Node0&#45;&gt;Node6</title>
<g id="a_edge254_Node000000_Node000006"><a xlink:title=" ">
<path fill="none" stroke="#63b8ff" d="M95.09,-156.94C114.57,-139.41 141.92,-116.83 169,-101.25 174.91,-97.85 181.31,-94.71 187.78,-91.86"/>
<polygon fill="#63b8ff" stroke="#63b8ff" points="92.86,-154.24 87.84,-163.57 97.58,-159.4 92.86,-154.24"/>
</a>
</g>
</g>
<!-- Node7 -->
<g id="Node000007" class="node">
<title>Node7</title>
<g id="a_Node000007"><a xlink:href="structDGtal_1_1Display3D_1_1TriangleD3D.html" target="_top" xlink:title=" ">
<polygon fill="white" stroke="#666666" points="309.88,-36.5 176.88,-36.5 176.88,0 309.88,0 309.88,-36.5"/>
<text text-anchor="start" x="184.88" y="-23" font-family="FreeSans" font-size="10.00">DGtal::Display3D&lt; Space,</text>
<text text-anchor="middle" x="243.38" y="-8.75" font-family="FreeSans" font-size="10.00"> KSpace &gt;::TriangleD3D</text>
</a>
</g>
</g>
<!-- Node0&#45;&gt;Node7 -->
<g id="edge255_Node000000_Node000007" class="edge">
<title>Node0&#45;&gt;Node7</title>
<g id="a_edge255_Node000000_Node000007"><a xlink:title=" ">
<path fill="none" stroke="#63b8ff" d="M82.23,-154.59C99.32,-123.91 130.18,-75.69 169,-46.25 173.56,-42.79 178.6,-39.71 183.84,-36.98"/>
<polygon fill="#63b8ff" stroke="#63b8ff" points="79.19,-152.86 77.49,-163.32 85.34,-156.2 79.19,-152.86"/>
</a>
</g>
</g>
</g>
</svg>
