<?xml version="1.0" encoding="UTF-8" standalone="no"?>
<!DOCTYPE svg PUBLIC "-//W3C//DTD SVG 1.1//EN"
 "http://www.w3.org/Graphics/SVG/1.1/DTD/svg11.dtd">
<!-- Generated by graphviz version 11.0.0 (0)
 -->
<!-- Title: Graphical Class Hierarchy Pages: 1 -->
<svg width="318pt" height="114pt"
 viewBox="0.00 0.00 318.25 113.62" xmlns="http://www.w3.org/2000/svg" xmlns:xlink="http://www.w3.org/1999/xlink">
<g id="graph0" class="graph" transform="scale(1 1) rotate(0) translate(4 109.62)">
<title>Graphical Class Hierarchy</title>
<!-- Node0 -->
<g id="Node000000" class="node">
<title>Node0</title>
<g id="a_Node000000"><a xlink:title=" ">
<polygon fill="#e0e0e0" stroke="#999999" points="124.75,-60.38 0,-60.38 0,-38.12 124.75,-38.12 124.75,-60.38"/>
<text text-anchor="middle" x="62.38" y="-46.88" font-family="FreeSans" font-size="10.00">boost::iterator_adaptor</text>
</a>
</g>
</g>
<!-- Node1 -->
<g id="Node000001" class="node">
<title>Node1</title>
<g id="a_Node000001"><a xlink:href="classDGtal_1_1ConstIteratorAdapter.html" target="_top" xlink:title="This class adapts any iterator so that operator* returns another element than the one pointed to by t...">
<polygon fill="white" stroke="#666666" points="310.25,-105.62 160.75,-105.62 160.75,-54.88 310.25,-54.88 310.25,-105.62"/>
<text text-anchor="start" x="168.75" y="-92.12" font-family="FreeSans" font-size="10.00">DGtal::ConstIteratorAdapter</text>
<text text-anchor="start" x="168.75" y="-77.88" font-family="FreeSans" font-size="10.00">&lt; TIterator, TLightFunctor,</text>
<text text-anchor="middle" x="235.5" y="-63.62" font-family="FreeSans" font-size="10.00"> TReturnType &gt;</text>
</a>
</g>
</g>
<!-- Node0&#45;&gt;Node1 -->
<g id="edge154_Node000000_Node000001" class="edge">
<title>Node0&#45;&gt;Node1</title>
<g id="a_edge154_Node000000_Node000001"><a xlink:title=" ">
<path fill="none" stroke="#63b8ff" d="M136.26,-62.45C144.21,-63.89 152.3,-65.36 160.27,-66.8"/>
<polygon fill="#63b8ff" stroke="#63b8ff" points="137.11,-59.05 126.64,-60.71 135.86,-65.94 137.11,-59.05"/>
</a>
</g>
</g>
<!-- Node2 -->
<g id="Node000002" class="node">
<title>Node2</title>
<g id="a_Node000002"><a xlink:href="classDGtal_1_1ReverseIterator.html" target="_top" xlink:title="This class adapts any bidirectional iterator so that operator++ calls operator&#45;&#45; and vice versa.">
<polygon fill="white" stroke="#666666" points="296.75,-36.5 174.25,-36.5 174.25,0 296.75,0 296.75,-36.5"/>
<text text-anchor="start" x="182.25" y="-23" font-family="FreeSans" font-size="10.00">DGtal::ReverseIterator</text>
<text text-anchor="middle" x="235.5" y="-8.75" font-family="FreeSans" font-size="10.00">&lt; Iterator &gt;</text>
</a>
</g>
</g>
<!-- Node0&#45;&gt;Node2 -->
<g id="edge155_Node000000_Node000002" class="edge">
<title>Node0&#45;&gt;Node2</title>
<g id="a_edge155_Node000000_Node000002"><a xlink:title=" ">
<path fill="none" stroke="#63b8ff" d="M136.11,-36.07C148.72,-33.79 161.71,-31.44 173.96,-29.22"/>
<polygon fill="#63b8ff" stroke="#63b8ff" points="135.86,-32.56 126.64,-37.79 137.11,-39.45 135.86,-32.56"/>
</a>
</g>
</g>
</g>
</svg>
