<?xml version="1.0" encoding="UTF-8" standalone="no"?>
<!DOCTYPE svg PUBLIC "-//W3C//DTD SVG 1.1//EN"
 "http://www.w3.org/Graphics/SVG/1.1/DTD/svg11.dtd">
<!-- Generated by graphviz version 11.0.0 (0)
 -->
<!-- Title: Graphical Class Hierarchy Pages: 1 -->
<svg width="297pt" height="150pt"
 viewBox="0.00 0.00 296.50 150.25" xmlns="http://www.w3.org/2000/svg" xmlns:xlink="http://www.w3.org/1999/xlink">
<g id="graph0" class="graph" transform="scale(1 1) rotate(0) translate(4 146.25)">
<title>Graphical Class Hierarchy</title>
<!-- Node0 -->
<g id="Node000000" class="node">
<title>Node0</title>
<g id="a_Node000000"><a xlink:title=" ">
<polygon fill="#e0e0e0" stroke="#999999" points="113.12,-62.25 1.12,-62.25 1.12,-40 113.12,-40 113.12,-62.25"/>
<text text-anchor="middle" x="57.12" y="-48.75" font-family="FreeSans" font-size="10.00">adjacency_graph_tag</text>
</a>
</g>
</g>
<!-- Node1 -->
<g id="Node000001" class="node">
<title>Node1</title>
<g id="a_Node000001"><a xlink:href="structboost_1_1DigitalSurface__graph__traversal__category.html" target="_top" xlink:title=" ">
<polygon fill="white" stroke="#666666" points="288.5,-116.38 150.25,-116.38 150.25,-79.88 288.5,-79.88 288.5,-116.38"/>
<text text-anchor="start" x="158.25" y="-102.88" font-family="FreeSans" font-size="10.00">boost::DigitalSurface</text>
<text text-anchor="middle" x="219.38" y="-88.62" font-family="FreeSans" font-size="10.00">_graph_traversal_category</text>
</a>
</g>
</g>
<!-- Node0&#45;&gt;Node1 -->
<g id="edge1_Node000000_Node000001" class="edge">
<title>Node0&#45;&gt;Node1</title>
<g id="a_edge1_Node000000_Node000001"><a xlink:title=" ">
<path fill="none" stroke="#63b8ff" d="M108.56,-65.92C123.16,-70.2 139.29,-74.93 154.59,-79.42"/>
<polygon fill="#63b8ff" stroke="#63b8ff" points="109.77,-62.62 99.19,-63.17 107.8,-69.34 109.77,-62.62"/>
</a>
</g>
</g>
<!-- Node3 -->
<g id="Node000003" class="node">
<title>Node3</title>
<g id="a_Node000003"><a xlink:href="structboost_1_1Object__graph__traversal__category.html" target="_top" xlink:title=" ">
<polygon fill="white" stroke="#666666" points="274.25,-61.38 164.5,-61.38 164.5,-24.88 274.25,-24.88 274.25,-61.38"/>
<text text-anchor="start" x="172.5" y="-47.88" font-family="FreeSans" font-size="10.00">boost::Object_graph</text>
<text text-anchor="middle" x="219.38" y="-33.62" font-family="FreeSans" font-size="10.00">_traversal_category</text>
</a>
</g>
</g>
<!-- Node0&#45;&gt;Node3 -->
<g id="edge2_Node000000_Node000003" class="edge">
<title>Node0&#45;&gt;Node3</title>
<g id="a_edge2_Node000000_Node000003"><a xlink:title=" ">
<path fill="none" stroke="#63b8ff" d="M124.68,-47.8C137.84,-47.15 151.51,-46.46 164.21,-45.83"/>
<polygon fill="#63b8ff" stroke="#63b8ff" points="124.6,-44.3 114.79,-48.3 124.95,-51.29 124.6,-44.3"/>
</a>
</g>
</g>
<!-- Node2 -->
<g id="Node000002" class="node">
<title>Node2</title>
<g id="a_Node000002"><a xlink:title=" ">
<polygon fill="#e0e0e0" stroke="#999999" points="111.25,-22.25 3,-22.25 3,0 111.25,0 111.25,-22.25"/>
<text text-anchor="middle" x="57.12" y="-8.75" font-family="FreeSans" font-size="10.00">edge_list_graph_tag</text>
</a>
</g>
</g>
<!-- Node2&#45;&gt;Node1 -->
<g id="edge3_Node000002_Node000001" class="edge">
<title>Node2&#45;&gt;Node1</title>
<g id="a_edge3_Node000002_Node000001"><a xlink:title=" ">
<path fill="none" stroke="#63b8ff" d="M108.49,-27.66C110.48,-28.75 112.41,-29.91 114.25,-31.12 133.93,-44.13 130.88,-56.66 150.25,-70.12 155.18,-73.56 160.6,-76.67 166.16,-79.47"/>
<polygon fill="#63b8ff" stroke="#63b8ff" points="110.11,-24.55 99.59,-23.36 107.07,-30.86 110.11,-24.55"/>
</a>
</g>
</g>
<!-- Node2&#45;&gt;Node3 -->
<g id="edge4_Node000002_Node000003" class="edge">
<title>Node2&#45;&gt;Node3</title>
<g id="a_edge4_Node000002_Node000003"><a xlink:title=" ">
<path fill="none" stroke="#63b8ff" d="M122.41,-23.96C136.25,-26.73 150.74,-29.62 164.15,-32.3"/>
<polygon fill="#63b8ff" stroke="#63b8ff" points="123.46,-20.6 112.97,-22.08 122.09,-27.47 123.46,-20.6"/>
</a>
</g>
</g>
<!-- Node4 -->
<g id="Node000004" class="node">
<title>Node4</title>
<g id="a_Node000004"><a xlink:title=" ">
<polygon fill="#e0e0e0" stroke="#999999" points="112.38,-142.25 1.88,-142.25 1.88,-120 112.38,-120 112.38,-142.25"/>
<text text-anchor="middle" x="57.12" y="-128.75" font-family="FreeSans" font-size="10.00">incidence_graph_tag</text>
</a>
</g>
</g>
<!-- Node4&#45;&gt;Node1 -->
<g id="edge5_Node000004_Node000001" class="edge">
<title>Node4&#45;&gt;Node1</title>
<g id="a_edge5_Node000004_Node000001"><a xlink:title=" ">
<path fill="none" stroke="#63b8ff" d="M123.88,-117.58C132.41,-115.83 141.17,-114.02 149.75,-112.26"/>
<polygon fill="#63b8ff" stroke="#63b8ff" points="123.4,-114.11 114.31,-119.56 124.81,-120.97 123.4,-114.11"/>
</a>
</g>
</g>
<!-- Node4&#45;&gt;Node3 -->
<g id="edge6_Node000004_Node000003" class="edge">
<title>Node4&#45;&gt;Node3</title>
<g id="a_edge6_Node000004_Node000003"><a xlink:title=" ">
<path fill="none" stroke="#63b8ff" d="M108.51,-114.62C110.49,-113.52 112.41,-112.36 114.25,-111.12 134.12,-97.82 130.7,-84.9 150.25,-71.12 155.16,-67.66 160.57,-64.53 166.12,-61.72"/>
<polygon fill="#63b8ff" stroke="#63b8ff" points="107.08,-111.42 99.62,-118.94 110.15,-117.72 107.08,-111.42"/>
</a>
</g>
</g>
<!-- Node5 -->
<g id="Node000005" class="node">
<title>Node5</title>
<g id="a_Node000005"><a xlink:title=" ">
<polygon fill="#e0e0e0" stroke="#999999" points="114.25,-102.25 0,-102.25 0,-80 114.25,-80 114.25,-102.25"/>
<text text-anchor="middle" x="57.12" y="-88.75" font-family="FreeSans" font-size="10.00">vertex_list_graph_tag</text>
</a>
</g>
</g>
<!-- Node5&#45;&gt;Node1 -->
<g id="edge7_Node000005_Node000001" class="edge">
<title>Node5&#45;&gt;Node1</title>
<g id="a_edge7_Node000005_Node000001"><a xlink:title=" ">
<path fill="none" stroke="#63b8ff" d="M126.08,-94.09C134,-94.44 142.09,-94.79 150.02,-95.14"/>
<polygon fill="#63b8ff" stroke="#63b8ff" points="126.28,-90.6 116.14,-93.66 125.97,-97.59 126.28,-90.6"/>
</a>
</g>
</g>
<!-- Node5&#45;&gt;Node3 -->
<g id="edge8_Node000005_Node000003" class="edge">
<title>Node5&#45;&gt;Node3</title>
<g id="a_edge8_Node000005_Node000003"><a xlink:title=" ">
<path fill="none" stroke="#63b8ff" d="M107.72,-76.27C125.62,-70.91 145.92,-64.83 164.2,-59.35"/>
<polygon fill="#63b8ff" stroke="#63b8ff" points="106.94,-72.85 98.37,-79.07 108.95,-79.55 106.94,-72.85"/>
</a>
</g>
</g>
</g>
</svg>
