<?xml version="1.0" encoding="UTF-8" standalone="no"?>
<!DOCTYPE svg PUBLIC "-//W3C//DTD SVG 1.1//EN"
 "http://www.w3.org/Graphics/SVG/1.1/DTD/svg11.dtd">
<!-- Generated by graphviz version 11.0.0 (0)
 -->
<!-- Title: Graphical Class Hierarchy Pages: 1 -->
<svg width="616pt" height="602pt"
 viewBox="0.00 0.00 616.25 602.38" xmlns="http://www.w3.org/2000/svg" xmlns:xlink="http://www.w3.org/1999/xlink">
<g id="graph0" class="graph" transform="scale(1 1) rotate(0) translate(4 598.38)">
<title>Graphical Class Hierarchy</title>
<!-- Node0 -->
<g id="Node000000" class="node">
<title>Node0</title>
<g id="a_Node000000"><a xlink:href="structDGtal_1_1DrawableWithDisplay3D.html" target="_top" xlink:title=" ">
<polygon fill="white" stroke="#666666" points="169.38,-534.38 10.12,-534.38 10.12,-512.12 169.38,-512.12 169.38,-534.38"/>
<text text-anchor="middle" x="89.75" y="-520.88" font-family="FreeSans" font-size="10.00">DGtal::DrawableWithDisplay3D</text>
</a>
</g>
</g>
<!-- Node1 -->
<g id="Node000001" class="node">
<title>Node1</title>
<g id="a_Node000001"><a xlink:href="structDGtal_1_1DrawWithBoard3DTo2DModifier.html" target="_top" xlink:title="Base class specifying the methods for classes which intend to modify a Viewer3D stream.">
<polygon fill="white" stroke="#666666" points="379.62,-541.5 229.38,-541.5 229.38,-505 379.62,-505 379.62,-541.5"/>
<text text-anchor="start" x="237.38" y="-528" font-family="FreeSans" font-size="10.00">DGtal::DrawWithBoard3DTo2</text>
<text text-anchor="middle" x="304.5" y="-513.75" font-family="FreeSans" font-size="10.00">DModifier</text>
</a>
</g>
</g>
<!-- Node0&#45;&gt;Node1 -->
<g id="edge264_Node000000_Node000001" class="edge">
<title>Node0&#45;&gt;Node1</title>
<g id="a_edge264_Node000000_Node000001"><a xlink:title=" ">
<path fill="none" stroke="#63b8ff" d="M181.16,-523.25C197.09,-523.25 213.51,-523.25 228.94,-523.25"/>
<polygon fill="#63b8ff" stroke="#63b8ff" points="181.18,-519.75 171.18,-523.25 181.18,-526.75 181.18,-519.75"/>
</a>
</g>
</g>
<!-- Node2 -->
<g id="Node000002" class="node">
<title>Node2</title>
<g id="a_Node000002"><a xlink:href="structDGtal_1_1CameraDirection.html" target="_top" xlink:title="CameraDirection class to set camera direction.">
<polygon fill="white" stroke="#666666" points="581.62,-514.38 456.12,-514.38 456.12,-492.12 581.62,-492.12 581.62,-514.38"/>
<text text-anchor="middle" x="518.88" y="-500.88" font-family="FreeSans" font-size="10.00">DGtal::CameraDirection</text>
</a>
</g>
</g>
<!-- Node1&#45;&gt;Node2 -->
<g id="edge265_Node000001_Node000002" class="edge">
<title>Node1&#45;&gt;Node2</title>
<g id="a_edge265_Node000001_Node000002"><a xlink:title=" ">
<path fill="none" stroke="#63b8ff" d="M391.54,-515.15C413.04,-513.12 435.69,-510.99 455.77,-509.1"/>
<polygon fill="#63b8ff" stroke="#63b8ff" points="391.21,-511.66 381.58,-516.08 391.87,-518.63 391.21,-511.66"/>
</a>
</g>
</g>
<!-- Node6 -->
<g id="Node000006" class="node">
<title>Node6</title>
<g id="a_Node000006"><a xlink:href="structDGtal_1_1CameraPosition.html" target="_top" xlink:title="CameraPosition class to set camera position.">
<polygon fill="white" stroke="#666666" points="579,-474.38 458.75,-474.38 458.75,-452.12 579,-452.12 579,-474.38"/>
<text text-anchor="middle" x="518.88" y="-460.88" font-family="FreeSans" font-size="10.00">DGtal::CameraPosition</text>
</a>
</g>
</g>
<!-- Node1&#45;&gt;Node6 -->
<g id="edge266_Node000001_Node000006" class="edge">
<title>Node1&#45;&gt;Node6</title>
<g id="a_edge266_Node000001_Node000006"><a xlink:title=" ">
<path fill="none" stroke="#63b8ff" d="M370.69,-501.01C389.56,-494.9 410.26,-488.52 429.5,-483.25 440.27,-480.3 451.87,-477.45 463,-474.87"/>
<polygon fill="#63b8ff" stroke="#63b8ff" points="369.67,-497.66 361.25,-504.1 371.85,-504.32 369.67,-497.66"/>
</a>
</g>
</g>
<!-- Node7 -->
<g id="Node000007" class="node">
<title>Node7</title>
<g id="a_Node000007"><a xlink:href="structDGtal_1_1CameraUpVector.html" target="_top" xlink:title="CameraUpVector class to set camera up&#45;vector.">
<polygon fill="white" stroke="#666666" points="582.75,-594.38 455,-594.38 455,-572.12 582.75,-572.12 582.75,-594.38"/>
<text text-anchor="middle" x="518.88" y="-580.88" font-family="FreeSans" font-size="10.00">DGtal::CameraUpVector</text>
</a>
</g>
</g>
<!-- Node1&#45;&gt;Node7 -->
<g id="edge267_Node000001_Node000007" class="edge">
<title>Node1&#45;&gt;Node7</title>
<g id="a_edge267_Node000001_Node000007"><a xlink:title=" ">
<path fill="none" stroke="#63b8ff" d="M370.69,-545.49C389.56,-551.6 410.26,-557.98 429.5,-563.25 440.27,-566.2 451.87,-569.05 463,-571.63"/>
<polygon fill="#63b8ff" stroke="#63b8ff" points="371.85,-542.18 361.25,-542.4 369.67,-548.84 371.85,-542.18"/>
</a>
</g>
</g>
<!-- Node8 -->
<g id="Node000008" class="node">
<title>Node8</title>
<g id="a_Node000008"><a xlink:href="structDGtal_1_1CameraZNearFar.html" target="_top" xlink:title="CameraZNearFar class to set near and far distance.">
<polygon fill="white" stroke="#666666" points="582.75,-554.38 455,-554.38 455,-532.12 582.75,-532.12 582.75,-554.38"/>
<text text-anchor="middle" x="518.88" y="-540.88" font-family="FreeSans" font-size="10.00">DGtal::CameraZNearFar</text>
</a>
</g>
</g>
<!-- Node1&#45;&gt;Node8 -->
<g id="edge268_Node000001_Node000008" class="edge">
<title>Node1&#45;&gt;Node8</title>
<g id="a_edge268_Node000001_Node000008"><a xlink:title=" ">
<path fill="none" stroke="#63b8ff" d="M391.37,-531.34C412.55,-533.33 434.86,-535.43 454.74,-537.3"/>
<polygon fill="#63b8ff" stroke="#63b8ff" points="391.87,-527.87 381.58,-530.42 391.21,-534.84 391.87,-527.87"/>
</a>
</g>
</g>
<!-- Node15 -->
<g id="Node000015" class="node">
<title>Node15</title>
<g id="a_Node000015"><a xlink:href="structDGtal_1_1DrawWithDisplay3DModifier.html" target="_top" xlink:title="Base class specifying the methods for classes which intend to modify a Viewer3D stream.">
<polygon fill="white" stroke="#666666" points="179.5,-332.38 0,-332.38 0,-310.12 179.5,-310.12 179.5,-332.38"/>
<text text-anchor="middle" x="89.75" y="-318.88" font-family="FreeSans" font-size="10.00">DGtal::DrawWithDisplay3DModifier</text>
</a>
</g>
</g>
<!-- Node16 -->
<g id="Node000016" class="node">
<title>Node16</title>
<g id="a_Node000016"><a xlink:href="structDGtal_1_1ClippingPlane.html" target="_top" xlink:title="Class for adding a Clipping plane through the Viewer3D stream. Realizes the concept CDrawableWithView...">
<polygon fill="white" stroke="#666666" points="359.75,-312.38 249.25,-312.38 249.25,-290.12 359.75,-290.12 359.75,-312.38"/>
<text text-anchor="middle" x="304.5" y="-298.88" font-family="FreeSans" font-size="10.00">DGtal::ClippingPlane</text>
</a>
</g>
</g>
<!-- Node15&#45;&gt;Node16 -->
<g id="edge269_Node000015_Node000016" class="edge">
<title>Node15&#45;&gt;Node16</title>
<g id="a_edge269_Node000015_Node000016"><a xlink:title=" ">
<path fill="none" stroke="#63b8ff" d="M191.08,-311.82C210.99,-309.95 231.18,-308.05 248.86,-306.39"/>
<polygon fill="#63b8ff" stroke="#63b8ff" points="190.88,-308.32 181.25,-312.74 191.53,-315.29 190.88,-308.32"/>
</a>
</g>
</g>
<!-- Node17 -->
<g id="Node000017" class="node">
<title>Node17</title>
<g id="a_Node000017"><a xlink:href="structDGtal_1_1CustomColors3D.html" target="_top" xlink:title=" ">
<polygon fill="white" stroke="#666666" points="367.62,-272.38 241.38,-272.38 241.38,-250.12 367.62,-250.12 367.62,-272.38"/>
<text text-anchor="middle" x="304.5" y="-258.88" font-family="FreeSans" font-size="10.00">DGtal::CustomColors3D</text>
</a>
</g>
</g>
<!-- Node15&#45;&gt;Node17 -->
<g id="edge270_Node000015_Node000017" class="edge">
<title>Node15&#45;&gt;Node17</title>
<g id="a_edge270_Node000015_Node000017"><a xlink:title=" ">
<path fill="none" stroke="#63b8ff" d="M134.92,-306.06C158.65,-298.15 188.51,-288.63 215.5,-281.25 226.38,-278.28 238.1,-275.39 249.33,-272.78"/>
<polygon fill="#63b8ff" stroke="#63b8ff" points="133.94,-302.69 125.57,-309.19 136.16,-309.33 133.94,-302.69"/>
</a>
</g>
</g>
<!-- Node18 -->
<g id="Node000018" class="node">
<title>Node18</title>
<g id="a_Node000018"><a xlink:href="structDGtal_1_1CustomStyle3D.html" target="_top" xlink:title="Modifier class in a Display3D stream. Useful to choose your own style for a given class....">
<polygon fill="white" stroke="#666666" points="364.25,-232.38 244.75,-232.38 244.75,-210.12 364.25,-210.12 364.25,-232.38"/>
<text text-anchor="middle" x="304.5" y="-218.88" font-family="FreeSans" font-size="10.00">DGtal::CustomStyle3D</text>
</a>
</g>
</g>
<!-- Node15&#45;&gt;Node18 -->
<g id="edge271_Node000015_Node000018" class="edge">
<title>Node15&#45;&gt;Node18</title>
<g id="a_edge271_Node000015_Node000018"><a xlink:title=" ">
<path fill="none" stroke="#63b8ff" d="M113.83,-302.94C137.88,-284.72 177.33,-257.24 215.5,-241.25 224.6,-237.43 234.56,-234.29 244.39,-231.71"/>
<polygon fill="#63b8ff" stroke="#63b8ff" points="111.79,-300.09 106,-308.96 116.06,-305.63 111.79,-300.09"/>
</a>
</g>
</g>
<!-- Node3 -->
<g id="Node000003" class="node">
<title>Node3</title>
<g id="a_Node000003"><a xlink:href="structDGtal_1_1DrawWithViewer3DModifier.html" target="_top" xlink:title="Base class specifying the methods for classes which intend to modify a Viewer3D stream.">
<polygon fill="white" stroke="#666666" points="393.5,-352.38 215.5,-352.38 215.5,-330.12 393.5,-330.12 393.5,-352.38"/>
<text text-anchor="middle" x="304.5" y="-338.88" font-family="FreeSans" font-size="10.00">DGtal::DrawWithViewer3DModifier</text>
</a>
</g>
</g>
<!-- Node15&#45;&gt;Node3 -->
<g id="edge272_Node000015_Node000003" class="edge">
<title>Node15&#45;&gt;Node3</title>
<g id="a_edge272_Node000015_Node000003"><a xlink:title=" ">
<path fill="none" stroke="#63b8ff" d="M191.08,-330.68C199.14,-331.44 207.24,-332.2 215.2,-332.95"/>
<polygon fill="#63b8ff" stroke="#63b8ff" points="191.53,-327.21 181.25,-329.76 190.88,-334.18 191.53,-327.21"/>
</a>
</g>
</g>
<!-- Node19 -->
<g id="Node000019" class="node">
<title>Node19</title>
<g id="a_Node000019"><a xlink:href="structDGtal_1_1SetMode3D.html" target="_top" xlink:title="Modifier class in a Display3D stream. Useful to choose your own mode for a given class....">
<polygon fill="white" stroke="#666666" points="356.38,-192.38 252.62,-192.38 252.62,-170.12 356.38,-170.12 356.38,-192.38"/>
<text text-anchor="middle" x="304.5" y="-178.88" font-family="FreeSans" font-size="10.00">DGtal::SetMode3D</text>
</a>
</g>
</g>
<!-- Node15&#45;&gt;Node19 -->
<g id="edge285_Node000015_Node000019" class="edge">
<title>Node15&#45;&gt;Node19</title>
<g id="a_edge285_Node000015_Node000019"><a xlink:title=" ">
<path fill="none" stroke="#63b8ff" d="M105.92,-300.93C127.28,-273.85 168.86,-226.41 215.5,-201.25 226.81,-195.15 239.9,-190.91 252.47,-187.95"/>
<polygon fill="#63b8ff" stroke="#63b8ff" points="103.26,-298.66 99.92,-308.71 108.8,-302.93 103.26,-298.66"/>
</a>
</g>
</g>
<!-- Node20 -->
<g id="Node000020" class="node">
<title>Node20</title>
<g id="a_Node000020"><a xlink:href="structDGtal_1_1SetName3D.html" target="_top" xlink:title=" ">
<polygon fill="white" stroke="#666666" points="356.75,-472.38 252.25,-472.38 252.25,-450.12 356.75,-450.12 356.75,-472.38"/>
<text text-anchor="middle" x="304.5" y="-458.88" font-family="FreeSans" font-size="10.00">DGtal::SetName3D</text>
</a>
</g>
</g>
<!-- Node15&#45;&gt;Node20 -->
<g id="edge286_Node000015_Node000020" class="edge">
<title>Node15&#45;&gt;Node20</title>
<g id="a_edge286_Node000015_Node000020"><a xlink:title=" ">
<path fill="none" stroke="#63b8ff" d="M105.92,-341.57C127.28,-368.65 168.86,-416.09 215.5,-441.25 226.67,-447.28 239.58,-451.49 252.01,-454.44"/>
<polygon fill="#63b8ff" stroke="#63b8ff" points="108.8,-339.57 99.92,-333.79 103.26,-343.84 108.8,-339.57"/>
</a>
</g>
</g>
<!-- Node21 -->
<g id="Node000021" class="node">
<title>Node21</title>
<g id="a_Node000021"><a xlink:href="structDGtal_1_1SetSelectCallback3D.html" target="_top" xlink:title=" ">
<polygon fill="white" stroke="#666666" points="375.12,-432.38 233.88,-432.38 233.88,-410.12 375.12,-410.12 375.12,-432.38"/>
<text text-anchor="middle" x="304.5" y="-418.88" font-family="FreeSans" font-size="10.00">DGtal::SetSelectCallback3D</text>
</a>
</g>
</g>
<!-- Node15&#45;&gt;Node21 -->
<g id="edge287_Node000015_Node000021" class="edge">
<title>Node15&#45;&gt;Node21</title>
<g id="a_edge287_Node000015_Node000021"><a xlink:title=" ">
<path fill="none" stroke="#63b8ff" d="M113.83,-339.56C137.88,-357.78 177.33,-385.26 215.5,-401.25 223.3,-404.52 231.73,-407.3 240.17,-409.65"/>
<polygon fill="#63b8ff" stroke="#63b8ff" points="116.06,-336.87 106,-333.54 111.79,-342.41 116.06,-336.87"/>
</a>
</g>
</g>
<!-- Node22 -->
<g id="Node000022" class="node">
<title>Node22</title>
<g id="a_Node000022"><a xlink:href="structDGtal_1_1TransformedPrism.html" target="_top" xlink:title="class to modify the position and scale to construct better illustration mode.">
<polygon fill="white" stroke="#666666" points="371.75,-392.38 237.25,-392.38 237.25,-370.12 371.75,-370.12 371.75,-392.38"/>
<text text-anchor="middle" x="304.5" y="-378.88" font-family="FreeSans" font-size="10.00">DGtal::TransformedPrism</text>
</a>
</g>
</g>
<!-- Node15&#45;&gt;Node22 -->
<g id="edge288_Node000015_Node000022" class="edge">
<title>Node15&#45;&gt;Node22</title>
<g id="a_edge288_Node000015_Node000022"><a xlink:title=" ">
<path fill="none" stroke="#63b8ff" d="M134.92,-336.44C158.65,-344.35 188.51,-353.87 215.5,-361.25 226.38,-364.22 238.1,-367.11 249.33,-369.72"/>
<polygon fill="#63b8ff" stroke="#63b8ff" points="136.16,-333.17 125.57,-333.31 133.94,-339.81 136.16,-333.17"/>
</a>
</g>
</g>
<!-- Node3&#45;&gt;Node2 -->
<g id="edge275_Node000003_Node000002" class="edge">
<title>Node3&#45;&gt;Node2</title>
<g id="a_edge275_Node000003_Node000002"><a xlink:title=" ">
<path fill="none" stroke="#63b8ff" d="M391.12,-359.14C391.93,-359.82 392.73,-360.52 393.5,-361.25 434.72,-399.94 388.26,-444.58 429.5,-483.25 436.84,-490.14 446.04,-494.83 455.7,-498"/>
<polygon fill="#63b8ff" stroke="#63b8ff" points="393.22,-356.34 382.98,-353.59 389.27,-362.12 393.22,-356.34"/>
</a>
</g>
</g>
<!-- Node3&#45;&gt;Node6 -->
<g id="edge276_Node000003_Node000006" class="edge">
<title>Node3&#45;&gt;Node6</title>
<g id="a_edge276_Node000003_Node000006"><a xlink:title=" ">
<path fill="none" stroke="#63b8ff" d="M390.04,-358.59C391.22,-359.44 392.38,-360.32 393.5,-361.25 424.19,-386.59 398.8,-417.92 429.5,-443.25 437.87,-450.16 448.15,-454.79 458.7,-457.88"/>
<polygon fill="#63b8ff" stroke="#63b8ff" points="392.09,-355.74 381.71,-353.62 388.5,-361.75 392.09,-355.74"/>
</a>
</g>
</g>
<!-- Node3&#45;&gt;Node7 -->
<g id="edge277_Node000003_Node000007" class="edge">
<title>Node3&#45;&gt;Node7</title>
<g id="a_edge277_Node000003_Node000007"><a xlink:title=" ">
<path fill="none" stroke="#63b8ff" d="M392,-359.74C392.51,-360.23 393.01,-360.74 393.5,-361.25 456.45,-427.23 366.52,-497.3 429.5,-563.25 436.34,-570.42 445.17,-575.27 454.59,-578.51"/>
<polygon fill="#63b8ff" stroke="#63b8ff" points="394.23,-357.04 384.17,-353.71 389.95,-362.59 394.23,-357.04"/>
</a>
</g>
</g>
<!-- Node3&#45;&gt;Node8 -->
<g id="edge278_Node000003_Node000008" class="edge">
<title>Node3&#45;&gt;Node8</title>
<g id="a_edge278_Node000003_Node000008"><a xlink:title=" ">
<path fill="none" stroke="#63b8ff" d="M391.59,-359.43C392.24,-360.02 392.88,-360.63 393.5,-361.25 445.53,-413.53 377.45,-471 429.5,-523.25 436.49,-530.27 445.4,-535.05 454.85,-538.26"/>
<polygon fill="#63b8ff" stroke="#63b8ff" points="393.76,-356.68 383.63,-353.6 389.63,-362.33 393.76,-356.68"/>
</a>
</g>
</g>
<!-- Node4 -->
<g id="Node000004" class="node">
<title>Node4</title>
<g id="a_Node000004"><a xlink:href="structDGtal_1_1AddTextureImage2DWithFunctor.html" target="_top" xlink:title="class to insert a custom 2D textured image by using a conversion functor and allows to change the def...">
<polygon fill="white" stroke="#666666" points="601.88,-214.62 435.88,-214.62 435.88,-163.88 601.88,-163.88 601.88,-214.62"/>
<text text-anchor="start" x="443.88" y="-201.12" font-family="FreeSans" font-size="10.00">DGtal::AddTextureImage2DWith</text>
<text text-anchor="start" x="443.88" y="-186.88" font-family="FreeSans" font-size="10.00">Functor&lt; TImageType, TFunctor,</text>
<text text-anchor="middle" x="518.88" y="-172.62" font-family="FreeSans" font-size="10.00"> Space, KSpace &gt;</text>
</a>
</g>
</g>
<!-- Node3&#45;&gt;Node4 -->
<g id="edge273_Node000003_Node000004" class="edge">
<title>Node3&#45;&gt;Node4</title>
<g id="a_edge273_Node000003_Node000004"><a xlink:title=" ">
<path fill="none" stroke="#63b8ff" d="M390.59,-323.63C391.59,-322.87 392.56,-322.08 393.5,-321.25 428.09,-290.95 397.34,-257.12 429.5,-224.25 432.85,-220.83 436.57,-217.73 440.54,-214.94"/>
<polygon fill="#63b8ff" stroke="#63b8ff" points="388.89,-320.57 382.33,-328.89 392.65,-326.47 388.89,-320.57"/>
</a>
</g>
</g>
<!-- Node5 -->
<g id="Node000005" class="node">
<title>Node5</title>
<g id="a_Node000005"><a xlink:href="structDGtal_1_1AddTextureImage3DWithFunctor.html" target="_top" xlink:title="class to insert a custom 3D textured image by using a conversion functor and allows to change the def...">
<polygon fill="white" stroke="#666666" points="601.88,-145.62 435.88,-145.62 435.88,-94.88 601.88,-94.88 601.88,-145.62"/>
<text text-anchor="start" x="443.88" y="-132.12" font-family="FreeSans" font-size="10.00">DGtal::AddTextureImage3DWith</text>
<text text-anchor="start" x="443.88" y="-117.88" font-family="FreeSans" font-size="10.00">Functor&lt; TImageType, TFunctor,</text>
<text text-anchor="middle" x="518.88" y="-103.62" font-family="FreeSans" font-size="10.00"> Space, KSpace &gt;</text>
</a>
</g>
</g>
<!-- Node3&#45;&gt;Node5 -->
<g id="edge274_Node000003_Node000005" class="edge">
<title>Node3&#45;&gt;Node5</title>
<g id="a_edge274_Node000003_Node000005"><a xlink:title=" ">
<path fill="none" stroke="#63b8ff" d="M391.6,-323.08C392.24,-322.48 392.88,-321.88 393.5,-321.25 446.62,-267.6 380.66,-212.81 429.5,-155.25 432.38,-151.85 435.64,-148.78 439.16,-146.01"/>
<polygon fill="#63b8ff" stroke="#63b8ff" points="389.63,-320.18 383.64,-328.92 393.77,-325.82 389.63,-320.18"/>
</a>
</g>
</g>
<!-- Node9 -->
<g id="Node000009" class="node">
<title>Node9</title>
<g id="a_Node000009"><a xlink:href="structDGtal_1_1Translate2DDomain.html" target="_top" xlink:title="class to modify the data of an given image and also the possibility to translate it (optional).">
<polygon fill="white" stroke="#666666" points="588.75,-76.38 449,-76.38 449,-54.12 588.75,-54.12 588.75,-76.38"/>
<text text-anchor="middle" x="518.88" y="-62.88" font-family="FreeSans" font-size="10.00">DGtal::Translate2DDomain</text>
</a>
</g>
</g>
<!-- Node3&#45;&gt;Node9 -->
<g id="edge279_Node000003_Node000009" class="edge">
<title>Node3&#45;&gt;Node9</title>
<g id="a_edge279_Node000003_Node000009"><a xlink:title=" ">
<path fill="none" stroke="#63b8ff" d="M392.02,-322.77C392.52,-322.28 393.02,-321.77 393.5,-321.25 465.5,-243.91 357.88,-163.94 429.5,-86.25 434.84,-80.45 441.47,-76.12 448.68,-72.9"/>
<polygon fill="#63b8ff" stroke="#63b8ff" points="389.96,-319.94 384.26,-328.87 394.28,-325.45 389.96,-319.94"/>
</a>
</g>
</g>
<!-- Node10 -->
<g id="Node000010" class="node">
<title>Node10</title>
<g id="a_Node000010"><a xlink:href="structDGtal_1_1Update2DDomainPosition.html" target="_top" xlink:title="class to modify the position and orientation of an 2D domain.">
<polygon fill="white" stroke="#666666" points="603.38,-36.5 434.38,-36.5 434.38,0 603.38,0 603.38,-36.5"/>
<text text-anchor="start" x="442.38" y="-23" font-family="FreeSans" font-size="10.00">DGtal::Update2DDomainPosition</text>
<text text-anchor="middle" x="518.88" y="-8.75" font-family="FreeSans" font-size="10.00">&lt; Space, KSpace &gt;</text>
</a>
</g>
</g>
<!-- Node3&#45;&gt;Node10 -->
<g id="edge280_Node000003_Node000010" class="edge">
<title>Node3&#45;&gt;Node10</title>
<g id="a_edge280_Node000003_Node000010"><a xlink:title=" ">
<path fill="none" stroke="#63b8ff" d="M392.37,-322.44C392.76,-322.05 393.13,-321.66 393.5,-321.25 476.78,-229.77 349.62,-139.71 429.5,-45.25 432.19,-42.07 435.25,-39.25 438.57,-36.76"/>
<polygon fill="#63b8ff" stroke="#63b8ff" points="390.26,-319.65 384.72,-328.68 394.68,-325.08 390.26,-319.65"/>
</a>
</g>
</g>
<!-- Node11 -->
<g id="Node000011" class="node">
<title>Node11</title>
<g id="a_Node000011"><a xlink:href="structDGtal_1_1UpdateImage3DEmbedding.html" target="_top" xlink:title="class to modify the 3d embedding of the image (useful to display not only 2D slice images)....">
<polygon fill="white" stroke="#666666" points="608.25,-434.5 429.5,-434.5 429.5,-398 608.25,-398 608.25,-434.5"/>
<text text-anchor="start" x="437.5" y="-421" font-family="FreeSans" font-size="10.00">DGtal::UpdateImage3DEmbedding</text>
<text text-anchor="middle" x="518.88" y="-406.75" font-family="FreeSans" font-size="10.00">&lt; Space, KSpace &gt;</text>
</a>
</g>
</g>
<!-- Node3&#45;&gt;Node11 -->
<g id="edge281_Node000003_Node000011" class="edge">
<title>Node3&#45;&gt;Node11</title>
<g id="a_edge281_Node000003_Node000011"><a xlink:title=" ">
<path fill="none" stroke="#63b8ff" d="M381.75,-356.44C385.78,-357.9 389.72,-359.5 393.5,-361.25 411.65,-369.65 411.72,-379.1 429.5,-388.25 436.23,-391.71 443.46,-394.84 450.79,-397.65"/>
<polygon fill="#63b8ff" stroke="#63b8ff" points="382.96,-353.15 372.37,-353.34 380.77,-359.8 382.96,-353.15"/>
</a>
</g>
</g>
<!-- Node12 -->
<g id="Node000012" class="node">
<title>Node12</title>
<g id="a_Node000012"><a xlink:href="structDGtal_1_1UpdateImageData.html" target="_top" xlink:title="class to modify the data of an given image and also the possibility to translate it (optional).">
<polygon fill="white" stroke="#666666" points="587.25,-379.5 450.5,-379.5 450.5,-343 587.25,-343 587.25,-379.5"/>
<text text-anchor="start" x="458.5" y="-366" font-family="FreeSans" font-size="10.00">DGtal::UpdateImageData</text>
<text text-anchor="middle" x="518.88" y="-351.75" font-family="FreeSans" font-size="10.00">&lt; TImageType, TFunctor &gt;</text>
</a>
</g>
</g>
<!-- Node3&#45;&gt;Node12 -->
<g id="edge282_Node000003_Node000012" class="edge">
<title>Node3&#45;&gt;Node12</title>
<g id="a_edge282_Node000003_Node000012"><a xlink:title=" ">
<path fill="none" stroke="#63b8ff" d="M404.81,-350.6C420.11,-352.04 435.6,-353.5 450,-354.86"/>
<polygon fill="#63b8ff" stroke="#63b8ff" points="405.51,-347.15 395.23,-349.7 404.86,-354.12 405.51,-347.15"/>
</a>
</g>
</g>
<!-- Node13 -->
<g id="Node000013" class="node">
<title>Node13</title>
<g id="a_Node000013"><a xlink:href="structDGtal_1_1UpdateImagePosition.html" target="_top" xlink:title="class to modify the position and orientation of an textured 2D image.">
<polygon fill="white" stroke="#666666" points="593.62,-324.5 444.12,-324.5 444.12,-288 593.62,-288 593.62,-324.5"/>
<text text-anchor="start" x="452.12" y="-311" font-family="FreeSans" font-size="10.00">DGtal::UpdateImagePosition</text>
<text text-anchor="middle" x="518.88" y="-296.75" font-family="FreeSans" font-size="10.00">&lt; Space, KSpace &gt;</text>
</a>
</g>
</g>
<!-- Node3&#45;&gt;Node13 -->
<g id="edge283_Node000003_Node000013" class="edge">
<title>Node3&#45;&gt;Node13</title>
<g id="a_edge283_Node000003_Node000013"><a xlink:title=" ">
<path fill="none" stroke="#63b8ff" d="M387.05,-327.81C405.66,-324.74 425.35,-321.5 443.64,-318.48"/>
<polygon fill="#63b8ff" stroke="#63b8ff" points="386.71,-324.32 377.42,-329.4 387.85,-331.23 386.71,-324.32"/>
</a>
</g>
</g>
<!-- Node14 -->
<g id="Node000014" class="node">
<title>Node14</title>
<g id="a_Node000014"><a xlink:href="structDGtal_1_1UpdateLastImagePosition.html" target="_top" xlink:title="class to modify the position and orientation of an textured 2D image.">
<polygon fill="white" stroke="#666666" points="603,-269.5 434.75,-269.5 434.75,-233 603,-233 603,-269.5"/>
<text text-anchor="start" x="442.75" y="-256" font-family="FreeSans" font-size="10.00">DGtal::UpdateLastImagePosition</text>
<text text-anchor="middle" x="518.88" y="-241.75" font-family="FreeSans" font-size="10.00">&lt; Space, KSpace &gt;</text>
</a>
</g>
</g>
<!-- Node3&#45;&gt;Node14 -->
<g id="edge284_Node000003_Node000014" class="edge">
<title>Node3&#45;&gt;Node14</title>
<g id="a_edge284_Node000003_Node000014"><a xlink:title=" ">
<path fill="none" stroke="#63b8ff" d="M386.3,-325.16C388.77,-323.95 391.18,-322.65 393.5,-321.25 414.55,-308.55 409,-292.82 429.5,-279.25 434.87,-275.7 440.72,-272.57 446.77,-269.83"/>
<polygon fill="#63b8ff" stroke="#63b8ff" points="385.02,-321.9 377.2,-329.05 387.78,-328.34 385.02,-321.9"/>
</a>
</g>
</g>
</g>
</svg>
