<?xml version="1.0" encoding="UTF-8" standalone="no"?>
<!DOCTYPE svg PUBLIC "-//W3C//DTD SVG 1.1//EN"
 "http://www.w3.org/Graphics/SVG/1.1/DTD/svg11.dtd">
<!-- Generated by graphviz version 11.0.0 (0)
 -->
<!-- Title: Graphical Class Hierarchy Pages: 1 -->
<svg width="438pt" height="194pt"
 viewBox="0.00 0.00 437.50 193.50" xmlns="http://www.w3.org/2000/svg" xmlns:xlink="http://www.w3.org/1999/xlink">
<g id="graph0" class="graph" transform="scale(1 1) rotate(0) translate(4 189.5)">
<title>Graphical Class Hierarchy</title>
<!-- Node0 -->
<g id="Node000000" class="node">
<title>Node0</title>
<g id="a_Node000000"><a xlink:href="classDGtal_1_1Display3D.html" target="_top" xlink:title="Aim: This semi abstract class defines the stream mechanism to display 3d primitive (like BallVector,...">
<polygon fill="white" stroke="#666666" points="164.88,-185.5 31.88,-185.5 31.88,-149 164.88,-149 164.88,-185.5"/>
<text text-anchor="start" x="39.88" y="-172" font-family="FreeSans" font-size="10.00">DGtal::Display3D&lt; Space,</text>
<text text-anchor="middle" x="98.38" y="-157.75" font-family="FreeSans" font-size="10.00"> KSpace &gt;</text>
</a>
</g>
</g>
<!-- Node1 -->
<g id="Node000001" class="node">
<title>Node1</title>
<g id="a_Node000001"><a xlink:href="classDGtal_1_1Viewer3D.html" target="_top" xlink:title=" ">
<polygon fill="white" stroke="#666666" points="399.5,-180.5 262.75,-180.5 262.75,-144 399.5,-144 399.5,-180.5"/>
<text text-anchor="start" x="270.75" y="-167" font-family="FreeSans" font-size="10.00">DGtal::Viewer3D&lt; TSpace,</text>
<text text-anchor="middle" x="331.12" y="-152.75" font-family="FreeSans" font-size="10.00"> TKSpace &gt;</text>
</a>
</g>
</g>
<!-- Node0&#45;&gt;Node1 -->
<g id="edge243_Node000000_Node000001" class="edge">
<title>Node0&#45;&gt;Node1</title>
<g id="a_edge243_Node000000_Node000001"><a xlink:title=" ">
<path fill="none" stroke="#63b8ff" d="M176.5,-165.58C204.38,-164.97 235.63,-164.3 262.62,-163.71"/>
<polygon fill="#63b8ff" stroke="#63b8ff" points="176.62,-162.08 166.7,-165.79 176.78,-169.07 176.62,-162.08"/>
</a>
</g>
</g>
<!-- Node6 -->
<g id="Node000006" class="node">
<title>Node6</title>
<g id="a_Node000006"><a xlink:href="classDGtal_1_1Display3D.html" target="_top" xlink:title=" ">
<polygon fill="white" stroke="#666666" points="196.75,-91.5 0,-91.5 0,-55 196.75,-55 196.75,-91.5"/>
<text text-anchor="start" x="8" y="-78" font-family="FreeSans" font-size="10.00">DGtal::Display3D&lt; DGtal</text>
<text text-anchor="middle" x="98.38" y="-63.75" font-family="FreeSans" font-size="10.00">::SpaceND, DGtal::KhalimskySpaceND &gt;</text>
</a>
</g>
</g>
<!-- Node5 -->
<g id="Node000005" class="node">
<title>Node5</title>
<g id="a_Node000005"><a xlink:href="classDGtal_1_1Viewer3D.html" target="_top" xlink:title=" ">
<polygon fill="white" stroke="#666666" points="429.5,-120.5 232.75,-120.5 232.75,-84 429.5,-84 429.5,-120.5"/>
<text text-anchor="start" x="240.75" y="-107" font-family="FreeSans" font-size="10.00">DGtal::Viewer3D&lt; DGtal</text>
<text text-anchor="middle" x="331.12" y="-92.75" font-family="FreeSans" font-size="10.00">::SpaceND, DGtal::KhalimskySpaceND &gt;</text>
</a>
</g>
</g>
<!-- Node6&#45;&gt;Node5 -->
<g id="edge244_Node000006_Node000005" class="edge">
<title>Node6&#45;&gt;Node5</title>
<g id="a_edge244_Node000006_Node000005"><a xlink:title=" ">
<path fill="none" stroke="#63b8ff" d="M208.51,-86.97C216.51,-87.97 224.55,-88.98 232.48,-89.98"/>
<polygon fill="#63b8ff" stroke="#63b8ff" points="209.09,-83.51 198.74,-85.74 208.22,-90.46 209.09,-83.51"/>
</a>
</g>
</g>
<!-- Node4 -->
<g id="Node000004" class="node">
<title>Node4</title>
<g id="a_Node000004"><a xlink:href="classDGtal_1_1Display3D.html" target="_top" xlink:title=" ">
<polygon fill="white" stroke="#666666" points="164.88,-36.5 31.88,-36.5 31.88,0 164.88,0 164.88,-36.5"/>
<text text-anchor="start" x="39.88" y="-23" font-family="FreeSans" font-size="10.00">DGtal::Display3D&lt; Space,</text>
<text text-anchor="middle" x="98.38" y="-8.75" font-family="FreeSans" font-size="10.00"> KSpace &gt;</text>
</a>
</g>
</g>
<!-- Node3 -->
<g id="Node000003" class="node">
<title>Node3</title>
<g id="a_Node000003"><a xlink:href="classDGtal_1_1Viewer3D.html" target="_top" xlink:title=" ">
<polygon fill="white" stroke="#666666" points="396.88,-55.5 265.38,-55.5 265.38,-19 396.88,-19 396.88,-55.5"/>
<text text-anchor="start" x="273.38" y="-42" font-family="FreeSans" font-size="10.00">DGtal::Viewer3D&lt; Space,</text>
<text text-anchor="middle" x="331.12" y="-27.75" font-family="FreeSans" font-size="10.00"> KSpace &gt;</text>
</a>
</g>
</g>
<!-- Node4&#45;&gt;Node3 -->
<g id="edge245_Node000004_Node000003" class="edge">
<title>Node4&#45;&gt;Node3</title>
<g id="a_edge245_Node000004_Node000003"><a xlink:title=" ">
<path fill="none" stroke="#63b8ff" d="M176.42,-24.59C205.16,-26.96 237.47,-29.62 265.02,-31.89"/>
<polygon fill="#63b8ff" stroke="#63b8ff" points="176.95,-21.13 166.7,-23.79 176.38,-28.1 176.95,-21.13"/>
</a>
</g>
</g>
<!-- Node2 -->
<g id="Node000002" class="node">
<title>Node2</title>
<g id="a_Node000002"><a xlink:title=" ">
<polygon fill="#e0e0e0" stroke="#999999" points="132.25,-131.38 64.5,-131.38 64.5,-109.12 132.25,-109.12 132.25,-131.38"/>
<text text-anchor="middle" x="98.38" y="-117.88" font-family="FreeSans" font-size="10.00">QGLViewer</text>
</a>
</g>
</g>
<!-- Node2&#45;&gt;Node1 -->
<g id="edge248_Node000002_Node000001" class="edge">
<title>Node2&#45;&gt;Node1</title>
<g id="a_edge248_Node000002_Node000001"><a xlink:title=" ">
<path fill="none" stroke="#63b8ff" d="M143.74,-128.33C177.35,-134.44 224.13,-142.96 262.41,-149.92"/>
<polygon fill="#63b8ff" stroke="#63b8ff" points="144.39,-124.89 133.92,-126.54 143.14,-131.77 144.39,-124.89"/>
</a>
</g>
</g>
<!-- Node2&#45;&gt;Node5 -->
<g id="edge247_Node000002_Node000005" class="edge">
<title>Node2&#45;&gt;Node5</title>
<g id="a_edge247_Node000002_Node000005"><a xlink:title=" ">
<path fill="none" stroke="#63b8ff" d="M143.82,-116.78C169.04,-114.82 201.63,-112.27 232.49,-109.87"/>
<polygon fill="#63b8ff" stroke="#63b8ff" points="143.64,-113.29 133.94,-117.55 144.19,-120.26 143.64,-113.29"/>
</a>
</g>
</g>
<!-- Node2&#45;&gt;Node3 -->
<g id="edge246_Node000002_Node000003" class="edge">
<title>Node2&#45;&gt;Node3</title>
<g id="a_edge246_Node000002_Node000003"><a xlink:title=" ">
<path fill="none" stroke="#63b8ff" d="M143.75,-115.02C160.79,-112.02 180.12,-107.37 196.75,-100.25 214.66,-92.58 215.56,-84.41 232.75,-75.25 246.2,-68.08 261.31,-61.53 275.54,-55.95"/>
<polygon fill="#63b8ff" stroke="#63b8ff" points="143.2,-111.56 133.88,-116.6 144.31,-118.47 143.2,-111.56"/>
</a>
</g>
</g>
</g>
</svg>
