<?xml version="1.0" encoding="UTF-8" standalone="no"?>
<!DOCTYPE svg PUBLIC "-//W3C//DTD SVG 1.1//EN"
 "http://www.w3.org/Graphics/SVG/1.1/DTD/svg11.dtd">
<!-- Generated by graphviz version 11.0.0 (0)
 -->
<!-- Title: Graphical Class Hierarchy Pages: 1 -->
<svg width="315pt" height="155pt"
 viewBox="0.00 0.00 314.50 154.50" xmlns="http://www.w3.org/2000/svg" xmlns:xlink="http://www.w3.org/1999/xlink">
<g id="graph0" class="graph" transform="scale(1 1) rotate(0) translate(4 150.5)">
<title>Graphical Class Hierarchy</title>
<!-- Node0 -->
<g id="Node000000" class="node">
<title>Node0</title>
<g id="a_Node000000"><a xlink:title=" ">
<polygon fill="#e0e0e0" stroke="#999999" points="88,-84.38 0,-84.38 0,-62.12 88,-62.12 88,-84.38"/>
<text text-anchor="middle" x="44" y="-70.88" font-family="FreeSans" font-size="10.00">std::vector&lt; T &gt;</text>
</a>
</g>
</g>
<!-- Node1 -->
<g id="Node000001" class="node">
<title>Node1</title>
<g id="a_Node000001"><a xlink:href="classDGtal_1_1ImageContainerBySTLVector.html" target="_top" xlink:title=" ">
<polygon fill="white" stroke="#666666" points="306.5,-146.5 124,-146.5 124,-110 306.5,-110 306.5,-146.5"/>
<text text-anchor="start" x="132" y="-133" font-family="FreeSans" font-size="10.00">DGtal::ImageContainerBySTLVector</text>
<text text-anchor="middle" x="215.25" y="-118.75" font-family="FreeSans" font-size="10.00">&lt; Domain, Value &gt;</text>
</a>
</g>
</g>
<!-- Node0&#45;&gt;Node1 -->
<g id="edge360_Node000000_Node000001" class="edge">
<title>Node0&#45;&gt;Node1</title>
<g id="a_edge360_Node000000_Node000001"><a xlink:title=" ">
<path fill="none" stroke="#63b8ff" d="M88.65,-88.42C100.13,-92.34 112.51,-96.51 124,-100.25 133.36,-103.3 143.29,-106.46 153.01,-109.51"/>
<polygon fill="#63b8ff" stroke="#63b8ff" points="90.01,-85.18 79.42,-85.25 87.74,-91.8 90.01,-85.18"/>
</a>
</g>
</g>
<!-- Node2 -->
<g id="Node000002" class="node">
<title>Node2</title>
<g id="a_Node000002"><a xlink:href="classDGtal_1_1ImageContainerBySTLVector.html" target="_top" xlink:title=" ">
<polygon fill="white" stroke="#666666" points="306.5,-91.5 124,-91.5 124,-55 306.5,-55 306.5,-91.5"/>
<text text-anchor="start" x="132" y="-78" font-family="FreeSans" font-size="10.00">DGtal::ImageContainerBySTLVector</text>
<text text-anchor="middle" x="215.25" y="-63.75" font-family="FreeSans" font-size="10.00">&lt; Domain, Storage * &gt;</text>
</a>
</g>
</g>
<!-- Node0&#45;&gt;Node2 -->
<g id="edge361_Node000000_Node000002" class="edge">
<title>Node0&#45;&gt;Node2</title>
<g id="a_edge361_Node000000_Node000002"><a xlink:title=" ">
<path fill="none" stroke="#63b8ff" d="M99.58,-73.25C107.33,-73.25 115.48,-73.25 123.69,-73.25"/>
<polygon fill="#63b8ff" stroke="#63b8ff" points="99.66,-69.75 89.66,-73.25 99.66,-76.75 99.66,-69.75"/>
</a>
</g>
</g>
<!-- Node3 -->
<g id="Node000003" class="node">
<title>Node3</title>
<g id="a_Node000003"><a xlink:href="classDGtal_1_1ImageContainerBySTLVector.html" target="_top" xlink:title=" ">
<polygon fill="white" stroke="#666666" points="306.5,-36.5 124,-36.5 124,0 306.5,0 306.5,-36.5"/>
<text text-anchor="start" x="132" y="-23" font-family="FreeSans" font-size="10.00">DGtal::ImageContainerBySTLVector</text>
<text text-anchor="middle" x="215.25" y="-8.75" font-family="FreeSans" font-size="10.00">&lt; TDomain, TValue &gt;</text>
</a>
</g>
</g>
<!-- Node0&#45;&gt;Node3 -->
<g id="edge362_Node000000_Node000003" class="edge">
<title>Node0&#45;&gt;Node3</title>
<g id="a_edge362_Node000000_Node000003"><a xlink:title=" ">
<path fill="none" stroke="#63b8ff" d="M88.65,-58.08C100.13,-54.16 112.51,-49.99 124,-46.25 133.36,-43.2 143.29,-40.04 153.01,-36.99"/>
<polygon fill="#63b8ff" stroke="#63b8ff" points="87.74,-54.7 79.42,-61.25 90.01,-61.32 87.74,-54.7"/>
</a>
</g>
</g>
</g>
</svg>
