<?xml version="1.0" encoding="UTF-8" standalone="no"?>
<!DOCTYPE svg PUBLIC "-//W3C//DTD SVG 1.1//EN"
 "http://www.w3.org/Graphics/SVG/1.1/DTD/svg11.dtd">
<!-- Generated by graphviz version 11.0.0 (0)
 -->
<!-- Title: Graphical Class Hierarchy Pages: 1 -->
<svg width="291pt" height="190pt"
 viewBox="0.00 0.00 291.25 190.25" xmlns="http://www.w3.org/2000/svg" xmlns:xlink="http://www.w3.org/1999/xlink">
<g id="graph0" class="graph" transform="scale(1 1) rotate(0) translate(4 186.25)">
<title>Graphical Class Hierarchy</title>
<!-- Node0 -->
<g id="Node000000" class="node">
<title>Node0</title>
<g id="a_Node000000"><a xlink:title=" ">
<polygon fill="#e0e0e0" stroke="#999999" points="81.25,-102.25 0,-102.25 0,-80 81.25,-80 81.25,-102.25"/>
<text text-anchor="middle" x="40.62" y="-88.75" font-family="FreeSans" font-size="10.00">std::exception</text>
</a>
</g>
</g>
<!-- Node1 -->
<g id="Node000001" class="node">
<title>Node1</title>
<g id="a_Node000001"><a xlink:href="classDGtal_1_1ConnectivityException.html" target="_top" xlink:title=" ">
<polygon fill="white" stroke="#666666" points="275.38,-182.25 125.12,-182.25 125.12,-160 275.38,-160 275.38,-182.25"/>
<text text-anchor="middle" x="200.25" y="-168.75" font-family="FreeSans" font-size="10.00">DGtal::ConnectivityException</text>
</a>
</g>
</g>
<!-- Node0&#45;&gt;Node1 -->
<g id="edge348_Node000000_Node000001" class="edge">
<title>Node0&#45;&gt;Node1</title>
<g id="a_edge348_Node000000_Node000001"><a xlink:title=" ">
<path fill="none" stroke="#63b8ff" d="M60.91,-110.35C75.3,-123.65 96.06,-140.76 117.25,-151.12 123.96,-154.41 131.26,-157.18 138.63,-159.51"/>
<polygon fill="#63b8ff" stroke="#63b8ff" points="63.58,-108.05 53.93,-103.69 58.76,-113.12 63.58,-108.05"/>
</a>
</g>
</g>
<!-- Node2 -->
<g id="Node000002" class="node">
<title>Node2</title>
<g id="a_Node000002"><a xlink:href="classDGtal_1_1IOException.html" target="_top" xlink:title=" ">
<polygon fill="white" stroke="#666666" points="252.5,-142.25 148,-142.25 148,-120 252.5,-120 252.5,-142.25"/>
<text text-anchor="middle" x="200.25" y="-128.75" font-family="FreeSans" font-size="10.00">DGtal::IOException</text>
</a>
</g>
</g>
<!-- Node0&#45;&gt;Node2 -->
<g id="edge349_Node000000_Node000002" class="edge">
<title>Node0&#45;&gt;Node2</title>
<g id="a_edge349_Node000000_Node000002"><a xlink:title=" ">
<path fill="none" stroke="#63b8ff" d="M92.64,-104.76C100.86,-106.92 109.29,-109.1 117.25,-111.12 128.19,-113.9 139.96,-116.82 151.08,-119.54"/>
<polygon fill="#63b8ff" stroke="#63b8ff" points="93.65,-101.41 83.08,-102.24 91.86,-108.17 93.65,-101.41"/>
</a>
</g>
</g>
<!-- Node3 -->
<g id="Node000003" class="node">
<title>Node3</title>
<g id="a_Node000003"><a xlink:href="classDGtal_1_1InfiniteNumberException.html" target="_top" xlink:title=" ">
<polygon fill="white" stroke="#666666" points="283.25,-102.25 117.25,-102.25 117.25,-80 283.25,-80 283.25,-102.25"/>
<text text-anchor="middle" x="200.25" y="-88.75" font-family="FreeSans" font-size="10.00">DGtal::InfiniteNumberException</text>
</a>
</g>
</g>
<!-- Node0&#45;&gt;Node3 -->
<g id="edge350_Node000000_Node000003" class="edge">
<title>Node0&#45;&gt;Node3</title>
<g id="a_edge350_Node000000_Node000003"><a xlink:title=" ">
<path fill="none" stroke="#63b8ff" d="M92.84,-91.12C100.61,-91.12 108.8,-91.12 117.03,-91.12"/>
<polygon fill="#63b8ff" stroke="#63b8ff" points="92.91,-87.63 82.91,-91.13 92.91,-94.63 92.91,-87.63"/>
</a>
</g>
</g>
<!-- Node4 -->
<g id="Node000004" class="node">
<title>Node4</title>
<g id="a_Node000004"><a xlink:href="classDGtal_1_1InputException.html" target="_top" xlink:title=" ">
<polygon fill="white" stroke="#666666" points="259.62,-62.25 140.88,-62.25 140.88,-40 259.62,-40 259.62,-62.25"/>
<text text-anchor="middle" x="200.25" y="-48.75" font-family="FreeSans" font-size="10.00">DGtal::InputException</text>
</a>
</g>
</g>
<!-- Node0&#45;&gt;Node4 -->
<g id="edge351_Node000000_Node000004" class="edge">
<title>Node0&#45;&gt;Node4</title>
<g id="a_edge351_Node000000_Node000004"><a xlink:title=" ">
<path fill="none" stroke="#63b8ff" d="M92.64,-77.49C100.86,-75.33 109.29,-73.15 117.25,-71.12 128.19,-68.35 139.96,-65.43 151.08,-62.71"/>
<polygon fill="#63b8ff" stroke="#63b8ff" points="91.86,-74.08 83.08,-80.01 93.65,-80.84 91.86,-74.08"/>
</a>
</g>
</g>
<!-- Node5 -->
<g id="Node000005" class="node">
<title>Node5</title>
<g id="a_Node000005"><a xlink:href="classDGtal_1_1MemoryException.html" target="_top" xlink:title=" ">
<polygon fill="white" stroke="#666666" points="266.75,-22.25 133.75,-22.25 133.75,0 266.75,0 266.75,-22.25"/>
<text text-anchor="middle" x="200.25" y="-8.75" font-family="FreeSans" font-size="10.00">DGtal::MemoryException</text>
</a>
</g>
</g>
<!-- Node0&#45;&gt;Node5 -->
<g id="edge352_Node000000_Node000005" class="edge">
<title>Node0&#45;&gt;Node5</title>
<g id="a_edge352_Node000000_Node000005"><a xlink:title=" ">
<path fill="none" stroke="#63b8ff" d="M60.91,-71.9C75.3,-58.6 96.06,-41.49 117.25,-31.12 123.96,-27.84 131.26,-25.07 138.63,-22.74"/>
<polygon fill="#63b8ff" stroke="#63b8ff" points="58.76,-69.13 53.93,-78.56 63.58,-74.2 58.76,-69.13"/>
</a>
</g>
</g>
</g>
</svg>
