<?xml version="1.0" encoding="UTF-8" standalone="no"?>
<!DOCTYPE svg PUBLIC "-//W3C//DTD SVG 1.1//EN"
 "http://www.w3.org/Graphics/SVG/1.1/DTD/svg11.dtd">
<!-- Generated by graphviz version 11.0.0 (0)
 -->
<!-- Title: Graphical Class Hierarchy Pages: 1 -->
<svg width="311pt" height="70pt"
 viewBox="0.00 0.00 310.75 70.25" xmlns="http://www.w3.org/2000/svg" xmlns:xlink="http://www.w3.org/1999/xlink">
<g id="graph0" class="graph" transform="scale(1 1) rotate(0) translate(4 66.25)">
<title>Graphical Class Hierarchy</title>
<!-- Node0 -->
<g id="Node000000" class="node">
<title>Node0</title>
<g id="a_Node000000"><a xlink:href="structDGtal_1_1DrawWithBoardModifier.html" target="_top" xlink:title=" ">
<polygon fill="white" stroke="#666666" points="160.75,-42.25 0,-42.25 0,-20 160.75,-20 160.75,-42.25"/>
<text text-anchor="middle" x="80.38" y="-28.75" font-family="FreeSans" font-size="10.00">DGtal::DrawWithBoardModifier</text>
</a>
</g>
</g>
<!-- Node1 -->
<g id="Node000001" class="node">
<title>Node1</title>
<g id="a_Node000001"><a xlink:href="structDGtal_1_1CustomStyle.html" target="_top" xlink:title=" ">
<polygon fill="white" stroke="#666666" points="302.75,-62.25 196.75,-62.25 196.75,-40 302.75,-40 302.75,-62.25"/>
<text text-anchor="middle" x="249.75" y="-48.75" font-family="FreeSans" font-size="10.00">DGtal::CustomStyle</text>
</a>
</g>
</g>
<!-- Node0&#45;&gt;Node1 -->
<g id="edge289_Node000000_Node000001" class="edge">
<title>Node0&#45;&gt;Node1</title>
<g id="a_edge289_Node000000_Node000001"><a xlink:title=" ">
<path fill="none" stroke="#63b8ff" d="M172.35,-42C180.55,-42.98 188.66,-43.94 196.35,-44.86"/>
<polygon fill="#63b8ff" stroke="#63b8ff" points="172.99,-38.55 162.64,-40.84 172.16,-45.5 172.99,-38.55"/>
</a>
</g>
</g>
<!-- Node2 -->
<g id="Node000002" class="node">
<title>Node2</title>
<g id="a_Node000002"><a xlink:href="structDGtal_1_1SetMode.html" target="_top" xlink:title="Modifier class in a Board2D stream. Useful to choose your own mode for a given class....">
<polygon fill="white" stroke="#666666" points="294.88,-22.25 204.62,-22.25 204.62,0 294.88,0 294.88,-22.25"/>
<text text-anchor="middle" x="249.75" y="-8.75" font-family="FreeSans" font-size="10.00">DGtal::SetMode</text>
</a>
</g>
</g>
<!-- Node0&#45;&gt;Node2 -->
<g id="edge290_Node000000_Node000002" class="edge">
<title>Node0&#45;&gt;Node2</title>
<g id="a_edge290_Node000000_Node000002"><a xlink:title=" ">
<path fill="none" stroke="#63b8ff" d="M172.26,-20.27C183.35,-18.94 194.26,-17.64 204.23,-16.45"/>
<polygon fill="#63b8ff" stroke="#63b8ff" points="172.16,-16.75 162.64,-21.41 172.99,-23.7 172.16,-16.75"/>
</a>
</g>
</g>
</g>
</svg>
