<?xml version="1.0" encoding="UTF-8" standalone="no"?>
<!DOCTYPE svg PUBLIC "-//W3C//DTD SVG 1.1//EN"
 "http://www.w3.org/Graphics/SVG/1.1/DTD/svg11.dtd">
<!-- Generated by graphviz version 11.0.0 (0)
 -->
<!-- Title: Graphical Class Hierarchy Pages: 1 -->
<svg width="368pt" height="84pt"
 viewBox="0.00 0.00 367.75 84.38" xmlns="http://www.w3.org/2000/svg" xmlns:xlink="http://www.w3.org/1999/xlink">
<g id="graph0" class="graph" transform="scale(1 1) rotate(0) translate(4 80.38)">
<title>Graphical Class Hierarchy</title>
<!-- Node0 -->
<g id="Node000000" class="node">
<title>Node0</title>
<g id="a_Node000000"><a xlink:title=" ">
<polygon fill="#e0e0e0" stroke="#999999" points="124.75,-52.38 0,-52.38 0,-15.88 124.75,-15.88 124.75,-52.38"/>
<text text-anchor="start" x="8" y="-38.88" font-family="FreeSans" font-size="10.00">boost::forward_iterator</text>
<text text-anchor="middle" x="62.38" y="-24.62" font-family="FreeSans" font-size="10.00">_archetype</text>
</a>
</g>
</g>
<!-- Node1 -->
<g id="Node000001" class="node">
<title>Node1</title>
<g id="a_Node000001"><a xlink:href="structDGtal_1_1CForwardIteratorArchetype.html" target="_top" xlink:title=" ">
<polygon fill="white" stroke="#666666" points="348.88,-76.38 171.62,-76.38 171.62,-39.88 348.88,-39.88 348.88,-76.38"/>
<text text-anchor="start" x="179.62" y="-62.88" font-family="FreeSans" font-size="10.00">DGtal::CForwardIteratorArchetype</text>
<text text-anchor="middle" x="260.25" y="-48.62" font-family="FreeSans" font-size="10.00">&lt; Point &gt;</text>
</a>
</g>
</g>
<!-- Node0&#45;&gt;Node1 -->
<g id="edge151_Node000000_Node000001" class="edge">
<title>Node0&#45;&gt;Node1</title>
<g id="a_edge151_Node000000_Node000001"><a xlink:title=" ">
<path fill="none" stroke="#63b8ff" d="M136.31,-43.06C147.73,-44.46 159.63,-45.92 171.34,-47.35"/>
<polygon fill="#63b8ff" stroke="#63b8ff" points="136.94,-39.61 126.58,-41.87 136.08,-46.56 136.94,-39.61"/>
</a>
</g>
</g>
<!-- Node2 -->
<g id="Node000002" class="node">
<title>Node2</title>
<g id="a_Node000002"><a xlink:href="structDGtal_1_1CForwardIteratorArchetype.html" target="_top" xlink:title="An archetype of ForwardIterator.">
<polygon fill="white" stroke="#666666" points="359.75,-22.25 160.75,-22.25 160.75,0 359.75,0 359.75,-22.25"/>
<text text-anchor="middle" x="260.25" y="-8.75" font-family="FreeSans" font-size="10.00">DGtal::CForwardIteratorArchetype&lt; T &gt;</text>
</a>
</g>
</g>
<!-- Node0&#45;&gt;Node2 -->
<g id="edge152_Node000000_Node000002" class="edge">
<title>Node0&#45;&gt;Node2</title>
<g id="a_edge152_Node000000_Node000002"><a xlink:title=" ">
<path fill="none" stroke="#63b8ff" d="M136.45,-25.54C144.34,-24.62 152.45,-23.67 160.58,-22.71"/>
<polygon fill="#63b8ff" stroke="#63b8ff" points="136.11,-22.06 126.59,-26.7 136.93,-29.01 136.11,-22.06"/>
</a>
</g>
</g>
</g>
</svg>
