<?xml version="1.0" encoding="UTF-8" standalone="no"?>
<!DOCTYPE svg PUBLIC "-//W3C//DTD SVG 1.1//EN"
 "http://www.w3.org/Graphics/SVG/1.1/DTD/svg11.dtd">
<!-- Generated by graphviz version 11.0.0 (0)
 -->
<!-- Title: Graphical Class Hierarchy Pages: 1 -->
<svg width="634pt" height="100pt"
 viewBox="0.00 0.00 633.50 99.50" xmlns="http://www.w3.org/2000/svg" xmlns:xlink="http://www.w3.org/1999/xlink">
<g id="graph0" class="graph" transform="scale(1 1) rotate(0) translate(4 95.5)">
<title>Graphical Class Hierarchy</title>
<!-- Node0 -->
<g id="Node000000" class="node">
<title>Node0</title>
<g id="a_Node000000"><a xlink:href="classDGtal_1_1PlaneProbingNeighborhood.html" target="_top" xlink:title="Aim: A base virtual class that represents a way to probe a neighborhood, used in the plane probing ba...">
<polygon fill="white" stroke="#666666" points="178,-63.5 0,-63.5 0,-27 178,-27 178,-63.5"/>
<text text-anchor="start" x="8" y="-50" font-family="FreeSans" font-size="10.00">DGtal::PlaneProbingNeighborhood</text>
<text text-anchor="middle" x="89" y="-35.75" font-family="FreeSans" font-size="10.00">&lt; TPredicate &gt;</text>
</a>
</g>
</g>
<!-- Node1 -->
<g id="Node000001" class="node">
<title>Node1</title>
<g id="a_Node000001"><a xlink:href="classDGtal_1_1PlaneProbingHNeighborhood.html" target="_top" xlink:title="Aim: Represent a way to probe the H&#45;neighborhood.">
<polygon fill="white" stroke="#666666" points="399.5,-91.5 214,-91.5 214,-55 399.5,-55 399.5,-91.5"/>
<text text-anchor="start" x="222" y="-78" font-family="FreeSans" font-size="10.00">DGtal::PlaneProbingHNeighborhood</text>
<text text-anchor="middle" x="306.75" y="-63.75" font-family="FreeSans" font-size="10.00">&lt; TPredicate &gt;</text>
</a>
</g>
</g>
<!-- Node0&#45;&gt;Node1 -->
<g id="edge305_Node000000_Node000001" class="edge">
<title>Node0&#45;&gt;Node1</title>
<g id="a_edge305_Node000000_Node000001"><a xlink:title=" ">
<path fill="none" stroke="#63b8ff" d="M189.64,-58.18C197.64,-59.22 205.71,-60.27 213.66,-61.3"/>
<polygon fill="#63b8ff" stroke="#63b8ff" points="190.24,-54.73 179.88,-56.91 189.34,-61.67 190.24,-54.73"/>
</a>
</g>
</g>
<!-- Node2 -->
<g id="Node000002" class="node">
<title>Node2</title>
<g id="a_Node000002"><a xlink:href="classDGtal_1_1PlaneProbingRNeighborhood.html" target="_top" xlink:title="Aim: Represent a way to probe the R&#45;neighborhood.">
<polygon fill="white" stroke="#666666" points="398.75,-36.5 214.75,-36.5 214.75,0 398.75,0 398.75,-36.5"/>
<text text-anchor="start" x="222.75" y="-23" font-family="FreeSans" font-size="10.00">DGtal::PlaneProbingRNeighborhood</text>
<text text-anchor="middle" x="306.75" y="-8.75" font-family="FreeSans" font-size="10.00">&lt; TPredicate &gt;</text>
</a>
</g>
</g>
<!-- Node0&#45;&gt;Node2 -->
<g id="edge306_Node000000_Node000002" class="edge">
<title>Node0&#45;&gt;Node2</title>
<g id="a_edge306_Node000000_Node000002"><a xlink:title=" ">
<path fill="none" stroke="#63b8ff" d="M189.58,-32.79C197.84,-31.75 206.17,-30.71 214.36,-29.69"/>
<polygon fill="#63b8ff" stroke="#63b8ff" points="189.37,-29.29 179.88,-34 190.24,-36.23 189.37,-29.29"/>
</a>
</g>
</g>
<!-- Node3 -->
<g id="Node000003" class="node">
<title>Node3</title>
<g id="a_Node000003"><a xlink:href="classDGtal_1_1PlaneProbingR1Neighborhood.html" target="_top" xlink:title="Aim: Represent a way to probe the R&#45;neighborhood, with the R1 optimization, see RLDGCI2019 for detail...">
<polygon fill="white" stroke="#666666" points="625.5,-36.5 435.5,-36.5 435.5,0 625.5,0 625.5,-36.5"/>
<text text-anchor="start" x="443.5" y="-23" font-family="FreeSans" font-size="10.00">DGtal::PlaneProbingR1Neighborhood</text>
<text text-anchor="middle" x="530.5" y="-8.75" font-family="FreeSans" font-size="10.00">&lt; TPredicate &gt;</text>
</a>
</g>
</g>
<!-- Node2&#45;&gt;Node3 -->
<g id="edge307_Node000002_Node000003" class="edge">
<title>Node2&#45;&gt;Node3</title>
<g id="a_edge307_Node000002_Node000003"><a xlink:title=" ">
<path fill="none" stroke="#63b8ff" d="M410.65,-18.25C418.77,-18.25 426.95,-18.25 435.01,-18.25"/>
<polygon fill="#63b8ff" stroke="#63b8ff" points="410.74,-14.75 400.74,-18.25 410.74,-21.75 410.74,-14.75"/>
</a>
</g>
</g>
</g>
</svg>
