<?xml version="1.0" encoding="UTF-8" standalone="no"?>
<!DOCTYPE svg PUBLIC "-//W3C//DTD SVG 1.1//EN"
 "http://www.w3.org/Graphics/SVG/1.1/DTD/svg11.dtd">
<!-- Generated by graphviz version 11.0.0 (0)
 -->
<!-- Title: Graphical Class Hierarchy Pages: 1 -->
<svg width="330pt" height="100pt"
 viewBox="0.00 0.00 330.25 99.50" xmlns="http://www.w3.org/2000/svg" xmlns:xlink="http://www.w3.org/1999/xlink">
<g id="graph0" class="graph" transform="scale(1 1) rotate(0) translate(4 95.5)">
<title>Graphical Class Hierarchy</title>
<!-- Node0 -->
<g id="Node000000" class="node">
<title>Node0</title>
<g id="a_Node000000"><a xlink:href="structboost_1_1Assignable.html" target="_top" xlink:title=" ">
<polygon fill="white" stroke="#666666" points="120.25,-56.38 0,-56.38 0,-34.12 120.25,-34.12 120.25,-56.38"/>
<text text-anchor="middle" x="60.12" y="-42.88" font-family="FreeSans" font-size="10.00">boost::Assignable&lt; X &gt;</text>
</a>
</g>
</g>
<!-- Node1 -->
<g id="Node000001" class="node">
<title>Node1</title>
<g id="a_Node000001"><a xlink:href="structDGtal_1_1concepts_1_1CUnaryFunctor.html" target="_top" xlink:title="Aim: Defines a unary functor, which associates arguments to results.">
<polygon fill="white" stroke="#666666" points="322.25,-91.5 156.25,-91.5 156.25,-55 322.25,-55 322.25,-91.5"/>
<text text-anchor="start" x="164.25" y="-78" font-family="FreeSans" font-size="10.00">DGtal::concepts::CUnaryFunctor</text>
<text text-anchor="middle" x="239.25" y="-63.75" font-family="FreeSans" font-size="10.00">&lt; X, A, R &gt;</text>
</a>
</g>
</g>
<!-- Node0&#45;&gt;Node1 -->
<g id="edge147_Node000000_Node000001" class="edge">
<title>Node0&#45;&gt;Node1</title>
<g id="a_edge147_Node000000_Node000001"><a xlink:title=" ">
<path fill="none" stroke="#63b8ff" d="M131.7,-56.41C139.67,-57.67 147.85,-58.96 155.95,-60.24"/>
<polygon fill="#63b8ff" stroke="#63b8ff" points="132.52,-52.99 122.09,-54.89 131.42,-59.91 132.52,-52.99"/>
</a>
</g>
</g>
<!-- Node2 -->
<g id="Node000002" class="node">
<title>Node2</title>
<g id="a_Node000002"><a xlink:href="structDGtal_1_1concepts_1_1CUnaryFunctor_3_01X_00_01A_01_6_00_01R_01_6_01_4.html" target="_top" xlink:title=" ">
<polygon fill="white" stroke="#666666" points="322.25,-36.5 156.25,-36.5 156.25,0 322.25,0 322.25,-36.5"/>
<text text-anchor="start" x="164.25" y="-23" font-family="FreeSans" font-size="10.00">DGtal::concepts::CUnaryFunctor</text>
<text text-anchor="middle" x="239.25" y="-8.75" font-family="FreeSans" font-size="10.00">&lt; X, A &amp;, R &amp; &gt;</text>
</a>
</g>
</g>
<!-- Node0&#45;&gt;Node2 -->
<g id="edge148_Node000000_Node000002" class="edge">
<title>Node0&#45;&gt;Node2</title>
<g id="a_edge148_Node000000_Node000002"><a xlink:title=" ">
<path fill="none" stroke="#63b8ff" d="M131.98,-34.45C139.86,-33.25 147.94,-32.02 155.95,-30.8"/>
<polygon fill="#63b8ff" stroke="#63b8ff" points="131.45,-30.99 122.09,-35.96 132.51,-37.91 131.45,-30.99"/>
</a>
</g>
</g>
</g>
</svg>
