<?xml version="1.0" encoding="UTF-8" standalone="no"?>
<!DOCTYPE svg PUBLIC "-//W3C//DTD SVG 1.1//EN"
 "http://www.w3.org/Graphics/SVG/1.1/DTD/svg11.dtd">
<!-- Generated by graphviz version 11.0.0 (0)
 -->
<!-- Title: Graphical Class Hierarchy Pages: 1 -->
<svg width="517pt" height="30pt"
 viewBox="0.00 0.00 517.25 30.25" xmlns="http://www.w3.org/2000/svg" xmlns:xlink="http://www.w3.org/1999/xlink">
<g id="graph0" class="graph" transform="scale(1 1) rotate(0) translate(4 26.25)">
<title>Graphical Class Hierarchy</title>
<!-- Node0 -->
<g id="Node000000" class="node">
<title>Node0</title>
<g id="a_Node000000"><a xlink:href="structDGtal_1_1ForwardCategory.html" target="_top" xlink:title=" ">
<polygon fill="white" stroke="#666666" points="129.25,-22.25 0,-22.25 0,0 129.25,0 129.25,-22.25"/>
<text text-anchor="middle" x="64.62" y="-8.75" font-family="FreeSans" font-size="10.00">DGtal::ForwardCategory</text>
</a>
</g>
</g>
<!-- Node1 -->
<g id="Node000001" class="node">
<title>Node1</title>
<g id="a_Node000001"><a xlink:href="structDGtal_1_1BidirectionalCategory.html" target="_top" xlink:title=" ">
<polygon fill="white" stroke="#666666" points="313.25,-22.25 165.25,-22.25 165.25,0 313.25,0 313.25,-22.25"/>
<text text-anchor="middle" x="239.25" y="-8.75" font-family="FreeSans" font-size="10.00">DGtal::BidirectionalCategory</text>
</a>
</g>
</g>
<!-- Node0&#45;&gt;Node1 -->
<g id="edge291_Node000000_Node000001" class="edge">
<title>Node0&#45;&gt;Node1</title>
<g id="a_edge291_Node000000_Node000001"><a xlink:title=" ">
<path fill="none" stroke="#63b8ff" d="M140.91,-11.12C148.85,-11.12 156.9,-11.12 164.81,-11.12"/>
<polygon fill="#63b8ff" stroke="#63b8ff" points="140.93,-7.63 130.93,-11.13 140.93,-14.63 140.93,-7.63"/>
</a>
</g>
</g>
<!-- Node2 -->
<g id="Node000002" class="node">
<title>Node2</title>
<g id="a_Node000002"><a xlink:href="structDGtal_1_1RandomAccessCategory.html" target="_top" xlink:title=" ">
<polygon fill="white" stroke="#666666" points="509.25,-22.25 349.25,-22.25 349.25,0 509.25,0 509.25,-22.25"/>
<text text-anchor="middle" x="429.25" y="-8.75" font-family="FreeSans" font-size="10.00">DGtal::RandomAccessCategory</text>
</a>
</g>
</g>
<!-- Node1&#45;&gt;Node2 -->
<g id="edge292_Node000001_Node000002" class="edge">
<title>Node1&#45;&gt;Node2</title>
<g id="a_edge292_Node000001_Node000002"><a xlink:title=" ">
<path fill="none" stroke="#63b8ff" d="M325.21,-11.12C333.1,-11.12 341.07,-11.12 348.9,-11.12"/>
<polygon fill="#63b8ff" stroke="#63b8ff" points="325.26,-7.63 315.26,-11.13 325.26,-14.63 325.26,-7.63"/>
</a>
</g>
</g>
</g>
</svg>
