<?xml version="1.0" encoding="UTF-8" standalone="no"?>
<!DOCTYPE svg PUBLIC "-//W3C//DTD SVG 1.1//EN"
 "http://www.w3.org/Graphics/SVG/1.1/DTD/svg11.dtd">
<!-- Generated by graphviz version 11.0.0 (0)
 -->
<!-- Title: Graphical Class Hierarchy Pages: 1 -->
<svg width="274pt" height="70pt"
 viewBox="0.00 0.00 274.00 70.25" xmlns="http://www.w3.org/2000/svg" xmlns:xlink="http://www.w3.org/1999/xlink">
<g id="graph0" class="graph" transform="scale(1 1) rotate(0) translate(4 66.25)">
<title>Graphical Class Hierarchy</title>
<!-- Node0 -->
<g id="Node000000" class="node">
<title>Node0</title>
<g id="a_Node000000"><a xlink:href="classDGtal_1_1TraceWriter.html" target="_top" xlink:title="Virtual Class to implement trace writers.">
<polygon fill="white" stroke="#666666" points="103,-42.25 0,-42.25 0,-20 103,-20 103,-42.25"/>
<text text-anchor="middle" x="51.5" y="-28.75" font-family="FreeSans" font-size="10.00">DGtal::TraceWriter</text>
</a>
</g>
</g>
<!-- Node1 -->
<g id="Node000001" class="node">
<title>Node1</title>
<g id="a_Node000001"><a xlink:href="classDGtal_1_1TraceWriterFile.html" target="_top" xlink:title=" ">
<polygon fill="white" stroke="#666666" points="261.88,-62.25 143.12,-62.25 143.12,-40 261.88,-40 261.88,-62.25"/>
<text text-anchor="middle" x="202.5" y="-48.75" font-family="FreeSans" font-size="10.00">DGtal::TraceWriterFile</text>
</a>
</g>
</g>
<!-- Node0&#45;&gt;Node1 -->
<g id="edge320_Node000000_Node000001" class="edge">
<title>Node0&#45;&gt;Node1</title>
<g id="a_edge320_Node000000_Node000001"><a xlink:title=" ">
<path fill="none" stroke="#63b8ff" d="M114.54,-39.45C123.85,-40.7 133.42,-41.99 142.66,-43.23"/>
<polygon fill="#63b8ff" stroke="#63b8ff" points="115.24,-36.01 104.86,-38.15 114.31,-42.95 115.24,-36.01"/>
</a>
</g>
</g>
<!-- Node2 -->
<g id="Node000002" class="node">
<title>Node2</title>
<g id="a_Node000002"><a xlink:href="classDGtal_1_1TraceWriterTerm.html" target="_top" xlink:title="Implements trace prefix for color terminals.">
<polygon fill="white" stroke="#666666" points="266,-22.25 139,-22.25 139,0 266,0 266,-22.25"/>
<text text-anchor="middle" x="202.5" y="-8.75" font-family="FreeSans" font-size="10.00">DGtal::TraceWriterTerm</text>
</a>
</g>
</g>
<!-- Node0&#45;&gt;Node2 -->
<g id="edge321_Node000000_Node000002" class="edge">
<title>Node0&#45;&gt;Node2</title>
<g id="a_edge321_Node000000_Node000002"><a xlink:title=" ">
<path fill="none" stroke="#63b8ff" d="M114.51,-22.8C122.52,-21.73 130.72,-20.63 138.74,-19.55"/>
<polygon fill="#63b8ff" stroke="#63b8ff" points="114.31,-19.3 104.86,-24.1 115.24,-26.24 114.31,-19.3"/>
</a>
</g>
</g>
</g>
</svg>
