<?xml version="1.0" encoding="UTF-8" standalone="no"?>
<!DOCTYPE svg PUBLIC "-//W3C//DTD SVG 1.1//EN"
 "http://www.w3.org/Graphics/SVG/1.1/DTD/svg11.dtd">
<!-- Generated by graphviz version 11.0.0 (0)
 -->
<!-- Title: DGtal::concepts::CDrawableWithDisplay3D&lt; T, Sp, KSp &gt; Pages: 1 -->
<svg width="571pt" height="100pt"
 viewBox="0.00 0.00 571.25 99.50" xmlns="http://www.w3.org/2000/svg" xmlns:xlink="http://www.w3.org/1999/xlink">
<g id="graph0" class="graph" transform="scale(1 1) rotate(0) translate(4 95.5)">
<title>DGtal::concepts::CDrawableWithDisplay3D&lt; T, Sp, KSp &gt;</title>
<!-- Node1 -->
<g id="Node000001" class="node">
<title>Node1</title>
<g id="a_Node000001"><a xlink:title=" ">
<polygon fill="#999999" stroke="#666666" points="145,-63.5 0,-63.5 0,-27 145,-27 145,-63.5"/>
<text text-anchor="start" x="8" y="-50" font-family="FreeSans" font-size="10.00">DGtal::concepts::CDrawable</text>
<text text-anchor="middle" x="72.5" y="-35.75" font-family="FreeSans" font-size="10.00">WithDisplay3D&lt; T, Sp, KSp &gt;</text>
</a>
</g>
</g>
<!-- Node2 -->
<g id="Node000002" class="node">
<title>Node2</title>
<g id="a_Node000002"><a xlink:href="structDGtal_1_1concepts_1_1CDrawableWithDisplay3D.html" target="_top" xlink:title=" ">
<polygon fill="white" stroke="#666666" points="377,-63.5 232,-63.5 232,-27 377,-27 377,-63.5"/>
<text text-anchor="start" x="240" y="-50" font-family="FreeSans" font-size="10.00">DGtal::concepts::CDrawable</text>
<text text-anchor="middle" x="304.5" y="-35.75" font-family="FreeSans" font-size="10.00">WithDisplay3D&lt; T, S, KS &gt;</text>
</a>
</g>
</g>
<!-- Node1&#45;&gt;Node2 -->
<g id="edge1_Node000001_Node000002" class="edge">
<title>Node1&#45;&gt;Node2</title>
<g id="a_edge1_Node000001_Node000002"><a xlink:title=" ">
<path fill="none" stroke="orange" stroke-dasharray="5,2" d="M156.82,-45.25C181.39,-45.25 208.05,-45.25 231.82,-45.25"/>
<polygon fill="orange" stroke="orange" points="156.84,-41.75 146.84,-45.25 156.84,-48.75 156.84,-41.75"/>
</a>
</g>
<text text-anchor="middle" x="188.5" y="-50" font-family="FreeSans" font-size="10.00" fill="grey"> &lt; T, S, KS &gt;</text>
</g>
<!-- Node3 -->
<g id="Node000003" class="node">
<title>Node3</title>
<g id="a_Node000003"><a xlink:href="structDGtal_1_1concepts_1_1CDrawableWithBoard3DTo2D.html" target="_top" xlink:title=" ">
<polygon fill="white" stroke="#666666" points="563.25,-91.5 413,-91.5 413,-55 563.25,-55 563.25,-91.5"/>
<text text-anchor="start" x="421" y="-78" font-family="FreeSans" font-size="10.00">DGtal::concepts::CDrawable</text>
<text text-anchor="middle" x="488.12" y="-63.75" font-family="FreeSans" font-size="10.00">WithBoard3DTo2D&lt; T, S, KS &gt;</text>
</a>
</g>
</g>
<!-- Node2&#45;&gt;Node3 -->
<g id="edge2_Node000002_Node000003" class="edge">
<title>Node2&#45;&gt;Node3</title>
<g id="a_edge2_Node000002_Node000003"><a xlink:title=" ">
<path fill="none" stroke="#63b8ff" d="M388.54,-58.05C396.56,-59.29 404.66,-60.54 412.58,-61.76"/>
<polygon fill="#63b8ff" stroke="#63b8ff" points="389.2,-54.61 378.78,-56.55 388.13,-61.53 389.2,-54.61"/>
</a>
</g>
</g>
<!-- Node4 -->
<g id="Node000004" class="node">
<title>Node4</title>
<g id="a_Node000004"><a xlink:href="structDGtal_1_1concepts_1_1CDrawableWithViewer3D.html" target="_top" xlink:title="Aim: The concept CDrawableWithViewer3D specifies what are the classes that admit an export with Viewe...">
<polygon fill="white" stroke="#666666" points="560.62,-36.5 415.62,-36.5 415.62,0 560.62,0 560.62,-36.5"/>
<text text-anchor="start" x="423.62" y="-23" font-family="FreeSans" font-size="10.00">DGtal::concepts::CDrawable</text>
<text text-anchor="middle" x="488.12" y="-8.75" font-family="FreeSans" font-size="10.00">WithViewer3D&lt; T, S, KS &gt;</text>
</a>
</g>
</g>
<!-- Node2&#45;&gt;Node4 -->
<g id="edge3_Node000002_Node000004" class="edge">
<title>Node2&#45;&gt;Node4</title>
<g id="a_edge3_Node000002_Node000004"><a xlink:title=" ">
<path fill="none" stroke="#63b8ff" d="M388.52,-32.91C397.45,-31.58 406.48,-30.24 415.27,-28.93"/>
<polygon fill="#63b8ff" stroke="#63b8ff" points="388.16,-29.42 378.78,-34.36 389.19,-36.35 388.16,-29.42"/>
</a>
</g>
</g>
</g>
</svg>
