<?xml version="1.0" encoding="UTF-8" standalone="no"?>
<!DOCTYPE svg PUBLIC "-//W3C//DTD SVG 1.1//EN"
 "http://www.w3.org/Graphics/SVG/1.1/DTD/svg11.dtd">
<!-- Generated by graphviz version 11.0.0 (0)
 -->
<!-- Title: DGtal::concepts::CConstSinglePassRange&lt; T &gt; Pages: 1 -->
<!--zoomable 456 -->

<svg id="main" version="1.1" xmlns="http://www.w3.org/2000/svg" xmlns:xlink="http://www.w3.org/1999/xlink" xml:space="preserve" onload="init(evt)">
<style type="text/css"><![CDATA[
.node, .edge {opacity: 0.7;}
.node.selected, .edge.selected {opacity: 1;}
.edge:hover path { stroke: red; }
.edge:hover polygon { stroke: red; fill: red; }
]]></style>

<defs>
  <circle id="rim" cx="0" cy="0" r="7"/>
  <circle id="rim2" cx="0" cy="0" r="3.5"/>
  <g id="zoomPlus">
    <use xlink:href="#rim" fill="#404040"><set attributeName="fill" to="#808080" begin="zoomplus.mouseover" end="zoomplus.mouseout"/></use>
    <path d="M-4,0h8M0,-4v8" fill="none" stroke="white" stroke-width="1.5" pointer-events="none"/>
  </g>
  <g id="zoomMin">
    <use xlink:href="#rim" fill="#404040"><set attributeName="fill" to="#808080" begin="zoomminus.mouseover" end="zoomminus.mouseout"/></use>
    <path d="M-4,0h8" fill="none" stroke="white" stroke-width="1.5" pointer-events="none"/>
  </g>
  <g id="arrowUp" transform="translate(30 24)">
    <use xlink:href="#rim"/>
    <path pointer-events="none" fill="none" stroke="white" stroke-width="1.5" d="M0,-3.0v7 M-2.5,-0.5L0,-3.0L2.5,-0.5"/>
  </g>
  <g id="arrowRight" transform="rotate(90) translate(36 -43)">
    <use xlink:href="#rim"/>
    <path pointer-events="none" fill="none" stroke="white" stroke-width="1.5" d="M0,-3.0v7 M-2.5,-0.5L0,-3.0L2.5,-0.5"/>
  </g>
  <g id="arrowDown" transform="rotate(180) translate(-30 -48)">
    <use xlink:href="#rim"/>
    <path pointer-events="none" fill="none" stroke="white" stroke-width="1.5" d="M0,-3.0v7 M-2.5,-0.5L0,-3.0L2.5,-0.5"/>
  </g>
  <g id="arrowLeft" transform="rotate(270) translate(-36 17)">
    <use xlink:href="#rim"/>
    <path pointer-events="none" fill="none" stroke="white" stroke-width="1.5" d="M0,-3.0v7 M-2.5,-0.5L0,-3.0L2.5,-0.5"/>
  </g>
  <g id="resetDef">
    <use xlink:href="#rim2" fill="#404040"><set attributeName="fill" to="#808080" begin="reset.mouseover" end="reset.mouseout"/></use>
  </g>
</defs>
<script type="application/ecmascript">
var viewWidth = 887;
var viewHeight = 456;
var sectionId = 'dynsection-0';
</script>
<script type="application/ecmascript" xlink:href="svg.min.js"/>
<svg id="graph" class="graph">
<g id="viewport">
<title>DGtal::concepts::CConstSinglePassRange&lt; T &gt;</title>
<!-- Node1 -->
<g id="Node000001" class="node">
<title>Node1</title>
<g id="a_Node000001"><a xlink:title="Aim: Defines the concept describing a const single pass range.">
<polygon fill="#999999" stroke="#666666" points="155.5,-238.5 0,-238.5 0,-202 155.5,-202 155.5,-238.5"/>
<text text-anchor="start" x="8" y="-225" font-family="FreeSans" font-size="10.00">DGtal::concepts::CConstSingle</text>
<text text-anchor="middle" x="77.75" y="-210.75" font-family="FreeSans" font-size="10.00">PassRange&lt; T &gt;</text>
</a>
</g>
</g>
<!-- Node2 -->
<g id="Node000002" class="node">
<title>Node2</title>
<g id="a_Node000002"><a xlink:href="structDGtal_1_1concepts_1_1CConstSinglePassRangeFromPoint.html" target="_top" xlink:title=" ">
<polygon fill="white" stroke="#666666" points="643.38,-321.5 477.38,-321.5 477.38,-285 643.38,-285 643.38,-321.5"/>
<text text-anchor="start" x="485.38" y="-308" font-family="FreeSans" font-size="10.00">DGtal::concepts::CConstSingle</text>
<text text-anchor="middle" x="560.38" y="-293.75" font-family="FreeSans" font-size="10.00">PassRangeFromPoint&lt; T, Value &gt;</text>
</a>
</g>
</g>
<!-- Node1&#45;&gt;Node2 -->
<g id="edge1_Node000001_Node000002" class="edge">
<title>Node1&#45;&gt;Node2</title>
<g id="a_edge1_Node000001_Node000002"><a xlink:title=" ">
<path fill="none" stroke="#63b8ff" d="M100.14,-247.33C120.84,-271.15 154.58,-304.17 192.5,-318.25 290.06,-354.48 412.38,-338.4 488.21,-322"/>
<polygon fill="#63b8ff" stroke="#63b8ff" points="102.96,-245.25 93.84,-239.86 97.61,-249.76 102.96,-245.25"/>
</a>
</g>
</g>
<!-- Node4 -->
<g id="Node000004" class="node">
<title>Node4</title>
<g id="a_Node000004"><a xlink:href="structDGtal_1_1concepts_1_1CConstBidirectionalRange.html" target="_top" xlink:title="Aim: Defines the concept describing a bidirectional const range.">
<polygon fill="white" stroke="#666666" points="377.25,-399.5 192.5,-399.5 192.5,-363 377.25,-363 377.25,-399.5"/>
<text text-anchor="start" x="200.5" y="-386" font-family="FreeSans" font-size="10.00">DGtal::concepts::CConstBidirectional</text>
<text text-anchor="middle" x="284.88" y="-371.75" font-family="FreeSans" font-size="10.00">Range&lt; T &gt;</text>
</a>
</g>
</g>
<!-- Node1&#45;&gt;Node4 -->
<g id="edge3_Node000001_Node000004" class="edge">
<title>Node1&#45;&gt;Node4</title>
<g id="a_edge3_Node000001_Node000004"><a xlink:title=" ">
<path fill="none" stroke="#63b8ff" d="M90.75,-249.02C105.48,-280.64 133.52,-330.48 173.5,-357.25 179.28,-361.12 185.59,-364.38 192.15,-367.13"/>
<polygon fill="#63b8ff" stroke="#63b8ff" points="94.01,-247.73 86.72,-240.05 87.63,-250.6 94.01,-247.73"/>
</a>
</g>
</g>
<!-- Node8 -->
<g id="Node000008" class="node">
<title>Node8</title>
<g id="a_Node000008"><a xlink:href="structDGtal_1_1concepts_1_1CConstSinglePassRangeFromPoint.html" target="_top" xlink:title="Aim: refined concept of const single pass range with a begin() method from a point.">
<polygon fill="white" stroke="#666666" points="362.62,-309.5 207.12,-309.5 207.12,-273 362.62,-273 362.62,-309.5"/>
<text text-anchor="start" x="215.12" y="-296" font-family="FreeSans" font-size="10.00">DGtal::concepts::CConstSingle</text>
<text text-anchor="middle" x="284.88" y="-281.75" font-family="FreeSans" font-size="10.00">PassRangeFromPoint&lt; T &gt;</text>
</a>
</g>
</g>
<!-- Node1&#45;&gt;Node8 -->
<g id="edge8_Node000001_Node000008" class="edge">
<title>Node1&#45;&gt;Node8</title>
<g id="a_edge8_Node000001_Node000008"><a xlink:title=" ">
<path fill="none" stroke="#63b8ff" d="M135.35,-243.19C153.49,-250.26 173.74,-257.86 192.5,-264.25 200.8,-267.08 209.58,-269.89 218.28,-272.57"/>
<polygon fill="#63b8ff" stroke="#63b8ff" points="136.65,-239.94 126.06,-239.54 134.09,-246.46 136.65,-239.94"/>
</a>
</g>
</g>
<!-- Node10 -->
<g id="Node000010" class="node">
<title>Node10</title>
<g id="a_Node000010"><a xlink:href="structDGtal_1_1concepts_1_1CDomain.html" target="_top" xlink:title="Aim: This concept represents a digital domain, i.e. a non mutable subset of points of the given digit...">
<polygon fill="white" stroke="#666666" points="364.5,-255.38 205.25,-255.38 205.25,-233.12 364.5,-233.12 364.5,-255.38"/>
<text text-anchor="middle" x="284.88" y="-241.88" font-family="FreeSans" font-size="10.00">DGtal::concepts::CDomain&lt; T &gt;</text>
</a>
</g>
</g>
<!-- Node1&#45;&gt;Node10 -->
<g id="edge11_Node000001_Node000010" class="edge">
<title>Node1&#45;&gt;Node10</title>
<g id="a_edge11_Node000001_Node000010"><a xlink:title=" ">
<path fill="none" stroke="#63b8ff" d="M167.11,-230.59C179.63,-232.05 192.44,-233.55 204.77,-234.99"/>
<polygon fill="#63b8ff" stroke="#63b8ff" points="167.56,-227.12 157.22,-229.43 166.74,-234.07 167.56,-227.12"/>
</a>
</g>
</g>
<!-- Node11 -->
<g id="Node000011" class="node">
<title>Node11</title>
<g id="a_Node000011"><a xlink:href="structDGtal_1_1concepts_1_1CPositiveIrreducibleFraction.html" target="_top" xlink:title="Aim: Defines positive irreducible fractions, i.e. fraction p/q, p and q non&#45;negative integers,...">
<polygon fill="white" stroke="#666666" points="353.62,-215.5 216.12,-215.5 216.12,-179 353.62,-179 353.62,-215.5"/>
<text text-anchor="start" x="224.12" y="-202" font-family="FreeSans" font-size="10.00">DGtal::concepts::CPositive</text>
<text text-anchor="middle" x="284.88" y="-187.75" font-family="FreeSans" font-size="10.00">IrreducibleFraction&lt; T &gt;</text>
</a>
</g>
</g>
<!-- Node1&#45;&gt;Node11 -->
<g id="edge12_Node000001_Node000011" class="edge">
<title>Node1&#45;&gt;Node11</title>
<g id="a_edge12_Node000001_Node000011"><a xlink:title=" ">
<path fill="none" stroke="#63b8ff" d="M166.96,-210.36C183.36,-208.52 200.25,-206.63 215.92,-204.87"/>
<polygon fill="#63b8ff" stroke="#63b8ff" points="166.77,-206.86 157.22,-211.45 167.55,-213.82 166.77,-206.86"/>
</a>
</g>
</g>
<!-- Node12 -->
<g id="Node000012" class="node">
<title>Node12</title>
<g id="a_Node000012"><a xlink:href="structDGtal_1_1concepts_1_1CSinglePassRange.html" target="_top" xlink:title="Aim: Defines the concept describing a range.">
<polygon fill="white" stroke="#666666" points="349.5,-160.5 220.25,-160.5 220.25,-124 349.5,-124 349.5,-160.5"/>
<text text-anchor="start" x="228.25" y="-147" font-family="FreeSans" font-size="10.00">DGtal::concepts::CSingle</text>
<text text-anchor="middle" x="284.88" y="-132.75" font-family="FreeSans" font-size="10.00">PassRange&lt; T &gt;</text>
</a>
</g>
</g>
<!-- Node1&#45;&gt;Node12 -->
<g id="edge13_Node000001_Node000012" class="edge">
<title>Node1&#45;&gt;Node12</title>
<g id="a_edge13_Node000001_Node000012"><a xlink:title=" ">
<path fill="none" stroke="#63b8ff" d="M128.57,-196.85C148.27,-187.99 171.25,-178.15 192.5,-170.25 201.37,-166.96 210.81,-163.74 220.14,-160.73"/>
<polygon fill="#63b8ff" stroke="#63b8ff" points="127.33,-193.56 119.67,-200.88 130.22,-199.94 127.33,-193.56"/>
</a>
</g>
</g>
<!-- Node13 -->
<g id="Node000013" class="node">
<title>Node13</title>
<g id="a_Node000013"><a xlink:href="structDGtal_1_1concepts_1_1CSinglePassRangeWithWritableIterator.html" target="_top" xlink:title="Aim: refined concept of const single pass range which require that an output iterator exists.">
<polygon fill="white" stroke="#666666" points="366,-105.62 203.75,-105.62 203.75,-54.88 366,-54.88 366,-105.62"/>
<text text-anchor="start" x="211.75" y="-92.12" font-family="FreeSans" font-size="10.00">DGtal::concepts::CSingle</text>
<text text-anchor="start" x="211.75" y="-77.88" font-family="FreeSans" font-size="10.00">PassRangeWithWritableIterator</text>
<text text-anchor="middle" x="284.88" y="-63.62" font-family="FreeSans" font-size="10.00">&lt; T, Value &gt;</text>
</a>
</g>
</g>
<!-- Node1&#45;&gt;Node13 -->
<g id="edge15_Node000001_Node000013" class="edge">
<title>Node1&#45;&gt;Node13</title>
<g id="a_edge15_Node000001_Node000013"><a xlink:title=" ">
<path fill="none" stroke="#63b8ff" d="M102.41,-193.25C123.97,-170 157.68,-136.87 192.5,-115.25 197.84,-111.93 203.55,-108.85 209.4,-105.99"/>
<polygon fill="#63b8ff" stroke="#63b8ff" points="99.94,-190.76 95.79,-200.51 105.11,-195.48 99.94,-190.76"/>
</a>
</g>
</g>
<!-- Node17 -->
<g id="Node000017" class="node">
<title>Node17</title>
<g id="a_Node000017"><a xlink:href="structDGtal_1_1concepts_1_1CUndirectedSimpleGraph.html" target="_top" xlink:title="Aim: Represents the concept of local graph: each vertex has neighboring vertices, but we do not neces...">
<polygon fill="white" stroke="#666666" points="361.5,-36.5 208.25,-36.5 208.25,0 361.5,0 361.5,-36.5"/>
<text text-anchor="start" x="216.25" y="-23" font-family="FreeSans" font-size="10.00">DGtal::concepts::CUndirected</text>
<text text-anchor="middle" x="284.88" y="-8.75" font-family="FreeSans" font-size="10.00">SimpleGraph&lt; T &gt;</text>
</a>
</g>
</g>
<!-- Node1&#45;&gt;Node17 -->
<g id="edge19_Node000001_Node000017" class="edge">
<title>Node1&#45;&gt;Node17</title>
<g id="a_edge19_Node000001_Node000017"><a xlink:title=" ">
<path fill="none" stroke="#63b8ff" d="M90.22,-191.15C106.96,-152.44 141.69,-84.44 192.5,-46.25 197.27,-42.66 202.51,-39.53 207.99,-36.79"/>
<polygon fill="#63b8ff" stroke="#63b8ff" points="87.02,-189.73 86.38,-200.31 93.48,-192.44 87.02,-189.73"/>
</a>
</g>
</g>
<!-- Node3 -->
<g id="Node000003" class="node">
<title>Node3</title>
<g id="a_Node000003"><a xlink:href="structDGtal_1_1concepts_1_1CSinglePassRangeWithWritableIteratorFromPoint.html" target="_top" xlink:title="Aim: refined concept of single pass range with a outputIterator() method from a point.">
<polygon fill="white" stroke="#666666" points="864.88,-328.62 702.62,-328.62 702.62,-277.88 864.88,-277.88 864.88,-328.62"/>
<text text-anchor="start" x="710.62" y="-315.12" font-family="FreeSans" font-size="10.00">DGtal::concepts::CSingle</text>
<text text-anchor="start" x="710.62" y="-300.88" font-family="FreeSans" font-size="10.00">PassRangeWithWritableIterator</text>
<text text-anchor="middle" x="783.75" y="-286.62" font-family="FreeSans" font-size="10.00">FromPoint&lt; T, Value &gt;</text>
</a>
</g>
</g>
<!-- Node2&#45;&gt;Node3 -->
<g id="edge2_Node000002_Node000003" class="edge">
<title>Node2&#45;&gt;Node3</title>
<g id="a_edge2_Node000002_Node000003"><a xlink:title=" ">
<path fill="none" stroke="#63b8ff" d="M655.16,-303.25C670.9,-303.25 687.1,-303.25 702.46,-303.25"/>
<polygon fill="#63b8ff" stroke="#63b8ff" points="655.32,-299.75 645.32,-303.25 655.32,-306.75 655.32,-299.75"/>
</a>
</g>
</g>
<!-- Node5 -->
<g id="Node000005" class="node">
<title>Node5</title>
<g id="a_Node000005"><a xlink:href="structDGtal_1_1concepts_1_1CBidirectionalRange.html" target="_top" xlink:title="Aim: Defines the concept describing a bidirectional range.">
<polygon fill="white" stroke="#666666" points="639.62,-447.5 481.12,-447.5 481.12,-411 639.62,-411 639.62,-447.5"/>
<text text-anchor="start" x="489.12" y="-434" font-family="FreeSans" font-size="10.00">DGtal::concepts::CBidirectional</text>
<text text-anchor="middle" x="560.38" y="-419.75" font-family="FreeSans" font-size="10.00">Range&lt; T &gt;</text>
</a>
</g>
</g>
<!-- Node4&#45;&gt;Node5 -->
<g id="edge4_Node000004_Node000005" class="edge">
<title>Node4&#45;&gt;Node5</title>
<g id="a_edge4_Node000004_Node000005"><a xlink:title=" ">
<path fill="none" stroke="#63b8ff" d="M388.84,-399.32C419.38,-404.68 452.32,-410.46 481.04,-415.5"/>
<polygon fill="#63b8ff" stroke="#63b8ff" points="389.65,-395.91 379.2,-397.63 388.44,-402.8 389.65,-395.91"/>
</a>
</g>
</g>
<!-- Node7 -->
<g id="Node000007" class="node">
<title>Node7</title>
<g id="a_Node000007"><a xlink:href="structDGtal_1_1concepts_1_1CConstBidirectionalRangeFromPoint.html" target="_top" xlink:title="Aim: refined concept of const bidirectional range with a begin() method from a point.">
<polygon fill="white" stroke="#666666" points="652.75,-392.5 468,-392.5 468,-356 652.75,-356 652.75,-392.5"/>
<text text-anchor="start" x="476" y="-379" font-family="FreeSans" font-size="10.00">DGtal::concepts::CConstBidirectional</text>
<text text-anchor="middle" x="560.38" y="-364.75" font-family="FreeSans" font-size="10.00">RangeFromPoint&lt; T &gt;</text>
</a>
</g>
</g>
<!-- Node4&#45;&gt;Node7 -->
<g id="edge6_Node000004_Node000007" class="edge">
<title>Node4&#45;&gt;Node7</title>
<g id="a_edge6_Node000004_Node000007"><a xlink:title=" ">
<path fill="none" stroke="#63b8ff" d="M389.07,-378.61C414.94,-377.95 442.52,-377.24 467.78,-376.59"/>
<polygon fill="#63b8ff" stroke="#63b8ff" points="389.13,-375.11 379.22,-378.86 389.31,-382.1 389.13,-375.11"/>
</a>
</g>
</g>
<!-- Node6 -->
<g id="Node000006" class="node">
<title>Node6</title>
<g id="a_Node000006"><a xlink:href="structDGtal_1_1concepts_1_1CBidirectionalRangeFromPoint.html" target="_top" xlink:title="Aim: refined concept of single pass range with a begin() method from a point.">
<polygon fill="white" stroke="#666666" points="863,-420.5 704.5,-420.5 704.5,-384 863,-384 863,-420.5"/>
<text text-anchor="start" x="712.5" y="-407" font-family="FreeSans" font-size="10.00">DGtal::concepts::CBidirectional</text>
<text text-anchor="middle" x="783.75" y="-392.75" font-family="FreeSans" font-size="10.00">RangeFromPoint&lt; T &gt;</text>
</a>
</g>
</g>
<!-- Node5&#45;&gt;Node6 -->
<g id="edge5_Node000005_Node000006" class="edge">
<title>Node5&#45;&gt;Node6</title>
<g id="a_edge5_Node000005_Node000006"><a xlink:title=" ">
<path fill="none" stroke="#63b8ff" d="M651.44,-418.26C668.97,-416.13 687.22,-413.9 704.33,-411.81"/>
<polygon fill="#63b8ff" stroke="#63b8ff" points="651.05,-414.79 641.55,-419.47 651.9,-421.74 651.05,-414.79"/>
</a>
</g>
</g>
<!-- Node7&#45;&gt;Node6 -->
<g id="edge7_Node000007_Node000006" class="edge">
<title>Node7&#45;&gt;Node6</title>
<g id="a_edge7_Node000007_Node000006"><a xlink:title=" ">
<path fill="none" stroke="#63b8ff" d="M664.25,-387.26C677.69,-388.96 691.28,-390.68 704.23,-392.32"/>
<polygon fill="#63b8ff" stroke="#63b8ff" points="664.88,-383.81 654.52,-386.03 664,-390.76 664.88,-383.81"/>
</a>
</g>
</g>
<!-- Node8&#45;&gt;Node2 -->
<g id="edge10_Node000008_Node000002" class="edge">
<title>Node8&#45;&gt;Node2</title>
<g id="a_edge10_Node000008_Node000002"><a xlink:title=" ">
<path fill="none" stroke="orange" stroke-dasharray="5,2" d="M373.86,-295.11C407.06,-296.57 444.67,-298.22 477.31,-299.65"/>
<polygon fill="orange" stroke="orange" points="374.44,-291.63 364.3,-294.69 374.14,-298.63 374.44,-291.63"/>
</a>
</g>
<text text-anchor="middle" x="422.62" y="-303" font-family="FreeSans" font-size="10.00" fill="grey"> &lt; T, Value &gt;</text>
</g>
<!-- Node9 -->
<g id="Node000009" class="node">
<title>Node9</title>
<g id="a_Node000009"><a xlink:href="structDGtal_1_1concepts_1_1CSinglePassRangeFromPoint.html" target="_top" xlink:title="Aim: refined concept of single pass range with a begin() method from a point.">
<polygon fill="white" stroke="#666666" points="628,-254.5 492.75,-254.5 492.75,-218 628,-218 628,-254.5"/>
<text text-anchor="start" x="500.75" y="-241" font-family="FreeSans" font-size="10.00">DGtal::concepts::CSingle</text>
<text text-anchor="middle" x="560.38" y="-226.75" font-family="FreeSans" font-size="10.00">PassRangeFromPoint&lt; T &gt;</text>
</a>
</g>
</g>
<!-- Node8&#45;&gt;Node9 -->
<g id="edge9_Node000008_Node000009" class="edge">
<title>Node8&#45;&gt;Node9</title>
<g id="a_edge9_Node000008_Node000009"><a xlink:title=" ">
<path fill="none" stroke="#63b8ff" d="M373.97,-273.53C412.38,-265.81 456.67,-256.9 492.33,-249.73"/>
<polygon fill="#63b8ff" stroke="#63b8ff" points="373.39,-270.08 364.27,-275.48 374.77,-276.94 373.39,-270.08"/>
</a>
</g>
</g>
<!-- Node12&#45;&gt;Node9 -->
<g id="edge14_Node000012_Node000009" class="edge">
<title>Node12&#45;&gt;Node9</title>
<g id="a_edge14_Node000012_Node000009"><a xlink:title=" ">
<path fill="none" stroke="#63b8ff" d="M359.35,-164.41C365.42,-166.35 371.45,-168.31 377.25,-170.25 422.38,-185.33 473.27,-203.91 509.75,-217.5"/>
<polygon fill="#63b8ff" stroke="#63b8ff" points="360.47,-161.09 349.88,-161.42 358.36,-167.77 360.47,-161.09"/>
</a>
</g>
</g>
<!-- Node14 -->
<g id="Node000014" class="node">
<title>Node14</title>
<g id="a_Node000014"><a xlink:href="structDGtal_1_1concepts_1_1CBidirectionalRangeWithWritableIterator.html" target="_top" xlink:title="Aim: refined concept of bidirectional range which require that a reverse output iterator exists.">
<polygon fill="white" stroke="#666666" points="639.62,-159.62 481.12,-159.62 481.12,-108.88 639.62,-108.88 639.62,-159.62"/>
<text text-anchor="start" x="489.12" y="-146.12" font-family="FreeSans" font-size="10.00">DGtal::concepts::CBidirectional</text>
<text text-anchor="start" x="489.12" y="-131.88" font-family="FreeSans" font-size="10.00">RangeWithWritableIterator</text>
<text text-anchor="middle" x="560.38" y="-117.62" font-family="FreeSans" font-size="10.00">&lt; T, Value &gt;</text>
</a>
</g>
</g>
<!-- Node13&#45;&gt;Node14 -->
<g id="edge16_Node000013_Node000014" class="edge">
<title>Node13&#45;&gt;Node14</title>
<g id="a_edge16_Node000013_Node000014"><a xlink:title=" ">
<path fill="none" stroke="#63b8ff" d="M377.63,-98.37C411.08,-104.97 448.58,-112.37 480.78,-118.73"/>
<polygon fill="#63b8ff" stroke="#63b8ff" points="378.43,-94.96 367.94,-96.45 377.07,-101.82 378.43,-94.96"/>
</a>
</g>
</g>
<!-- Node16 -->
<g id="Node000016" class="node">
<title>Node16</title>
<g id="a_Node000016"><a xlink:href="structDGtal_1_1concepts_1_1CSinglePassRangeWithWritableIteratorFromPoint.html" target="_top" xlink:title="Aim: refined concept of single pass range with a outputIterator() method from a point.">
<polygon fill="white" stroke="#666666" points="641.5,-90.62 479.25,-90.62 479.25,-39.88 641.5,-39.88 641.5,-90.62"/>
<text text-anchor="start" x="487.25" y="-77.12" font-family="FreeSans" font-size="10.00">DGtal::concepts::CSingle</text>
<text text-anchor="start" x="487.25" y="-62.88" font-family="FreeSans" font-size="10.00">PassRangeWithWritableIterator</text>
<text text-anchor="middle" x="560.38" y="-48.62" font-family="FreeSans" font-size="10.00">FromPoint&lt; T, Value &gt;</text>
</a>
</g>
</g>
<!-- Node13&#45;&gt;Node16 -->
<g id="edge18_Node000013_Node000016" class="edge">
<title>Node13&#45;&gt;Node16</title>
<g id="a_edge18_Node000013_Node000016"><a xlink:title=" ">
<path fill="none" stroke="#63b8ff" d="M377.86,-75.21C410.6,-73.41 447.2,-71.4 478.9,-69.66"/>
<polygon fill="#63b8ff" stroke="#63b8ff" points="377.76,-71.71 367.97,-75.75 378.14,-78.69 377.76,-71.71"/>
</a>
</g>
</g>
<!-- Node15 -->
<g id="Node000015" class="node">
<title>Node15</title>
<g id="a_Node000015"><a xlink:href="structDGtal_1_1concepts_1_1CBidirectionalRangeWithWritableIteratorFromPoint.html" target="_top" xlink:title="Aim: refined concept of single pass range with an routputIterator() method from a point.">
<polygon fill="white" stroke="#666666" points="878.75,-159.62 688.75,-159.62 688.75,-108.88 878.75,-108.88 878.75,-159.62"/>
<text text-anchor="start" x="696.75" y="-146.12" font-family="FreeSans" font-size="10.00">DGtal::concepts::CBidirectional</text>
<text text-anchor="start" x="696.75" y="-131.88" font-family="FreeSans" font-size="10.00">RangeWithWritableIteratorFromPoint</text>
<text text-anchor="middle" x="783.75" y="-117.62" font-family="FreeSans" font-size="10.00">&lt; T, Value &gt;</text>
</a>
</g>
</g>
<!-- Node14&#45;&gt;Node15 -->
<g id="edge17_Node000014_Node000015" class="edge">
<title>Node14&#45;&gt;Node15</title>
<g id="a_edge17_Node000014_Node000015"><a xlink:title=" ">
<path fill="none" stroke="#63b8ff" d="M651.19,-134.25C663.46,-134.25 676.08,-134.25 688.42,-134.25"/>
<polygon fill="#63b8ff" stroke="#63b8ff" points="651.56,-130.75 641.56,-134.25 651.56,-137.75 651.56,-130.75"/>
</a>
</g>
</g>
</g>
</svg>

<g id="navigator" transform="translate(0 0)" fill="#404254">
  <rect fill="#f2f5e9" fill-opacity="0.5" stroke="#606060" stroke-width=".5" x="0" y="0" width="60" height="60"/>
  <use id="zoomplus" xlink:href="#zoomPlus" x="17" y="9" onmousedown="handleZoom(evt,'in')"/>
  <use id="zoomminus" xlink:href="#zoomMin" x="42" y="9" onmousedown="handleZoom(evt,'out')"/>
  <use id="reset" xlink:href="#resetDef" x="30" y="36" onmousedown="handleReset()"/>
   <use id="arrowup" xlink:href="#arrowUp" x="0" y="0" onmousedown="handlePan(0,-1)"/>
  <use id="arrowright" xlink:href="#arrowRight" x="0" y="0" onmousedown="handlePan(1,0)"/>
  <use id="arrowdown" xlink:href="#arrowDown" x="0" y="0" onmousedown="handlePan(0,1)"/>
  <use id="arrowleft" xlink:href="#arrowLeft" x="0" y="0" onmousedown="handlePan(-1,0)"/>
</g>
<svg viewBox="0 0 15 15" width="100%" height="30px" preserveAspectRatio="xMaxYMin meet">
 <g id="arrow_out" transform="scale(0.3 0.3)">
  <a xlink:href="structDGtal_1_1concepts_1_1CConstSinglePassRange__inherit__graph_org.svg" target="_base">
   <rect id="button" ry="5" rx="5" y="6" x="6" height="38" width="38"
        fill="#f2f5e9" fill-opacity="0.5" stroke="#606060" stroke-width="1.0"/>
   <path id="arrow"
     d="M 11.500037,31.436501 C 11.940474,20.09759 22.043105,11.32322 32.158766,21.979434 L 37.068811,17.246167 C 37.068811,17.246167 37.088388,32 37.088388,32 L 22.160133,31.978069 C 22.160133,31.978069 26.997745,27.140456 26.997745,27.140456 C 18.528582,18.264221 13.291696,25.230495 11.500037,31.436501 z"
     style="fill:#404040;"/>
  </a>
 </g>
</svg>

<style type='text/css'>
<![CDATA[
[data-mouse-over-selected='false'] { opacity: 0.7; }
[data-mouse-over-selected='true']  { opacity: 1.0; }
]]>
</style>
<script type="application/ecmascript"><![CDATA[
document.addEventListener('DOMContentLoaded', (event) => {
  highlightEdges();
  highlightAdjacentNodes();
});
]]></script>
</svg>
