<?xml version="1.0" encoding="UTF-8" standalone="no"?>
<!DOCTYPE svg PUBLIC "-//W3C//DTD SVG 1.1//EN"
 "http://www.w3.org/Graphics/SVG/1.1/DTD/svg11.dtd">
<!-- Generated by graphviz version 11.0.0 (0)
 -->
<!-- Title: DGtal::concepts::CInteger&lt; T &gt; Pages: 1 -->
<svg width="1322pt" height="124pt"
 viewBox="0.00 0.00 1322.25 124.38" xmlns="http://www.w3.org/2000/svg" xmlns:xlink="http://www.w3.org/1999/xlink">
<g id="graph0" class="graph" transform="scale(1 1) rotate(0) translate(4 120.38)">
<title>DGtal::concepts::CInteger&lt; T &gt;</title>
<!-- Node1 -->
<g id="Node000001" class="node">
<title>Node1</title>
<g id="a_Node000001"><a xlink:title="Aim: Concept checking for Integer Numbers. More precisely, this concept is a refinement of both CEucl...">
<polygon fill="#999999" stroke="#666666" points="1314.25,-56.38 1155,-56.38 1155,-34.12 1314.25,-34.12 1314.25,-56.38"/>
<text text-anchor="middle" x="1234.62" y="-42.88" font-family="FreeSans" font-size="10.00">DGtal::concepts::CInteger&lt; T &gt;</text>
</a>
</g>
</g>
<!-- Node2 -->
<g id="Node000002" class="node">
<title>Node2</title>
<g id="a_Node000002"><a xlink:href="structDGtal_1_1concepts_1_1CEuclideanRing.html" target="_top" xlink:title="Aim: Defines the mathematical concept equivalent to a unitary commutative ring with a division operat...">
<polygon fill="white" stroke="#666666" points="1119,-88.5 974,-88.5 974,-52 1119,-52 1119,-88.5"/>
<text text-anchor="start" x="982" y="-75" font-family="FreeSans" font-size="10.00">DGtal::concepts::CEuclidean</text>
<text text-anchor="middle" x="1046.5" y="-60.75" font-family="FreeSans" font-size="10.00">Ring&lt; T &gt;</text>
</a>
</g>
</g>
<!-- Node2&#45;&gt;Node1 -->
<g id="edge1_Node000001_Node000002" class="edge">
<title>Node2&#45;&gt;Node1</title>
<g id="a_edge1_Node000001_Node000002"><a xlink:title=" ">
<path fill="none" stroke="#63b8ff" d="M1130.68,-59.08C1138.69,-58 1146.79,-56.91 1154.75,-55.84"/>
<polygon fill="#63b8ff" stroke="#63b8ff" points="1130.41,-55.58 1120.96,-60.38 1131.34,-62.52 1130.41,-55.58"/>
</a>
</g>
</g>
<!-- Node3 -->
<g id="Node000003" class="node">
<title>Node3</title>
<g id="a_Node000003"><a xlink:href="structDGtal_1_1concepts_1_1CCommutativeRing.html" target="_top" xlink:title="Aim: Defines the mathematical concept equivalent to a unitary commutative ring.">
<polygon fill="white" stroke="#666666" points="938,-91.5 774.25,-91.5 774.25,-55 938,-55 938,-91.5"/>
<text text-anchor="start" x="782.25" y="-78" font-family="FreeSans" font-size="10.00">DGtal::concepts::CCommutative</text>
<text text-anchor="middle" x="856.12" y="-63.75" font-family="FreeSans" font-size="10.00">Ring&lt; T &gt;</text>
</a>
</g>
</g>
<!-- Node3&#45;&gt;Node2 -->
<g id="edge2_Node000002_Node000003" class="edge">
<title>Node3&#45;&gt;Node2</title>
<g id="a_edge2_Node000002_Node000003"><a xlink:title=" ">
<path fill="none" stroke="#63b8ff" d="M949.73,-71.78C957.78,-71.65 965.85,-71.52 973.7,-71.39"/>
<polygon fill="#63b8ff" stroke="#63b8ff" points="949.84,-68.27 939.89,-71.93 949.95,-75.27 949.84,-68.27"/>
</a>
</g>
</g>
<!-- Node4 -->
<g id="Node000004" class="node">
<title>Node4</title>
<g id="a_Node000004"><a xlink:href="structDGtal_1_1concepts_1_1CSignedNumber.html" target="_top" xlink:title="Aim: Concept checking for Signed Numbers. Models of this concept should be listed in NumberTraits cla...">
<polygon fill="white" stroke="#666666" points="738.25,-88.5 605.25,-88.5 605.25,-52 738.25,-52 738.25,-88.5"/>
<text text-anchor="start" x="613.25" y="-75" font-family="FreeSans" font-size="10.00">DGtal::concepts::CSigned</text>
<text text-anchor="middle" x="671.75" y="-60.75" font-family="FreeSans" font-size="10.00">Number&lt; T &gt;</text>
</a>
</g>
</g>
<!-- Node4&#45;&gt;Node3 -->
<g id="edge3_Node000003_Node000004" class="edge">
<title>Node4&#45;&gt;Node3</title>
<g id="a_edge3_Node000003_Node000004"><a xlink:title=" ">
<path fill="none" stroke="#63b8ff" d="M750,-71.52C757.87,-71.65 765.89,-71.78 773.8,-71.91"/>
<polygon fill="#63b8ff" stroke="#63b8ff" points="750.16,-68.02 740.1,-71.36 750.05,-75.02 750.16,-68.02"/>
</a>
</g>
</g>
<!-- Node5 -->
<g id="Node000005" class="node">
<title>Node5</title>
<g id="a_Node000005"><a xlink:href="structDGtal_1_1concepts_1_1CQuantity.html" target="_top" xlink:title="Aim: defines the concept of quantity in DGtal.">
<polygon fill="white" stroke="#666666" points="569.25,-56.38 406.25,-56.38 406.25,-34.12 569.25,-34.12 569.25,-56.38"/>
<text text-anchor="middle" x="487.75" y="-42.88" font-family="FreeSans" font-size="10.00">DGtal::concepts::CQuantity&lt; T &gt;</text>
</a>
</g>
</g>
<!-- Node5&#45;&gt;Node4 -->
<g id="edge4_Node000004_Node000005" class="edge">
<title>Node5&#45;&gt;Node4</title>
<g id="a_edge4_Node000004_Node000005"><a xlink:title=" ">
<path fill="none" stroke="#63b8ff" d="M580.99,-57.92C589.04,-59.03 597.07,-60.13 604.84,-61.2"/>
<polygon fill="#63b8ff" stroke="#63b8ff" points="581.52,-54.46 571.14,-56.57 580.57,-61.4 581.52,-54.46"/>
</a>
</g>
</g>
<!-- Node11 -->
<g id="Node000011" class="node">
<title>Node11</title>
<g id="a_Node000011"><a xlink:href="structDGtal_1_1concepts_1_1CIntegralNumber.html" target="_top" xlink:title="Aim: Concept checking for Integral Numbers. Models of this concept should be listed in NumberTraits c...">
<polygon fill="white" stroke="#666666" points="925.25,-36.5 787,-36.5 787,0 925.25,0 925.25,-36.5"/>
<text text-anchor="start" x="795" y="-23" font-family="FreeSans" font-size="10.00">DGtal::concepts::CIntegral</text>
<text text-anchor="middle" x="856.12" y="-8.75" font-family="FreeSans" font-size="10.00">Number&lt; T &gt;</text>
</a>
</g>
</g>
<!-- Node5&#45;&gt;Node11 -->
<g id="edge11_Node000011_Node000005" class="edge">
<title>Node5&#45;&gt;Node11</title>
<g id="a_edge11_Node000011_Node000005"><a xlink:title=" ">
<path fill="none" stroke="#63b8ff" d="M580.91,-38.46C644.88,-33.74 728.72,-27.57 786.77,-23.29"/>
<polygon fill="#63b8ff" stroke="#63b8ff" points="580.83,-34.95 571.12,-39.18 581.35,-41.94 580.83,-34.95"/>
</a>
</g>
</g>
<!-- Node6 -->
<g id="Node000006" class="node">
<title>Node6</title>
<g id="a_Node000006"><a xlink:href="structDGtal_1_1concepts_1_1CLabel.html" target="_top" xlink:title="Aim: Define the concept of DGtal labels. Models of CLabel can be default&#45;constructible,...">
<polygon fill="white" stroke="#666666" points="360.12,-76.38 212.12,-76.38 212.12,-54.12 360.12,-54.12 360.12,-76.38"/>
<text text-anchor="middle" x="286.12" y="-62.88" font-family="FreeSans" font-size="10.00">DGtal::concepts::CLabel&lt; T &gt;</text>
</a>
</g>
</g>
<!-- Node6&#45;&gt;Node5 -->
<g id="edge5_Node000005_Node000006" class="edge">
<title>Node6&#45;&gt;Node5</title>
<g id="a_edge5_Node000005_Node000006"><a xlink:title=" ">
<path fill="none" stroke="#63b8ff" d="M371.83,-56.76C383.16,-55.63 394.76,-54.47 406.03,-53.34"/>
<polygon fill="#63b8ff" stroke="#63b8ff" points="371.71,-53.26 362.11,-57.74 372.41,-60.22 371.71,-53.26"/>
</a>
</g>
</g>
<!-- Node7 -->
<g id="Node000007" class="node">
<title>Node7</title>
<g id="a_Node000007"><a xlink:href="structboost_1_1DefaultConstructible.html" target="_top" xlink:title="Go to http://www.sgi.com/tech/stl/DefaultConstructible.html.">
<polygon fill="white" stroke="#666666" points="166,-116.38 0,-116.38 0,-94.12 166,-94.12 166,-116.38"/>
<text text-anchor="middle" x="83" y="-102.88" font-family="FreeSans" font-size="10.00">boost::DefaultConstructible&lt; T &gt;</text>
</a>
</g>
</g>
<!-- Node7&#45;&gt;Node6 -->
<g id="edge6_Node000006_Node000007" class="edge">
<title>Node7&#45;&gt;Node6</title>
<g id="a_edge6_Node000006_Node000007"><a xlink:title=" ">
<path fill="none" stroke="#63b8ff" d="M153.58,-91.41C177.48,-86.66 203.98,-81.39 226.88,-76.83"/>
<polygon fill="#63b8ff" stroke="#63b8ff" points="153.05,-87.95 143.93,-93.33 154.42,-94.81 153.05,-87.95"/>
</a>
</g>
</g>
<!-- Node8 -->
<g id="Node000008" class="node">
<title>Node8</title>
<g id="a_Node000008"><a xlink:href="structboost_1_1Assignable.html" target="_top" xlink:title="Go to http://www.sgi.com/tech/stl/Assignable.html.">
<polygon fill="white" stroke="#666666" points="142.75,-76.38 23.25,-76.38 23.25,-54.12 142.75,-54.12 142.75,-76.38"/>
<text text-anchor="middle" x="83" y="-62.88" font-family="FreeSans" font-size="10.00">boost::Assignable&lt; T &gt;</text>
</a>
</g>
</g>
<!-- Node8&#45;&gt;Node6 -->
<g id="edge7_Node000006_Node000008" class="edge">
<title>Node8&#45;&gt;Node6</title>
<g id="a_edge7_Node000006_Node000008"><a xlink:title=" ">
<path fill="none" stroke="#63b8ff" d="M154.35,-65.25C172.96,-65.25 193.09,-65.25 211.85,-65.25"/>
<polygon fill="#63b8ff" stroke="#63b8ff" points="154.5,-61.75 144.5,-65.25 154.5,-68.75 154.5,-61.75"/>
</a>
</g>
</g>
<!-- Node9 -->
<g id="Node000009" class="node">
<title>Node9</title>
<g id="a_Node000009"><a xlink:href="structboost_1_1EqualityComparable.html" target="_top" xlink:title="Go to http://www.sgi.com/tech/stl/EqualityComparable.html.">
<polygon fill="white" stroke="#666666" points="163.75,-36.38 2.25,-36.38 2.25,-14.12 163.75,-14.12 163.75,-36.38"/>
<text text-anchor="middle" x="83" y="-22.88" font-family="FreeSans" font-size="10.00">boost::EqualityComparable&lt; T &gt;</text>
</a>
</g>
</g>
<!-- Node9&#45;&gt;Node6 -->
<g id="edge8_Node000006_Node000009" class="edge">
<title>Node9&#45;&gt;Node6</title>
<g id="a_edge8_Node000006_Node000009"><a xlink:title=" ">
<path fill="none" stroke="#63b8ff" d="M153.58,-39.09C177.48,-43.84 203.98,-49.11 226.88,-53.67"/>
<polygon fill="#63b8ff" stroke="#63b8ff" points="154.42,-35.69 143.93,-37.17 153.05,-42.55 154.42,-35.69"/>
</a>
</g>
</g>
<!-- Node10 -->
<g id="Node000010" class="node">
<title>Node10</title>
<g id="a_Node000010"><a xlink:href="structboost_1_1LessThanComparable.html" target="_top" xlink:title="Go to http://www.sgi.com/tech/stl/LessThanComparable.html.">
<polygon fill="white" stroke="#666666" points="370.25,-36.38 202,-36.38 202,-14.12 370.25,-14.12 370.25,-36.38"/>
<text text-anchor="middle" x="286.12" y="-22.88" font-family="FreeSans" font-size="10.00">boost::LessThanComparable&lt; T &gt;</text>
</a>
</g>
</g>
<!-- Node10&#45;&gt;Node5 -->
<g id="edge9_Node000005_Node000010" class="edge">
<title>Node10&#45;&gt;Node5</title>
<g id="a_edge9_Node000005_Node000010"><a xlink:title=" ">
<path fill="none" stroke="#63b8ff" d="M381.89,-34.74C389.89,-35.55 397.94,-36.35 405.82,-37.14"/>
<polygon fill="#63b8ff" stroke="#63b8ff" points="382.43,-31.28 372.13,-33.77 381.73,-38.25 382.43,-31.28"/>
</a>
</g>
</g>
<!-- Node11&#45;&gt;Node1 -->
<g id="edge10_Node000001_Node000011" class="edge">
<title>Node11&#45;&gt;Node1</title>
<g id="a_edge10_Node000001_Node000011"><a xlink:title=" ">
<path fill="none" stroke="#63b8ff" d="M937.02,-23.98C1001.18,-28.58 1090.83,-35.01 1154.73,-39.59"/>
<polygon fill="#63b8ff" stroke="#63b8ff" points="937.48,-20.5 927.25,-23.28 936.98,-27.49 937.48,-20.5"/>
</a>
</g>
</g>
</g>
</svg>
