<?xml version="1.0" encoding="UTF-8" standalone="no"?>
<!DOCTYPE svg PUBLIC "-//W3C//DTD SVG 1.1//EN"
 "http://www.w3.org/Graphics/SVG/1.1/DTD/svg11.dtd">
<!-- Generated by graphviz version 11.0.0 (0)
 -->
<!-- Title: DGtal::RandomAccessCategory Pages: 1 -->
<svg width="168pt" height="147pt"
 viewBox="0.00 0.00 168.00 146.75" xmlns="http://www.w3.org/2000/svg" xmlns:xlink="http://www.w3.org/1999/xlink">
<g id="graph0" class="graph" transform="scale(1 1) rotate(0) translate(4 142.75)">
<title>DGtal::RandomAccessCategory</title>
<!-- Node1 -->
<g id="Node000001" class="node">
<title>Node1</title>
<g id="a_Node000001"><a xlink:title=" ">
<polygon fill="#999999" stroke="#666666" points="160,-22.25 0,-22.25 0,0 160,0 160,-22.25"/>
<text text-anchor="middle" x="80" y="-8.75" font-family="FreeSans" font-size="10.00">DGtal::RandomAccessCategory</text>
</a>
</g>
</g>
<!-- Node2 -->
<g id="Node000002" class="node">
<title>Node2</title>
<g id="a_Node000002"><a xlink:href="structDGtal_1_1BidirectionalCategory.html" target="_top" xlink:title=" ">
<polygon fill="white" stroke="#666666" points="154,-80.5 6,-80.5 6,-58.25 154,-58.25 154,-80.5"/>
<text text-anchor="middle" x="80" y="-67" font-family="FreeSans" font-size="10.00">DGtal::BidirectionalCategory</text>
</a>
</g>
</g>
<!-- Node2&#45;&gt;Node1 -->
<g id="edge1_Node000001_Node000002" class="edge">
<title>Node2&#45;&gt;Node1</title>
<g id="a_edge1_Node000001_Node000002"><a xlink:title=" ">
<path fill="none" stroke="#63b8ff" d="M80,-46.35C80,-38.2 80,-29.33 80,-22.66"/>
<polygon fill="#63b8ff" stroke="#63b8ff" points="76.5,-46.28 80,-56.28 83.5,-46.28 76.5,-46.28"/>
</a>
</g>
</g>
<!-- Node3 -->
<g id="Node000003" class="node">
<title>Node3</title>
<g id="a_Node000003"><a xlink:href="structDGtal_1_1ForwardCategory.html" target="_top" xlink:title=" ">
<polygon fill="white" stroke="#666666" points="144.62,-138.75 15.38,-138.75 15.38,-116.5 144.62,-116.5 144.62,-138.75"/>
<text text-anchor="middle" x="80" y="-125.25" font-family="FreeSans" font-size="10.00">DGtal::ForwardCategory</text>
</a>
</g>
</g>
<!-- Node3&#45;&gt;Node2 -->
<g id="edge2_Node000002_Node000003" class="edge">
<title>Node3&#45;&gt;Node2</title>
<g id="a_edge2_Node000002_Node000003"><a xlink:title=" ">
<path fill="none" stroke="#63b8ff" d="M80,-104.6C80,-96.45 80,-87.58 80,-80.91"/>
<polygon fill="#63b8ff" stroke="#63b8ff" points="76.5,-104.53 80,-114.53 83.5,-104.53 76.5,-104.53"/>
</a>
</g>
</g>
</g>
</svg>
