<?xml version="1.0" encoding="UTF-8" standalone="no"?>
<!DOCTYPE svg PUBLIC "-//W3C//DTD SVG 1.1//EN"
 "http://www.w3.org/Graphics/SVG/1.1/DTD/svg11.dtd">
<!-- Generated by graphviz version 11.0.0 (0)
 -->
<!-- Title: DGtal::DrawableWithBoard2D Pages: 1 -->
<svg width="347pt" height="550pt"
 viewBox="0.00 0.00 346.75 550.25" xmlns="http://www.w3.org/2000/svg" xmlns:xlink="http://www.w3.org/1999/xlink">
<g id="graph0" class="graph" transform="scale(1 1) rotate(0) translate(4 546.25)">
<title>DGtal::DrawableWithBoard2D</title>
<!-- Node1 -->
<g id="Node000001" class="node">
<title>Node1</title>
<g id="a_Node000001"><a xlink:title=" ">
<polygon fill="#999999" stroke="#666666" points="154,-242.25 0,-242.25 0,-220 154,-220 154,-242.25"/>
<text text-anchor="middle" x="77" y="-228.75" font-family="FreeSans" font-size="10.00">DGtal::DrawableWithBoard2D</text>
</a>
</g>
</g>
<!-- Node2 -->
<g id="Node000002" class="node">
<title>Node2</title>
<g id="a_Node000002"><a xlink:href="structDGtal_1_1CustomColors.html" target="_top" xlink:title="Custom style class redefining the pen color and the fill color. You may use Board2D::Color::None for ...">
<polygon fill="white" stroke="#666666" points="320.75,-542.25 208,-542.25 208,-520 320.75,-520 320.75,-542.25"/>
<text text-anchor="middle" x="264.38" y="-528.75" font-family="FreeSans" font-size="10.00">DGtal::CustomColors</text>
</a>
</g>
</g>
<!-- Node1&#45;&gt;Node2 -->
<g id="edge1_Node000001_Node000002" class="edge">
<title>Node1&#45;&gt;Node2</title>
<g id="a_edge1_Node000001_Node000002"><a xlink:title=" ">
<path fill="none" stroke="#63b8ff" d="M80.28,-253.63C86.9,-306.72 110.95,-440.64 190,-511.12 195.12,-515.69 201.19,-519.23 207.61,-521.97"/>
<polygon fill="#63b8ff" stroke="#63b8ff" points="83.8,-253.53 79.18,-243.99 76.84,-254.32 83.8,-253.53"/>
</a>
</g>
</g>
<!-- Node3 -->
<g id="Node000003" class="node">
<title>Node3</title>
<g id="a_Node000003"><a xlink:href="structDGtal_1_1CustomFillColor.html" target="_top" xlink:title="Custom style class redefining the fill color. You may use Board2D::Color::None for transparent color.">
<polygon fill="white" stroke="#666666" points="324.5,-502.25 204.25,-502.25 204.25,-480 324.5,-480 324.5,-502.25"/>
<text text-anchor="middle" x="264.38" y="-488.75" font-family="FreeSans" font-size="10.00">DGtal::CustomFillColor</text>
</a>
</g>
</g>
<!-- Node1&#45;&gt;Node3 -->
<g id="edge2_Node000001_Node000003" class="edge">
<title>Node1&#45;&gt;Node3</title>
<g id="a_edge2_Node000001_Node000003"><a xlink:title=" ">
<path fill="none" stroke="#63b8ff" d="M82.01,-253.93C91.64,-301.69 120.6,-412.65 190,-471.12 194.14,-474.61 198.84,-477.5 203.8,-479.88"/>
<polygon fill="#63b8ff" stroke="#63b8ff" points="85.47,-253.38 80.16,-244.21 78.59,-254.68 85.47,-253.38"/>
</a>
</g>
</g>
<!-- Node4 -->
<g id="Node000004" class="node">
<title>Node4</title>
<g id="a_Node000004"><a xlink:href="structDGtal_1_1CustomPen.html" target="_top" xlink:title="Custom style class redefining the pen attributes. You may use Board2D::Color::None for transparent co...">
<polygon fill="white" stroke="#666666" points="315.12,-462.25 213.62,-462.25 213.62,-440 315.12,-440 315.12,-462.25"/>
<text text-anchor="middle" x="264.38" y="-448.75" font-family="FreeSans" font-size="10.00">DGtal::CustomPen</text>
</a>
</g>
</g>
<!-- Node1&#45;&gt;Node4 -->
<g id="edge3_Node000001_Node000004" class="edge">
<title>Node1&#45;&gt;Node4</title>
<g id="a_edge3_Node000001_Node000004"><a xlink:title=" ">
<path fill="none" stroke="#63b8ff" d="M84.2,-253.53C96.88,-295.06 129.78,-384.07 190,-431.12 196.87,-436.49 205.07,-440.42 213.46,-443.29"/>
<polygon fill="#63b8ff" stroke="#63b8ff" points="87.63,-252.77 81.46,-244.15 80.91,-254.73 87.63,-252.77"/>
</a>
</g>
</g>
<!-- Node5 -->
<g id="Node000005" class="node">
<title>Node5</title>
<g id="a_Node000005"><a xlink:href="structDGtal_1_1CustomPenColor.html" target="_top" xlink:title="Custom style class redefining the pen color. You may use Board2D::Color::None for transparent color.">
<polygon fill="white" stroke="#666666" points="327.5,-422.25 201.25,-422.25 201.25,-400 327.5,-400 327.5,-422.25"/>
<text text-anchor="middle" x="264.38" y="-408.75" font-family="FreeSans" font-size="10.00">DGtal::CustomPenColor</text>
</a>
</g>
</g>
<!-- Node1&#45;&gt;Node5 -->
<g id="edge4_Node000001_Node000005" class="edge">
<title>Node1&#45;&gt;Node5</title>
<g id="a_edge4_Node000001_Node000005"><a xlink:title=" ">
<path fill="none" stroke="#63b8ff" d="M87.21,-252.85C103.02,-287.49 138.67,-355.02 190,-391.12 194.75,-394.47 200.04,-397.25 205.53,-399.57"/>
<polygon fill="#63b8ff" stroke="#63b8ff" points="90.47,-251.57 83.22,-243.84 84.07,-254.4 90.47,-251.57"/>
</a>
</g>
</g>
<!-- Node6 -->
<g id="Node000006" class="node">
<title>Node6</title>
<g id="a_Node000006"><a xlink:title=" ">
<polygon fill="white" stroke="#666666" points="335.38,-382.25 193.38,-382.25 193.38,-360 335.38,-360 335.38,-382.25"/>
<text text-anchor="middle" x="264.38" y="-368.75" font-family="FreeSans" font-size="10.00">MyDomainStyleCustomRed</text>
</a>
</g>
</g>
<!-- Node1&#45;&gt;Node6 -->
<g id="edge5_Node000001_Node000006" class="edge">
<title>Node1&#45;&gt;Node6</title>
<g id="a_edge5_Node000001_Node000006"><a xlink:title=" ">
<path fill="none" stroke="#63b8ff" d="M91.82,-251.97C110.78,-278.91 147.38,-325.4 190,-351.12 195.54,-354.47 201.65,-357.26 207.9,-359.6"/>
<polygon fill="#63b8ff" stroke="#63b8ff" points="94.85,-250.2 86.3,-243.93 89.08,-254.16 94.85,-250.2"/>
</a>
</g>
</g>
<!-- Node7 -->
<g id="Node000007" class="node">
<title>Node7</title>
<g id="a_Node000007"><a xlink:title=" ">
<polygon fill="white" stroke="#666666" points="330.88,-342.25 197.88,-342.25 197.88,-320 330.88,-320 330.88,-342.25"/>
<text text-anchor="middle" x="264.38" y="-328.75" font-family="FreeSans" font-size="10.00">MyDrawStyleCustomBlue</text>
</a>
</g>
</g>
<!-- Node1&#45;&gt;Node7 -->
<g id="edge6_Node000001_Node000007" class="edge">
<title>Node1&#45;&gt;Node7</title>
<g id="a_edge6_Node000001_Node000007"><a xlink:title=" ">
<path fill="none" stroke="#63b8ff" d="M99.46,-250.02C120.99,-268.07 155.78,-294.88 190,-311.12 196.8,-314.35 204.21,-317.13 211.62,-319.51"/>
<polygon fill="#63b8ff" stroke="#63b8ff" points="101.85,-247.45 91.97,-243.62 97.3,-252.78 101.85,-247.45"/>
</a>
</g>
</g>
<!-- Node8 -->
<g id="Node000008" class="node">
<title>Node8</title>
<g id="a_Node000008"><a xlink:title=" ">
<polygon fill="white" stroke="#666666" points="332.75,-302.25 196,-302.25 196,-280 332.75,-280 332.75,-302.25"/>
<text text-anchor="middle" x="264.38" y="-288.75" font-family="FreeSans" font-size="10.00">MyDrawStyleCustomColor</text>
</a>
</g>
</g>
<!-- Node1&#45;&gt;Node8 -->
<g id="edge7_Node000001_Node000008" class="edge">
<title>Node1&#45;&gt;Node8</title>
<g id="a_edge7_Node000001_Node000008"><a xlink:title=" ">
<path fill="none" stroke="#63b8ff" d="M118.75,-246.53C139.88,-254.3 166.18,-263.64 190,-271.12 199.19,-274.02 209.11,-276.88 218.59,-279.51"/>
<polygon fill="#63b8ff" stroke="#63b8ff" points="120.22,-243.34 109.63,-243.15 117.79,-249.91 120.22,-243.34"/>
</a>
</g>
</g>
<!-- Node9 -->
<g id="Node000009" class="node">
<title>Node9</title>
<g id="a_Node000009"><a xlink:title=" ">
<polygon fill="white" stroke="#666666" points="338.75,-262.25 190,-262.25 190,-240 338.75,-240 338.75,-262.25"/>
<text text-anchor="middle" x="264.38" y="-248.75" font-family="FreeSans" font-size="10.00">MyDrawStyleCustomFillColor</text>
</a>
</g>
</g>
<!-- Node1&#45;&gt;Node9 -->
<g id="edge8_Node000001_Node000009" class="edge">
<title>Node1&#45;&gt;Node9</title>
<g id="a_edge8_Node000001_Node000009"><a xlink:title=" ">
<path fill="none" stroke="#63b8ff" d="M165.77,-240.59C173.8,-241.46 181.88,-242.33 189.77,-243.18"/>
<polygon fill="#63b8ff" stroke="#63b8ff" points="166.29,-237.13 155.97,-239.54 165.54,-244.09 166.29,-237.13"/>
</a>
</g>
</g>
<!-- Node10 -->
<g id="Node000010" class="node">
<title>Node10</title>
<g id="a_Node000010"><a xlink:title=" ">
<polygon fill="white" stroke="#666666" points="335,-222.25 193.75,-222.25 193.75,-200 335,-200 335,-222.25"/>
<text text-anchor="middle" x="264.38" y="-208.75" font-family="FreeSans" font-size="10.00">MyDrawStyleCustomGreen</text>
</a>
</g>
</g>
<!-- Node1&#45;&gt;Node10 -->
<g id="edge9_Node000001_Node000010" class="edge">
<title>Node1&#45;&gt;Node10</title>
<g id="a_edge9_Node000001_Node000010"><a xlink:title=" ">
<path fill="none" stroke="#63b8ff" d="M139.69,-218.07C156.89,-215.81 175.69,-213.73 193.33,-212.11"/>
<polygon fill="#63b8ff" stroke="#63b8ff" points="139.59,-214.55 130.15,-219.36 140.54,-221.48 139.59,-214.55"/>
</a>
</g>
</g>
<!-- Node1&#45;&gt;Node10 -->
<g id="edge10_Node000001_Node000010" class="edge">
<title>Node1&#45;&gt;Node10</title>
<g id="a_edge10_Node000001_Node000010"><a xlink:title=" ">
<path fill="none" stroke="#63b8ff" d="M165.55,-228.42C181.63,-226.74 197.92,-224.77 212.47,-222.72"/>
<polygon fill="#63b8ff" stroke="#63b8ff" points="165.58,-224.9 155.98,-229.38 166.27,-231.86 165.58,-224.9"/>
</a>
</g>
</g>
<!-- Node11 -->
<g id="Node000011" class="node">
<title>Node11</title>
<g id="a_Node000011"><a xlink:title=" ">
<polygon fill="white" stroke="#666666" points="329.38,-182.25 199.38,-182.25 199.38,-160 329.38,-160 329.38,-182.25"/>
<text text-anchor="middle" x="264.38" y="-168.75" font-family="FreeSans" font-size="10.00">MyDrawStyleCustomRed</text>
</a>
</g>
</g>
<!-- Node1&#45;&gt;Node11 -->
<g id="edge11_Node000001_Node000011" class="edge">
<title>Node1&#45;&gt;Node11</title>
<g id="a_edge11_Node000001_Node000011"><a xlink:title=" ">
<path fill="none" stroke="#63b8ff" d="M102.8,-214.6C125.37,-204.17 159.7,-191.65 190,-182.12 193.02,-181.17 196.12,-180.23 199.26,-179.3"/>
<polygon fill="#63b8ff" stroke="#63b8ff" points="101.53,-211.32 94.09,-218.86 104.61,-217.61 101.53,-211.32"/>
</a>
</g>
</g>
<!-- Node1&#45;&gt;Node11 -->
<g id="edge12_Node000001_Node000011" class="edge">
<title>Node1&#45;&gt;Node11</title>
<g id="a_edge12_Node000001_Node000011"><a xlink:title=" ">
<path fill="none" stroke="#63b8ff" d="M142.14,-216C157.72,-210.73 174.4,-205.03 190,-200.12 208.89,-194.19 230.84,-188.34 245.77,-182.71"/>
<polygon fill="#63b8ff" stroke="#63b8ff" points="141.35,-212.57 132.99,-219.07 143.58,-219.2 141.35,-212.57"/>
</a>
</g>
</g>
<!-- Node12 -->
<g id="Node000012" class="node">
<title>Node12</title>
<g id="a_Node000012"><a xlink:title=" ">
<polygon fill="white" stroke="#666666" points="323.38,-142.25 205.38,-142.25 205.38,-120 323.38,-120 323.38,-142.25"/>
<text text-anchor="middle" x="264.38" y="-128.75" font-family="FreeSans" font-size="10.00">MyObjectStyleCustom</text>
</a>
</g>
</g>
<!-- Node1&#45;&gt;Node12 -->
<g id="edge13_Node000001_Node000012" class="edge">
<title>Node1&#45;&gt;Node12</title>
<g id="a_edge13_Node000001_Node000012"><a xlink:title=" ">
<path fill="none" stroke="#63b8ff" d="M99.46,-212.23C120.99,-194.18 155.78,-167.37 190,-151.12 196.8,-147.9 204.21,-145.12 211.62,-142.74"/>
<polygon fill="#63b8ff" stroke="#63b8ff" points="97.3,-209.47 91.97,-218.63 101.85,-214.8 97.3,-209.47"/>
</a>
</g>
</g>
<!-- Node13 -->
<g id="Node000013" class="node">
<title>Node13</title>
<g id="a_Node000013"><a xlink:title=" ">
<polygon fill="white" stroke="#666666" points="332.38,-102.25 196.38,-102.25 196.38,-80 332.38,-80 332.38,-102.25"/>
<text text-anchor="middle" x="264.38" y="-88.75" font-family="FreeSans" font-size="10.00">MyObjectStyleCustomRed</text>
</a>
</g>
</g>
<!-- Node1&#45;&gt;Node13 -->
<g id="edge14_Node000001_Node000013" class="edge">
<title>Node1&#45;&gt;Node13</title>
<g id="a_edge14_Node000001_Node000013"><a xlink:title=" ">
<path fill="none" stroke="#63b8ff" d="M91.82,-210.28C110.78,-183.34 147.38,-136.85 190,-111.12 195.54,-107.78 201.65,-104.99 207.9,-102.65"/>
<polygon fill="#63b8ff" stroke="#63b8ff" points="89.08,-208.09 86.3,-218.32 94.85,-212.05 89.08,-208.09"/>
</a>
</g>
</g>
<!-- Node14 -->
<g id="Node000014" class="node">
<title>Node14</title>
<g id="a_Node000014"><a xlink:title=" ">
<polygon fill="white" stroke="#666666" points="308.38,-62.25 220.38,-62.25 220.38,-40 308.38,-40 308.38,-62.25"/>
<text text-anchor="middle" x="264.38" y="-48.75" font-family="FreeSans" font-size="10.00">MyStyleCustom</text>
</a>
</g>
</g>
<!-- Node1&#45;&gt;Node14 -->
<g id="edge15_Node000001_Node000014" class="edge">
<title>Node1&#45;&gt;Node14</title>
<g id="a_edge15_Node000001_Node000014"><a xlink:title=" ">
<path fill="none" stroke="#63b8ff" d="M87.21,-209.4C103.02,-174.76 138.67,-107.23 190,-71.12 198.85,-64.9 209.57,-60.6 220.03,-57.65"/>
<polygon fill="#63b8ff" stroke="#63b8ff" points="84.07,-207.85 83.22,-218.41 90.47,-210.68 84.07,-207.85"/>
</a>
</g>
</g>
<!-- Node15 -->
<g id="Node000015" class="node">
<title>Node15</title>
<g id="a_Node000015"><a xlink:title=" ">
<polygon fill="white" stroke="#666666" points="317.38,-22.25 211.38,-22.25 211.38,0 317.38,0 317.38,-22.25"/>
<text text-anchor="middle" x="264.38" y="-8.75" font-family="FreeSans" font-size="10.00">MyStyleCustomRed</text>
</a>
</g>
</g>
<!-- Node1&#45;&gt;Node15 -->
<g id="edge16_Node000001_Node000015" class="edge">
<title>Node1&#45;&gt;Node15</title>
<g id="a_edge16_Node000001_Node000015"><a xlink:title=" ">
<path fill="none" stroke="#63b8ff" d="M84.2,-208.72C96.88,-167.19 129.78,-78.18 190,-31.12 196.24,-26.25 203.59,-22.56 211.18,-19.77"/>
<polygon fill="#63b8ff" stroke="#63b8ff" points="80.91,-207.52 81.46,-218.1 87.63,-209.48 80.91,-207.52"/>
</a>
</g>
</g>
</g>
</svg>
