<?xml version="1.0" encoding="UTF-8" standalone="no"?>
<!DOCTYPE svg PUBLIC "-//W3C//DTD SVG 1.1//EN"
 "http://www.w3.org/Graphics/SVG/1.1/DTD/svg11.dtd">
<!-- Generated by graphviz version 11.0.0 (0)
 -->
<!-- Title: DGtal::NumberTraitsImpl&lt; T, Enable &gt; Pages: 1 -->
<svg width="928pt" height="161pt"
 viewBox="0.00 0.00 928.00 160.75" xmlns="http://www.w3.org/2000/svg" xmlns:xlink="http://www.w3.org/1999/xlink">
<g id="graph0" class="graph" transform="scale(1 1) rotate(0) translate(4 156.75)">
<title>DGtal::NumberTraitsImpl&lt; T, Enable &gt;</title>
<!-- Node1 -->
<g id="Node000001" class="node">
<title>Node1</title>
<g id="a_Node000001"><a xlink:title="Aim: The traits class for all models of Cinteger (implementation)">
<polygon fill="#999999" stroke="#666666" points="133,-93.62 0,-93.62 0,-57.12 133,-57.12 133,-93.62"/>
<text text-anchor="start" x="8" y="-80.12" font-family="FreeSans" font-size="10.00">DGtal::NumberTraitsImpl</text>
<text text-anchor="middle" x="66.5" y="-65.88" font-family="FreeSans" font-size="10.00">&lt; T, Enable &gt;</text>
</a>
</g>
</g>
<!-- Node2 -->
<g id="Node000002" class="node">
<title>Node2</title>
<g id="a_Node000002"><a xlink:href="structDGtal_1_1NumberTraitsImpl.html" target="_top" xlink:title=" ">
<polygon fill="white" stroke="#666666" points="409.25,-93.62 276.25,-93.62 276.25,-57.12 409.25,-57.12 409.25,-93.62"/>
<text text-anchor="start" x="284.25" y="-80.12" font-family="FreeSans" font-size="10.00">DGtal::NumberTraitsImpl</text>
<text text-anchor="middle" x="342.75" y="-65.88" font-family="FreeSans" font-size="10.00">&lt; std::decay&lt; T &gt;::type &gt;</text>
</a>
</g>
</g>
<!-- Node1&#45;&gt;Node2 -->
<g id="edge1_Node000001_Node000002" class="edge">
<title>Node1&#45;&gt;Node2</title>
<g id="a_edge1_Node000001_Node000002"><a xlink:title=" ">
<path fill="none" stroke="orange" stroke-dasharray="5,2" d="M144.62,-75.38C186.05,-75.38 236.59,-75.38 276.12,-75.38"/>
<polygon fill="orange" stroke="orange" points="144.7,-71.88 134.7,-75.38 144.7,-78.88 144.7,-71.88"/>
</a>
</g>
<text text-anchor="start" x="161.88" y="-94.38" font-family="FreeSans" font-size="10.00" fill="grey"> &lt; std::decay&lt; T &gt;::</text>
<text text-anchor="middle" x="204.62" y="-80.12" font-family="FreeSans" font-size="10.00" fill="grey">type &gt;</text>
</g>
<!-- Node6 -->
<g id="Node000006" class="node">
<title>Node6</title>
<g id="a_Node000006"><a xlink:href="structDGtal_1_1NumberTraitsImpl.html" target="_top" xlink:title=" ">
<polygon fill="white" stroke="#666666" points="560.25,-152.75 427.25,-152.75 427.25,-102 560.25,-102 560.25,-152.75"/>
<text text-anchor="start" x="435.25" y="-139.25" font-family="FreeSans" font-size="10.00">DGtal::NumberTraitsImpl</text>
<text text-anchor="start" x="435.25" y="-125" font-family="FreeSans" font-size="10.00">&lt; std::decay&lt; Integer</text>
<text text-anchor="middle" x="493.75" y="-110.75" font-family="FreeSans" font-size="10.00"> &gt;::type &gt;</text>
</a>
</g>
</g>
<!-- Node1&#45;&gt;Node6 -->
<g id="edge5_Node000001_Node000006" class="edge">
<title>Node1&#45;&gt;Node6</title>
<g id="a_edge5_Node000001_Node000006"><a xlink:title=" ">
<path fill="none" stroke="orange" stroke-dasharray="5,2" d="M122.98,-97.74C132.21,-100.75 141.79,-103.46 151,-105.38 245.45,-124.97 357.46,-128.57 426.82,-128.57"/>
<polygon fill="orange" stroke="orange" points="124.36,-94.51 113.77,-94.58 122.09,-101.14 124.36,-94.51"/>
</a>
</g>
<text text-anchor="start" x="153.62" y="-139.38" font-family="FreeSans" font-size="10.00" fill="grey"> &lt; std::decay&lt; Integer</text>
<text text-anchor="middle" x="204.62" y="-125.12" font-family="FreeSans" font-size="10.00" fill="grey"> &gt;::type &gt;</text>
</g>
<!-- Node7 -->
<g id="Node000007" class="node">
<title>Node7</title>
<g id="a_Node000007"><a xlink:href="structDGtal_1_1NumberTraitsImpl.html" target="_top" xlink:title=" ">
<polygon fill="white" stroke="#666666" points="560.25,-50.75 427.25,-50.75 427.25,0 560.25,0 560.25,-50.75"/>
<text text-anchor="start" x="435.25" y="-37.25" font-family="FreeSans" font-size="10.00">DGtal::NumberTraitsImpl</text>
<text text-anchor="start" x="435.25" y="-23" font-family="FreeSans" font-size="10.00">&lt; std::decay&lt; TInteger</text>
<text text-anchor="middle" x="493.75" y="-8.75" font-family="FreeSans" font-size="10.00"> &gt;::type &gt;</text>
</a>
</g>
</g>
<!-- Node1&#45;&gt;Node7 -->
<g id="edge7_Node000001_Node000007" class="edge">
<title>Node1&#45;&gt;Node7</title>
<g id="a_edge7_Node000001_Node000007"><a xlink:title=" ">
<path fill="none" stroke="orange" stroke-dasharray="5,2" d="M118.6,-52.53C129.12,-48.67 140.28,-45.17 151,-42.88 245.4,-22.64 357.65,-21.04 427.06,-22.58"/>
<polygon fill="orange" stroke="orange" points="117.38,-49.25 109.3,-56.11 119.89,-55.78 117.38,-49.25"/>
</a>
</g>
<text text-anchor="start" x="151" y="-61.38" font-family="FreeSans" font-size="10.00" fill="grey"> &lt; std::decay&lt; TInteger</text>
<text text-anchor="middle" x="204.62" y="-47.12" font-family="FreeSans" font-size="10.00" fill="grey"> &gt;::type &gt;</text>
</g>
<!-- Node3 -->
<g id="Node000003" class="node">
<title>Node3</title>
<g id="a_Node000003"><a xlink:href="structDGtal_1_1NumberTraits.html" target="_top" xlink:title="Aim: The traits class for all models of Cinteger.">
<polygon fill="white" stroke="#666666" points="712,-86.5 578.25,-86.5 578.25,-64.25 712,-64.25 712,-86.5"/>
<text text-anchor="middle" x="645.12" y="-73" font-family="FreeSans" font-size="10.00">DGtal::NumberTraits&lt; T &gt;</text>
</a>
</g>
</g>
<!-- Node2&#45;&gt;Node3 -->
<g id="edge2_Node000002_Node000003" class="edge">
<title>Node2&#45;&gt;Node3</title>
<g id="a_edge2_Node000002_Node000003"><a xlink:title=" ">
<path fill="none" stroke="#63b8ff" d="M421.07,-75.38C469.61,-75.38 531.55,-75.38 577.84,-75.38"/>
<polygon fill="#63b8ff" stroke="#63b8ff" points="421.18,-71.88 411.18,-75.38 421.18,-78.88 421.18,-71.88"/>
</a>
</g>
</g>
<!-- Node4 -->
<g id="Node000004" class="node">
<title>Node4</title>
<g id="a_Node000004"><a xlink:href="structDGtal_1_1NumberTraits.html" target="_top" xlink:title=" ">
<polygon fill="white" stroke="#666666" points="920,-128.62 808,-128.62 808,-92.12 920,-92.12 920,-128.62"/>
<text text-anchor="start" x="816" y="-115.12" font-family="FreeSans" font-size="10.00">DGtal::NumberTraits</text>
<text text-anchor="middle" x="864" y="-100.88" font-family="FreeSans" font-size="10.00">&lt; Integer &gt;</text>
</a>
</g>
</g>
<!-- Node3&#45;&gt;Node4 -->
<g id="edge3_Node000003_Node000004" class="edge">
<title>Node3&#45;&gt;Node4</title>
<g id="a_edge3_Node000003_Node000004"><a xlink:title=" ">
<path fill="none" stroke="orange" stroke-dasharray="5,2" d="M723.67,-87.89C751.46,-92.37 782.21,-97.34 807.73,-101.46"/>
<polygon fill="orange" stroke="orange" points="724.3,-84.45 713.87,-86.31 723.18,-91.36 724.3,-84.45"/>
</a>
</g>
<text text-anchor="middle" x="760" y="-102.12" font-family="FreeSans" font-size="10.00" fill="grey"> &lt; Integer &gt;</text>
</g>
<!-- Node5 -->
<g id="Node000005" class="node">
<title>Node5</title>
<g id="a_Node000005"><a xlink:href="structDGtal_1_1NumberTraits.html" target="_top" xlink:title=" ">
<polygon fill="white" stroke="#666666" points="920,-66.62 808,-66.62 808,-30.12 920,-30.12 920,-66.62"/>
<text text-anchor="start" x="816" y="-53.12" font-family="FreeSans" font-size="10.00">DGtal::NumberTraits</text>
<text text-anchor="middle" x="864" y="-38.88" font-family="FreeSans" font-size="10.00">&lt; TInteger &gt;</text>
</a>
</g>
</g>
<!-- Node3&#45;&gt;Node5 -->
<g id="edge4_Node000003_Node000005" class="edge">
<title>Node3&#45;&gt;Node5</title>
<g id="a_edge4_Node000003_Node000005"><a xlink:title=" ">
<path fill="none" stroke="orange" stroke-dasharray="5,2" d="M723.78,-62.96C725.88,-62.67 727.95,-62.39 730,-62.12 755.43,-58.8 783.69,-55.79 807.6,-53.43"/>
<polygon fill="orange" stroke="orange" points="723.37,-59.48 713.96,-64.35 724.35,-66.41 723.37,-59.48"/>
</a>
</g>
<text text-anchor="middle" x="760" y="-66.12" font-family="FreeSans" font-size="10.00" fill="grey"> &lt; TInteger &gt;</text>
</g>
<!-- Node6&#45;&gt;Node4 -->
<g id="edge6_Node000006_Node000004" class="edge">
<title>Node6&#45;&gt;Node4</title>
<g id="a_edge6_Node000006_Node000004"><a xlink:title=" ">
<path fill="none" stroke="#63b8ff" d="M572.05,-123.81C642.56,-120.55 745.01,-115.82 807.65,-112.93"/>
<polygon fill="#63b8ff" stroke="#63b8ff" points="571.93,-120.31 562.1,-124.27 572.25,-127.3 571.93,-120.31"/>
</a>
</g>
</g>
<!-- Node7&#45;&gt;Node5 -->
<g id="edge8_Node000007_Node000005" class="edge">
<title>Node7&#45;&gt;Node5</title>
<g id="a_edge8_Node000007_Node000005"><a xlink:title=" ">
<path fill="none" stroke="#63b8ff" d="M572.05,-30.2C642.56,-34.61 745.01,-41.01 807.65,-44.92"/>
<polygon fill="#63b8ff" stroke="#63b8ff" points="572.3,-26.71 562.1,-29.58 571.86,-33.7 572.3,-26.71"/>
</a>
</g>
</g>
</g>
</svg>
