<?xml version="1.0" encoding="UTF-8" standalone="no"?>
<!DOCTYPE svg PUBLIC "-//W3C//DTD SVG 1.1//EN"
 "http://www.w3.org/Graphics/SVG/1.1/DTD/svg11.dtd">
<!-- Generated by graphviz version 11.0.0 (0)
 -->
<!-- Title: DGtal::functors::FalsePointPredicate&lt; TPoint &gt; Pages: 1 -->
<svg width="153pt" height="232pt"
 viewBox="0.00 0.00 153.25 232.25" xmlns="http://www.w3.org/2000/svg" xmlns:xlink="http://www.w3.org/1999/xlink">
<g id="graph0" class="graph" transform="scale(1 1) rotate(0) translate(4 228.25)">
<title>DGtal::functors::FalsePointPredicate&lt; TPoint &gt;</title>
<!-- Node1 -->
<g id="Node000001" class="node">
<title>Node1</title>
<g id="a_Node000001"><a xlink:title="Aim: The predicate that returns always false.">
<polygon fill="#999999" stroke="#666666" points="140.5,-36.5 0,-36.5 0,0 140.5,0 140.5,-36.5"/>
<text text-anchor="start" x="8" y="-23" font-family="FreeSans" font-size="10.00">DGtal::functors::FalsePoint</text>
<text text-anchor="middle" x="70.25" y="-8.75" font-family="FreeSans" font-size="10.00">Predicate&lt; TPoint &gt;</text>
</a>
</g>
</g>
<!-- Node2 -->
<g id="Node000002" class="node">
<title>Node2</title>
<g id="a_Node000002"><a xlink:href="structDGtal_1_1functors_1_1ConstantPointPredicate.html" target="_top" xlink:title=" ">
<polygon fill="white" stroke="#666666" points="137.5,-123.25 3,-123.25 3,-72.5 137.5,-72.5 137.5,-123.25"/>
<text text-anchor="start" x="11" y="-109.75" font-family="FreeSans" font-size="10.00">DGtal::functors::Constant</text>
<text text-anchor="start" x="11" y="-95.5" font-family="FreeSans" font-size="10.00">PointPredicate&lt; TPoint,</text>
<text text-anchor="middle" x="70.25" y="-81.25" font-family="FreeSans" font-size="10.00"> false &gt;</text>
</a>
</g>
</g>
<!-- Node2&#45;&gt;Node1 -->
<g id="edge1_Node000001_Node000002" class="edge">
<title>Node2&#45;&gt;Node1</title>
<g id="a_edge1_Node000001_Node000002"><a xlink:title=" ">
<path fill="none" stroke="#63b8ff" d="M70.25,-61.07C70.25,-52.62 70.25,-43.98 70.25,-36.77"/>
<polygon fill="#63b8ff" stroke="#63b8ff" points="66.75,-60.8 70.25,-70.8 73.75,-60.8 66.75,-60.8"/>
</a>
</g>
</g>
<!-- Node3 -->
<g id="Node000003" class="node">
<title>Node3</title>
<g id="a_Node000003"><a xlink:href="structDGtal_1_1functors_1_1ConstantPointPredicate.html" target="_top" xlink:title="Aim: The predicate that returns always the same value boolCst.">
<polygon fill="white" stroke="#666666" points="137.5,-224.25 3,-224.25 3,-173.5 137.5,-173.5 137.5,-224.25"/>
<text text-anchor="start" x="11" y="-210.75" font-family="FreeSans" font-size="10.00">DGtal::functors::Constant</text>
<text text-anchor="start" x="11" y="-196.5" font-family="FreeSans" font-size="10.00">PointPredicate&lt; TPoint,</text>
<text text-anchor="middle" x="70.25" y="-182.25" font-family="FreeSans" font-size="10.00"> boolCst &gt;</text>
</a>
</g>
</g>
<!-- Node3&#45;&gt;Node2 -->
<g id="edge2_Node000002_Node000003" class="edge">
<title>Node3&#45;&gt;Node2</title>
<g id="a_edge2_Node000002_Node000003"><a xlink:title=" ">
<path fill="none" stroke="orange" stroke-dasharray="5,2" d="M70.25,-161.94C70.25,-149.22 70.25,-135.21 70.25,-123.63"/>
<polygon fill="orange" stroke="orange" points="66.75,-161.63 70.25,-171.63 73.75,-161.63 66.75,-161.63"/>
</a>
</g>
<text text-anchor="middle" x="107.75" y="-146" font-family="FreeSans" font-size="10.00" fill="grey"> &lt; TPoint, false &gt;</text>
</g>
</g>
</svg>
