<?xml version="1.0" encoding="UTF-8" standalone="no"?>
<!DOCTYPE svg PUBLIC "-//W3C//DTD SVG 1.1//EN"
 "http://www.w3.org/Graphics/SVG/1.1/DTD/svg11.dtd">
<!-- Generated by graphviz version 11.0.0 (0)
 -->
<!-- Title: DGtal::concepts::CConstBidirectionalRangeFromPoint&lt; T &gt; Pages: 1 -->
<svg width="193pt" height="262pt"
 viewBox="0.00 0.00 192.75 262.00" xmlns="http://www.w3.org/2000/svg" xmlns:xlink="http://www.w3.org/1999/xlink">
<g id="graph0" class="graph" transform="scale(1 1) rotate(0) translate(4 258)">
<title>DGtal::concepts::CConstBidirectionalRangeFromPoint&lt; T &gt;</title>
<!-- Node1 -->
<g id="Node000001" class="node">
<title>Node1</title>
<g id="a_Node000001"><a xlink:title="Aim: refined concept of const bidirectional range with a begin() method from a point.">
<polygon fill="#999999" stroke="#666666" points="184.75,-109 0,-109 0,-72.5 184.75,-72.5 184.75,-109"/>
<text text-anchor="start" x="8" y="-95.5" font-family="FreeSans" font-size="10.00">DGtal::concepts::CConstBidirectional</text>
<text text-anchor="middle" x="92.38" y="-81.25" font-family="FreeSans" font-size="10.00">RangeFromPoint&lt; T &gt;</text>
</a>
</g>
</g>
<!-- Node4 -->
<g id="Node000004" class="node">
<title>Node4</title>
<g id="a_Node000004"><a xlink:href="structDGtal_1_1concepts_1_1CBidirectionalRangeFromPoint.html" target="_top" xlink:title="Aim: refined concept of single pass range with a begin() method from a point.">
<polygon fill="white" stroke="#666666" points="171.62,-36.5 13.12,-36.5 13.12,0 171.62,0 171.62,-36.5"/>
<text text-anchor="start" x="21.12" y="-23" font-family="FreeSans" font-size="10.00">DGtal::concepts::CBidirectional</text>
<text text-anchor="middle" x="92.38" y="-8.75" font-family="FreeSans" font-size="10.00">RangeFromPoint&lt; T &gt;</text>
</a>
</g>
</g>
<!-- Node1&#45;&gt;Node4 -->
<g id="edge3_Node000001_Node000004" class="edge">
<title>Node1&#45;&gt;Node4</title>
<g id="a_edge3_Node000001_Node000004"><a xlink:title=" ">
<path fill="none" stroke="#63b8ff" d="M92.38,-60.97C92.38,-52.84 92.38,-44.23 92.38,-36.97"/>
<polygon fill="#63b8ff" stroke="#63b8ff" points="88.88,-60.81 92.38,-70.81 95.88,-60.81 88.88,-60.81"/>
</a>
</g>
</g>
<!-- Node2 -->
<g id="Node000002" class="node">
<title>Node2</title>
<g id="a_Node000002"><a xlink:href="structDGtal_1_1concepts_1_1CConstBidirectionalRange.html" target="_top" xlink:title="Aim: Defines the concept describing a bidirectional const range.">
<polygon fill="white" stroke="#666666" points="184.75,-181.5 0,-181.5 0,-145 184.75,-145 184.75,-181.5"/>
<text text-anchor="start" x="8" y="-168" font-family="FreeSans" font-size="10.00">DGtal::concepts::CConstBidirectional</text>
<text text-anchor="middle" x="92.38" y="-153.75" font-family="FreeSans" font-size="10.00">Range&lt; T &gt;</text>
</a>
</g>
</g>
<!-- Node2&#45;&gt;Node1 -->
<g id="edge1_Node000001_Node000002" class="edge">
<title>Node2&#45;&gt;Node1</title>
<g id="a_edge1_Node000001_Node000002"><a xlink:title=" ">
<path fill="none" stroke="#63b8ff" d="M92.38,-133.47C92.38,-125.34 92.38,-116.73 92.38,-109.47"/>
<polygon fill="#63b8ff" stroke="#63b8ff" points="88.88,-133.31 92.38,-143.31 95.88,-133.31 88.88,-133.31"/>
</a>
</g>
</g>
<!-- Node3 -->
<g id="Node000003" class="node">
<title>Node3</title>
<g id="a_Node000003"><a xlink:href="structDGtal_1_1concepts_1_1CConstSinglePassRange.html" target="_top" xlink:title="Aim: Defines the concept describing a const single pass range.">
<polygon fill="white" stroke="#666666" points="170.12,-254 14.62,-254 14.62,-217.5 170.12,-217.5 170.12,-254"/>
<text text-anchor="start" x="22.62" y="-240.5" font-family="FreeSans" font-size="10.00">DGtal::concepts::CConstSingle</text>
<text text-anchor="middle" x="92.38" y="-226.25" font-family="FreeSans" font-size="10.00">PassRange&lt; T &gt;</text>
</a>
</g>
</g>
<!-- Node3&#45;&gt;Node2 -->
<g id="edge2_Node000002_Node000003" class="edge">
<title>Node3&#45;&gt;Node2</title>
<g id="a_edge2_Node000002_Node000003"><a xlink:title=" ">
<path fill="none" stroke="#63b8ff" d="M92.38,-205.97C92.38,-197.84 92.38,-189.23 92.38,-181.97"/>
<polygon fill="#63b8ff" stroke="#63b8ff" points="88.88,-205.81 92.38,-215.81 95.88,-205.81 88.88,-205.81"/>
</a>
</g>
</g>
</g>
</svg>
