<?xml version="1.0" encoding="UTF-8" standalone="no"?>
<!DOCTYPE svg PUBLIC "-//W3C//DTD SVG 1.1//EN"
 "http://www.w3.org/Graphics/SVG/1.1/DTD/svg11.dtd">
<!-- Generated by graphviz version 11.0.0 (0)
 -->
<!-- Title: LibBoard::ShapeList Pages: 1 -->
<svg width="210pt" height="205pt"
 viewBox="0.00 0.00 209.75 205.00" xmlns="http://www.w3.org/2000/svg" xmlns:xlink="http://www.w3.org/1999/xlink">

<svg id="main" version="1.1" xmlns="http://www.w3.org/2000/svg" xmlns:xlink="http://www.w3.org/1999/xlink" xml:space="preserve" onload="init(evt)">
<style type="text/css"><![CDATA[
.node, .edge {opacity: 0.7;}
.node.selected, .edge.selected {opacity: 1;}
.edge:hover path { stroke: red; }
.edge:hover polygon { stroke: red; fill: red; }
]]></style>
<script type="application/ecmascript" xlink:href="svg.min.js"/>
<svg id="graph" class="graph">
<g id="graph0" class="graph" transform="scale(1 1) rotate(0) translate(4 201)">
<title>LibBoard::ShapeList</title>
<!-- Node1 -->
<g id="Node000001" class="node">
<title>Node1</title>
<g id="a_Node000001"><a xlink:title="A group of shapes.">
<polygon fill="#999999" stroke="#666666" points="154.25,-138.75 46.75,-138.75 46.75,-116.5 154.25,-116.5 154.25,-138.75"/>
<text text-anchor="middle" x="100.5" y="-125.25" font-family="FreeSans" font-size="10.00">LibBoard::ShapeList</text>
</a>
</g>
</g>
<!-- Node3 -->
<g id="Node000003" class="node">
<title>Node3</title>
<g id="a_Node000003"><a xlink:href="classLibBoard_1_1Board.html" target="_top" xlink:title="Class for EPS, FIG or SVG drawings.">
<polygon fill="white" stroke="#666666" points="91,-80.5 0,-80.5 0,-58.25 91,-58.25 91,-80.5"/>
<text text-anchor="middle" x="45.5" y="-67" font-family="FreeSans" font-size="10.00">LibBoard::Board</text>
</a>
</g>
</g>
<!-- Node1&#45;&gt;Node3 -->
<g id="edge2_Node000001_Node000003" class="edge">
<title>Node1&#45;&gt;Node3</title>
<g id="a_edge2_Node000001_Node000003"><a xlink:title=" ">
<path fill="none" stroke="#63b8ff" d="M82.29,-108C73.49,-99 63.24,-88.52 55.8,-80.91"/>
<polygon fill="#63b8ff" stroke="#63b8ff" points="79.6,-110.26 89.1,-114.96 84.61,-105.37 79.6,-110.26"/>
</a>
</g>
</g>
<!-- Node5 -->
<g id="Node000005" class="node">
<title>Node5</title>
<g id="a_Node000005"><a xlink:href="structLibBoard_1_1Group.html" target="_top" xlink:title="A group of shapes. A group is basically a ShapeList except that when rendered in either an SVG of a F...">
<polygon fill="white" stroke="#666666" points="201.75,-80.5 109.25,-80.5 109.25,-58.25 201.75,-58.25 201.75,-80.5"/>
<text text-anchor="middle" x="155.5" y="-67" font-family="FreeSans" font-size="10.00">LibBoard::Group</text>
</a>
</g>
</g>
<!-- Node1&#45;&gt;Node5 -->
<g id="edge4_Node000001_Node000005" class="edge">
<title>Node1&#45;&gt;Node5</title>
<g id="a_edge4_Node000001_Node000005"><a xlink:title=" ">
<path fill="none" stroke="#63b8ff" d="M118.71,-108C127.51,-99 137.76,-88.52 145.2,-80.91"/>
<polygon fill="#63b8ff" stroke="#63b8ff" points="116.39,-105.37 111.9,-114.96 121.4,-110.26 116.39,-105.37"/>
</a>
</g>
</g>
<!-- Node2 -->
<g id="Node000002" class="node">
<title>Node2</title>
<g id="a_Node000002"><a xlink:href="structLibBoard_1_1Shape.html" target="_top" xlink:title="Abstract structure for a 2D shape.">
<polygon fill="white" stroke="#666666" points="146.38,-197 54.62,-197 54.62,-174.75 146.38,-174.75 146.38,-197"/>
<text text-anchor="middle" x="100.5" y="-183.5" font-family="FreeSans" font-size="10.00">LibBoard::Shape</text>
</a>
</g>
</g>
<!-- Node2&#45;&gt;Node1 -->
<g id="edge1_Node000001_Node000002" class="edge">
<title>Node2&#45;&gt;Node1</title>
<g id="a_edge1_Node000001_Node000002"><a xlink:title=" ">
<path fill="none" stroke="#63b8ff" d="M100.5,-162.85C100.5,-154.7 100.5,-145.83 100.5,-139.16"/>
<polygon fill="#63b8ff" stroke="#63b8ff" points="97,-162.78 100.5,-172.78 104,-162.78 97,-162.78"/>
</a>
</g>
</g>
<!-- Node4 -->
<g id="Node000004" class="node">
<title>Node4</title>
<g id="a_Node000004"><a xlink:href="classDGtal_1_1Board2D.html" target="_top" xlink:title="Aim: This class specializes a &#39;Board&#39; class so as to display DGtal objects more naturally (with &lt;&lt;)....">
<polygon fill="white" stroke="#666666" points="90.25,-22.25 0.75,-22.25 0.75,0 90.25,0 90.25,-22.25"/>
<text text-anchor="middle" x="45.5" y="-8.75" font-family="FreeSans" font-size="10.00">DGtal::Board2D</text>
</a>
</g>
</g>
<!-- Node3&#45;&gt;Node4 -->
<g id="edge3_Node000003_Node000004" class="edge">
<title>Node3&#45;&gt;Node4</title>
<g id="a_edge3_Node000003_Node000004"><a xlink:title=" ">
<path fill="none" stroke="#63b8ff" d="M45.5,-46.35C45.5,-38.2 45.5,-29.33 45.5,-22.66"/>
<polygon fill="#63b8ff" stroke="#63b8ff" points="42,-46.28 45.5,-56.28 49,-46.28 42,-46.28"/>
</a>
</g>
</g>
</g>
</svg>
</svg>

<style type='text/css'>
<![CDATA[
[data-mouse-over-selected='false'] { opacity: 0.7; }
[data-mouse-over-selected='true']  { opacity: 1.0; }
]]>
</style>
<script type="application/ecmascript"><![CDATA[
document.addEventListener('DOMContentLoaded', (event) => {
  highlightEdges();
  highlightAdjacentNodes();
});
]]></script>
</svg>
