<?xml version="1.0" encoding="UTF-8" standalone="no"?>
<!DOCTYPE svg PUBLIC "-//W3C//DTD SVG 1.1//EN"
 "http://www.w3.org/Graphics/SVG/1.1/DTD/svg11.dtd">
<!-- Generated by graphviz version 11.0.0 (0)
 -->
<!-- Title: DGtal::concepts::CSegmentComputerEstimator&lt; T &gt; Pages: 1 -->
<svg width="342pt" height="124pt"
 viewBox="0.00 0.00 342.25 124.38" xmlns="http://www.w3.org/2000/svg" xmlns:xlink="http://www.w3.org/1999/xlink">
<g id="graph0" class="graph" transform="scale(1 1) rotate(0) translate(4 120.38)">
<title>DGtal::concepts::CSegmentComputerEstimator&lt; T &gt;</title>
<!-- Node1 -->
<g id="Node000001" class="node">
<title>Node1</title>
<g id="a_Node000001"><a xlink:title="Aim: This concept is a refinement of CCurveLocalGeometricEstimator devoted to the estimation of a geo...">
<polygon fill="#999999" stroke="#666666" points="334.25,-69.38 190.75,-69.38 190.75,-32.88 334.25,-32.88 334.25,-69.38"/>
<text text-anchor="start" x="198.75" y="-55.88" font-family="FreeSans" font-size="10.00">DGtal::concepts::CSegment</text>
<text text-anchor="middle" x="262.5" y="-41.62" font-family="FreeSans" font-size="10.00">ComputerEstimator&lt; T &gt;</text>
</a>
</g>
</g>
<!-- Node2 -->
<g id="Node000002" class="node">
<title>Node2</title>
<g id="a_Node000002"><a xlink:href="structDGtal_1_1concepts_1_1CCurveLocalGeometricEstimator.html" target="_top" xlink:title="Aim: This concept describes an object that can process a range so as to return one estimated quantity...">
<polygon fill="white" stroke="#666666" points="153.62,-116.38 1.12,-116.38 1.12,-79.88 153.62,-79.88 153.62,-116.38"/>
<text text-anchor="start" x="9.12" y="-102.88" font-family="FreeSans" font-size="10.00">DGtal::concepts::CCurveLocal</text>
<text text-anchor="middle" x="77.38" y="-88.62" font-family="FreeSans" font-size="10.00">GeometricEstimator&lt; T &gt;</text>
</a>
</g>
</g>
<!-- Node2&#45;&gt;Node1 -->
<g id="edge1_Node000001_Node000002" class="edge">
<title>Node2&#45;&gt;Node1</title>
<g id="a_edge1_Node000001_Node000002"><a xlink:title=" ">
<path fill="none" stroke="#63b8ff" d="M162.23,-76.6C171.63,-74.19 181.13,-71.75 190.34,-69.39"/>
<polygon fill="#63b8ff" stroke="#63b8ff" points="161.56,-73.16 152.74,-79.04 163.3,-79.94 161.56,-73.16"/>
</a>
</g>
</g>
<!-- Node3 -->
<g id="Node000003" class="node">
<title>Node3</title>
<g id="a_Node000003"><a xlink:href="structboost_1_1CopyConstructible.html" target="_top" xlink:title="Go to http://www.sgi.com/tech/stl/CopyConstructible.html.">
<polygon fill="white" stroke="#666666" points="154.75,-62.25 0,-62.25 0,-40 154.75,-40 154.75,-62.25"/>
<text text-anchor="middle" x="77.38" y="-48.75" font-family="FreeSans" font-size="10.00">boost::CopyConstructible&lt; T &gt;</text>
</a>
</g>
</g>
<!-- Node3&#45;&gt;Node1 -->
<g id="edge2_Node000001_Node000003" class="edge">
<title>Node3&#45;&gt;Node1</title>
<g id="a_edge2_Node000001_Node000003"><a xlink:title=" ">
<path fill="none" stroke="#63b8ff" d="M166.51,-51.12C174.51,-51.12 182.55,-51.12 190.38,-51.12"/>
<polygon fill="#63b8ff" stroke="#63b8ff" points="166.75,-47.63 156.75,-51.13 166.75,-54.63 166.75,-47.63"/>
</a>
</g>
</g>
<!-- Node4 -->
<g id="Node000004" class="node">
<title>Node4</title>
<g id="a_Node000004"><a xlink:href="structboost_1_1Assignable.html" target="_top" xlink:title="Go to http://www.sgi.com/tech/stl/Assignable.html.">
<polygon fill="white" stroke="#666666" points="137.12,-22.25 17.62,-22.25 17.62,0 137.12,0 137.12,-22.25"/>
<text text-anchor="middle" x="77.38" y="-8.75" font-family="FreeSans" font-size="10.00">boost::Assignable&lt; T &gt;</text>
</a>
</g>
</g>
<!-- Node4&#45;&gt;Node1 -->
<g id="edge3_Node000001_Node000004" class="edge">
<title>Node4&#45;&gt;Node1</title>
<g id="a_edge3_Node000001_Node000004"><a xlink:title=" ">
<path fill="none" stroke="#63b8ff" d="M142.37,-25.1C157.84,-28.48 174.47,-32.12 190.25,-35.56"/>
<polygon fill="#63b8ff" stroke="#63b8ff" points="143.34,-21.73 132.82,-23.02 141.84,-28.57 143.34,-21.73"/>
</a>
</g>
</g>
</g>
</svg>
