<?xml version="1.0" encoding="UTF-8" standalone="no"?>
<!DOCTYPE svg PUBLIC "-//W3C//DTD SVG 1.1//EN"
 "http://www.w3.org/Graphics/SVG/1.1/DTD/svg11.dtd">
<!-- Generated by graphviz version 11.0.0 (0)
 -->
<!-- Title: DGtal::UniqueAssociativeCategory Pages: 1 -->
<!--zoomable 179 -->

<svg id="main" version="1.1" xmlns="http://www.w3.org/2000/svg" xmlns:xlink="http://www.w3.org/1999/xlink" xml:space="preserve" onload="init(evt)">
<style type="text/css"><![CDATA[
.node, .edge {opacity: 0.7;}
.node.selected, .edge.selected {opacity: 1;}
.edge:hover path { stroke: red; }
.edge:hover polygon { stroke: red; fill: red; }
]]></style>

<defs>
  <circle id="rim" cx="0" cy="0" r="7"/>
  <circle id="rim2" cx="0" cy="0" r="3.5"/>
  <g id="zoomPlus">
    <use xlink:href="#rim" fill="#404040"><set attributeName="fill" to="#808080" begin="zoomplus.mouseover" end="zoomplus.mouseout"/></use>
    <path d="M-4,0h8M0,-4v8" fill="none" stroke="white" stroke-width="1.5" pointer-events="none"/>
  </g>
  <g id="zoomMin">
    <use xlink:href="#rim" fill="#404040"><set attributeName="fill" to="#808080" begin="zoomminus.mouseover" end="zoomminus.mouseout"/></use>
    <path d="M-4,0h8" fill="none" stroke="white" stroke-width="1.5" pointer-events="none"/>
  </g>
  <g id="arrowUp" transform="translate(30 24)">
    <use xlink:href="#rim"/>
    <path pointer-events="none" fill="none" stroke="white" stroke-width="1.5" d="M0,-3.0v7 M-2.5,-0.5L0,-3.0L2.5,-0.5"/>
  </g>
  <g id="arrowRight" transform="rotate(90) translate(36 -43)">
    <use xlink:href="#rim"/>
    <path pointer-events="none" fill="none" stroke="white" stroke-width="1.5" d="M0,-3.0v7 M-2.5,-0.5L0,-3.0L2.5,-0.5"/>
  </g>
  <g id="arrowDown" transform="rotate(180) translate(-30 -48)">
    <use xlink:href="#rim"/>
    <path pointer-events="none" fill="none" stroke="white" stroke-width="1.5" d="M0,-3.0v7 M-2.5,-0.5L0,-3.0L2.5,-0.5"/>
  </g>
  <g id="arrowLeft" transform="rotate(270) translate(-36 17)">
    <use xlink:href="#rim"/>
    <path pointer-events="none" fill="none" stroke="white" stroke-width="1.5" d="M0,-3.0v7 M-2.5,-0.5L0,-3.0L2.5,-0.5"/>
  </g>
  <g id="resetDef">
    <use xlink:href="#rim2" fill="#404040"><set attributeName="fill" to="#808080" begin="reset.mouseover" end="reset.mouseout"/></use>
  </g>
</defs>
<script type="application/ecmascript">
var viewWidth = 698;
var viewHeight = 179;
var sectionId = 'dynsection-0';
</script>
<script type="application/ecmascript" xlink:href="svg.min.js"/>
<svg id="graph" class="graph">
<g id="viewport">
<title>DGtal::UniqueAssociativeCategory</title>
<!-- Node1 -->
<g id="Node000001" class="node">
<title>Node1</title>
<g id="a_Node000001"><a xlink:title=" ">
<polygon fill="#999999" stroke="#666666" points="483.75,-114.5 350.75,-114.5 350.75,-78 483.75,-78 483.75,-114.5"/>
<text text-anchor="start" x="358.75" y="-101" font-family="FreeSans" font-size="10.00">DGtal::UniqueAssociative</text>
<text text-anchor="middle" x="417.25" y="-86.75" font-family="FreeSans" font-size="10.00">Category</text>
</a>
</g>
</g>
<!-- Node4 -->
<g id="Node000004" class="node">
<title>Node4</title>
<g id="a_Node000004"><a xlink:href="structDGtal_1_1MapAssociativeCategory.html" target="_top" xlink:title=" ">
<polygon fill="white" stroke="#666666" points="686.12,-171.38 523.88,-171.38 523.88,-149.12 686.12,-149.12 686.12,-171.38"/>
<text text-anchor="middle" x="605" y="-157.88" font-family="FreeSans" font-size="10.00">DGtal::MapAssociativeCategory</text>
</a>
</g>
</g>
<!-- Node1&#45;&gt;Node4 -->
<g id="edge3_Node000001_Node000004" class="edge">
<title>Node1&#45;&gt;Node4</title>
<g id="a_edge3_Node000001_Node000004"><a xlink:title=" ">
<path fill="none" stroke="#63b8ff" d="M467.14,-119.51C483.62,-126.79 502.26,-134.43 519.75,-140.25 529.16,-143.38 539.33,-146.23 549.22,-148.73"/>
<polygon fill="#63b8ff" stroke="#63b8ff" points="468.6,-116.33 458.05,-115.43 465.73,-122.72 468.6,-116.33"/>
</a>
</g>
</g>
<!-- Node5 -->
<g id="Node000005" class="node">
<title>Node5</title>
<g id="a_Node000005"><a xlink:href="structDGtal_1_1SetAssociativeCategory.html" target="_top" xlink:title=" ">
<polygon fill="white" stroke="#666666" points="683.5,-131.38 526.5,-131.38 526.5,-109.12 683.5,-109.12 683.5,-131.38"/>
<text text-anchor="middle" x="605" y="-117.88" font-family="FreeSans" font-size="10.00">DGtal::SetAssociativeCategory</text>
</a>
</g>
</g>
<!-- Node1&#45;&gt;Node5 -->
<g id="edge4_Node000001_Node000005" class="edge">
<title>Node1&#45;&gt;Node5</title>
<g id="a_edge4_Node000001_Node000005"><a xlink:title=" ">
<path fill="none" stroke="#63b8ff" d="M495.38,-106.22C505.58,-107.53 516.05,-108.89 526.26,-110.21"/>
<polygon fill="#63b8ff" stroke="#63b8ff" points="495.87,-102.75 485.5,-104.94 494.97,-109.69 495.87,-102.75"/>
</a>
</g>
</g>
<!-- Node6 -->
<g id="Node000006" class="node">
<title>Node6</title>
<g id="a_Node000006"><a xlink:href="structDGtal_1_1UnorderedMapAssociativeCategory.html" target="_top" xlink:title=" ">
<polygon fill="white" stroke="#666666" points="690.25,-91.5 519.75,-91.5 519.75,-55 690.25,-55 690.25,-91.5"/>
<text text-anchor="start" x="527.75" y="-78" font-family="FreeSans" font-size="10.00">DGtal::UnorderedMapAssociative</text>
<text text-anchor="middle" x="605" y="-63.75" font-family="FreeSans" font-size="10.00">Category</text>
</a>
</g>
</g>
<!-- Node1&#45;&gt;Node6 -->
<g id="edge5_Node000001_Node000006" class="edge">
<title>Node1&#45;&gt;Node6</title>
<g id="a_edge5_Node000001_Node000006"><a xlink:title=" ">
<path fill="none" stroke="#63b8ff" d="M495.19,-86.72C503.2,-85.73 511.38,-84.72 519.47,-83.72"/>
<polygon fill="#63b8ff" stroke="#63b8ff" points="495,-83.22 485.5,-87.92 495.86,-90.17 495,-83.22"/>
</a>
</g>
</g>
<!-- Node7 -->
<g id="Node000007" class="node">
<title>Node7</title>
<g id="a_Node000007"><a xlink:href="structDGtal_1_1UnorderedSetAssociativeCategory.html" target="_top" xlink:title=" ">
<polygon fill="white" stroke="#666666" points="687.62,-36.5 522.38,-36.5 522.38,0 687.62,0 687.62,-36.5"/>
<text text-anchor="start" x="530.38" y="-23" font-family="FreeSans" font-size="10.00">DGtal::UnorderedSetAssociative</text>
<text text-anchor="middle" x="605" y="-8.75" font-family="FreeSans" font-size="10.00">Category</text>
</a>
</g>
</g>
<!-- Node1&#45;&gt;Node7 -->
<g id="edge6_Node000001_Node000007" class="edge">
<title>Node1&#45;&gt;Node7</title>
<g id="a_edge6_Node000001_Node000007"><a xlink:title=" ">
<path fill="none" stroke="#63b8ff" d="M462.87,-72.63C480.36,-63.8 500.76,-54.04 519.75,-46.25 527.59,-43.03 535.95,-39.91 544.25,-36.98"/>
<polygon fill="#63b8ff" stroke="#63b8ff" points="461.6,-69.34 454.29,-77 464.78,-75.58 461.6,-69.34"/>
</a>
</g>
</g>
<!-- Node2 -->
<g id="Node000002" class="node">
<title>Node2</title>
<g id="a_Node000002"><a xlink:href="structDGtal_1_1AssociativeCategory.html" target="_top" xlink:title=" ">
<polygon fill="white" stroke="#666666" points="314.75,-107.38 172.75,-107.38 172.75,-85.12 314.75,-85.12 314.75,-107.38"/>
<text text-anchor="middle" x="243.75" y="-93.88" font-family="FreeSans" font-size="10.00">DGtal::AssociativeCategory</text>
</a>
</g>
</g>
<!-- Node2&#45;&gt;Node1 -->
<g id="edge1_Node000001_Node000002" class="edge">
<title>Node2&#45;&gt;Node1</title>
<g id="a_edge1_Node000001_Node000002"><a xlink:title=" ">
<path fill="none" stroke="#63b8ff" d="M326.29,-96.25C334.32,-96.25 342.4,-96.25 350.25,-96.25"/>
<polygon fill="#63b8ff" stroke="#63b8ff" points="326.51,-92.75 316.51,-96.25 326.51,-99.75 326.51,-92.75"/>
</a>
</g>
</g>
<!-- Node3 -->
<g id="Node000003" class="node">
<title>Node3</title>
<g id="a_Node000003"><a xlink:href="structDGtal_1_1ContainerCategory.html" target="_top" xlink:title=" ">
<polygon fill="white" stroke="#666666" points="136.75,-107.38 0,-107.38 0,-85.12 136.75,-85.12 136.75,-107.38"/>
<text text-anchor="middle" x="68.38" y="-93.88" font-family="FreeSans" font-size="10.00">DGtal::ContainerCategory</text>
</a>
</g>
</g>
<!-- Node3&#45;&gt;Node2 -->
<g id="edge2_Node000002_Node000003" class="edge">
<title>Node3&#45;&gt;Node2</title>
<g id="a_edge2_Node000002_Node000003"><a xlink:title=" ">
<path fill="none" stroke="#63b8ff" d="M148.17,-96.25C156.2,-96.25 164.32,-96.25 172.26,-96.25"/>
<polygon fill="#63b8ff" stroke="#63b8ff" points="148.42,-92.75 138.42,-96.25 148.42,-99.75 148.42,-92.75"/>
</a>
</g>
</g>
</g>
</svg>

<g id="navigator" transform="translate(0 0)" fill="#404254">
  <rect fill="#f2f5e9" fill-opacity="0.5" stroke="#606060" stroke-width=".5" x="0" y="0" width="60" height="60"/>
  <use id="zoomplus" xlink:href="#zoomPlus" x="17" y="9" onmousedown="handleZoom(evt,'in')"/>
  <use id="zoomminus" xlink:href="#zoomMin" x="42" y="9" onmousedown="handleZoom(evt,'out')"/>
  <use id="reset" xlink:href="#resetDef" x="30" y="36" onmousedown="handleReset()"/>
   <use id="arrowup" xlink:href="#arrowUp" x="0" y="0" onmousedown="handlePan(0,-1)"/>
  <use id="arrowright" xlink:href="#arrowRight" x="0" y="0" onmousedown="handlePan(1,0)"/>
  <use id="arrowdown" xlink:href="#arrowDown" x="0" y="0" onmousedown="handlePan(0,1)"/>
  <use id="arrowleft" xlink:href="#arrowLeft" x="0" y="0" onmousedown="handlePan(-1,0)"/>
</g>
<svg viewBox="0 0 15 15" width="100%" height="30px" preserveAspectRatio="xMaxYMin meet">
 <g id="arrow_out" transform="scale(0.3 0.3)">
  <a xlink:href="structDGtal_1_1UniqueAssociativeCategory__inherit__graph_org.svg" target="_base">
   <rect id="button" ry="5" rx="5" y="6" x="6" height="38" width="38"
        fill="#f2f5e9" fill-opacity="0.5" stroke="#606060" stroke-width="1.0"/>
   <path id="arrow"
     d="M 11.500037,31.436501 C 11.940474,20.09759 22.043105,11.32322 32.158766,21.979434 L 37.068811,17.246167 C 37.068811,17.246167 37.088388,32 37.088388,32 L 22.160133,31.978069 C 22.160133,31.978069 26.997745,27.140456 26.997745,27.140456 C 18.528582,18.264221 13.291696,25.230495 11.500037,31.436501 z"
     style="fill:#404040;"/>
  </a>
 </g>
</svg>

<style type='text/css'>
<![CDATA[
[data-mouse-over-selected='false'] { opacity: 0.7; }
[data-mouse-over-selected='true']  { opacity: 1.0; }
]]>
</style>
<script type="application/ecmascript"><![CDATA[
document.addEventListener('DOMContentLoaded', (event) => {
  highlightEdges();
  highlightAdjacentNodes();
});
]]></script>
</svg>
