<?xml version="1.0" encoding="UTF-8" standalone="no"?>
<!DOCTYPE svg PUBLIC "-//W3C//DTD SVG 1.1//EN"
 "http://www.w3.org/Graphics/SVG/1.1/DTD/svg11.dtd">
<!-- Generated by graphviz version 11.0.0 (0)
 -->
<!-- Title: DGtal::concepts::CPredicate&lt; T, TElement &gt; Pages: 1 -->
<svg width="1638pt" height="155pt"
 viewBox="0.00 0.00 1637.50 154.50" xmlns="http://www.w3.org/2000/svg" xmlns:xlink="http://www.w3.org/1999/xlink">
<g id="graph0" class="graph" transform="scale(1 1) rotate(0) translate(4 150.5)">
<title>DGtal::concepts::CPredicate&lt; T, TElement &gt;</title>
<!-- Node1 -->
<g id="Node000001" class="node">
<title>Node1</title>
<g id="a_Node000001"><a xlink:title="Aim: Defines a predicate function, ie. a functor mapping a domain into the set of booleans.">
<polygon fill="#999999" stroke="#666666" points="983.75,-91.5 838.75,-91.5 838.75,-55 983.75,-55 983.75,-91.5"/>
<text text-anchor="start" x="846.75" y="-78" font-family="FreeSans" font-size="10.00">DGtal::concepts::CPredicate</text>
<text text-anchor="middle" x="911.25" y="-63.75" font-family="FreeSans" font-size="10.00">&lt; T, TElement &gt;</text>
</a>
</g>
</g>
<!-- Node7 -->
<g id="Node000007" class="node">
<title>Node7</title>
<g id="a_Node000007"><a xlink:href="structDGtal_1_1concepts_1_1CPredicate.html" target="_top" xlink:title=" ">
<polygon fill="white" stroke="#666666" points="1236,-146.5 1091,-146.5 1091,-110 1236,-110 1236,-146.5"/>
<text text-anchor="start" x="1099" y="-133" font-family="FreeSans" font-size="10.00">DGtal::concepts::CPredicate</text>
<text text-anchor="middle" x="1163.5" y="-118.75" font-family="FreeSans" font-size="10.00">&lt; T, T::Point &gt;</text>
</a>
</g>
</g>
<!-- Node1&#45;&gt;Node7 -->
<g id="edge6_Node000001_Node000007" class="edge">
<title>Node1&#45;&gt;Node7</title>
<g id="a_edge6_Node000001_Node000007"><a xlink:title=" ">
<path fill="none" stroke="orange" stroke-dasharray="5,2" d="M995.17,-91.47C1026.1,-98.27 1060.93,-105.93 1090.78,-112.49"/>
<polygon fill="orange" stroke="orange" points="995.96,-88.06 985.44,-89.34 994.46,-94.9 995.96,-88.06"/>
</a>
</g>
<text text-anchor="middle" x="1037.38" y="-112" font-family="FreeSans" font-size="10.00" fill="grey"> &lt; T, T::Point &gt;</text>
</g>
<!-- Node10 -->
<g id="Node000010" class="node">
<title>Node10</title>
<g id="a_Node000010"><a xlink:href="structDGtal_1_1concepts_1_1CPredicate.html" target="_top" xlink:title=" ">
<polygon fill="white" stroke="#666666" points="1236,-91.5 1091,-91.5 1091,-55 1236,-55 1236,-91.5"/>
<text text-anchor="start" x="1099" y="-78" font-family="FreeSans" font-size="10.00">DGtal::concepts::CPredicate</text>
<text text-anchor="middle" x="1163.5" y="-63.75" font-family="FreeSans" font-size="10.00">&lt; T, T::Surfel &gt;</text>
</a>
</g>
</g>
<!-- Node1&#45;&gt;Node10 -->
<g id="edge9_Node000001_Node000010" class="edge">
<title>Node1&#45;&gt;Node10</title>
<g id="a_edge9_Node000001_Node000010"><a xlink:title=" ">
<path fill="none" stroke="orange" stroke-dasharray="5,2" d="M995.17,-73.25C1026.1,-73.25 1060.93,-73.25 1090.78,-73.25"/>
<polygon fill="orange" stroke="orange" points="995.48,-69.75 985.48,-73.25 995.48,-76.75 995.48,-69.75"/>
</a>
</g>
<text text-anchor="middle" x="1037.38" y="-78" font-family="FreeSans" font-size="10.00" fill="grey"> &lt; T, T::Surfel &gt;</text>
</g>
<!-- Node12 -->
<g id="Node000012" class="node">
<title>Node12</title>
<g id="a_Node000012"><a xlink:href="structDGtal_1_1concepts_1_1CPredicate.html" target="_top" xlink:title=" ">
<polygon fill="white" stroke="#666666" points="1236,-36.5 1091,-36.5 1091,0 1236,0 1236,-36.5"/>
<text text-anchor="start" x="1099" y="-23" font-family="FreeSans" font-size="10.00">DGtal::concepts::CPredicate</text>
<text text-anchor="middle" x="1163.5" y="-8.75" font-family="FreeSans" font-size="10.00">&lt; T, T::Vertex &gt;</text>
</a>
</g>
</g>
<!-- Node1&#45;&gt;Node12 -->
<g id="edge11_Node000001_Node000012" class="edge">
<title>Node1&#45;&gt;Node12</title>
<g id="a_edge11_Node000001_Node000012"><a xlink:title=" ">
<path fill="none" stroke="orange" stroke-dasharray="5,2" d="M995.17,-55.03C1026.1,-48.23 1060.93,-40.57 1090.78,-34.01"/>
<polygon fill="orange" stroke="orange" points="994.46,-51.6 985.44,-57.16 995.96,-58.44 994.46,-51.6"/>
</a>
</g>
<text text-anchor="middle" x="1037.38" y="-57" font-family="FreeSans" font-size="10.00" fill="grey"> &lt; T, T::Vertex &gt;</text>
</g>
<!-- Node2 -->
<g id="Node000002" class="node">
<title>Node2</title>
<g id="a_Node000002"><a xlink:href="structDGtal_1_1concepts_1_1CUnaryFunctor.html" target="_top" xlink:title=" ">
<polygon fill="white" stroke="#666666" points="802.75,-91.5 636.75,-91.5 636.75,-55 802.75,-55 802.75,-91.5"/>
<text text-anchor="start" x="644.75" y="-78" font-family="FreeSans" font-size="10.00">DGtal::concepts::CUnaryFunctor</text>
<text text-anchor="middle" x="719.75" y="-63.75" font-family="FreeSans" font-size="10.00">&lt; T, TElement, bool &gt;</text>
</a>
</g>
</g>
<!-- Node2&#45;&gt;Node1 -->
<g id="edge1_Node000001_Node000002" class="edge">
<title>Node2&#45;&gt;Node1</title>
<g id="a_edge1_Node000001_Node000002"><a xlink:title=" ">
<path fill="none" stroke="#63b8ff" d="M814.42,-73.25C822.5,-73.25 830.58,-73.25 838.44,-73.25"/>
<polygon fill="#63b8ff" stroke="#63b8ff" points="814.55,-69.75 804.55,-73.25 814.55,-76.75 814.55,-69.75"/>
</a>
</g>
</g>
<!-- Node3 -->
<g id="Node000003" class="node">
<title>Node3</title>
<g id="a_Node000003"><a xlink:href="structboost_1_1Assignable.html" target="_top" xlink:title="Go to http://www.sgi.com/tech/stl/Assignable.html.">
<polygon fill="white" stroke="#666666" points="479.25,-108.38 359.75,-108.38 359.75,-86.12 479.25,-86.12 479.25,-108.38"/>
<text text-anchor="middle" x="419.5" y="-94.88" font-family="FreeSans" font-size="10.00">boost::Assignable&lt; T &gt;</text>
</a>
</g>
</g>
<!-- Node3&#45;&gt;Node2 -->
<g id="edge2_Node000002_Node000003" class="edge">
<title>Node3&#45;&gt;Node2</title>
<g id="a_edge2_Node000002_Node000003"><a xlink:title=" ">
<path fill="none" stroke="#63b8ff" d="M490.81,-91.59C534.48,-88.08 590.79,-83.55 636.52,-79.87"/>
<polygon fill="#63b8ff" stroke="#63b8ff" points="490.62,-88.1 480.93,-92.39 491.18,-95.07 490.62,-88.1"/>
</a>
</g>
</g>
<!-- Node4 -->
<g id="Node000004" class="node">
<title>Node4</title>
<g id="a_Node000004"><a xlink:href="structDGtal_1_1concepts_1_1CUnaryFunctor.html" target="_top" xlink:title="Aim: Defines a unary functor, which associates arguments to results.">
<polygon fill="white" stroke="#666666" points="502.5,-68.5 336.5,-68.5 336.5,-32 502.5,-32 502.5,-68.5"/>
<text text-anchor="start" x="344.5" y="-55" font-family="FreeSans" font-size="10.00">DGtal::concepts::CUnaryFunctor</text>
<text text-anchor="middle" x="419.5" y="-40.75" font-family="FreeSans" font-size="10.00">&lt; X, A, R &gt;</text>
</a>
</g>
</g>
<!-- Node4&#45;&gt;Node2 -->
<g id="edge3_Node000002_Node000004" class="edge">
<title>Node4&#45;&gt;Node2</title>
<g id="a_edge3_Node000002_Node000004"><a xlink:title=" ">
<path fill="none" stroke="orange" stroke-dasharray="5,2" d="M513.65,-54C546.86,-55.68 584.51,-57.98 618.75,-61 624.5,-61.51 630.43,-62.09 636.4,-62.71"/>
<polygon fill="orange" stroke="orange" points="514.25,-50.52 504.09,-53.53 513.9,-57.51 514.25,-50.52"/>
</a>
</g>
<text text-anchor="middle" x="569.62" y="-65" font-family="FreeSans" font-size="10.00" fill="grey"> &lt; T, TElement, bool &gt;</text>
</g>
<!-- Node5 -->
<g id="Node000005" class="node">
<title>Node5</title>
<g id="a_Node000005"><a xlink:href="structboost_1_1Assignable.html" target="_top" xlink:title=" ">
<polygon fill="white" stroke="#666666" points="300.5,-61.38 180.25,-61.38 180.25,-39.12 300.5,-39.12 300.5,-61.38"/>
<text text-anchor="middle" x="240.38" y="-47.88" font-family="FreeSans" font-size="10.00">boost::Assignable&lt; X &gt;</text>
</a>
</g>
</g>
<!-- Node5&#45;&gt;Node4 -->
<g id="edge4_Node000004_Node000005" class="edge">
<title>Node5&#45;&gt;Node4</title>
<g id="a_edge4_Node000004_Node000005"><a xlink:title=" ">
<path fill="none" stroke="#63b8ff" d="M312.23,-50.25C320.11,-50.25 328.19,-50.25 336.2,-50.25"/>
<polygon fill="#63b8ff" stroke="#63b8ff" points="312.36,-46.75 302.36,-50.25 312.36,-53.75 312.36,-46.75"/>
</a>
</g>
</g>
<!-- Node6 -->
<g id="Node000006" class="node">
<title>Node6</title>
<g id="a_Node000006"><a xlink:href="structboost_1_1Assignable.html" target="_top" xlink:title="Go to http://www.sgi.com/tech/stl/Assignable.html.">
<polygon fill="white" stroke="#666666" points="119.5,-61.38 0,-61.38 0,-39.12 119.5,-39.12 119.5,-61.38"/>
<text text-anchor="middle" x="59.75" y="-47.88" font-family="FreeSans" font-size="10.00">boost::Assignable&lt; T &gt;</text>
</a>
</g>
</g>
<!-- Node6&#45;&gt;Node5 -->
<g id="edge5_Node000005_Node000006" class="edge">
<title>Node6&#45;&gt;Node5</title>
<g id="a_edge5_Node000005_Node000006"><a xlink:title=" ">
<path fill="none" stroke="orange" stroke-dasharray="5,2" d="M130.79,-50.25C147.01,-50.25 164.12,-50.25 179.84,-50.25"/>
<polygon fill="orange" stroke="orange" points="131.25,-46.75 121.25,-50.25 131.25,-53.75 131.25,-46.75"/>
</a>
</g>
<text text-anchor="middle" x="149.88" y="-55" font-family="FreeSans" font-size="10.00" fill="grey"> &lt; X &gt;</text>
</g>
<!-- Node8 -->
<g id="Node000008" class="node">
<title>Node8</title>
<g id="a_Node000008"><a xlink:href="structDGtal_1_1concepts_1_1CPointPredicate.html" target="_top" xlink:title="Aim: Defines a predicate on a point.">
<polygon fill="white" stroke="#666666" points="1462.75,-139.38 1272,-139.38 1272,-117.12 1462.75,-117.12 1462.75,-139.38"/>
<text text-anchor="middle" x="1367.38" y="-125.88" font-family="FreeSans" font-size="10.00">DGtal::concepts::CPointPredicate&lt; T &gt;</text>
</a>
</g>
</g>
<!-- Node7&#45;&gt;Node8 -->
<g id="edge7_Node000007_Node000008" class="edge">
<title>Node7&#45;&gt;Node8</title>
<g id="a_edge7_Node000007_Node000008"><a xlink:title=" ">
<path fill="none" stroke="#63b8ff" d="M1247.66,-128.25C1255.55,-128.25 1263.58,-128.25 1271.56,-128.25"/>
<polygon fill="#63b8ff" stroke="#63b8ff" points="1247.76,-124.75 1237.76,-128.25 1247.76,-131.75 1247.76,-124.75"/>
</a>
</g>
</g>
<!-- Node9 -->
<g id="Node000009" class="node">
<title>Node9</title>
<g id="a_Node000009"><a xlink:href="structDGtal_1_1concepts_1_1CDigitalSet.html" target="_top" xlink:title="Aim: Represents a set of points within the given domain. This set of points is modifiable by the user...">
<polygon fill="white" stroke="#666666" points="1629.5,-146.5 1498.75,-146.5 1498.75,-110 1629.5,-110 1629.5,-146.5"/>
<text text-anchor="start" x="1506.75" y="-133" font-family="FreeSans" font-size="10.00">DGtal::concepts::CDigital</text>
<text text-anchor="middle" x="1564.12" y="-118.75" font-family="FreeSans" font-size="10.00">Set&lt; T &gt;</text>
</a>
</g>
</g>
<!-- Node8&#45;&gt;Node9 -->
<g id="edge8_Node000008_Node000009" class="edge">
<title>Node8&#45;&gt;Node9</title>
<g id="a_edge8_Node000008_Node000009"><a xlink:title=" ">
<path fill="none" stroke="#63b8ff" d="M1474.61,-128.25C1482.67,-128.25 1490.65,-128.25 1498.32,-128.25"/>
<polygon fill="#63b8ff" stroke="#63b8ff" points="1474.7,-124.75 1464.7,-128.25 1474.7,-131.75 1474.7,-124.75"/>
</a>
</g>
</g>
<!-- Node11 -->
<g id="Node000011" class="node">
<title>Node11</title>
<g id="a_Node000011"><a xlink:href="structDGtal_1_1concepts_1_1CSurfelPredicate.html" target="_top" xlink:title="Aim: Defines a predicate on a surfel.">
<polygon fill="white" stroke="#666666" points="1432,-91.5 1302.75,-91.5 1302.75,-55 1432,-55 1432,-91.5"/>
<text text-anchor="start" x="1310.75" y="-78" font-family="FreeSans" font-size="10.00">DGtal::concepts::CSurfel</text>
<text text-anchor="middle" x="1367.38" y="-63.75" font-family="FreeSans" font-size="10.00">Predicate&lt; T &gt;</text>
</a>
</g>
</g>
<!-- Node10&#45;&gt;Node11 -->
<g id="edge10_Node000010_Node000011" class="edge">
<title>Node10&#45;&gt;Node11</title>
<g id="a_edge10_Node000010_Node000011"><a xlink:title=" ">
<path fill="none" stroke="#63b8ff" d="M1247.75,-73.25C1265.95,-73.25 1284.94,-73.25 1302.25,-73.25"/>
<polygon fill="#63b8ff" stroke="#63b8ff" points="1247.76,-69.75 1237.76,-73.25 1247.76,-76.75 1247.76,-69.75"/>
</a>
</g>
</g>
<!-- Node13 -->
<g id="Node000013" class="node">
<title>Node13</title>
<g id="a_Node000013"><a xlink:href="structDGtal_1_1concepts_1_1CVertexPredicate.html" target="_top" xlink:title="Aim: Defines a predicate on a vertex.">
<polygon fill="white" stroke="#666666" points="1433.5,-36.5 1301.25,-36.5 1301.25,0 1433.5,0 1433.5,-36.5"/>
<text text-anchor="start" x="1309.25" y="-23" font-family="FreeSans" font-size="10.00">DGtal::concepts::CVertex</text>
<text text-anchor="middle" x="1367.38" y="-8.75" font-family="FreeSans" font-size="10.00">Predicate&lt; T &gt;</text>
</a>
</g>
</g>
<!-- Node12&#45;&gt;Node13 -->
<g id="edge12_Node000012_Node000013" class="edge">
<title>Node12&#45;&gt;Node13</title>
<g id="a_edge12_Node000012_Node000013"><a xlink:title=" ">
<path fill="none" stroke="#63b8ff" d="M1247.51,-18.25C1265.32,-18.25 1283.89,-18.25 1300.92,-18.25"/>
<polygon fill="#63b8ff" stroke="#63b8ff" points="1247.76,-14.75 1237.76,-18.25 1247.76,-21.75 1247.76,-14.75"/>
</a>
</g>
</g>
</g>
</svg>
