<?xml version="1.0" encoding="UTF-8" standalone="no"?>
<!DOCTYPE svg PUBLIC "-//W3C//DTD SVG 1.1//EN"
 "http://www.w3.org/Graphics/SVG/1.1/DTD/svg11.dtd">
<!-- Generated by graphviz version 11.0.0 (0)
 -->
<!-- Title: DGtal::concepts::COrientationFunctor&lt; T &gt; Pages: 1 -->
<svg width="333pt" height="465pt"
 viewBox="0.00 0.00 332.62 465.25" xmlns="http://www.w3.org/2000/svg" xmlns:xlink="http://www.w3.org/1999/xlink">
<g id="graph0" class="graph" transform="scale(1 1) rotate(0) translate(4 461.25)">
<title>DGtal::concepts::COrientationFunctor&lt; T &gt;</title>
<!-- Node1 -->
<g id="Node000001" class="node">
<title>Node1</title>
<g id="a_Node000001"><a xlink:title="Aim: This concept gathers models implementing an orientation test of &#160;points in a space of dimension ...">
<polygon fill="#999999" stroke="#666666" points="169,-109 14.25,-109 14.25,-72.5 169,-72.5 169,-109"/>
<text text-anchor="start" x="22.25" y="-95.5" font-family="FreeSans" font-size="10.00">DGtal::concepts::COrientation</text>
<text text-anchor="middle" x="91.62" y="-81.25" font-family="FreeSans" font-size="10.00">Functor&lt; T &gt;</text>
</a>
</g>
</g>
<!-- Node8 -->
<g id="Node000008" class="node">
<title>Node8</title>
<g id="a_Node000008"><a xlink:href="structDGtal_1_1concepts_1_1COrientationFunctor2.html" target="_top" xlink:title="Aim: This concept is a refinement of COrientationFunctor, useful for simple algebraic curves that can...">
<polygon fill="white" stroke="#666666" points="169,-36.5 14.25,-36.5 14.25,0 169,0 169,-36.5"/>
<text text-anchor="start" x="22.25" y="-23" font-family="FreeSans" font-size="10.00">DGtal::concepts::COrientation</text>
<text text-anchor="middle" x="91.62" y="-8.75" font-family="FreeSans" font-size="10.00">Functor2&lt; T &gt;</text>
</a>
</g>
</g>
<!-- Node1&#45;&gt;Node8 -->
<g id="edge7_Node000001_Node000008" class="edge">
<title>Node1&#45;&gt;Node8</title>
<g id="a_edge7_Node000001_Node000008"><a xlink:title=" ">
<path fill="none" stroke="#63b8ff" d="M91.62,-60.97C91.62,-52.84 91.62,-44.23 91.62,-36.97"/>
<polygon fill="#63b8ff" stroke="#63b8ff" points="88.13,-60.81 91.63,-70.81 95.13,-60.81 88.13,-60.81"/>
</a>
</g>
</g>
<!-- Node2 -->
<g id="Node000002" class="node">
<title>Node2</title>
<g id="a_Node000002"><a xlink:href="structDGtal_1_1concepts_1_1CPointFunctor.html" target="_top" xlink:title="Aim: Defines a functor on points.">
<polygon fill="white" stroke="#666666" points="183.25,-167.25 0,-167.25 0,-145 183.25,-145 183.25,-167.25"/>
<text text-anchor="middle" x="91.62" y="-153.75" font-family="FreeSans" font-size="10.00">DGtal::concepts::CPointFunctor&lt; T &gt;</text>
</a>
</g>
</g>
<!-- Node2&#45;&gt;Node1 -->
<g id="edge1_Node000001_Node000002" class="edge">
<title>Node2&#45;&gt;Node1</title>
<g id="a_edge1_Node000001_Node000002"><a xlink:title=" ">
<path fill="none" stroke="#63b8ff" d="M91.62,-133.42C91.62,-125.6 91.62,-116.86 91.62,-109.42"/>
<polygon fill="#63b8ff" stroke="#63b8ff" points="88.13,-133.15 91.63,-143.15 95.13,-133.15 88.13,-133.15"/>
</a>
</g>
</g>
<!-- Node3 -->
<g id="Node000003" class="node">
<title>Node3</title>
<g id="a_Node000003"><a xlink:href="structDGtal_1_1concepts_1_1CUnaryFunctor.html" target="_top" xlink:title=" ">
<polygon fill="white" stroke="#666666" points="174.62,-239.75 8.62,-239.75 8.62,-203.25 174.62,-203.25 174.62,-239.75"/>
<text text-anchor="start" x="16.62" y="-226.25" font-family="FreeSans" font-size="10.00">DGtal::concepts::CUnaryFunctor</text>
<text text-anchor="middle" x="91.62" y="-212" font-family="FreeSans" font-size="10.00">&lt; T, T::Point, T::Value &gt;</text>
</a>
</g>
</g>
<!-- Node3&#45;&gt;Node2 -->
<g id="edge2_Node000002_Node000003" class="edge">
<title>Node3&#45;&gt;Node2</title>
<g id="a_edge2_Node000002_Node000003"><a xlink:title=" ">
<path fill="none" stroke="#63b8ff" d="M91.62,-191.34C91.62,-182.92 91.62,-174.25 91.62,-167.74"/>
<polygon fill="#63b8ff" stroke="#63b8ff" points="88.13,-191.33 91.63,-201.33 95.13,-191.33 88.13,-191.33"/>
</a>
</g>
</g>
<!-- Node4 -->
<g id="Node000004" class="node">
<title>Node4</title>
<g id="a_Node000004"><a xlink:href="structboost_1_1Assignable.html" target="_top" xlink:title="Go to http://www.sgi.com/tech/stl/Assignable.html.">
<polygon fill="white" stroke="#666666" points="140.38,-319.38 20.87,-319.38 20.87,-297.12 140.38,-297.12 140.38,-319.38"/>
<text text-anchor="middle" x="80.62" y="-305.88" font-family="FreeSans" font-size="10.00">boost::Assignable&lt; T &gt;</text>
</a>
</g>
</g>
<!-- Node4&#45;&gt;Node3 -->
<g id="edge3_Node000003_Node000004" class="edge">
<title>Node4&#45;&gt;Node3</title>
<g id="a_edge3_Node000003_Node000004"><a xlink:title=" ">
<path fill="none" stroke="#63b8ff" d="M83.42,-285.72C85.25,-271.58 87.62,-253.32 89.35,-240.06"/>
<polygon fill="#63b8ff" stroke="#63b8ff" points="79.98,-284.99 82.17,-295.36 86.93,-285.89 79.98,-284.99"/>
</a>
</g>
</g>
<!-- Node5 -->
<g id="Node000005" class="node">
<title>Node5</title>
<g id="a_Node000005"><a xlink:href="structDGtal_1_1concepts_1_1CUnaryFunctor.html" target="_top" xlink:title="Aim: Defines a unary functor, which associates arguments to results.">
<polygon fill="white" stroke="#666666" points="324.62,-326.5 158.62,-326.5 158.62,-290 324.62,-290 324.62,-326.5"/>
<text text-anchor="start" x="166.62" y="-313" font-family="FreeSans" font-size="10.00">DGtal::concepts::CUnaryFunctor</text>
<text text-anchor="middle" x="241.62" y="-298.75" font-family="FreeSans" font-size="10.00">&lt; X, A, R &gt;</text>
</a>
</g>
</g>
<!-- Node5&#45;&gt;Node3 -->
<g id="edge4_Node000003_Node000005" class="edge">
<title>Node5&#45;&gt;Node3</title>
<g id="a_edge4_Node000003_Node000005"><a xlink:title=" ">
<path fill="none" stroke="orange" stroke-dasharray="5,2" d="M200.8,-284.18C176.26,-270.32 145.53,-252.95 122.92,-240.18"/>
<polygon fill="orange" stroke="orange" points="198.8,-287.07 209.23,-288.95 202.24,-280.98 198.8,-287.07"/>
</a>
</g>
<text text-anchor="middle" x="227.88" y="-262.5" font-family="FreeSans" font-size="10.00" fill="grey"> &lt; T, T::Point, T::Value &gt;</text>
</g>
<!-- Node6 -->
<g id="Node000006" class="node">
<title>Node6</title>
<g id="a_Node000006"><a xlink:href="structboost_1_1Assignable.html" target="_top" xlink:title=" ">
<polygon fill="white" stroke="#666666" points="301.75,-384.75 181.5,-384.75 181.5,-362.5 301.75,-362.5 301.75,-384.75"/>
<text text-anchor="middle" x="241.62" y="-371.25" font-family="FreeSans" font-size="10.00">boost::Assignable&lt; X &gt;</text>
</a>
</g>
</g>
<!-- Node6&#45;&gt;Node5 -->
<g id="edge5_Node000005_Node000006" class="edge">
<title>Node6&#45;&gt;Node5</title>
<g id="a_edge5_Node000005_Node000006"><a xlink:title=" ">
<path fill="none" stroke="#63b8ff" d="M241.62,-350.92C241.62,-343.1 241.62,-334.36 241.62,-326.92"/>
<polygon fill="#63b8ff" stroke="#63b8ff" points="238.13,-350.65 241.63,-360.65 245.13,-350.65 238.13,-350.65"/>
</a>
</g>
</g>
<!-- Node7 -->
<g id="Node000007" class="node">
<title>Node7</title>
<g id="a_Node000007"><a xlink:href="structboost_1_1Assignable.html" target="_top" xlink:title="Go to http://www.sgi.com/tech/stl/Assignable.html.">
<polygon fill="white" stroke="#666666" points="301.38,-457.25 181.88,-457.25 181.88,-435 301.38,-435 301.38,-457.25"/>
<text text-anchor="middle" x="241.62" y="-443.75" font-family="FreeSans" font-size="10.00">boost::Assignable&lt; T &gt;</text>
</a>
</g>
</g>
<!-- Node7&#45;&gt;Node6 -->
<g id="edge6_Node000006_Node000007" class="edge">
<title>Node7&#45;&gt;Node6</title>
<g id="a_edge6_Node000006_Node000007"><a xlink:title=" ">
<path fill="none" stroke="orange" stroke-dasharray="5,2" d="M241.62,-423.22C241.62,-410.51 241.62,-395.08 241.62,-385.07"/>
<polygon fill="orange" stroke="orange" points="238.13,-423.21 241.63,-433.21 245.13,-423.21 238.13,-423.21"/>
</a>
</g>
<text text-anchor="middle" x="254" y="-407.5" font-family="FreeSans" font-size="10.00" fill="grey"> &lt; X &gt;</text>
</g>
</g>
</svg>
