<?xml version="1.0" encoding="UTF-8" standalone="no"?>
<!DOCTYPE svg PUBLIC "-//W3C//DTD SVG 1.1//EN"
 "http://www.w3.org/Graphics/SVG/1.1/DTD/svg11.dtd">
<!-- Generated by graphviz version 11.0.0 (0)
 -->
<!-- Title: DGtal::OrderedAssociativeCategory Pages: 1 -->
<svg width="695pt" height="179pt"
 viewBox="0.00 0.00 695.25 179.25" xmlns="http://www.w3.org/2000/svg" xmlns:xlink="http://www.w3.org/1999/xlink">
<g id="graph0" class="graph" transform="scale(1 1) rotate(0) translate(4 175.25)">
<title>DGtal::OrderedAssociativeCategory</title>
<!-- Node1 -->
<g id="Node000001" class="node">
<title>Node1</title>
<g id="a_Node000001"><a xlink:title=" ">
<polygon fill="#999999" stroke="#666666" points="489,-103.38 350.75,-103.38 350.75,-66.88 489,-66.88 489,-103.38"/>
<text text-anchor="start" x="358.75" y="-89.88" font-family="FreeSans" font-size="10.00">DGtal::OrderedAssociative</text>
<text text-anchor="middle" x="419.88" y="-75.62" font-family="FreeSans" font-size="10.00">Category</text>
</a>
</g>
</g>
<!-- Node4 -->
<g id="Node000004" class="node">
<title>Node4</title>
<g id="a_Node000004"><a xlink:href="structDGtal_1_1MapAssociativeCategory.html" target="_top" xlink:title=" ">
<polygon fill="white" stroke="#666666" points="687.25,-171.25 525,-171.25 525,-149 687.25,-149 687.25,-171.25"/>
<text text-anchor="middle" x="606.12" y="-157.75" font-family="FreeSans" font-size="10.00">DGtal::MapAssociativeCategory</text>
</a>
</g>
</g>
<!-- Node1&#45;&gt;Node4 -->
<g id="edge3_Node000001_Node000004" class="edge">
<title>Node1&#45;&gt;Node4</title>
<g id="a_edge3_Node000001_Node000004"><a xlink:title=" ">
<path fill="none" stroke="#63b8ff" d="M461.4,-109.46C480.24,-120 503.25,-131.81 525,-140.12 533.3,-143.3 542.28,-146.11 551.13,-148.55"/>
<polygon fill="#63b8ff" stroke="#63b8ff" points="463.13,-106.42 452.71,-104.51 459.67,-112.5 463.13,-106.42"/>
</a>
</g>
</g>
<!-- Node5 -->
<g id="Node000005" class="node">
<title>Node5</title>
<g id="a_Node000005"><a xlink:href="structDGtal_1_1MultimapAssociativeCategory.html" target="_top" xlink:title=" ">
<polygon fill="white" stroke="#666666" points="677.5,-131.38 534.75,-131.38 534.75,-94.88 677.5,-94.88 677.5,-131.38"/>
<text text-anchor="start" x="542.75" y="-117.88" font-family="FreeSans" font-size="10.00">DGtal::MultimapAssociative</text>
<text text-anchor="middle" x="606.12" y="-103.62" font-family="FreeSans" font-size="10.00">Category</text>
</a>
</g>
</g>
<!-- Node1&#45;&gt;Node5 -->
<g id="edge4_Node000001_Node000005" class="edge">
<title>Node1&#45;&gt;Node5</title>
<g id="a_edge4_Node000001_Node000005"><a xlink:title=" ">
<path fill="none" stroke="#63b8ff" d="M500.59,-97.24C511.81,-98.94 523.27,-100.69 534.3,-102.36"/>
<polygon fill="#63b8ff" stroke="#63b8ff" points="501.39,-93.82 490.98,-95.78 500.34,-100.74 501.39,-93.82"/>
</a>
</g>
</g>
<!-- Node6 -->
<g id="Node000006" class="node">
<title>Node6</title>
<g id="a_Node000006"><a xlink:href="structDGtal_1_1MultisetAssociativeCategory.html" target="_top" xlink:title=" ">
<polygon fill="white" stroke="#666666" points="674.5,-76.38 537.75,-76.38 537.75,-39.88 674.5,-39.88 674.5,-76.38"/>
<text text-anchor="start" x="545.75" y="-62.88" font-family="FreeSans" font-size="10.00">DGtal::MultisetAssociative</text>
<text text-anchor="middle" x="606.12" y="-48.62" font-family="FreeSans" font-size="10.00">Category</text>
</a>
</g>
</g>
<!-- Node1&#45;&gt;Node6 -->
<g id="edge5_Node000001_Node000006" class="edge">
<title>Node1&#45;&gt;Node6</title>
<g id="a_edge5_Node000001_Node000006"><a xlink:title=" ">
<path fill="none" stroke="#63b8ff" d="M500.62,-73.44C512.87,-71.64 525.42,-69.8 537.38,-68.05"/>
<polygon fill="#63b8ff" stroke="#63b8ff" points="500.37,-69.94 490.98,-74.85 501.38,-76.86 500.37,-69.94"/>
</a>
</g>
</g>
<!-- Node7 -->
<g id="Node000007" class="node">
<title>Node7</title>
<g id="a_Node000007"><a xlink:href="structDGtal_1_1SetAssociativeCategory.html" target="_top" xlink:title=" ">
<polygon fill="white" stroke="#666666" points="684.62,-22.25 527.62,-22.25 527.62,0 684.62,0 684.62,-22.25"/>
<text text-anchor="middle" x="606.12" y="-8.75" font-family="FreeSans" font-size="10.00">DGtal::SetAssociativeCategory</text>
</a>
</g>
</g>
<!-- Node1&#45;&gt;Node7 -->
<g id="edge6_Node000001_Node000007" class="edge">
<title>Node1&#45;&gt;Node7</title>
<g id="a_edge6_Node000001_Node000007"><a xlink:title=" ">
<path fill="none" stroke="#63b8ff" d="M461.87,-61.04C480.64,-50.75 503.46,-39.27 525,-31.12 533.45,-27.93 542.59,-25.1 551.58,-22.64"/>
<polygon fill="#63b8ff" stroke="#63b8ff" points="460.24,-57.94 453.21,-65.86 463.65,-64.05 460.24,-57.94"/>
</a>
</g>
</g>
<!-- Node2 -->
<g id="Node000002" class="node">
<title>Node2</title>
<g id="a_Node000002"><a xlink:href="structDGtal_1_1AssociativeCategory.html" target="_top" xlink:title=" ">
<polygon fill="white" stroke="#666666" points="314.75,-96.25 172.75,-96.25 172.75,-74 314.75,-74 314.75,-96.25"/>
<text text-anchor="middle" x="243.75" y="-82.75" font-family="FreeSans" font-size="10.00">DGtal::AssociativeCategory</text>
</a>
</g>
</g>
<!-- Node2&#45;&gt;Node1 -->
<g id="edge1_Node000001_Node000002" class="edge">
<title>Node2&#45;&gt;Node1</title>
<g id="a_edge1_Node000001_Node000002"><a xlink:title=" ">
<path fill="none" stroke="#63b8ff" d="M326.33,-85.12C334.34,-85.12 342.41,-85.12 350.27,-85.12"/>
<polygon fill="#63b8ff" stroke="#63b8ff" points="326.58,-81.63 316.58,-85.13 326.58,-88.63 326.58,-81.63"/>
</a>
</g>
</g>
<!-- Node3 -->
<g id="Node000003" class="node">
<title>Node3</title>
<g id="a_Node000003"><a xlink:href="structDGtal_1_1ContainerCategory.html" target="_top" xlink:title=" ">
<polygon fill="white" stroke="#666666" points="136.75,-96.25 0,-96.25 0,-74 136.75,-74 136.75,-96.25"/>
<text text-anchor="middle" x="68.38" y="-82.75" font-family="FreeSans" font-size="10.00">DGtal::ContainerCategory</text>
</a>
</g>
</g>
<!-- Node3&#45;&gt;Node2 -->
<g id="edge2_Node000002_Node000003" class="edge">
<title>Node3&#45;&gt;Node2</title>
<g id="a_edge2_Node000002_Node000003"><a xlink:title=" ">
<path fill="none" stroke="#63b8ff" d="M148.17,-85.12C156.2,-85.12 164.32,-85.12 172.26,-85.12"/>
<polygon fill="#63b8ff" stroke="#63b8ff" points="148.42,-81.63 138.42,-85.13 148.42,-88.63 148.42,-81.63"/>
</a>
</g>
</g>
</g>
</svg>
