<?xml version="1.0" encoding="UTF-8" standalone="no"?>
<!DOCTYPE svg PUBLIC "-//W3C//DTD SVG 1.1//EN"
 "http://www.w3.org/Graphics/SVG/1.1/DTD/svg11.dtd">
<!-- Generated by graphviz version 11.0.0 (0)
 -->
<!-- Title: DGtal::SimpleAssociativeCategory Pages: 1 -->
<svg width="690pt" height="194pt"
 viewBox="0.00 0.00 690.00 193.50" xmlns="http://www.w3.org/2000/svg" xmlns:xlink="http://www.w3.org/1999/xlink">
<g id="graph0" class="graph" transform="scale(1 1) rotate(0) translate(4 189.5)">
<title>DGtal::SimpleAssociativeCategory</title>
<!-- Node1 -->
<g id="Node000001" class="node">
<title>Node1</title>
<g id="a_Node000001"><a xlink:title=" ">
<polygon fill="#999999" stroke="#666666" points="480.75,-114.5 350.75,-114.5 350.75,-78 480.75,-78 480.75,-114.5"/>
<text text-anchor="start" x="358.75" y="-101" font-family="FreeSans" font-size="10.00">DGtal::SimpleAssociative</text>
<text text-anchor="middle" x="415.75" y="-86.75" font-family="FreeSans" font-size="10.00">Category</text>
</a>
</g>
</g>
<!-- Node4 -->
<g id="Node000004" class="node">
<title>Node4</title>
<g id="a_Node000004"><a xlink:href="structDGtal_1_1MultisetAssociativeCategory.html" target="_top" xlink:title=" ">
<polygon fill="white" stroke="#666666" points="667.75,-185.5 531,-185.5 531,-149 667.75,-149 667.75,-185.5"/>
<text text-anchor="start" x="539" y="-172" font-family="FreeSans" font-size="10.00">DGtal::MultisetAssociative</text>
<text text-anchor="middle" x="599.38" y="-157.75" font-family="FreeSans" font-size="10.00">Category</text>
</a>
</g>
</g>
<!-- Node1&#45;&gt;Node4 -->
<g id="edge3_Node000001_Node000004" class="edge">
<title>Node1&#45;&gt;Node4</title>
<g id="a_edge3_Node000001_Node000004"><a xlink:title=" ">
<path fill="none" stroke="#63b8ff" d="M466.88,-119.42C482.7,-126.43 500.34,-133.94 516.75,-140.25 524.13,-143.09 531.96,-145.91 539.73,-148.6"/>
<polygon fill="#63b8ff" stroke="#63b8ff" points="468.71,-116.41 458.15,-115.52 465.85,-122.8 468.71,-116.41"/>
</a>
</g>
</g>
<!-- Node5 -->
<g id="Node000005" class="node">
<title>Node5</title>
<g id="a_Node000005"><a xlink:href="structDGtal_1_1SetAssociativeCategory.html" target="_top" xlink:title=" ">
<polygon fill="white" stroke="#666666" points="677.88,-131.38 520.88,-131.38 520.88,-109.12 677.88,-109.12 677.88,-131.38"/>
<text text-anchor="middle" x="599.38" y="-117.88" font-family="FreeSans" font-size="10.00">DGtal::SetAssociativeCategory</text>
</a>
</g>
</g>
<!-- Node1&#45;&gt;Node5 -->
<g id="edge4_Node000001_Node000005" class="edge">
<title>Node1&#45;&gt;Node5</title>
<g id="a_edge4_Node000001_Node000005"><a xlink:title=" ">
<path fill="none" stroke="#63b8ff" d="M492.27,-106.23C501.58,-107.46 511.12,-108.72 520.47,-109.96"/>
<polygon fill="#63b8ff" stroke="#63b8ff" points="492.91,-102.78 482.54,-104.94 492,-109.72 492.91,-102.78"/>
</a>
</g>
</g>
<!-- Node6 -->
<g id="Node000006" class="node">
<title>Node6</title>
<g id="a_Node000006"><a xlink:href="structDGtal_1_1UnorderedMultisetAssociativeCategory.html" target="_top" xlink:title=" ">
<polygon fill="white" stroke="#666666" points="667.75,-91.5 531,-91.5 531,-55 667.75,-55 667.75,-91.5"/>
<text text-anchor="start" x="539" y="-78" font-family="FreeSans" font-size="10.00">DGtal::UnorderedMultiset</text>
<text text-anchor="middle" x="599.38" y="-63.75" font-family="FreeSans" font-size="10.00">AssociativeCategory</text>
</a>
</g>
</g>
<!-- Node1&#45;&gt;Node6 -->
<g id="edge5_Node000001_Node000006" class="edge">
<title>Node1&#45;&gt;Node6</title>
<g id="a_edge5_Node000001_Node000006"><a xlink:title=" ">
<path fill="none" stroke="#63b8ff" d="M492.16,-86.7C504.97,-85.08 518.2,-83.4 530.79,-81.81"/>
<polygon fill="#63b8ff" stroke="#63b8ff" points="492.02,-83.19 482.54,-87.92 492.9,-90.13 492.02,-83.19"/>
</a>
</g>
</g>
<!-- Node7 -->
<g id="Node000007" class="node">
<title>Node7</title>
<g id="a_Node000007"><a xlink:href="structDGtal_1_1UnorderedSetAssociativeCategory.html" target="_top" xlink:title=" ">
<polygon fill="white" stroke="#666666" points="682,-36.5 516.75,-36.5 516.75,0 682,0 682,-36.5"/>
<text text-anchor="start" x="524.75" y="-23" font-family="FreeSans" font-size="10.00">DGtal::UnorderedSetAssociative</text>
<text text-anchor="middle" x="599.38" y="-8.75" font-family="FreeSans" font-size="10.00">Category</text>
</a>
</g>
</g>
<!-- Node1&#45;&gt;Node7 -->
<g id="edge6_Node000001_Node000007" class="edge">
<title>Node1&#45;&gt;Node7</title>
<g id="a_edge6_Node000001_Node000007"><a xlink:title=" ">
<path fill="none" stroke="#63b8ff" d="M461.61,-72.22C478.64,-63.53 498.37,-53.96 516.75,-46.25 524.49,-43.01 532.74,-39.84 540.93,-36.88"/>
<polygon fill="#63b8ff" stroke="#63b8ff" points="460.01,-69.11 452.73,-76.81 463.23,-75.33 460.01,-69.11"/>
</a>
</g>
</g>
<!-- Node2 -->
<g id="Node000002" class="node">
<title>Node2</title>
<g id="a_Node000002"><a xlink:href="structDGtal_1_1AssociativeCategory.html" target="_top" xlink:title=" ">
<polygon fill="white" stroke="#666666" points="314.75,-107.38 172.75,-107.38 172.75,-85.12 314.75,-85.12 314.75,-107.38"/>
<text text-anchor="middle" x="243.75" y="-93.88" font-family="FreeSans" font-size="10.00">DGtal::AssociativeCategory</text>
</a>
</g>
</g>
<!-- Node2&#45;&gt;Node1 -->
<g id="edge1_Node000001_Node000002" class="edge">
<title>Node2&#45;&gt;Node1</title>
<g id="a_edge1_Node000001_Node000002"><a xlink:title=" ">
<path fill="none" stroke="#63b8ff" d="M326.3,-96.25C334.43,-96.25 342.6,-96.25 350.51,-96.25"/>
<polygon fill="#63b8ff" stroke="#63b8ff" points="326.39,-92.75 316.39,-96.25 326.39,-99.75 326.39,-92.75"/>
</a>
</g>
</g>
<!-- Node3 -->
<g id="Node000003" class="node">
<title>Node3</title>
<g id="a_Node000003"><a xlink:href="structDGtal_1_1ContainerCategory.html" target="_top" xlink:title=" ">
<polygon fill="white" stroke="#666666" points="136.75,-107.38 0,-107.38 0,-85.12 136.75,-85.12 136.75,-107.38"/>
<text text-anchor="middle" x="68.38" y="-93.88" font-family="FreeSans" font-size="10.00">DGtal::ContainerCategory</text>
</a>
</g>
</g>
<!-- Node3&#45;&gt;Node2 -->
<g id="edge2_Node000002_Node000003" class="edge">
<title>Node3&#45;&gt;Node2</title>
<g id="a_edge2_Node000002_Node000003"><a xlink:title=" ">
<path fill="none" stroke="#63b8ff" d="M148.17,-96.25C156.2,-96.25 164.32,-96.25 172.26,-96.25"/>
<polygon fill="#63b8ff" stroke="#63b8ff" points="148.42,-92.75 138.42,-96.25 148.42,-99.75 148.42,-92.75"/>
</a>
</g>
</g>
</g>
</svg>
