<?xml version="1.0" encoding="UTF-8" standalone="no"?>
<!DOCTYPE svg PUBLIC "-//W3C//DTD SVG 1.1//EN"
 "http://www.w3.org/Graphics/SVG/1.1/DTD/svg11.dtd">
<!-- Generated by graphviz version 11.0.0 (0)
 -->
<!-- Title: DGtal::CameraZNearFar Pages: 1 -->
<svg width="364pt" height="161pt"
 viewBox="0.00 0.00 364.38 161.00" xmlns="http://www.w3.org/2000/svg" xmlns:xlink="http://www.w3.org/1999/xlink">
<g id="graph0" class="graph" transform="scale(1 1) rotate(0) translate(4 157)">
<title>DGtal::CameraZNearFar</title>
<!-- Node1 -->
<g id="Node000001" class="node">
<title>Node1</title>
<g id="a_Node000001"><a xlink:title="CameraZNearFar class to set near and far distance.">
<polygon fill="#999999" stroke="#666666" points="236.5,-22.25 108.75,-22.25 108.75,0 236.5,0 236.5,-22.25"/>
<text text-anchor="middle" x="172.62" y="-8.75" font-family="FreeSans" font-size="10.00">DGtal::CameraZNearFar</text>
</a>
</g>
</g>
<!-- Node2 -->
<g id="Node000002" class="node">
<title>Node2</title>
<g id="a_Node000002"><a xlink:href="structDGtal_1_1DrawWithBoard3DTo2DModifier.html" target="_top" xlink:title="Base class specifying the methods for classes which intend to modify a Viewer3D stream.">
<polygon fill="white" stroke="#666666" points="155.75,-94.75 5.5,-94.75 5.5,-58.25 155.75,-58.25 155.75,-94.75"/>
<text text-anchor="start" x="13.5" y="-81.25" font-family="FreeSans" font-size="10.00">DGtal::DrawWithBoard3DTo2</text>
<text text-anchor="middle" x="80.62" y="-67" font-family="FreeSans" font-size="10.00">DModifier</text>
</a>
</g>
</g>
<!-- Node2&#45;&gt;Node1 -->
<g id="edge1_Node000001_Node000002" class="edge">
<title>Node2&#45;&gt;Node1</title>
<g id="a_edge1_Node000001_Node000002"><a xlink:title=" ">
<path fill="none" stroke="#63b8ff" d="M115.43,-51.52C129.84,-41.59 145.82,-30.59 157.21,-22.74"/>
<polygon fill="#63b8ff" stroke="#63b8ff" points="113.75,-48.43 107.5,-56.99 117.72,-54.2 113.75,-48.43"/>
</a>
</g>
</g>
<!-- Node3 -->
<g id="Node000003" class="node">
<title>Node3</title>
<g id="a_Node000003"><a xlink:href="structDGtal_1_1DrawableWithDisplay3D.html" target="_top" xlink:title=" ">
<polygon fill="white" stroke="#666666" points="159.25,-153 0,-153 0,-130.75 159.25,-130.75 159.25,-153"/>
<text text-anchor="middle" x="79.62" y="-139.5" font-family="FreeSans" font-size="10.00">DGtal::DrawableWithDisplay3D</text>
</a>
</g>
</g>
<!-- Node3&#45;&gt;Node2 -->
<g id="edge2_Node000002_Node000003" class="edge">
<title>Node3&#45;&gt;Node2</title>
<g id="a_edge2_Node000002_Node000003"><a xlink:title=" ">
<path fill="none" stroke="#63b8ff" d="M79.97,-119.17C80.09,-111.35 80.23,-102.61 80.35,-95.17"/>
<polygon fill="#63b8ff" stroke="#63b8ff" points="76.47,-118.84 79.81,-128.9 83.47,-118.95 76.47,-118.84"/>
</a>
</g>
</g>
<!-- Node4 -->
<g id="Node000004" class="node">
<title>Node4</title>
<g id="a_Node000004"><a xlink:href="structDGtal_1_1DrawWithViewer3DModifier.html" target="_top" xlink:title="Base class specifying the methods for classes which intend to modify a Viewer3D stream.">
<polygon fill="white" stroke="#666666" points="353.62,-87.62 175.62,-87.62 175.62,-65.38 353.62,-65.38 353.62,-87.62"/>
<text text-anchor="middle" x="264.62" y="-74.12" font-family="FreeSans" font-size="10.00">DGtal::DrawWithViewer3DModifier</text>
</a>
</g>
</g>
<!-- Node4&#45;&gt;Node1 -->
<g id="edge3_Node000001_Node000004" class="edge">
<title>Node4&#45;&gt;Node1</title>
<g id="a_edge3_Node000001_Node000004"><a xlink:title=" ">
<path fill="none" stroke="#63b8ff" d="M240.29,-58.74C223.65,-47.27 202.1,-32.43 187.84,-22.61"/>
<polygon fill="#63b8ff" stroke="#63b8ff" points="237.97,-61.39 248.19,-64.18 241.94,-55.62 237.97,-61.39"/>
</a>
</g>
</g>
<!-- Node5 -->
<g id="Node000005" class="node">
<title>Node5</title>
<g id="a_Node000005"><a xlink:href="structDGtal_1_1DrawWithDisplay3DModifier.html" target="_top" xlink:title="Base class specifying the methods for classes which intend to modify a Viewer3D stream.">
<polygon fill="white" stroke="#666666" points="356.38,-153 176.88,-153 176.88,-130.75 356.38,-130.75 356.38,-153"/>
<text text-anchor="middle" x="266.62" y="-139.5" font-family="FreeSans" font-size="10.00">DGtal::DrawWithDisplay3DModifier</text>
</a>
</g>
</g>
<!-- Node5&#45;&gt;Node4 -->
<g id="edge4_Node000004_Node000005" class="edge">
<title>Node5&#45;&gt;Node4</title>
<g id="a_edge4_Node000004_Node000005"><a xlink:title=" ">
<path fill="none" stroke="#63b8ff" d="M265.94,-119.04C265.6,-108.44 265.22,-96.2 264.95,-87.77"/>
<polygon fill="#63b8ff" stroke="#63b8ff" points="262.43,-119.01 266.25,-128.9 269.43,-118.79 262.43,-119.01"/>
</a>
</g>
</g>
</g>
</svg>
