<?xml version="1.0" encoding="UTF-8" standalone="no"?>
<!DOCTYPE svg PUBLIC "-//W3C//DTD SVG 1.1//EN"
 "http://www.w3.org/Graphics/SVG/1.1/DTD/svg11.dtd">
<!-- Generated by graphviz version 11.0.0 (0)
 -->
<!-- Title: DGtal::concepts::CPointFunctor&lt; T &gt; Pages: 1 -->
<svg width="1871pt" height="123pt"
 viewBox="0.00 0.00 1871.00 122.50" xmlns="http://www.w3.org/2000/svg" xmlns:xlink="http://www.w3.org/1999/xlink">
<g id="graph0" class="graph" transform="scale(1 1) rotate(0) translate(4 118.5)">
<title>DGtal::concepts::CPointFunctor&lt; T &gt;</title>
<!-- Node1 -->
<g id="Node000001" class="node">
<title>Node1</title>
<g id="a_Node000001"><a xlink:title="Aim: Defines a functor on points.">
<polygon fill="#999999" stroke="#666666" points="1030.25,-80.38 847,-80.38 847,-58.12 1030.25,-58.12 1030.25,-80.38"/>
<text text-anchor="middle" x="938.62" y="-66.88" font-family="FreeSans" font-size="10.00">DGtal::concepts::CPointFunctor&lt; T &gt;</text>
</a>
</g>
</g>
<!-- Node7 -->
<g id="Node000007" class="node">
<title>Node7</title>
<g id="a_Node000007"><a xlink:href="structDGtal_1_1concepts_1_1COrientationFunctor.html" target="_top" xlink:title="Aim: This concept gathers models implementing an orientation test of &#160;points in a space of dimension ...">
<polygon fill="white" stroke="#666666" points="1257,-113.5 1102.25,-113.5 1102.25,-77 1257,-77 1257,-113.5"/>
<text text-anchor="start" x="1110.25" y="-100" font-family="FreeSans" font-size="10.00">DGtal::concepts::COrientation</text>
<text text-anchor="middle" x="1179.62" y="-85.75" font-family="FreeSans" font-size="10.00">Functor&lt; T &gt;</text>
</a>
</g>
</g>
<!-- Node1&#45;&gt;Node7 -->
<g id="edge6_Node000001_Node000007" class="edge">
<title>Node1&#45;&gt;Node7</title>
<g id="a_edge6_Node000001_Node000007"><a xlink:title=" ">
<path fill="none" stroke="#63b8ff" d="M1042.05,-80.39C1062.1,-82.57 1082.81,-84.83 1101.86,-86.9"/>
<polygon fill="#63b8ff" stroke="#63b8ff" points="1042.49,-76.92 1032.17,-79.32 1041.73,-83.88 1042.49,-76.92"/>
</a>
</g>
</g>
<!-- Node9 -->
<g id="Node000009" class="node">
<title>Node9</title>
<g id="a_Node000009"><a xlink:href="structDGtal_1_1concepts_1_1CPointFunctor.html" target="_top" xlink:title=" ">
<polygon fill="white" stroke="#666666" points="1270.5,-57.38 1088.75,-57.38 1088.75,-35.12 1270.5,-35.12 1270.5,-57.38"/>
<text text-anchor="middle" x="1179.62" y="-43.88" font-family="FreeSans" font-size="10.00">DGtal::concepts::CPointFunctor&lt; I &gt;</text>
</a>
</g>
</g>
<!-- Node1&#45;&gt;Node9 -->
<g id="edge8_Node000001_Node000009" class="edge">
<title>Node1&#45;&gt;Node9</title>
<g id="a_edge8_Node000001_Node000009"><a xlink:title=" ">
<path fill="none" stroke="orange" stroke-dasharray="5,2" d="M1035.14,-56.38C1039.57,-55.89 1043.95,-55.43 1048.25,-55 1061.23,-53.71 1074.96,-52.56 1088.44,-51.55"/>
<polygon fill="orange" stroke="orange" points="1035.11,-52.86 1025.57,-57.47 1035.9,-59.81 1035.11,-52.86"/>
</a>
</g>
<text text-anchor="middle" x="1059.5" y="-59" font-family="FreeSans" font-size="10.00" fill="grey"> &lt; I &gt;</text>
</g>
<!-- Node2 -->
<g id="Node000002" class="node">
<title>Node2</title>
<g id="a_Node000002"><a xlink:href="structDGtal_1_1concepts_1_1CUnaryFunctor.html" target="_top" xlink:title=" ">
<polygon fill="white" stroke="#666666" points="811,-87.5 645,-87.5 645,-51 811,-51 811,-87.5"/>
<text text-anchor="start" x="653" y="-74" font-family="FreeSans" font-size="10.00">DGtal::concepts::CUnaryFunctor</text>
<text text-anchor="middle" x="728" y="-59.75" font-family="FreeSans" font-size="10.00">&lt; T, T::Point, T::Value &gt;</text>
</a>
</g>
</g>
<!-- Node2&#45;&gt;Node1 -->
<g id="edge1_Node000001_Node000002" class="edge">
<title>Node2&#45;&gt;Node1</title>
<g id="a_edge1_Node000001_Node000002"><a xlink:title=" ">
<path fill="none" stroke="#63b8ff" d="M822.71,-69.25C830.73,-69.25 838.84,-69.25 846.83,-69.25"/>
<polygon fill="#63b8ff" stroke="#63b8ff" points="822.97,-65.75 812.97,-69.25 822.97,-72.75 822.97,-65.75"/>
</a>
</g>
</g>
<!-- Node3 -->
<g id="Node000003" class="node">
<title>Node3</title>
<g id="a_Node000003"><a xlink:href="structboost_1_1Assignable.html" target="_top" xlink:title="Go to http://www.sgi.com/tech/stl/Assignable.html.">
<polygon fill="white" stroke="#666666" points="479.25,-104.38 359.75,-104.38 359.75,-82.12 479.25,-82.12 479.25,-104.38"/>
<text text-anchor="middle" x="419.5" y="-90.88" font-family="FreeSans" font-size="10.00">boost::Assignable&lt; T &gt;</text>
</a>
</g>
</g>
<!-- Node3&#45;&gt;Node2 -->
<g id="edge2_Node000002_Node000003" class="edge">
<title>Node3&#45;&gt;Node2</title>
<g id="a_edge2_Node000002_Node000003"><a xlink:title=" ">
<path fill="none" stroke="#63b8ff" d="M490.92,-87.74C536.72,-84.15 596.62,-79.46 644.62,-75.7"/>
<polygon fill="#63b8ff" stroke="#63b8ff" points="490.8,-84.23 481.11,-88.5 491.35,-91.21 490.8,-84.23"/>
</a>
</g>
</g>
<!-- Node4 -->
<g id="Node000004" class="node">
<title>Node4</title>
<g id="a_Node000004"><a xlink:href="structDGtal_1_1concepts_1_1CUnaryFunctor.html" target="_top" xlink:title="Aim: Defines a unary functor, which associates arguments to results.">
<polygon fill="white" stroke="#666666" points="502.5,-64.5 336.5,-64.5 336.5,-28 502.5,-28 502.5,-64.5"/>
<text text-anchor="start" x="344.5" y="-51" font-family="FreeSans" font-size="10.00">DGtal::concepts::CUnaryFunctor</text>
<text text-anchor="middle" x="419.5" y="-36.75" font-family="FreeSans" font-size="10.00">&lt; X, A, R &gt;</text>
</a>
</g>
</g>
<!-- Node4&#45;&gt;Node2 -->
<g id="edge3_Node000002_Node000004" class="edge">
<title>Node4&#45;&gt;Node2</title>
<g id="a_edge3_Node000002_Node000004"><a xlink:title=" ">
<path fill="none" stroke="orange" stroke-dasharray="5,2" d="M514.28,-49.75C549.65,-51.43 590.21,-53.79 627,-57 632.75,-57.5 638.68,-58.08 644.65,-58.7"/>
<polygon fill="orange" stroke="orange" points="514.65,-46.26 504.5,-49.29 514.33,-53.25 514.65,-46.26"/>
</a>
</g>
<text text-anchor="middle" x="573.75" y="-61" font-family="FreeSans" font-size="10.00" fill="grey"> &lt; T, T::Point, T::Value &gt;</text>
</g>
<!-- Node5 -->
<g id="Node000005" class="node">
<title>Node5</title>
<g id="a_Node000005"><a xlink:href="structboost_1_1Assignable.html" target="_top" xlink:title=" ">
<polygon fill="white" stroke="#666666" points="300.5,-57.38 180.25,-57.38 180.25,-35.12 300.5,-35.12 300.5,-57.38"/>
<text text-anchor="middle" x="240.38" y="-43.88" font-family="FreeSans" font-size="10.00">boost::Assignable&lt; X &gt;</text>
</a>
</g>
</g>
<!-- Node5&#45;&gt;Node4 -->
<g id="edge4_Node000004_Node000005" class="edge">
<title>Node5&#45;&gt;Node4</title>
<g id="a_edge4_Node000004_Node000005"><a xlink:title=" ">
<path fill="none" stroke="#63b8ff" d="M312.23,-46.25C320.11,-46.25 328.19,-46.25 336.2,-46.25"/>
<polygon fill="#63b8ff" stroke="#63b8ff" points="312.36,-42.75 302.36,-46.25 312.36,-49.75 312.36,-42.75"/>
</a>
</g>
</g>
<!-- Node6 -->
<g id="Node000006" class="node">
<title>Node6</title>
<g id="a_Node000006"><a xlink:href="structboost_1_1Assignable.html" target="_top" xlink:title="Go to http://www.sgi.com/tech/stl/Assignable.html.">
<polygon fill="white" stroke="#666666" points="119.5,-57.38 0,-57.38 0,-35.12 119.5,-35.12 119.5,-57.38"/>
<text text-anchor="middle" x="59.75" y="-43.88" font-family="FreeSans" font-size="10.00">boost::Assignable&lt; T &gt;</text>
</a>
</g>
</g>
<!-- Node6&#45;&gt;Node5 -->
<g id="edge5_Node000005_Node000006" class="edge">
<title>Node6&#45;&gt;Node5</title>
<g id="a_edge5_Node000005_Node000006"><a xlink:title=" ">
<path fill="none" stroke="orange" stroke-dasharray="5,2" d="M130.79,-46.25C147.01,-46.25 164.12,-46.25 179.84,-46.25"/>
<polygon fill="orange" stroke="orange" points="131.25,-42.75 121.25,-46.25 131.25,-49.75 131.25,-42.75"/>
</a>
</g>
<text text-anchor="middle" x="149.88" y="-51" font-family="FreeSans" font-size="10.00" fill="grey"> &lt; X &gt;</text>
</g>
<!-- Node8 -->
<g id="Node000008" class="node">
<title>Node8</title>
<g id="a_Node000008"><a xlink:href="structDGtal_1_1concepts_1_1COrientationFunctor2.html" target="_top" xlink:title="Aim: This concept is a refinement of COrientationFunctor, useful for simple algebraic curves that can...">
<polygon fill="white" stroke="#666666" points="1461.25,-114.5 1306.5,-114.5 1306.5,-78 1461.25,-78 1461.25,-114.5"/>
<text text-anchor="start" x="1314.5" y="-101" font-family="FreeSans" font-size="10.00">DGtal::concepts::COrientation</text>
<text text-anchor="middle" x="1383.88" y="-86.75" font-family="FreeSans" font-size="10.00">Functor2&lt; T &gt;</text>
</a>
</g>
</g>
<!-- Node7&#45;&gt;Node8 -->
<g id="edge7_Node000007_Node000008" class="edge">
<title>Node7&#45;&gt;Node8</title>
<g id="a_edge7_Node000007_Node000008"><a xlink:title=" ">
<path fill="none" stroke="#63b8ff" d="M1268.73,-95.69C1281.2,-95.75 1293.94,-95.81 1306.18,-95.87"/>
<polygon fill="#63b8ff" stroke="#63b8ff" points="1268.91,-92.19 1258.89,-95.64 1268.87,-99.19 1268.91,-92.19"/>
</a>
</g>
</g>
<!-- Node10 -->
<g id="Node000010" class="node">
<title>Node10</title>
<g id="a_Node000010"><a xlink:href="structDGtal_1_1concepts_1_1CTrivialConstImage.html" target="_top" xlink:title="Aim: Defines the concept describing a read&#45;only image, which is a refinement of CPointFunctor.">
<polygon fill="white" stroke="#666666" points="1448.12,-59.5 1319.62,-59.5 1319.62,-23 1448.12,-23 1448.12,-59.5"/>
<text text-anchor="start" x="1327.62" y="-46" font-family="FreeSans" font-size="10.00">DGtal::concepts::CTrivial</text>
<text text-anchor="middle" x="1383.88" y="-31.75" font-family="FreeSans" font-size="10.00">ConstImage&lt; I &gt;</text>
</a>
</g>
</g>
<!-- Node9&#45;&gt;Node10 -->
<g id="edge9_Node000009_Node000010" class="edge">
<title>Node9&#45;&gt;Node10</title>
<g id="a_edge9_Node000009_Node000010"><a xlink:title=" ">
<path fill="none" stroke="#63b8ff" d="M1281.94,-43.75C1294.64,-43.43 1307.33,-43.12 1319.22,-42.82"/>
<polygon fill="#63b8ff" stroke="#63b8ff" points="1282.23,-40.24 1272.32,-43.98 1282.4,-47.23 1282.23,-40.24"/>
</a>
</g>
</g>
<!-- Node11 -->
<g id="Node000011" class="node">
<title>Node11</title>
<g id="a_Node000011"><a xlink:href="structDGtal_1_1concepts_1_1CConstImage.html" target="_top" xlink:title="Aim: Defines the concept describing a read&#45;only image, which is a refinement of CPointFunctor.">
<polygon fill="white" stroke="#666666" points="1675.25,-76.38 1497.25,-76.38 1497.25,-54.12 1675.25,-54.12 1675.25,-76.38"/>
<text text-anchor="middle" x="1586.25" y="-62.88" font-family="FreeSans" font-size="10.00">DGtal::concepts::CConstImage&lt; I &gt;</text>
</a>
</g>
</g>
<!-- Node10&#45;&gt;Node11 -->
<g id="edge10_Node000010_Node000011" class="edge">
<title>Node10&#45;&gt;Node11</title>
<g id="a_edge10_Node000010_Node000011"><a xlink:title=" ">
<path fill="none" stroke="#63b8ff" d="M1459.92,-50.24C1471.96,-51.68 1484.53,-53.19 1496.85,-54.66"/>
<polygon fill="#63b8ff" stroke="#63b8ff" points="1460.4,-46.77 1450.05,-49.06 1459.57,-53.72 1460.4,-46.77"/>
</a>
</g>
</g>
<!-- Node13 -->
<g id="Node000013" class="node">
<title>Node13</title>
<g id="a_Node000013"><a xlink:href="structDGtal_1_1concepts_1_1CTrivialImage.html" target="_top" xlink:title="Aim: Defines the concept describing an image without extra ranges, which is a refinement of CTrivialC...">
<polygon fill="white" stroke="#666666" points="1650.5,-36.5 1522,-36.5 1522,0 1650.5,0 1650.5,-36.5"/>
<text text-anchor="start" x="1530" y="-23" font-family="FreeSans" font-size="10.00">DGtal::concepts::CTrivial</text>
<text text-anchor="middle" x="1586.25" y="-8.75" font-family="FreeSans" font-size="10.00">Image&lt; I &gt;</text>
</a>
</g>
</g>
<!-- Node10&#45;&gt;Node13 -->
<g id="edge12_Node000010_Node000013" class="edge">
<title>Node10&#45;&gt;Node13</title>
<g id="a_edge12_Node000010_Node000013"><a xlink:title=" ">
<path fill="none" stroke="#63b8ff" d="M1459.71,-32.66C1480.12,-30.32 1502.03,-27.8 1521.74,-25.54"/>
<polygon fill="#63b8ff" stroke="#63b8ff" points="1459.59,-29.15 1450.05,-33.77 1460.39,-36.11 1459.59,-29.15"/>
</a>
</g>
</g>
<!-- Node12 -->
<g id="Node000012" class="node">
<title>Node12</title>
<g id="a_Node000012"><a xlink:href="structDGtal_1_1concepts_1_1CImage.html" target="_top" xlink:title="Aim: Defines the concept describing a read/write image, having an output iterator.">
<polygon fill="white" stroke="#666666" points="1863,-52.38 1711.25,-52.38 1711.25,-30.12 1863,-30.12 1863,-52.38"/>
<text text-anchor="middle" x="1787.12" y="-38.88" font-family="FreeSans" font-size="10.00">DGtal::concepts::CImage&lt; I &gt;</text>
</a>
</g>
</g>
<!-- Node11&#45;&gt;Node12 -->
<g id="edge11_Node000011_Node000012" class="edge">
<title>Node11&#45;&gt;Node12</title>
<g id="a_edge11_Node000011_Node000012"><a xlink:title=" ">
<path fill="none" stroke="#63b8ff" d="M1686.94,-53.22C1694.96,-52.25 1702.97,-51.29 1710.77,-50.34"/>
<polygon fill="#63b8ff" stroke="#63b8ff" points="1686.65,-49.73 1677.14,-54.4 1687.49,-56.68 1686.65,-49.73"/>
</a>
</g>
</g>
<!-- Node13&#45;&gt;Node12 -->
<g id="edge13_Node000013_Node000012" class="edge">
<title>Node13&#45;&gt;Node12</title>
<g id="a_edge13_Node000013_Node000012"><a xlink:title=" ">
<path fill="none" stroke="#63b8ff" d="M1662.39,-26.94C1678.28,-28.78 1695.05,-30.72 1710.94,-32.56"/>
<polygon fill="#63b8ff" stroke="#63b8ff" points="1662.84,-23.47 1652.5,-25.8 1662.03,-30.42 1662.84,-23.47"/>
</a>
</g>
</g>
</g>
</svg>
