<?xml version="1.0" encoding="UTF-8" standalone="no"?>
<!DOCTYPE svg PUBLIC "-//W3C//DTD SVG 1.1//EN"
 "http://www.w3.org/Graphics/SVG/1.1/DTD/svg11.dtd">
<!-- Generated by graphviz version 11.0.0 (0)
 -->
<!-- Title: DGtal::functors::ConstantPointPredicate&lt; TPoint, boolCst &gt; Pages: 1 -->
<svg width="565pt" height="128pt"
 viewBox="0.00 0.00 564.50 127.75" xmlns="http://www.w3.org/2000/svg" xmlns:xlink="http://www.w3.org/1999/xlink">
<g id="graph0" class="graph" transform="scale(1 1) rotate(0) translate(4 123.75)">
<title>DGtal::functors::ConstantPointPredicate&lt; TPoint, boolCst &gt;</title>
<!-- Node1 -->
<g id="Node000001" class="node">
<title>Node1</title>
<g id="a_Node000001"><a xlink:title="Aim: The predicate that returns always the same value boolCst.">
<polygon fill="#999999" stroke="#666666" points="134.5,-84.75 0,-84.75 0,-34 134.5,-34 134.5,-84.75"/>
<text text-anchor="start" x="8" y="-71.25" font-family="FreeSans" font-size="10.00">DGtal::functors::Constant</text>
<text text-anchor="start" x="8" y="-57" font-family="FreeSans" font-size="10.00">PointPredicate&lt; TPoint,</text>
<text text-anchor="middle" x="67.25" y="-42.75" font-family="FreeSans" font-size="10.00"> boolCst &gt;</text>
</a>
</g>
</g>
<!-- Node2 -->
<g id="Node000002" class="node">
<title>Node2</title>
<g id="a_Node000002"><a xlink:href="structDGtal_1_1functors_1_1ConstantPointPredicate.html" target="_top" xlink:title=" ">
<polygon fill="white" stroke="#666666" points="380,-119.75 245.5,-119.75 245.5,-69 380,-69 380,-119.75"/>
<text text-anchor="start" x="253.5" y="-106.25" font-family="FreeSans" font-size="10.00">DGtal::functors::Constant</text>
<text text-anchor="start" x="253.5" y="-92" font-family="FreeSans" font-size="10.00">PointPredicate&lt; TPoint,</text>
<text text-anchor="middle" x="312.75" y="-77.75" font-family="FreeSans" font-size="10.00"> false &gt;</text>
</a>
</g>
</g>
<!-- Node1&#45;&gt;Node2 -->
<g id="edge1_Node000001_Node000002" class="edge">
<title>Node1&#45;&gt;Node2</title>
<g id="a_edge1_Node000001_Node000002"><a xlink:title=" ">
<path fill="none" stroke="orange" stroke-dasharray="5,2" d="M145.89,-70.53C177.88,-75.13 214.57,-80.41 245.29,-84.82"/>
<polygon fill="orange" stroke="orange" points="146.68,-67.11 136.29,-69.15 145.69,-74.04 146.68,-67.11"/>
</a>
</g>
<text text-anchor="middle" x="190" y="-86.12" font-family="FreeSans" font-size="10.00" fill="grey"> &lt; TPoint, false &gt;</text>
</g>
<!-- Node4 -->
<g id="Node000004" class="node">
<title>Node4</title>
<g id="a_Node000004"><a xlink:href="structDGtal_1_1functors_1_1ConstantPointPredicate.html" target="_top" xlink:title=" ">
<polygon fill="white" stroke="#666666" points="380,-50.75 245.5,-50.75 245.5,0 380,0 380,-50.75"/>
<text text-anchor="start" x="253.5" y="-37.25" font-family="FreeSans" font-size="10.00">DGtal::functors::Constant</text>
<text text-anchor="start" x="253.5" y="-23" font-family="FreeSans" font-size="10.00">PointPredicate&lt; TPoint,</text>
<text text-anchor="middle" x="312.75" y="-8.75" font-family="FreeSans" font-size="10.00"> true &gt;</text>
</a>
</g>
</g>
<!-- Node1&#45;&gt;Node4 -->
<g id="edge3_Node000001_Node000004" class="edge">
<title>Node1&#45;&gt;Node4</title>
<g id="a_edge3_Node000001_Node000004"><a xlink:title=" ">
<path fill="none" stroke="orange" stroke-dasharray="5,2" d="M145.89,-48.53C177.88,-44.07 214.57,-38.94 245.29,-34.65"/>
<polygon fill="orange" stroke="orange" points="145.71,-45.03 136.29,-49.88 146.67,-51.96 145.71,-45.03"/>
</a>
</g>
<text text-anchor="middle" x="190" y="-52.12" font-family="FreeSans" font-size="10.00" fill="grey"> &lt; TPoint, true &gt;</text>
</g>
<!-- Node3 -->
<g id="Node000003" class="node">
<title>Node3</title>
<g id="a_Node000003"><a xlink:href="structDGtal_1_1functors_1_1FalsePointPredicate.html" target="_top" xlink:title="Aim: The predicate that returns always false.">
<polygon fill="white" stroke="#666666" points="556.5,-112.62 416,-112.62 416,-76.12 556.5,-76.12 556.5,-112.62"/>
<text text-anchor="start" x="424" y="-99.12" font-family="FreeSans" font-size="10.00">DGtal::functors::FalsePoint</text>
<text text-anchor="middle" x="486.25" y="-84.88" font-family="FreeSans" font-size="10.00">Predicate&lt; TPoint &gt;</text>
</a>
</g>
</g>
<!-- Node2&#45;&gt;Node3 -->
<g id="edge2_Node000002_Node000003" class="edge">
<title>Node2&#45;&gt;Node3</title>
<g id="a_edge2_Node000002_Node000003"><a xlink:title=" ">
<path fill="none" stroke="#63b8ff" d="M391.41,-94.38C399.51,-94.38 407.71,-94.38 415.71,-94.38"/>
<polygon fill="#63b8ff" stroke="#63b8ff" points="391.57,-90.88 381.57,-94.38 391.57,-97.88 391.57,-90.88"/>
</a>
</g>
</g>
<!-- Node5 -->
<g id="Node000005" class="node">
<title>Node5</title>
<g id="a_Node000005"><a xlink:href="structDGtal_1_1functors_1_1TruePointPredicate.html" target="_top" xlink:title="Aim: The predicate that returns always true.">
<polygon fill="white" stroke="#666666" points="555.75,-43.62 416.75,-43.62 416.75,-7.12 555.75,-7.12 555.75,-43.62"/>
<text text-anchor="start" x="424.75" y="-30.12" font-family="FreeSans" font-size="10.00">DGtal::functors::TruePoint</text>
<text text-anchor="middle" x="486.25" y="-15.88" font-family="FreeSans" font-size="10.00">Predicate&lt; TPoint &gt;</text>
</a>
</g>
</g>
<!-- Node4&#45;&gt;Node5 -->
<g id="edge4_Node000004_Node000005" class="edge">
<title>Node4&#45;&gt;Node5</title>
<g id="a_edge4_Node000004_Node000005"><a xlink:title=" ">
<path fill="none" stroke="#63b8ff" d="M391.31,-25.38C399.64,-25.38 408.07,-25.38 416.28,-25.38"/>
<polygon fill="#63b8ff" stroke="#63b8ff" points="391.57,-21.88 381.57,-25.38 391.57,-28.88 391.57,-21.88"/>
</a>
</g>
</g>
</g>
</svg>
