<?xml version="1.0" encoding="UTF-8" standalone="no"?>
<!DOCTYPE svg PUBLIC "-//W3C//DTD SVG 1.1//EN"
 "http://www.w3.org/Graphics/SVG/1.1/DTD/svg11.dtd">
<!-- Generated by graphviz version 11.0.0 (0)
 -->
<!-- Title: boost::CopyConstructible&lt; T &gt; Pages: 1 -->
<!--zoomable 925 -->

<svg id="main" version="1.1" xmlns="http://www.w3.org/2000/svg" xmlns:xlink="http://www.w3.org/1999/xlink" xml:space="preserve" onload="init(evt)">
<style type="text/css"><![CDATA[
.node, .edge {opacity: 0.7;}
.node.selected, .edge.selected {opacity: 1;}
.edge:hover path { stroke: red; }
.edge:hover polygon { stroke: red; fill: red; }
]]></style>

<defs>
  <circle id="rim" cx="0" cy="0" r="7"/>
  <circle id="rim2" cx="0" cy="0" r="3.5"/>
  <g id="zoomPlus">
    <use xlink:href="#rim" fill="#404040"><set attributeName="fill" to="#808080" begin="zoomplus.mouseover" end="zoomplus.mouseout"/></use>
    <path d="M-4,0h8M0,-4v8" fill="none" stroke="white" stroke-width="1.5" pointer-events="none"/>
  </g>
  <g id="zoomMin">
    <use xlink:href="#rim" fill="#404040"><set attributeName="fill" to="#808080" begin="zoomminus.mouseover" end="zoomminus.mouseout"/></use>
    <path d="M-4,0h8" fill="none" stroke="white" stroke-width="1.5" pointer-events="none"/>
  </g>
  <g id="arrowUp" transform="translate(30 24)">
    <use xlink:href="#rim"/>
    <path pointer-events="none" fill="none" stroke="white" stroke-width="1.5" d="M0,-3.0v7 M-2.5,-0.5L0,-3.0L2.5,-0.5"/>
  </g>
  <g id="arrowRight" transform="rotate(90) translate(36 -43)">
    <use xlink:href="#rim"/>
    <path pointer-events="none" fill="none" stroke="white" stroke-width="1.5" d="M0,-3.0v7 M-2.5,-0.5L0,-3.0L2.5,-0.5"/>
  </g>
  <g id="arrowDown" transform="rotate(180) translate(-30 -48)">
    <use xlink:href="#rim"/>
    <path pointer-events="none" fill="none" stroke="white" stroke-width="1.5" d="M0,-3.0v7 M-2.5,-0.5L0,-3.0L2.5,-0.5"/>
  </g>
  <g id="arrowLeft" transform="rotate(270) translate(-36 17)">
    <use xlink:href="#rim"/>
    <path pointer-events="none" fill="none" stroke="white" stroke-width="1.5" d="M0,-3.0v7 M-2.5,-0.5L0,-3.0L2.5,-0.5"/>
  </g>
  <g id="resetDef">
    <use xlink:href="#rim2" fill="#404040"><set attributeName="fill" to="#808080" begin="reset.mouseover" end="reset.mouseout"/></use>
  </g>
</defs>
<script type="application/ecmascript">
var viewWidth = 1386;
var viewHeight = 925;
var sectionId = 'dynsection-0';
</script>
<script type="application/ecmascript" xlink:href="svg.min.js"/>
<svg id="graph" class="graph">
<g id="viewport">
<title>boost::CopyConstructible&lt; T &gt;</title>
<!-- Node1 -->
<g id="Node000001" class="node">
<title>Node1</title>
<g id="a_Node000001"><a xlink:title="Go to http://www.sgi.com/tech/stl/CopyConstructible.html.">
<polygon fill="#999999" stroke="#666666" points="154.75,-476.38 0,-476.38 0,-454.12 154.75,-454.12 154.75,-476.38"/>
<text text-anchor="middle" x="77.38" y="-462.88" font-family="FreeSans" font-size="10.00">boost::CopyConstructible&lt; T &gt;</text>
</a>
</g>
</g>
<!-- Node2 -->
<g id="Node000002" class="node">
<title>Node2</title>
<g id="a_Node000002"><a xlink:href="structDGtal_1_1C2x2DetComputer.html" target="_top" xlink:title="Aim: This concept gathers all models that are able to compute the (sign of the) determinant of a 2x2 ...">
<polygon fill="white" stroke="#666666" points="364.62,-917.38 206.88,-917.38 206.88,-895.12 364.62,-895.12 364.62,-917.38"/>
<text text-anchor="middle" x="285.75" y="-903.88" font-family="FreeSans" font-size="10.00">DGtal::C2x2DetComputer&lt; T &gt;</text>
</a>
</g>
</g>
<!-- Node1&#45;&gt;Node2 -->
<g id="edge1_Node000001_Node000002" class="edge">
<title>Node1&#45;&gt;Node2</title>
<g id="a_edge1_Node000001_Node000002"><a xlink:title=" ">
<path fill="none" stroke="#63b8ff" d="M81.28,-487.76C91.91,-566.78 131.27,-829.74 190.75,-886.25 195.47,-890.73 200.93,-894.31 206.8,-897.16"/>
<polygon fill="#63b8ff" stroke="#63b8ff" points="84.8,-487.68 80.02,-478.22 77.86,-488.59 84.8,-487.68"/>
</a>
</g>
</g>
<!-- Node3 -->
<g id="Node000003" class="node">
<title>Node3</title>
<g id="a_Node000003"><a xlink:href="structDGtal_1_1concepts_1_1CBinner.html" target="_top" xlink:title="Aim: Represents an object that places a quantity into a bin, i.e. a functor that associates a natural...">
<polygon fill="white" stroke="#666666" points="363.12,-877.38 208.38,-877.38 208.38,-855.12 363.12,-855.12 363.12,-877.38"/>
<text text-anchor="middle" x="285.75" y="-863.88" font-family="FreeSans" font-size="10.00">DGtal::concepts::CBinner&lt; T &gt;</text>
</a>
</g>
</g>
<!-- Node1&#45;&gt;Node3 -->
<g id="edge2_Node000001_Node000003" class="edge">
<title>Node1&#45;&gt;Node3</title>
<g id="a_edge2_Node000001_Node000003"><a xlink:title=" ">
<path fill="none" stroke="#63b8ff" d="M77.66,-488.2C76.94,-554.52 84.47,-747.87 190.75,-846.25 195.89,-851.01 201.88,-854.75 208.29,-857.67"/>
<polygon fill="#63b8ff" stroke="#63b8ff" points="81.16,-488.28 77.86,-478.22 74.16,-488.14 81.16,-488.28"/>
</a>
</g>
</g>
<!-- Node4 -->
<g id="Node000004" class="node">
<title>Node4</title>
<g id="a_Node000004"><a xlink:href="structDGtal_1_1concepts_1_1CDigitalSet.html" target="_top" xlink:title="Aim: Represents a set of points within the given domain. This set of points is modifiable by the user...">
<polygon fill="white" stroke="#666666" points="351.12,-837.5 220.38,-837.5 220.38,-801 351.12,-801 351.12,-837.5"/>
<text text-anchor="start" x="228.38" y="-824" font-family="FreeSans" font-size="10.00">DGtal::concepts::CDigital</text>
<text text-anchor="middle" x="285.75" y="-809.75" font-family="FreeSans" font-size="10.00">Set&lt; T &gt;</text>
</a>
</g>
</g>
<!-- Node1&#45;&gt;Node4 -->
<g id="edge3_Node000001_Node000004" class="edge">
<title>Node1&#45;&gt;Node4</title>
<g id="a_edge3_Node000001_Node000004"><a xlink:title=" ">
<path fill="none" stroke="#63b8ff" d="M79.38,-488.03C83.23,-546.99 101.76,-705.96 190.75,-791.25 198.99,-799.14 209.35,-804.82 220.16,-808.91"/>
<polygon fill="#63b8ff" stroke="#63b8ff" points="82.88,-488.03 78.83,-478.24 75.89,-488.42 82.88,-488.03"/>
</a>
</g>
</g>
<!-- Node5 -->
<g id="Node000005" class="node">
<title>Node5</title>
<g id="a_Node000005"><a xlink:href="structDGtal_1_1concepts_1_1CDigitalSurfaceContainer.html" target="_top" xlink:title="Aim: The digital surface container concept describes a minimal set of inner types and methods so as t...">
<polygon fill="white" stroke="#666666" points="351.12,-782.5 220.38,-782.5 220.38,-746 351.12,-746 351.12,-782.5"/>
<text text-anchor="start" x="228.38" y="-769" font-family="FreeSans" font-size="10.00">DGtal::concepts::CDigital</text>
<text text-anchor="middle" x="285.75" y="-754.75" font-family="FreeSans" font-size="10.00">SurfaceContainer&lt; T &gt;</text>
</a>
</g>
</g>
<!-- Node1&#45;&gt;Node5 -->
<g id="edge4_Node000001_Node000005" class="edge">
<title>Node1&#45;&gt;Node5</title>
<g id="a_edge4_Node000001_Node000005"><a xlink:title=" ">
<path fill="none" stroke="#63b8ff" d="M81.19,-487.96C88.82,-539.82 114.73,-667.73 190.75,-736.25 199.1,-743.77 209.39,-749.28 220.07,-753.31"/>
<polygon fill="#63b8ff" stroke="#63b8ff" points="84.68,-487.69 79.86,-478.26 77.75,-488.64 84.68,-487.69"/>
</a>
</g>
</g>
<!-- Node6 -->
<g id="Node000006" class="node">
<title>Node6</title>
<g id="a_Node000006"><a xlink:href="structDGtal_1_1concepts_1_1CDigitalSurfaceTracker.html" target="_top" xlink:title="Aim:">
<polygon fill="white" stroke="#666666" points="351.12,-727.5 220.38,-727.5 220.38,-691 351.12,-691 351.12,-727.5"/>
<text text-anchor="start" x="228.38" y="-714" font-family="FreeSans" font-size="10.00">DGtal::concepts::CDigital</text>
<text text-anchor="middle" x="285.75" y="-699.75" font-family="FreeSans" font-size="10.00">SurfaceTracker&lt; T &gt;</text>
</a>
</g>
</g>
<!-- Node1&#45;&gt;Node6 -->
<g id="edge5_Node000001_Node000006" class="edge">
<title>Node1&#45;&gt;Node6</title>
<g id="a_edge5_Node000001_Node000006"><a xlink:title=" ">
<path fill="none" stroke="#63b8ff" d="M83.63,-487.62C95.15,-531.67 126.85,-629.91 190.75,-682.25 199.29,-689.24 209.55,-694.43 220.11,-698.27"/>
<polygon fill="#63b8ff" stroke="#63b8ff" points="87.09,-487.04 81.27,-478.18 80.3,-488.73 87.09,-487.04"/>
</a>
</g>
</g>
<!-- Node7 -->
<g id="Node000007" class="node">
<title>Node7</title>
<g id="a_Node000007"><a xlink:href="structDGtal_1_1concepts_1_1CGraphVisitor.html" target="_top" xlink:title="Aim: Defines the concept of a visitor onto a graph, that is an object that traverses vertices of the ...">
<polygon fill="white" stroke="#666666" points="376.25,-673.38 195.25,-673.38 195.25,-651.12 376.25,-651.12 376.25,-673.38"/>
<text text-anchor="middle" x="285.75" y="-659.88" font-family="FreeSans" font-size="10.00">DGtal::concepts::CGraphVisitor&lt; T &gt;</text>
</a>
</g>
</g>
<!-- Node1&#45;&gt;Node7 -->
<g id="edge6_Node000001_Node000007" class="edge">
<title>Node1&#45;&gt;Node7</title>
<g id="a_edge6_Node000001_Node000007"><a xlink:title=" ">
<path fill="none" stroke="#63b8ff" d="M85.74,-486.96C99.78,-524.89 134.14,-602.9 190.75,-642.25 195.55,-645.58 200.79,-648.38 206.26,-650.72"/>
<polygon fill="#63b8ff" stroke="#63b8ff" points="89.2,-486.24 82.54,-477.99 82.6,-488.59 89.2,-486.24"/>
</a>
</g>
</g>
<!-- Node8 -->
<g id="Node000008" class="node">
<title>Node8</title>
<g id="a_Node000008"><a xlink:href="structDGtal_1_1concepts_1_1CLMSTDSSFilter.html" target="_top" xlink:title="Aim: Defines the concept describing a functor which filters DSSes for L&#45;MST calculations.">
<polygon fill="white" stroke="#666666" points="380.75,-633.38 190.75,-633.38 190.75,-611.12 380.75,-611.12 380.75,-633.38"/>
<text text-anchor="middle" x="285.75" y="-619.88" font-family="FreeSans" font-size="10.00">DGtal::concepts::CLMSTDSSFilter&lt; T &gt;</text>
</a>
</g>
</g>
<!-- Node1&#45;&gt;Node8 -->
<g id="edge7_Node000001_Node000008" class="edge">
<title>Node1&#45;&gt;Node8</title>
<g id="a_edge7_Node000001_Node000008"><a xlink:title=" ">
<path fill="none" stroke="#63b8ff" d="M89.73,-486.74C107.15,-517.48 143.47,-573.48 190.75,-602.25 196.31,-605.63 202.36,-608.45 208.61,-610.79"/>
<polygon fill="#63b8ff" stroke="#63b8ff" points="92.8,-485.06 84.91,-477.98 86.66,-488.43 92.8,-485.06"/>
</a>
</g>
</g>
<!-- Node9 -->
<g id="Node000009" class="node">
<title>Node9</title>
<g id="a_Node000009"><a xlink:href="structDGtal_1_1concepts_1_1CLMSTTangentFromDSS.html" target="_top" xlink:title="Aim: Defines the concept describing a functor which calculates a direction of the 2D DSS and an eccen...">
<polygon fill="white" stroke="#666666" points="368,-593.5 203.5,-593.5 203.5,-557 368,-557 368,-593.5"/>
<text text-anchor="start" x="211.5" y="-580" font-family="FreeSans" font-size="10.00">DGtal::concepts::CLMSTTangent</text>
<text text-anchor="middle" x="285.75" y="-565.75" font-family="FreeSans" font-size="10.00">FromDSS&lt; T &gt;</text>
</a>
</g>
</g>
<!-- Node1&#45;&gt;Node9 -->
<g id="edge8_Node000001_Node000009" class="edge">
<title>Node1&#45;&gt;Node9</title>
<g id="a_edge8_Node000001_Node000009"><a xlink:title=" ">
<path fill="none" stroke="#63b8ff" d="M99.56,-484.16C121.14,-502.56 156.25,-530.16 190.75,-547.25 197.77,-550.73 205.3,-553.86 212.93,-556.66"/>
<polygon fill="#63b8ff" stroke="#63b8ff" points="101.91,-481.56 92.06,-477.66 97.32,-486.85 101.91,-481.56"/>
</a>
</g>
</g>
<!-- Node10 -->
<g id="Node000010" class="node">
<title>Node10</title>
<g id="a_Node000010"><a xlink:href="structDGtal_1_1concepts_1_1CMetricSpace.html" target="_top" xlink:title="Aim: defines the concept of metric spaces.">
<polygon fill="white" stroke="#666666" points="351.5,-538.5 220,-538.5 220,-502 351.5,-502 351.5,-538.5"/>
<text text-anchor="start" x="228" y="-525" font-family="FreeSans" font-size="10.00">DGtal::concepts::CMetric</text>
<text text-anchor="middle" x="285.75" y="-510.75" font-family="FreeSans" font-size="10.00">Space&lt; T &gt;</text>
</a>
</g>
</g>
<!-- Node1&#45;&gt;Node10 -->
<g id="edge9_Node000001_Node000010" class="edge">
<title>Node1&#45;&gt;Node10</title>
<g id="a_edge9_Node000001_Node000010"><a xlink:title=" ">
<path fill="none" stroke="#63b8ff" d="M132.93,-479.79C159.57,-486.89 191.82,-495.48 219.73,-502.92"/>
<polygon fill="#63b8ff" stroke="#63b8ff" points="133.92,-476.43 123.35,-477.24 132.11,-483.19 133.92,-476.43"/>
</a>
</g>
</g>
<!-- Node13 -->
<g id="Node000013" class="node">
<title>Node13</title>
<g id="a_Node000013"><a xlink:href="structDGtal_1_1concepts_1_1CPolarPointComparator2D.html" target="_top" xlink:title="Aim: This concept gathers classes that are able to compare the position of two given points &#160;around a...">
<polygon fill="white" stroke="#666666" points="360.5,-483.5 211,-483.5 211,-447 360.5,-447 360.5,-483.5"/>
<text text-anchor="start" x="219" y="-470" font-family="FreeSans" font-size="10.00">DGtal::concepts::CPolarPoint</text>
<text text-anchor="middle" x="285.75" y="-455.75" font-family="FreeSans" font-size="10.00">Comparator2D&lt; T &gt;</text>
</a>
</g>
</g>
<!-- Node1&#45;&gt;Node13 -->
<g id="edge12_Node000001_Node000013" class="edge">
<title>Node1&#45;&gt;Node13</title>
<g id="a_edge12_Node000001_Node000013"><a xlink:title=" ">
<path fill="none" stroke="#63b8ff" d="M166.38,-465.25C181.1,-465.25 196.25,-465.25 210.58,-465.25"/>
<polygon fill="#63b8ff" stroke="#63b8ff" points="166.74,-461.75 156.73,-465.25 166.73,-468.75 166.74,-461.75"/>
</a>
</g>
</g>
<!-- Node14 -->
<g id="Node000014" class="node">
<title>Node14</title>
<g id="a_Node000014"><a xlink:href="structDGtal_1_1concepts_1_1CPositiveIrreducibleFraction.html" target="_top" xlink:title="Aim: Defines positive irreducible fractions, i.e. fraction p/q, p and q non&#45;negative integers,...">
<polygon fill="white" stroke="#666666" points="354.5,-428.5 217,-428.5 217,-392 354.5,-392 354.5,-428.5"/>
<text text-anchor="start" x="225" y="-415" font-family="FreeSans" font-size="10.00">DGtal::concepts::CPositive</text>
<text text-anchor="middle" x="285.75" y="-400.75" font-family="FreeSans" font-size="10.00">IrreducibleFraction&lt; T &gt;</text>
</a>
</g>
</g>
<!-- Node1&#45;&gt;Node14 -->
<g id="edge13_Node000001_Node000014" class="edge">
<title>Node1&#45;&gt;Node14</title>
<g id="a_edge13_Node000001_Node000014"><a xlink:title=" ">
<path fill="none" stroke="#63b8ff" d="M132.9,-450.72C158.53,-443.89 189.36,-435.67 216.52,-428.43"/>
<polygon fill="#63b8ff" stroke="#63b8ff" points="132.11,-447.31 123.35,-453.26 133.92,-454.07 132.11,-447.31"/>
</a>
</g>
</g>
<!-- Node15 -->
<g id="Node000015" class="node">
<title>Node15</title>
<g id="a_Node000015"><a xlink:href="structDGtal_1_1concepts_1_1CPowerMetric.html" target="_top" xlink:title="Aim: defines the concept of special weighted metrics, so called power metrics.">
<polygon fill="white" stroke="#666666" points="377.38,-374.38 194.12,-374.38 194.12,-352.12 377.38,-352.12 377.38,-374.38"/>
<text text-anchor="middle" x="285.75" y="-360.88" font-family="FreeSans" font-size="10.00">DGtal::concepts::CPowerMetric&lt; T &gt;</text>
</a>
</g>
</g>
<!-- Node1&#45;&gt;Node15 -->
<g id="edge14_Node000001_Node000015" class="edge">
<title>Node1&#45;&gt;Node15</title>
<g id="a_edge14_Node000001_Node000015"><a xlink:title=" ">
<path fill="none" stroke="#63b8ff" d="M98.93,-446.05C120.27,-427.2 155.4,-399.03 190.75,-383.25 198.21,-379.92 206.27,-377.13 214.41,-374.79"/>
<polygon fill="#63b8ff" stroke="#63b8ff" points="96.62,-443.43 91.54,-452.73 101.31,-448.63 96.62,-443.43"/>
</a>
</g>
</g>
<!-- Node17 -->
<g id="Node000017" class="node">
<title>Node17</title>
<g id="a_Node000017"><a xlink:href="structDGtal_1_1concepts_1_1CPreCellularGridSpaceND.html" target="_top" xlink:title="Aim: This concept describes an unbounded cellular grid space in nD. In these spaces obtained by carte...">
<polygon fill="white" stroke="#666666" points="361.62,-334.5 209.88,-334.5 209.88,-298 361.62,-298 361.62,-334.5"/>
<text text-anchor="start" x="217.88" y="-321" font-family="FreeSans" font-size="10.00">DGtal::concepts::CPreCellular</text>
<text text-anchor="middle" x="285.75" y="-306.75" font-family="FreeSans" font-size="10.00">GridSpaceND&lt; T &gt;</text>
</a>
</g>
</g>
<!-- Node1&#45;&gt;Node17 -->
<g id="edge16_Node000001_Node000017" class="edge">
<title>Node1&#45;&gt;Node17</title>
<g id="a_edge16_Node000001_Node000017"><a xlink:title=" ">
<path fill="none" stroke="#63b8ff" d="M91.94,-444.55C110.86,-417.32 147.73,-369.81 190.75,-343.25 196.67,-339.59 203.11,-336.41 209.75,-333.66"/>
<polygon fill="#63b8ff" stroke="#63b8ff" points="89.16,-442.42 86.44,-452.66 94.95,-446.35 89.16,-442.42"/>
</a>
</g>
</g>
<!-- Node19 -->
<g id="Node000019" class="node">
<title>Node19</title>
<g id="a_Node000019"><a xlink:href="structDGtal_1_1concepts_1_1CPrimitiveComputer.html" target="_top" xlink:title="Aim: Defines the concept describing an object that computes some primitive from input points,...">
<polygon fill="white" stroke="#666666" points="357.12,-279.5 214.38,-279.5 214.38,-243 357.12,-243 357.12,-279.5"/>
<text text-anchor="start" x="222.38" y="-266" font-family="FreeSans" font-size="10.00">DGtal::concepts::CPrimitive</text>
<text text-anchor="middle" x="285.75" y="-251.75" font-family="FreeSans" font-size="10.00">Computer&lt; T &gt;</text>
</a>
</g>
</g>
<!-- Node1&#45;&gt;Node19 -->
<g id="edge18_Node000001_Node000019" class="edge">
<title>Node1&#45;&gt;Node19</title>
<g id="a_edge18_Node000001_Node000019"><a xlink:title=" ">
<path fill="none" stroke="#63b8ff" d="M86.5,-443.09C101.35,-405.71 136.42,-330.21 190.75,-289.25 197.82,-283.92 205.9,-279.6 214.28,-276.1"/>
<polygon fill="#63b8ff" stroke="#63b8ff" points="83.25,-441.79 82.94,-452.38 89.79,-444.3 83.25,-441.79"/>
</a>
</g>
</g>
<!-- Node22 -->
<g id="Node000022" class="node">
<title>Node22</title>
<g id="a_Node000022"><a xlink:href="structDGtal_1_1concepts_1_1CSegment.html" target="_top" xlink:title="Aim: Defines the concept describing a segment, ie. a valid and not empty range.">
<polygon fill="white" stroke="#666666" points="368.38,-225.38 203.12,-225.38 203.12,-203.12 368.38,-203.12 368.38,-225.38"/>
<text text-anchor="middle" x="285.75" y="-211.88" font-family="FreeSans" font-size="10.00">DGtal::concepts::CSegment&lt; T &gt;</text>
</a>
</g>
</g>
<!-- Node1&#45;&gt;Node22 -->
<g id="edge21_Node000001_Node000022" class="edge">
<title>Node1&#45;&gt;Node22</title>
<g id="a_edge21_Node000001_Node000022"><a xlink:title=" ">
<path fill="none" stroke="#63b8ff" d="M82.52,-442.65C92.34,-395.89 121.58,-288.36 190.75,-234.25 194.96,-230.96 199.58,-228.18 204.45,-225.83"/>
<polygon fill="#63b8ff" stroke="#63b8ff" points="79.14,-441.68 80.63,-452.17 86.01,-443.04 79.14,-441.68"/>
</a>
</g>
</g>
<!-- Node29 -->
<g id="Node000029" class="node">
<title>Node29</title>
<g id="a_Node000029"><a xlink:href="structDGtal_1_1concepts_1_1CSegmentComputerEstimator.html" target="_top" xlink:title="Aim: This concept is a refinement of CCurveLocalGeometricEstimator devoted to the estimation of a geo...">
<polygon fill="white" stroke="#666666" points="357.5,-185.5 214,-185.5 214,-149 357.5,-149 357.5,-185.5"/>
<text text-anchor="start" x="222" y="-172" font-family="FreeSans" font-size="10.00">DGtal::concepts::CSegment</text>
<text text-anchor="middle" x="285.75" y="-157.75" font-family="FreeSans" font-size="10.00">ComputerEstimator&lt; T &gt;</text>
</a>
</g>
</g>
<!-- Node1&#45;&gt;Node29 -->
<g id="edge29_Node000001_Node000029" class="edge">
<title>Node1&#45;&gt;Node29</title>
<g id="a_edge29_Node000001_Node000029"><a xlink:title=" ">
<path fill="none" stroke="#63b8ff" d="M81.14,-442.49C88.67,-390.52 114.4,-262.4 190.75,-194.25 197.46,-188.26 205.43,-183.59 213.83,-179.95"/>
<polygon fill="#63b8ff" stroke="#63b8ff" points="77.7,-441.83 79.83,-452.21 84.63,-442.77 77.7,-441.83"/>
</a>
</g>
</g>
<!-- Node30 -->
<g id="Node000030" class="node">
<title>Node30</title>
<g id="a_Node000030"><a xlink:href="structDGtal_1_1concepts_1_1CStack.html" target="_top" xlink:title="Aim: This concept gathers classes that provide a stack interface.">
<polygon fill="white" stroke="#666666" points="359.38,-131.38 212.12,-131.38 212.12,-109.12 359.38,-109.12 359.38,-131.38"/>
<text text-anchor="middle" x="285.75" y="-117.88" font-family="FreeSans" font-size="10.00">DGtal::concepts::CStack&lt; T &gt;</text>
</a>
</g>
</g>
<!-- Node1&#45;&gt;Node30 -->
<g id="edge30_Node000001_Node000030" class="edge">
<title>Node1&#45;&gt;Node30</title>
<g id="a_edge30_Node000001_Node000030"><a xlink:title=" ">
<path fill="none" stroke="#63b8ff" d="M79,-442.53C81.93,-383.07 98.44,-221.83 190.75,-140.25 196.88,-134.84 204.1,-130.76 211.78,-127.71"/>
<polygon fill="#63b8ff" stroke="#63b8ff" points="75.51,-442.26 78.61,-452.39 82.5,-442.54 75.51,-442.26"/>
</a>
</g>
</g>
<!-- Node31 -->
<g id="Node000031" class="node">
<title>Node31</title>
<g id="a_Node000031"><a xlink:href="structDGtal_1_1concepts_1_1CSurfelLocalEstimator.html" target="_top" xlink:title="Aim: This concept describes an object that can process a range of surfels (that are supposed to belon...">
<polygon fill="white" stroke="#666666" points="350.38,-91.5 221.12,-91.5 221.12,-55 350.38,-55 350.38,-91.5"/>
<text text-anchor="start" x="229.12" y="-78" font-family="FreeSans" font-size="10.00">DGtal::concepts::CSurfel</text>
<text text-anchor="middle" x="285.75" y="-63.75" font-family="FreeSans" font-size="10.00">LocalEstimator&lt; T &gt;</text>
</a>
</g>
</g>
<!-- Node1&#45;&gt;Node31 -->
<g id="edge31_Node000001_Node000031" class="edge">
<title>Node1&#45;&gt;Node31</title>
<g id="a_edge31_Node000001_Node000031"><a xlink:title=" ">
<path fill="none" stroke="#63b8ff" d="M78.35,-442.33C79.58,-378.52 92.02,-197.13 190.75,-100.25 199.11,-92.04 209.8,-86.3 220.94,-82.29"/>
<polygon fill="#63b8ff" stroke="#63b8ff" points="74.85,-442.23 78.25,-452.27 81.85,-442.3 74.85,-442.23"/>
</a>
</g>
</g>
<!-- Node33 -->
<g id="Node000033" class="node">
<title>Node33</title>
<g id="a_Node000033"><a xlink:href="structDGtal_1_1deprecated_1_1concepts_1_1CConvolutionWeights.html" target="_top" xlink:title="Aim: defines models of centered convolution kernel used for normal vector integration for instance.">
<polygon fill="white" stroke="#666666" points="377.75,-36.5 193.75,-36.5 193.75,0 377.75,0 377.75,-36.5"/>
<text text-anchor="start" x="201.75" y="-23" font-family="FreeSans" font-size="10.00">DGtal::deprecated::</text>
<text text-anchor="middle" x="285.75" y="-8.75" font-family="FreeSans" font-size="10.00">concepts::CConvolutionWeights&lt; T &gt;</text>
</a>
</g>
</g>
<!-- Node1&#45;&gt;Node33 -->
<g id="edge33_Node000001_Node000033" class="edge">
<title>Node1&#45;&gt;Node33</title>
<g id="a_edge33_Node000001_Node000033"><a xlink:title=" ">
<path fill="none" stroke="#63b8ff" d="M81.52,-442.52C92.85,-363.84 133.91,-104.67 190.75,-46.25 194.19,-42.71 198.06,-39.61 202.22,-36.9"/>
<polygon fill="#63b8ff" stroke="#63b8ff" points="78.06,-442.03 80.12,-452.42 84.99,-443.01 78.06,-442.03"/>
</a>
</g>
</g>
<!-- Node11 -->
<g id="Node000011" class="node">
<title>Node11</title>
<g id="a_Node000011"><a xlink:href="structDGtal_1_1concepts_1_1CDigitalMetricSpace.html" target="_top" xlink:title="Aim: defines the concept of digital metric spaces.">
<polygon fill="white" stroke="#666666" points="570.75,-565.5 440,-565.5 440,-529 570.75,-529 570.75,-565.5"/>
<text text-anchor="start" x="448" y="-552" font-family="FreeSans" font-size="10.00">DGtal::concepts::CDigital</text>
<text text-anchor="middle" x="505.38" y="-537.75" font-family="FreeSans" font-size="10.00">MetricSpace&lt; T &gt;</text>
</a>
</g>
</g>
<!-- Node10&#45;&gt;Node11 -->
<g id="edge10_Node000010_Node000011" class="edge">
<title>Node10&#45;&gt;Node11</title>
<g id="a_edge10_Node000010_Node000011"><a xlink:title=" ">
<path fill="none" stroke="#63b8ff" d="M363.05,-529.72C388.08,-532.82 415.63,-536.24 439.71,-539.23"/>
<polygon fill="#63b8ff" stroke="#63b8ff" points="363.61,-526.26 353.25,-528.5 362.74,-533.21 363.61,-526.26"/>
</a>
</g>
</g>
<!-- Node12 -->
<g id="Node000012" class="node">
<title>Node12</title>
<g id="a_Node000012"><a xlink:href="structDGtal_1_1concepts_1_1CSeparableMetric.html" target="_top" xlink:title="Aim: defines the concept of separable metrics.">
<polygon fill="white" stroke="#666666" points="579,-510.5 431.75,-510.5 431.75,-474 579,-474 579,-510.5"/>
<text text-anchor="start" x="439.75" y="-497" font-family="FreeSans" font-size="10.00">DGtal::concepts::CSeparable</text>
<text text-anchor="middle" x="505.38" y="-482.75" font-family="FreeSans" font-size="10.00">Metric&lt; T &gt;</text>
</a>
</g>
</g>
<!-- Node10&#45;&gt;Node12 -->
<g id="edge11_Node000010_Node000012" class="edge">
<title>Node10&#45;&gt;Node12</title>
<g id="a_edge11_Node000010_Node000012"><a xlink:title=" ">
<path fill="none" stroke="#63b8ff" d="M363.13,-510.42C385.27,-507.57 409.39,-504.47 431.33,-501.65"/>
<polygon fill="#63b8ff" stroke="#63b8ff" points="362.72,-506.95 353.25,-511.69 363.62,-513.89 362.72,-506.95"/>
</a>
</g>
</g>
<!-- Node16 -->
<g id="Node000016" class="node">
<title>Node16</title>
<g id="a_Node000016"><a xlink:href="structDGtal_1_1concepts_1_1CPowerSeparableMetric.html" target="_top" xlink:title="Aim: defines the concept of separable metrics.">
<polygon fill="white" stroke="#666666" points="594,-389.5 416.75,-389.5 416.75,-353 594,-353 594,-389.5"/>
<text text-anchor="start" x="424.75" y="-376" font-family="FreeSans" font-size="10.00">DGtal::concepts::CPowerSeparable</text>
<text text-anchor="middle" x="505.38" y="-361.75" font-family="FreeSans" font-size="10.00">Metric&lt; T &gt;</text>
</a>
</g>
</g>
<!-- Node15&#45;&gt;Node16 -->
<g id="edge15_Node000015_Node000016" class="edge">
<title>Node15&#45;&gt;Node16</title>
<g id="a_edge15_Node000015_Node000016"><a xlink:title=" ">
<path fill="none" stroke="#63b8ff" d="M389.26,-367.02C398.37,-367.35 407.53,-367.69 416.5,-368.02"/>
<polygon fill="#63b8ff" stroke="#63b8ff" points="389.42,-363.52 379.29,-366.65 389.16,-370.52 389.42,-363.52"/>
</a>
</g>
</g>
<!-- Node18 -->
<g id="Node000018" class="node">
<title>Node18</title>
<g id="a_Node000018"><a xlink:href="structDGtal_1_1concepts_1_1CCellularGridSpaceND.html" target="_top" xlink:title="Aim: This concept describes a cellular grid space in nD. In these spaces obtained by cartesian produc...">
<polygon fill="white" stroke="#666666" points="573.38,-334.5 437.38,-334.5 437.38,-298 573.38,-298 573.38,-334.5"/>
<text text-anchor="start" x="445.38" y="-321" font-family="FreeSans" font-size="10.00">DGtal::concepts::CCellular</text>
<text text-anchor="middle" x="505.38" y="-306.75" font-family="FreeSans" font-size="10.00">GridSpaceND&lt; T &gt;</text>
</a>
</g>
</g>
<!-- Node17&#45;&gt;Node18 -->
<g id="edge17_Node000017_Node000018" class="edge">
<title>Node17&#45;&gt;Node18</title>
<g id="a_edge17_Node000017_Node000018"><a xlink:title=" ">
<path fill="none" stroke="#63b8ff" d="M373.28,-316.25C394.54,-316.25 416.99,-316.25 437.18,-316.25"/>
<polygon fill="#63b8ff" stroke="#63b8ff" points="373.46,-312.75 363.46,-316.25 373.46,-319.75 373.46,-312.75"/>
</a>
</g>
</g>
<!-- Node20 -->
<g id="Node000020" class="node">
<title>Node20</title>
<g id="a_Node000020"><a xlink:href="structDGtal_1_1concepts_1_1CIncrementalPrimitiveComputer.html" target="_top" xlink:title="Aim: Defines the concept describing an object that computes some primitive from input points given on...">
<polygon fill="white" stroke="#666666" points="584.25,-279.5 426.5,-279.5 426.5,-243 584.25,-243 584.25,-279.5"/>
<text text-anchor="start" x="434.5" y="-266" font-family="FreeSans" font-size="10.00">DGtal::concepts::CIncremental</text>
<text text-anchor="middle" x="505.38" y="-251.75" font-family="FreeSans" font-size="10.00">PrimitiveComputer&lt; T &gt;</text>
</a>
</g>
</g>
<!-- Node19&#45;&gt;Node20 -->
<g id="edge19_Node000019_Node000020" class="edge">
<title>Node19&#45;&gt;Node20</title>
<g id="a_edge19_Node000019_Node000020"><a xlink:title=" ">
<path fill="none" stroke="#63b8ff" d="M368.66,-261.25C387.5,-261.25 407.49,-261.25 426.17,-261.25"/>
<polygon fill="#63b8ff" stroke="#63b8ff" points="368.92,-257.75 358.92,-261.25 368.92,-264.75 368.92,-257.75"/>
</a>
</g>
</g>
<!-- Node21 -->
<g id="Node000021" class="node">
<title>Node21</title>
<g id="a_Node000021"><a xlink:href="structDGtal_1_1concepts_1_1CAdditivePrimitiveComputer.html" target="_top" xlink:title="Aim: Defines the concept describing an object that computes some primitive from input points given gr...">
<polygon fill="white" stroke="#666666" points="778.75,-279.5 639,-279.5 639,-243 778.75,-243 778.75,-279.5"/>
<text text-anchor="start" x="647" y="-266" font-family="FreeSans" font-size="10.00">DGtal::concepts::CAdditive</text>
<text text-anchor="middle" x="708.88" y="-251.75" font-family="FreeSans" font-size="10.00">PrimitiveComputer&lt; T &gt;</text>
</a>
</g>
</g>
<!-- Node20&#45;&gt;Node21 -->
<g id="edge20_Node000020_Node000021" class="edge">
<title>Node20&#45;&gt;Node21</title>
<g id="a_edge20_Node000020_Node000021"><a xlink:title=" ">
<path fill="none" stroke="#63b8ff" d="M595.95,-261.25C610.25,-261.25 624.85,-261.25 638.59,-261.25"/>
<polygon fill="#63b8ff" stroke="#63b8ff" points="596.08,-257.75 586.08,-261.25 596.08,-264.75 596.08,-257.75"/>
</a>
</g>
</g>
<!-- Node23 -->
<g id="Node000023" class="node">
<title>Node23</title>
<g id="a_Node000023"><a xlink:href="structDGtal_1_1concepts_1_1CSegmentFactory.html" target="_top" xlink:title="Aim: Defines the concept describing a segment ie. a valid and not empty subrange, which can construct...">
<polygon fill="white" stroke="#666666" points="577.12,-224.5 433.62,-224.5 433.62,-188 577.12,-188 577.12,-224.5"/>
<text text-anchor="start" x="441.62" y="-211" font-family="FreeSans" font-size="10.00">DGtal::concepts::CSegment</text>
<text text-anchor="middle" x="505.38" y="-196.75" font-family="FreeSans" font-size="10.00">Factory&lt; T &gt;</text>
</a>
</g>
</g>
<!-- Node22&#45;&gt;Node23 -->
<g id="edge22_Node000022_Node000023" class="edge">
<title>Node22&#45;&gt;Node23</title>
<g id="a_edge22_Node000022_Node000023"><a xlink:title=" ">
<path fill="none" stroke="#63b8ff" d="M380.01,-210.82C397.82,-210.17 416.2,-209.49 433.18,-208.87"/>
<polygon fill="#63b8ff" stroke="#63b8ff" points="380.09,-207.32 370.23,-211.18 380.35,-214.31 380.09,-207.32"/>
</a>
</g>
</g>
<!-- Node24 -->
<g id="Node000024" class="node">
<title>Node24</title>
<g id="a_Node000024"><a xlink:href="structDGtal_1_1concepts_1_1CIncrementalSegmentComputer.html" target="_top" xlink:title="Aim: Defines the concept describing an incremental segment computer, &#160;&#160;ie. a model of CSegmentFactory...">
<polygon fill="white" stroke="#666666" points="787.75,-224.5 630,-224.5 630,-188 787.75,-188 787.75,-224.5"/>
<text text-anchor="start" x="638" y="-211" font-family="FreeSans" font-size="10.00">DGtal::concepts::CIncremental</text>
<text text-anchor="middle" x="708.88" y="-196.75" font-family="FreeSans" font-size="10.00">SegmentComputer&lt; T &gt;</text>
</a>
</g>
</g>
<!-- Node23&#45;&gt;Node24 -->
<g id="edge23_Node000023_Node000024" class="edge">
<title>Node23&#45;&gt;Node24</title>
<g id="a_edge23_Node000023_Node000024"><a xlink:title=" ">
<path fill="none" stroke="#63b8ff" d="M588.65,-206.25C602.18,-206.25 616.16,-206.25 629.59,-206.25"/>
<polygon fill="#63b8ff" stroke="#63b8ff" points="588.93,-202.75 578.93,-206.25 588.93,-209.75 588.93,-202.75"/>
</a>
</g>
</g>
<!-- Node25 -->
<g id="Node000025" class="node">
<title>Node25</title>
<g id="a_Node000025"><a xlink:href="structDGtal_1_1concepts_1_1CForwardSegmentComputer.html" target="_top" xlink:title="Aim: Defines the concept describing a forward segment computer. Like any model of CIncrementalSegment...">
<polygon fill="white" stroke="#666666" points="963.5,-224.5 823.75,-224.5 823.75,-188 963.5,-188 963.5,-224.5"/>
<text text-anchor="start" x="831.75" y="-211" font-family="FreeSans" font-size="10.00">DGtal::concepts::CForward</text>
<text text-anchor="middle" x="893.62" y="-196.75" font-family="FreeSans" font-size="10.00">SegmentComputer&lt; T &gt;</text>
</a>
</g>
</g>
<!-- Node24&#45;&gt;Node25 -->
<g id="edge24_Node000024_Node000025" class="edge">
<title>Node24&#45;&gt;Node25</title>
<g id="a_edge24_Node000024_Node000025"><a xlink:title=" ">
<path fill="none" stroke="#63b8ff" d="M799.5,-206.25C807.54,-206.25 815.6,-206.25 823.43,-206.25"/>
<polygon fill="#63b8ff" stroke="#63b8ff" points="799.69,-202.75 789.69,-206.25 799.69,-209.75 799.69,-202.75"/>
</a>
</g>
</g>
<!-- Node26 -->
<g id="Node000026" class="node">
<title>Node26</title>
<g id="a_Node000026"><a xlink:href="structDGtal_1_1concepts_1_1CBidirectionalSegmentComputer.html" target="_top" xlink:title="Aim: Defines the concept describing a bidirectional segment computer, &#160;&#160;ie. a model of concepts::CSeg...">
<polygon fill="white" stroke="#666666" points="1158,-252.5 999.5,-252.5 999.5,-216 1158,-216 1158,-252.5"/>
<text text-anchor="start" x="1007.5" y="-239" font-family="FreeSans" font-size="10.00">DGtal::concepts::CBidirectional</text>
<text text-anchor="middle" x="1078.75" y="-224.75" font-family="FreeSans" font-size="10.00">SegmentComputer&lt; T &gt;</text>
</a>
</g>
</g>
<!-- Node25&#45;&gt;Node26 -->
<g id="edge25_Node000025_Node000026" class="edge">
<title>Node25&#45;&gt;Node26</title>
<g id="a_edge25_Node000025_Node000026"><a xlink:title=" ">
<path fill="none" stroke="#63b8ff" d="M975.08,-218.55C983.09,-219.78 991.22,-221.02 999.21,-222.24"/>
<polygon fill="#63b8ff" stroke="#63b8ff" points="975.77,-215.12 965.35,-217.06 974.71,-222.04 975.77,-215.12"/>
</a>
</g>
</g>
<!-- Node28 -->
<g id="Node000028" class="node">
<title>Node28</title>
<g id="a_Node000028"><a xlink:href="structDGtal_1_1concepts_1_1CDynamicSegmentComputer.html" target="_top" xlink:title="Aim: Defines the concept describing a dynamic segment computer, &#160;&#160;ie. a model of CSegment that can ex...">
<polygon fill="white" stroke="#666666" points="1149.38,-197.5 1008.12,-197.5 1008.12,-161 1149.38,-161 1149.38,-197.5"/>
<text text-anchor="start" x="1016.12" y="-184" font-family="FreeSans" font-size="10.00">DGtal::concepts::CDynamic</text>
<text text-anchor="middle" x="1078.75" y="-169.75" font-family="FreeSans" font-size="10.00">SegmentComputer&lt; T &gt;</text>
</a>
</g>
</g>
<!-- Node25&#45;&gt;Node28 -->
<g id="edge27_Node000025_Node000028" class="edge">
<title>Node25&#45;&gt;Node28</title>
<g id="a_edge27_Node000025_Node000028"><a xlink:title=" ">
<path fill="none" stroke="#63b8ff" d="M975.11,-194.38C986.01,-192.78 997.12,-191.14 1007.81,-189.56"/>
<polygon fill="#63b8ff" stroke="#63b8ff" points="974.74,-190.9 965.35,-195.82 975.76,-197.83 974.74,-190.9"/>
</a>
</g>
</g>
<!-- Node27 -->
<g id="Node000027" class="node">
<title>Node27</title>
<g id="a_Node000027"><a xlink:href="structDGtal_1_1concepts_1_1CDynamicBidirectionalSegmentComputer.html" target="_top" xlink:title="Aim: Defines the concept describing a dynamic and bidirectional segment computer, ie....">
<polygon fill="white" stroke="#666666" points="1378,-224.5 1194,-224.5 1194,-188 1378,-188 1378,-224.5"/>
<text text-anchor="start" x="1202" y="-211" font-family="FreeSans" font-size="10.00">DGtal::concepts::CDynamic</text>
<text text-anchor="middle" x="1286" y="-196.75" font-family="FreeSans" font-size="10.00">BidirectionalSegmentComputer&lt; T &gt;</text>
</a>
</g>
</g>
<!-- Node26&#45;&gt;Node27 -->
<g id="edge26_Node000026_Node000027" class="edge">
<title>Node26&#45;&gt;Node27</title>
<g id="a_edge26_Node000026_Node000027"><a xlink:title=" ">
<path fill="none" stroke="#63b8ff" d="M1169.43,-222.02C1177.42,-220.93 1185.52,-219.82 1193.52,-218.73"/>
<polygon fill="#63b8ff" stroke="#63b8ff" points="1169.16,-218.52 1159.72,-223.34 1170.11,-225.46 1169.16,-218.52"/>
</a>
</g>
</g>
<!-- Node28&#45;&gt;Node27 -->
<g id="edge28_Node000028_Node000027" class="edge">
<title>Node28&#45;&gt;Node27</title>
<g id="a_edge28_Node000028_Node000027"><a xlink:title=" ">
<path fill="none" stroke="#63b8ff" d="M1160.93,-189.93C1171.74,-191.35 1182.88,-192.82 1193.84,-194.26"/>
<polygon fill="#63b8ff" stroke="#63b8ff" points="1161.68,-186.5 1151.31,-188.66 1160.77,-193.44 1161.68,-186.5"/>
</a>
</g>
</g>
<!-- Node32 -->
<g id="Node000032" class="node">
<title>Node32</title>
<g id="a_Node000032"><a xlink:href="structDGtal_1_1concepts_1_1CDigitalSurfaceLocalEstimator.html" target="_top" xlink:title="Aim: This concept describes an object that can process a range over some generic digital surface so a...">
<polygon fill="white" stroke="#666666" points="575.62,-91.5 435.12,-91.5 435.12,-55 575.62,-55 575.62,-91.5"/>
<text text-anchor="start" x="443.12" y="-78" font-family="FreeSans" font-size="10.00">DGtal::concepts::CDigital</text>
<text text-anchor="middle" x="505.38" y="-63.75" font-family="FreeSans" font-size="10.00">SurfaceLocalEstimator&lt; T &gt;</text>
</a>
</g>
</g>
<!-- Node31&#45;&gt;Node32 -->
<g id="edge32_Node000031_Node000032" class="edge">
<title>Node31&#45;&gt;Node32</title>
<g id="a_edge32_Node000031_Node000032"><a xlink:title=" ">
<path fill="none" stroke="#63b8ff" d="M362.2,-73.25C385.72,-73.25 411.53,-73.25 434.64,-73.25"/>
<polygon fill="#63b8ff" stroke="#63b8ff" points="362.38,-69.75 352.38,-73.25 362.38,-76.75 362.38,-69.75"/>
</a>
</g>
</g>
</g>
</svg>

<g id="navigator" transform="translate(0 0)" fill="#404254">
  <rect fill="#f2f5e9" fill-opacity="0.5" stroke="#606060" stroke-width=".5" x="0" y="0" width="60" height="60"/>
  <use id="zoomplus" xlink:href="#zoomPlus" x="17" y="9" onmousedown="handleZoom(evt,'in')"/>
  <use id="zoomminus" xlink:href="#zoomMin" x="42" y="9" onmousedown="handleZoom(evt,'out')"/>
  <use id="reset" xlink:href="#resetDef" x="30" y="36" onmousedown="handleReset()"/>
   <use id="arrowup" xlink:href="#arrowUp" x="0" y="0" onmousedown="handlePan(0,-1)"/>
  <use id="arrowright" xlink:href="#arrowRight" x="0" y="0" onmousedown="handlePan(1,0)"/>
  <use id="arrowdown" xlink:href="#arrowDown" x="0" y="0" onmousedown="handlePan(0,1)"/>
  <use id="arrowleft" xlink:href="#arrowLeft" x="0" y="0" onmousedown="handlePan(-1,0)"/>
</g>
<svg viewBox="0 0 15 15" width="100%" height="30px" preserveAspectRatio="xMaxYMin meet">
 <g id="arrow_out" transform="scale(0.3 0.3)">
  <a xlink:href="structboost_1_1CopyConstructible__inherit__graph_org.svg" target="_base">
   <rect id="button" ry="5" rx="5" y="6" x="6" height="38" width="38"
        fill="#f2f5e9" fill-opacity="0.5" stroke="#606060" stroke-width="1.0"/>
   <path id="arrow"
     d="M 11.500037,31.436501 C 11.940474,20.09759 22.043105,11.32322 32.158766,21.979434 L 37.068811,17.246167 C 37.068811,17.246167 37.088388,32 37.088388,32 L 22.160133,31.978069 C 22.160133,31.978069 26.997745,27.140456 26.997745,27.140456 C 18.528582,18.264221 13.291696,25.230495 11.500037,31.436501 z"
     style="fill:#404040;"/>
  </a>
 </g>
</svg>

<style type='text/css'>
<![CDATA[
[data-mouse-over-selected='false'] { opacity: 0.7; }
[data-mouse-over-selected='true']  { opacity: 1.0; }
]]>
</style>
<script type="application/ecmascript"><![CDATA[
document.addEventListener('DOMContentLoaded', (event) => {
  highlightEdges();
  highlightAdjacentNodes();
});
]]></script>
</svg>
