<?xml version="1.0" encoding="UTF-8" standalone="no"?>
<!DOCTYPE svg PUBLIC "-//W3C//DTD SVG 1.1//EN"
 "http://www.w3.org/Graphics/SVG/1.1/DTD/svg11.dtd">
<!-- Generated by graphviz version 11.0.0 (0)
 -->
<!-- Title: DGtal::concepts::CSinglePassRangeWithWritableIteratorFromPoint&lt; T, Value &gt; Pages: 1 -->
<svg width="920pt" height="116pt"
 viewBox="0.00 0.00 919.50 115.98" xmlns="http://www.w3.org/2000/svg" xmlns:xlink="http://www.w3.org/1999/xlink">
<g id="graph0" class="graph" transform="scale(1 1) rotate(0) translate(4 111.98)">
<title>DGtal::concepts::CSinglePassRangeWithWritableIteratorFromPoint&lt; T, Value &gt;</title>
<!-- Node1 -->
<g id="Node000001" class="node">
<title>Node1</title>
<g id="a_Node000001"><a xlink:title="Aim: refined concept of single pass range with a outputIterator() method from a point.">
<polygon fill="#999999" stroke="#666666" points="911.5,-74.75 749.25,-74.75 749.25,-24 911.5,-24 911.5,-74.75"/>
<text text-anchor="start" x="757.25" y="-61.25" font-family="FreeSans" font-size="10.00">DGtal::concepts::CSingle</text>
<text text-anchor="start" x="757.25" y="-47" font-family="FreeSans" font-size="10.00">PassRangeWithWritableIterator</text>
<text text-anchor="middle" x="830.38" y="-32.75" font-family="FreeSans" font-size="10.00">FromPoint&lt; T, Value &gt;</text>
</a>
</g>
</g>
<!-- Node2 -->
<g id="Node000002" class="node">
<title>Node2</title>
<g id="a_Node000002"><a xlink:href="structDGtal_1_1concepts_1_1CConstSinglePassRangeFromPoint.html" target="_top" xlink:title=" ">
<polygon fill="white" stroke="#666666" points="712.25,-91.62 546.25,-91.62 546.25,-55.12 712.25,-55.12 712.25,-91.62"/>
<text text-anchor="start" x="554.25" y="-78.12" font-family="FreeSans" font-size="10.00">DGtal::concepts::CConstSingle</text>
<text text-anchor="middle" x="629.25" y="-63.88" font-family="FreeSans" font-size="10.00">PassRangeFromPoint&lt; T, Value &gt;</text>
</a>
</g>
</g>
<!-- Node2&#45;&gt;Node1 -->
<g id="edge1_Node000001_Node000002" class="edge">
<title>Node2&#45;&gt;Node1</title>
<g id="a_edge1_Node000001_Node000002"><a xlink:title=" ">
<path fill="none" stroke="#63b8ff" d="M723.99,-62.08C732.33,-61.07 740.72,-60.06 748.93,-59.07"/>
<polygon fill="#63b8ff" stroke="#63b8ff" points="723.69,-58.59 714.18,-63.26 724.53,-65.54 723.69,-58.59"/>
</a>
</g>
</g>
<!-- Node3 -->
<g id="Node000003" class="node">
<title>Node3</title>
<g id="a_Node000003"><a xlink:href="structDGtal_1_1concepts_1_1CConstSinglePassRange.html" target="_top" xlink:title="Aim: Defines the concept describing a const single pass range.">
<polygon fill="white" stroke="#666666" points="155.5,-89.62 0,-89.62 0,-53.12 155.5,-53.12 155.5,-89.62"/>
<text text-anchor="start" x="8" y="-76.12" font-family="FreeSans" font-size="10.00">DGtal::concepts::CConstSingle</text>
<text text-anchor="middle" x="77.75" y="-61.88" font-family="FreeSans" font-size="10.00">PassRange&lt; T &gt;</text>
</a>
</g>
</g>
<!-- Node3&#45;&gt;Node2 -->
<g id="edge2_Node000002_Node000003" class="edge">
<title>Node3&#45;&gt;Node2</title>
<g id="a_edge2_Node000002_Node000003"><a xlink:title=" ">
<path fill="none" stroke="#63b8ff" d="M157.13,-92.49C168.91,-94.93 180.97,-97.02 192.5,-98.38 340.75,-115.73 379.83,-106.22 528.25,-90.38 534.03,-89.76 539.98,-89.02 545.96,-88.2"/>
<polygon fill="#63b8ff" stroke="#63b8ff" points="157.95,-89.09 147.43,-90.38 156.46,-95.93 157.95,-89.09"/>
</a>
</g>
</g>
<!-- Node4 -->
<g id="Node000004" class="node">
<title>Node4</title>
<g id="a_Node000004"><a xlink:href="structDGtal_1_1concepts_1_1CConstSinglePassRangeFromPoint.html" target="_top" xlink:title="Aim: refined concept of const single pass range with a begin() method from a point.">
<polygon fill="white" stroke="#666666" points="348,-89.62 192.5,-89.62 192.5,-53.12 348,-53.12 348,-89.62"/>
<text text-anchor="start" x="200.5" y="-76.12" font-family="FreeSans" font-size="10.00">DGtal::concepts::CConstSingle</text>
<text text-anchor="middle" x="270.25" y="-61.88" font-family="FreeSans" font-size="10.00">PassRangeFromPoint&lt; T &gt;</text>
</a>
</g>
</g>
<!-- Node3&#45;&gt;Node4 -->
<g id="edge4_Node000004_Node000003" class="edge">
<title>Node3&#45;&gt;Node4</title>
<g id="a_edge4_Node000004_Node000003"><a xlink:title=" ">
<path fill="none" stroke="#63b8ff" d="M167.27,-71.38C175.61,-71.38 184.02,-71.38 192.24,-71.38"/>
<polygon fill="#63b8ff" stroke="#63b8ff" points="167.47,-67.88 157.47,-71.38 167.47,-74.88 167.47,-67.88"/>
</a>
</g>
</g>
<!-- Node5 -->
<g id="Node000005" class="node">
<title>Node5</title>
<g id="a_Node000005"><a xlink:href="structDGtal_1_1concepts_1_1CSinglePassRangeWithWritableIterator.html" target="_top" xlink:title="Aim: refined concept of const single pass range which require that an output iterator exists.">
<polygon fill="white" stroke="#666666" points="528.25,-50.75 366,-50.75 366,0 528.25,0 528.25,-50.75"/>
<text text-anchor="start" x="374" y="-37.25" font-family="FreeSans" font-size="10.00">DGtal::concepts::CSingle</text>
<text text-anchor="start" x="374" y="-23" font-family="FreeSans" font-size="10.00">PassRangeWithWritableIterator</text>
<text text-anchor="middle" x="447.12" y="-8.75" font-family="FreeSans" font-size="10.00">&lt; T, Value &gt;</text>
</a>
</g>
</g>
<!-- Node3&#45;&gt;Node5 -->
<g id="edge6_Node000005_Node000003" class="edge">
<title>Node3&#45;&gt;Node5</title>
<g id="a_edge6_Node000005_Node000003"><a xlink:title=" ">
<path fill="none" stroke="#63b8ff" d="M160.95,-50.24C171.51,-48 182.23,-45.97 192.5,-44.38 249.99,-35.46 315.48,-30.69 365.51,-28.15"/>
<polygon fill="#63b8ff" stroke="#63b8ff" points="160.51,-46.76 151.49,-52.32 162.01,-53.59 160.51,-46.76"/>
</a>
</g>
</g>
<!-- Node4&#45;&gt;Node2 -->
<g id="edge3_Node000002_Node000004" class="edge">
<title>Node4&#45;&gt;Node2</title>
<g id="a_edge3_Node000002_Node000004"><a xlink:title=" ">
<path fill="none" stroke="orange" stroke-dasharray="5,2" d="M359.43,-71.87C416.38,-72.19 489.98,-72.6 545.77,-72.91"/>
<polygon fill="orange" stroke="orange" points="359.81,-68.37 349.79,-71.82 359.77,-75.37 359.81,-68.37"/>
</a>
</g>
<text text-anchor="middle" x="447.12" y="-77.12" font-family="FreeSans" font-size="10.00" fill="grey"> &lt; T, Value &gt;</text>
</g>
<!-- Node5&#45;&gt;Node1 -->
<g id="edge5_Node000001_Node000005" class="edge">
<title>Node5&#45;&gt;Node1</title>
<g id="a_edge5_Node000001_Node000005"><a xlink:title=" ">
<path fill="none" stroke="#63b8ff" d="M539.76,-31.14C603.47,-35.15 687.61,-40.45 748.77,-44.3"/>
<polygon fill="#63b8ff" stroke="#63b8ff" points="540.22,-27.67 530.02,-30.53 539.78,-34.65 540.22,-27.67"/>
</a>
</g>
</g>
</g>
</svg>
