<?xml version="1.0" encoding="UTF-8" standalone="no"?>
<!DOCTYPE svg PUBLIC "-//W3C//DTD SVG 1.1//EN"
 "http://www.w3.org/Graphics/SVG/1.1/DTD/svg11.dtd">
<!-- Generated by graphviz version 11.0.0 (0)
 -->
<!-- Title: DGtal::concepts::CMatrix&lt; T &gt; Pages: 1 -->
<svg width="704pt" height="194pt"
 viewBox="0.00 0.00 704.25 194.38" xmlns="http://www.w3.org/2000/svg" xmlns:xlink="http://www.w3.org/1999/xlink">
<g id="graph0" class="graph" transform="scale(1 1) rotate(0) translate(4 190.38)">
<title>DGtal::concepts::CMatrix&lt; T &gt;</title>
<!-- Node1 -->
<g id="Node000001" class="node">
<title>Node1</title>
<g id="a_Node000001"><a xlink:title="Aim: Represent any static or dynamic sized matrix having sparse or dense representation.">
<polygon fill="#999999" stroke="#666666" points="477,-111.38 323.75,-111.38 323.75,-89.12 477,-89.12 477,-111.38"/>
<text text-anchor="middle" x="400.38" y="-97.88" font-family="FreeSans" font-size="10.00">DGtal::concepts::CMatrix&lt; T &gt;</text>
</a>
</g>
</g>
<!-- Node4 -->
<g id="Node000004" class="node">
<title>Node4</title>
<g id="a_Node000004"><a xlink:href="structDGtal_1_1concepts_1_1CDenseMatrix.html" target="_top" xlink:title="Aim: Represent any dynamic or static sized matrix having dense representation.">
<polygon fill="white" stroke="#666666" points="696.25,-186.38 513,-186.38 513,-164.12 696.25,-164.12 696.25,-186.38"/>
<text text-anchor="middle" x="604.62" y="-172.88" font-family="FreeSans" font-size="10.00">DGtal::concepts::CDenseMatrix&lt; T &gt;</text>
</a>
</g>
</g>
<!-- Node1&#45;&gt;Node4 -->
<g id="edge3_Node000001_Node000004" class="edge">
<title>Node1&#45;&gt;Node4</title>
<g id="a_edge3_Node000001_Node000004"><a xlink:title=" ">
<path fill="none" stroke="#63b8ff" d="M430.94,-117.26C452.96,-129.33 484.09,-145.11 513,-155.25 522.12,-158.45 531.95,-161.25 541.64,-163.66"/>
<polygon fill="#63b8ff" stroke="#63b8ff" points="432.67,-114.22 422.23,-112.42 429.27,-120.34 432.67,-114.22"/>
</a>
</g>
</g>
<!-- Node5 -->
<g id="Node000005" class="node">
<title>Node5</title>
<g id="a_Node000005"><a xlink:href="structDGtal_1_1concepts_1_1CDynamicMatrix.html" target="_top" xlink:title="Aim: Represent any dynamic sized matrix having sparse or dense representation.">
<polygon fill="white" stroke="#666666" points="675.25,-146.5 534,-146.5 534,-110 675.25,-110 675.25,-146.5"/>
<text text-anchor="start" x="542" y="-133" font-family="FreeSans" font-size="10.00">DGtal::concepts::CDynamic</text>
<text text-anchor="middle" x="604.62" y="-118.75" font-family="FreeSans" font-size="10.00">Matrix&lt; T &gt;</text>
</a>
</g>
</g>
<!-- Node1&#45;&gt;Node5 -->
<g id="edge4_Node000001_Node000005" class="edge">
<title>Node1&#45;&gt;Node5</title>
<g id="a_edge4_Node000001_Node000005"><a xlink:title=" ">
<path fill="none" stroke="#63b8ff" d="M488.66,-112.33C503.7,-114.42 519.15,-116.56 533.66,-118.56"/>
<polygon fill="#63b8ff" stroke="#63b8ff" points="489.15,-108.87 478.76,-110.96 488.19,-115.8 489.15,-108.87"/>
</a>
</g>
</g>
<!-- Node6 -->
<g id="Node000006" class="node">
<title>Node6</title>
<g id="a_Node000006"><a xlink:href="structDGtal_1_1concepts_1_1CSparseMatrix.html" target="_top" xlink:title="Aim: Represent any dynamic or static sized matrix having sparse representation.">
<polygon fill="white" stroke="#666666" points="677.5,-91.5 531.75,-91.5 531.75,-55 677.5,-55 677.5,-91.5"/>
<text text-anchor="start" x="539.75" y="-78" font-family="FreeSans" font-size="10.00">DGtal::concepts::CSparse</text>
<text text-anchor="middle" x="604.62" y="-63.75" font-family="FreeSans" font-size="10.00">Matrix&lt; T, TripletInterator &gt;</text>
</a>
</g>
</g>
<!-- Node1&#45;&gt;Node6 -->
<g id="edge5_Node000001_Node000006" class="edge">
<title>Node1&#45;&gt;Node6</title>
<g id="a_edge5_Node000001_Node000006"><a xlink:title=" ">
<path fill="none" stroke="#63b8ff" d="M488.59,-88.61C502.85,-86.7 517.49,-84.75 531.33,-82.9"/>
<polygon fill="#63b8ff" stroke="#63b8ff" points="488.21,-85.13 478.76,-89.92 489.14,-92.06 488.21,-85.13"/>
</a>
</g>
</g>
<!-- Node7 -->
<g id="Node000007" class="node">
<title>Node7</title>
<g id="a_Node000007"><a xlink:href="structDGtal_1_1concepts_1_1CStaticMatrix.html" target="_top" xlink:title="Aim: Represent any static sized matrix having sparse or dense representation.">
<polygon fill="white" stroke="#666666" points="667.75,-36.5 541.5,-36.5 541.5,0 667.75,0 667.75,-36.5"/>
<text text-anchor="start" x="549.5" y="-23" font-family="FreeSans" font-size="10.00">DGtal::concepts::CStatic</text>
<text text-anchor="middle" x="604.62" y="-8.75" font-family="FreeSans" font-size="10.00">Matrix&lt; T &gt;</text>
</a>
</g>
</g>
<!-- Node1&#45;&gt;Node7 -->
<g id="edge6_Node000001_Node000007" class="edge">
<title>Node1&#45;&gt;Node7</title>
<g id="a_edge6_Node000001_Node000007"><a xlink:title=" ">
<path fill="none" stroke="#63b8ff" d="M432.87,-83.43C454.92,-72.05 485.29,-57.16 513,-46.25 522.04,-42.69 531.73,-39.28 541.28,-36.15"/>
<polygon fill="#63b8ff" stroke="#63b8ff" points="431.35,-80.28 424.1,-88.01 434.59,-86.49 431.35,-80.28"/>
</a>
</g>
</g>
<!-- Node2 -->
<g id="Node000002" class="node">
<title>Node2</title>
<g id="a_Node000002"><a xlink:href="structDGtal_1_1concepts_1_1CVectorSpace.html" target="_top" xlink:title="Aim: Base concept for vector space structure.">
<polygon fill="white" stroke="#666666" points="287.75,-118.5 155.5,-118.5 155.5,-82 287.75,-82 287.75,-118.5"/>
<text text-anchor="start" x="163.5" y="-105" font-family="FreeSans" font-size="10.00">DGtal::concepts::CVector</text>
<text text-anchor="middle" x="221.62" y="-90.75" font-family="FreeSans" font-size="10.00">Space&lt; T &gt;</text>
</a>
</g>
</g>
<!-- Node2&#45;&gt;Node1 -->
<g id="edge1_Node000001_Node000002" class="edge">
<title>Node2&#45;&gt;Node1</title>
<g id="a_edge1_Node000001_Node000002"><a xlink:title=" ">
<path fill="none" stroke="#63b8ff" d="M299.65,-100.25C307.56,-100.25 315.59,-100.25 323.48,-100.25"/>
<polygon fill="#63b8ff" stroke="#63b8ff" points="299.7,-96.75 289.7,-100.25 299.7,-103.75 299.7,-96.75"/>
</a>
</g>
</g>
<!-- Node3 -->
<g id="Node000003" class="node">
<title>Node3</title>
<g id="a_Node000003"><a xlink:href="structboost_1_1Assignable.html" target="_top" xlink:title="Go to http://www.sgi.com/tech/stl/Assignable.html.">
<polygon fill="white" stroke="#666666" points="119.5,-111.38 0,-111.38 0,-89.12 119.5,-89.12 119.5,-111.38"/>
<text text-anchor="middle" x="59.75" y="-97.88" font-family="FreeSans" font-size="10.00">boost::Assignable&lt; T &gt;</text>
</a>
</g>
</g>
<!-- Node3&#45;&gt;Node2 -->
<g id="edge2_Node000002_Node000003" class="edge">
<title>Node3&#45;&gt;Node2</title>
<g id="a_edge2_Node000002_Node000003"><a xlink:title=" ">
<path fill="none" stroke="#63b8ff" d="M131.29,-100.25C139.19,-100.25 147.22,-100.25 155.06,-100.25"/>
<polygon fill="#63b8ff" stroke="#63b8ff" points="131.34,-96.75 121.34,-100.25 131.34,-103.75 131.34,-96.75"/>
</a>
</g>
</g>
</g>
</svg>
