<?xml version="1.0" encoding="UTF-8" standalone="no"?>
<!DOCTYPE svg PUBLIC "-//W3C//DTD SVG 1.1//EN"
 "http://www.w3.org/Graphics/SVG/1.1/DTD/svg11.dtd">
<!-- Generated by graphviz version 11.0.0 (0)
 -->
<!-- Title: boost::EqualityComparable&lt; T &gt; Pages: 1 -->
<!--zoomable 276 -->

<svg id="main" version="1.1" xmlns="http://www.w3.org/2000/svg" xmlns:xlink="http://www.w3.org/1999/xlink" xml:space="preserve" onload="init(evt)">
<style type="text/css"><![CDATA[
.node, .edge {opacity: 0.7;}
.node.selected, .edge.selected {opacity: 1;}
.edge:hover path { stroke: red; }
.edge:hover polygon { stroke: red; fill: red; }
]]></style>

<defs>
  <circle id="rim" cx="0" cy="0" r="7"/>
  <circle id="rim2" cx="0" cy="0" r="3.5"/>
  <g id="zoomPlus">
    <use xlink:href="#rim" fill="#404040"><set attributeName="fill" to="#808080" begin="zoomplus.mouseover" end="zoomplus.mouseout"/></use>
    <path d="M-4,0h8M0,-4v8" fill="none" stroke="white" stroke-width="1.5" pointer-events="none"/>
  </g>
  <g id="zoomMin">
    <use xlink:href="#rim" fill="#404040"><set attributeName="fill" to="#808080" begin="zoomminus.mouseover" end="zoomminus.mouseout"/></use>
    <path d="M-4,0h8" fill="none" stroke="white" stroke-width="1.5" pointer-events="none"/>
  </g>
  <g id="arrowUp" transform="translate(30 24)">
    <use xlink:href="#rim"/>
    <path pointer-events="none" fill="none" stroke="white" stroke-width="1.5" d="M0,-3.0v7 M-2.5,-0.5L0,-3.0L2.5,-0.5"/>
  </g>
  <g id="arrowRight" transform="rotate(90) translate(36 -43)">
    <use xlink:href="#rim"/>
    <path pointer-events="none" fill="none" stroke="white" stroke-width="1.5" d="M0,-3.0v7 M-2.5,-0.5L0,-3.0L2.5,-0.5"/>
  </g>
  <g id="arrowDown" transform="rotate(180) translate(-30 -48)">
    <use xlink:href="#rim"/>
    <path pointer-events="none" fill="none" stroke="white" stroke-width="1.5" d="M0,-3.0v7 M-2.5,-0.5L0,-3.0L2.5,-0.5"/>
  </g>
  <g id="arrowLeft" transform="rotate(270) translate(-36 17)">
    <use xlink:href="#rim"/>
    <path pointer-events="none" fill="none" stroke="white" stroke-width="1.5" d="M0,-3.0v7 M-2.5,-0.5L0,-3.0L2.5,-0.5"/>
  </g>
  <g id="resetDef">
    <use xlink:href="#rim2" fill="#404040"><set attributeName="fill" to="#808080" begin="reset.mouseover" end="reset.mouseout"/></use>
  </g>
</defs>
<script type="application/ecmascript">
var viewWidth = 1378;
var viewHeight = 276;
var sectionId = 'dynsection-0';
</script>
<script type="application/ecmascript" xlink:href="svg.min.js"/>
<svg id="graph" class="graph">
<g id="viewport">
<title>boost::EqualityComparable&lt; T &gt;</title>
<!-- Node1 -->
<g id="Node000001" class="node">
<title>Node1</title>
<g id="a_Node000001"><a xlink:title="Go to http://www.sgi.com/tech/stl/EqualityComparable.html.">
<polygon fill="#999999" stroke="#666666" points="161.5,-113.38 0,-113.38 0,-91.12 161.5,-91.12 161.5,-113.38"/>
<text text-anchor="middle" x="80.75" y="-99.88" font-family="FreeSans" font-size="10.00">boost::EqualityComparable&lt; T &gt;</text>
</a>
</g>
</g>
<!-- Node2 -->
<g id="Node000002" class="node">
<title>Node2</title>
<g id="a_Node000002"><a xlink:href="structDGtal_1_1concepts_1_1CLabel.html" target="_top" xlink:title="Aim: Define the concept of DGtal labels. Models of CLabel can be default&#45;constructible,...">
<polygon fill="white" stroke="#666666" points="354.12,-135.38 206.12,-135.38 206.12,-113.12 354.12,-113.12 354.12,-135.38"/>
<text text-anchor="middle" x="280.12" y="-121.88" font-family="FreeSans" font-size="10.00">DGtal::concepts::CLabel&lt; T &gt;</text>
</a>
</g>
</g>
<!-- Node1&#45;&gt;Node2 -->
<g id="edge1_Node000001_Node000002" class="edge">
<title>Node1&#45;&gt;Node2</title>
<g id="a_edge1_Node000001_Node000002"><a xlink:title=" ">
<path fill="none" stroke="#63b8ff" d="M173.07,-112.43C184.01,-113.65 195.07,-114.88 205.7,-116.07"/>
<polygon fill="#63b8ff" stroke="#63b8ff" points="173.58,-108.96 163.25,-111.33 172.8,-115.92 173.58,-108.96"/>
</a>
</g>
</g>
<!-- Node11 -->
<g id="Node000011" class="node">
<title>Node11</title>
<g id="a_Node000011"><a xlink:href="structDGtal_1_1concepts_1_1CSegment.html" target="_top" xlink:title="Aim: Defines the concept describing a segment, ie. a valid and not empty range.">
<polygon fill="white" stroke="#666666" points="362.75,-93.38 197.5,-93.38 197.5,-71.12 362.75,-71.12 362.75,-93.38"/>
<text text-anchor="middle" x="280.12" y="-79.88" font-family="FreeSans" font-size="10.00">DGtal::concepts::CSegment&lt; T &gt;</text>
</a>
</g>
</g>
<!-- Node1&#45;&gt;Node11 -->
<g id="edge11_Node000001_Node000011" class="edge">
<title>Node1&#45;&gt;Node11</title>
<g id="a_edge11_Node000001_Node000011"><a xlink:title=" ">
<path fill="none" stroke="#63b8ff" d="M173.03,-93C181.05,-92.19 189.14,-91.37 197.09,-90.56"/>
<polygon fill="#63b8ff" stroke="#63b8ff" points="172.85,-89.5 163.25,-93.99 173.55,-96.47 172.85,-89.5"/>
</a>
</g>
</g>
<!-- Node3 -->
<g id="Node000003" class="node">
<title>Node3</title>
<g id="a_Node000003"><a xlink:href="structDGtal_1_1concepts_1_1CQuantity.html" target="_top" xlink:title="Aim: defines the concept of quantity in DGtal.">
<polygon fill="white" stroke="#666666" points="561.75,-168.38 398.75,-168.38 398.75,-146.12 561.75,-146.12 561.75,-168.38"/>
<text text-anchor="middle" x="480.25" y="-154.88" font-family="FreeSans" font-size="10.00">DGtal::concepts::CQuantity&lt; T &gt;</text>
</a>
</g>
</g>
<!-- Node2&#45;&gt;Node3 -->
<g id="edge2_Node000002_Node000003" class="edge">
<title>Node2&#45;&gt;Node3</title>
<g id="a_edge2_Node000002_Node000003"><a xlink:title=" ">
<path fill="none" stroke="#63b8ff" d="M362.03,-137.73C377.78,-140.35 394.16,-143.08 409.51,-145.63"/>
<polygon fill="#63b8ff" stroke="#63b8ff" points="362.63,-134.28 352.19,-136.09 361.48,-141.18 362.63,-134.28"/>
</a>
</g>
</g>
<!-- Node4 -->
<g id="Node000004" class="node">
<title>Node4</title>
<g id="a_Node000004"><a xlink:href="structDGtal_1_1concepts_1_1CBoundedNumber.html" target="_top" xlink:title="Aim: The concept CBoundedNumber specifies what are the bounded numbers. Models of this concept should...">
<polygon fill="white" stroke="#666666" points="748.75,-267.5 604.5,-267.5 604.5,-231 748.75,-231 748.75,-267.5"/>
<text text-anchor="start" x="612.5" y="-254" font-family="FreeSans" font-size="10.00">DGtal::concepts::CBounded</text>
<text text-anchor="middle" x="676.62" y="-239.75" font-family="FreeSans" font-size="10.00">Number&lt; T &gt;</text>
</a>
</g>
</g>
<!-- Node3&#45;&gt;Node4 -->
<g id="edge3_Node000003_Node000004" class="edge">
<title>Node3&#45;&gt;Node4</title>
<g id="a_edge3_Node000003_Node000004"><a xlink:title=" ">
<path fill="none" stroke="#63b8ff" d="M512.43,-174.23C535.68,-186.67 568.38,-203.68 597.75,-217.25 607.57,-221.79 618.22,-226.37 628.4,-230.6"/>
<polygon fill="#63b8ff" stroke="#63b8ff" points="514.25,-171.24 503.78,-169.58 510.93,-177.4 514.25,-171.24"/>
</a>
</g>
</g>
<!-- Node5 -->
<g id="Node000005" class="node">
<title>Node5</title>
<g id="a_Node000005"><a xlink:href="structDGtal_1_1concepts_1_1CIntegralNumber.html" target="_top" xlink:title="Aim: Concept checking for Integral Numbers. Models of this concept should be listed in NumberTraits c...">
<polygon fill="white" stroke="#666666" points="942.5,-225.5 804.25,-225.5 804.25,-189 942.5,-189 942.5,-225.5"/>
<text text-anchor="start" x="812.25" y="-212" font-family="FreeSans" font-size="10.00">DGtal::concepts::CIntegral</text>
<text text-anchor="middle" x="873.38" y="-197.75" font-family="FreeSans" font-size="10.00">Number&lt; T &gt;</text>
</a>
</g>
</g>
<!-- Node3&#45;&gt;Node5 -->
<g id="edge4_Node000003_Node000005" class="edge">
<title>Node3&#45;&gt;Node5</title>
<g id="a_edge4_Node000003_Node000005"><a xlink:title=" ">
<path fill="none" stroke="#63b8ff" d="M535.52,-171.54C555.02,-176.22 577.26,-181.03 597.75,-184.25 667.47,-195.19 748.02,-201.16 803.77,-204.25"/>
<polygon fill="#63b8ff" stroke="#63b8ff" points="536.4,-168.15 525.86,-169.17 534.74,-174.95 536.4,-168.15"/>
</a>
</g>
</g>
<!-- Node7 -->
<g id="Node000007" class="node">
<title>Node7</title>
<g id="a_Node000007"><a xlink:href="structDGtal_1_1concepts_1_1CSignedNumber.html" target="_top" xlink:title="Aim: Concept checking for Signed Numbers. Models of this concept should be listed in NumberTraits cla...">
<polygon fill="white" stroke="#666666" points="743.12,-175.5 610.12,-175.5 610.12,-139 743.12,-139 743.12,-175.5"/>
<text text-anchor="start" x="618.12" y="-162" font-family="FreeSans" font-size="10.00">DGtal::concepts::CSigned</text>
<text text-anchor="middle" x="676.62" y="-147.75" font-family="FreeSans" font-size="10.00">Number&lt; T &gt;</text>
</a>
</g>
</g>
<!-- Node3&#45;&gt;Node7 -->
<g id="edge6_Node000003_Node000007" class="edge">
<title>Node3&#45;&gt;Node7</title>
<g id="a_edge6_Node000003_Node000007"><a xlink:title=" ">
<path fill="none" stroke="#63b8ff" d="M573.29,-157.25C585.65,-157.25 598.13,-157.25 609.91,-157.25"/>
<polygon fill="#63b8ff" stroke="#63b8ff" points="573.51,-153.75 563.51,-157.25 573.51,-160.75 573.51,-153.75"/>
</a>
</g>
</g>
<!-- Node10 -->
<g id="Node000010" class="node">
<title>Node10</title>
<g id="a_Node000010"><a xlink:href="structDGtal_1_1concepts_1_1CUnsignedNumber.html" target="_top" xlink:title="Aim: Concept checking for Unsigned numbers. Models of this concept should be listed in NumberTraits c...">
<polygon fill="white" stroke="#666666" points="749.5,-120.5 603.75,-120.5 603.75,-84 749.5,-84 749.5,-120.5"/>
<text text-anchor="start" x="611.75" y="-107" font-family="FreeSans" font-size="10.00">DGtal::concepts::CUnsigned</text>
<text text-anchor="middle" x="676.62" y="-92.75" font-family="FreeSans" font-size="10.00">Number&lt; T &gt;</text>
</a>
</g>
</g>
<!-- Node3&#45;&gt;Node10 -->
<g id="edge10_Node000003_Node000010" class="edge">
<title>Node3&#45;&gt;Node10</title>
<g id="a_edge10_Node000003_Node000010"><a xlink:title=" ">
<path fill="none" stroke="#63b8ff" d="M532.82,-142.66C556.39,-135.99 584.59,-128.01 609.69,-120.91"/>
<polygon fill="#63b8ff" stroke="#63b8ff" points="532.12,-139.22 523.45,-145.31 534.03,-145.95 532.12,-139.22"/>
</a>
</g>
</g>
<!-- Node6 -->
<g id="Node000006" class="node">
<title>Node6</title>
<g id="a_Node000006"><a xlink:href="structDGtal_1_1concepts_1_1CInteger.html" target="_top" xlink:title="Aim: Concept checking for Integer Numbers. More precisely, this concept is a refinement of both CEucl...">
<polygon fill="white" stroke="#666666" points="1357.38,-191.38 1198.12,-191.38 1198.12,-169.12 1357.38,-169.12 1357.38,-191.38"/>
<text text-anchor="middle" x="1277.75" y="-177.88" font-family="FreeSans" font-size="10.00">DGtal::concepts::CInteger&lt; T &gt;</text>
</a>
</g>
</g>
<!-- Node5&#45;&gt;Node6 -->
<g id="edge5_Node000005_Node000006" class="edge">
<title>Node5&#45;&gt;Node6</title>
<g id="a_edge5_Node000005_Node000006"><a xlink:title=" ">
<path fill="none" stroke="#63b8ff" d="M953.69,-201.93C1024.36,-197.19 1127.23,-190.28 1197.79,-185.55"/>
<polygon fill="#63b8ff" stroke="#63b8ff" points="953.89,-198.41 944.14,-202.57 954.35,-205.39 953.89,-198.41"/>
</a>
</g>
</g>
<!-- Node8 -->
<g id="Node000008" class="node">
<title>Node8</title>
<g id="a_Node000008"><a xlink:href="structDGtal_1_1concepts_1_1CCommutativeRing.html" target="_top" xlink:title="Aim: Defines the mathematical concept equivalent to a unitary commutative ring.">
<polygon fill="white" stroke="#666666" points="955.25,-170.5 791.5,-170.5 791.5,-134 955.25,-134 955.25,-170.5"/>
<text text-anchor="start" x="799.5" y="-157" font-family="FreeSans" font-size="10.00">DGtal::concepts::CCommutative</text>
<text text-anchor="middle" x="873.38" y="-142.75" font-family="FreeSans" font-size="10.00">Ring&lt; T &gt;</text>
</a>
</g>
</g>
<!-- Node7&#45;&gt;Node8 -->
<g id="edge7_Node000007_Node000008" class="edge">
<title>Node7&#45;&gt;Node8</title>
<g id="a_edge7_Node000007_Node000008"><a xlink:title=" ">
<path fill="none" stroke="#63b8ff" d="M754.88,-155.27C766.86,-154.96 779.25,-154.64 791.31,-154.33"/>
<polygon fill="#63b8ff" stroke="#63b8ff" points="754.98,-151.76 745.07,-155.52 755.16,-158.76 754.98,-151.76"/>
</a>
</g>
</g>
<!-- Node9 -->
<g id="Node000009" class="node">
<title>Node9</title>
<g id="a_Node000009"><a xlink:href="structDGtal_1_1concepts_1_1CEuclideanRing.html" target="_top" xlink:title="Aim: Defines the mathematical concept equivalent to a unitary commutative ring with a division operat...">
<polygon fill="white" stroke="#666666" points="1143,-173.5 998,-173.5 998,-137 1143,-137 1143,-173.5"/>
<text text-anchor="start" x="1006" y="-160" font-family="FreeSans" font-size="10.00">DGtal::concepts::CEuclidean</text>
<text text-anchor="middle" x="1070.5" y="-145.75" font-family="FreeSans" font-size="10.00">Ring&lt; T &gt;</text>
</a>
</g>
</g>
<!-- Node8&#45;&gt;Node9 -->
<g id="edge8_Node000008_Node000009" class="edge">
<title>Node8&#45;&gt;Node9</title>
<g id="a_edge8_Node000008_Node000009"><a xlink:title=" ">
<path fill="none" stroke="#63b8ff" d="M967.2,-153.68C977.42,-153.83 987.71,-153.99 997.62,-154.14"/>
<polygon fill="#63b8ff" stroke="#63b8ff" points="967.28,-150.18 957.23,-153.52 967.17,-157.18 967.28,-150.18"/>
</a>
</g>
</g>
<!-- Node9&#45;&gt;Node6 -->
<g id="edge9_Node000009_Node000006" class="edge">
<title>Node9&#45;&gt;Node6</title>
<g id="a_edge9_Node000009_Node000006"><a xlink:title=" ">
<path fill="none" stroke="#63b8ff" d="M1154.56,-165.37C1168.79,-167.1 1183.53,-168.9 1197.65,-170.62"/>
<polygon fill="#63b8ff" stroke="#63b8ff" points="1155.14,-161.91 1144.79,-164.18 1154.29,-168.86 1155.14,-161.91"/>
</a>
</g>
</g>
<!-- Node12 -->
<g id="Node000012" class="node">
<title>Node12</title>
<g id="a_Node000012"><a xlink:href="structDGtal_1_1concepts_1_1CSegmentFactory.html" target="_top" xlink:title="Aim: Defines the concept describing a segment ie. a valid and not empty subrange, which can construct...">
<polygon fill="white" stroke="#666666" points="552,-97.5 408.5,-97.5 408.5,-61 552,-61 552,-97.5"/>
<text text-anchor="start" x="416.5" y="-84" font-family="FreeSans" font-size="10.00">DGtal::concepts::CSegment</text>
<text text-anchor="middle" x="480.25" y="-69.75" font-family="FreeSans" font-size="10.00">Factory&lt; T &gt;</text>
</a>
</g>
</g>
<!-- Node11&#45;&gt;Node12 -->
<g id="edge12_Node000011_Node000012" class="edge">
<title>Node11&#45;&gt;Node12</title>
<g id="a_edge12_Node000011_Node000012"><a xlink:title=" ">
<path fill="none" stroke="#63b8ff" d="M374.4,-80.84C385.71,-80.67 397.12,-80.49 408.04,-80.33"/>
<polygon fill="#63b8ff" stroke="#63b8ff" points="374.6,-77.33 364.65,-80.99 374.71,-84.33 374.6,-77.33"/>
</a>
</g>
</g>
<!-- Node13 -->
<g id="Node000013" class="node">
<title>Node13</title>
<g id="a_Node000013"><a xlink:href="structDGtal_1_1concepts_1_1CIncrementalSegmentComputer.html" target="_top" xlink:title="Aim: Defines the concept describing an incremental segment computer, &#160;&#160;ie. a model of CSegmentFactory...">
<polygon fill="white" stroke="#666666" points="755.5,-65.5 597.75,-65.5 597.75,-29 755.5,-29 755.5,-65.5"/>
<text text-anchor="start" x="605.75" y="-52" font-family="FreeSans" font-size="10.00">DGtal::concepts::CIncremental</text>
<text text-anchor="middle" x="676.62" y="-37.75" font-family="FreeSans" font-size="10.00">SegmentComputer&lt; T &gt;</text>
</a>
</g>
</g>
<!-- Node12&#45;&gt;Node13 -->
<g id="edge13_Node000012_Node000013" class="edge">
<title>Node12&#45;&gt;Node13</title>
<g id="a_edge13_Node000012_Node000013"><a xlink:title=" ">
<path fill="none" stroke="#63b8ff" d="M563.37,-65.73C574.6,-63.88 586.11,-61.99 597.27,-60.15"/>
<polygon fill="#63b8ff" stroke="#63b8ff" points="563.04,-62.24 553.74,-67.32 564.18,-69.14 563.04,-62.24"/>
</a>
</g>
</g>
<!-- Node14 -->
<g id="Node000014" class="node">
<title>Node14</title>
<g id="a_Node000014"><a xlink:href="structDGtal_1_1concepts_1_1CForwardSegmentComputer.html" target="_top" xlink:title="Aim: Defines the concept describing a forward segment computer. Like any model of CIncrementalSegment...">
<polygon fill="white" stroke="#666666" points="943.25,-65.5 803.5,-65.5 803.5,-29 943.25,-29 943.25,-65.5"/>
<text text-anchor="start" x="811.5" y="-52" font-family="FreeSans" font-size="10.00">DGtal::concepts::CForward</text>
<text text-anchor="middle" x="873.38" y="-37.75" font-family="FreeSans" font-size="10.00">SegmentComputer&lt; T &gt;</text>
</a>
</g>
</g>
<!-- Node13&#45;&gt;Node14 -->
<g id="edge14_Node000013_Node000014" class="edge">
<title>Node13&#45;&gt;Node14</title>
<g id="a_edge14_Node000013_Node000014"><a xlink:title=" ">
<path fill="none" stroke="#63b8ff" d="M767.46,-47.25C779.49,-47.25 791.67,-47.25 803.27,-47.25"/>
<polygon fill="#63b8ff" stroke="#63b8ff" points="767.51,-43.75 757.51,-47.25 767.51,-50.75 767.51,-43.75"/>
</a>
</g>
</g>
<!-- Node15 -->
<g id="Node000015" class="node">
<title>Node15</title>
<g id="a_Node000015"><a xlink:href="structDGtal_1_1concepts_1_1CBidirectionalSegmentComputer.html" target="_top" xlink:title="Aim: Defines the concept describing a bidirectional segment computer, &#160;&#160;ie. a model of concepts::CSeg...">
<polygon fill="white" stroke="#666666" points="1149.75,-91.5 991.25,-91.5 991.25,-55 1149.75,-55 1149.75,-91.5"/>
<text text-anchor="start" x="999.25" y="-78" font-family="FreeSans" font-size="10.00">DGtal::concepts::CBidirectional</text>
<text text-anchor="middle" x="1070.5" y="-63.75" font-family="FreeSans" font-size="10.00">SegmentComputer&lt; T &gt;</text>
</a>
</g>
</g>
<!-- Node14&#45;&gt;Node15 -->
<g id="edge15_Node000014_Node000015" class="edge">
<title>Node14&#45;&gt;Node15</title>
<g id="a_edge15_Node000014_Node000015"><a xlink:title=" ">
<path fill="none" stroke="#63b8ff" d="M955.02,-58C966.93,-59.58 979.2,-61.22 991.08,-62.8"/>
<polygon fill="#63b8ff" stroke="#63b8ff" points="955.59,-54.54 945.22,-56.69 954.67,-61.48 955.59,-54.54"/>
</a>
</g>
</g>
<!-- Node17 -->
<g id="Node000017" class="node">
<title>Node17</title>
<g id="a_Node000017"><a xlink:href="structDGtal_1_1concepts_1_1CDynamicSegmentComputer.html" target="_top" xlink:title="Aim: Defines the concept describing a dynamic segment computer, &#160;&#160;ie. a model of CSegment that can ex...">
<polygon fill="white" stroke="#666666" points="1141.12,-36.5 999.88,-36.5 999.88,0 1141.12,0 1141.12,-36.5"/>
<text text-anchor="start" x="1007.88" y="-23" font-family="FreeSans" font-size="10.00">DGtal::concepts::CDynamic</text>
<text text-anchor="middle" x="1070.5" y="-8.75" font-family="FreeSans" font-size="10.00">SegmentComputer&lt; T &gt;</text>
</a>
</g>
</g>
<!-- Node14&#45;&gt;Node17 -->
<g id="edge17_Node000014_Node000017" class="edge">
<title>Node14&#45;&gt;Node17</title>
<g id="a_edge17_Node000014_Node000017"><a xlink:title=" ">
<path fill="none" stroke="#63b8ff" d="M954.88,-35.28C969.65,-33.09 984.96,-30.81 999.39,-28.67"/>
<polygon fill="#63b8ff" stroke="#63b8ff" points="954.59,-31.79 945.22,-36.72 955.62,-38.71 954.59,-31.79"/>
</a>
</g>
</g>
<!-- Node16 -->
<g id="Node000016" class="node">
<title>Node16</title>
<g id="a_Node000016"><a xlink:href="structDGtal_1_1concepts_1_1CDynamicBidirectionalSegmentComputer.html" target="_top" xlink:title="Aim: Defines the concept describing a dynamic and bidirectional segment computer, ie....">
<polygon fill="white" stroke="#666666" points="1369.75,-64.5 1185.75,-64.5 1185.75,-28 1369.75,-28 1369.75,-64.5"/>
<text text-anchor="start" x="1193.75" y="-51" font-family="FreeSans" font-size="10.00">DGtal::concepts::CDynamic</text>
<text text-anchor="middle" x="1277.75" y="-36.75" font-family="FreeSans" font-size="10.00">BidirectionalSegmentComputer&lt; T &gt;</text>
</a>
</g>
</g>
<!-- Node15&#45;&gt;Node16 -->
<g id="edge16_Node000015_Node000016" class="edge">
<title>Node15&#45;&gt;Node16</title>
<g id="a_edge16_Node000015_Node000016"><a xlink:title=" ">
<path fill="none" stroke="#63b8ff" d="M1161.18,-61.45C1169.17,-60.4 1177.27,-59.34 1185.27,-58.28"/>
<polygon fill="#63b8ff" stroke="#63b8ff" points="1160.93,-57.96 1151.48,-62.73 1161.85,-64.9 1160.93,-57.96"/>
</a>
</g>
</g>
<!-- Node17&#45;&gt;Node16 -->
<g id="edge18_Node000017_Node000016" class="edge">
<title>Node17&#45;&gt;Node16</title>
<g id="a_edge18_Node000017_Node000016"><a xlink:title=" ">
<path fill="none" stroke="#63b8ff" d="M1152.68,-29.32C1163.49,-30.8 1174.63,-32.32 1185.59,-33.81"/>
<polygon fill="#63b8ff" stroke="#63b8ff" points="1153.44,-25.9 1143.06,-28.01 1152.5,-32.83 1153.44,-25.9"/>
</a>
</g>
</g>
</g>
</svg>

<g id="navigator" transform="translate(0 0)" fill="#404254">
  <rect fill="#f2f5e9" fill-opacity="0.5" stroke="#606060" stroke-width=".5" x="0" y="0" width="60" height="60"/>
  <use id="zoomplus" xlink:href="#zoomPlus" x="17" y="9" onmousedown="handleZoom(evt,'in')"/>
  <use id="zoomminus" xlink:href="#zoomMin" x="42" y="9" onmousedown="handleZoom(evt,'out')"/>
  <use id="reset" xlink:href="#resetDef" x="30" y="36" onmousedown="handleReset()"/>
   <use id="arrowup" xlink:href="#arrowUp" x="0" y="0" onmousedown="handlePan(0,-1)"/>
  <use id="arrowright" xlink:href="#arrowRight" x="0" y="0" onmousedown="handlePan(1,0)"/>
  <use id="arrowdown" xlink:href="#arrowDown" x="0" y="0" onmousedown="handlePan(0,1)"/>
  <use id="arrowleft" xlink:href="#arrowLeft" x="0" y="0" onmousedown="handlePan(-1,0)"/>
</g>
<svg viewBox="0 0 15 15" width="100%" height="30px" preserveAspectRatio="xMaxYMin meet">
 <g id="arrow_out" transform="scale(0.3 0.3)">
  <a xlink:href="structboost_1_1EqualityComparable__inherit__graph_org.svg" target="_base">
   <rect id="button" ry="5" rx="5" y="6" x="6" height="38" width="38"
        fill="#f2f5e9" fill-opacity="0.5" stroke="#606060" stroke-width="1.0"/>
   <path id="arrow"
     d="M 11.500037,31.436501 C 11.940474,20.09759 22.043105,11.32322 32.158766,21.979434 L 37.068811,17.246167 C 37.068811,17.246167 37.088388,32 37.088388,32 L 22.160133,31.978069 C 22.160133,31.978069 26.997745,27.140456 26.997745,27.140456 C 18.528582,18.264221 13.291696,25.230495 11.500037,31.436501 z"
     style="fill:#404040;"/>
  </a>
 </g>
</svg>

<style type='text/css'>
<![CDATA[
[data-mouse-over-selected='false'] { opacity: 0.7; }
[data-mouse-over-selected='true']  { opacity: 1.0; }
]]>
</style>
<script type="application/ecmascript"><![CDATA[
document.addEventListener('DOMContentLoaded', (event) => {
  highlightEdges();
  highlightAdjacentNodes();
});
]]></script>
</svg>
