<?xml version="1.0" encoding="UTF-8" standalone="no"?>
<!DOCTYPE svg PUBLIC "-//W3C//DTD SVG 1.1//EN"
 "http://www.w3.org/Graphics/SVG/1.1/DTD/svg11.dtd">
<!-- Generated by graphviz version 11.0.0 (0)
 -->
<!-- Title: LibBoard::Polyline Pages: 1 -->
<svg width="420pt" height="219pt"
 viewBox="0.00 0.00 420.00 219.25" xmlns="http://www.w3.org/2000/svg" xmlns:xlink="http://www.w3.org/1999/xlink">
<g id="graph0" class="graph" transform="scale(1 1) rotate(0) translate(4 215.25)">
<title>LibBoard::Polyline</title>
<!-- Node1 -->
<g id="Node000001" class="node">
<title>Node1</title>
<g id="a_Node000001"><a xlink:title="A polygonal line described by a series of 2D points.">
<polygon fill="#999999" stroke="#666666" points="263.25,-153 164,-153 164,-130.75 263.25,-130.75 263.25,-153"/>
<text text-anchor="middle" x="213.62" y="-139.5" font-family="FreeSans" font-size="10.00">LibBoard::Polyline</text>
</a>
</g>
</g>
<!-- Node3 -->
<g id="Node000003" class="node">
<title>Node3</title>
<g id="a_Node000003"><a xlink:href="structLibBoard_1_1GouraudTriangle.html" target="_top" xlink:title="A triangle with shaded filling according to colors given for each vertex.">
<polygon fill="white" stroke="#666666" points="141.25,-94.75 0,-94.75 0,-72.5 141.25,-72.5 141.25,-94.75"/>
<text text-anchor="middle" x="70.62" y="-81.25" font-family="FreeSans" font-size="10.00">LibBoard::GouraudTriangle</text>
</a>
</g>
</g>
<!-- Node1&#45;&gt;Node3 -->
<g id="edge2_Node000001_Node000003" class="edge">
<title>Node1&#45;&gt;Node3</title>
<g id="a_edge2_Node000001_Node000003"><a xlink:title=" ">
<path fill="none" stroke="#63b8ff" d="M176.26,-126.18C151.52,-116.44 119.64,-103.9 97.4,-95.16"/>
<polygon fill="#63b8ff" stroke="#63b8ff" points="174.73,-129.34 185.32,-129.74 177.29,-122.82 174.73,-129.34"/>
</a>
</g>
</g>
<!-- Node4 -->
<g id="Node000004" class="node">
<title>Node4</title>
<g id="a_Node000004"><a xlink:href="structLibBoard_1_1Rectangle.html" target="_top" xlink:title="A rectangle.">
<polygon fill="white" stroke="#666666" points="268.12,-94.75 159.12,-94.75 159.12,-72.5 268.12,-72.5 268.12,-94.75"/>
<text text-anchor="middle" x="213.62" y="-81.25" font-family="FreeSans" font-size="10.00">LibBoard::Rectangle</text>
</a>
</g>
</g>
<!-- Node1&#45;&gt;Node4 -->
<g id="edge3_Node000001_Node000004" class="edge">
<title>Node1&#45;&gt;Node4</title>
<g id="a_edge3_Node000001_Node000004"><a xlink:title=" ">
<path fill="none" stroke="#63b8ff" d="M213.62,-118.85C213.62,-110.7 213.62,-101.83 213.62,-95.16"/>
<polygon fill="#63b8ff" stroke="#63b8ff" points="210.13,-118.78 213.63,-128.78 217.13,-118.78 210.13,-118.78"/>
</a>
</g>
</g>
<!-- Node6 -->
<g id="Node000006" class="node">
<title>Node6</title>
<g id="a_Node000006"><a xlink:href="structLibBoard_1_1Triangle.html" target="_top" xlink:title="A triangle. Basically a Polyline with a convenient constructor.">
<polygon fill="white" stroke="#666666" points="392,-94.75 291.25,-94.75 291.25,-72.5 392,-72.5 392,-94.75"/>
<text text-anchor="middle" x="341.62" y="-81.25" font-family="FreeSans" font-size="10.00">LibBoard::Triangle</text>
</a>
</g>
</g>
<!-- Node1&#45;&gt;Node6 -->
<g id="edge5_Node000001_Node000006" class="edge">
<title>Node1&#45;&gt;Node6</title>
<g id="a_edge5_Node000001_Node000006"><a xlink:title=" ">
<path fill="none" stroke="#63b8ff" d="M247.96,-125.78C269.99,-116.11 298.02,-103.79 317.66,-95.16"/>
<polygon fill="#63b8ff" stroke="#63b8ff" points="246.83,-122.46 239.09,-129.69 249.65,-128.87 246.83,-122.46"/>
</a>
</g>
</g>
<!-- Node2 -->
<g id="Node000002" class="node">
<title>Node2</title>
<g id="a_Node000002"><a xlink:href="structLibBoard_1_1Shape.html" target="_top" xlink:title="Abstract structure for a 2D shape.">
<polygon fill="white" stroke="#666666" points="259.5,-211.25 167.75,-211.25 167.75,-189 259.5,-189 259.5,-211.25"/>
<text text-anchor="middle" x="213.62" y="-197.75" font-family="FreeSans" font-size="10.00">LibBoard::Shape</text>
</a>
</g>
</g>
<!-- Node2&#45;&gt;Node1 -->
<g id="edge1_Node000001_Node000002" class="edge">
<title>Node2&#45;&gt;Node1</title>
<g id="a_edge1_Node000001_Node000002"><a xlink:title=" ">
<path fill="none" stroke="#63b8ff" d="M213.62,-177.1C213.62,-168.95 213.62,-160.08 213.62,-153.41"/>
<polygon fill="#63b8ff" stroke="#63b8ff" points="210.13,-177.03 213.63,-187.03 217.13,-177.03 210.13,-177.03"/>
</a>
</g>
</g>
<!-- Node5 -->
<g id="Node000005" class="node">
<title>Node5</title>
<g id="a_Node000005"><a xlink:href="structLibBoard_1_1Image.html" target="_top" xlink:title="Used to draw image in figure.">
<polygon fill="white" stroke="#666666" points="257.25,-29.38 164,-29.38 164,-7.12 257.25,-7.12 257.25,-29.38"/>
<text text-anchor="middle" x="210.62" y="-15.88" font-family="FreeSans" font-size="10.00">LibBoard::Image</text>
</a>
</g>
</g>
<!-- Node4&#45;&gt;Node5 -->
<g id="edge4_Node000004_Node000005" class="edge">
<title>Node4&#45;&gt;Node5</title>
<g id="a_edge4_Node000004_Node000005"><a xlink:title=" ">
<path fill="none" stroke="#63b8ff" d="M212.59,-60.79C212.09,-50.19 211.51,-37.95 211.11,-29.52"/>
<polygon fill="#63b8ff" stroke="#63b8ff" points="209.09,-60.82 213.06,-70.65 216.08,-60.49 209.09,-60.82"/>
</a>
</g>
</g>
<!-- Node7 -->
<g id="Node000007" class="node">
<title>Node7</title>
<g id="a_Node000007"><a xlink:href="structLibBoard_1_1QuadraticBezierCurve.html" target="_top" xlink:title="A quadratic Bezier curve having 3 control points. NB. It is also a parabola arc.">
<polygon fill="white" stroke="#666666" points="412,-36.5 275.25,-36.5 275.25,0 412,0 412,-36.5"/>
<text text-anchor="start" x="283.25" y="-23" font-family="FreeSans" font-size="10.00">LibBoard::QuadraticBezier</text>
<text text-anchor="middle" x="343.62" y="-8.75" font-family="FreeSans" font-size="10.00">Curve</text>
</a>
</g>
</g>
<!-- Node6&#45;&gt;Node7 -->
<g id="edge6_Node000006_Node000007" class="edge">
<title>Node6&#45;&gt;Node7</title>
<g id="a_edge6_Node000006_Node000007"><a xlink:title=" ">
<path fill="none" stroke="#63b8ff" d="M342.31,-60.92C342.56,-53.1 342.83,-44.36 343.07,-36.92"/>
<polygon fill="#63b8ff" stroke="#63b8ff" points="338.82,-60.54 342,-70.65 345.82,-60.76 338.82,-60.54"/>
</a>
</g>
</g>
</g>
</svg>
