<?xml version="1.0" encoding="UTF-8" standalone="no"?>
<!DOCTYPE svg PUBLIC "-//W3C//DTD SVG 1.1//EN"
 "http://www.w3.org/Graphics/SVG/1.1/DTD/svg11.dtd">
<!-- Generated by graphviz version 11.0.0 (0)
 -->
<!-- Title: LibBoard::Image Pages: 1 -->
<svg width="117pt" height="205pt"
 viewBox="0.00 0.00 117.00 205.00" xmlns="http://www.w3.org/2000/svg" xmlns:xlink="http://www.w3.org/1999/xlink">
<g id="graph0" class="graph" transform="scale(1 1) rotate(0) translate(4 201)">
<title>LibBoard::Image</title>
<!-- Node1 -->
<g id="Node000001" class="node">
<title>Node1</title>
<g id="a_Node000001"><a xlink:title="Used to draw image in figure.">
<polygon fill="#999999" stroke="#666666" points="101.12,-22.25 7.88,-22.25 7.88,0 101.12,0 101.12,-22.25"/>
<text text-anchor="middle" x="54.5" y="-8.75" font-family="FreeSans" font-size="10.00">LibBoard::Image</text>
</a>
</g>
</g>
<!-- Node2 -->
<g id="Node000002" class="node">
<title>Node2</title>
<g id="a_Node000002"><a xlink:href="structLibBoard_1_1Rectangle.html" target="_top" xlink:title="A rectangle.">
<polygon fill="white" stroke="#666666" points="109,-80.5 0,-80.5 0,-58.25 109,-58.25 109,-80.5"/>
<text text-anchor="middle" x="54.5" y="-67" font-family="FreeSans" font-size="10.00">LibBoard::Rectangle</text>
</a>
</g>
</g>
<!-- Node2&#45;&gt;Node1 -->
<g id="edge1_Node000001_Node000002" class="edge">
<title>Node2&#45;&gt;Node1</title>
<g id="a_edge1_Node000001_Node000002"><a xlink:title=" ">
<path fill="none" stroke="#63b8ff" d="M54.5,-46.35C54.5,-38.2 54.5,-29.33 54.5,-22.66"/>
<polygon fill="#63b8ff" stroke="#63b8ff" points="51,-46.28 54.5,-56.28 58,-46.28 51,-46.28"/>
</a>
</g>
</g>
<!-- Node3 -->
<g id="Node000003" class="node">
<title>Node3</title>
<g id="a_Node000003"><a xlink:href="structLibBoard_1_1Polyline.html" target="_top" xlink:title="A polygonal line described by a series of 2D points.">
<polygon fill="white" stroke="#666666" points="104.12,-138.75 4.88,-138.75 4.88,-116.5 104.12,-116.5 104.12,-138.75"/>
<text text-anchor="middle" x="54.5" y="-125.25" font-family="FreeSans" font-size="10.00">LibBoard::Polyline</text>
</a>
</g>
</g>
<!-- Node3&#45;&gt;Node2 -->
<g id="edge2_Node000002_Node000003" class="edge">
<title>Node3&#45;&gt;Node2</title>
<g id="a_edge2_Node000002_Node000003"><a xlink:title=" ">
<path fill="none" stroke="#63b8ff" d="M54.5,-104.6C54.5,-96.45 54.5,-87.58 54.5,-80.91"/>
<polygon fill="#63b8ff" stroke="#63b8ff" points="51,-104.53 54.5,-114.53 58,-104.53 51,-104.53"/>
</a>
</g>
</g>
<!-- Node4 -->
<g id="Node000004" class="node">
<title>Node4</title>
<g id="a_Node000004"><a xlink:href="structLibBoard_1_1Shape.html" target="_top" xlink:title="Abstract structure for a 2D shape.">
<polygon fill="white" stroke="#666666" points="100.38,-197 8.62,-197 8.62,-174.75 100.38,-174.75 100.38,-197"/>
<text text-anchor="middle" x="54.5" y="-183.5" font-family="FreeSans" font-size="10.00">LibBoard::Shape</text>
</a>
</g>
</g>
<!-- Node4&#45;&gt;Node3 -->
<g id="edge3_Node000003_Node000004" class="edge">
<title>Node4&#45;&gt;Node3</title>
<g id="a_edge3_Node000003_Node000004"><a xlink:title=" ">
<path fill="none" stroke="#63b8ff" d="M54.5,-162.85C54.5,-154.7 54.5,-145.83 54.5,-139.16"/>
<polygon fill="#63b8ff" stroke="#63b8ff" points="51,-162.78 54.5,-172.78 58,-162.78 51,-162.78"/>
</a>
</g>
</g>
</g>
</svg>
