<?xml version="1.0" encoding="UTF-8" standalone="no"?>
<!DOCTYPE svg PUBLIC "-//W3C//DTD SVG 1.1//EN"
 "http://www.w3.org/Graphics/SVG/1.1/DTD/svg11.dtd">
<!-- Generated by graphviz version 11.0.0 (0)
 -->
<!-- Title: boost::LessThanComparable&lt; T &gt; Pages: 1 -->
<svg width="1133pt" height="192pt"
 viewBox="0.00 0.00 1133.00 191.50" xmlns="http://www.w3.org/2000/svg" xmlns:xlink="http://www.w3.org/1999/xlink">
<g id="graph0" class="graph" transform="scale(1 1) rotate(0) translate(4 187.5)">
<title>boost::LessThanComparable&lt; T &gt;</title>
<!-- Node1 -->
<g id="Node000001" class="node">
<title>Node1</title>
<g id="a_Node000001"><a xlink:title="Go to http://www.sgi.com/tech/stl/LessThanComparable.html.">
<polygon fill="#999999" stroke="#666666" points="168.25,-107.38 0,-107.38 0,-85.12 168.25,-85.12 168.25,-107.38"/>
<text text-anchor="middle" x="84.12" y="-93.88" font-family="FreeSans" font-size="10.00">boost::LessThanComparable&lt; T &gt;</text>
</a>
</g>
</g>
<!-- Node2 -->
<g id="Node000002" class="node">
<title>Node2</title>
<g id="a_Node000002"><a xlink:href="structDGtal_1_1concepts_1_1CQuantity.html" target="_top" xlink:title="Aim: defines the concept of quantity in DGtal.">
<polygon fill="white" stroke="#666666" points="367.25,-107.38 204.25,-107.38 204.25,-85.12 367.25,-85.12 367.25,-107.38"/>
<text text-anchor="middle" x="285.75" y="-93.88" font-family="FreeSans" font-size="10.00">DGtal::concepts::CQuantity&lt; T &gt;</text>
</a>
</g>
</g>
<!-- Node1&#45;&gt;Node2 -->
<g id="edge1_Node000001_Node000002" class="edge">
<title>Node1&#45;&gt;Node2</title>
<g id="a_edge1_Node000001_Node000002"><a xlink:title=" ">
<path fill="none" stroke="#63b8ff" d="M179.89,-96.25C187.89,-96.25 195.94,-96.25 203.82,-96.25"/>
<polygon fill="#63b8ff" stroke="#63b8ff" points="180.14,-92.75 170.14,-96.25 180.14,-99.75 180.14,-92.75"/>
</a>
</g>
</g>
<!-- Node3 -->
<g id="Node000003" class="node">
<title>Node3</title>
<g id="a_Node000003"><a xlink:href="structDGtal_1_1concepts_1_1CBoundedNumber.html" target="_top" xlink:title="Aim: The concept CBoundedNumber specifies what are the bounded numbers. Models of this concept should...">
<polygon fill="white" stroke="#666666" points="548.25,-183.5 404,-183.5 404,-147 548.25,-147 548.25,-183.5"/>
<text text-anchor="start" x="412" y="-170" font-family="FreeSans" font-size="10.00">DGtal::concepts::CBounded</text>
<text text-anchor="middle" x="476.12" y="-155.75" font-family="FreeSans" font-size="10.00">Number&lt; T &gt;</text>
</a>
</g>
</g>
<!-- Node2&#45;&gt;Node3 -->
<g id="edge2_Node000002_Node000003" class="edge">
<title>Node2&#45;&gt;Node3</title>
<g id="a_edge2_Node000002_Node000003"><a xlink:title=" ">
<path fill="none" stroke="#63b8ff" d="M329,-111.72C357.21,-122.06 394.47,-135.71 424.3,-146.63"/>
<polygon fill="#63b8ff" stroke="#63b8ff" points="330.29,-108.47 319.7,-108.32 327.89,-115.05 330.29,-108.47"/>
</a>
</g>
</g>
<!-- Node4 -->
<g id="Node000004" class="node">
<title>Node4</title>
<g id="a_Node000004"><a xlink:href="structDGtal_1_1concepts_1_1CIntegralNumber.html" target="_top" xlink:title="Aim: Concept checking for Integral Numbers. Models of this concept should be listed in NumberTraits c...">
<polygon fill="white" stroke="#666666" points="736,-141.5 597.75,-141.5 597.75,-105 736,-105 736,-141.5"/>
<text text-anchor="start" x="605.75" y="-128" font-family="FreeSans" font-size="10.00">DGtal::concepts::CIntegral</text>
<text text-anchor="middle" x="666.88" y="-113.75" font-family="FreeSans" font-size="10.00">Number&lt; T &gt;</text>
</a>
</g>
</g>
<!-- Node2&#45;&gt;Node4 -->
<g id="edge3_Node000002_Node000004" class="edge">
<title>Node2&#45;&gt;Node4</title>
<g id="a_edge3_Node000002_Node000004"><a xlink:title=" ">
<path fill="none" stroke="#63b8ff" d="M379.08,-102.83C446.51,-107.63 536.45,-114.03 597.5,-118.38"/>
<polygon fill="#63b8ff" stroke="#63b8ff" points="379.35,-99.34 369.13,-102.12 378.85,-106.32 379.35,-99.34"/>
</a>
</g>
</g>
<!-- Node6 -->
<g id="Node000006" class="node">
<title>Node6</title>
<g id="a_Node000006"><a xlink:href="structDGtal_1_1concepts_1_1CSignedNumber.html" target="_top" xlink:title="Aim: Concept checking for Signed Numbers. Models of this concept should be listed in NumberTraits cla...">
<polygon fill="white" stroke="#666666" points="542.62,-91.5 409.62,-91.5 409.62,-55 542.62,-55 542.62,-91.5"/>
<text text-anchor="start" x="417.62" y="-78" font-family="FreeSans" font-size="10.00">DGtal::concepts::CSigned</text>
<text text-anchor="middle" x="476.12" y="-63.75" font-family="FreeSans" font-size="10.00">Number&lt; T &gt;</text>
</a>
</g>
</g>
<!-- Node2&#45;&gt;Node6 -->
<g id="edge5_Node000002_Node000006" class="edge">
<title>Node2&#45;&gt;Node6</title>
<g id="a_edge5_Node000002_Node000006"><a xlink:title=" ">
<path fill="none" stroke="#63b8ff" d="M378.84,-85.01C389.1,-83.75 399.4,-82.5 409.25,-81.29"/>
<polygon fill="#63b8ff" stroke="#63b8ff" points="378.74,-81.49 369.23,-86.18 379.58,-88.44 378.74,-81.49"/>
</a>
</g>
</g>
<!-- Node9 -->
<g id="Node000009" class="node">
<title>Node9</title>
<g id="a_Node000009"><a xlink:href="structDGtal_1_1concepts_1_1CUnsignedNumber.html" target="_top" xlink:title="Aim: Concept checking for Unsigned numbers. Models of this concept should be listed in NumberTraits c...">
<polygon fill="white" stroke="#666666" points="549,-36.5 403.25,-36.5 403.25,0 549,0 549,-36.5"/>
<text text-anchor="start" x="411.25" y="-23" font-family="FreeSans" font-size="10.00">DGtal::concepts::CUnsigned</text>
<text text-anchor="middle" x="476.12" y="-8.75" font-family="FreeSans" font-size="10.00">Number&lt; T &gt;</text>
</a>
</g>
</g>
<!-- Node2&#45;&gt;Node9 -->
<g id="edge9_Node000002_Node000009" class="edge">
<title>Node2&#45;&gt;Node9</title>
<g id="a_edge9_Node000002_Node000009"><a xlink:title=" ">
<path fill="none" stroke="#63b8ff" d="M323.3,-80.19C346.19,-70.22 376.34,-57.26 403.25,-46.25 410.81,-43.16 418.85,-39.95 426.71,-36.85"/>
<polygon fill="#63b8ff" stroke="#63b8ff" points="322.17,-76.86 314.4,-84.07 324.97,-83.28 322.17,-76.86"/>
</a>
</g>
</g>
<!-- Node5 -->
<g id="Node000005" class="node">
<title>Node5</title>
<g id="a_Node000005"><a xlink:href="structDGtal_1_1concepts_1_1CInteger.html" target="_top" xlink:title="Aim: Concept checking for Integer Numbers. More precisely, this concept is a refinement of both CEucl...">
<polygon fill="white" stroke="#666666" points="1125,-106.38 965.75,-106.38 965.75,-84.12 1125,-84.12 1125,-106.38"/>
<text text-anchor="middle" x="1045.38" y="-92.88" font-family="FreeSans" font-size="10.00">DGtal::concepts::CInteger&lt; T &gt;</text>
</a>
</g>
</g>
<!-- Node4&#45;&gt;Node5 -->
<g id="edge4_Node000004_Node000005" class="edge">
<title>Node4&#45;&gt;Node5</title>
<g id="a_edge4_Node000004_Node000005"><a xlink:title=" ">
<path fill="none" stroke="#63b8ff" d="M747.77,-117.31C811.93,-112.54 901.58,-105.87 965.48,-101.12"/>
<polygon fill="#63b8ff" stroke="#63b8ff" points="747.72,-113.8 738,-118.03 748.23,-120.78 747.72,-113.8"/>
</a>
</g>
</g>
<!-- Node7 -->
<g id="Node000007" class="node">
<title>Node7</title>
<g id="a_Node000007"><a xlink:href="structDGtal_1_1concepts_1_1CCommutativeRing.html" target="_top" xlink:title="Aim: Defines the mathematical concept equivalent to a unitary commutative ring.">
<polygon fill="white" stroke="#666666" points="748.75,-86.5 585,-86.5 585,-50 748.75,-50 748.75,-86.5"/>
<text text-anchor="start" x="593" y="-73" font-family="FreeSans" font-size="10.00">DGtal::concepts::CCommutative</text>
<text text-anchor="middle" x="666.88" y="-58.75" font-family="FreeSans" font-size="10.00">Ring&lt; T &gt;</text>
</a>
</g>
</g>
<!-- Node6&#45;&gt;Node7 -->
<g id="edge6_Node000006_Node000007" class="edge">
<title>Node6&#45;&gt;Node7</title>
<g id="a_edge6_Node000006_Node000007"><a xlink:title=" ">
<path fill="none" stroke="#63b8ff" d="M554.13,-71.21C564.22,-70.94 574.59,-70.67 584.74,-70.4"/>
<polygon fill="#63b8ff" stroke="#63b8ff" points="554.29,-67.7 544.39,-71.47 554.48,-74.7 554.29,-67.7"/>
</a>
</g>
</g>
<!-- Node8 -->
<g id="Node000008" class="node">
<title>Node8</title>
<g id="a_Node000008"><a xlink:href="structDGtal_1_1concepts_1_1CEuclideanRing.html" target="_top" xlink:title="Aim: Defines the mathematical concept equivalent to a unitary commutative ring with a division operat...">
<polygon fill="white" stroke="#666666" points="929.75,-90.5 784.75,-90.5 784.75,-54 929.75,-54 929.75,-90.5"/>
<text text-anchor="start" x="792.75" y="-77" font-family="FreeSans" font-size="10.00">DGtal::concepts::CEuclidean</text>
<text text-anchor="middle" x="857.25" y="-62.75" font-family="FreeSans" font-size="10.00">Ring&lt; T &gt;</text>
</a>
</g>
</g>
<!-- Node7&#45;&gt;Node8 -->
<g id="edge7_Node000007_Node000008" class="edge">
<title>Node7&#45;&gt;Node8</title>
<g id="a_edge7_Node000007_Node000008"><a xlink:title=" ">
<path fill="none" stroke="#63b8ff" d="M760.48,-70.22C768.53,-70.39 776.6,-70.56 784.45,-70.73"/>
<polygon fill="#63b8ff" stroke="#63b8ff" points="760.72,-66.72 750.64,-70.01 760.57,-73.72 760.72,-66.72"/>
</a>
</g>
</g>
<!-- Node8&#45;&gt;Node5 -->
<g id="edge8_Node000008_Node000005" class="edge">
<title>Node8&#45;&gt;Node5</title>
<g id="a_edge8_Node000008_Node000005"><a xlink:title=" ">
<path fill="none" stroke="#63b8ff" d="M941.43,-82.53C949.44,-83.52 957.54,-84.52 965.5,-85.5"/>
<polygon fill="#63b8ff" stroke="#63b8ff" points="942.07,-79.08 931.71,-81.33 941.21,-86.03 942.07,-79.08"/>
</a>
</g>
</g>
</g>
</svg>
