<?xml version="1.0" encoding="UTF-8" standalone="no"?>
<!DOCTYPE svg PUBLIC "-//W3C//DTD SVG 1.1//EN"
 "http://www.w3.org/Graphics/SVG/1.1/DTD/svg11.dtd">
<!-- Generated by graphviz version 11.0.0 (0)
 -->
<!-- Title: DGtal::concepts::CPointEmbedder&lt; T &gt; Pages: 1 -->
<svg width="339pt" height="320pt"
 viewBox="0.00 0.00 339.00 320.25" xmlns="http://www.w3.org/2000/svg" xmlns:xlink="http://www.w3.org/1999/xlink">
<g id="graph0" class="graph" transform="scale(1 1) rotate(0) translate(4 316.25)">
<title>DGtal::concepts::CPointEmbedder&lt; T &gt;</title>
<!-- Node1 -->
<g id="Node000001" class="node">
<title>Node1</title>
<g id="a_Node000001"><a xlink:title="Aim: A point embedder is a mapping from digital points to Euclidean points. It adds inner types to fu...">
<polygon fill="#999999" stroke="#666666" points="196,-22.25 0,-22.25 0,0 196,0 196,-22.25"/>
<text text-anchor="middle" x="98" y="-8.75" font-family="FreeSans" font-size="10.00">DGtal::concepts::CPointEmbedder&lt; T &gt;</text>
</a>
</g>
</g>
<!-- Node2 -->
<g id="Node000002" class="node">
<title>Node2</title>
<g id="a_Node000002"><a xlink:href="structDGtal_1_1concepts_1_1CUnaryFunctor.html" target="_top" xlink:title=" ">
<polygon fill="white" stroke="#666666" points="181,-94.75 15,-94.75 15,-58.25 181,-58.25 181,-94.75"/>
<text text-anchor="start" x="23" y="-81.25" font-family="FreeSans" font-size="10.00">DGtal::concepts::CUnaryFunctor</text>
<text text-anchor="middle" x="98" y="-67" font-family="FreeSans" font-size="10.00">&lt; T, T::Point, T::RealPoint &gt;</text>
</a>
</g>
</g>
<!-- Node2&#45;&gt;Node1 -->
<g id="edge1_Node000001_Node000002" class="edge">
<title>Node2&#45;&gt;Node1</title>
<g id="a_edge1_Node000001_Node000002"><a xlink:title=" ">
<path fill="none" stroke="#63b8ff" d="M98,-46.34C98,-37.92 98,-29.25 98,-22.74"/>
<polygon fill="#63b8ff" stroke="#63b8ff" points="94.5,-46.33 98,-56.33 101.5,-46.33 94.5,-46.33"/>
</a>
</g>
</g>
<!-- Node3 -->
<g id="Node000003" class="node">
<title>Node3</title>
<g id="a_Node000003"><a xlink:href="structboost_1_1Assignable.html" target="_top" xlink:title="Go to http://www.sgi.com/tech/stl/Assignable.html.">
<polygon fill="white" stroke="#666666" points="146.75,-174.38 27.25,-174.38 27.25,-152.12 146.75,-152.12 146.75,-174.38"/>
<text text-anchor="middle" x="87" y="-160.88" font-family="FreeSans" font-size="10.00">boost::Assignable&lt; T &gt;</text>
</a>
</g>
</g>
<!-- Node3&#45;&gt;Node2 -->
<g id="edge2_Node000002_Node000003" class="edge">
<title>Node3&#45;&gt;Node2</title>
<g id="a_edge2_Node000002_Node000003"><a xlink:title=" ">
<path fill="none" stroke="#63b8ff" d="M89.79,-140.72C91.63,-126.58 94,-108.32 95.72,-95.06"/>
<polygon fill="#63b8ff" stroke="#63b8ff" points="86.36,-139.99 88.54,-150.36 93.3,-140.89 86.36,-139.99"/>
</a>
</g>
</g>
<!-- Node4 -->
<g id="Node000004" class="node">
<title>Node4</title>
<g id="a_Node000004"><a xlink:href="structDGtal_1_1concepts_1_1CUnaryFunctor.html" target="_top" xlink:title="Aim: Defines a unary functor, which associates arguments to results.">
<polygon fill="white" stroke="#666666" points="331,-181.5 165,-181.5 165,-145 331,-145 331,-181.5"/>
<text text-anchor="start" x="173" y="-168" font-family="FreeSans" font-size="10.00">DGtal::concepts::CUnaryFunctor</text>
<text text-anchor="middle" x="248" y="-153.75" font-family="FreeSans" font-size="10.00">&lt; X, A, R &gt;</text>
</a>
</g>
</g>
<!-- Node4&#45;&gt;Node2 -->
<g id="edge3_Node000002_Node000004" class="edge">
<title>Node4&#45;&gt;Node2</title>
<g id="a_edge3_Node000002_Node000004"><a xlink:title=" ">
<path fill="none" stroke="orange" stroke-dasharray="5,2" d="M207.17,-139.18C182.64,-125.32 151.9,-107.95 129.3,-95.18"/>
<polygon fill="orange" stroke="orange" points="205.17,-142.07 215.6,-143.95 208.62,-135.98 205.17,-142.07"/>
</a>
</g>
<text text-anchor="middle" x="243.25" y="-117.5" font-family="FreeSans" font-size="10.00" fill="grey"> &lt; T, T::Point, T::RealPoint &gt;</text>
</g>
<!-- Node5 -->
<g id="Node000005" class="node">
<title>Node5</title>
<g id="a_Node000005"><a xlink:href="structboost_1_1Assignable.html" target="_top" xlink:title=" ">
<polygon fill="white" stroke="#666666" points="308.12,-239.75 187.88,-239.75 187.88,-217.5 308.12,-217.5 308.12,-239.75"/>
<text text-anchor="middle" x="248" y="-226.25" font-family="FreeSans" font-size="10.00">boost::Assignable&lt; X &gt;</text>
</a>
</g>
</g>
<!-- Node5&#45;&gt;Node4 -->
<g id="edge4_Node000004_Node000005" class="edge">
<title>Node5&#45;&gt;Node4</title>
<g id="a_edge4_Node000004_Node000005"><a xlink:title=" ">
<path fill="none" stroke="#63b8ff" d="M248,-205.92C248,-198.1 248,-189.36 248,-181.92"/>
<polygon fill="#63b8ff" stroke="#63b8ff" points="244.5,-205.65 248,-215.65 251.5,-205.65 244.5,-205.65"/>
</a>
</g>
</g>
<!-- Node6 -->
<g id="Node000006" class="node">
<title>Node6</title>
<g id="a_Node000006"><a xlink:href="structboost_1_1Assignable.html" target="_top" xlink:title="Go to http://www.sgi.com/tech/stl/Assignable.html.">
<polygon fill="white" stroke="#666666" points="307.75,-312.25 188.25,-312.25 188.25,-290 307.75,-290 307.75,-312.25"/>
<text text-anchor="middle" x="248" y="-298.75" font-family="FreeSans" font-size="10.00">boost::Assignable&lt; T &gt;</text>
</a>
</g>
</g>
<!-- Node6&#45;&gt;Node5 -->
<g id="edge5_Node000005_Node000006" class="edge">
<title>Node6&#45;&gt;Node5</title>
<g id="a_edge5_Node000005_Node000006"><a xlink:title=" ">
<path fill="none" stroke="orange" stroke-dasharray="5,2" d="M248,-278.22C248,-265.51 248,-250.08 248,-240.07"/>
<polygon fill="orange" stroke="orange" points="244.5,-278.21 248,-288.21 251.5,-278.21 244.5,-278.21"/>
</a>
</g>
<text text-anchor="middle" x="260.38" y="-262.5" font-family="FreeSans" font-size="10.00" fill="grey"> &lt; X &gt;</text>
</g>
</g>
</svg>
