<?xml version="1.0" encoding="UTF-8" standalone="no"?>
<!DOCTYPE svg PUBLIC "-//W3C//DTD SVG 1.1//EN"
 "http://www.w3.org/Graphics/SVG/1.1/DTD/svg11.dtd">
<!-- Generated by graphviz version 11.0.0 (0)
 -->
<!-- Title: LibBoard::Transform Pages: 1 -->
<svg width="456pt" height="150pt"
 viewBox="0.00 0.00 455.75 150.25" xmlns="http://www.w3.org/2000/svg" xmlns:xlink="http://www.w3.org/1999/xlink">
<g id="graph0" class="graph" transform="scale(1 1) rotate(0) translate(4 146.25)">
<title>LibBoard::Transform</title>
<!-- Node1 -->
<g id="Node000001" class="node">
<title>Node1</title>
<g id="a_Node000001"><a xlink:title="base class for transforms.">
<polygon fill="#999999" stroke="#666666" points="111.25,-82.25 0,-82.25 0,-60 111.25,-60 111.25,-82.25"/>
<text text-anchor="middle" x="55.62" y="-68.75" font-family="FreeSans" font-size="10.00">LibBoard::Transform</text>
</a>
</g>
</g>
<!-- Node2 -->
<g id="Node000002" class="node">
<title>Node2</title>
<g id="a_Node000002"><a xlink:href="structLibBoard_1_1TransformCairo.html" target="_top" xlink:title="Structure representing a scaling and translation suitable for an Cairo output.">
<polygon fill="white" stroke="#666666" points="281.75,-142.25 147.25,-142.25 147.25,-120 281.75,-120 281.75,-142.25"/>
<text text-anchor="middle" x="214.5" y="-128.75" font-family="FreeSans" font-size="10.00">LibBoard::TransformCairo</text>
</a>
</g>
</g>
<!-- Node1&#45;&gt;Node2 -->
<g id="edge1_Node000001_Node000002" class="edge">
<title>Node1&#45;&gt;Node2</title>
<g id="a_edge1_Node000001_Node000002"><a xlink:title=" ">
<path fill="none" stroke="#63b8ff" d="M90.94,-87.46C107.72,-95.14 128.33,-104.12 147.25,-111.12 155.25,-114.09 163.91,-116.94 172.24,-119.52"/>
<polygon fill="#63b8ff" stroke="#63b8ff" points="92.45,-84.3 81.9,-83.27 89.5,-90.65 92.45,-84.3"/>
</a>
</g>
</g>
<!-- Node3 -->
<g id="Node000003" class="node">
<title>Node3</title>
<g id="a_Node000003"><a xlink:href="structLibBoard_1_1TransformEPS.html" target="_top" xlink:title="Structure representing a scaling and translation suitable for an EPS output.">
<polygon fill="white" stroke="#666666" points="278.38,-102.25 150.62,-102.25 150.62,-80 278.38,-80 278.38,-102.25"/>
<text text-anchor="middle" x="214.5" y="-88.75" font-family="FreeSans" font-size="10.00">LibBoard::TransformEPS</text>
</a>
</g>
</g>
<!-- Node1&#45;&gt;Node3 -->
<g id="edge2_Node000001_Node000003" class="edge">
<title>Node1&#45;&gt;Node3</title>
<g id="a_edge2_Node000001_Node000003"><a xlink:title=" ">
<path fill="none" stroke="#63b8ff" d="M122.86,-79.57C131.96,-80.73 141.29,-81.92 150.34,-83.07"/>
<polygon fill="#63b8ff" stroke="#63b8ff" points="123.36,-76.1 112.99,-78.31 122.47,-83.05 123.36,-76.1"/>
</a>
</g>
</g>
<!-- Node4 -->
<g id="Node000004" class="node">
<title>Node4</title>
<g id="a_Node000004"><a xlink:href="structLibBoard_1_1TransformFIG.html" target="_top" xlink:title="Structure representing a scaling and translation suitable for an XFig output.">
<polygon fill="white" stroke="#666666" points="278.38,-62.25 150.62,-62.25 150.62,-40 278.38,-40 278.38,-62.25"/>
<text text-anchor="middle" x="214.5" y="-48.75" font-family="FreeSans" font-size="10.00">LibBoard::TransformFIG</text>
</a>
</g>
</g>
<!-- Node1&#45;&gt;Node4 -->
<g id="edge3_Node000001_Node000004" class="edge">
<title>Node1&#45;&gt;Node4</title>
<g id="a_edge3_Node000001_Node000004"><a xlink:title=" ">
<path fill="none" stroke="#63b8ff" d="M122.86,-62.68C131.96,-61.52 141.29,-60.33 150.34,-59.18"/>
<polygon fill="#63b8ff" stroke="#63b8ff" points="122.47,-59.2 112.99,-63.94 123.36,-66.15 122.47,-59.2"/>
</a>
</g>
</g>
<!-- Node5 -->
<g id="Node000005" class="node">
<title>Node5</title>
<g id="a_Node000005"><a xlink:href="structLibBoard_1_1TransformSVG.html" target="_top" xlink:title="Structure representing a scaling and translation suitable for an SVG output.">
<polygon fill="white" stroke="#666666" points="279.5,-22.25 149.5,-22.25 149.5,0 279.5,0 279.5,-22.25"/>
<text text-anchor="middle" x="214.5" y="-8.75" font-family="FreeSans" font-size="10.00">LibBoard::TransformSVG</text>
</a>
</g>
</g>
<!-- Node1&#45;&gt;Node5 -->
<g id="edge4_Node000001_Node000005" class="edge">
<title>Node1&#45;&gt;Node5</title>
<g id="a_edge4_Node000001_Node000005"><a xlink:title=" ">
<path fill="none" stroke="#63b8ff" d="M90.94,-54.79C107.72,-47.11 128.33,-38.13 147.25,-31.12 155.25,-28.16 163.91,-25.31 172.24,-22.73"/>
<polygon fill="#63b8ff" stroke="#63b8ff" points="89.5,-51.6 81.9,-58.98 92.45,-57.95 89.5,-51.6"/>
</a>
</g>
</g>
<!-- Node6 -->
<g id="Node000006" class="node">
<title>Node6</title>
<g id="a_Node000006"><a xlink:href="structLibBoard_1_1TransformTikZ.html" target="_top" xlink:title="Structure representing a scaling and translation suitable for an TikZ output.">
<polygon fill="white" stroke="#666666" points="447.75,-22.25 317.75,-22.25 317.75,0 447.75,0 447.75,-22.25"/>
<text text-anchor="middle" x="382.75" y="-8.75" font-family="FreeSans" font-size="10.00">LibBoard::TransformTikZ</text>
</a>
</g>
</g>
<!-- Node5&#45;&gt;Node6 -->
<g id="edge5_Node000005_Node000006" class="edge">
<title>Node5&#45;&gt;Node6</title>
<g id="a_edge5_Node000005_Node000006"><a xlink:title=" ">
<path fill="none" stroke="#63b8ff" d="M291.18,-11.12C299.93,-11.12 308.79,-11.12 317.37,-11.12"/>
<polygon fill="#63b8ff" stroke="#63b8ff" points="291.29,-7.63 281.29,-11.13 291.29,-14.63 291.29,-7.63"/>
</a>
</g>
</g>
</g>
</svg>
