<?xml version="1.0" encoding="UTF-8" standalone="no"?>
<!DOCTYPE svg PUBLIC "-//W3C//DTD SVG 1.1//EN"
 "http://www.w3.org/Graphics/SVG/1.1/DTD/svg11.dtd">
<!-- Generated by graphviz version 11.0.0 (0)
 -->
<!-- Title: DGtal::concepts::CAdditivePrimitiveComputer&lt; T &gt; Pages: 1 -->
<svg width="722pt" height="110pt"
 viewBox="0.00 0.00 722.25 110.25" xmlns="http://www.w3.org/2000/svg" xmlns:xlink="http://www.w3.org/1999/xlink">
<g id="graph0" class="graph" transform="scale(1 1) rotate(0) translate(4 106.25)">
<title>DGtal::concepts::CAdditivePrimitiveComputer&lt; T &gt;</title>
<!-- Node1 -->
<g id="Node000001" class="node">
<title>Node1</title>
<g id="a_Node000001"><a xlink:title="Aim: Defines the concept describing an object that computes some primitive from input points given gr...">
<polygon fill="#999999" stroke="#666666" points="714.25,-69.38 574.5,-69.38 574.5,-32.88 714.25,-32.88 714.25,-69.38"/>
<text text-anchor="start" x="582.5" y="-55.88" font-family="FreeSans" font-size="10.00">DGtal::concepts::CAdditive</text>
<text text-anchor="middle" x="644.38" y="-41.62" font-family="FreeSans" font-size="10.00">PrimitiveComputer&lt; T &gt;</text>
</a>
</g>
</g>
<!-- Node2 -->
<g id="Node000002" class="node">
<title>Node2</title>
<g id="a_Node000002"><a xlink:href="structDGtal_1_1concepts_1_1CIncrementalPrimitiveComputer.html" target="_top" xlink:title="Aim: Defines the concept describing an object that computes some primitive from input points given on...">
<polygon fill="white" stroke="#666666" points="538.5,-69.38 380.75,-69.38 380.75,-32.88 538.5,-32.88 538.5,-69.38"/>
<text text-anchor="start" x="388.75" y="-55.88" font-family="FreeSans" font-size="10.00">DGtal::concepts::CIncremental</text>
<text text-anchor="middle" x="459.62" y="-41.62" font-family="FreeSans" font-size="10.00">PrimitiveComputer&lt; T &gt;</text>
</a>
</g>
</g>
<!-- Node2&#45;&gt;Node1 -->
<g id="edge1_Node000001_Node000002" class="edge">
<title>Node2&#45;&gt;Node1</title>
<g id="a_edge1_Node000001_Node000002"><a xlink:title=" ">
<path fill="none" stroke="#63b8ff" d="M550.25,-51.12C558.29,-51.12 566.35,-51.12 574.18,-51.12"/>
<polygon fill="#63b8ff" stroke="#63b8ff" points="550.44,-47.63 540.44,-51.13 550.44,-54.63 550.44,-47.63"/>
</a>
</g>
</g>
<!-- Node3 -->
<g id="Node000003" class="node">
<title>Node3</title>
<g id="a_Node000003"><a xlink:href="structDGtal_1_1concepts_1_1CPrimitiveComputer.html" target="_top" xlink:title="Aim: Defines the concept describing an object that computes some primitive from input points,...">
<polygon fill="white" stroke="#666666" points="344.75,-69.38 202,-69.38 202,-32.88 344.75,-32.88 344.75,-69.38"/>
<text text-anchor="start" x="210" y="-55.88" font-family="FreeSans" font-size="10.00">DGtal::concepts::CPrimitive</text>
<text text-anchor="middle" x="273.38" y="-41.62" font-family="FreeSans" font-size="10.00">Computer&lt; T &gt;</text>
</a>
</g>
</g>
<!-- Node3&#45;&gt;Node2 -->
<g id="edge2_Node000002_Node000003" class="edge">
<title>Node3&#45;&gt;Node2</title>
<g id="a_edge2_Node000002_Node000003"><a xlink:title=" ">
<path fill="none" stroke="#63b8ff" d="M356.32,-51.12C364.34,-51.12 372.46,-51.12 380.44,-51.12"/>
<polygon fill="#63b8ff" stroke="#63b8ff" points="356.6,-47.63 346.6,-51.13 356.6,-54.63 356.6,-47.63"/>
</a>
</g>
</g>
<!-- Node4 -->
<g id="Node000004" class="node">
<title>Node4</title>
<g id="a_Node000004"><a xlink:href="structboost_1_1DefaultConstructible.html" target="_top" xlink:title="Go to http://www.sgi.com/tech/stl/DefaultConstructible.html.">
<polygon fill="white" stroke="#666666" points="166,-102.25 0,-102.25 0,-80 166,-80 166,-102.25"/>
<text text-anchor="middle" x="83" y="-88.75" font-family="FreeSans" font-size="10.00">boost::DefaultConstructible&lt; T &gt;</text>
</a>
</g>
</g>
<!-- Node4&#45;&gt;Node3 -->
<g id="edge3_Node000003_Node000004" class="edge">
<title>Node4&#45;&gt;Node3</title>
<g id="a_edge3_Node000003_Node000004"><a xlink:title=" ">
<path fill="none" stroke="#63b8ff" d="M149.58,-77.2C166.42,-73.62 184.6,-69.76 201.69,-66.14"/>
<polygon fill="#63b8ff" stroke="#63b8ff" points="149.27,-73.69 140.22,-79.19 150.73,-80.53 149.27,-73.69"/>
</a>
</g>
</g>
<!-- Node5 -->
<g id="Node000005" class="node">
<title>Node5</title>
<g id="a_Node000005"><a xlink:href="structboost_1_1CopyConstructible.html" target="_top" xlink:title="Go to http://www.sgi.com/tech/stl/CopyConstructible.html.">
<polygon fill="white" stroke="#666666" points="160.38,-62.25 5.62,-62.25 5.62,-40 160.38,-40 160.38,-62.25"/>
<text text-anchor="middle" x="83" y="-48.75" font-family="FreeSans" font-size="10.00">boost::CopyConstructible&lt; T &gt;</text>
</a>
</g>
</g>
<!-- Node5&#45;&gt;Node3 -->
<g id="edge4_Node000003_Node000005" class="edge">
<title>Node5&#45;&gt;Node3</title>
<g id="a_edge4_Node000003_Node000005"><a xlink:title=" ">
<path fill="none" stroke="#63b8ff" d="M171.82,-51.12C181.8,-51.12 191.87,-51.12 201.59,-51.12"/>
<polygon fill="#63b8ff" stroke="#63b8ff" points="172.13,-47.63 162.13,-51.13 172.13,-54.63 172.13,-47.63"/>
</a>
</g>
</g>
<!-- Node6 -->
<g id="Node000006" class="node">
<title>Node6</title>
<g id="a_Node000006"><a xlink:href="structboost_1_1Assignable.html" target="_top" xlink:title="Go to http://www.sgi.com/tech/stl/Assignable.html.">
<polygon fill="white" stroke="#666666" points="142.75,-22.25 23.25,-22.25 23.25,0 142.75,0 142.75,-22.25"/>
<text text-anchor="middle" x="83" y="-8.75" font-family="FreeSans" font-size="10.00">boost::Assignable&lt; T &gt;</text>
</a>
</g>
</g>
<!-- Node6&#45;&gt;Node3 -->
<g id="edge5_Node000003_Node000006" class="edge">
<title>Node6&#45;&gt;Node3</title>
<g id="a_edge5_Node000003_Node000006"><a xlink:title=" ">
<path fill="none" stroke="#63b8ff" d="M149.58,-25.05C166.42,-28.63 184.6,-32.49 201.69,-36.11"/>
<polygon fill="#63b8ff" stroke="#63b8ff" points="150.73,-21.72 140.22,-23.06 149.27,-28.56 150.73,-21.72"/>
</a>
</g>
</g>
</g>
</svg>
