<?xml version="1.0" encoding="UTF-8" standalone="no"?>
<!DOCTYPE svg PUBLIC "-//W3C//DTD SVG 1.1//EN"
 "http://www.w3.org/Graphics/SVG/1.1/DTD/svg11.dtd">
<!-- Generated by graphviz version 11.0.0 (0)
 -->
<!-- Title: DGtal::concepts::CDigitalSurfaceEmbedder&lt; T &gt; Pages: 1 -->
<svg width="338pt" height="393pt"
 viewBox="0.00 0.00 337.88 392.75" xmlns="http://www.w3.org/2000/svg" xmlns:xlink="http://www.w3.org/1999/xlink">
<g id="graph0" class="graph" transform="scale(1 1) rotate(0) translate(4 388.75)">
<title>DGtal::concepts::CDigitalSurfaceEmbedder&lt; T &gt;</title>
<!-- Node1 -->
<g id="Node000001" class="node">
<title>Node1</title>
<g id="a_Node000001"><a xlink:title="Aim: A digital surface embedder is a specialized mapping from signed cells to Euclidean points....">
<polygon fill="#999999" stroke="#666666" points="162.25,-36.5 31.5,-36.5 31.5,0 162.25,0 162.25,-36.5"/>
<text text-anchor="start" x="39.5" y="-23" font-family="FreeSans" font-size="10.00">DGtal::concepts::CDigital</text>
<text text-anchor="middle" x="96.88" y="-8.75" font-family="FreeSans" font-size="10.00">SurfaceEmbedder&lt; T &gt;</text>
</a>
</g>
</g>
<!-- Node2 -->
<g id="Node000002" class="node">
<title>Node2</title>
<g id="a_Node000002"><a xlink:href="structDGtal_1_1concepts_1_1CSCellEmbedder.html" target="_top" xlink:title="Aim: A cell embedder is a mapping from signed cells to Euclidean points. It adds inner types to funct...">
<polygon fill="white" stroke="#666666" points="193.75,-94.75 0,-94.75 0,-72.5 193.75,-72.5 193.75,-94.75"/>
<text text-anchor="middle" x="96.88" y="-81.25" font-family="FreeSans" font-size="10.00">DGtal::concepts::CSCellEmbedder&lt; T &gt;</text>
</a>
</g>
</g>
<!-- Node2&#45;&gt;Node1 -->
<g id="edge1_Node000001_Node000002" class="edge">
<title>Node2&#45;&gt;Node1</title>
<g id="a_edge1_Node000001_Node000002"><a xlink:title=" ">
<path fill="none" stroke="#63b8ff" d="M96.88,-60.92C96.88,-53.1 96.88,-44.36 96.88,-36.92"/>
<polygon fill="#63b8ff" stroke="#63b8ff" points="93.38,-60.65 96.88,-70.65 100.38,-60.65 93.38,-60.65"/>
</a>
</g>
</g>
<!-- Node3 -->
<g id="Node000003" class="node">
<title>Node3</title>
<g id="a_Node000003"><a xlink:href="structDGtal_1_1concepts_1_1CUnaryFunctor.html" target="_top" xlink:title=" ">
<polygon fill="white" stroke="#666666" points="179.88,-167.25 13.88,-167.25 13.88,-130.75 179.88,-130.75 179.88,-167.25"/>
<text text-anchor="start" x="21.88" y="-153.75" font-family="FreeSans" font-size="10.00">DGtal::concepts::CUnaryFunctor</text>
<text text-anchor="middle" x="96.88" y="-139.5" font-family="FreeSans" font-size="10.00">&lt; T, T::SCell, T::RealPoint &gt;</text>
</a>
</g>
</g>
<!-- Node3&#45;&gt;Node2 -->
<g id="edge2_Node000002_Node000003" class="edge">
<title>Node3&#45;&gt;Node2</title>
<g id="a_edge2_Node000002_Node000003"><a xlink:title=" ">
<path fill="none" stroke="#63b8ff" d="M96.88,-118.84C96.88,-110.42 96.88,-101.75 96.88,-95.24"/>
<polygon fill="#63b8ff" stroke="#63b8ff" points="93.38,-118.83 96.88,-128.83 100.38,-118.83 93.38,-118.83"/>
</a>
</g>
</g>
<!-- Node4 -->
<g id="Node000004" class="node">
<title>Node4</title>
<g id="a_Node000004"><a xlink:href="structboost_1_1Assignable.html" target="_top" xlink:title="Go to http://www.sgi.com/tech/stl/Assignable.html.">
<polygon fill="white" stroke="#666666" points="145.62,-246.88 26.12,-246.88 26.12,-224.62 145.62,-224.62 145.62,-246.88"/>
<text text-anchor="middle" x="85.88" y="-233.38" font-family="FreeSans" font-size="10.00">boost::Assignable&lt; T &gt;</text>
</a>
</g>
</g>
<!-- Node4&#45;&gt;Node3 -->
<g id="edge3_Node000003_Node000004" class="edge">
<title>Node4&#45;&gt;Node3</title>
<g id="a_edge3_Node000003_Node000004"><a xlink:title=" ">
<path fill="none" stroke="#63b8ff" d="M88.67,-213.22C90.5,-199.08 92.87,-180.82 94.6,-167.56"/>
<polygon fill="#63b8ff" stroke="#63b8ff" points="85.23,-212.49 87.42,-222.86 92.18,-213.39 85.23,-212.49"/>
</a>
</g>
</g>
<!-- Node5 -->
<g id="Node000005" class="node">
<title>Node5</title>
<g id="a_Node000005"><a xlink:href="structDGtal_1_1concepts_1_1CUnaryFunctor.html" target="_top" xlink:title="Aim: Defines a unary functor, which associates arguments to results.">
<polygon fill="white" stroke="#666666" points="329.88,-254 163.88,-254 163.88,-217.5 329.88,-217.5 329.88,-254"/>
<text text-anchor="start" x="171.88" y="-240.5" font-family="FreeSans" font-size="10.00">DGtal::concepts::CUnaryFunctor</text>
<text text-anchor="middle" x="246.88" y="-226.25" font-family="FreeSans" font-size="10.00">&lt; X, A, R &gt;</text>
</a>
</g>
</g>
<!-- Node5&#45;&gt;Node3 -->
<g id="edge4_Node000003_Node000005" class="edge">
<title>Node5&#45;&gt;Node3</title>
<g id="a_edge4_Node000003_Node000005"><a xlink:title=" ">
<path fill="none" stroke="orange" stroke-dasharray="5,2" d="M206.05,-211.68C181.51,-197.82 150.78,-180.45 128.17,-167.68"/>
<polygon fill="orange" stroke="orange" points="204.05,-214.57 214.48,-216.45 207.49,-208.48 204.05,-214.57"/>
</a>
</g>
<text text-anchor="middle" x="241" y="-190" font-family="FreeSans" font-size="10.00" fill="grey"> &lt; T, T::SCell, T::RealPoint &gt;</text>
</g>
<!-- Node6 -->
<g id="Node000006" class="node">
<title>Node6</title>
<g id="a_Node000006"><a xlink:href="structboost_1_1Assignable.html" target="_top" xlink:title=" ">
<polygon fill="white" stroke="#666666" points="307,-312.25 186.75,-312.25 186.75,-290 307,-290 307,-312.25"/>
<text text-anchor="middle" x="246.88" y="-298.75" font-family="FreeSans" font-size="10.00">boost::Assignable&lt; X &gt;</text>
</a>
</g>
</g>
<!-- Node6&#45;&gt;Node5 -->
<g id="edge5_Node000005_Node000006" class="edge">
<title>Node6&#45;&gt;Node5</title>
<g id="a_edge5_Node000005_Node000006"><a xlink:title=" ">
<path fill="none" stroke="#63b8ff" d="M246.88,-278.42C246.88,-270.6 246.88,-261.86 246.88,-254.42"/>
<polygon fill="#63b8ff" stroke="#63b8ff" points="243.38,-278.15 246.88,-288.15 250.38,-278.15 243.38,-278.15"/>
</a>
</g>
</g>
<!-- Node7 -->
<g id="Node000007" class="node">
<title>Node7</title>
<g id="a_Node000007"><a xlink:href="structboost_1_1Assignable.html" target="_top" xlink:title="Go to http://www.sgi.com/tech/stl/Assignable.html.">
<polygon fill="white" stroke="#666666" points="306.62,-384.75 187.12,-384.75 187.12,-362.5 306.62,-362.5 306.62,-384.75"/>
<text text-anchor="middle" x="246.88" y="-371.25" font-family="FreeSans" font-size="10.00">boost::Assignable&lt; T &gt;</text>
</a>
</g>
</g>
<!-- Node7&#45;&gt;Node6 -->
<g id="edge6_Node000006_Node000007" class="edge">
<title>Node7&#45;&gt;Node6</title>
<g id="a_edge6_Node000006_Node000007"><a xlink:title=" ">
<path fill="none" stroke="orange" stroke-dasharray="5,2" d="M246.88,-350.72C246.88,-338.01 246.88,-322.58 246.88,-312.57"/>
<polygon fill="orange" stroke="orange" points="243.38,-350.71 246.88,-360.71 250.38,-350.71 243.38,-350.71"/>
</a>
</g>
<text text-anchor="middle" x="259.25" y="-335" font-family="FreeSans" font-size="10.00" fill="grey"> &lt; X &gt;</text>
</g>
</g>
</svg>
