<?xml version="1.0" encoding="UTF-8" standalone="no"?>
<!DOCTYPE svg PUBLIC "-//W3C//DTD SVG 1.1//EN"
 "http://www.w3.org/Graphics/SVG/1.1/DTD/svg11.dtd">
<!-- Generated by graphviz version 11.0.0 (0)
 -->
<!-- Title: DGtal::concepts::CVertexPredicate&lt; T &gt; Pages: 1 -->
<svg width="1413pt" height="107pt"
 viewBox="0.00 0.00 1413.25 107.05" xmlns="http://www.w3.org/2000/svg" xmlns:xlink="http://www.w3.org/1999/xlink">
<g id="graph0" class="graph" transform="scale(1 1) rotate(0) translate(4 103.05)">
<title>DGtal::concepts::CVertexPredicate&lt; T &gt;</title>
<!-- Node1 -->
<g id="Node000001" class="node">
<title>Node1</title>
<g id="a_Node000001"><a xlink:title="Aim: Defines a predicate on a vertex.">
<polygon fill="#999999" stroke="#666666" points="1405.25,-69.18 1273,-69.18 1273,-32.68 1405.25,-32.68 1405.25,-69.18"/>
<text text-anchor="start" x="1281" y="-55.68" font-family="FreeSans" font-size="10.00">DGtal::concepts::CVertex</text>
<text text-anchor="middle" x="1339.12" y="-41.43" font-family="FreeSans" font-size="10.00">Predicate&lt; T &gt;</text>
</a>
</g>
</g>
<!-- Node2 -->
<g id="Node000002" class="node">
<title>Node2</title>
<g id="a_Node000002"><a xlink:href="structDGtal_1_1concepts_1_1CPredicate.html" target="_top" xlink:title=" ">
<polygon fill="white" stroke="#666666" points="1237,-69.18 1092,-69.18 1092,-32.68 1237,-32.68 1237,-69.18"/>
<text text-anchor="start" x="1100" y="-55.68" font-family="FreeSans" font-size="10.00">DGtal::concepts::CPredicate</text>
<text text-anchor="middle" x="1164.5" y="-41.43" font-family="FreeSans" font-size="10.00">&lt; T, T::Vertex &gt;</text>
</a>
</g>
</g>
<!-- Node2&#45;&gt;Node1 -->
<g id="edge1_Node000001_Node000002" class="edge">
<title>Node2&#45;&gt;Node1</title>
<g id="a_edge1_Node000001_Node000002"><a xlink:title=" ">
<path fill="none" stroke="#63b8ff" d="M1248.6,-50.93C1256.69,-50.93 1264.83,-50.93 1272.71,-50.93"/>
<polygon fill="#63b8ff" stroke="#63b8ff" points="1248.72,-47.43 1238.72,-50.93 1248.72,-54.43 1248.72,-47.43"/>
</a>
</g>
</g>
<!-- Node3 -->
<g id="Node000003" class="node">
<title>Node3</title>
<g id="a_Node000003"><a xlink:href="structDGtal_1_1concepts_1_1CUnaryFunctor.html" target="_top" xlink:title=" ">
<polygon fill="white" stroke="#666666" points="802.75,-97.18 636.75,-97.18 636.75,-60.68 802.75,-60.68 802.75,-97.18"/>
<text text-anchor="start" x="644.75" y="-83.68" font-family="FreeSans" font-size="10.00">DGtal::concepts::CUnaryFunctor</text>
<text text-anchor="middle" x="719.75" y="-69.43" font-family="FreeSans" font-size="10.00">&lt; T, T::Vertex, bool &gt;</text>
</a>
</g>
</g>
<!-- Node3&#45;&gt;Node2 -->
<g id="edge2_Node000002_Node000003" class="edge">
<title>Node3&#45;&gt;Node2</title>
<g id="a_edge2_Node000002_Node000003"><a xlink:title=" ">
<path fill="none" stroke="#63b8ff" d="M814.39,-73.84C885.6,-69.85 986,-63.99 1074,-57.93 1079.75,-57.53 1085.71,-57.11 1091.7,-56.66"/>
<polygon fill="#63b8ff" stroke="#63b8ff" points="814.52,-70.33 804.73,-74.38 814.91,-77.32 814.52,-70.33"/>
</a>
</g>
</g>
<!-- Node4 -->
<g id="Node000004" class="node">
<title>Node4</title>
<g id="a_Node000004"><a xlink:href="structboost_1_1Assignable.html" target="_top" xlink:title="Go to http://www.sgi.com/tech/stl/Assignable.html.">
<polygon fill="white" stroke="#666666" points="479.25,-99.05 359.75,-99.05 359.75,-76.8 479.25,-76.8 479.25,-99.05"/>
<text text-anchor="middle" x="419.5" y="-85.55" font-family="FreeSans" font-size="10.00">boost::Assignable&lt; T &gt;</text>
</a>
</g>
</g>
<!-- Node4&#45;&gt;Node3 -->
<g id="edge3_Node000003_Node000004" class="edge">
<title>Node4&#45;&gt;Node3</title>
<g id="a_edge3_Node000003_Node000004"><a xlink:title=" ">
<path fill="none" stroke="#63b8ff" d="M490.81,-85.81C534.48,-84.49 590.79,-82.79 636.52,-81.41"/>
<polygon fill="#63b8ff" stroke="#63b8ff" points="490.83,-82.31 480.94,-86.11 491.04,-89.3 490.83,-82.31"/>
</a>
</g>
</g>
<!-- Node9 -->
<g id="Node000009" class="node">
<title>Node9</title>
<g id="a_Node000009"><a xlink:href="structDGtal_1_1concepts_1_1CUnaryFunctor.html" target="_top" xlink:title=" ">
<polygon fill="white" stroke="#666666" points="802.75,-42.18 636.75,-42.18 636.75,-5.68 802.75,-5.68 802.75,-42.18"/>
<text text-anchor="start" x="644.75" y="-28.68" font-family="FreeSans" font-size="10.00">DGtal::concepts::CUnaryFunctor</text>
<text text-anchor="middle" x="719.75" y="-14.43" font-family="FreeSans" font-size="10.00">&lt; T, TElement, bool &gt;</text>
</a>
</g>
</g>
<!-- Node4&#45;&gt;Node9 -->
<g id="edge9_Node000009_Node000004" class="edge">
<title>Node4&#45;&gt;Node9</title>
<g id="a_edge9_Node000009_Node000004"><a xlink:title=" ">
<path fill="none" stroke="#63b8ff" d="M490.47,-78.65C528.64,-73 576.57,-64.93 618.75,-54.93 633.25,-51.49 648.72,-47.08 663.06,-42.66"/>
<polygon fill="#63b8ff" stroke="#63b8ff" points="490.36,-75.13 480.97,-80.03 491.37,-82.06 490.36,-75.13"/>
</a>
</g>
</g>
<!-- Node5 -->
<g id="Node000005" class="node">
<title>Node5</title>
<g id="a_Node000005"><a xlink:href="structDGtal_1_1concepts_1_1CUnaryFunctor.html" target="_top" xlink:title="Aim: Defines a unary functor, which associates arguments to results.">
<polygon fill="white" stroke="#666666" points="502.5,-46.18 336.5,-46.18 336.5,-9.68 502.5,-9.68 502.5,-46.18"/>
<text text-anchor="start" x="344.5" y="-32.68" font-family="FreeSans" font-size="10.00">DGtal::concepts::CUnaryFunctor</text>
<text text-anchor="middle" x="419.5" y="-18.43" font-family="FreeSans" font-size="10.00">&lt; X, A, R &gt;</text>
</a>
</g>
</g>
<!-- Node5&#45;&gt;Node3 -->
<g id="edge4_Node000003_Node000005" class="edge">
<title>Node5&#45;&gt;Node3</title>
<g id="a_edge4_Node000003_Node000005"><a xlink:title=" ">
<path fill="none" stroke="orange" stroke-dasharray="5,2" d="M514.2,-25.32C547.76,-26.63 585.5,-30.72 618.75,-40.68 627.57,-43.32 628.36,-47.15 636.75,-50.93 644.02,-54.21 651.79,-57.32 659.55,-60.21"/>
<polygon fill="orange" stroke="orange" points="514.6,-21.83 504.5,-25.02 514.39,-28.82 514.6,-21.83"/>
</a>
</g>
<text text-anchor="middle" x="569.62" y="-44.68" font-family="FreeSans" font-size="10.00" fill="grey"> &lt; T, T::Vertex, bool &gt;</text>
</g>
<!-- Node5&#45;&gt;Node9 -->
<g id="edge10_Node000009_Node000005" class="edge">
<title>Node5&#45;&gt;Node9</title>
<g id="a_edge10_Node000009_Node000005"><a xlink:title=" ">
<path fill="none" stroke="orange" stroke-dasharray="5,2" d="M499.31,-6.98C506.43,-5.65 513.57,-4.51 520.5,-3.68 563.86,1.5 575.3,0.68 618.75,-3.68 624.48,-4.25 630.36,-5.01 636.27,-5.89"/>
<polygon fill="orange" stroke="orange" points="498.75,-3.53 489.63,-8.93 500.13,-10.39 498.75,-3.53"/>
</a>
</g>
<text text-anchor="middle" x="569.62" y="-8.68" font-family="FreeSans" font-size="10.00" fill="grey"> &lt; T, TElement, bool &gt;</text>
</g>
<!-- Node6 -->
<g id="Node000006" class="node">
<title>Node6</title>
<g id="a_Node000006"><a xlink:href="structboost_1_1Assignable.html" target="_top" xlink:title=" ">
<polygon fill="white" stroke="#666666" points="300.5,-39.05 180.25,-39.05 180.25,-16.8 300.5,-16.8 300.5,-39.05"/>
<text text-anchor="middle" x="240.38" y="-25.55" font-family="FreeSans" font-size="10.00">boost::Assignable&lt; X &gt;</text>
</a>
</g>
</g>
<!-- Node6&#45;&gt;Node5 -->
<g id="edge5_Node000005_Node000006" class="edge">
<title>Node6&#45;&gt;Node5</title>
<g id="a_edge5_Node000005_Node000006"><a xlink:title=" ">
<path fill="none" stroke="#63b8ff" d="M312.23,-27.93C320.11,-27.93 328.19,-27.93 336.2,-27.93"/>
<polygon fill="#63b8ff" stroke="#63b8ff" points="312.36,-24.43 302.36,-27.93 312.36,-31.43 312.36,-24.43"/>
</a>
</g>
</g>
<!-- Node7 -->
<g id="Node000007" class="node">
<title>Node7</title>
<g id="a_Node000007"><a xlink:href="structboost_1_1Assignable.html" target="_top" xlink:title="Go to http://www.sgi.com/tech/stl/Assignable.html.">
<polygon fill="white" stroke="#666666" points="119.5,-39.05 0,-39.05 0,-16.8 119.5,-16.8 119.5,-39.05"/>
<text text-anchor="middle" x="59.75" y="-25.55" font-family="FreeSans" font-size="10.00">boost::Assignable&lt; T &gt;</text>
</a>
</g>
</g>
<!-- Node7&#45;&gt;Node6 -->
<g id="edge6_Node000006_Node000007" class="edge">
<title>Node7&#45;&gt;Node6</title>
<g id="a_edge6_Node000006_Node000007"><a xlink:title=" ">
<path fill="none" stroke="orange" stroke-dasharray="5,2" d="M130.79,-27.93C147.01,-27.93 164.12,-27.93 179.84,-27.93"/>
<polygon fill="orange" stroke="orange" points="131.25,-24.43 121.25,-27.93 131.25,-31.43 131.25,-24.43"/>
</a>
</g>
<text text-anchor="middle" x="149.88" y="-32.68" font-family="FreeSans" font-size="10.00" fill="grey"> &lt; X &gt;</text>
</g>
<!-- Node8 -->
<g id="Node000008" class="node">
<title>Node8</title>
<g id="a_Node000008"><a xlink:href="structDGtal_1_1concepts_1_1CPredicate.html" target="_top" xlink:title="Aim: Defines a predicate function, ie. a functor mapping a domain into the set of booleans.">
<polygon fill="white" stroke="#666666" points="984.75,-42.18 839.75,-42.18 839.75,-5.68 984.75,-5.68 984.75,-42.18"/>
<text text-anchor="start" x="847.75" y="-28.68" font-family="FreeSans" font-size="10.00">DGtal::concepts::CPredicate</text>
<text text-anchor="middle" x="912.25" y="-14.43" font-family="FreeSans" font-size="10.00">&lt; T, TElement &gt;</text>
</a>
</g>
</g>
<!-- Node8&#45;&gt;Node2 -->
<g id="edge7_Node000002_Node000008" class="edge">
<title>Node8&#45;&gt;Node2</title>
<g id="a_edge7_Node000002_Node000008"><a xlink:title=" ">
<path fill="none" stroke="orange" stroke-dasharray="5,2" d="M996.17,-32.88C1027.1,-36.21 1061.93,-39.97 1091.78,-43.19"/>
<polygon fill="orange" stroke="orange" points="996.78,-29.42 986.47,-31.83 996.03,-36.38 996.78,-29.42"/>
</a>
</g>
<text text-anchor="middle" x="1038.38" y="-44.68" font-family="FreeSans" font-size="10.00" fill="grey"> &lt; T, T::Vertex &gt;</text>
</g>
<!-- Node9&#45;&gt;Node8 -->
<g id="edge8_Node000008_Node000009" class="edge">
<title>Node9&#45;&gt;Node8</title>
<g id="a_edge8_Node000008_Node000009"><a xlink:title=" ">
<path fill="none" stroke="#63b8ff" d="M814.57,-23.93C822.93,-23.93 831.31,-23.93 839.44,-23.93"/>
<polygon fill="#63b8ff" stroke="#63b8ff" points="814.71,-20.43 804.71,-23.93 814.71,-27.43 814.71,-20.43"/>
</a>
</g>
</g>
</g>
</svg>
