<?xml version="1.0" encoding="UTF-8" standalone="no"?>
<!DOCTYPE svg PUBLIC "-//W3C//DTD SVG 1.1//EN"
 "http://www.w3.org/Graphics/SVG/1.1/DTD/svg11.dtd">
<!-- Generated by graphviz version 11.0.0 (0)
 -->
<!-- Title: DGtal::Splitter&lt; TElement, TWord &gt; Pages: 1 -->
<svg width="405pt" height="124pt"
 viewBox="0.00 0.00 405.25 124.38" xmlns="http://www.w3.org/2000/svg" xmlns:xlink="http://www.w3.org/1999/xlink">
<g id="graph0" class="graph" transform="scale(1 1) rotate(0) translate(4 120.38)">
<title>DGtal::Splitter&lt; TElement, TWord &gt;</title>
<!-- Node1 -->
<g id="Node000001" class="node">
<title>Node1</title>
<g id="a_Node000001"><a xlink:title=" ">
<polygon fill="#999999" stroke="#666666" points="136.75,-69.38 0,-69.38 0,-32.88 136.75,-32.88 136.75,-69.38"/>
<text text-anchor="start" x="8" y="-55.88" font-family="FreeSans" font-size="10.00">DGtal::Splitter&lt; TElement,</text>
<text text-anchor="middle" x="68.38" y="-41.62" font-family="FreeSans" font-size="10.00"> TWord &gt;</text>
</a>
</g>
</g>
<!-- Node2 -->
<g id="Node000002" class="node">
<title>Node2</title>
<g id="a_Node000002"><a xlink:href="structDGtal_1_1Splitter.html" target="_top" xlink:title=" ">
<polygon fill="white" stroke="#666666" points="397.25,-116.38 271,-116.38 271,-79.88 397.25,-79.88 397.25,-116.38"/>
<text text-anchor="start" x="279" y="-102.88" font-family="FreeSans" font-size="10.00">DGtal::Splitter&lt; DGtal</text>
<text text-anchor="middle" x="334.12" y="-88.62" font-family="FreeSans" font-size="10.00">::PointVector, uint64_t &gt;</text>
</a>
</g>
</g>
<!-- Node1&#45;&gt;Node2 -->
<g id="edge1_Node000001_Node000002" class="edge">
<title>Node1&#45;&gt;Node2</title>
<g id="a_edge1_Node000001_Node000002"><a xlink:title=" ">
<path fill="none" stroke="orange" stroke-dasharray="5,2" d="M148.14,-67.87C150.36,-68.3 152.57,-68.72 154.75,-69.12 193.15,-76.29 236.39,-83.35 270.68,-88.7"/>
<polygon fill="orange" stroke="orange" points="148.86,-64.45 138.38,-65.95 147.51,-71.32 148.86,-64.45"/>
</a>
</g>
<text text-anchor="start" x="154.75" y="-104.12" font-family="FreeSans" font-size="10.00" fill="grey"> &lt; DGtal::PointVector,</text>
<text text-anchor="middle" x="203.88" y="-89.88" font-family="FreeSans" font-size="10.00" fill="grey"> uint64_t &gt;</text>
</g>
<!-- Node3 -->
<g id="Node000003" class="node">
<title>Node3</title>
<g id="a_Node000003"><a xlink:href="structDGtal_1_1Splitter.html" target="_top" xlink:title=" ">
<polygon fill="white" stroke="#666666" points="395.38,-62.25 272.88,-62.25 272.88,-40 395.38,-40 395.38,-62.25"/>
<text text-anchor="middle" x="334.12" y="-48.75" font-family="FreeSans" font-size="10.00">DGtal::Splitter&lt; Point &gt;</text>
</a>
</g>
</g>
<!-- Node1&#45;&gt;Node3 -->
<g id="edge2_Node000001_Node000003" class="edge">
<title>Node1&#45;&gt;Node3</title>
<g id="a_edge2_Node000001_Node000003"><a xlink:title=" ">
<path fill="none" stroke="orange" stroke-dasharray="5,2" d="M148.23,-51.12C188.03,-51.12 235.57,-51.12 272.48,-51.12"/>
<polygon fill="orange" stroke="orange" points="148.47,-47.63 138.47,-51.13 148.47,-54.63 148.47,-47.63"/>
</a>
</g>
<text text-anchor="middle" x="203.88" y="-55.88" font-family="FreeSans" font-size="10.00" fill="grey"> &lt; Point &gt;</text>
</g>
<!-- Node4 -->
<g id="Node000004" class="node">
<title>Node4</title>
<g id="a_Node000004"><a xlink:href="structDGtal_1_1Splitter.html" target="_top" xlink:title=" ">
<polygon fill="white" stroke="#666666" points="391.62,-22.25 276.62,-22.25 276.62,0 391.62,0 391.62,-22.25"/>
<text text-anchor="middle" x="334.12" y="-8.75" font-family="FreeSans" font-size="10.00">DGtal::Splitter&lt; Key &gt;</text>
</a>
</g>
</g>
<!-- Node1&#45;&gt;Node4 -->
<g id="edge3_Node000001_Node000004" class="edge">
<title>Node1&#45;&gt;Node4</title>
<g id="a_edge3_Node000001_Node000004"><a xlink:title=" ">
<path fill="none" stroke="orange" stroke-dasharray="5,2" d="M148.12,-34.02C150.35,-33.63 152.56,-33.24 154.75,-32.88 195.21,-26.1 241.17,-20.54 276.3,-16.75"/>
<polygon fill="orange" stroke="orange" points="147.52,-30.57 138.33,-35.84 148.8,-37.46 147.52,-30.57"/>
</a>
</g>
<text text-anchor="middle" x="203.88" y="-36.88" font-family="FreeSans" font-size="10.00" fill="grey"> &lt; Key &gt;</text>
</g>
</g>
</svg>
