<?xml version="1.0" encoding="UTF-8" standalone="no"?>
<!DOCTYPE svg PUBLIC "-//W3C//DTD SVG 1.1//EN"
 "http://www.w3.org/Graphics/SVG/1.1/DTD/svg11.dtd">
<!-- Generated by graphviz version 11.0.0 (0)
 -->
<!-- Title: DGtal::UnorderedMapAssociativeCategory Pages: 1 -->
<svg width="725pt" height="139pt"
 viewBox="0.00 0.00 725.25 138.50" xmlns="http://www.w3.org/2000/svg" xmlns:xlink="http://www.w3.org/1999/xlink">
<g id="graph0" class="graph" transform="scale(1 1) rotate(0) translate(4 134.5)">
<title>DGtal::UnorderedMapAssociativeCategory</title>
<!-- Node1 -->
<g id="Node000001" class="node">
<title>Node1</title>
<g id="a_Node000001"><a xlink:title=" ">
<polygon fill="#999999" stroke="#666666" points="717.25,-83.5 546.75,-83.5 546.75,-47 717.25,-47 717.25,-83.5"/>
<text text-anchor="start" x="554.75" y="-70" font-family="FreeSans" font-size="10.00">DGtal::UnorderedMapAssociative</text>
<text text-anchor="middle" x="632" y="-55.75" font-family="FreeSans" font-size="10.00">Category</text>
</a>
</g>
</g>
<!-- Node2 -->
<g id="Node000002" class="node">
<title>Node2</title>
<g id="a_Node000002"><a xlink:href="structDGtal_1_1UnorderedAssociativeCategory.html" target="_top" xlink:title=" ">
<polygon fill="white" stroke="#666666" points="505.88,-130.5 355.62,-130.5 355.62,-94 505.88,-94 505.88,-130.5"/>
<text text-anchor="start" x="363.62" y="-117" font-family="FreeSans" font-size="10.00">DGtal::UnorderedAssociative</text>
<text text-anchor="middle" x="430.75" y="-102.75" font-family="FreeSans" font-size="10.00">Category</text>
</a>
</g>
</g>
<!-- Node2&#45;&gt;Node1 -->
<g id="edge1_Node000001_Node000002" class="edge">
<title>Node2&#45;&gt;Node1</title>
<g id="a_edge1_Node000001_Node000002"><a xlink:title=" ">
<path fill="none" stroke="#63b8ff" d="M517.11,-92.12C528.56,-89.41 540.27,-86.65 551.61,-83.98"/>
<polygon fill="#63b8ff" stroke="#63b8ff" points="516.63,-88.63 507.7,-94.33 518.24,-95.45 516.63,-88.63"/>
</a>
</g>
</g>
<!-- Node3 -->
<g id="Node000003" class="node">
<title>Node3</title>
<g id="a_Node000003"><a xlink:href="structDGtal_1_1AssociativeCategory.html" target="_top" xlink:title=" ">
<polygon fill="white" stroke="#666666" points="314.75,-76.38 172.75,-76.38 172.75,-54.12 314.75,-54.12 314.75,-76.38"/>
<text text-anchor="middle" x="243.75" y="-62.88" font-family="FreeSans" font-size="10.00">DGtal::AssociativeCategory</text>
</a>
</g>
</g>
<!-- Node3&#45;&gt;Node2 -->
<g id="edge2_Node000002_Node000003" class="edge">
<title>Node3&#45;&gt;Node2</title>
<g id="a_edge2_Node000002_Node000003"><a xlink:title=" ">
<path fill="none" stroke="#63b8ff" d="M301.5,-79.67C318.73,-84.05 337.93,-88.92 356.11,-93.54"/>
<polygon fill="#63b8ff" stroke="#63b8ff" points="302.5,-76.31 291.95,-77.24 300.78,-83.1 302.5,-76.31"/>
</a>
</g>
</g>
<!-- Node5 -->
<g id="Node000005" class="node">
<title>Node5</title>
<g id="a_Node000005"><a xlink:href="structDGtal_1_1PairAssociativeCategory.html" target="_top" xlink:title=" ">
<polygon fill="white" stroke="#666666" points="510.75,-76.38 350.75,-76.38 350.75,-54.12 510.75,-54.12 510.75,-76.38"/>
<text text-anchor="middle" x="430.75" y="-62.88" font-family="FreeSans" font-size="10.00">DGtal::PairAssociativeCategory</text>
</a>
</g>
</g>
<!-- Node3&#45;&gt;Node5 -->
<g id="edge5_Node000005_Node000003" class="edge">
<title>Node3&#45;&gt;Node5</title>
<g id="a_edge5_Node000005_Node000003"><a xlink:title=" ">
<path fill="none" stroke="#63b8ff" d="M326.71,-65.25C334.62,-65.25 342.63,-65.25 350.51,-65.25"/>
<polygon fill="#63b8ff" stroke="#63b8ff" points="326.73,-61.75 316.73,-65.25 326.73,-68.75 326.73,-61.75"/>
</a>
</g>
</g>
<!-- Node6 -->
<g id="Node000006" class="node">
<title>Node6</title>
<g id="a_Node000006"><a xlink:href="structDGtal_1_1UniqueAssociativeCategory.html" target="_top" xlink:title=" ">
<polygon fill="white" stroke="#666666" points="497.25,-36.5 364.25,-36.5 364.25,0 497.25,0 497.25,-36.5"/>
<text text-anchor="start" x="372.25" y="-23" font-family="FreeSans" font-size="10.00">DGtal::UniqueAssociative</text>
<text text-anchor="middle" x="430.75" y="-8.75" font-family="FreeSans" font-size="10.00">Category</text>
</a>
</g>
</g>
<!-- Node3&#45;&gt;Node6 -->
<g id="edge7_Node000006_Node000003" class="edge">
<title>Node3&#45;&gt;Node6</title>
<g id="a_edge7_Node000006_Node000003"><a xlink:title=" ">
<path fill="none" stroke="#63b8ff" d="M301.46,-50.84C321.21,-45.83 343.53,-40.16 363.95,-34.97"/>
<polygon fill="#63b8ff" stroke="#63b8ff" points="300.78,-47.4 291.95,-53.26 302.5,-54.19 300.78,-47.4"/>
</a>
</g>
</g>
<!-- Node4 -->
<g id="Node000004" class="node">
<title>Node4</title>
<g id="a_Node000004"><a xlink:href="structDGtal_1_1ContainerCategory.html" target="_top" xlink:title=" ">
<polygon fill="white" stroke="#666666" points="136.75,-76.38 0,-76.38 0,-54.12 136.75,-54.12 136.75,-76.38"/>
<text text-anchor="middle" x="68.38" y="-62.88" font-family="FreeSans" font-size="10.00">DGtal::ContainerCategory</text>
</a>
</g>
</g>
<!-- Node4&#45;&gt;Node3 -->
<g id="edge3_Node000003_Node000004" class="edge">
<title>Node4&#45;&gt;Node3</title>
<g id="a_edge3_Node000003_Node000004"><a xlink:title=" ">
<path fill="none" stroke="#63b8ff" d="M148.17,-65.25C156.2,-65.25 164.32,-65.25 172.26,-65.25"/>
<polygon fill="#63b8ff" stroke="#63b8ff" points="148.42,-61.75 138.42,-65.25 148.42,-68.75 148.42,-61.75"/>
</a>
</g>
</g>
<!-- Node5&#45;&gt;Node1 -->
<g id="edge4_Node000001_Node000005" class="edge">
<title>Node5&#45;&gt;Node1</title>
<g id="a_edge4_Node000001_Node000005"><a xlink:title=" ">
<path fill="none" stroke="#63b8ff" d="M522.33,-65.25C530.34,-65.25 538.43,-65.25 546.39,-65.25"/>
<polygon fill="#63b8ff" stroke="#63b8ff" points="522.58,-61.75 512.58,-65.25 522.58,-68.75 522.58,-61.75"/>
</a>
</g>
</g>
<!-- Node6&#45;&gt;Node1 -->
<g id="edge6_Node000001_Node000006" class="edge">
<title>Node6&#45;&gt;Node1</title>
<g id="a_edge6_Node000001_Node000006"><a xlink:title=" ">
<path fill="none" stroke="#63b8ff" d="M508.7,-36.4C522.82,-39.73 537.57,-43.21 551.75,-46.56"/>
<polygon fill="#63b8ff" stroke="#63b8ff" points="509.55,-33.01 499.02,-34.12 507.95,-39.82 509.55,-33.01"/>
</a>
</g>
</g>
</g>
</svg>
