<?xml version="1.0" encoding="UTF-8" standalone="no"?>
<!DOCTYPE svg PUBLIC "-//W3C//DTD SVG 1.1//EN"
 "http://www.w3.org/Graphics/SVG/1.1/DTD/svg11.dtd">
<!-- Generated by graphviz version 11.0.0 (0)
 -->
<!-- Title: DGtal::functors::ConstantPointPredicate&lt; TPoint, boolCst &gt; Pages: 1 -->
<!--zoomable 128 -->

<svg id="main" version="1.1" xmlns="http://www.w3.org/2000/svg" xmlns:xlink="http://www.w3.org/1999/xlink" xml:space="preserve" onload="init(evt)">
<style type="text/css"><![CDATA[
.node, .edge {opacity: 0.7;}
.node.selected, .edge.selected {opacity: 1;}
.edge:hover path { stroke: red; }
.edge:hover polygon { stroke: red; fill: red; }
]]></style>

<defs>
  <circle id="rim" cx="0" cy="0" r="7"/>
  <circle id="rim2" cx="0" cy="0" r="3.5"/>
  <g id="zoomPlus">
    <use xlink:href="#rim" fill="#404040"><set attributeName="fill" to="#808080" begin="zoomplus.mouseover" end="zoomplus.mouseout"/></use>
    <path d="M-4,0h8M0,-4v8" fill="none" stroke="white" stroke-width="1.5" pointer-events="none"/>
  </g>
  <g id="zoomMin">
    <use xlink:href="#rim" fill="#404040"><set attributeName="fill" to="#808080" begin="zoomminus.mouseover" end="zoomminus.mouseout"/></use>
    <path d="M-4,0h8" fill="none" stroke="white" stroke-width="1.5" pointer-events="none"/>
  </g>
  <g id="arrowUp" transform="translate(30 24)">
    <use xlink:href="#rim"/>
    <path pointer-events="none" fill="none" stroke="white" stroke-width="1.5" d="M0,-3.0v7 M-2.5,-0.5L0,-3.0L2.5,-0.5"/>
  </g>
  <g id="arrowRight" transform="rotate(90) translate(36 -43)">
    <use xlink:href="#rim"/>
    <path pointer-events="none" fill="none" stroke="white" stroke-width="1.5" d="M0,-3.0v7 M-2.5,-0.5L0,-3.0L2.5,-0.5"/>
  </g>
  <g id="arrowDown" transform="rotate(180) translate(-30 -48)">
    <use xlink:href="#rim"/>
    <path pointer-events="none" fill="none" stroke="white" stroke-width="1.5" d="M0,-3.0v7 M-2.5,-0.5L0,-3.0L2.5,-0.5"/>
  </g>
  <g id="arrowLeft" transform="rotate(270) translate(-36 17)">
    <use xlink:href="#rim"/>
    <path pointer-events="none" fill="none" stroke="white" stroke-width="1.5" d="M0,-3.0v7 M-2.5,-0.5L0,-3.0L2.5,-0.5"/>
  </g>
  <g id="resetDef">
    <use xlink:href="#rim2" fill="#404040"><set attributeName="fill" to="#808080" begin="reset.mouseover" end="reset.mouseout"/></use>
  </g>
</defs>
<script type="application/ecmascript">
var viewWidth = 565;
var viewHeight = 128;
var sectionId = 'dynsection-0';
</script>
<script type="application/ecmascript" xlink:href="svg.min.js"/>
<svg id="graph" class="graph">
<g id="viewport">
<title>DGtal::functors::ConstantPointPredicate&lt; TPoint, boolCst &gt;</title>
<!-- Node1 -->
<g id="Node000001" class="node">
<title>Node1</title>
<g id="a_Node000001"><a xlink:title="Aim: The predicate that returns always the same value boolCst.">
<polygon fill="#999999" stroke="#666666" points="134.5,-84.75 0,-84.75 0,-34 134.5,-34 134.5,-84.75"/>
<text text-anchor="start" x="8" y="-71.25" font-family="FreeSans" font-size="10.00">DGtal::functors::Constant</text>
<text text-anchor="start" x="8" y="-57" font-family="FreeSans" font-size="10.00">PointPredicate&lt; TPoint,</text>
<text text-anchor="middle" x="67.25" y="-42.75" font-family="FreeSans" font-size="10.00"> boolCst &gt;</text>
</a>
</g>
</g>
<!-- Node2 -->
<g id="Node000002" class="node">
<title>Node2</title>
<g id="a_Node000002"><a xlink:href="structDGtal_1_1functors_1_1ConstantPointPredicate.html" target="_top" xlink:title=" ">
<polygon fill="white" stroke="#666666" points="380,-119.75 245.5,-119.75 245.5,-69 380,-69 380,-119.75"/>
<text text-anchor="start" x="253.5" y="-106.25" font-family="FreeSans" font-size="10.00">DGtal::functors::Constant</text>
<text text-anchor="start" x="253.5" y="-92" font-family="FreeSans" font-size="10.00">PointPredicate&lt; TPoint,</text>
<text text-anchor="middle" x="312.75" y="-77.75" font-family="FreeSans" font-size="10.00"> false &gt;</text>
</a>
</g>
</g>
<!-- Node1&#45;&gt;Node2 -->
<g id="edge1_Node000001_Node000002" class="edge">
<title>Node1&#45;&gt;Node2</title>
<g id="a_edge1_Node000001_Node000002"><a xlink:title=" ">
<path fill="none" stroke="orange" stroke-dasharray="5,2" d="M145.89,-70.53C177.88,-75.13 214.57,-80.41 245.29,-84.82"/>
<polygon fill="orange" stroke="orange" points="146.68,-67.11 136.29,-69.15 145.69,-74.04 146.68,-67.11"/>
</a>
</g>
<text text-anchor="middle" x="190" y="-86.12" font-family="FreeSans" font-size="10.00" fill="grey"> &lt; TPoint, false &gt;</text>
</g>
<!-- Node4 -->
<g id="Node000004" class="node">
<title>Node4</title>
<g id="a_Node000004"><a xlink:href="structDGtal_1_1functors_1_1ConstantPointPredicate.html" target="_top" xlink:title=" ">
<polygon fill="white" stroke="#666666" points="380,-50.75 245.5,-50.75 245.5,0 380,0 380,-50.75"/>
<text text-anchor="start" x="253.5" y="-37.25" font-family="FreeSans" font-size="10.00">DGtal::functors::Constant</text>
<text text-anchor="start" x="253.5" y="-23" font-family="FreeSans" font-size="10.00">PointPredicate&lt; TPoint,</text>
<text text-anchor="middle" x="312.75" y="-8.75" font-family="FreeSans" font-size="10.00"> true &gt;</text>
</a>
</g>
</g>
<!-- Node1&#45;&gt;Node4 -->
<g id="edge3_Node000001_Node000004" class="edge">
<title>Node1&#45;&gt;Node4</title>
<g id="a_edge3_Node000001_Node000004"><a xlink:title=" ">
<path fill="none" stroke="orange" stroke-dasharray="5,2" d="M145.89,-48.53C177.88,-44.07 214.57,-38.94 245.29,-34.65"/>
<polygon fill="orange" stroke="orange" points="145.71,-45.03 136.29,-49.88 146.67,-51.96 145.71,-45.03"/>
</a>
</g>
<text text-anchor="middle" x="190" y="-52.12" font-family="FreeSans" font-size="10.00" fill="grey"> &lt; TPoint, true &gt;</text>
</g>
<!-- Node3 -->
<g id="Node000003" class="node">
<title>Node3</title>
<g id="a_Node000003"><a xlink:href="structDGtal_1_1functors_1_1FalsePointPredicate.html" target="_top" xlink:title="Aim: The predicate that returns always false.">
<polygon fill="white" stroke="#666666" points="556.5,-112.62 416,-112.62 416,-76.12 556.5,-76.12 556.5,-112.62"/>
<text text-anchor="start" x="424" y="-99.12" font-family="FreeSans" font-size="10.00">DGtal::functors::FalsePoint</text>
<text text-anchor="middle" x="486.25" y="-84.88" font-family="FreeSans" font-size="10.00">Predicate&lt; TPoint &gt;</text>
</a>
</g>
</g>
<!-- Node2&#45;&gt;Node3 -->
<g id="edge2_Node000002_Node000003" class="edge">
<title>Node2&#45;&gt;Node3</title>
<g id="a_edge2_Node000002_Node000003"><a xlink:title=" ">
<path fill="none" stroke="#63b8ff" d="M391.41,-94.38C399.51,-94.38 407.71,-94.38 415.71,-94.38"/>
<polygon fill="#63b8ff" stroke="#63b8ff" points="391.57,-90.88 381.57,-94.38 391.57,-97.88 391.57,-90.88"/>
</a>
</g>
</g>
<!-- Node5 -->
<g id="Node000005" class="node">
<title>Node5</title>
<g id="a_Node000005"><a xlink:href="structDGtal_1_1functors_1_1TruePointPredicate.html" target="_top" xlink:title="Aim: The predicate that returns always true.">
<polygon fill="white" stroke="#666666" points="555.75,-43.62 416.75,-43.62 416.75,-7.12 555.75,-7.12 555.75,-43.62"/>
<text text-anchor="start" x="424.75" y="-30.12" font-family="FreeSans" font-size="10.00">DGtal::functors::TruePoint</text>
<text text-anchor="middle" x="486.25" y="-15.88" font-family="FreeSans" font-size="10.00">Predicate&lt; TPoint &gt;</text>
</a>
</g>
</g>
<!-- Node4&#45;&gt;Node5 -->
<g id="edge4_Node000004_Node000005" class="edge">
<title>Node4&#45;&gt;Node5</title>
<g id="a_edge4_Node000004_Node000005"><a xlink:title=" ">
<path fill="none" stroke="#63b8ff" d="M391.31,-25.38C399.64,-25.38 408.07,-25.38 416.28,-25.38"/>
<polygon fill="#63b8ff" stroke="#63b8ff" points="391.57,-21.88 381.57,-25.38 391.57,-28.88 391.57,-21.88"/>
</a>
</g>
</g>
</g>
</svg>

<g id="navigator" transform="translate(0 0)" fill="#404254">
  <rect fill="#f2f5e9" fill-opacity="0.5" stroke="#606060" stroke-width=".5" x="0" y="0" width="60" height="60"/>
  <use id="zoomplus" xlink:href="#zoomPlus" x="17" y="9" onmousedown="handleZoom(evt,'in')"/>
  <use id="zoomminus" xlink:href="#zoomMin" x="42" y="9" onmousedown="handleZoom(evt,'out')"/>
  <use id="reset" xlink:href="#resetDef" x="30" y="36" onmousedown="handleReset()"/>
   <use id="arrowup" xlink:href="#arrowUp" x="0" y="0" onmousedown="handlePan(0,-1)"/>
  <use id="arrowright" xlink:href="#arrowRight" x="0" y="0" onmousedown="handlePan(1,0)"/>
  <use id="arrowdown" xlink:href="#arrowDown" x="0" y="0" onmousedown="handlePan(0,1)"/>
  <use id="arrowleft" xlink:href="#arrowLeft" x="0" y="0" onmousedown="handlePan(-1,0)"/>
</g>
<svg viewBox="0 0 15 15" width="100%" height="30px" preserveAspectRatio="xMaxYMin meet">
 <g id="arrow_out" transform="scale(0.3 0.3)">
  <a xlink:href="structDGtal_1_1functors_1_1ConstantPointPredicate__inherit__graph_org.svg" target="_base">
   <rect id="button" ry="5" rx="5" y="6" x="6" height="38" width="38"
        fill="#f2f5e9" fill-opacity="0.5" stroke="#606060" stroke-width="1.0"/>
   <path id="arrow"
     d="M 11.500037,31.436501 C 11.940474,20.09759 22.043105,11.32322 32.158766,21.979434 L 37.068811,17.246167 C 37.068811,17.246167 37.088388,32 37.088388,32 L 22.160133,31.978069 C 22.160133,31.978069 26.997745,27.140456 26.997745,27.140456 C 18.528582,18.264221 13.291696,25.230495 11.500037,31.436501 z"
     style="fill:#404040;"/>
  </a>
 </g>
</svg>

<style type='text/css'>
<![CDATA[
[data-mouse-over-selected='false'] { opacity: 0.7; }
[data-mouse-over-selected='true']  { opacity: 1.0; }
]]>
</style>
<script type="application/ecmascript"><![CDATA[
document.addEventListener('DOMContentLoaded', (event) => {
  highlightEdges();
  highlightAdjacentNodes();
});
]]></script>
</svg>
