<?xml version="1.0" encoding="UTF-8" standalone="no"?>
<!DOCTYPE svg PUBLIC "-//W3C//DTD SVG 1.1//EN"
 "http://www.w3.org/Graphics/SVG/1.1/DTD/svg11.dtd">
<!-- Generated by graphviz version 11.0.0 (0)
 -->
<!-- Title: DGtal::concepts::CCellularGridSpaceND&lt; T &gt; Pages: 1 -->
<svg width="346pt" height="175pt"
 viewBox="0.00 0.00 346.38 175.25" xmlns="http://www.w3.org/2000/svg" xmlns:xlink="http://www.w3.org/1999/xlink">
<g id="graph0" class="graph" transform="scale(1 1) rotate(0) translate(4 171.25)">
<title>DGtal::concepts::CCellularGridSpaceND&lt; T &gt;</title>
<!-- Node1 -->
<g id="Node000001" class="node">
<title>Node1</title>
<g id="a_Node000001"><a xlink:title="Aim: This concept describes a cellular grid space in nD. In these spaces obtained by cartesian produc...">
<polygon fill="#999999" stroke="#666666" points="240,-36.5 104,-36.5 104,0 240,0 240,-36.5"/>
<text text-anchor="start" x="112" y="-23" font-family="FreeSans" font-size="10.00">DGtal::concepts::CCellular</text>
<text text-anchor="middle" x="172" y="-8.75" font-family="FreeSans" font-size="10.00">GridSpaceND&lt; T &gt;</text>
</a>
</g>
</g>
<!-- Node2 -->
<g id="Node000002" class="node">
<title>Node2</title>
<g id="a_Node000002"><a xlink:href="structDGtal_1_1concepts_1_1CPreCellularGridSpaceND.html" target="_top" xlink:title="Aim: This concept describes an unbounded cellular grid space in nD. In these spaces obtained by carte...">
<polygon fill="white" stroke="#666666" points="247.88,-109 96.12,-109 96.12,-72.5 247.88,-72.5 247.88,-109"/>
<text text-anchor="start" x="104.12" y="-95.5" font-family="FreeSans" font-size="10.00">DGtal::concepts::CPreCellular</text>
<text text-anchor="middle" x="172" y="-81.25" font-family="FreeSans" font-size="10.00">GridSpaceND&lt; T &gt;</text>
</a>
</g>
</g>
<!-- Node2&#45;&gt;Node1 -->
<g id="edge1_Node000001_Node000002" class="edge">
<title>Node2&#45;&gt;Node1</title>
<g id="a_edge1_Node000001_Node000002"><a xlink:title=" ">
<path fill="none" stroke="#63b8ff" d="M172,-60.97C172,-52.84 172,-44.23 172,-36.97"/>
<polygon fill="#63b8ff" stroke="#63b8ff" points="168.5,-60.81 172,-70.81 175.5,-60.81 168.5,-60.81"/>
</a>
</g>
</g>
<!-- Node3 -->
<g id="Node000003" class="node">
<title>Node3</title>
<g id="a_Node000003"><a xlink:href="structboost_1_1DefaultConstructible.html" target="_top" xlink:title="Go to http://www.sgi.com/tech/stl/DefaultConstructible.html.">
<polygon fill="white" stroke="#666666" points="166,-167.25 0,-167.25 0,-145 166,-145 166,-167.25"/>
<text text-anchor="middle" x="83" y="-153.75" font-family="FreeSans" font-size="10.00">boost::DefaultConstructible&lt; T &gt;</text>
</a>
</g>
</g>
<!-- Node3&#45;&gt;Node2 -->
<g id="edge2_Node000002_Node000003" class="edge">
<title>Node3&#45;&gt;Node2</title>
<g id="a_edge2_Node000002_Node000003"><a xlink:title=" ">
<path fill="none" stroke="#63b8ff" d="M106.99,-138.04C119.43,-129.18 134.62,-118.37 147.18,-109.42"/>
<polygon fill="#63b8ff" stroke="#63b8ff" points="105.05,-135.13 98.93,-143.78 109.11,-140.83 105.05,-135.13"/>
</a>
</g>
</g>
<!-- Node4 -->
<g id="Node000004" class="node">
<title>Node4</title>
<g id="a_Node000004"><a xlink:href="structboost_1_1CopyConstructible.html" target="_top" xlink:title="Go to http://www.sgi.com/tech/stl/CopyConstructible.html.">
<polygon fill="white" stroke="#666666" points="338.38,-167.25 183.62,-167.25 183.62,-145 338.38,-145 338.38,-167.25"/>
<text text-anchor="middle" x="261" y="-153.75" font-family="FreeSans" font-size="10.00">boost::CopyConstructible&lt; T &gt;</text>
</a>
</g>
</g>
<!-- Node4&#45;&gt;Node2 -->
<g id="edge3_Node000002_Node000004" class="edge">
<title>Node4&#45;&gt;Node2</title>
<g id="a_edge3_Node000002_Node000004"><a xlink:title=" ">
<path fill="none" stroke="#63b8ff" d="M237.01,-138.04C224.57,-129.18 209.38,-118.37 196.82,-109.42"/>
<polygon fill="#63b8ff" stroke="#63b8ff" points="234.89,-140.83 245.07,-143.78 238.95,-135.13 234.89,-140.83"/>
</a>
</g>
</g>
</g>
</svg>
