<?xml version="1.0" encoding="UTF-8" standalone="no"?>
<!DOCTYPE svg PUBLIC "-//W3C//DTD SVG 1.1//EN"
 "http://www.w3.org/Graphics/SVG/1.1/DTD/svg11.dtd">
<!-- Generated by graphviz version 11.0.0 (0)
 -->
<!-- Title: DGtal::concepts::CConstImage&lt; I &gt; Pages: 1 -->
<svg width="1964pt" height="130pt"
 viewBox="0.00 0.00 1963.75 130.25" xmlns="http://www.w3.org/2000/svg" xmlns:xlink="http://www.w3.org/1999/xlink">
<g id="graph0" class="graph" transform="scale(1 1) rotate(0) translate(4 126.25)">
<title>DGtal::concepts::CConstImage&lt; I &gt;</title>
<!-- Node1 -->
<g id="Node000001" class="node">
<title>Node1</title>
<g id="a_Node000001"><a xlink:title="Aim: Defines the concept describing a read&#45;only image, which is a refinement of CPointFunctor.">
<polygon fill="#999999" stroke="#666666" points="1768,-73.25 1590,-73.25 1590,-51 1768,-51 1768,-73.25"/>
<text text-anchor="middle" x="1679" y="-59.75" font-family="FreeSans" font-size="10.00">DGtal::concepts::CConstImage&lt; I &gt;</text>
</a>
</g>
</g>
<!-- Node12 -->
<g id="Node000012" class="node">
<title>Node12</title>
<g id="a_Node000012"><a xlink:href="structDGtal_1_1concepts_1_1CImage.html" target="_top" xlink:title="Aim: Defines the concept describing a read/write image, having an output iterator.">
<polygon fill="white" stroke="#666666" points="1955.75,-73.25 1804,-73.25 1804,-51 1955.75,-51 1955.75,-73.25"/>
<text text-anchor="middle" x="1879.88" y="-59.75" font-family="FreeSans" font-size="10.00">DGtal::concepts::CImage&lt; I &gt;</text>
</a>
</g>
</g>
<!-- Node1&#45;&gt;Node12 -->
<g id="edge13_Node000001_Node000012" class="edge">
<title>Node1&#45;&gt;Node12</title>
<g id="a_edge13_Node000001_Node000012"><a xlink:title=" ">
<path fill="none" stroke="#63b8ff" d="M1779.69,-62.12C1787.71,-62.12 1795.72,-62.12 1803.52,-62.12"/>
<polygon fill="#63b8ff" stroke="#63b8ff" points="1779.9,-58.63 1769.9,-62.13 1779.9,-65.63 1779.9,-58.63"/>
</a>
</g>
</g>
<!-- Node2 -->
<g id="Node000002" class="node">
<title>Node2</title>
<g id="a_Node000002"><a xlink:href="structDGtal_1_1concepts_1_1CTrivialConstImage.html" target="_top" xlink:title="Aim: Defines the concept describing a read&#45;only image, which is a refinement of CPointFunctor.">
<polygon fill="white" stroke="#666666" points="1554,-80.38 1425.5,-80.38 1425.5,-43.88 1554,-43.88 1554,-80.38"/>
<text text-anchor="start" x="1433.5" y="-66.88" font-family="FreeSans" font-size="10.00">DGtal::concepts::CTrivial</text>
<text text-anchor="middle" x="1489.75" y="-52.62" font-family="FreeSans" font-size="10.00">ConstImage&lt; I &gt;</text>
</a>
</g>
</g>
<!-- Node2&#45;&gt;Node1 -->
<g id="edge1_Node000001_Node000002" class="edge">
<title>Node2&#45;&gt;Node1</title>
<g id="a_edge1_Node000001_Node000002"><a xlink:title=" ">
<path fill="none" stroke="#63b8ff" d="M1565.76,-62.12C1573.61,-62.12 1581.65,-62.12 1589.64,-62.12"/>
<polygon fill="#63b8ff" stroke="#63b8ff" points="1565.92,-58.63 1555.92,-62.13 1565.92,-65.63 1565.92,-58.63"/>
</a>
</g>
</g>
<!-- Node3 -->
<g id="Node000003" class="node">
<title>Node3</title>
<g id="a_Node000003"><a xlink:href="structDGtal_1_1concepts_1_1CPointFunctor.html" target="_top" xlink:title=" ">
<polygon fill="white" stroke="#666666" points="1389.5,-73.25 1207.75,-73.25 1207.75,-51 1389.5,-51 1389.5,-73.25"/>
<text text-anchor="middle" x="1298.62" y="-59.75" font-family="FreeSans" font-size="10.00">DGtal::concepts::CPointFunctor&lt; I &gt;</text>
</a>
</g>
</g>
<!-- Node3&#45;&gt;Node2 -->
<g id="edge2_Node000002_Node000003" class="edge">
<title>Node3&#45;&gt;Node2</title>
<g id="a_edge2_Node000002_Node000003"><a xlink:title=" ">
<path fill="none" stroke="#63b8ff" d="M1401,-62.12C1409.23,-62.12 1417.39,-62.12 1425.23,-62.12"/>
<polygon fill="#63b8ff" stroke="#63b8ff" points="1401.27,-58.63 1391.27,-62.13 1401.27,-65.63 1401.27,-58.63"/>
</a>
</g>
</g>
<!-- Node4 -->
<g id="Node000004" class="node">
<title>Node4</title>
<g id="a_Node000004"><a xlink:href="structDGtal_1_1concepts_1_1CUnaryFunctor.html" target="_top" xlink:title=" ">
<polygon fill="white" stroke="#666666" points="929,-105.38 763,-105.38 763,-68.88 929,-68.88 929,-105.38"/>
<text text-anchor="start" x="771" y="-91.88" font-family="FreeSans" font-size="10.00">DGtal::concepts::CUnaryFunctor</text>
<text text-anchor="middle" x="846" y="-77.62" font-family="FreeSans" font-size="10.00">&lt; I, I::Point, I::Value &gt;</text>
</a>
</g>
</g>
<!-- Node4&#45;&gt;Node3 -->
<g id="edge3_Node000003_Node000004" class="edge">
<title>Node4&#45;&gt;Node3</title>
<g id="a_edge3_Node000003_Node000004"><a xlink:title=" ">
<path fill="none" stroke="#63b8ff" d="M940.66,-81.94C1009.56,-78.12 1105.48,-72.8 1189.75,-68.12 1195.46,-67.81 1201.34,-67.48 1207.28,-67.15"/>
<polygon fill="#63b8ff" stroke="#63b8ff" points="940.72,-78.43 930.93,-82.48 941.1,-85.42 940.72,-78.43"/>
</a>
</g>
</g>
<!-- Node5 -->
<g id="Node000005" class="node">
<title>Node5</title>
<g id="a_Node000005"><a xlink:href="structboost_1_1Assignable.html" target="_top" xlink:title=" ">
<polygon fill="white" stroke="#666666" points="436.5,-122.25 318.5,-122.25 318.5,-100 436.5,-100 436.5,-122.25"/>
<text text-anchor="middle" x="377.5" y="-108.75" font-family="FreeSans" font-size="10.00">boost::Assignable&lt; I &gt;</text>
</a>
</g>
</g>
<!-- Node5&#45;&gt;Node4 -->
<g id="edge4_Node000004_Node000005" class="edge">
<title>Node5&#45;&gt;Node4</title>
<g id="a_edge4_Node000004_Node000005"><a xlink:title=" ">
<path fill="none" stroke="#63b8ff" d="M448.35,-108.37C522.12,-105.35 641.78,-100.13 745,-94.12 750.73,-93.79 756.65,-93.43 762.61,-93.05"/>
<polygon fill="#63b8ff" stroke="#63b8ff" points="448.28,-104.87 438.43,-108.78 448.57,-111.87 448.28,-104.87"/>
</a>
</g>
</g>
<!-- Node6 -->
<g id="Node000006" class="node">
<title>Node6</title>
<g id="a_Node000006"><a xlink:href="structboost_1_1Assignable.html" target="_top" xlink:title="Go to http://www.sgi.com/tech/stl/Assignable.html.">
<polygon fill="white" stroke="#666666" points="119.5,-101.25 0,-101.25 0,-79 119.5,-79 119.5,-101.25"/>
<text text-anchor="middle" x="59.75" y="-87.75" font-family="FreeSans" font-size="10.00">boost::Assignable&lt; T &gt;</text>
</a>
</g>
</g>
<!-- Node6&#45;&gt;Node5 -->
<g id="edge5_Node000005_Node000006" class="edge">
<title>Node6&#45;&gt;Node5</title>
<g id="a_edge5_Node000005_Node000006"><a xlink:title=" ">
<path fill="none" stroke="orange" stroke-dasharray="5,2" d="M131.07,-94.8C187.29,-98.54 265.19,-103.72 318.04,-107.24"/>
<polygon fill="orange" stroke="orange" points="131.49,-91.32 121.28,-94.15 131.03,-98.31 131.49,-91.32"/>
</a>
</g>
<text text-anchor="middle" x="149.88" y="-100.88" font-family="FreeSans" font-size="10.00" fill="grey"> &lt; I &gt;</text>
</g>
<!-- Node8 -->
<g id="Node000008" class="node">
<title>Node8</title>
<g id="a_Node000008"><a xlink:href="structboost_1_1Assignable.html" target="_top" xlink:title=" ">
<polygon fill="white" stroke="#666666" points="300.5,-80.25 180.25,-80.25 180.25,-58 300.5,-58 300.5,-80.25"/>
<text text-anchor="middle" x="240.38" y="-66.75" font-family="FreeSans" font-size="10.00">boost::Assignable&lt; X &gt;</text>
</a>
</g>
</g>
<!-- Node6&#45;&gt;Node8 -->
<g id="edge8_Node000008_Node000006" class="edge">
<title>Node6&#45;&gt;Node8</title>
<g id="a_edge8_Node000008_Node000006"><a xlink:title=" ">
<path fill="none" stroke="orange" stroke-dasharray="5,2" d="M120.58,-76.48C126.28,-75.48 131.98,-74.58 137.5,-73.88 151.2,-72.12 166.01,-70.99 179.98,-70.27"/>
<polygon fill="orange" stroke="orange" points="120.35,-72.96 111.17,-78.25 121.64,-79.84 120.35,-72.96"/>
</a>
</g>
<text text-anchor="middle" x="149.88" y="-77.88" font-family="FreeSans" font-size="10.00" fill="grey"> &lt; X &gt;</text>
</g>
<!-- Node7 -->
<g id="Node000007" class="node">
<title>Node7</title>
<g id="a_Node000007"><a xlink:href="structDGtal_1_1concepts_1_1CUnaryFunctor.html" target="_top" xlink:title="Aim: Defines a unary functor, which associates arguments to results.">
<polygon fill="white" stroke="#666666" points="620.5,-76.38 454.5,-76.38 454.5,-39.88 620.5,-39.88 620.5,-76.38"/>
<text text-anchor="start" x="462.5" y="-62.88" font-family="FreeSans" font-size="10.00">DGtal::concepts::CUnaryFunctor</text>
<text text-anchor="middle" x="537.5" y="-48.62" font-family="FreeSans" font-size="10.00">&lt; X, A, R &gt;</text>
</a>
</g>
</g>
<!-- Node7&#45;&gt;Node4 -->
<g id="edge6_Node000004_Node000007" class="edge">
<title>Node7&#45;&gt;Node4</title>
<g id="a_edge6_Node000004_Node000007"><a xlink:title=" ">
<path fill="none" stroke="orange" stroke-dasharray="5,2" d="M631.92,-66.96C673.61,-70.91 722.32,-75.52 762.64,-79.33"/>
<polygon fill="orange" stroke="orange" points="632.43,-63.5 622.14,-66.04 631.77,-70.47 632.43,-63.5"/>
</a>
</g>
<text text-anchor="middle" x="691.75" y="-80.88" font-family="FreeSans" font-size="10.00" fill="grey"> &lt; I, I::Point, I::Value &gt;</text>
</g>
<!-- Node10 -->
<g id="Node000010" class="node">
<title>Node10</title>
<g id="a_Node000010"><a xlink:href="structDGtal_1_1concepts_1_1CUnaryFunctor.html" target="_top" xlink:title=" ">
<polygon fill="white" stroke="#666666" points="929,-50.38 763,-50.38 763,-13.88 929,-13.88 929,-50.38"/>
<text text-anchor="start" x="771" y="-36.88" font-family="FreeSans" font-size="10.00">DGtal::concepts::CUnaryFunctor</text>
<text text-anchor="middle" x="846" y="-22.62" font-family="FreeSans" font-size="10.00">&lt; T, T::Point, T::Value &gt;</text>
</a>
</g>
</g>
<!-- Node7&#45;&gt;Node10 -->
<g id="edge12_Node000010_Node000007" class="edge">
<title>Node7&#45;&gt;Node10</title>
<g id="a_edge12_Node000010_Node000007"><a xlink:title=" ">
<path fill="none" stroke="orange" stroke-dasharray="5,2" d="M632.23,-44.53C634.34,-44.3 636.43,-44.08 638.5,-43.88 679.41,-39.8 725.04,-37.02 762.98,-35.19"/>
<polygon fill="orange" stroke="orange" points="631.88,-41.04 622.34,-45.66 632.67,-48 631.88,-41.04"/>
</a>
</g>
<text text-anchor="middle" x="691.75" y="-47.88" font-family="FreeSans" font-size="10.00" fill="grey"> &lt; T, T::Point, T::Value &gt;</text>
</g>
<!-- Node8&#45;&gt;Node7 -->
<g id="edge7_Node000007_Node000008" class="edge">
<title>Node8&#45;&gt;Node7</title>
<g id="a_edge7_Node000007_Node000008"><a xlink:title=" ">
<path fill="none" stroke="#63b8ff" d="M312.17,-66.49C354.85,-64.9 409.4,-62.86 454.03,-61.2"/>
<polygon fill="#63b8ff" stroke="#63b8ff" points="312.12,-62.99 302.26,-66.86 312.38,-69.98 312.12,-62.99"/>
</a>
</g>
</g>
<!-- Node9 -->
<g id="Node000009" class="node">
<title>Node9</title>
<g id="a_Node000009"><a xlink:href="structDGtal_1_1concepts_1_1CPointFunctor.html" target="_top" xlink:title="Aim: Defines a functor on points.">
<polygon fill="white" stroke="#666666" points="1149.25,-49.25 966,-49.25 966,-27 1149.25,-27 1149.25,-49.25"/>
<text text-anchor="middle" x="1057.62" y="-35.75" font-family="FreeSans" font-size="10.00">DGtal::concepts::CPointFunctor&lt; T &gt;</text>
</a>
</g>
</g>
<!-- Node9&#45;&gt;Node3 -->
<g id="edge9_Node000003_Node000009" class="edge">
<title>Node9&#45;&gt;Node3</title>
<g id="a_edge9_Node000003_Node000009"><a xlink:title=" ">
<path fill="none" stroke="orange" stroke-dasharray="5,2" d="M1160.89,-48.39C1176.44,-49.96 1192.38,-51.56 1207.63,-53.09"/>
<polygon fill="orange" stroke="orange" points="1161.47,-44.93 1151.17,-47.42 1160.77,-51.9 1161.47,-44.93"/>
</a>
</g>
<text text-anchor="middle" x="1178.5" y="-54.88" font-family="FreeSans" font-size="10.00" fill="grey"> &lt; I &gt;</text>
</g>
<!-- Node10&#45;&gt;Node9 -->
<g id="edge10_Node000009_Node000010" class="edge">
<title>Node10&#45;&gt;Node9</title>
<g id="a_edge10_Node000009_Node000010"><a xlink:title=" ">
<path fill="none" stroke="#63b8ff" d="M940.53,-34.8C948.86,-35.04 957.29,-35.28 965.6,-35.52"/>
<polygon fill="#63b8ff" stroke="#63b8ff" points="940.86,-31.31 930.76,-34.52 940.66,-38.31 940.86,-31.31"/>
</a>
</g>
</g>
<!-- Node11 -->
<g id="Node000011" class="node">
<title>Node11</title>
<g id="a_Node000011"><a xlink:href="structboost_1_1Assignable.html" target="_top" xlink:title="Go to http://www.sgi.com/tech/stl/Assignable.html.">
<polygon fill="white" stroke="#666666" points="597.25,-22.25 477.75,-22.25 477.75,0 597.25,0 597.25,-22.25"/>
<text text-anchor="middle" x="537.5" y="-8.75" font-family="FreeSans" font-size="10.00">boost::Assignable&lt; T &gt;</text>
</a>
</g>
</g>
<!-- Node11&#45;&gt;Node10 -->
<g id="edge11_Node000010_Node000011" class="edge">
<title>Node11&#45;&gt;Node10</title>
<g id="a_edge11_Node000010_Node000011"><a xlink:title=" ">
<path fill="none" stroke="#63b8ff" d="M608.81,-13.46C648.78,-15.06 699.73,-17.54 745,-21.12 750.75,-21.58 756.67,-22.1 762.64,-22.66"/>
<polygon fill="#63b8ff" stroke="#63b8ff" points="608.95,-9.97 598.82,-13.07 608.68,-16.96 608.95,-9.97"/>
</a>
</g>
</g>
</g>
</svg>
