<?xml version="1.0" encoding="UTF-8" standalone="no"?>
<!DOCTYPE svg PUBLIC "-//W3C//DTD SVG 1.1//EN"
 "http://www.w3.org/Graphics/SVG/1.1/DTD/svg11.dtd">
<!-- Generated by graphviz version 11.0.0 (0)
 -->
<!-- Title: DGtal::concepts::CStack&lt; T &gt; Pages: 1 -->
<svg width="300pt" height="89pt"
 viewBox="0.00 0.00 300.12 88.50" xmlns="http://www.w3.org/2000/svg" xmlns:xlink="http://www.w3.org/1999/xlink">
<g id="graph0" class="graph" transform="scale(1 1) rotate(0) translate(4 84.5)">
<title>DGtal::concepts::CStack&lt; T &gt;</title>
<!-- Node1 -->
<g id="Node000001" class="node">
<title>Node1</title>
<g id="a_Node000001"><a xlink:title="Aim: This concept gathers classes that provide a stack interface.">
<polygon fill="#999999" stroke="#666666" points="228,-22.25 80.75,-22.25 80.75,0 228,0 228,-22.25"/>
<text text-anchor="middle" x="154.38" y="-8.75" font-family="FreeSans" font-size="10.00">DGtal::concepts::CStack&lt; T &gt;</text>
</a>
</g>
</g>
<!-- Node2 -->
<g id="Node000002" class="node">
<title>Node2</title>
<g id="a_Node000002"><a xlink:href="structboost_1_1CopyConstructible.html" target="_top" xlink:title="Go to http://www.sgi.com/tech/stl/CopyConstructible.html.">
<polygon fill="white" stroke="#666666" points="154.75,-80.5 0,-80.5 0,-58.25 154.75,-58.25 154.75,-80.5"/>
<text text-anchor="middle" x="77.38" y="-67" font-family="FreeSans" font-size="10.00">boost::CopyConstructible&lt; T &gt;</text>
</a>
</g>
</g>
<!-- Node2&#45;&gt;Node1 -->
<g id="edge1_Node000001_Node000002" class="edge">
<title>Node2&#45;&gt;Node1</title>
<g id="a_edge1_Node000001_Node000002"><a xlink:title=" ">
<path fill="none" stroke="#63b8ff" d="M100.98,-51.13C113.71,-41.83 129,-30.66 139.96,-22.66"/>
<polygon fill="#63b8ff" stroke="#63b8ff" points="99.09,-48.18 93.08,-56.9 103.22,-53.83 99.09,-48.18"/>
</a>
</g>
</g>
<!-- Node3 -->
<g id="Node000003" class="node">
<title>Node3</title>
<g id="a_Node000003"><a xlink:href="structboost_1_1Assignable.html" target="_top" xlink:title="Go to http://www.sgi.com/tech/stl/Assignable.html.">
<polygon fill="white" stroke="#666666" points="292.12,-80.5 172.62,-80.5 172.62,-58.25 292.12,-58.25 292.12,-80.5"/>
<text text-anchor="middle" x="232.38" y="-67" font-family="FreeSans" font-size="10.00">boost::Assignable&lt; T &gt;</text>
</a>
</g>
</g>
<!-- Node3&#45;&gt;Node1 -->
<g id="edge2_Node000001_Node000003" class="edge">
<title>Node3&#45;&gt;Node1</title>
<g id="a_edge2_Node000001_Node000003"><a xlink:title=" ">
<path fill="none" stroke="#63b8ff" d="M208.47,-51.13C195.57,-41.83 180.08,-30.66 168.98,-22.66"/>
<polygon fill="#63b8ff" stroke="#63b8ff" points="206.32,-53.9 216.48,-56.91 210.41,-48.22 206.32,-53.9"/>
</a>
</g>
</g>
</g>
</svg>
