<?xml version="1.0" encoding="UTF-8" standalone="no"?>
<!DOCTYPE svg PUBLIC "-//W3C//DTD SVG 1.1//EN"
 "http://www.w3.org/Graphics/SVG/1.1/DTD/svg11.dtd">
<!-- Generated by graphviz version 11.0.0 (0)
 -->
<!-- Title: DGtal::concepts::CConstSinglePassRangeFromPoint&lt; T &gt; Pages: 1 -->
<svg width="810pt" height="107pt"
 viewBox="0.00 0.00 810.00 106.62" xmlns="http://www.w3.org/2000/svg" xmlns:xlink="http://www.w3.org/1999/xlink">
<g id="graph0" class="graph" transform="scale(1 1) rotate(0) translate(4 102.62)">
<title>DGtal::concepts::CConstSinglePassRangeFromPoint&lt; T &gt;</title>
<!-- Node1 -->
<g id="Node000001" class="node">
<title>Node1</title>
<g id="a_Node000001"><a xlink:title="Aim: refined concept of const single pass range with a begin() method from a point.">
<polygon fill="#999999" stroke="#666666" points="347,-70.62 191.5,-70.62 191.5,-34.12 347,-34.12 347,-70.62"/>
<text text-anchor="start" x="199.5" y="-57.12" font-family="FreeSans" font-size="10.00">DGtal::concepts::CConstSingle</text>
<text text-anchor="middle" x="269.25" y="-42.88" font-family="FreeSans" font-size="10.00">PassRangeFromPoint&lt; T &gt;</text>
</a>
</g>
</g>
<!-- Node3 -->
<g id="Node000003" class="node">
<title>Node3</title>
<g id="a_Node000003"><a xlink:href="structDGtal_1_1concepts_1_1CSinglePassRangeFromPoint.html" target="_top" xlink:title="Aim: refined concept of single pass range with a begin() method from a point.">
<polygon fill="white" stroke="#666666" points="588.38,-98.62 453.12,-98.62 453.12,-62.12 588.38,-62.12 588.38,-98.62"/>
<text text-anchor="start" x="461.12" y="-85.12" font-family="FreeSans" font-size="10.00">DGtal::concepts::CSingle</text>
<text text-anchor="middle" x="520.75" y="-70.88" font-family="FreeSans" font-size="10.00">PassRangeFromPoint&lt; T &gt;</text>
</a>
</g>
</g>
<!-- Node1&#45;&gt;Node3 -->
<g id="edge2_Node000001_Node000003" class="edge">
<title>Node1&#45;&gt;Node3</title>
<g id="a_edge2_Node000001_Node000003"><a xlink:title=" ">
<path fill="none" stroke="#63b8ff" d="M358.75,-62.31C389.76,-65.79 424.05,-69.64 452.99,-72.88"/>
<polygon fill="#63b8ff" stroke="#63b8ff" points="359.32,-58.85 348.99,-61.21 358.54,-65.8 359.32,-58.85"/>
</a>
</g>
</g>
<!-- Node4 -->
<g id="Node000004" class="node">
<title>Node4</title>
<g id="a_Node000004"><a xlink:href="structDGtal_1_1concepts_1_1CConstSinglePassRangeFromPoint.html" target="_top" xlink:title=" ">
<polygon fill="white" stroke="#666666" points="603.75,-43.62 437.75,-43.62 437.75,-7.12 603.75,-7.12 603.75,-43.62"/>
<text text-anchor="start" x="445.75" y="-30.12" font-family="FreeSans" font-size="10.00">DGtal::concepts::CConstSingle</text>
<text text-anchor="middle" x="520.75" y="-15.88" font-family="FreeSans" font-size="10.00">PassRangeFromPoint&lt; T, Value &gt;</text>
</a>
</g>
</g>
<!-- Node1&#45;&gt;Node4 -->
<g id="edge3_Node000001_Node000004" class="edge">
<title>Node1&#45;&gt;Node4</title>
<g id="a_edge3_Node000001_Node000004"><a xlink:title=" ">
<path fill="none" stroke="orange" stroke-dasharray="5,2" d="M358.68,-42.81C384.25,-40.04 412.06,-37.03 437.26,-34.3"/>
<polygon fill="orange" stroke="orange" points="358.55,-39.3 348.99,-43.85 359.31,-46.26 358.55,-39.3"/>
</a>
</g>
<text text-anchor="middle" x="392.38" y="-47.12" font-family="FreeSans" font-size="10.00" fill="grey"> &lt; T, Value &gt;</text>
</g>
<!-- Node2 -->
<g id="Node000002" class="node">
<title>Node2</title>
<g id="a_Node000002"><a xlink:href="structDGtal_1_1concepts_1_1CConstSinglePassRange.html" target="_top" xlink:title="Aim: Defines the concept describing a const single pass range.">
<polygon fill="white" stroke="#666666" points="155.5,-70.62 0,-70.62 0,-34.12 155.5,-34.12 155.5,-70.62"/>
<text text-anchor="start" x="8" y="-57.12" font-family="FreeSans" font-size="10.00">DGtal::concepts::CConstSingle</text>
<text text-anchor="middle" x="77.75" y="-42.88" font-family="FreeSans" font-size="10.00">PassRange&lt; T &gt;</text>
</a>
</g>
</g>
<!-- Node2&#45;&gt;Node1 -->
<g id="edge1_Node000001_Node000002" class="edge">
<title>Node2&#45;&gt;Node1</title>
<g id="a_edge1_Node000001_Node000002"><a xlink:title=" ">
<path fill="none" stroke="#63b8ff" d="M167.14,-52.38C175.19,-52.38 183.3,-52.38 191.24,-52.38"/>
<polygon fill="#63b8ff" stroke="#63b8ff" points="167.34,-48.88 157.34,-52.38 167.34,-55.88 167.34,-48.88"/>
</a>
</g>
</g>
<!-- Node5 -->
<g id="Node000005" class="node">
<title>Node5</title>
<g id="a_Node000005"><a xlink:href="structDGtal_1_1concepts_1_1CSinglePassRangeWithWritableIteratorFromPoint.html" target="_top" xlink:title="Aim: refined concept of single pass range with a outputIterator() method from a point.">
<polygon fill="white" stroke="#666666" points="802,-50.75 639.75,-50.75 639.75,0 802,0 802,-50.75"/>
<text text-anchor="start" x="647.75" y="-37.25" font-family="FreeSans" font-size="10.00">DGtal::concepts::CSingle</text>
<text text-anchor="start" x="647.75" y="-23" font-family="FreeSans" font-size="10.00">PassRangeWithWritableIterator</text>
<text text-anchor="middle" x="720.88" y="-8.75" font-family="FreeSans" font-size="10.00">FromPoint&lt; T, Value &gt;</text>
</a>
</g>
</g>
<!-- Node4&#45;&gt;Node5 -->
<g id="edge4_Node000004_Node000005" class="edge">
<title>Node4&#45;&gt;Node5</title>
<g id="a_edge4_Node000004_Node000005"><a xlink:title=" ">
<path fill="none" stroke="#63b8ff" d="M615.37,-25.38C623.41,-25.38 631.5,-25.38 639.42,-25.38"/>
<polygon fill="#63b8ff" stroke="#63b8ff" points="615.57,-21.88 605.57,-25.38 615.57,-28.88 615.57,-21.88"/>
</a>
</g>
</g>
</g>
</svg>
