<?xml version="1.0" encoding="UTF-8" standalone="no"?>
<!DOCTYPE svg PUBLIC "-//W3C//DTD SVG 1.1//EN"
 "http://www.w3.org/Graphics/SVG/1.1/DTD/svg11.dtd">
<!-- Generated by graphviz version 11.0.0 (0)
 -->
<!-- Title: DGtal::deprecated::concepts::CConvolutionWeights&lt; T &gt; Pages: 1 -->
<svg width="300pt" height="103pt"
 viewBox="0.00 0.00 300.12 102.75" xmlns="http://www.w3.org/2000/svg" xmlns:xlink="http://www.w3.org/1999/xlink">
<g id="graph0" class="graph" transform="scale(1 1) rotate(0) translate(4 98.75)">
<title>DGtal::deprecated::concepts::CConvolutionWeights&lt; T &gt;</title>
<!-- Node1 -->
<g id="Node000001" class="node">
<title>Node1</title>
<g id="a_Node000001"><a xlink:title="Aim: defines models of centered convolution kernel used for normal vector integration for instance.">
<polygon fill="#999999" stroke="#666666" points="246.38,-36.5 62.38,-36.5 62.38,0 246.38,0 246.38,-36.5"/>
<text text-anchor="start" x="70.38" y="-23" font-family="FreeSans" font-size="10.00">DGtal::deprecated::</text>
<text text-anchor="middle" x="154.38" y="-8.75" font-family="FreeSans" font-size="10.00">concepts::CConvolutionWeights&lt; T &gt;</text>
</a>
</g>
</g>
<!-- Node2 -->
<g id="Node000002" class="node">
<title>Node2</title>
<g id="a_Node000002"><a xlink:href="structboost_1_1CopyConstructible.html" target="_top" xlink:title="Go to http://www.sgi.com/tech/stl/CopyConstructible.html.">
<polygon fill="white" stroke="#666666" points="154.75,-94.75 0,-94.75 0,-72.5 154.75,-72.5 154.75,-94.75"/>
<text text-anchor="middle" x="77.38" y="-81.25" font-family="FreeSans" font-size="10.00">boost::CopyConstructible&lt; T &gt;</text>
</a>
</g>
</g>
<!-- Node2&#45;&gt;Node1 -->
<g id="edge1_Node000001_Node000002" class="edge">
<title>Node2&#45;&gt;Node1</title>
<g id="a_edge1_Node000001_Node000002"><a xlink:title=" ">
<path fill="none" stroke="#63b8ff" d="M98.77,-65.02C109.41,-56.26 122.25,-45.69 132.9,-36.92"/>
<polygon fill="#63b8ff" stroke="#63b8ff" points="96.76,-62.14 91.26,-71.2 101.2,-67.55 96.76,-62.14"/>
</a>
</g>
</g>
<!-- Node3 -->
<g id="Node000003" class="node">
<title>Node3</title>
<g id="a_Node000003"><a xlink:href="structboost_1_1Assignable.html" target="_top" xlink:title="Go to http://www.sgi.com/tech/stl/Assignable.html.">
<polygon fill="white" stroke="#666666" points="292.12,-94.75 172.62,-94.75 172.62,-72.5 292.12,-72.5 292.12,-94.75"/>
<text text-anchor="middle" x="232.38" y="-81.25" font-family="FreeSans" font-size="10.00">boost::Assignable&lt; T &gt;</text>
</a>
</g>
</g>
<!-- Node3&#45;&gt;Node1 -->
<g id="edge2_Node000001_Node000003" class="edge">
<title>Node3&#45;&gt;Node1</title>
<g id="a_edge2_Node000001_Node000003"><a xlink:title=" ">
<path fill="none" stroke="#63b8ff" d="M210.7,-65.02C199.92,-56.26 186.92,-45.69 176.13,-36.92"/>
<polygon fill="#63b8ff" stroke="#63b8ff" points="208.35,-67.62 218.32,-71.21 212.77,-62.18 208.35,-67.62"/>
</a>
</g>
</g>
</g>
</svg>
