<?xml version="1.0" encoding="UTF-8" standalone="no"?>
<!DOCTYPE svg PUBLIC "-//W3C//DTD SVG 1.1//EN"
 "http://www.w3.org/Graphics/SVG/1.1/DTD/svg11.dtd">
<!-- Generated by graphviz version 11.0.0 (0)
 -->
<!-- Title: DGtal::concepts::CDigitalSet&lt; T &gt; Pages: 1 -->
<svg width="1632pt" height="110pt"
 viewBox="0.00 0.00 1631.75 110.05" xmlns="http://www.w3.org/2000/svg" xmlns:xlink="http://www.w3.org/1999/xlink">
<g id="graph0" class="graph" transform="scale(1 1) rotate(0) translate(4 106.05)">
<title>DGtal::concepts::CDigitalSet&lt; T &gt;</title>
<!-- Node1 -->
<g id="Node000001" class="node">
<title>Node1</title>
<g id="a_Node000001"><a xlink:title="Aim: Represents a set of points within the given domain. This set of points is modifiable by the user...">
<polygon fill="#999999" stroke="#666666" points="1623.75,-89.18 1493,-89.18 1493,-52.68 1623.75,-52.68 1623.75,-89.18"/>
<text text-anchor="start" x="1501" y="-75.68" font-family="FreeSans" font-size="10.00">DGtal::concepts::CDigital</text>
<text text-anchor="middle" x="1558.38" y="-61.43" font-family="FreeSans" font-size="10.00">Set&lt; T &gt;</text>
</a>
</g>
</g>
<!-- Node2 -->
<g id="Node000002" class="node">
<title>Node2</title>
<g id="a_Node000002"><a xlink:href="structboost_1_1CopyConstructible.html" target="_top" xlink:title="Go to http://www.sgi.com/tech/stl/CopyConstructible.html.">
<polygon fill="white" stroke="#666666" points="1439,-102.05 1284.25,-102.05 1284.25,-79.8 1439,-79.8 1439,-102.05"/>
<text text-anchor="middle" x="1361.62" y="-88.55" font-family="FreeSans" font-size="10.00">boost::CopyConstructible&lt; T &gt;</text>
</a>
</g>
</g>
<!-- Node2&#45;&gt;Node1 -->
<g id="edge1_Node000001_Node000002" class="edge">
<title>Node2&#45;&gt;Node1</title>
<g id="a_edge1_Node000001_Node000002"><a xlink:title=" ">
<path fill="none" stroke="#63b8ff" d="M1450.6,-81.9C1464.77,-80.44 1479.21,-78.96 1492.71,-77.57"/>
<polygon fill="#63b8ff" stroke="#63b8ff" points="1450.41,-78.4 1440.82,-82.9 1451.13,-85.36 1450.41,-78.4"/>
</a>
</g>
</g>
<!-- Node3 -->
<g id="Node000003" class="node">
<title>Node3</title>
<g id="a_Node000003"><a xlink:href="structDGtal_1_1concepts_1_1CPointPredicate.html" target="_top" xlink:title="Aim: Defines a predicate on a point.">
<polygon fill="white" stroke="#666666" points="1457,-62.05 1266.25,-62.05 1266.25,-39.8 1457,-39.8 1457,-62.05"/>
<text text-anchor="middle" x="1361.62" y="-48.55" font-family="FreeSans" font-size="10.00">DGtal::concepts::CPointPredicate&lt; T &gt;</text>
</a>
</g>
</g>
<!-- Node3&#45;&gt;Node1 -->
<g id="edge2_Node000001_Node000003" class="edge">
<title>Node3&#45;&gt;Node1</title>
<g id="a_edge2_Node000001_Node000003"><a xlink:title=" ">
<path fill="none" stroke="#63b8ff" d="M1468.86,-61.84C1476.92,-62.67 1484.9,-63.49 1492.57,-64.27"/>
<polygon fill="#63b8ff" stroke="#63b8ff" points="1469.24,-58.36 1458.94,-60.82 1468.53,-65.32 1469.24,-58.36"/>
</a>
</g>
</g>
<!-- Node4 -->
<g id="Node000004" class="node">
<title>Node4</title>
<g id="a_Node000004"><a xlink:href="structDGtal_1_1concepts_1_1CPredicate.html" target="_top" xlink:title=" ">
<polygon fill="white" stroke="#666666" points="1230.25,-69.18 1085.25,-69.18 1085.25,-32.68 1230.25,-32.68 1230.25,-69.18"/>
<text text-anchor="start" x="1093.25" y="-55.68" font-family="FreeSans" font-size="10.00">DGtal::concepts::CPredicate</text>
<text text-anchor="middle" x="1157.75" y="-41.43" font-family="FreeSans" font-size="10.00">&lt; T, T::Point &gt;</text>
</a>
</g>
</g>
<!-- Node4&#45;&gt;Node3 -->
<g id="edge3_Node000003_Node000004" class="edge">
<title>Node4&#45;&gt;Node3</title>
<g id="a_edge3_Node000003_Node000004"><a xlink:title=" ">
<path fill="none" stroke="#63b8ff" d="M1241.91,-50.93C1249.8,-50.93 1257.83,-50.93 1265.81,-50.93"/>
<polygon fill="#63b8ff" stroke="#63b8ff" points="1242.01,-47.43 1232.01,-50.93 1242.01,-54.43 1242.01,-47.43"/>
</a>
</g>
</g>
<!-- Node5 -->
<g id="Node000005" class="node">
<title>Node5</title>
<g id="a_Node000005"><a xlink:href="structDGtal_1_1concepts_1_1CUnaryFunctor.html" target="_top" xlink:title=" ">
<polygon fill="white" stroke="#666666" points="802.75,-97.18 636.75,-97.18 636.75,-60.68 802.75,-60.68 802.75,-97.18"/>
<text text-anchor="start" x="644.75" y="-83.68" font-family="FreeSans" font-size="10.00">DGtal::concepts::CUnaryFunctor</text>
<text text-anchor="middle" x="719.75" y="-69.43" font-family="FreeSans" font-size="10.00">&lt; T, T::Point, bool &gt;</text>
</a>
</g>
</g>
<!-- Node5&#45;&gt;Node4 -->
<g id="edge4_Node000004_Node000005" class="edge">
<title>Node5&#45;&gt;Node4</title>
<g id="a_edge4_Node000004_Node000005"><a xlink:title=" ">
<path fill="none" stroke="#63b8ff" d="M814.42,-73.7C884.16,-69.69 981.68,-63.87 1067.25,-57.93 1073,-57.53 1078.96,-57.1 1084.95,-56.66"/>
<polygon fill="#63b8ff" stroke="#63b8ff" points="814.33,-70.2 804.55,-74.26 814.73,-77.19 814.33,-70.2"/>
</a>
</g>
</g>
<!-- Node6 -->
<g id="Node000006" class="node">
<title>Node6</title>
<g id="a_Node000006"><a xlink:href="structboost_1_1Assignable.html" target="_top" xlink:title="Go to http://www.sgi.com/tech/stl/Assignable.html.">
<polygon fill="white" stroke="#666666" points="479.25,-99.05 359.75,-99.05 359.75,-76.8 479.25,-76.8 479.25,-99.05"/>
<text text-anchor="middle" x="419.5" y="-85.55" font-family="FreeSans" font-size="10.00">boost::Assignable&lt; T &gt;</text>
</a>
</g>
</g>
<!-- Node6&#45;&gt;Node5 -->
<g id="edge5_Node000005_Node000006" class="edge">
<title>Node6&#45;&gt;Node5</title>
<g id="a_edge5_Node000005_Node000006"><a xlink:title=" ">
<path fill="none" stroke="#63b8ff" d="M490.81,-85.81C534.48,-84.49 590.79,-82.79 636.52,-81.41"/>
<polygon fill="#63b8ff" stroke="#63b8ff" points="490.83,-82.31 480.94,-86.11 491.04,-89.3 490.83,-82.31"/>
</a>
</g>
</g>
<!-- Node11 -->
<g id="Node000011" class="node">
<title>Node11</title>
<g id="a_Node000011"><a xlink:href="structDGtal_1_1concepts_1_1CUnaryFunctor.html" target="_top" xlink:title=" ">
<polygon fill="white" stroke="#666666" points="802.75,-42.18 636.75,-42.18 636.75,-5.68 802.75,-5.68 802.75,-42.18"/>
<text text-anchor="start" x="644.75" y="-28.68" font-family="FreeSans" font-size="10.00">DGtal::concepts::CUnaryFunctor</text>
<text text-anchor="middle" x="719.75" y="-14.43" font-family="FreeSans" font-size="10.00">&lt; T, TElement, bool &gt;</text>
</a>
</g>
</g>
<!-- Node6&#45;&gt;Node11 -->
<g id="edge11_Node000011_Node000006" class="edge">
<title>Node6&#45;&gt;Node11</title>
<g id="a_edge11_Node000011_Node000006"><a xlink:title=" ">
<path fill="none" stroke="#63b8ff" d="M490.47,-78.65C528.64,-73 576.57,-64.93 618.75,-54.93 633.25,-51.49 648.72,-47.08 663.06,-42.66"/>
<polygon fill="#63b8ff" stroke="#63b8ff" points="490.36,-75.13 480.97,-80.03 491.37,-82.06 490.36,-75.13"/>
</a>
</g>
</g>
<!-- Node7 -->
<g id="Node000007" class="node">
<title>Node7</title>
<g id="a_Node000007"><a xlink:href="structDGtal_1_1concepts_1_1CUnaryFunctor.html" target="_top" xlink:title="Aim: Defines a unary functor, which associates arguments to results.">
<polygon fill="white" stroke="#666666" points="502.5,-46.18 336.5,-46.18 336.5,-9.68 502.5,-9.68 502.5,-46.18"/>
<text text-anchor="start" x="344.5" y="-32.68" font-family="FreeSans" font-size="10.00">DGtal::concepts::CUnaryFunctor</text>
<text text-anchor="middle" x="419.5" y="-18.43" font-family="FreeSans" font-size="10.00">&lt; X, A, R &gt;</text>
</a>
</g>
</g>
<!-- Node7&#45;&gt;Node5 -->
<g id="edge6_Node000005_Node000007" class="edge">
<title>Node7&#45;&gt;Node5</title>
<g id="a_edge6_Node000005_Node000007"><a xlink:title=" ">
<path fill="none" stroke="orange" stroke-dasharray="5,2" d="M514.2,-25.32C547.76,-26.63 585.5,-30.72 618.75,-40.68 627.57,-43.32 628.36,-47.15 636.75,-50.93 644.02,-54.21 651.79,-57.32 659.55,-60.21"/>
<polygon fill="orange" stroke="orange" points="514.6,-21.83 504.5,-25.02 514.39,-28.82 514.6,-21.83"/>
</a>
</g>
<text text-anchor="middle" x="569.62" y="-44.68" font-family="FreeSans" font-size="10.00" fill="grey"> &lt; T, T::Point, bool &gt;</text>
</g>
<!-- Node7&#45;&gt;Node11 -->
<g id="edge12_Node000011_Node000007" class="edge">
<title>Node7&#45;&gt;Node11</title>
<g id="a_edge12_Node000011_Node000007"><a xlink:title=" ">
<path fill="none" stroke="orange" stroke-dasharray="5,2" d="M499.31,-6.98C506.43,-5.65 513.57,-4.51 520.5,-3.68 563.86,1.5 575.3,0.68 618.75,-3.68 624.48,-4.25 630.36,-5.01 636.27,-5.89"/>
<polygon fill="orange" stroke="orange" points="498.75,-3.53 489.63,-8.93 500.13,-10.39 498.75,-3.53"/>
</a>
</g>
<text text-anchor="middle" x="569.62" y="-8.68" font-family="FreeSans" font-size="10.00" fill="grey"> &lt; T, TElement, bool &gt;</text>
</g>
<!-- Node8 -->
<g id="Node000008" class="node">
<title>Node8</title>
<g id="a_Node000008"><a xlink:href="structboost_1_1Assignable.html" target="_top" xlink:title=" ">
<polygon fill="white" stroke="#666666" points="300.5,-39.05 180.25,-39.05 180.25,-16.8 300.5,-16.8 300.5,-39.05"/>
<text text-anchor="middle" x="240.38" y="-25.55" font-family="FreeSans" font-size="10.00">boost::Assignable&lt; X &gt;</text>
</a>
</g>
</g>
<!-- Node8&#45;&gt;Node7 -->
<g id="edge7_Node000007_Node000008" class="edge">
<title>Node8&#45;&gt;Node7</title>
<g id="a_edge7_Node000007_Node000008"><a xlink:title=" ">
<path fill="none" stroke="#63b8ff" d="M312.23,-27.93C320.11,-27.93 328.19,-27.93 336.2,-27.93"/>
<polygon fill="#63b8ff" stroke="#63b8ff" points="312.36,-24.43 302.36,-27.93 312.36,-31.43 312.36,-24.43"/>
</a>
</g>
</g>
<!-- Node9 -->
<g id="Node000009" class="node">
<title>Node9</title>
<g id="a_Node000009"><a xlink:href="structboost_1_1Assignable.html" target="_top" xlink:title="Go to http://www.sgi.com/tech/stl/Assignable.html.">
<polygon fill="white" stroke="#666666" points="119.5,-39.05 0,-39.05 0,-16.8 119.5,-16.8 119.5,-39.05"/>
<text text-anchor="middle" x="59.75" y="-25.55" font-family="FreeSans" font-size="10.00">boost::Assignable&lt; T &gt;</text>
</a>
</g>
</g>
<!-- Node9&#45;&gt;Node8 -->
<g id="edge8_Node000008_Node000009" class="edge">
<title>Node9&#45;&gt;Node8</title>
<g id="a_edge8_Node000008_Node000009"><a xlink:title=" ">
<path fill="none" stroke="orange" stroke-dasharray="5,2" d="M130.79,-27.93C147.01,-27.93 164.12,-27.93 179.84,-27.93"/>
<polygon fill="orange" stroke="orange" points="131.25,-24.43 121.25,-27.93 131.25,-31.43 131.25,-24.43"/>
</a>
</g>
<text text-anchor="middle" x="149.88" y="-32.68" font-family="FreeSans" font-size="10.00" fill="grey"> &lt; X &gt;</text>
</g>
<!-- Node10 -->
<g id="Node000010" class="node">
<title>Node10</title>
<g id="a_Node000010"><a xlink:href="structDGtal_1_1concepts_1_1CPredicate.html" target="_top" xlink:title="Aim: Defines a predicate function, ie. a functor mapping a domain into the set of booleans.">
<polygon fill="white" stroke="#666666" points="984.75,-42.18 839.75,-42.18 839.75,-5.68 984.75,-5.68 984.75,-42.18"/>
<text text-anchor="start" x="847.75" y="-28.68" font-family="FreeSans" font-size="10.00">DGtal::concepts::CPredicate</text>
<text text-anchor="middle" x="912.25" y="-14.43" font-family="FreeSans" font-size="10.00">&lt; T, TElement &gt;</text>
</a>
</g>
</g>
<!-- Node10&#45;&gt;Node4 -->
<g id="edge9_Node000004_Node000010" class="edge">
<title>Node10&#45;&gt;Node4</title>
<g id="a_edge9_Node000004_Node000010"><a xlink:title=" ">
<path fill="none" stroke="orange" stroke-dasharray="5,2" d="M996.29,-33.14C1025.15,-36.34 1057.25,-39.9 1085.1,-42.99"/>
<polygon fill="orange" stroke="orange" points="996.82,-29.67 986.5,-32.05 996.05,-36.63 996.82,-29.67"/>
</a>
</g>
<text text-anchor="middle" x="1035" y="-44.68" font-family="FreeSans" font-size="10.00" fill="grey"> &lt; T, T::Point &gt;</text>
</g>
<!-- Node11&#45;&gt;Node10 -->
<g id="edge10_Node000010_Node000011" class="edge">
<title>Node11&#45;&gt;Node10</title>
<g id="a_edge10_Node000010_Node000011"><a xlink:title=" ">
<path fill="none" stroke="#63b8ff" d="M814.57,-23.93C822.93,-23.93 831.31,-23.93 839.44,-23.93"/>
<polygon fill="#63b8ff" stroke="#63b8ff" points="814.71,-20.43 804.71,-23.93 814.71,-27.43 814.71,-20.43"/>
</a>
</g>
</g>
</g>
</svg>
