<?xml version="1.0" encoding="UTF-8" standalone="no"?>
<!DOCTYPE svg PUBLIC "-//W3C//DTD SVG 1.1//EN"
 "http://www.w3.org/Graphics/SVG/1.1/DTD/svg11.dtd">
<!-- Generated by graphviz version 11.0.0 (0)
 -->
<!-- Title: DGtal::DrawableWithDisplay3D Pages: 1 -->
<svg width="517pt" height="150pt"
 viewBox="0.00 0.00 517.25 150.25" xmlns="http://www.w3.org/2000/svg" xmlns:xlink="http://www.w3.org/1999/xlink">
<g id="graph0" class="graph" transform="scale(1 1) rotate(0) translate(4 146.25)">
<title>DGtal::DrawableWithDisplay3D</title>
<!-- Node1 -->
<g id="Node000001" class="node">
<title>Node1</title>
<g id="a_Node000001"><a xlink:title=" ">
<polygon fill="#999999" stroke="#666666" points="159.25,-82.25 0,-82.25 0,-60 159.25,-60 159.25,-82.25"/>
<text text-anchor="middle" x="79.62" y="-68.75" font-family="FreeSans" font-size="10.00">DGtal::DrawableWithDisplay3D</text>
</a>
</g>
</g>
<!-- Node2 -->
<g id="Node000002" class="node">
<title>Node2</title>
<g id="a_Node000002"><a xlink:href="structDGtal_1_1DrawWithBoard3DTo2DModifier.html" target="_top" xlink:title="Base class specifying the methods for classes which intend to modify a Viewer3D stream.">
<polygon fill="white" stroke="#666666" points="345.5,-89.38 195.25,-89.38 195.25,-52.88 345.5,-52.88 345.5,-89.38"/>
<text text-anchor="start" x="203.25" y="-75.88" font-family="FreeSans" font-size="10.00">DGtal::DrawWithBoard3DTo2</text>
<text text-anchor="middle" x="270.38" y="-61.62" font-family="FreeSans" font-size="10.00">DModifier</text>
</a>
</g>
</g>
<!-- Node1&#45;&gt;Node2 -->
<g id="edge1_Node000001_Node000002" class="edge">
<title>Node1&#45;&gt;Node2</title>
<g id="a_edge1_Node000001_Node000002"><a xlink:title=" ">
<path fill="none" stroke="#63b8ff" d="M170.91,-71.12C178.97,-71.12 187.06,-71.12 194.96,-71.12"/>
<polygon fill="#63b8ff" stroke="#63b8ff" points="171.09,-67.63 161.09,-71.13 171.09,-74.63 171.09,-67.63"/>
</a>
</g>
</g>
<!-- Node3 -->
<g id="Node000003" class="node">
<title>Node3</title>
<g id="a_Node000003"><a xlink:href="structDGtal_1_1CameraDirection.html" target="_top" xlink:title="CameraDirection class to set camera direction.">
<polygon fill="white" stroke="#666666" points="508.12,-142.25 382.62,-142.25 382.62,-120 508.12,-120 508.12,-142.25"/>
<text text-anchor="middle" x="445.38" y="-128.75" font-family="FreeSans" font-size="10.00">DGtal::CameraDirection</text>
</a>
</g>
</g>
<!-- Node2&#45;&gt;Node3 -->
<g id="edge2_Node000002_Node000003" class="edge">
<title>Node2&#45;&gt;Node3</title>
<g id="a_edge2_Node000002_Node000003"><a xlink:title=" ">
<path fill="none" stroke="#63b8ff" d="M332.45,-93.81C348.38,-99.58 365.54,-105.69 381.5,-111.12 389.74,-113.93 398.63,-116.83 407.06,-119.53"/>
<polygon fill="#63b8ff" stroke="#63b8ff" points="333.68,-90.53 323.08,-90.39 331.28,-97.11 333.68,-90.53"/>
</a>
</g>
</g>
<!-- Node4 -->
<g id="Node000004" class="node">
<title>Node4</title>
<g id="a_Node000004"><a xlink:href="structDGtal_1_1CameraPosition.html" target="_top" xlink:title="CameraPosition class to set camera position.">
<polygon fill="white" stroke="#666666" points="505.5,-102.25 385.25,-102.25 385.25,-80 505.5,-80 505.5,-102.25"/>
<text text-anchor="middle" x="445.38" y="-88.75" font-family="FreeSans" font-size="10.00">DGtal::CameraPosition</text>
</a>
</g>
</g>
<!-- Node2&#45;&gt;Node4 -->
<g id="edge3_Node000002_Node000004" class="edge">
<title>Node2&#45;&gt;Node4</title>
<g id="a_edge3_Node000002_Node000004"><a xlink:title=" ">
<path fill="none" stroke="#63b8ff" d="M357.32,-81.06C366.63,-82.14 375.95,-83.21 384.85,-84.24"/>
<polygon fill="#63b8ff" stroke="#63b8ff" points="357.84,-77.6 347.5,-79.93 357.03,-84.55 357.84,-77.6"/>
</a>
</g>
</g>
<!-- Node5 -->
<g id="Node000005" class="node">
<title>Node5</title>
<g id="a_Node000005"><a xlink:href="structDGtal_1_1CameraUpVector.html" target="_top" xlink:title="CameraUpVector class to set camera up&#45;vector.">
<polygon fill="white" stroke="#666666" points="509.25,-62.25 381.5,-62.25 381.5,-40 509.25,-40 509.25,-62.25"/>
<text text-anchor="middle" x="445.38" y="-48.75" font-family="FreeSans" font-size="10.00">DGtal::CameraUpVector</text>
</a>
</g>
</g>
<!-- Node2&#45;&gt;Node5 -->
<g id="edge4_Node000002_Node000005" class="edge">
<title>Node2&#45;&gt;Node5</title>
<g id="a_edge4_Node000002_Node000005"><a xlink:title=" ">
<path fill="none" stroke="#63b8ff" d="M357.31,-61.19C365.33,-60.26 373.36,-59.33 381.12,-58.44"/>
<polygon fill="#63b8ff" stroke="#63b8ff" points="357.03,-57.7 347.5,-62.32 357.84,-64.65 357.03,-57.7"/>
</a>
</g>
</g>
<!-- Node6 -->
<g id="Node000006" class="node">
<title>Node6</title>
<g id="a_Node000006"><a xlink:href="structDGtal_1_1CameraZNearFar.html" target="_top" xlink:title="CameraZNearFar class to set near and far distance.">
<polygon fill="white" stroke="#666666" points="509.25,-22.25 381.5,-22.25 381.5,0 509.25,0 509.25,-22.25"/>
<text text-anchor="middle" x="445.38" y="-8.75" font-family="FreeSans" font-size="10.00">DGtal::CameraZNearFar</text>
</a>
</g>
</g>
<!-- Node2&#45;&gt;Node6 -->
<g id="edge5_Node000002_Node000006" class="edge">
<title>Node2&#45;&gt;Node6</title>
<g id="a_edge5_Node000002_Node000006"><a xlink:title=" ">
<path fill="none" stroke="#63b8ff" d="M332.45,-48.44C348.38,-42.67 365.54,-36.56 381.5,-31.12 389.74,-28.32 398.63,-25.42 407.06,-22.72"/>
<polygon fill="#63b8ff" stroke="#63b8ff" points="331.28,-45.14 323.08,-51.86 333.68,-51.72 331.28,-45.14"/>
</a>
</g>
</g>
</g>
</svg>
