<?xml version="1.0" encoding="UTF-8" standalone="no"?>
<!DOCTYPE svg PUBLIC "-//W3C//DTD SVG 1.1//EN"
 "http://www.w3.org/Graphics/SVG/1.1/DTD/svg11.dtd">
<!-- Generated by graphviz version 11.0.0 (0)
 -->
<!-- Title: DGtal::UnorderedAssociativeCategory Pages: 1 -->
<svg width="716pt" height="210pt"
 viewBox="0.00 0.00 715.50 209.50" xmlns="http://www.w3.org/2000/svg" xmlns:xlink="http://www.w3.org/1999/xlink">
<g id="graph0" class="graph" transform="scale(1 1) rotate(0) translate(4 205.5)">
<title>DGtal::UnorderedAssociativeCategory</title>
<!-- Node1 -->
<g id="Node000001" class="node">
<title>Node1</title>
<g id="a_Node000001"><a xlink:title=" ">
<polygon fill="#999999" stroke="#666666" points="501,-118.5 350.75,-118.5 350.75,-82 501,-82 501,-118.5"/>
<text text-anchor="start" x="358.75" y="-105" font-family="FreeSans" font-size="10.00">DGtal::UnorderedAssociative</text>
<text text-anchor="middle" x="425.88" y="-90.75" font-family="FreeSans" font-size="10.00">Category</text>
</a>
</g>
</g>
<!-- Node4 -->
<g id="Node000004" class="node">
<title>Node4</title>
<g id="a_Node000004"><a xlink:href="structDGtal_1_1UnorderedMapAssociativeCategory.html" target="_top" xlink:title=" ">
<polygon fill="white" stroke="#666666" points="707.5,-201.5 537,-201.5 537,-165 707.5,-165 707.5,-201.5"/>
<text text-anchor="start" x="545" y="-188" font-family="FreeSans" font-size="10.00">DGtal::UnorderedMapAssociative</text>
<text text-anchor="middle" x="622.25" y="-173.75" font-family="FreeSans" font-size="10.00">Category</text>
</a>
</g>
</g>
<!-- Node1&#45;&gt;Node4 -->
<g id="edge3_Node000001_Node000004" class="edge">
<title>Node1&#45;&gt;Node4</title>
<g id="a_edge3_Node000001_Node000004"><a xlink:title=" ">
<path fill="none" stroke="#63b8ff" d="M471,-124.09C490.86,-134.35 514.8,-146.07 537,-155.25 544.83,-158.49 553.19,-161.63 561.48,-164.56"/>
<polygon fill="#63b8ff" stroke="#63b8ff" points="472.83,-121.1 462.35,-119.58 469.6,-127.31 472.83,-121.1"/>
</a>
</g>
</g>
<!-- Node5 -->
<g id="Node000005" class="node">
<title>Node5</title>
<g id="a_Node000005"><a xlink:href="structDGtal_1_1UnorderedMultimapAssociativeCategory.html" target="_top" xlink:title=" ">
<polygon fill="white" stroke="#666666" points="693.62,-146.5 550.88,-146.5 550.88,-110 693.62,-110 693.62,-146.5"/>
<text text-anchor="start" x="558.88" y="-133" font-family="FreeSans" font-size="10.00">DGtal::UnorderedMultimap</text>
<text text-anchor="middle" x="622.25" y="-118.75" font-family="FreeSans" font-size="10.00">AssociativeCategory</text>
</a>
</g>
</g>
<!-- Node1&#45;&gt;Node5 -->
<g id="edge4_Node000001_Node000005" class="edge">
<title>Node1&#45;&gt;Node5</title>
<g id="a_edge4_Node000001_Node000005"><a xlink:title=" ">
<path fill="none" stroke="#63b8ff" d="M512.57,-112.59C525.31,-114.43 538.31,-116.3 550.69,-118.09"/>
<polygon fill="#63b8ff" stroke="#63b8ff" points="513.36,-109.17 502.97,-111.21 512.37,-116.1 513.36,-109.17"/>
</a>
</g>
</g>
<!-- Node6 -->
<g id="Node000006" class="node">
<title>Node6</title>
<g id="a_Node000006"><a xlink:href="structDGtal_1_1UnorderedMultisetAssociativeCategory.html" target="_top" xlink:title=" ">
<polygon fill="white" stroke="#666666" points="690.62,-91.5 553.88,-91.5 553.88,-55 690.62,-55 690.62,-91.5"/>
<text text-anchor="start" x="561.88" y="-78" font-family="FreeSans" font-size="10.00">DGtal::UnorderedMultiset</text>
<text text-anchor="middle" x="622.25" y="-63.75" font-family="FreeSans" font-size="10.00">AssociativeCategory</text>
</a>
</g>
</g>
<!-- Node1&#45;&gt;Node6 -->
<g id="edge5_Node000001_Node000006" class="edge">
<title>Node1&#45;&gt;Node6</title>
<g id="a_edge5_Node000001_Node000006"><a xlink:title=" ">
<path fill="none" stroke="#63b8ff" d="M512.83,-88.31C526.46,-86.42 540.4,-84.48 553.54,-82.66"/>
<polygon fill="#63b8ff" stroke="#63b8ff" points="512.39,-84.84 502.97,-89.68 513.36,-91.77 512.39,-84.84"/>
</a>
</g>
</g>
<!-- Node7 -->
<g id="Node000007" class="node">
<title>Node7</title>
<g id="a_Node000007"><a xlink:href="structDGtal_1_1UnorderedSetAssociativeCategory.html" target="_top" xlink:title=" ">
<polygon fill="white" stroke="#666666" points="704.88,-36.5 539.62,-36.5 539.62,0 704.88,0 704.88,-36.5"/>
<text text-anchor="start" x="547.62" y="-23" font-family="FreeSans" font-size="10.00">DGtal::UnorderedSetAssociative</text>
<text text-anchor="middle" x="622.25" y="-8.75" font-family="FreeSans" font-size="10.00">Category</text>
</a>
</g>
</g>
<!-- Node1&#45;&gt;Node7 -->
<g id="edge6_Node000001_Node000007" class="edge">
<title>Node1&#45;&gt;Node7</title>
<g id="a_edge6_Node000001_Node000007"><a xlink:title=" ">
<path fill="none" stroke="#63b8ff" d="M472.22,-76.3C491.86,-66.38 515.28,-55.14 537,-46.25 544.85,-43.04 553.21,-39.92 561.51,-36.99"/>
<polygon fill="#63b8ff" stroke="#63b8ff" points="470.69,-73.15 463.38,-80.81 473.87,-79.38 470.69,-73.15"/>
</a>
</g>
</g>
<!-- Node2 -->
<g id="Node000002" class="node">
<title>Node2</title>
<g id="a_Node000002"><a xlink:href="structDGtal_1_1AssociativeCategory.html" target="_top" xlink:title=" ">
<polygon fill="white" stroke="#666666" points="314.75,-111.38 172.75,-111.38 172.75,-89.12 314.75,-89.12 314.75,-111.38"/>
<text text-anchor="middle" x="243.75" y="-97.88" font-family="FreeSans" font-size="10.00">DGtal::AssociativeCategory</text>
</a>
</g>
</g>
<!-- Node2&#45;&gt;Node1 -->
<g id="edge1_Node000001_Node000002" class="edge">
<title>Node2&#45;&gt;Node1</title>
<g id="a_edge1_Node000001_Node000002"><a xlink:title=" ">
<path fill="none" stroke="#63b8ff" d="M326.65,-100.25C334.54,-100.25 342.53,-100.25 350.35,-100.25"/>
<polygon fill="#63b8ff" stroke="#63b8ff" points="326.68,-96.75 316.68,-100.25 326.68,-103.75 326.68,-96.75"/>
</a>
</g>
</g>
<!-- Node3 -->
<g id="Node000003" class="node">
<title>Node3</title>
<g id="a_Node000003"><a xlink:href="structDGtal_1_1ContainerCategory.html" target="_top" xlink:title=" ">
<polygon fill="white" stroke="#666666" points="136.75,-111.38 0,-111.38 0,-89.12 136.75,-89.12 136.75,-111.38"/>
<text text-anchor="middle" x="68.38" y="-97.88" font-family="FreeSans" font-size="10.00">DGtal::ContainerCategory</text>
</a>
</g>
</g>
<!-- Node3&#45;&gt;Node2 -->
<g id="edge2_Node000002_Node000003" class="edge">
<title>Node3&#45;&gt;Node2</title>
<g id="a_edge2_Node000002_Node000003"><a xlink:title=" ">
<path fill="none" stroke="#63b8ff" d="M148.17,-100.25C156.2,-100.25 164.32,-100.25 172.26,-100.25"/>
<polygon fill="#63b8ff" stroke="#63b8ff" points="148.42,-96.75 138.42,-100.25 148.42,-103.75 148.42,-96.75"/>
</a>
</g>
</g>
</g>
</svg>
