<?xml version="1.0" encoding="UTF-8" standalone="no"?>
<!DOCTYPE svg PUBLIC "-//W3C//DTD SVG 1.1//EN"
 "http://www.w3.org/Graphics/SVG/1.1/DTD/svg11.dtd">
<!-- Generated by graphviz version 11.0.0 (0)
 -->
<!-- Title: DGtal::functors::VectorRounding&lt; TRealVector, TVector &gt; Pages: 1 -->
<svg width="520pt" height="136pt"
 viewBox="0.00 0.00 520.00 136.12" xmlns="http://www.w3.org/2000/svg" xmlns:xlink="http://www.w3.org/1999/xlink">
<g id="graph0" class="graph" transform="scale(1 1) rotate(0) translate(4 132.12)">
<title>DGtal::functors::VectorRounding&lt; TRealVector, TVector &gt;</title>
<!-- Node1 -->
<g id="Node000001" class="node">
<title>Node1</title>
<g id="a_Node000001"><a xlink:title=" ">
<polygon fill="#999999" stroke="#666666" points="168.25,-77.62 0,-77.62 0,-41.12 168.25,-41.12 168.25,-77.62"/>
<text text-anchor="start" x="8" y="-64.12" font-family="FreeSans" font-size="10.00">DGtal::functors::VectorRounding</text>
<text text-anchor="middle" x="84.12" y="-49.88" font-family="FreeSans" font-size="10.00">&lt; TRealVector, TVector &gt;</text>
</a>
</g>
</g>
<!-- Node2 -->
<g id="Node000002" class="node">
<title>Node2</title>
<g id="a_Node000002"><a xlink:href="structDGtal_1_1functors_1_1VectorRounding.html" target="_top" xlink:title=" ">
<polygon fill="white" stroke="#666666" points="512,-119.75 343.75,-119.75 343.75,-69 512,-69 512,-119.75"/>
<text text-anchor="start" x="351.75" y="-106.25" font-family="FreeSans" font-size="10.00">DGtal::functors::VectorRounding</text>
<text text-anchor="start" x="351.75" y="-92" font-family="FreeSans" font-size="10.00">&lt; typename TSpace::RealPoint,</text>
<text text-anchor="middle" x="427.88" y="-77.75" font-family="FreeSans" font-size="10.00"> typename TSpace::Point &gt;</text>
</a>
</g>
</g>
<!-- Node1&#45;&gt;Node2 -->
<g id="edge1_Node000001_Node000002" class="edge">
<title>Node1&#45;&gt;Node2</title>
<g id="a_edge1_Node000001_Node000002"><a xlink:title=" ">
<path fill="none" stroke="orange" stroke-dasharray="5,2" d="M180.02,-71.68C182.12,-71.92 184.19,-72.15 186.25,-72.38 238.37,-78.11 296.96,-83.49 343.28,-87.49"/>
<polygon fill="orange" stroke="orange" points="180.54,-68.22 170.2,-70.54 179.73,-75.17 180.54,-68.22"/>
</a>
</g>
<text text-anchor="start" x="206.88" y="-118.62" font-family="FreeSans" font-size="10.00" fill="grey"> &lt; typename TSpace::</text>
<text text-anchor="start" x="206.88" y="-104.38" font-family="FreeSans" font-size="10.00" fill="grey">RealPoint, typename</text>
<text text-anchor="middle" x="256" y="-90.12" font-family="FreeSans" font-size="10.00" fill="grey"> TSpace::Point &gt;</text>
</g>
<!-- Node3 -->
<g id="Node000003" class="node">
<title>Node3</title>
<g id="a_Node000003"><a xlink:href="structDGtal_1_1functors_1_1VectorRounding.html" target="_top" xlink:title=" ">
<polygon fill="white" stroke="#666666" points="512,-50.75 343.75,-50.75 343.75,0 512,0 512,-50.75"/>
<text text-anchor="start" x="351.75" y="-37.25" font-family="FreeSans" font-size="10.00">DGtal::functors::VectorRounding</text>
<text text-anchor="start" x="351.75" y="-23" font-family="FreeSans" font-size="10.00">&lt; typename Space::RealPoint,</text>
<text text-anchor="middle" x="427.88" y="-8.75" font-family="FreeSans" font-size="10.00"> typename Space::Point &gt;</text>
</a>
</g>
</g>
<!-- Node1&#45;&gt;Node3 -->
<g id="edge2_Node000001_Node000003" class="edge">
<title>Node1&#45;&gt;Node3</title>
<g id="a_edge2_Node000001_Node000003"><a xlink:title=" ">
<path fill="none" stroke="orange" stroke-dasharray="5,2" d="M180.01,-44.62C182.11,-44.36 184.19,-44.11 186.25,-43.88 238.38,-37.88 297.1,-33.33 343.49,-30.23"/>
<polygon fill="orange" stroke="orange" points="179.64,-41.13 170.16,-45.88 180.53,-48.08 179.64,-41.13"/>
</a>
</g>
<text text-anchor="start" x="186.25" y="-62.38" font-family="FreeSans" font-size="10.00" fill="grey"> &lt; typename Space::RealPoint,</text>
<text text-anchor="middle" x="256" y="-48.12" font-family="FreeSans" font-size="10.00" fill="grey"> typename Space::Point &gt;</text>
</g>
</g>
</svg>
