<?xml version="1.0" encoding="UTF-8" standalone="no"?>
<!DOCTYPE svg PUBLIC "-//W3C//DTD SVG 1.1//EN"
 "http://www.w3.org/Graphics/SVG/1.1/DTD/svg11.dtd">
<!-- Generated by graphviz version 11.0.0 (0)
 -->
<!-- Title: DGtal::concepts::CSTLAssociativeContainer&lt; T &gt; Pages: 1 -->
<svg width="346pt" height="175pt"
 viewBox="0.00 0.00 346.38 175.25" xmlns="http://www.w3.org/2000/svg" xmlns:xlink="http://www.w3.org/1999/xlink">
<g id="graph0" class="graph" transform="scale(1 1) rotate(0) translate(4 171.25)">
<title>DGtal::concepts::CSTLAssociativeContainer&lt; T &gt;</title>
<!-- Node1 -->
<g id="Node000001" class="node">
<title>Node1</title>
<g id="a_Node000001"><a xlink:title="Aim: Defines the concept describing an Associative Container of the STL (https://www....">
<polygon fill="#999999" stroke="#666666" points="294.5,-36.5 126.25,-36.5 126.25,0 294.5,0 294.5,-36.5"/>
<text text-anchor="start" x="134.25" y="-23" font-family="FreeSans" font-size="10.00">DGtal::concepts::CSTLAssociative</text>
<text text-anchor="middle" x="210.38" y="-8.75" font-family="FreeSans" font-size="10.00">Container&lt; T &gt;</text>
</a>
</g>
</g>
<!-- Node2 -->
<g id="Node000002" class="node">
<title>Node2</title>
<g id="a_Node000002"><a xlink:href="structboost_1_1ForwardContainer.html" target="_top" xlink:title=" ">
<polygon fill="white" stroke="#666666" points="154.38,-94.75 0.38,-94.75 0.38,-72.5 154.38,-72.5 154.38,-94.75"/>
<text text-anchor="middle" x="77.38" y="-81.25" font-family="FreeSans" font-size="10.00">boost::ForwardContainer&lt; T &gt;</text>
</a>
</g>
</g>
<!-- Node2&#45;&gt;Node1 -->
<g id="edge1_Node000001_Node000002" class="edge">
<title>Node2&#45;&gt;Node1</title>
<g id="a_edge1_Node000001_Node000002"><a xlink:title=" ">
<path fill="none" stroke="#63b8ff" d="M109.95,-67.1C129.08,-57.99 153.32,-46.44 173.19,-36.97"/>
<polygon fill="#63b8ff" stroke="#63b8ff" points="108.52,-63.91 101,-71.37 111.54,-70.22 108.52,-63.91"/>
</a>
</g>
</g>
<!-- Node3 -->
<g id="Node000003" class="node">
<title>Node3</title>
<g id="a_Node000003"><a xlink:href="structboost_1_1ForwardContainer.html" target="_top" xlink:title="Go to http://www.sgi.com/tech/stl/ForwardContainer.html.">
<polygon fill="white" stroke="#666666" points="154.75,-167.25 0,-167.25 0,-145 154.75,-145 154.75,-167.25"/>
<text text-anchor="middle" x="77.38" y="-153.75" font-family="FreeSans" font-size="10.00">boost::ForwardContainer&lt; C &gt;</text>
</a>
</g>
</g>
<!-- Node3&#45;&gt;Node2 -->
<g id="edge2_Node000002_Node000003" class="edge">
<title>Node3&#45;&gt;Node2</title>
<g id="a_edge2_Node000002_Node000003"><a xlink:title=" ">
<path fill="none" stroke="orange" stroke-dasharray="5,2" d="M77.38,-133.22C77.38,-120.51 77.38,-105.08 77.38,-95.07"/>
<polygon fill="orange" stroke="orange" points="73.88,-133.21 77.38,-143.21 80.88,-133.21 73.88,-133.21"/>
</a>
</g>
<text text-anchor="middle" x="89.38" y="-117.5" font-family="FreeSans" font-size="10.00" fill="grey"> &lt; T &gt;</text>
</g>
<!-- Node4 -->
<g id="Node000004" class="node">
<title>Node4</title>
<g id="a_Node000004"><a xlink:href="structboost_1_1DefaultConstructible.html" target="_top" xlink:title="Go to http://www.sgi.com/tech/stl/DefaultConstructible.html.">
<polygon fill="white" stroke="#666666" points="338.38,-94.75 172.38,-94.75 172.38,-72.5 338.38,-72.5 338.38,-94.75"/>
<text text-anchor="middle" x="255.38" y="-81.25" font-family="FreeSans" font-size="10.00">boost::DefaultConstructible&lt; T &gt;</text>
</a>
</g>
</g>
<!-- Node4&#45;&gt;Node1 -->
<g id="edge3_Node000001_Node000004" class="edge">
<title>Node4&#45;&gt;Node1</title>
<g id="a_edge3_Node000001_Node000004"><a xlink:title=" ">
<path fill="none" stroke="#63b8ff" d="M241.34,-62.86C235.45,-54.56 228.65,-44.99 222.92,-36.92"/>
<polygon fill="#63b8ff" stroke="#63b8ff" points="238.42,-64.8 247.07,-70.93 244.13,-60.75 238.42,-64.8"/>
</a>
</g>
</g>
</g>
</svg>
