<?xml version="1.0" encoding="UTF-8" standalone="no"?>
<!DOCTYPE svg PUBLIC "-//W3C//DTD SVG 1.1//EN"
 "http://www.w3.org/Graphics/SVG/1.1/DTD/svg11.dtd">
<!-- Generated by graphviz version 11.0.0 (0)
 -->
<!-- Title: DGtal::concepts::CPowerMetric&lt; T &gt; Pages: 1 -->
<svg width="300pt" height="161pt"
 viewBox="0.00 0.00 300.12 161.00" xmlns="http://www.w3.org/2000/svg" xmlns:xlink="http://www.w3.org/1999/xlink">
<g id="graph0" class="graph" transform="scale(1 1) rotate(0) translate(4 157)">
<title>DGtal::concepts::CPowerMetric&lt; T &gt;</title>
<!-- Node1 -->
<g id="Node000001" class="node">
<title>Node1</title>
<g id="a_Node000001"><a xlink:title="Aim: defines the concept of special weighted metrics, so called power metrics.">
<polygon fill="#999999" stroke="#666666" points="246,-94.75 62.75,-94.75 62.75,-72.5 246,-72.5 246,-94.75"/>
<text text-anchor="middle" x="154.38" y="-81.25" font-family="FreeSans" font-size="10.00">DGtal::concepts::CPowerMetric&lt; T &gt;</text>
</a>
</g>
</g>
<!-- Node4 -->
<g id="Node000004" class="node">
<title>Node4</title>
<g id="a_Node000004"><a xlink:href="structDGtal_1_1concepts_1_1CPowerSeparableMetric.html" target="_top" xlink:title="Aim: defines the concept of separable metrics.">
<polygon fill="white" stroke="#666666" points="243,-36.5 65.75,-36.5 65.75,0 243,0 243,-36.5"/>
<text text-anchor="start" x="73.75" y="-23" font-family="FreeSans" font-size="10.00">DGtal::concepts::CPowerSeparable</text>
<text text-anchor="middle" x="154.38" y="-8.75" font-family="FreeSans" font-size="10.00">Metric&lt; T &gt;</text>
</a>
</g>
</g>
<!-- Node1&#45;&gt;Node4 -->
<g id="edge3_Node000001_Node000004" class="edge">
<title>Node1&#45;&gt;Node4</title>
<g id="a_edge3_Node000001_Node000004"><a xlink:title=" ">
<path fill="none" stroke="#63b8ff" d="M154.38,-60.92C154.38,-53.1 154.38,-44.36 154.38,-36.92"/>
<polygon fill="#63b8ff" stroke="#63b8ff" points="150.88,-60.65 154.38,-70.65 157.88,-60.65 150.88,-60.65"/>
</a>
</g>
</g>
<!-- Node2 -->
<g id="Node000002" class="node">
<title>Node2</title>
<g id="a_Node000002"><a xlink:href="structboost_1_1CopyConstructible.html" target="_top" xlink:title="Go to http://www.sgi.com/tech/stl/CopyConstructible.html.">
<polygon fill="white" stroke="#666666" points="154.75,-153 0,-153 0,-130.75 154.75,-130.75 154.75,-153"/>
<text text-anchor="middle" x="77.38" y="-139.5" font-family="FreeSans" font-size="10.00">boost::CopyConstructible&lt; T &gt;</text>
</a>
</g>
</g>
<!-- Node2&#45;&gt;Node1 -->
<g id="edge1_Node000001_Node000002" class="edge">
<title>Node2&#45;&gt;Node1</title>
<g id="a_edge1_Node000001_Node000002"><a xlink:title=" ">
<path fill="none" stroke="#63b8ff" d="M100.98,-123.63C113.71,-114.33 129,-103.16 139.96,-95.16"/>
<polygon fill="#63b8ff" stroke="#63b8ff" points="99.09,-120.68 93.08,-129.4 103.22,-126.33 99.09,-120.68"/>
</a>
</g>
</g>
<!-- Node3 -->
<g id="Node000003" class="node">
<title>Node3</title>
<g id="a_Node000003"><a xlink:href="structboost_1_1Assignable.html" target="_top" xlink:title="Go to http://www.sgi.com/tech/stl/Assignable.html.">
<polygon fill="white" stroke="#666666" points="292.12,-153 172.62,-153 172.62,-130.75 292.12,-130.75 292.12,-153"/>
<text text-anchor="middle" x="232.38" y="-139.5" font-family="FreeSans" font-size="10.00">boost::Assignable&lt; T &gt;</text>
</a>
</g>
</g>
<!-- Node3&#45;&gt;Node1 -->
<g id="edge2_Node000001_Node000003" class="edge">
<title>Node3&#45;&gt;Node1</title>
<g id="a_edge2_Node000001_Node000003"><a xlink:title=" ">
<path fill="none" stroke="#63b8ff" d="M208.47,-123.63C195.57,-114.33 180.08,-103.16 168.98,-95.16"/>
<polygon fill="#63b8ff" stroke="#63b8ff" points="206.32,-126.4 216.48,-129.41 210.41,-120.72 206.32,-126.4"/>
</a>
</g>
</g>
</g>
</svg>
