<?xml version="1.0" encoding="UTF-8" standalone="no"?>
<!DOCTYPE svg PUBLIC "-//W3C//DTD SVG 1.1//EN"
 "http://www.w3.org/Graphics/SVG/1.1/DTD/svg11.dtd">
<!-- Generated by graphviz version 11.0.0 (0)
 -->
<!-- Title: boost::DigitalSurface_graph_traversal_category Pages: 1 -->
<svg width="506pt" height="103pt"
 viewBox="0.00 0.00 506.12 102.75" xmlns="http://www.w3.org/2000/svg" xmlns:xlink="http://www.w3.org/1999/xlink">
<g id="graph0" class="graph" transform="scale(1 1) rotate(0) translate(4 98.75)">
<title>boost::DigitalSurface_graph_traversal_category</title>
<!-- Node1 -->
<g id="Node000001" class="node">
<title>Node1</title>
<g id="a_Node000001"><a xlink:title=" ">
<polygon fill="#999999" stroke="#666666" points="321.12,-36.5 182.88,-36.5 182.88,0 321.12,0 321.12,-36.5"/>
<text text-anchor="start" x="190.88" y="-23" font-family="FreeSans" font-size="10.00">boost::DigitalSurface</text>
<text text-anchor="middle" x="252" y="-8.75" font-family="FreeSans" font-size="10.00">_graph_traversal_category</text>
</a>
</g>
</g>
<!-- Node2 -->
<g id="Node000002" class="node">
<title>Node2</title>
<g id="a_Node000002"><a xlink:title=" ">
<polygon fill="white" stroke="#666666" points="112,-94.75 0,-94.75 0,-72.5 112,-72.5 112,-94.75"/>
<text text-anchor="middle" x="56" y="-81.25" font-family="FreeSans" font-size="10.00">adjacency_graph_tag</text>
</a>
</g>
</g>
<!-- Node2&#45;&gt;Node1 -->
<g id="edge1_Node000001_Node000002" class="edge">
<title>Node2&#45;&gt;Node1</title>
<g id="a_edge1_Node000001_Node000002"><a xlink:title=" ">
<path fill="none" stroke="#63b8ff" d="M99.75,-68.48C128.52,-59.18 166.41,-46.92 197.2,-36.97"/>
<polygon fill="#63b8ff" stroke="#63b8ff" points="98.68,-65.14 90.25,-71.55 100.84,-71.81 98.68,-65.14"/>
</a>
</g>
</g>
<!-- Node3 -->
<g id="Node000003" class="node">
<title>Node3</title>
<g id="a_Node000003"><a xlink:title=" ">
<polygon fill="white" stroke="#666666" points="244.12,-94.75 129.88,-94.75 129.88,-72.5 244.12,-72.5 244.12,-94.75"/>
<text text-anchor="middle" x="187" y="-81.25" font-family="FreeSans" font-size="10.00">vertex_list_graph_tag</text>
</a>
</g>
</g>
<!-- Node3&#45;&gt;Node1 -->
<g id="edge2_Node000001_Node000003" class="edge">
<title>Node3&#45;&gt;Node1</title>
<g id="a_edge2_Node000001_Node000003"><a xlink:title=" ">
<path fill="none" stroke="#63b8ff" d="M205.88,-64.21C214.7,-55.62 225.15,-45.43 233.87,-36.92"/>
<polygon fill="#63b8ff" stroke="#63b8ff" points="203.53,-61.62 198.82,-71.1 208.42,-66.63 203.53,-61.62"/>
</a>
</g>
</g>
<!-- Node4 -->
<g id="Node000004" class="node">
<title>Node4</title>
<g id="a_Node000004"><a xlink:title=" ">
<polygon fill="white" stroke="#666666" points="372.25,-94.75 261.75,-94.75 261.75,-72.5 372.25,-72.5 372.25,-94.75"/>
<text text-anchor="middle" x="317" y="-81.25" font-family="FreeSans" font-size="10.00">incidence_graph_tag</text>
</a>
</g>
</g>
<!-- Node4&#45;&gt;Node1 -->
<g id="edge3_Node000001_Node000004" class="edge">
<title>Node4&#45;&gt;Node1</title>
<g id="a_edge3_Node000001_Node000004"><a xlink:title=" ">
<path fill="none" stroke="#63b8ff" d="M298.12,-64.21C289.3,-55.62 278.85,-45.43 270.13,-36.92"/>
<polygon fill="#63b8ff" stroke="#63b8ff" points="295.58,-66.63 305.18,-71.1 300.47,-61.62 295.58,-66.63"/>
</a>
</g>
</g>
<!-- Node5 -->
<g id="Node000005" class="node">
<title>Node5</title>
<g id="a_Node000005"><a xlink:title=" ">
<polygon fill="white" stroke="#666666" points="498.12,-94.75 389.88,-94.75 389.88,-72.5 498.12,-72.5 498.12,-94.75"/>
<text text-anchor="middle" x="444" y="-81.25" font-family="FreeSans" font-size="10.00">edge_list_graph_tag</text>
</a>
</g>
</g>
<!-- Node5&#45;&gt;Node1 -->
<g id="edge4_Node000001_Node000005" class="edge">
<title>Node5&#45;&gt;Node1</title>
<g id="a_edge4_Node000001_Node000005"><a xlink:title=" ">
<path fill="none" stroke="#63b8ff" d="M401.15,-68.48C372.96,-59.18 335.84,-46.92 305.69,-36.97"/>
<polygon fill="#63b8ff" stroke="#63b8ff" points="399.83,-71.73 410.43,-71.54 402.03,-65.08 399.83,-71.73"/>
</a>
</g>
</g>
</g>
</svg>
