<?xml version="1.0" encoding="UTF-8" standalone="no"?>
<!DOCTYPE svg PUBLIC "-//W3C//DTD SVG 1.1//EN"
 "http://www.w3.org/Graphics/SVG/1.1/DTD/svg11.dtd">
<!-- Generated by graphviz version 11.0.0 (0)
 -->
<!-- Title: DGtal::concepts::CVector&lt; T &gt; Pages: 1 -->
<svg width="706pt" height="139pt"
 viewBox="0.00 0.00 705.75 139.38" xmlns="http://www.w3.org/2000/svg" xmlns:xlink="http://www.w3.org/1999/xlink">
<g id="graph0" class="graph" transform="scale(1 1) rotate(0) translate(4 135.38)">
<title>DGtal::concepts::CVector&lt; T &gt;</title>
<!-- Node1 -->
<g id="Node000001" class="node">
<title>Node1</title>
<g id="a_Node000001"><a xlink:title="Aim: Represent any static or dynamic sized column vector having sparse or dense representation.">
<polygon fill="#999999" stroke="#666666" points="477.75,-84.38 323.75,-84.38 323.75,-62.12 477.75,-62.12 477.75,-84.38"/>
<text text-anchor="middle" x="400.75" y="-70.88" font-family="FreeSans" font-size="10.00">DGtal::concepts::CVector&lt; T &gt;</text>
</a>
</g>
</g>
<!-- Node4 -->
<g id="Node000004" class="node">
<title>Node4</title>
<g id="a_Node000004"><a xlink:href="structDGtal_1_1concepts_1_1CDenseVector.html" target="_top" xlink:title="Aim: Represent any dynamic or static sized matrix having dense representation.">
<polygon fill="white" stroke="#666666" points="697.75,-131.38 513.75,-131.38 513.75,-109.12 697.75,-109.12 697.75,-131.38"/>
<text text-anchor="middle" x="605.75" y="-117.88" font-family="FreeSans" font-size="10.00">DGtal::concepts::CDenseVector&lt; T &gt;</text>
</a>
</g>
</g>
<!-- Node1&#45;&gt;Node4 -->
<g id="edge3_Node000001_Node000004" class="edge">
<title>Node1&#45;&gt;Node4</title>
<g id="a_edge3_Node000001_Node000004"><a xlink:title=" ">
<path fill="none" stroke="#63b8ff" d="M459.93,-87.51C477.23,-91.69 496.24,-96.22 513.75,-100.25 525.89,-103.05 538.96,-105.97 551.3,-108.69"/>
<polygon fill="#63b8ff" stroke="#63b8ff" points="460.85,-84.13 450.31,-85.18 459.2,-90.94 460.85,-84.13"/>
</a>
</g>
</g>
<!-- Node5 -->
<g id="Node000005" class="node">
<title>Node5</title>
<g id="a_Node000005"><a xlink:href="structDGtal_1_1concepts_1_1CDynamicVector.html" target="_top" xlink:title="Aim: Represent any dynamic sized column vector having sparse or dense representation.">
<polygon fill="white" stroke="#666666" points="676.38,-91.5 535.12,-91.5 535.12,-55 676.38,-55 676.38,-91.5"/>
<text text-anchor="start" x="543.12" y="-78" font-family="FreeSans" font-size="10.00">DGtal::concepts::CDynamic</text>
<text text-anchor="middle" x="605.75" y="-63.75" font-family="FreeSans" font-size="10.00">Vector&lt; T &gt;</text>
</a>
</g>
</g>
<!-- Node1&#45;&gt;Node5 -->
<g id="edge4_Node000001_Node000005" class="edge">
<title>Node1&#45;&gt;Node5</title>
<g id="a_edge4_Node000001_Node000005"><a xlink:title=" ">
<path fill="none" stroke="#63b8ff" d="M489.63,-73.25C504.71,-73.25 520.19,-73.25 534.72,-73.25"/>
<polygon fill="#63b8ff" stroke="#63b8ff" points="489.72,-69.75 479.72,-73.25 489.72,-76.75 489.72,-69.75"/>
</a>
</g>
</g>
<!-- Node6 -->
<g id="Node000006" class="node">
<title>Node6</title>
<g id="a_Node000006"><a xlink:href="structDGtal_1_1concepts_1_1CStaticVector.html" target="_top" xlink:title="Aim: Represent any static sized column vector having sparse or dense representation.">
<polygon fill="white" stroke="#666666" points="668.88,-36.5 542.62,-36.5 542.62,0 668.88,0 668.88,-36.5"/>
<text text-anchor="start" x="550.62" y="-23" font-family="FreeSans" font-size="10.00">DGtal::concepts::CStatic</text>
<text text-anchor="middle" x="605.75" y="-8.75" font-family="FreeSans" font-size="10.00">Vector&lt; T &gt;</text>
</a>
</g>
</g>
<!-- Node1&#45;&gt;Node6 -->
<g id="edge5_Node000001_Node000006" class="edge">
<title>Node1&#45;&gt;Node6</title>
<g id="a_edge5_Node000001_Node000006"><a xlink:title=" ">
<path fill="none" stroke="#63b8ff" d="M455.35,-58.73C482.02,-51.5 514.41,-42.73 542.21,-35.19"/>
<polygon fill="#63b8ff" stroke="#63b8ff" points="454.5,-55.33 445.77,-61.32 456.33,-62.09 454.5,-55.33"/>
</a>
</g>
</g>
<!-- Node2 -->
<g id="Node000002" class="node">
<title>Node2</title>
<g id="a_Node000002"><a xlink:href="structDGtal_1_1concepts_1_1CVectorSpace.html" target="_top" xlink:title="Aim: Base concept for vector space structure.">
<polygon fill="white" stroke="#666666" points="287.75,-91.5 155.5,-91.5 155.5,-55 287.75,-55 287.75,-91.5"/>
<text text-anchor="start" x="163.5" y="-78" font-family="FreeSans" font-size="10.00">DGtal::concepts::CVector</text>
<text text-anchor="middle" x="221.62" y="-63.75" font-family="FreeSans" font-size="10.00">Space&lt; T &gt;</text>
</a>
</g>
</g>
<!-- Node2&#45;&gt;Node1 -->
<g id="edge1_Node000001_Node000002" class="edge">
<title>Node2&#45;&gt;Node1</title>
<g id="a_edge1_Node000001_Node000002"><a xlink:title=" ">
<path fill="none" stroke="#63b8ff" d="M299.58,-73.25C307.51,-73.25 315.57,-73.25 323.49,-73.25"/>
<polygon fill="#63b8ff" stroke="#63b8ff" points="299.59,-69.75 289.59,-73.25 299.59,-76.75 299.59,-69.75"/>
</a>
</g>
</g>
<!-- Node3 -->
<g id="Node000003" class="node">
<title>Node3</title>
<g id="a_Node000003"><a xlink:href="structboost_1_1Assignable.html" target="_top" xlink:title="Go to http://www.sgi.com/tech/stl/Assignable.html.">
<polygon fill="white" stroke="#666666" points="119.5,-84.38 0,-84.38 0,-62.12 119.5,-62.12 119.5,-84.38"/>
<text text-anchor="middle" x="59.75" y="-70.88" font-family="FreeSans" font-size="10.00">boost::Assignable&lt; T &gt;</text>
</a>
</g>
</g>
<!-- Node3&#45;&gt;Node2 -->
<g id="edge2_Node000002_Node000003" class="edge">
<title>Node3&#45;&gt;Node2</title>
<g id="a_edge2_Node000002_Node000003"><a xlink:title=" ">
<path fill="none" stroke="#63b8ff" d="M131.29,-73.25C139.19,-73.25 147.22,-73.25 155.06,-73.25"/>
<polygon fill="#63b8ff" stroke="#63b8ff" points="131.34,-69.75 121.34,-73.25 131.34,-76.75 131.34,-69.75"/>
</a>
</g>
</g>
</g>
</svg>
