<?xml version="1.0" encoding="UTF-8" standalone="no"?>
<!DOCTYPE svg PUBLIC "-//W3C//DTD SVG 1.1//EN"
 "http://www.w3.org/Graphics/SVG/1.1/DTD/svg11.dtd">
<!-- Generated by graphviz version 11.0.0 (0)
 -->
<!-- Title: DGtal::functors::Projector&lt; S &gt; Pages: 1 -->
<svg width="495pt" height="100pt"
 viewBox="0.00 0.00 494.50 99.50" xmlns="http://www.w3.org/2000/svg" xmlns:xlink="http://www.w3.org/1999/xlink">
<g id="graph0" class="graph" transform="scale(1 1) rotate(0) translate(4 95.5)">
<title>DGtal::functors::Projector&lt; S &gt;</title>
<!-- Node1 -->
<g id="Node000001" class="node">
<title>Node1</title>
<g id="a_Node000001"><a xlink:title="Aim: Functor that maps a point P of dimension i to a point Q of dimension j. The member myDims is an ...">
<polygon fill="#999999" stroke="#666666" points="157.75,-56.38 0,-56.38 0,-34.12 157.75,-34.12 157.75,-56.38"/>
<text text-anchor="middle" x="78.88" y="-42.88" font-family="FreeSans" font-size="10.00">DGtal::functors::Projector&lt; S &gt;</text>
</a>
</g>
</g>
<!-- Node2 -->
<g id="Node000002" class="node">
<title>Node2</title>
<g id="a_Node000002"><a xlink:href="structDGtal_1_1functors_1_1Projector.html" target="_top" xlink:title=" ">
<polygon fill="white" stroke="#666666" points="477.88,-91.5 341.88,-91.5 341.88,-55 477.88,-55 477.88,-91.5"/>
<text text-anchor="start" x="349.88" y="-78" font-family="FreeSans" font-size="10.00">DGtal::functors::Projector</text>
<text text-anchor="middle" x="409.88" y="-63.75" font-family="FreeSans" font-size="10.00">&lt; SpaceND&lt; 2, int &gt; &gt;</text>
</a>
</g>
</g>
<!-- Node1&#45;&gt;Node2 -->
<g id="edge1_Node000001_Node000002" class="edge">
<title>Node1&#45;&gt;Node2</title>
<g id="a_edge1_Node000001_Node000002"><a xlink:title=" ">
<path fill="none" stroke="orange" stroke-dasharray="5,2" d="M169.21,-52.85C223.51,-57.47 291.73,-63.28 341.48,-67.51"/>
<polygon fill="orange" stroke="orange" points="169.61,-49.37 159.35,-52.01 169.02,-56.35 169.61,-49.37"/>
</a>
</g>
<text text-anchor="middle" x="245.5" y="-69" font-family="FreeSans" font-size="10.00" fill="grey"> &lt; SpaceND&lt; 2, int &gt; &gt;</text>
</g>
<!-- Node3 -->
<g id="Node000003" class="node">
<title>Node3</title>
<g id="a_Node000003"><a xlink:href="structDGtal_1_1functors_1_1Projector.html" target="_top" xlink:title=" ">
<polygon fill="white" stroke="#666666" points="486.5,-36.5 333.25,-36.5 333.25,0 486.5,0 486.5,-36.5"/>
<text text-anchor="start" x="341.25" y="-23" font-family="FreeSans" font-size="10.00">DGtal::functors::Projector</text>
<text text-anchor="middle" x="409.88" y="-8.75" font-family="FreeSans" font-size="10.00">&lt; SpaceND&lt; 2, Coordinate &gt; &gt;</text>
</a>
</g>
</g>
<!-- Node1&#45;&gt;Node3 -->
<g id="edge2_Node000001_Node000003" class="edge">
<title>Node1&#45;&gt;Node3</title>
<g id="a_edge2_Node000001_Node000003"><a xlink:title=" ">
<path fill="none" stroke="orange" stroke-dasharray="5,2" d="M169.49,-37.52C171.6,-37.35 173.69,-37.17 175.75,-37 228.25,-32.63 287.42,-27.87 333.01,-24.24"/>
<polygon fill="orange" stroke="orange" points="169.27,-34.03 159.6,-38.36 169.86,-41 169.27,-34.03"/>
</a>
</g>
<text text-anchor="middle" x="245.5" y="-41" font-family="FreeSans" font-size="10.00" fill="grey"> &lt; SpaceND&lt; 2, Coordinate &gt; &gt;</text>
</g>
</g>
</svg>
