<?xml version="1.0" encoding="UTF-8" standalone="no"?>
<!DOCTYPE svg PUBLIC "-//W3C//DTD SVG 1.1//EN"
 "http://www.w3.org/Graphics/SVG/1.1/DTD/svg11.dtd">
<!-- Generated by graphviz version 11.0.0 (0)
 -->
<!-- Title: DGtal::AssociativeCategory Pages: 1 -->
<svg width="725pt" height="399pt"
 viewBox="0.00 0.00 725.25 398.50" xmlns="http://www.w3.org/2000/svg" xmlns:xlink="http://www.w3.org/1999/xlink">
<g id="graph0" class="graph" transform="scale(1 1) rotate(0) translate(4 394.5)">
<title>DGtal::AssociativeCategory</title>
<!-- Node1 -->
<g id="Node000001" class="node">
<title>Node1</title>
<g id="a_Node000001"><a xlink:title=" ">
<polygon fill="#999999" stroke="#666666" points="314.75,-209.38 172.75,-209.38 172.75,-187.12 314.75,-187.12 314.75,-209.38"/>
<text text-anchor="middle" x="243.75" y="-195.88" font-family="FreeSans" font-size="10.00">DGtal::AssociativeCategory</text>
</a>
</g>
</g>
<!-- Node3 -->
<g id="Node000003" class="node">
<title>Node3</title>
<g id="a_Node000003"><a xlink:href="structDGtal_1_1MultipleAssociativeCategory.html" target="_top" xlink:title=" ">
<polygon fill="white" stroke="#666666" points="499.12,-342.5 362.38,-342.5 362.38,-306 499.12,-306 499.12,-342.5"/>
<text text-anchor="start" x="370.38" y="-329" font-family="FreeSans" font-size="10.00">DGtal::MultipleAssociative</text>
<text text-anchor="middle" x="430.75" y="-314.75" font-family="FreeSans" font-size="10.00">Category</text>
</a>
</g>
</g>
<!-- Node1&#45;&gt;Node3 -->
<g id="edge2_Node000001_Node000003" class="edge">
<title>Node1&#45;&gt;Node3</title>
<g id="a_edge2_Node000001_Node000003"><a xlink:title=" ">
<path fill="none" stroke="#63b8ff" d="M261.86,-218.34C281.4,-240.18 315.27,-274.82 350.75,-296.25 356.48,-299.71 362.7,-302.83 369.05,-305.62"/>
<polygon fill="#63b8ff" stroke="#63b8ff" points="264.62,-216.19 255.4,-210.98 259.36,-220.8 264.62,-216.19"/>
</a>
</g>
</g>
<!-- Node8 -->
<g id="Node000008" class="node">
<title>Node8</title>
<g id="a_Node000008"><a xlink:href="structDGtal_1_1OrderedAssociativeCategory.html" target="_top" xlink:title=" ">
<polygon fill="white" stroke="#666666" points="499.88,-287.5 361.62,-287.5 361.62,-251 499.88,-251 499.88,-287.5"/>
<text text-anchor="start" x="369.62" y="-274" font-family="FreeSans" font-size="10.00">DGtal::OrderedAssociative</text>
<text text-anchor="middle" x="430.75" y="-259.75" font-family="FreeSans" font-size="10.00">Category</text>
</a>
</g>
</g>
<!-- Node1&#45;&gt;Node8 -->
<g id="edge7_Node000001_Node000008" class="edge">
<title>Node1&#45;&gt;Node8</title>
<g id="a_edge7_Node000001_Node000008"><a xlink:title=" ">
<path fill="none" stroke="#63b8ff" d="M281.5,-214.19C301.8,-222.81 327.53,-233.47 350.75,-242.25 358.07,-245.02 365.82,-247.82 373.49,-250.52"/>
<polygon fill="#63b8ff" stroke="#63b8ff" points="283.1,-211.06 272.53,-210.35 280.35,-217.5 283.1,-211.06"/>
</a>
</g>
</g>
<!-- Node11 -->
<g id="Node000011" class="node">
<title>Node11</title>
<g id="a_Node000011"><a xlink:href="structDGtal_1_1PairAssociativeCategory.html" target="_top" xlink:title=" ">
<polygon fill="white" stroke="#666666" points="510.75,-233.38 350.75,-233.38 350.75,-211.12 510.75,-211.12 510.75,-233.38"/>
<text text-anchor="middle" x="430.75" y="-219.88" font-family="FreeSans" font-size="10.00">DGtal::PairAssociativeCategory</text>
</a>
</g>
</g>
<!-- Node1&#45;&gt;Node11 -->
<g id="edge12_Node000001_Node000011" class="edge">
<title>Node1&#45;&gt;Node11</title>
<g id="a_edge12_Node000001_Node000011"><a xlink:title=" ">
<path fill="none" stroke="#63b8ff" d="M326.43,-208.85C334.43,-209.88 342.54,-210.94 350.51,-211.97"/>
<polygon fill="#63b8ff" stroke="#63b8ff" points="327.09,-205.4 316.72,-207.59 326.19,-212.34 327.09,-205.4"/>
</a>
</g>
</g>
<!-- Node13 -->
<g id="Node000013" class="node">
<title>Node13</title>
<g id="a_Node000013"><a xlink:href="structDGtal_1_1SimpleAssociativeCategory.html" target="_top" xlink:title=" ">
<polygon fill="white" stroke="#666666" points="495.75,-193.5 365.75,-193.5 365.75,-157 495.75,-157 495.75,-193.5"/>
<text text-anchor="start" x="373.75" y="-180" font-family="FreeSans" font-size="10.00">DGtal::SimpleAssociative</text>
<text text-anchor="middle" x="430.75" y="-165.75" font-family="FreeSans" font-size="10.00">Category</text>
</a>
</g>
</g>
<!-- Node1&#45;&gt;Node13 -->
<g id="edge17_Node000001_Node000013" class="edge">
<title>Node1&#45;&gt;Node13</title>
<g id="a_edge17_Node000001_Node000013"><a xlink:title=" ">
<path fill="none" stroke="#63b8ff" d="M326.59,-188.08C339.64,-186.45 352.98,-184.79 365.55,-183.23"/>
<polygon fill="#63b8ff" stroke="#63b8ff" points="326.21,-184.6 316.72,-189.3 327.08,-191.54 326.21,-184.6"/>
</a>
</g>
</g>
<!-- Node15 -->
<g id="Node000015" class="node">
<title>Node15</title>
<g id="a_Node000015"><a xlink:href="structDGtal_1_1UniqueAssociativeCategory.html" target="_top" xlink:title=" ">
<polygon fill="white" stroke="#666666" points="497.25,-83.5 364.25,-83.5 364.25,-47 497.25,-47 497.25,-83.5"/>
<text text-anchor="start" x="372.25" y="-70" font-family="FreeSans" font-size="10.00">DGtal::UniqueAssociative</text>
<text text-anchor="middle" x="430.75" y="-55.75" font-family="FreeSans" font-size="10.00">Category</text>
</a>
</g>
</g>
<!-- Node1&#45;&gt;Node15 -->
<g id="edge22_Node000001_Node000015" class="edge">
<title>Node1&#45;&gt;Node15</title>
<g id="a_edge22_Node000001_Node000015"><a xlink:title=" ">
<path fill="none" stroke="#63b8ff" d="M260.4,-178.07C279.46,-154.72 313.73,-116.49 350.75,-93.25 356.3,-89.77 362.33,-86.65 368.52,-83.86"/>
<polygon fill="#63b8ff" stroke="#63b8ff" points="257.87,-175.62 254.36,-185.62 263.34,-180 257.87,-175.62"/>
</a>
</g>
</g>
<!-- Node16 -->
<g id="Node000016" class="node">
<title>Node16</title>
<g id="a_Node000016"><a xlink:href="structDGtal_1_1UnorderedAssociativeCategory.html" target="_top" xlink:title=" ">
<polygon fill="white" stroke="#666666" points="505.88,-138.5 355.62,-138.5 355.62,-102 505.88,-102 505.88,-138.5"/>
<text text-anchor="start" x="363.62" y="-125" font-family="FreeSans" font-size="10.00">DGtal::UnorderedAssociative</text>
<text text-anchor="middle" x="430.75" y="-110.75" font-family="FreeSans" font-size="10.00">Category</text>
</a>
</g>
</g>
<!-- Node1&#45;&gt;Node16 -->
<g id="edge27_Node000001_Node000016" class="edge">
<title>Node1&#45;&gt;Node16</title>
<g id="a_edge27_Node000001_Node000016"><a xlink:title=" ">
<path fill="none" stroke="#63b8ff" d="M277.79,-181.62C298.51,-171.45 325.92,-158.48 350.75,-148.25 358.42,-145.09 366.59,-141.95 374.66,-138.98"/>
<polygon fill="#63b8ff" stroke="#63b8ff" points="276.38,-178.41 268.97,-185.98 279.48,-184.69 276.38,-178.41"/>
</a>
</g>
</g>
<!-- Node2 -->
<g id="Node000002" class="node">
<title>Node2</title>
<g id="a_Node000002"><a xlink:href="structDGtal_1_1ContainerCategory.html" target="_top" xlink:title=" ">
<polygon fill="white" stroke="#666666" points="136.75,-209.38 0,-209.38 0,-187.12 136.75,-187.12 136.75,-209.38"/>
<text text-anchor="middle" x="68.38" y="-195.88" font-family="FreeSans" font-size="10.00">DGtal::ContainerCategory</text>
</a>
</g>
</g>
<!-- Node2&#45;&gt;Node1 -->
<g id="edge1_Node000001_Node000002" class="edge">
<title>Node2&#45;&gt;Node1</title>
<g id="a_edge1_Node000001_Node000002"><a xlink:title=" ">
<path fill="none" stroke="#63b8ff" d="M148.17,-198.25C156.2,-198.25 164.32,-198.25 172.26,-198.25"/>
<polygon fill="#63b8ff" stroke="#63b8ff" points="148.42,-194.75 138.42,-198.25 148.42,-201.75 148.42,-194.75"/>
</a>
</g>
</g>
<!-- Node4 -->
<g id="Node000004" class="node">
<title>Node4</title>
<g id="a_Node000004"><a xlink:href="structDGtal_1_1MultimapAssociativeCategory.html" target="_top" xlink:title=" ">
<polygon fill="white" stroke="#666666" points="703.38,-390.5 560.62,-390.5 560.62,-354 703.38,-354 703.38,-390.5"/>
<text text-anchor="start" x="568.62" y="-377" font-family="FreeSans" font-size="10.00">DGtal::MultimapAssociative</text>
<text text-anchor="middle" x="632" y="-362.75" font-family="FreeSans" font-size="10.00">Category</text>
</a>
</g>
</g>
<!-- Node3&#45;&gt;Node4 -->
<g id="edge3_Node000003_Node000004" class="edge">
<title>Node3&#45;&gt;Node4</title>
<g id="a_edge3_Node000003_Node000004"><a xlink:title=" ">
<path fill="none" stroke="#63b8ff" d="M510.23,-343.15C526.78,-347.14 544.15,-351.33 560.39,-355.24"/>
<polygon fill="#63b8ff" stroke="#63b8ff" points="511.5,-339.86 500.96,-340.92 509.86,-346.67 511.5,-339.86"/>
</a>
</g>
</g>
<!-- Node5 -->
<g id="Node000005" class="node">
<title>Node5</title>
<g id="a_Node000005"><a xlink:href="structDGtal_1_1MultisetAssociativeCategory.html" target="_top" xlink:title=" ">
<polygon fill="white" stroke="#666666" points="700.38,-335.5 563.62,-335.5 563.62,-299 700.38,-299 700.38,-335.5"/>
<text text-anchor="start" x="571.62" y="-322" font-family="FreeSans" font-size="10.00">DGtal::MultisetAssociative</text>
<text text-anchor="middle" x="632" y="-307.75" font-family="FreeSans" font-size="10.00">Category</text>
</a>
</g>
</g>
<!-- Node3&#45;&gt;Node5 -->
<g id="edge4_Node000003_Node000005" class="edge">
<title>Node3&#45;&gt;Node5</title>
<g id="a_edge4_Node000003_Node000005"><a xlink:title=" ">
<path fill="none" stroke="#63b8ff" d="M510.79,-321.47C528.22,-320.86 546.53,-320.22 563.45,-319.62"/>
<polygon fill="#63b8ff" stroke="#63b8ff" points="510.87,-317.97 501,-321.82 511.11,-324.96 510.87,-317.97"/>
</a>
</g>
</g>
<!-- Node6 -->
<g id="Node000006" class="node">
<title>Node6</title>
<g id="a_Node000006"><a xlink:href="structDGtal_1_1UnorderedMultimapAssociativeCategory.html" target="_top" xlink:title=" ">
<polygon fill="white" stroke="#666666" points="703.38,-280.5 560.62,-280.5 560.62,-244 703.38,-244 703.38,-280.5"/>
<text text-anchor="start" x="568.62" y="-267" font-family="FreeSans" font-size="10.00">DGtal::UnorderedMultimap</text>
<text text-anchor="middle" x="632" y="-252.75" font-family="FreeSans" font-size="10.00">AssociativeCategory</text>
</a>
</g>
</g>
<!-- Node3&#45;&gt;Node6 -->
<g id="edge5_Node000003_Node000006" class="edge">
<title>Node3&#45;&gt;Node6</title>
<g id="a_edge5_Node000003_Node000006"><a xlink:title=" ">
<path fill="none" stroke="#63b8ff" d="M502.6,-302.2C525,-295.23 549.52,-287.6 571.07,-280.9"/>
<polygon fill="#63b8ff" stroke="#63b8ff" points="501.76,-298.8 493.25,-305.11 503.84,-305.48 501.76,-298.8"/>
</a>
</g>
</g>
<!-- Node7 -->
<g id="Node000007" class="node">
<title>Node7</title>
<g id="a_Node000007"><a xlink:href="structDGtal_1_1UnorderedMultisetAssociativeCategory.html" target="_top" xlink:title=" ">
<polygon fill="white" stroke="#666666" points="700.38,-225.5 563.62,-225.5 563.62,-189 700.38,-189 700.38,-225.5"/>
<text text-anchor="start" x="571.62" y="-212" font-family="FreeSans" font-size="10.00">DGtal::UnorderedMultiset</text>
<text text-anchor="middle" x="632" y="-197.75" font-family="FreeSans" font-size="10.00">AssociativeCategory</text>
</a>
</g>
</g>
<!-- Node3&#45;&gt;Node7 -->
<g id="edge6_Node000003_Node000007" class="edge">
<title>Node3&#45;&gt;Node7</title>
<g id="a_edge6_Node000003_Node000007"><a xlink:title=" ">
<path fill="none" stroke="#63b8ff" d="M506.19,-299.73C507.76,-298.62 509.28,-297.46 510.75,-296.25 535.05,-276.23 522.26,-255.03 546.75,-235.25 551.79,-231.18 557.44,-227.7 563.37,-224.71"/>
<polygon fill="#63b8ff" stroke="#63b8ff" points="504.71,-296.53 498.05,-304.77 508.39,-302.48 504.71,-296.53"/>
</a>
</g>
</g>
<!-- Node8&#45;&gt;Node4 -->
<g id="edge9_Node000008_Node000004" class="edge">
<title>Node8&#45;&gt;Node4</title>
<g id="a_edge9_Node000008_Node000004"><a xlink:title=" ">
<path fill="none" stroke="#63b8ff" d="M505.13,-293.47C507.06,-294.67 508.94,-295.93 510.75,-297.25 532.03,-312.73 525.32,-328.98 546.75,-344.25 551.65,-347.74 557.01,-350.81 562.57,-353.52"/>
<polygon fill="#63b8ff" stroke="#63b8ff" points="506.87,-290.43 496.43,-288.63 503.47,-296.55 506.87,-290.43"/>
</a>
</g>
</g>
<!-- Node8&#45;&gt;Node5 -->
<g id="edge10_Node000008_Node000005" class="edge">
<title>Node8&#45;&gt;Node5</title>
<g id="a_edge10_Node000008_Node000005"><a xlink:title=" ">
<path fill="none" stroke="#63b8ff" d="M511.47,-288.45C528.65,-292.59 546.65,-296.93 563.31,-300.94"/>
<polygon fill="#63b8ff" stroke="#63b8ff" points="512.33,-285.06 501.79,-286.12 510.69,-291.87 512.33,-285.06"/>
</a>
</g>
</g>
<!-- Node9 -->
<g id="Node000009" class="node">
<title>Node9</title>
<g id="a_Node000009"><a xlink:href="structDGtal_1_1MapAssociativeCategory.html" target="_top" xlink:title=" ">
<polygon fill="white" stroke="#666666" points="713.12,-171.38 550.88,-171.38 550.88,-149.12 713.12,-149.12 713.12,-171.38"/>
<text text-anchor="middle" x="632" y="-157.88" font-family="FreeSans" font-size="10.00">DGtal::MapAssociativeCategory</text>
</a>
</g>
</g>
<!-- Node8&#45;&gt;Node9 -->
<g id="edge8_Node000008_Node000009" class="edge">
<title>Node8&#45;&gt;Node9</title>
<g id="a_edge8_Node000008_Node000009"><a xlink:title=" ">
<path fill="none" stroke="#63b8ff" d="M507.82,-244.53C508.82,-243.79 509.8,-243.03 510.75,-242.25 535.39,-222.04 521.17,-199.25 546.75,-180.25 551.22,-176.93 556.15,-174.16 561.32,-171.84"/>
<polygon fill="#63b8ff" stroke="#63b8ff" points="506.15,-241.44 499.62,-249.79 509.93,-247.34 506.15,-241.44"/>
</a>
</g>
</g>
<!-- Node10 -->
<g id="Node000010" class="node">
<title>Node10</title>
<g id="a_Node000010"><a xlink:href="structDGtal_1_1SetAssociativeCategory.html" target="_top" xlink:title=" ">
<polygon fill="white" stroke="#666666" points="710.5,-131.38 553.5,-131.38 553.5,-109.12 710.5,-109.12 710.5,-131.38"/>
<text text-anchor="middle" x="632" y="-117.88" font-family="FreeSans" font-size="10.00">DGtal::SetAssociativeCategory</text>
</a>
</g>
</g>
<!-- Node8&#45;&gt;Node10 -->
<g id="edge11_Node000008_Node000010" class="edge">
<title>Node8&#45;&gt;Node10</title>
<g id="a_edge11_Node000008_Node000010"><a xlink:title=" ">
<path fill="none" stroke="#63b8ff" d="M509.23,-243.7C509.74,-243.23 510.25,-242.74 510.75,-242.25 544.91,-208.43 511,-172.39 546.75,-140.25 550.44,-136.93 554.58,-134.14 558.99,-131.79"/>
<polygon fill="#63b8ff" stroke="#63b8ff" points="507.16,-240.88 501.36,-249.75 511.42,-246.43 507.16,-240.88"/>
</a>
</g>
</g>
<!-- Node11&#45;&gt;Node4 -->
<g id="edge14_Node000011_Node000004" class="edge">
<title>Node11&#45;&gt;Node4</title>
<g id="a_edge14_Node000011_Node000004"><a xlink:title=" ">
<path fill="none" stroke="#63b8ff" d="M507.92,-239.85C508.89,-240.61 509.84,-241.42 510.75,-242.25 546.26,-274.66 512.44,-310.57 546.75,-344.25 550.82,-348.25 555.47,-351.67 560.46,-354.61"/>
<polygon fill="#63b8ff" stroke="#63b8ff" points="510.11,-237.1 499.82,-234.59 506.3,-242.97 510.11,-237.1"/>
</a>
</g>
</g>
<!-- Node11&#45;&gt;Node6 -->
<g id="edge16_Node000011_Node000006" class="edge">
<title>Node11&#45;&gt;Node6</title>
<g id="a_edge16_Node000011_Node000006"><a xlink:title=" ">
<path fill="none" stroke="#63b8ff" d="M500.75,-236.1C519.98,-239.96 540.9,-244.16 560.23,-248.04"/>
<polygon fill="#63b8ff" stroke="#63b8ff" points="501.63,-232.71 491.13,-234.17 500.25,-239.57 501.63,-232.71"/>
</a>
</g>
</g>
<!-- Node11&#45;&gt;Node9 -->
<g id="edge13_Node000011_Node000009" class="edge">
<title>Node11&#45;&gt;Node9</title>
<g id="a_edge13_Node000011_Node000009"><a xlink:title=" ">
<path fill="none" stroke="#63b8ff" d="M497.28,-207.31C501.89,-205.76 506.42,-204.07 510.75,-202.25 528.03,-194.98 529.41,-187.39 546.75,-180.25 554.67,-176.99 563.24,-174.18 571.78,-171.8"/>
<polygon fill="#63b8ff" stroke="#63b8ff" points="496.37,-203.92 487.87,-210.25 498.46,-210.61 496.37,-203.92"/>
</a>
</g>
</g>
<!-- Node12 -->
<g id="Node000012" class="node">
<title>Node12</title>
<g id="a_Node000012"><a xlink:href="structDGtal_1_1UnorderedMapAssociativeCategory.html" target="_top" xlink:title=" ">
<polygon fill="white" stroke="#666666" points="717.25,-91.5 546.75,-91.5 546.75,-55 717.25,-55 717.25,-91.5"/>
<text text-anchor="start" x="554.75" y="-78" font-family="FreeSans" font-size="10.00">DGtal::UnorderedMapAssociative</text>
<text text-anchor="middle" x="632" y="-63.75" font-family="FreeSans" font-size="10.00">Category</text>
</a>
</g>
</g>
<!-- Node11&#45;&gt;Node12 -->
<g id="edge15_Node000011_Node000012" class="edge">
<title>Node11&#45;&gt;Node12</title>
<g id="a_edge15_Node000011_Node000012"><a xlink:title=" ">
<path fill="none" stroke="#63b8ff" d="M507.92,-204.65C508.89,-203.89 509.84,-203.08 510.75,-202.25 546.26,-169.84 512.26,-133.74 546.75,-100.25 549.95,-97.15 553.5,-94.4 557.29,-91.97"/>
<polygon fill="#63b8ff" stroke="#63b8ff" points="506.3,-201.53 499.82,-209.91 510.11,-207.4 506.3,-201.53"/>
</a>
</g>
</g>
<!-- Node13&#45;&gt;Node5 -->
<g id="edge18_Node000013_Node000005" class="edge">
<title>Node13&#45;&gt;Node5</title>
<g id="a_edge18_Node000013_Node000005"><a xlink:title=" ">
<path fill="none" stroke="#63b8ff" d="M505.62,-197.93C507.41,-199.29 509.13,-200.72 510.75,-202.25 541.26,-230.89 516.12,-260.74 546.75,-289.25 551.6,-293.77 557.2,-297.56 563.16,-300.73"/>
<polygon fill="#63b8ff" stroke="#63b8ff" points="507.72,-195.11 497.42,-192.61 503.91,-200.99 507.72,-195.11"/>
</a>
</g>
</g>
<!-- Node13&#45;&gt;Node7 -->
<g id="edge20_Node000013_Node000007" class="edge">
<title>Node13&#45;&gt;Node7</title>
<g id="a_edge20_Node000013_Node000007"><a xlink:title=" ">
<path fill="none" stroke="#63b8ff" d="M507.44,-187.41C525.84,-190.36 545.39,-193.5 563.38,-196.39"/>
<polygon fill="#63b8ff" stroke="#63b8ff" points="508.09,-183.97 497.66,-185.84 506.98,-190.88 508.09,-183.97"/>
</a>
</g>
</g>
<!-- Node13&#45;&gt;Node10 -->
<g id="edge19_Node000013_Node000010" class="edge">
<title>Node13&#45;&gt;Node10</title>
<g id="a_edge19_Node000013_Node000010"><a xlink:title=" ">
<path fill="none" stroke="#63b8ff" d="M501.35,-153.31C516.28,-148.81 532,-144.24 546.75,-140.25 557.49,-137.34 569.06,-134.45 580.08,-131.8"/>
<polygon fill="#63b8ff" stroke="#63b8ff" points="500.64,-149.86 492.09,-156.12 502.67,-156.56 500.64,-149.86"/>
</a>
</g>
</g>
<!-- Node14 -->
<g id="Node000014" class="node">
<title>Node14</title>
<g id="a_Node000014"><a xlink:href="structDGtal_1_1UnorderedSetAssociativeCategory.html" target="_top" xlink:title=" ">
<polygon fill="white" stroke="#666666" points="714.62,-36.5 549.38,-36.5 549.38,0 714.62,0 714.62,-36.5"/>
<text text-anchor="start" x="557.38" y="-23" font-family="FreeSans" font-size="10.00">DGtal::UnorderedSetAssociative</text>
<text text-anchor="middle" x="632" y="-8.75" font-family="FreeSans" font-size="10.00">Category</text>
</a>
</g>
</g>
<!-- Node13&#45;&gt;Node14 -->
<g id="edge21_Node000013_Node000014" class="edge">
<title>Node13&#45;&gt;Node14</title>
<g id="a_edge21_Node000013_Node000014"><a xlink:title=" ">
<path fill="none" stroke="#63b8ff" d="M505.15,-152.19C507.12,-150.65 508.99,-149 510.75,-147.25 544.48,-113.58 512.69,-79.58 546.75,-46.25 550.39,-42.69 554.48,-39.59 558.86,-36.88"/>
<polygon fill="#63b8ff" stroke="#63b8ff" points="503.62,-149 497.26,-157.47 507.52,-154.82 503.62,-149"/>
</a>
</g>
</g>
<!-- Node15&#45;&gt;Node9 -->
<g id="edge23_Node000015_Node000009" class="edge">
<title>Node15&#45;&gt;Node9</title>
<g id="a_edge23_Node000015_Node000009"><a xlink:title=" ">
<path fill="none" stroke="#63b8ff" d="M505.13,-89.47C507.06,-90.67 508.94,-91.93 510.75,-93.25 532.03,-108.73 524.67,-125.94 546.75,-140.25 551.92,-143.6 557.6,-146.39 563.49,-148.72"/>
<polygon fill="#63b8ff" stroke="#63b8ff" points="506.87,-86.43 496.43,-84.63 503.47,-92.55 506.87,-86.43"/>
</a>
</g>
</g>
<!-- Node15&#45;&gt;Node10 -->
<g id="edge24_Node000015_Node000010" class="edge">
<title>Node15&#45;&gt;Node10</title>
<g id="a_edge24_Node000015_Node000010"><a xlink:title=" ">
<path fill="none" stroke="#63b8ff" d="M501.35,-87.19C516.28,-91.69 532,-96.26 546.75,-100.25 557.49,-103.16 569.06,-106.05 580.08,-108.7"/>
<polygon fill="#63b8ff" stroke="#63b8ff" points="502.67,-83.94 492.09,-84.38 500.64,-90.64 502.67,-83.94"/>
</a>
</g>
</g>
<!-- Node15&#45;&gt;Node12 -->
<g id="edge25_Node000015_Node000012" class="edge">
<title>Node15&#45;&gt;Node12</title>
<g id="a_edge25_Node000015_Node000012"><a xlink:title=" ">
<path fill="none" stroke="#63b8ff" d="M508.73,-68.34C521.08,-68.84 533.92,-69.35 546.44,-69.86"/>
<polygon fill="#63b8ff" stroke="#63b8ff" points="509.19,-64.86 499.06,-67.95 508.91,-71.85 509.19,-64.86"/>
</a>
</g>
</g>
<!-- Node15&#45;&gt;Node14 -->
<g id="edge26_Node000015_Node000014" class="edge">
<title>Node15&#45;&gt;Node14</title>
<g id="a_edge26_Node000015_Node000014"><a xlink:title=" ">
<path fill="none" stroke="#63b8ff" d="M508.7,-47.1C522.82,-43.77 537.57,-40.29 551.75,-36.94"/>
<polygon fill="#63b8ff" stroke="#63b8ff" points="507.95,-43.68 499.02,-49.38 509.55,-50.49 507.95,-43.68"/>
</a>
</g>
</g>
<!-- Node16&#45;&gt;Node6 -->
<g id="edge29_Node000016_Node000006" class="edge">
<title>Node16&#45;&gt;Node6</title>
<g id="a_edge29_Node000016_Node000006"><a xlink:title=" ">
<path fill="none" stroke="#63b8ff" d="M507.52,-145.4C508.63,-146.32 509.71,-147.27 510.75,-148.25 540.86,-176.72 516.36,-206.08 546.75,-234.25 550.82,-238.02 555.41,-241.29 560.29,-244.11"/>
<polygon fill="#63b8ff" stroke="#63b8ff" points="509.88,-142.78 499.69,-139.87 505.84,-148.5 509.88,-142.78"/>
</a>
</g>
</g>
<!-- Node16&#45;&gt;Node7 -->
<g id="edge30_Node000016_Node000007" class="edge">
<title>Node16&#45;&gt;Node7</title>
<g id="a_edge30_Node000016_Node000007"><a xlink:title=" ">
<path fill="none" stroke="#63b8ff" d="M502.65,-143.82C505.43,-145.23 508.14,-146.71 510.75,-148.25 529.18,-159.14 528.16,-169.64 546.75,-180.25 552.09,-183.29 557.81,-186.05 563.68,-188.52"/>
<polygon fill="#63b8ff" stroke="#63b8ff" points="504.29,-140.72 493.75,-139.63 501.31,-147.05 504.29,-140.72"/>
</a>
</g>
</g>
<!-- Node16&#45;&gt;Node12 -->
<g id="edge28_Node000016_Node000012" class="edge">
<title>Node16&#45;&gt;Node12</title>
<g id="a_edge28_Node000016_Node000012"><a xlink:title=" ">
<path fill="none" stroke="#63b8ff" d="M517.11,-100.12C528.56,-97.41 540.27,-94.65 551.61,-91.98"/>
<polygon fill="#63b8ff" stroke="#63b8ff" points="516.63,-96.63 507.7,-102.33 518.24,-103.45 516.63,-96.63"/>
</a>
</g>
</g>
<!-- Node16&#45;&gt;Node14 -->
<g id="edge31_Node000016_Node000014" class="edge">
<title>Node16&#45;&gt;Node14</title>
<g id="a_edge31_Node000016_Node000014"><a xlink:title=" ">
<path fill="none" stroke="#63b8ff" d="M505.12,-96C507.05,-94.81 508.93,-93.56 510.75,-92.25 531.82,-77.09 525.53,-61.2 546.75,-46.25 551.79,-42.7 557.31,-39.57 563.04,-36.83"/>
<polygon fill="#63b8ff" stroke="#63b8ff" points="503.46,-92.92 496.4,-100.82 506.84,-99.05 503.46,-92.92"/>
</a>
</g>
</g>
</g>
</svg>
