<?xml version="1.0" encoding="UTF-8" standalone="no"?>
<!DOCTYPE svg PUBLIC "-//W3C//DTD SVG 1.1//EN"
 "http://www.w3.org/Graphics/SVG/1.1/DTD/svg11.dtd">
<!-- Generated by graphviz version 11.0.0 (0)
 -->
<!-- Title: DGtal::Translate2DDomain Pages: 1 -->
<svg width="188pt" height="147pt"
 viewBox="0.00 0.00 187.50 146.75" xmlns="http://www.w3.org/2000/svg" xmlns:xlink="http://www.w3.org/1999/xlink">
<g id="graph0" class="graph" transform="scale(1 1) rotate(0) translate(4 142.75)">
<title>DGtal::Translate2DDomain</title>
<!-- Node1 -->
<g id="Node000001" class="node">
<title>Node1</title>
<g id="a_Node000001"><a xlink:title="class to modify the data of an given image and also the possibility to translate it (optional).">
<polygon fill="#999999" stroke="#666666" points="159.62,-22.25 19.88,-22.25 19.88,0 159.62,0 159.62,-22.25"/>
<text text-anchor="middle" x="89.75" y="-8.75" font-family="FreeSans" font-size="10.00">DGtal::Translate2DDomain</text>
</a>
</g>
</g>
<!-- Node2 -->
<g id="Node000002" class="node">
<title>Node2</title>
<g id="a_Node000002"><a xlink:href="structDGtal_1_1DrawWithViewer3DModifier.html" target="_top" xlink:title="Base class specifying the methods for classes which intend to modify a Viewer3D stream.">
<polygon fill="white" stroke="#666666" points="178.75,-80.5 0.75,-80.5 0.75,-58.25 178.75,-58.25 178.75,-80.5"/>
<text text-anchor="middle" x="89.75" y="-67" font-family="FreeSans" font-size="10.00">DGtal::DrawWithViewer3DModifier</text>
</a>
</g>
</g>
<!-- Node2&#45;&gt;Node1 -->
<g id="edge1_Node000001_Node000002" class="edge">
<title>Node2&#45;&gt;Node1</title>
<g id="a_edge1_Node000001_Node000002"><a xlink:title=" ">
<path fill="none" stroke="#63b8ff" d="M89.75,-46.35C89.75,-38.2 89.75,-29.33 89.75,-22.66"/>
<polygon fill="#63b8ff" stroke="#63b8ff" points="86.25,-46.28 89.75,-56.28 93.25,-46.28 86.25,-46.28"/>
</a>
</g>
</g>
<!-- Node3 -->
<g id="Node000003" class="node">
<title>Node3</title>
<g id="a_Node000003"><a xlink:href="structDGtal_1_1DrawWithDisplay3DModifier.html" target="_top" xlink:title="Base class specifying the methods for classes which intend to modify a Viewer3D stream.">
<polygon fill="white" stroke="#666666" points="179.5,-138.75 0,-138.75 0,-116.5 179.5,-116.5 179.5,-138.75"/>
<text text-anchor="middle" x="89.75" y="-125.25" font-family="FreeSans" font-size="10.00">DGtal::DrawWithDisplay3DModifier</text>
</a>
</g>
</g>
<!-- Node3&#45;&gt;Node2 -->
<g id="edge2_Node000002_Node000003" class="edge">
<title>Node3&#45;&gt;Node2</title>
<g id="a_edge2_Node000002_Node000003"><a xlink:title=" ">
<path fill="none" stroke="#63b8ff" d="M89.75,-104.6C89.75,-96.45 89.75,-87.58 89.75,-80.91"/>
<polygon fill="#63b8ff" stroke="#63b8ff" points="86.25,-104.53 89.75,-114.53 93.25,-104.53 86.25,-104.53"/>
</a>
</g>
</g>
</g>
</svg>
