<?xml version="1.0" encoding="UTF-8" standalone="no"?>
<!DOCTYPE svg PUBLIC "-//W3C//DTD SVG 1.1//EN"
 "http://www.w3.org/Graphics/SVG/1.1/DTD/svg11.dtd">
<!-- Generated by graphviz version 11.0.0 (0)
 -->
<!-- Title: DGtal::CForwardIteratorArchetype&lt; T &gt; Pages: 1 -->
<svg width="207pt" height="190pt"
 viewBox="0.00 0.00 207.00 189.50" xmlns="http://www.w3.org/2000/svg" xmlns:xlink="http://www.w3.org/1999/xlink">
<g id="graph0" class="graph" transform="scale(1 1) rotate(0) translate(4 185.5)">
<title>DGtal::CForwardIteratorArchetype&lt; T &gt;</title>
<!-- Node1 -->
<g id="Node000001" class="node">
<title>Node1</title>
<g id="a_Node000001"><a xlink:title="An archetype of ForwardIterator.">
<polygon fill="#999999" stroke="#666666" points="199,-109 0,-109 0,-86.75 199,-86.75 199,-109"/>
<text text-anchor="middle" x="99.5" y="-95.5" font-family="FreeSans" font-size="10.00">DGtal::CForwardIteratorArchetype&lt; T &gt;</text>
</a>
</g>
</g>
<!-- Node3 -->
<g id="Node000003" class="node">
<title>Node3</title>
<g id="a_Node000003"><a xlink:href="structDGtal_1_1CForwardIteratorArchetype.html" target="_top" xlink:title=" ">
<polygon fill="white" stroke="#666666" points="188.12,-36.5 10.88,-36.5 10.88,0 188.12,0 188.12,-36.5"/>
<text text-anchor="start" x="18.88" y="-23" font-family="FreeSans" font-size="10.00">DGtal::CForwardIteratorArchetype</text>
<text text-anchor="middle" x="99.5" y="-8.75" font-family="FreeSans" font-size="10.00">&lt; Point &gt;</text>
</a>
</g>
</g>
<!-- Node1&#45;&gt;Node3 -->
<g id="edge2_Node000001_Node000003" class="edge">
<title>Node1&#45;&gt;Node3</title>
<g id="a_edge2_Node000001_Node000003"><a xlink:title=" ">
<path fill="none" stroke="orange" stroke-dasharray="5,2" d="M99.5,-75.11C99.5,-63.07 99.5,-48.29 99.5,-36.97"/>
<polygon fill="orange" stroke="orange" points="96,-74.89 99.5,-84.89 103,-74.89 96,-74.89"/>
</a>
</g>
<text text-anchor="middle" x="120.88" y="-59.25" font-family="FreeSans" font-size="10.00" fill="grey"> &lt; Point &gt;</text>
</g>
<!-- Node2 -->
<g id="Node000002" class="node">
<title>Node2</title>
<g id="a_Node000002"><a xlink:title=" ">
<polygon fill="white" stroke="#666666" points="161.88,-181.5 37.13,-181.5 37.13,-145 161.88,-145 161.88,-181.5"/>
<text text-anchor="start" x="45.12" y="-168" font-family="FreeSans" font-size="10.00">boost::forward_iterator</text>
<text text-anchor="middle" x="99.5" y="-153.75" font-family="FreeSans" font-size="10.00">_archetype&lt; T &gt;</text>
</a>
</g>
</g>
<!-- Node2&#45;&gt;Node1 -->
<g id="edge1_Node000001_Node000002" class="edge">
<title>Node2&#45;&gt;Node1</title>
<g id="a_edge1_Node000001_Node000002"><a xlink:title=" ">
<path fill="none" stroke="#63b8ff" d="M99.5,-133.09C99.5,-124.67 99.5,-116 99.5,-109.49"/>
<polygon fill="#63b8ff" stroke="#63b8ff" points="96,-133.08 99.5,-143.08 103,-133.08 96,-133.08"/>
</a>
</g>
</g>
</g>
</svg>
