<?xml version="1.0" encoding="UTF-8" standalone="no"?>
<!DOCTYPE svg PUBLIC "-//W3C//DTD SVG 1.1//EN"
 "http://www.w3.org/Graphics/SVG/1.1/DTD/svg11.dtd">
<!-- Generated by graphviz version 11.0.0 (0)
 -->
<!-- Title: DGtal::concepts::CUnaryFunctor&lt; X, A, R &gt; Pages: 1 -->
<!--zoomable 432 -->

<svg id="main" version="1.1" xmlns="http://www.w3.org/2000/svg" xmlns:xlink="http://www.w3.org/1999/xlink" xml:space="preserve" onload="init(evt)">
<style type="text/css"><![CDATA[
.node, .edge {opacity: 0.7;}
.node.selected, .edge.selected {opacity: 1;}
.edge:hover path { stroke: red; }
.edge:hover polygon { stroke: red; fill: red; }
]]></style>

<defs>
  <circle id="rim" cx="0" cy="0" r="7"/>
  <circle id="rim2" cx="0" cy="0" r="3.5"/>
  <g id="zoomPlus">
    <use xlink:href="#rim" fill="#404040"><set attributeName="fill" to="#808080" begin="zoomplus.mouseover" end="zoomplus.mouseout"/></use>
    <path d="M-4,0h8M0,-4v8" fill="none" stroke="white" stroke-width="1.5" pointer-events="none"/>
  </g>
  <g id="zoomMin">
    <use xlink:href="#rim" fill="#404040"><set attributeName="fill" to="#808080" begin="zoomminus.mouseover" end="zoomminus.mouseout"/></use>
    <path d="M-4,0h8" fill="none" stroke="white" stroke-width="1.5" pointer-events="none"/>
  </g>
  <g id="arrowUp" transform="translate(30 24)">
    <use xlink:href="#rim"/>
    <path pointer-events="none" fill="none" stroke="white" stroke-width="1.5" d="M0,-3.0v7 M-2.5,-0.5L0,-3.0L2.5,-0.5"/>
  </g>
  <g id="arrowRight" transform="rotate(90) translate(36 -43)">
    <use xlink:href="#rim"/>
    <path pointer-events="none" fill="none" stroke="white" stroke-width="1.5" d="M0,-3.0v7 M-2.5,-0.5L0,-3.0L2.5,-0.5"/>
  </g>
  <g id="arrowDown" transform="rotate(180) translate(-30 -48)">
    <use xlink:href="#rim"/>
    <path pointer-events="none" fill="none" stroke="white" stroke-width="1.5" d="M0,-3.0v7 M-2.5,-0.5L0,-3.0L2.5,-0.5"/>
  </g>
  <g id="arrowLeft" transform="rotate(270) translate(-36 17)">
    <use xlink:href="#rim"/>
    <path pointer-events="none" fill="none" stroke="white" stroke-width="1.5" d="M0,-3.0v7 M-2.5,-0.5L0,-3.0L2.5,-0.5"/>
  </g>
  <g id="resetDef">
    <use xlink:href="#rim2" fill="#404040"><set attributeName="fill" to="#808080" begin="reset.mouseover" end="reset.mouseout"/></use>
  </g>
</defs>
<script type="application/ecmascript">
var viewWidth = 2153;
var viewHeight = 432;
var sectionId = 'dynsection-0';
</script>
<script type="application/ecmascript" xlink:href="svg.min.js"/>
<svg id="graph" class="graph">
<g id="viewport">
<title>DGtal::concepts::CUnaryFunctor&lt; X, A, R &gt;</title>
<!-- Node1 -->
<g id="Node000001" class="node">
<title>Node1</title>
<g id="a_Node000001"><a xlink:title="Aim: Defines a unary functor, which associates arguments to results.">
<polygon fill="#999999" stroke="#666666" points="502.5,-229.5 336.5,-229.5 336.5,-193 502.5,-193 502.5,-229.5"/>
<text text-anchor="start" x="344.5" y="-216" font-family="FreeSans" font-size="10.00">DGtal::concepts::CUnaryFunctor</text>
<text text-anchor="middle" x="419.5" y="-201.75" font-family="FreeSans" font-size="10.00">&lt; X, A, R &gt;</text>
</a>
</g>
</g>
<!-- Node4 -->
<g id="Node000004" class="node">
<title>Node4</title>
<g id="a_Node000004"><a xlink:href="structDGtal_1_1concepts_1_1CUnaryFunctor.html" target="_top" xlink:title=" ">
<polygon fill="white" stroke="#666666" points="829,-423.5 663,-423.5 663,-387 829,-387 829,-423.5"/>
<text text-anchor="start" x="671" y="-410" font-family="FreeSans" font-size="10.00">DGtal::concepts::CUnaryFunctor</text>
<text text-anchor="middle" x="746" y="-395.75" font-family="FreeSans" font-size="10.00">&lt; T, T::Cell, T::RealPoint &gt;</text>
</a>
</g>
</g>
<!-- Node1&#45;&gt;Node4 -->
<g id="edge3_Node000001_Node000004" class="edge">
<title>Node1&#45;&gt;Node4</title>
<g id="a_edge3_Node000001_Node000004"><a xlink:title=" ">
<path fill="none" stroke="orange" stroke-dasharray="5,2" d="M431.64,-240.34C446.47,-274.91 476.09,-331.63 520.5,-361.25 562.22,-389.07 617.39,-400.15 662.6,-404.24"/>
<polygon fill="orange" stroke="orange" points="434.99,-239.25 427.93,-231.35 428.52,-241.93 434.99,-239.25"/>
</a>
</g>
<text text-anchor="middle" x="582.75" y="-406" font-family="FreeSans" font-size="10.00" fill="grey"> &lt; T, T::Cell, T::RealPoint &gt;</text>
</g>
<!-- Node6 -->
<g id="Node000006" class="node">
<title>Node6</title>
<g id="a_Node000006"><a xlink:href="structDGtal_1_1concepts_1_1CUnaryFunctor.html" target="_top" xlink:title=" ">
<polygon fill="white" stroke="#666666" points="829,-368.5 663,-368.5 663,-332 829,-332 829,-368.5"/>
<text text-anchor="start" x="671" y="-355" font-family="FreeSans" font-size="10.00">DGtal::concepts::CUnaryFunctor</text>
<text text-anchor="middle" x="746" y="-340.75" font-family="FreeSans" font-size="10.00">&lt; T, T::Point, T::RealPoint &gt;</text>
</a>
</g>
</g>
<!-- Node1&#45;&gt;Node6 -->
<g id="edge5_Node000001_Node000006" class="edge">
<title>Node1&#45;&gt;Node6</title>
<g id="a_edge5_Node000001_Node000006"><a xlink:title=" ">
<path fill="none" stroke="orange" stroke-dasharray="5,2" d="M441.06,-238.66C459.37,-261.02 488.22,-291.54 520.5,-308.25 564.26,-330.89 618.42,-341.45 662.59,-346.32"/>
<polygon fill="orange" stroke="orange" points="444.02,-236.76 435.05,-231.13 438.55,-241.13 444.02,-236.76"/>
</a>
</g>
<text text-anchor="middle" x="582.75" y="-348" font-family="FreeSans" font-size="10.00" fill="grey"> &lt; T, T::Point, T::RealPoint &gt;</text>
</g>
<!-- Node8 -->
<g id="Node000008" class="node">
<title>Node8</title>
<g id="a_Node000008"><a xlink:href="structDGtal_1_1concepts_1_1CUnaryFunctor.html" target="_top" xlink:title=" ">
<polygon fill="white" stroke="#666666" points="829,-313.5 663,-313.5 663,-277 829,-277 829,-313.5"/>
<text text-anchor="start" x="671" y="-300" font-family="FreeSans" font-size="10.00">DGtal::concepts::CUnaryFunctor</text>
<text text-anchor="middle" x="746" y="-285.75" font-family="FreeSans" font-size="10.00">&lt; T, T::Point, T::Value &gt;</text>
</a>
</g>
</g>
<!-- Node1&#45;&gt;Node8 -->
<g id="edge7_Node000001_Node000008" class="edge">
<title>Node1&#45;&gt;Node8</title>
<g id="a_edge7_Node000001_Node000008"><a xlink:title=" ">
<path fill="none" stroke="orange" stroke-dasharray="5,2" d="M456.84,-236.1C475.15,-247.43 498.17,-259.92 520.5,-267.25 566.12,-282.23 619.37,-289.29 662.55,-292.57"/>
<polygon fill="orange" stroke="orange" points="458.78,-233.19 448.46,-230.78 455.03,-239.1 458.78,-233.19"/>
</a>
</g>
<text text-anchor="middle" x="582.75" y="-295" font-family="FreeSans" font-size="10.00" fill="grey"> &lt; T, T::Point, T::Value &gt;</text>
</g>
<!-- Node17 -->
<g id="Node000017" class="node">
<title>Node17</title>
<g id="a_Node000017"><a xlink:href="structDGtal_1_1concepts_1_1CUnaryFunctor.html" target="_top" xlink:title=" ">
<polygon fill="white" stroke="#666666" points="1013,-230.5 847,-230.5 847,-194 1013,-194 1013,-230.5"/>
<text text-anchor="start" x="855" y="-217" font-family="FreeSans" font-size="10.00">DGtal::concepts::CUnaryFunctor</text>
<text text-anchor="middle" x="930" y="-202.75" font-family="FreeSans" font-size="10.00">&lt; T, T::Point, bool &gt;</text>
</a>
</g>
</g>
<!-- Node1&#45;&gt;Node17 -->
<g id="edge17_Node000001_Node000017" class="edge">
<title>Node1&#45;&gt;Node17</title>
<g id="a_edge17_Node000001_Node000017"><a xlink:title=" ">
<path fill="none" stroke="orange" stroke-dasharray="5,2" d="M514.13,-211.43C609.48,-211.62 755.88,-211.91 846.85,-212.09"/>
<polygon fill="orange" stroke="orange" points="514.28,-207.93 504.28,-211.41 514.27,-214.93 514.28,-207.93"/>
</a>
</g>
<text text-anchor="middle" x="582.75" y="-216" font-family="FreeSans" font-size="10.00" fill="grey"> &lt; T, T::Point, bool &gt;</text>
</g>
<!-- Node21 -->
<g id="Node000021" class="node">
<title>Node21</title>
<g id="a_Node000021"><a xlink:href="structDGtal_1_1concepts_1_1CUnaryFunctor.html" target="_top" xlink:title=" ">
<polygon fill="white" stroke="#666666" points="829,-183.5 663,-183.5 663,-147 829,-147 829,-183.5"/>
<text text-anchor="start" x="671" y="-170" font-family="FreeSans" font-size="10.00">DGtal::concepts::CUnaryFunctor</text>
<text text-anchor="middle" x="746" y="-155.75" font-family="FreeSans" font-size="10.00">&lt; T, TElement, bool &gt;</text>
</a>
</g>
</g>
<!-- Node1&#45;&gt;Node21 -->
<g id="edge21_Node000001_Node000021" class="edge">
<title>Node1&#45;&gt;Node21</title>
<g id="a_edge21_Node000001_Node000021"><a xlink:title=" ">
<path fill="none" stroke="orange" stroke-dasharray="5,2" d="M473.56,-188.63C488.49,-183.2 504.9,-178.09 520.5,-175 567,-165.79 619.93,-163.12 662.71,-162.87"/>
<polygon fill="orange" stroke="orange" points="472.54,-185.27 464.41,-192.07 475,-191.82 472.54,-185.27"/>
</a>
</g>
<text text-anchor="middle" x="582.75" y="-180" font-family="FreeSans" font-size="10.00" fill="grey"> &lt; T, TElement, bool &gt;</text>
</g>
<!-- Node27 -->
<g id="Node000027" class="node">
<title>Node27</title>
<g id="a_Node000027"><a xlink:href="structDGtal_1_1concepts_1_1CUnaryFunctor.html" target="_top" xlink:title=" ">
<polygon fill="white" stroke="#666666" points="829,-44.5 663,-44.5 663,-8 829,-8 829,-44.5"/>
<text text-anchor="start" x="671" y="-31" font-family="FreeSans" font-size="10.00">DGtal::concepts::CUnaryFunctor</text>
<text text-anchor="middle" x="746" y="-16.75" font-family="FreeSans" font-size="10.00">&lt; T, T::SCell, T::RealPoint &gt;</text>
</a>
</g>
</g>
<!-- Node1&#45;&gt;Node27 -->
<g id="edge28_Node000001_Node000027" class="edge">
<title>Node1&#45;&gt;Node27</title>
<g id="a_edge28_Node000001_Node000027"><a xlink:title=" ">
<path fill="none" stroke="orange" stroke-dasharray="5,2" d="M428.43,-181.73C440.82,-142.06 468.85,-72.86 520.5,-41 562.39,-15.16 617.43,-11.19 662.53,-13.81"/>
<polygon fill="orange" stroke="orange" points="425.14,-180.52 425.65,-191.1 431.85,-182.52 425.14,-180.52"/>
</a>
</g>
<text text-anchor="middle" x="582.75" y="-46" font-family="FreeSans" font-size="10.00" fill="grey"> &lt; T, T::SCell, T::RealPoint &gt;</text>
</g>
<!-- Node30 -->
<g id="Node000030" class="node">
<title>Node30</title>
<g id="a_Node000030"><a xlink:href="structDGtal_1_1concepts_1_1CUnaryFunctor.html" target="_top" xlink:title=" ">
<polygon fill="white" stroke="#666666" points="1013,-86.5 847,-86.5 847,-50 1013,-50 1013,-86.5"/>
<text text-anchor="start" x="855" y="-73" font-family="FreeSans" font-size="10.00">DGtal::concepts::CUnaryFunctor</text>
<text text-anchor="middle" x="930" y="-58.75" font-family="FreeSans" font-size="10.00">&lt; T, T::Surfel, bool &gt;</text>
</a>
</g>
</g>
<!-- Node1&#45;&gt;Node30 -->
<g id="edge31_Node000001_Node000030" class="edge">
<title>Node1&#45;&gt;Node30</title>
<g id="a_edge31_Node000001_Node000030"><a xlink:title=" ">
<path fill="none" stroke="orange" stroke-dasharray="5,2" d="M436.9,-183.43C454.09,-157.14 483.69,-119.1 520.5,-101 624.25,-49.98 760.88,-50.53 846.85,-57.75"/>
<polygon fill="orange" stroke="orange" points="434.13,-181.27 431.74,-191.59 440.05,-185.01 434.13,-181.27"/>
</a>
</g>
<text text-anchor="middle" x="582.75" y="-106" font-family="FreeSans" font-size="10.00" fill="grey"> &lt; T, T::Surfel, bool &gt;</text>
</g>
<!-- Node31 -->
<g id="Node000031" class="node">
<title>Node31</title>
<g id="a_Node000031"><a xlink:href="structDGtal_1_1concepts_1_1CUnaryFunctor.html" target="_top" xlink:title=" ">
<polygon fill="white" stroke="#666666" points="1013,-274.5 847,-274.5 847,-238 1013,-238 1013,-274.5"/>
<text text-anchor="start" x="855" y="-261" font-family="FreeSans" font-size="10.00">DGtal::concepts::CUnaryFunctor</text>
<text text-anchor="middle" x="930" y="-246.75" font-family="FreeSans" font-size="10.00">&lt; I, I::Point, I::Value &gt;</text>
</a>
</g>
</g>
<!-- Node1&#45;&gt;Node31 -->
<g id="edge33_Node000001_Node000031" class="edge">
<title>Node1&#45;&gt;Node31</title>
<g id="a_edge33_Node000001_Node000031"><a xlink:title=" ">
<path fill="none" stroke="orange" stroke-dasharray="5,2" d="M514.22,-226.5C516.33,-226.76 518.43,-227.01 520.5,-227.25 633.16,-240.24 764.01,-248.3 846.65,-252.53"/>
<polygon fill="orange" stroke="orange" points="514.69,-223.03 504.32,-225.2 513.79,-229.97 514.69,-223.03"/>
</a>
</g>
<text text-anchor="middle" x="582.75" y="-243" font-family="FreeSans" font-size="10.00" fill="grey"> &lt; I, I::Point, I::Value &gt;</text>
</g>
<!-- Node32 -->
<g id="Node000032" class="node">
<title>Node32</title>
<g id="a_Node000032"><a xlink:href="structDGtal_1_1concepts_1_1CUnaryFunctor.html" target="_top" xlink:title=" ">
<polygon fill="white" stroke="#666666" points="1013,-134.5 847,-134.5 847,-98 1013,-98 1013,-134.5"/>
<text text-anchor="start" x="855" y="-121" font-family="FreeSans" font-size="10.00">DGtal::concepts::CUnaryFunctor</text>
<text text-anchor="middle" x="930" y="-106.75" font-family="FreeSans" font-size="10.00">&lt; T, T::Vertex, bool &gt;</text>
</a>
</g>
</g>
<!-- Node1&#45;&gt;Node32 -->
<g id="edge35_Node000001_Node000032" class="edge">
<title>Node1&#45;&gt;Node32</title>
<g id="a_edge35_Node000001_Node000032"><a xlink:title=" ">
<path fill="none" stroke="orange" stroke-dasharray="5,2" d="M450.32,-185.53C469.13,-170.89 494.69,-153.77 520.5,-145 628.87,-108.16 762.5,-106.29 846.76,-109.97"/>
<polygon fill="orange" stroke="orange" points="448.18,-182.76 442.57,-191.74 452.56,-188.22 448.18,-182.76"/>
</a>
</g>
<text text-anchor="middle" x="582.75" y="-150" font-family="FreeSans" font-size="10.00" fill="grey"> &lt; T, T::Vertex, bool &gt;</text>
</g>
<!-- Node2 -->
<g id="Node000002" class="node">
<title>Node2</title>
<g id="a_Node000002"><a xlink:href="structboost_1_1Assignable.html" target="_top" xlink:title=" ">
<polygon fill="white" stroke="#666666" points="300.5,-222.38 180.25,-222.38 180.25,-200.12 300.5,-200.12 300.5,-222.38"/>
<text text-anchor="middle" x="240.38" y="-208.88" font-family="FreeSans" font-size="10.00">boost::Assignable&lt; X &gt;</text>
</a>
</g>
</g>
<!-- Node2&#45;&gt;Node1 -->
<g id="edge1_Node000001_Node000002" class="edge">
<title>Node2&#45;&gt;Node1</title>
<g id="a_edge1_Node000001_Node000002"><a xlink:title=" ">
<path fill="none" stroke="#63b8ff" d="M312.23,-211.25C320.11,-211.25 328.19,-211.25 336.2,-211.25"/>
<polygon fill="#63b8ff" stroke="#63b8ff" points="312.36,-207.75 302.36,-211.25 312.36,-214.75 312.36,-207.75"/>
</a>
</g>
</g>
<!-- Node3 -->
<g id="Node000003" class="node">
<title>Node3</title>
<g id="a_Node000003"><a xlink:href="structboost_1_1Assignable.html" target="_top" xlink:title="Go to http://www.sgi.com/tech/stl/Assignable.html.">
<polygon fill="white" stroke="#666666" points="119.5,-222.38 0,-222.38 0,-200.12 119.5,-200.12 119.5,-222.38"/>
<text text-anchor="middle" x="59.75" y="-208.88" font-family="FreeSans" font-size="10.00">boost::Assignable&lt; T &gt;</text>
</a>
</g>
</g>
<!-- Node3&#45;&gt;Node2 -->
<g id="edge2_Node000002_Node000003" class="edge">
<title>Node3&#45;&gt;Node2</title>
<g id="a_edge2_Node000002_Node000003"><a xlink:title=" ">
<path fill="none" stroke="orange" stroke-dasharray="5,2" d="M130.79,-211.25C147.01,-211.25 164.12,-211.25 179.84,-211.25"/>
<polygon fill="orange" stroke="orange" points="131.25,-207.75 121.25,-211.25 131.25,-214.75 131.25,-207.75"/>
</a>
</g>
<text text-anchor="middle" x="149.88" y="-216" font-family="FreeSans" font-size="10.00" fill="grey"> &lt; X &gt;</text>
</g>
<!-- Node5 -->
<g id="Node000005" class="node">
<title>Node5</title>
<g id="a_Node000005"><a xlink:href="structDGtal_1_1concepts_1_1CCellEmbedder.html" target="_top" xlink:title="Aim: A cell embedder is a mapping from unsigned cells to Euclidean points. It adds inner types to fun...">
<polygon fill="white" stroke="#666666" points="1223.25,-416.38 1034.75,-416.38 1034.75,-394.12 1223.25,-394.12 1223.25,-416.38"/>
<text text-anchor="middle" x="1129" y="-402.88" font-family="FreeSans" font-size="10.00">DGtal::concepts::CCellEmbedder&lt; T &gt;</text>
</a>
</g>
</g>
<!-- Node4&#45;&gt;Node5 -->
<g id="edge4_Node000004_Node000005" class="edge">
<title>Node4&#45;&gt;Node5</title>
<g id="a_edge4_Node000004_Node000005"><a xlink:title=" ">
<path fill="none" stroke="#63b8ff" d="M840.4,-405.25C899.45,-405.25 975.5,-405.25 1034.56,-405.25"/>
<polygon fill="#63b8ff" stroke="#63b8ff" points="840.72,-401.75 830.72,-405.25 840.72,-408.75 840.72,-401.75"/>
</a>
</g>
</g>
<!-- Node7 -->
<g id="Node000007" class="node">
<title>Node7</title>
<g id="a_Node000007"><a xlink:href="structDGtal_1_1concepts_1_1CPointEmbedder.html" target="_top" xlink:title="Aim: A point embedder is a mapping from digital points to Euclidean points. It adds inner types to fu...">
<polygon fill="white" stroke="#666666" points="1227,-361.38 1031,-361.38 1031,-339.12 1227,-339.12 1227,-361.38"/>
<text text-anchor="middle" x="1129" y="-347.88" font-family="FreeSans" font-size="10.00">DGtal::concepts::CPointEmbedder&lt; T &gt;</text>
</a>
</g>
</g>
<!-- Node6&#45;&gt;Node7 -->
<g id="edge6_Node000006_Node000007" class="edge">
<title>Node6&#45;&gt;Node7</title>
<g id="a_edge6_Node000006_Node000007"><a xlink:title=" ">
<path fill="none" stroke="#63b8ff" d="M840.53,-350.25C898.31,-350.25 972.32,-350.25 1030.78,-350.25"/>
<polygon fill="#63b8ff" stroke="#63b8ff" points="840.72,-346.75 830.72,-350.25 840.72,-353.75 840.72,-346.75"/>
</a>
</g>
</g>
<!-- Node9 -->
<g id="Node000009" class="node">
<title>Node9</title>
<g id="a_Node000009"><a xlink:href="structDGtal_1_1concepts_1_1CPointFunctor.html" target="_top" xlink:title="Aim: Defines a functor on points.">
<polygon fill="white" stroke="#666666" points="1220.62,-311.38 1037.38,-311.38 1037.38,-289.12 1220.62,-289.12 1220.62,-311.38"/>
<text text-anchor="middle" x="1129" y="-297.88" font-family="FreeSans" font-size="10.00">DGtal::concepts::CPointFunctor&lt; T &gt;</text>
</a>
</g>
</g>
<!-- Node8&#45;&gt;Node9 -->
<g id="edge8_Node000008_Node000009" class="edge">
<title>Node8&#45;&gt;Node9</title>
<g id="a_edge8_Node000008_Node000009"><a xlink:title=" ">
<path fill="none" stroke="#63b8ff" d="M840.54,-296.48C900.37,-297.26 977.6,-298.28 1036.94,-299.05"/>
<polygon fill="#63b8ff" stroke="#63b8ff" points="840.76,-292.98 830.72,-296.35 840.67,-299.98 840.76,-292.98"/>
</a>
</g>
</g>
<!-- Node10 -->
<g id="Node000010" class="node">
<title>Node10</title>
<g id="a_Node000010"><a xlink:href="structDGtal_1_1concepts_1_1COrientationFunctor.html" target="_top" xlink:title="Aim: This concept gathers models implementing an orientation test of &#160;points in a space of dimension ...">
<polygon fill="white" stroke="#666666" points="1502.5,-355.5 1347.75,-355.5 1347.75,-319 1502.5,-319 1502.5,-355.5"/>
<text text-anchor="start" x="1355.75" y="-342" font-family="FreeSans" font-size="10.00">DGtal::concepts::COrientation</text>
<text text-anchor="middle" x="1425.12" y="-327.75" font-family="FreeSans" font-size="10.00">Functor&lt; T &gt;</text>
</a>
</g>
</g>
<!-- Node9&#45;&gt;Node10 -->
<g id="edge9_Node000009_Node000010" class="edge">
<title>Node9&#45;&gt;Node10</title>
<g id="a_edge9_Node000009_Node000010"><a xlink:title=" ">
<path fill="none" stroke="#63b8ff" d="M1232.11,-313.1C1269.94,-317.85 1312.17,-323.17 1347.36,-327.59"/>
<polygon fill="#63b8ff" stroke="#63b8ff" points="1232.91,-309.67 1222.55,-311.89 1232.04,-316.61 1232.91,-309.67"/>
</a>
</g>
</g>
<!-- Node12 -->
<g id="Node000012" class="node">
<title>Node12</title>
<g id="a_Node000012"><a xlink:href="structDGtal_1_1concepts_1_1CPointFunctor.html" target="_top" xlink:title=" ">
<polygon fill="white" stroke="#666666" points="1516,-288.38 1334.25,-288.38 1334.25,-266.12 1516,-266.12 1516,-288.38"/>
<text text-anchor="middle" x="1425.12" y="-274.88" font-family="FreeSans" font-size="10.00">DGtal::concepts::CPointFunctor&lt; I &gt;</text>
</a>
</g>
</g>
<!-- Node9&#45;&gt;Node12 -->
<g id="edge11_Node000009_Node000012" class="edge">
<title>Node9&#45;&gt;Node12</title>
<g id="a_edge11_Node000009_Node000012"><a xlink:title=" ">
<path fill="none" stroke="orange" stroke-dasharray="5,2" d="M1232.12,-292.26C1265.19,-289.68 1301.61,-286.83 1333.76,-284.32"/>
<polygon fill="orange" stroke="orange" points="1232.25,-288.74 1222.56,-293.01 1232.8,-295.72 1232.25,-288.74"/>
</a>
</g>
<text text-anchor="middle" x="1280.62" y="-295" font-family="FreeSans" font-size="10.00" fill="grey"> &lt; I &gt;</text>
</g>
<!-- Node11 -->
<g id="Node000011" class="node">
<title>Node11</title>
<g id="a_Node000011"><a xlink:href="structDGtal_1_1concepts_1_1COrientationFunctor2.html" target="_top" xlink:title="Aim: This concept is a refinement of COrientationFunctor, useful for simple algebraic curves that can...">
<polygon fill="white" stroke="#666666" points="1724.75,-355.5 1570,-355.5 1570,-319 1724.75,-319 1724.75,-355.5"/>
<text text-anchor="start" x="1578" y="-342" font-family="FreeSans" font-size="10.00">DGtal::concepts::COrientation</text>
<text text-anchor="middle" x="1647.38" y="-327.75" font-family="FreeSans" font-size="10.00">Functor2&lt; T &gt;</text>
</a>
</g>
</g>
<!-- Node10&#45;&gt;Node11 -->
<g id="edge10_Node000010_Node000011" class="edge">
<title>Node10&#45;&gt;Node11</title>
<g id="a_edge10_Node000010_Node000011"><a xlink:title=" ">
<path fill="none" stroke="#63b8ff" d="M1514.14,-337.25C1532.47,-337.25 1551.66,-337.25 1569.55,-337.25"/>
<polygon fill="#63b8ff" stroke="#63b8ff" points="1514.36,-333.75 1504.36,-337.25 1514.36,-340.75 1514.36,-333.75"/>
</a>
</g>
</g>
<!-- Node13 -->
<g id="Node000013" class="node">
<title>Node13</title>
<g id="a_Node000013"><a xlink:href="structDGtal_1_1concepts_1_1CTrivialConstImage.html" target="_top" xlink:title="Aim: Defines the concept describing a read&#45;only image, which is a refinement of CPointFunctor.">
<polygon fill="white" stroke="#666666" points="1711.62,-295.5 1583.12,-295.5 1583.12,-259 1711.62,-259 1711.62,-295.5"/>
<text text-anchor="start" x="1591.12" y="-282" font-family="FreeSans" font-size="10.00">DGtal::concepts::CTrivial</text>
<text text-anchor="middle" x="1647.38" y="-267.75" font-family="FreeSans" font-size="10.00">ConstImage&lt; I &gt;</text>
</a>
</g>
</g>
<!-- Node12&#45;&gt;Node13 -->
<g id="edge12_Node000012_Node000013" class="edge">
<title>Node12&#45;&gt;Node13</title>
<g id="a_edge12_Node000012_Node000013"><a xlink:title=" ">
<path fill="none" stroke="#63b8ff" d="M1527.68,-277.25C1546.48,-277.25 1565.63,-277.25 1582.9,-277.25"/>
<polygon fill="#63b8ff" stroke="#63b8ff" points="1527.86,-273.75 1517.86,-277.25 1527.86,-280.75 1527.86,-273.75"/>
</a>
</g>
</g>
<!-- Node14 -->
<g id="Node000014" class="node">
<title>Node14</title>
<g id="a_Node000014"><a xlink:href="structDGtal_1_1concepts_1_1CConstImage.html" target="_top" xlink:title="Aim: Defines the concept describing a read&#45;only image, which is a refinement of CPointFunctor.">
<polygon fill="white" stroke="#666666" points="1956.75,-275.38 1778.75,-275.38 1778.75,-253.12 1956.75,-253.12 1956.75,-275.38"/>
<text text-anchor="middle" x="1867.75" y="-261.88" font-family="FreeSans" font-size="10.00">DGtal::concepts::CConstImage&lt; I &gt;</text>
</a>
</g>
</g>
<!-- Node13&#45;&gt;Node14 -->
<g id="edge13_Node000013_Node000014" class="edge">
<title>Node13&#45;&gt;Node14</title>
<g id="a_edge13_Node000013_Node000014"><a xlink:title=" ">
<path fill="none" stroke="#63b8ff" d="M1723.27,-272.79C1741.01,-271.74 1760.09,-270.6 1778.36,-269.51"/>
<polygon fill="#63b8ff" stroke="#63b8ff" points="1723.12,-269.29 1713.34,-273.38 1723.53,-276.28 1723.12,-269.29"/>
</a>
</g>
</g>
<!-- Node16 -->
<g id="Node000016" class="node">
<title>Node16</title>
<g id="a_Node000016"><a xlink:href="structDGtal_1_1concepts_1_1CTrivialImage.html" target="_top" xlink:title="Aim: Defines the concept describing an image without extra ranges, which is a refinement of CTrivialC...">
<polygon fill="white" stroke="#666666" points="1932,-329.5 1803.5,-329.5 1803.5,-293 1932,-293 1932,-329.5"/>
<text text-anchor="start" x="1811.5" y="-316" font-family="FreeSans" font-size="10.00">DGtal::concepts::CTrivial</text>
<text text-anchor="middle" x="1867.75" y="-301.75" font-family="FreeSans" font-size="10.00">Image&lt; I &gt;</text>
</a>
</g>
</g>
<!-- Node13&#45;&gt;Node16 -->
<g id="edge15_Node000013_Node000016" class="edge">
<title>Node13&#45;&gt;Node16</title>
<g id="a_edge15_Node000013_Node000016"><a xlink:title=" ">
<path fill="none" stroke="#63b8ff" d="M1723.17,-288.9C1749.19,-292.95 1778.11,-297.45 1803.14,-301.35"/>
<polygon fill="#63b8ff" stroke="#63b8ff" points="1723.75,-285.44 1713.33,-287.36 1722.67,-292.36 1723.75,-285.44"/>
</a>
</g>
</g>
<!-- Node15 -->
<g id="Node000015" class="node">
<title>Node15</title>
<g id="a_Node000015"><a xlink:href="structDGtal_1_1concepts_1_1CImage.html" target="_top" xlink:title="Aim: Defines the concept describing a read/write image, having an output iterator.">
<polygon fill="white" stroke="#666666" points="2144.5,-298.38 1992.75,-298.38 1992.75,-276.12 2144.5,-276.12 2144.5,-298.38"/>
<text text-anchor="middle" x="2068.62" y="-284.88" font-family="FreeSans" font-size="10.00">DGtal::concepts::CImage&lt; I &gt;</text>
</a>
</g>
</g>
<!-- Node14&#45;&gt;Node15 -->
<g id="edge14_Node000014_Node000015" class="edge">
<title>Node14&#45;&gt;Node15</title>
<g id="a_edge14_Node000014_Node000015"><a xlink:title=" ">
<path fill="none" stroke="#63b8ff" d="M1968.44,-275.78C1976.46,-276.71 1984.47,-277.63 1992.27,-278.53"/>
<polygon fill="#63b8ff" stroke="#63b8ff" points="1968.98,-272.32 1958.64,-274.65 1968.17,-279.27 1968.98,-272.32"/>
</a>
</g>
</g>
<!-- Node16&#45;&gt;Node15 -->
<g id="edge16_Node000016_Node000015" class="edge">
<title>Node16&#45;&gt;Node15</title>
<g id="a_edge16_Node000016_Node000015"><a xlink:title=" ">
<path fill="none" stroke="#63b8ff" d="M1943.89,-302.18C1959.78,-300.26 1976.55,-298.24 1992.44,-296.32"/>
<polygon fill="#63b8ff" stroke="#63b8ff" points="1943.51,-298.7 1934,-303.38 1944.35,-305.65 1943.51,-298.7"/>
</a>
</g>
</g>
<!-- Node18 -->
<g id="Node000018" class="node">
<title>Node18</title>
<g id="a_Node000018"><a xlink:href="structDGtal_1_1concepts_1_1CPredicate.html" target="_top" xlink:title=" ">
<polygon fill="white" stroke="#666666" points="1497.62,-233.5 1352.62,-233.5 1352.62,-197 1497.62,-197 1497.62,-233.5"/>
<text text-anchor="start" x="1360.62" y="-220" font-family="FreeSans" font-size="10.00">DGtal::concepts::CPredicate</text>
<text text-anchor="middle" x="1425.12" y="-205.75" font-family="FreeSans" font-size="10.00">&lt; T, T::Point &gt;</text>
</a>
</g>
</g>
<!-- Node17&#45;&gt;Node18 -->
<g id="edge18_Node000017_Node000018" class="edge">
<title>Node17&#45;&gt;Node18</title>
<g id="a_edge18_Node000017_Node000018"><a xlink:title=" ">
<path fill="none" stroke="#63b8ff" d="M1024.71,-212.87C1087.13,-213.27 1170.97,-213.81 1245,-214.25 1280.3,-214.46 1319.5,-214.68 1352.22,-214.86"/>
<polygon fill="#63b8ff" stroke="#63b8ff" points="1024.85,-209.37 1014.82,-212.8 1024.8,-216.37 1024.85,-209.37"/>
</a>
</g>
</g>
<!-- Node19 -->
<g id="Node000019" class="node">
<title>Node19</title>
<g id="a_Node000019"><a xlink:href="structDGtal_1_1concepts_1_1CPointPredicate.html" target="_top" xlink:title="Aim: Defines a predicate on a point.">
<polygon fill="white" stroke="#666666" points="1742.75,-226.38 1552,-226.38 1552,-204.12 1742.75,-204.12 1742.75,-226.38"/>
<text text-anchor="middle" x="1647.38" y="-212.88" font-family="FreeSans" font-size="10.00">DGtal::concepts::CPointPredicate&lt; T &gt;</text>
</a>
</g>
</g>
<!-- Node18&#45;&gt;Node19 -->
<g id="edge19_Node000018_Node000019" class="edge">
<title>Node18&#45;&gt;Node19</title>
<g id="a_edge19_Node000018_Node000019"><a xlink:title=" ">
<path fill="none" stroke="#63b8ff" d="M1509.41,-215.25C1523.26,-215.25 1537.71,-215.25 1551.81,-215.25"/>
<polygon fill="#63b8ff" stroke="#63b8ff" points="1509.45,-211.75 1499.45,-215.25 1509.45,-218.75 1509.45,-211.75"/>
</a>
</g>
</g>
<!-- Node20 -->
<g id="Node000020" class="node">
<title>Node20</title>
<g id="a_Node000020"><a xlink:href="structDGtal_1_1concepts_1_1CDigitalSet.html" target="_top" xlink:title="Aim: Represents a set of points within the given domain. This set of points is modifiable by the user...">
<polygon fill="white" stroke="#666666" points="1933.12,-233.5 1802.38,-233.5 1802.38,-197 1933.12,-197 1933.12,-233.5"/>
<text text-anchor="start" x="1810.38" y="-220" font-family="FreeSans" font-size="10.00">DGtal::concepts::CDigital</text>
<text text-anchor="middle" x="1867.75" y="-205.75" font-family="FreeSans" font-size="10.00">Set&lt; T &gt;</text>
</a>
</g>
</g>
<!-- Node19&#45;&gt;Node20 -->
<g id="edge20_Node000019_Node000020" class="edge">
<title>Node19&#45;&gt;Node20</title>
<g id="a_edge20_Node000019_Node000020"><a xlink:title=" ">
<path fill="none" stroke="#63b8ff" d="M1754.46,-215.25C1770.76,-215.25 1787.15,-215.25 1802.18,-215.25"/>
<polygon fill="#63b8ff" stroke="#63b8ff" points="1754.72,-211.75 1744.72,-215.25 1754.72,-218.75 1754.72,-211.75"/>
</a>
</g>
</g>
<!-- Node22 -->
<g id="Node000022" class="node">
<title>Node22</title>
<g id="a_Node000022"><a xlink:href="structDGtal_1_1concepts_1_1CPredicate.html" target="_top" xlink:title="Aim: Defines a predicate function, ie. a functor mapping a domain into the set of booleans.">
<polygon fill="white" stroke="#666666" points="1201.5,-183.5 1056.5,-183.5 1056.5,-147 1201.5,-147 1201.5,-183.5"/>
<text text-anchor="start" x="1064.5" y="-170" font-family="FreeSans" font-size="10.00">DGtal::concepts::CPredicate</text>
<text text-anchor="middle" x="1129" y="-155.75" font-family="FreeSans" font-size="10.00">&lt; T, TElement &gt;</text>
</a>
</g>
</g>
<!-- Node21&#45;&gt;Node22 -->
<g id="edge22_Node000021_Node000022" class="edge">
<title>Node21&#45;&gt;Node22</title>
<g id="a_edge22_Node000021_Node000022"><a xlink:title=" ">
<path fill="none" stroke="#63b8ff" d="M840.53,-165.25C907.08,-165.25 995.17,-165.25 1056.21,-165.25"/>
<polygon fill="#63b8ff" stroke="#63b8ff" points="840.72,-161.75 830.72,-165.25 840.72,-168.75 840.72,-161.75"/>
</a>
</g>
</g>
<!-- Node22&#45;&gt;Node18 -->
<g id="edge23_Node000022_Node000018" class="edge">
<title>Node22&#45;&gt;Node18</title>
<g id="a_edge23_Node000022_Node000018"><a xlink:title=" ">
<path fill="none" stroke="orange" stroke-dasharray="5,2" d="M1213.16,-179.39C1256.96,-186.83 1310.14,-195.87 1352.15,-203.01"/>
<polygon fill="orange" stroke="orange" points="1213.89,-175.96 1203.44,-177.74 1212.72,-182.86 1213.89,-175.96"/>
</a>
</g>
<text text-anchor="middle" x="1280.62" y="-201" font-family="FreeSans" font-size="10.00" fill="grey"> &lt; T, T::Point &gt;</text>
</g>
<!-- Node23 -->
<g id="Node000023" class="node">
<title>Node23</title>
<g id="a_Node000023"><a xlink:href="structDGtal_1_1concepts_1_1CPredicate.html" target="_top" xlink:title=" ">
<polygon fill="white" stroke="#666666" points="1497.62,-107.5 1352.62,-107.5 1352.62,-71 1497.62,-71 1497.62,-107.5"/>
<text text-anchor="start" x="1360.62" y="-94" font-family="FreeSans" font-size="10.00">DGtal::concepts::CPredicate</text>
<text text-anchor="middle" x="1425.12" y="-79.75" font-family="FreeSans" font-size="10.00">&lt; T, T::Surfel &gt;</text>
</a>
</g>
</g>
<!-- Node22&#45;&gt;Node23 -->
<g id="edge24_Node000022_Node000023" class="edge">
<title>Node22&#45;&gt;Node23</title>
<g id="a_edge24_Node000022_Node000023"><a xlink:title=" ">
<path fill="none" stroke="orange" stroke-dasharray="5,2" d="M1212.88,-143.83C1256.73,-132.5 1310.05,-118.73 1352.15,-107.85"/>
<polygon fill="orange" stroke="orange" points="1212.22,-140.39 1203.42,-146.28 1213.97,-147.17 1212.22,-140.39"/>
</a>
</g>
<text text-anchor="middle" x="1280.62" y="-139" font-family="FreeSans" font-size="10.00" fill="grey"> &lt; T, T::Surfel &gt;</text>
</g>
<!-- Node25 -->
<g id="Node000025" class="node">
<title>Node25</title>
<g id="a_Node000025"><a xlink:href="structDGtal_1_1concepts_1_1CPredicate.html" target="_top" xlink:title=" ">
<polygon fill="white" stroke="#666666" points="1497.62,-173.5 1352.62,-173.5 1352.62,-137 1497.62,-137 1497.62,-173.5"/>
<text text-anchor="start" x="1360.62" y="-160" font-family="FreeSans" font-size="10.00">DGtal::concepts::CPredicate</text>
<text text-anchor="middle" x="1425.12" y="-145.75" font-family="FreeSans" font-size="10.00">&lt; T, T::Vertex &gt;</text>
</a>
</g>
</g>
<!-- Node22&#45;&gt;Node25 -->
<g id="edge26_Node000022_Node000025" class="edge">
<title>Node22&#45;&gt;Node25</title>
<g id="a_edge26_Node000022_Node000025"><a xlink:title=" ">
<path fill="none" stroke="orange" stroke-dasharray="5,2" d="M1213.44,-162.41C1257.18,-160.93 1310.23,-159.12 1352.15,-157.7"/>
<polygon fill="orange" stroke="orange" points="1213.34,-158.91 1203.46,-162.75 1213.58,-165.91 1213.34,-158.91"/>
</a>
</g>
<text text-anchor="middle" x="1280.62" y="-166" font-family="FreeSans" font-size="10.00" fill="grey"> &lt; T, T::Vertex &gt;</text>
</g>
<!-- Node24 -->
<g id="Node000024" class="node">
<title>Node24</title>
<g id="a_Node000024"><a xlink:href="structDGtal_1_1concepts_1_1CSurfelPredicate.html" target="_top" xlink:title="Aim: Defines a predicate on a surfel.">
<polygon fill="white" stroke="#666666" points="1712,-107.5 1582.75,-107.5 1582.75,-71 1712,-71 1712,-107.5"/>
<text text-anchor="start" x="1590.75" y="-94" font-family="FreeSans" font-size="10.00">DGtal::concepts::CSurfel</text>
<text text-anchor="middle" x="1647.38" y="-79.75" font-family="FreeSans" font-size="10.00">Predicate&lt; T &gt;</text>
</a>
</g>
</g>
<!-- Node23&#45;&gt;Node24 -->
<g id="edge25_Node000023_Node000024" class="edge">
<title>Node23&#45;&gt;Node24</title>
<g id="a_edge25_Node000023_Node000024"><a xlink:title=" ">
<path fill="none" stroke="#63b8ff" d="M1509.29,-89.25C1533.52,-89.25 1559.61,-89.25 1582.46,-89.25"/>
<polygon fill="#63b8ff" stroke="#63b8ff" points="1509.45,-85.75 1499.45,-89.25 1509.45,-92.75 1509.45,-85.75"/>
</a>
</g>
</g>
<!-- Node26 -->
<g id="Node000026" class="node">
<title>Node26</title>
<g id="a_Node000026"><a xlink:href="structDGtal_1_1concepts_1_1CVertexPredicate.html" target="_top" xlink:title="Aim: Defines a predicate on a vertex.">
<polygon fill="white" stroke="#666666" points="1713.5,-173.5 1581.25,-173.5 1581.25,-137 1713.5,-137 1713.5,-173.5"/>
<text text-anchor="start" x="1589.25" y="-160" font-family="FreeSans" font-size="10.00">DGtal::concepts::CVertex</text>
<text text-anchor="middle" x="1647.38" y="-145.75" font-family="FreeSans" font-size="10.00">Predicate&lt; T &gt;</text>
</a>
</g>
</g>
<!-- Node25&#45;&gt;Node26 -->
<g id="edge27_Node000025_Node000026" class="edge">
<title>Node25&#45;&gt;Node26</title>
<g id="a_edge27_Node000025_Node000026"><a xlink:title=" ">
<path fill="none" stroke="#63b8ff" d="M1509.4,-155.25C1533.09,-155.25 1558.53,-155.25 1580.99,-155.25"/>
<polygon fill="#63b8ff" stroke="#63b8ff" points="1509.45,-151.75 1499.45,-155.25 1509.45,-158.75 1509.45,-151.75"/>
</a>
</g>
</g>
<!-- Node28 -->
<g id="Node000028" class="node">
<title>Node28</title>
<g id="a_Node000028"><a xlink:href="structDGtal_1_1concepts_1_1CSCellEmbedder.html" target="_top" xlink:title="Aim: A cell embedder is a mapping from signed cells to Euclidean points. It adds inner types to funct...">
<polygon fill="white" stroke="#666666" points="1225.88,-29.38 1032.12,-29.38 1032.12,-7.12 1225.88,-7.12 1225.88,-29.38"/>
<text text-anchor="middle" x="1129" y="-15.88" font-family="FreeSans" font-size="10.00">DGtal::concepts::CSCellEmbedder&lt; T &gt;</text>
</a>
</g>
</g>
<!-- Node27&#45;&gt;Node28 -->
<g id="edge29_Node000027_Node000028" class="edge">
<title>Node27&#45;&gt;Node28</title>
<g id="a_edge29_Node000027_Node000028"><a xlink:title=" ">
<path fill="none" stroke="#63b8ff" d="M840.6,-24.28C898.71,-23.06 973.22,-21.5 1031.81,-20.27"/>
<polygon fill="#63b8ff" stroke="#63b8ff" points="840.64,-20.78 830.72,-24.49 840.79,-27.78 840.64,-20.78"/>
</a>
</g>
</g>
<!-- Node29 -->
<g id="Node000029" class="node">
<title>Node29</title>
<g id="a_Node000029"><a xlink:href="structDGtal_1_1concepts_1_1CDigitalSurfaceEmbedder.html" target="_top" xlink:title="Aim: A digital surface embedder is a specialized mapping from signed cells to Euclidean points....">
<polygon fill="white" stroke="#666666" points="1490.5,-36.5 1359.75,-36.5 1359.75,0 1490.5,0 1490.5,-36.5"/>
<text text-anchor="start" x="1367.75" y="-23" font-family="FreeSans" font-size="10.00">DGtal::concepts::CDigital</text>
<text text-anchor="middle" x="1425.12" y="-8.75" font-family="FreeSans" font-size="10.00">SurfaceEmbedder&lt; T &gt;</text>
</a>
</g>
</g>
<!-- Node28&#45;&gt;Node29 -->
<g id="edge30_Node000028_Node000029" class="edge">
<title>Node28&#45;&gt;Node29</title>
<g id="a_edge30_Node000028_Node000029"><a xlink:title=" ">
<path fill="none" stroke="#63b8ff" d="M1237.72,-18.25C1278.64,-18.25 1323.94,-18.25 1359.64,-18.25"/>
<polygon fill="#63b8ff" stroke="#63b8ff" points="1237.82,-14.75 1227.82,-18.25 1237.82,-21.75 1237.82,-14.75"/>
</a>
</g>
</g>
<!-- Node30&#45;&gt;Node23 -->
<g id="edge32_Node000030_Node000023" class="edge">
<title>Node30&#45;&gt;Node23</title>
<g id="a_edge32_Node000030_Node000023"><a xlink:title=" ">
<path fill="none" stroke="#63b8ff" d="M1024.58,-70.35C1102.62,-72.36 1216.73,-75.88 1316.25,-81.25 1327.88,-81.88 1340.2,-82.67 1352.2,-83.51"/>
<polygon fill="#63b8ff" stroke="#63b8ff" points="1024.93,-66.86 1014.85,-70.11 1024.75,-73.86 1024.93,-66.86"/>
</a>
</g>
</g>
<!-- Node31&#45;&gt;Node12 -->
<g id="edge34_Node000031_Node000012" class="edge">
<title>Node31&#45;&gt;Node12</title>
<g id="a_edge34_Node000031_Node000012"><a xlink:title=" ">
<path fill="none" stroke="#63b8ff" d="M1024.7,-260.24C1113.63,-264.03 1246.4,-269.68 1334.11,-273.42"/>
<polygon fill="#63b8ff" stroke="#63b8ff" points="1024.91,-256.75 1014.77,-259.82 1024.61,-263.74 1024.91,-256.75"/>
</a>
</g>
</g>
<!-- Node32&#45;&gt;Node25 -->
<g id="edge36_Node000032_Node000025" class="edge">
<title>Node32&#45;&gt;Node25</title>
<g id="a_edge36_Node000032_Node000025"><a xlink:title=" ">
<path fill="none" stroke="#63b8ff" d="M1024.64,-106.11C1103.19,-99.9 1217.97,-96.2 1316.25,-114.25 1339.9,-118.59 1365.08,-127.87 1385.16,-136.51"/>
<polygon fill="#63b8ff" stroke="#63b8ff" points="1024.51,-102.61 1014.83,-106.92 1025.08,-109.59 1024.51,-102.61"/>
</a>
</g>
</g>
</g>
</svg>

<g id="navigator" transform="translate(0 0)" fill="#404254">
  <rect fill="#f2f5e9" fill-opacity="0.5" stroke="#606060" stroke-width=".5" x="0" y="0" width="60" height="60"/>
  <use id="zoomplus" xlink:href="#zoomPlus" x="17" y="9" onmousedown="handleZoom(evt,'in')"/>
  <use id="zoomminus" xlink:href="#zoomMin" x="42" y="9" onmousedown="handleZoom(evt,'out')"/>
  <use id="reset" xlink:href="#resetDef" x="30" y="36" onmousedown="handleReset()"/>
   <use id="arrowup" xlink:href="#arrowUp" x="0" y="0" onmousedown="handlePan(0,-1)"/>
  <use id="arrowright" xlink:href="#arrowRight" x="0" y="0" onmousedown="handlePan(1,0)"/>
  <use id="arrowdown" xlink:href="#arrowDown" x="0" y="0" onmousedown="handlePan(0,1)"/>
  <use id="arrowleft" xlink:href="#arrowLeft" x="0" y="0" onmousedown="handlePan(-1,0)"/>
</g>
<svg viewBox="0 0 15 15" width="100%" height="30px" preserveAspectRatio="xMaxYMin meet">
 <g id="arrow_out" transform="scale(0.3 0.3)">
  <a xlink:href="structDGtal_1_1concepts_1_1CUnaryFunctor__inherit__graph_org.svg" target="_base">
   <rect id="button" ry="5" rx="5" y="6" x="6" height="38" width="38"
        fill="#f2f5e9" fill-opacity="0.5" stroke="#606060" stroke-width="1.0"/>
   <path id="arrow"
     d="M 11.500037,31.436501 C 11.940474,20.09759 22.043105,11.32322 32.158766,21.979434 L 37.068811,17.246167 C 37.068811,17.246167 37.088388,32 37.088388,32 L 22.160133,31.978069 C 22.160133,31.978069 26.997745,27.140456 26.997745,27.140456 C 18.528582,18.264221 13.291696,25.230495 11.500037,31.436501 z"
     style="fill:#404040;"/>
  </a>
 </g>
</svg>

<style type='text/css'>
<![CDATA[
[data-mouse-over-selected='false'] { opacity: 0.7; }
[data-mouse-over-selected='true']  { opacity: 1.0; }
]]>
</style>
<script type="application/ecmascript"><![CDATA[
document.addEventListener('DOMContentLoaded', (event) => {
  highlightEdges();
  highlightAdjacentNodes();
});
]]></script>
</svg>
