<?xml version="1.0" encoding="UTF-8" standalone="no"?>
<!DOCTYPE svg PUBLIC "-//W3C//DTD SVG 1.1//EN"
 "http://www.w3.org/Graphics/SVG/1.1/DTD/svg11.dtd">
<!-- Generated by graphviz version 11.0.0 (0)
 -->
<!-- Title: DGtal::concepts::CSinglePassRangeFromPoint&lt; T &gt; Pages: 1 -->
<svg width="526pt" height="100pt"
 viewBox="0.00 0.00 526.25 99.50" xmlns="http://www.w3.org/2000/svg" xmlns:xlink="http://www.w3.org/1999/xlink">
<g id="graph0" class="graph" transform="scale(1 1) rotate(0) translate(4 95.5)">
<title>DGtal::concepts::CSinglePassRangeFromPoint&lt; T &gt;</title>
<!-- Node1 -->
<g id="Node000001" class="node">
<title>Node1</title>
<g id="a_Node000001"><a xlink:title="Aim: refined concept of single pass range with a begin() method from a point.">
<polygon fill="#999999" stroke="#666666" points="518.25,-63.5 383,-63.5 383,-27 518.25,-27 518.25,-63.5"/>
<text text-anchor="start" x="391" y="-50" font-family="FreeSans" font-size="10.00">DGtal::concepts::CSingle</text>
<text text-anchor="middle" x="450.62" y="-35.75" font-family="FreeSans" font-size="10.00">PassRangeFromPoint&lt; T &gt;</text>
</a>
</g>
</g>
<!-- Node2 -->
<g id="Node000002" class="node">
<title>Node2</title>
<g id="a_Node000002"><a xlink:href="structDGtal_1_1concepts_1_1CSinglePassRange.html" target="_top" xlink:title="Aim: Defines the concept describing a range.">
<polygon fill="white" stroke="#666666" points="333.88,-91.5 204.62,-91.5 204.62,-55 333.88,-55 333.88,-91.5"/>
<text text-anchor="start" x="212.62" y="-78" font-family="FreeSans" font-size="10.00">DGtal::concepts::CSingle</text>
<text text-anchor="middle" x="269.25" y="-63.75" font-family="FreeSans" font-size="10.00">PassRange&lt; T &gt;</text>
</a>
</g>
</g>
<!-- Node2&#45;&gt;Node1 -->
<g id="edge1_Node000001_Node000002" class="edge">
<title>Node2&#45;&gt;Node1</title>
<g id="a_edge1_Node000001_Node000002"><a xlink:title=" ">
<path fill="none" stroke="#63b8ff" d="M345.45,-61.51C357.78,-59.59 370.5,-57.6 382.62,-55.71"/>
<polygon fill="#63b8ff" stroke="#63b8ff" points="345.08,-58.03 335.74,-63.03 346.16,-64.94 345.08,-58.03"/>
</a>
</g>
</g>
<!-- Node3 -->
<g id="Node000003" class="node">
<title>Node3</title>
<g id="a_Node000003"><a xlink:href="structDGtal_1_1concepts_1_1CConstSinglePassRange.html" target="_top" xlink:title="Aim: Defines the concept describing a const single pass range.">
<polygon fill="white" stroke="#666666" points="155.5,-63.5 0,-63.5 0,-27 155.5,-27 155.5,-63.5"/>
<text text-anchor="start" x="8" y="-50" font-family="FreeSans" font-size="10.00">DGtal::concepts::CConstSingle</text>
<text text-anchor="middle" x="77.75" y="-35.75" font-family="FreeSans" font-size="10.00">PassRange&lt; T &gt;</text>
</a>
</g>
</g>
<!-- Node3&#45;&gt;Node2 -->
<g id="edge2_Node000002_Node000003" class="edge">
<title>Node3&#45;&gt;Node2</title>
<g id="a_edge2_Node000002_Node000003"><a xlink:title=" ">
<path fill="none" stroke="#63b8ff" d="M166.85,-58.27C179.46,-60.13 192.23,-62.02 204.26,-63.79"/>
<polygon fill="#63b8ff" stroke="#63b8ff" points="167.73,-54.86 157.32,-56.86 166.71,-61.78 167.73,-54.86"/>
</a>
</g>
</g>
<!-- Node4 -->
<g id="Node000004" class="node">
<title>Node4</title>
<g id="a_Node000004"><a xlink:href="structDGtal_1_1concepts_1_1CConstSinglePassRangeFromPoint.html" target="_top" xlink:title="Aim: refined concept of const single pass range with a begin() method from a point.">
<polygon fill="white" stroke="#666666" points="347,-36.5 191.5,-36.5 191.5,0 347,0 347,-36.5"/>
<text text-anchor="start" x="199.5" y="-23" font-family="FreeSans" font-size="10.00">DGtal::concepts::CConstSingle</text>
<text text-anchor="middle" x="269.25" y="-8.75" font-family="FreeSans" font-size="10.00">PassRangeFromPoint&lt; T &gt;</text>
</a>
</g>
</g>
<!-- Node3&#45;&gt;Node4 -->
<g id="edge4_Node000004_Node000003" class="edge">
<title>Node3&#45;&gt;Node4</title>
<g id="a_edge4_Node000004_Node000003"><a xlink:title=" ">
<path fill="none" stroke="#63b8ff" d="M167.14,-32.66C175.19,-31.51 183.3,-30.35 191.24,-29.22"/>
<polygon fill="#63b8ff" stroke="#63b8ff" points="166.73,-29.18 157.33,-34.05 167.72,-36.11 166.73,-29.18"/>
</a>
</g>
</g>
<!-- Node4&#45;&gt;Node1 -->
<g id="edge3_Node000001_Node000004" class="edge">
<title>Node4&#45;&gt;Node1</title>
<g id="a_edge3_Node000001_Node000004"><a xlink:title=" ">
<path fill="none" stroke="#63b8ff" d="M358.74,-31.57C366.81,-32.78 374.9,-34 382.74,-35.18"/>
<polygon fill="#63b8ff" stroke="#63b8ff" points="359.27,-28.11 348.86,-30.08 358.23,-35.03 359.27,-28.11"/>
</a>
</g>
</g>
</g>
</svg>
