<?xml version="1.0" encoding="UTF-8" standalone="no"?>
<!DOCTYPE svg PUBLIC "-//W3C//DTD SVG 1.1//EN"
 "http://www.w3.org/Graphics/SVG/1.1/DTD/svg11.dtd">
<!-- Generated by graphviz version 11.0.0 (0)
 -->
<!-- Title: DGtal::concepts::CQuantity&lt; T &gt; Pages: 1 -->
<svg width="1335pt" height="192pt"
 viewBox="0.00 0.00 1335.00 191.50" xmlns="http://www.w3.org/2000/svg" xmlns:xlink="http://www.w3.org/1999/xlink">
<g id="graph0" class="graph" transform="scale(1 1) rotate(0) translate(4 187.5)">
<title>DGtal::concepts::CQuantity&lt; T &gt;</title>
<!-- Node1 -->
<g id="Node000001" class="node">
<title>Node1</title>
<g id="a_Node000001"><a xlink:title="Aim: defines the concept of quantity in DGtal.">
<polygon fill="#999999" stroke="#666666" points="569.25,-107.38 406.25,-107.38 406.25,-85.12 569.25,-85.12 569.25,-107.38"/>
<text text-anchor="middle" x="487.75" y="-93.88" font-family="FreeSans" font-size="10.00">DGtal::concepts::CQuantity&lt; T &gt;</text>
</a>
</g>
</g>
<!-- Node7 -->
<g id="Node000007" class="node">
<title>Node7</title>
<g id="a_Node000007"><a xlink:href="structDGtal_1_1concepts_1_1CBoundedNumber.html" target="_top" xlink:title="Aim: The concept CBoundedNumber specifies what are the bounded numbers. Models of this concept should...">
<polygon fill="white" stroke="#666666" points="750.25,-183.5 606,-183.5 606,-147 750.25,-147 750.25,-183.5"/>
<text text-anchor="start" x="614" y="-170" font-family="FreeSans" font-size="10.00">DGtal::concepts::CBounded</text>
<text text-anchor="middle" x="678.12" y="-155.75" font-family="FreeSans" font-size="10.00">Number&lt; T &gt;</text>
</a>
</g>
</g>
<!-- Node1&#45;&gt;Node7 -->
<g id="edge6_Node000001_Node000007" class="edge">
<title>Node1&#45;&gt;Node7</title>
<g id="a_edge6_Node000001_Node000007"><a xlink:title=" ">
<path fill="none" stroke="#63b8ff" d="M531,-111.72C559.21,-122.06 596.47,-135.71 626.3,-146.63"/>
<polygon fill="#63b8ff" stroke="#63b8ff" points="532.29,-108.47 521.7,-108.32 529.89,-115.05 532.29,-108.47"/>
</a>
</g>
</g>
<!-- Node8 -->
<g id="Node000008" class="node">
<title>Node8</title>
<g id="a_Node000008"><a xlink:href="structDGtal_1_1concepts_1_1CIntegralNumber.html" target="_top" xlink:title="Aim: Concept checking for Integral Numbers. Models of this concept should be listed in NumberTraits c...">
<polygon fill="white" stroke="#666666" points="938,-141.5 799.75,-141.5 799.75,-105 938,-105 938,-141.5"/>
<text text-anchor="start" x="807.75" y="-128" font-family="FreeSans" font-size="10.00">DGtal::concepts::CIntegral</text>
<text text-anchor="middle" x="868.88" y="-113.75" font-family="FreeSans" font-size="10.00">Number&lt; T &gt;</text>
</a>
</g>
</g>
<!-- Node1&#45;&gt;Node8 -->
<g id="edge7_Node000001_Node000008" class="edge">
<title>Node1&#45;&gt;Node8</title>
<g id="a_edge7_Node000001_Node000008"><a xlink:title=" ">
<path fill="none" stroke="#63b8ff" d="M581.08,-102.83C648.51,-107.63 738.45,-114.03 799.5,-118.38"/>
<polygon fill="#63b8ff" stroke="#63b8ff" points="581.35,-99.34 571.13,-102.12 580.85,-106.32 581.35,-99.34"/>
</a>
</g>
</g>
<!-- Node10 -->
<g id="Node000010" class="node">
<title>Node10</title>
<g id="a_Node000010"><a xlink:href="structDGtal_1_1concepts_1_1CSignedNumber.html" target="_top" xlink:title="Aim: Concept checking for Signed Numbers. Models of this concept should be listed in NumberTraits cla...">
<polygon fill="white" stroke="#666666" points="744.62,-91.5 611.62,-91.5 611.62,-55 744.62,-55 744.62,-91.5"/>
<text text-anchor="start" x="619.62" y="-78" font-family="FreeSans" font-size="10.00">DGtal::concepts::CSigned</text>
<text text-anchor="middle" x="678.12" y="-63.75" font-family="FreeSans" font-size="10.00">Number&lt; T &gt;</text>
</a>
</g>
</g>
<!-- Node1&#45;&gt;Node10 -->
<g id="edge9_Node000001_Node000010" class="edge">
<title>Node1&#45;&gt;Node10</title>
<g id="a_edge9_Node000001_Node000010"><a xlink:title=" ">
<path fill="none" stroke="#63b8ff" d="M580.84,-85.01C591.1,-83.75 601.4,-82.5 611.25,-81.29"/>
<polygon fill="#63b8ff" stroke="#63b8ff" points="580.74,-81.49 571.23,-86.18 581.58,-88.44 580.74,-81.49"/>
</a>
</g>
</g>
<!-- Node13 -->
<g id="Node000013" class="node">
<title>Node13</title>
<g id="a_Node000013"><a xlink:href="structDGtal_1_1concepts_1_1CUnsignedNumber.html" target="_top" xlink:title="Aim: Concept checking for Unsigned numbers. Models of this concept should be listed in NumberTraits c...">
<polygon fill="white" stroke="#666666" points="751,-36.5 605.25,-36.5 605.25,0 751,0 751,-36.5"/>
<text text-anchor="start" x="613.25" y="-23" font-family="FreeSans" font-size="10.00">DGtal::concepts::CUnsigned</text>
<text text-anchor="middle" x="678.12" y="-8.75" font-family="FreeSans" font-size="10.00">Number&lt; T &gt;</text>
</a>
</g>
</g>
<!-- Node1&#45;&gt;Node13 -->
<g id="edge13_Node000001_Node000013" class="edge">
<title>Node1&#45;&gt;Node13</title>
<g id="a_edge13_Node000001_Node000013"><a xlink:title=" ">
<path fill="none" stroke="#63b8ff" d="M525.3,-80.19C548.19,-70.22 578.34,-57.26 605.25,-46.25 612.81,-43.16 620.85,-39.95 628.71,-36.85"/>
<polygon fill="#63b8ff" stroke="#63b8ff" points="524.17,-76.86 516.4,-84.07 526.97,-83.28 524.17,-76.86"/>
</a>
</g>
</g>
<!-- Node2 -->
<g id="Node000002" class="node">
<title>Node2</title>
<g id="a_Node000002"><a xlink:href="structDGtal_1_1concepts_1_1CLabel.html" target="_top" xlink:title="Aim: Define the concept of DGtal labels. Models of CLabel can be default&#45;constructible,...">
<polygon fill="white" stroke="#666666" points="360.12,-127.38 212.12,-127.38 212.12,-105.12 360.12,-105.12 360.12,-127.38"/>
<text text-anchor="middle" x="286.12" y="-113.88" font-family="FreeSans" font-size="10.00">DGtal::concepts::CLabel&lt; T &gt;</text>
</a>
</g>
</g>
<!-- Node2&#45;&gt;Node1 -->
<g id="edge1_Node000001_Node000002" class="edge">
<title>Node2&#45;&gt;Node1</title>
<g id="a_edge1_Node000001_Node000002"><a xlink:title=" ">
<path fill="none" stroke="#63b8ff" d="M371.83,-107.76C383.16,-106.63 394.76,-105.47 406.03,-104.34"/>
<polygon fill="#63b8ff" stroke="#63b8ff" points="371.71,-104.26 362.11,-108.74 372.41,-111.22 371.71,-104.26"/>
</a>
</g>
</g>
<!-- Node3 -->
<g id="Node000003" class="node">
<title>Node3</title>
<g id="a_Node000003"><a xlink:href="structboost_1_1DefaultConstructible.html" target="_top" xlink:title="Go to http://www.sgi.com/tech/stl/DefaultConstructible.html.">
<polygon fill="white" stroke="#666666" points="166,-167.38 0,-167.38 0,-145.12 166,-145.12 166,-167.38"/>
<text text-anchor="middle" x="83" y="-153.88" font-family="FreeSans" font-size="10.00">boost::DefaultConstructible&lt; T &gt;</text>
</a>
</g>
</g>
<!-- Node3&#45;&gt;Node2 -->
<g id="edge2_Node000002_Node000003" class="edge">
<title>Node3&#45;&gt;Node2</title>
<g id="a_edge2_Node000002_Node000003"><a xlink:title=" ">
<path fill="none" stroke="#63b8ff" d="M153.58,-142.41C177.48,-137.66 203.98,-132.39 226.88,-127.83"/>
<polygon fill="#63b8ff" stroke="#63b8ff" points="153.05,-138.95 143.93,-144.33 154.42,-145.81 153.05,-138.95"/>
</a>
</g>
</g>
<!-- Node4 -->
<g id="Node000004" class="node">
<title>Node4</title>
<g id="a_Node000004"><a xlink:href="structboost_1_1Assignable.html" target="_top" xlink:title="Go to http://www.sgi.com/tech/stl/Assignable.html.">
<polygon fill="white" stroke="#666666" points="142.75,-127.38 23.25,-127.38 23.25,-105.12 142.75,-105.12 142.75,-127.38"/>
<text text-anchor="middle" x="83" y="-113.88" font-family="FreeSans" font-size="10.00">boost::Assignable&lt; T &gt;</text>
</a>
</g>
</g>
<!-- Node4&#45;&gt;Node2 -->
<g id="edge3_Node000002_Node000004" class="edge">
<title>Node4&#45;&gt;Node2</title>
<g id="a_edge3_Node000002_Node000004"><a xlink:title=" ">
<path fill="none" stroke="#63b8ff" d="M154.35,-116.25C172.96,-116.25 193.09,-116.25 211.85,-116.25"/>
<polygon fill="#63b8ff" stroke="#63b8ff" points="154.5,-112.75 144.5,-116.25 154.5,-119.75 154.5,-112.75"/>
</a>
</g>
</g>
<!-- Node5 -->
<g id="Node000005" class="node">
<title>Node5</title>
<g id="a_Node000005"><a xlink:href="structboost_1_1EqualityComparable.html" target="_top" xlink:title="Go to http://www.sgi.com/tech/stl/EqualityComparable.html.">
<polygon fill="white" stroke="#666666" points="163.75,-87.38 2.25,-87.38 2.25,-65.12 163.75,-65.12 163.75,-87.38"/>
<text text-anchor="middle" x="83" y="-73.88" font-family="FreeSans" font-size="10.00">boost::EqualityComparable&lt; T &gt;</text>
</a>
</g>
</g>
<!-- Node5&#45;&gt;Node2 -->
<g id="edge4_Node000002_Node000005" class="edge">
<title>Node5&#45;&gt;Node2</title>
<g id="a_edge4_Node000002_Node000005"><a xlink:title=" ">
<path fill="none" stroke="#63b8ff" d="M153.58,-90.09C177.48,-94.84 203.98,-100.11 226.88,-104.67"/>
<polygon fill="#63b8ff" stroke="#63b8ff" points="154.42,-86.69 143.93,-88.17 153.05,-93.55 154.42,-86.69"/>
</a>
</g>
</g>
<!-- Node6 -->
<g id="Node000006" class="node">
<title>Node6</title>
<g id="a_Node000006"><a xlink:href="structboost_1_1LessThanComparable.html" target="_top" xlink:title="Go to http://www.sgi.com/tech/stl/LessThanComparable.html.">
<polygon fill="white" stroke="#666666" points="370.25,-87.38 202,-87.38 202,-65.12 370.25,-65.12 370.25,-87.38"/>
<text text-anchor="middle" x="286.12" y="-73.88" font-family="FreeSans" font-size="10.00">boost::LessThanComparable&lt; T &gt;</text>
</a>
</g>
</g>
<!-- Node6&#45;&gt;Node1 -->
<g id="edge5_Node000001_Node000006" class="edge">
<title>Node6&#45;&gt;Node1</title>
<g id="a_edge5_Node000001_Node000006"><a xlink:title=" ">
<path fill="none" stroke="#63b8ff" d="M381.89,-85.74C389.89,-86.55 397.94,-87.35 405.82,-88.14"/>
<polygon fill="#63b8ff" stroke="#63b8ff" points="382.43,-82.28 372.13,-84.77 381.73,-89.25 382.43,-82.28"/>
</a>
</g>
</g>
<!-- Node9 -->
<g id="Node000009" class="node">
<title>Node9</title>
<g id="a_Node000009"><a xlink:href="structDGtal_1_1concepts_1_1CInteger.html" target="_top" xlink:title="Aim: Concept checking for Integer Numbers. More precisely, this concept is a refinement of both CEucl...">
<polygon fill="white" stroke="#666666" points="1327,-106.38 1167.75,-106.38 1167.75,-84.12 1327,-84.12 1327,-106.38"/>
<text text-anchor="middle" x="1247.38" y="-92.88" font-family="FreeSans" font-size="10.00">DGtal::concepts::CInteger&lt; T &gt;</text>
</a>
</g>
</g>
<!-- Node8&#45;&gt;Node9 -->
<g id="edge8_Node000008_Node000009" class="edge">
<title>Node8&#45;&gt;Node9</title>
<g id="a_edge8_Node000008_Node000009"><a xlink:title=" ">
<path fill="none" stroke="#63b8ff" d="M949.77,-117.31C1013.93,-112.54 1103.58,-105.87 1167.48,-101.12"/>
<polygon fill="#63b8ff" stroke="#63b8ff" points="949.72,-113.8 940,-118.03 950.23,-120.78 949.72,-113.8"/>
</a>
</g>
</g>
<!-- Node11 -->
<g id="Node000011" class="node">
<title>Node11</title>
<g id="a_Node000011"><a xlink:href="structDGtal_1_1concepts_1_1CCommutativeRing.html" target="_top" xlink:title="Aim: Defines the mathematical concept equivalent to a unitary commutative ring.">
<polygon fill="white" stroke="#666666" points="950.75,-86.5 787,-86.5 787,-50 950.75,-50 950.75,-86.5"/>
<text text-anchor="start" x="795" y="-73" font-family="FreeSans" font-size="10.00">DGtal::concepts::CCommutative</text>
<text text-anchor="middle" x="868.88" y="-58.75" font-family="FreeSans" font-size="10.00">Ring&lt; T &gt;</text>
</a>
</g>
</g>
<!-- Node10&#45;&gt;Node11 -->
<g id="edge10_Node000010_Node000011" class="edge">
<title>Node10&#45;&gt;Node11</title>
<g id="a_edge10_Node000010_Node000011"><a xlink:title=" ">
<path fill="none" stroke="#63b8ff" d="M756.13,-71.21C766.22,-70.94 776.59,-70.67 786.74,-70.4"/>
<polygon fill="#63b8ff" stroke="#63b8ff" points="756.29,-67.7 746.39,-71.47 756.48,-74.7 756.29,-67.7"/>
</a>
</g>
</g>
<!-- Node12 -->
<g id="Node000012" class="node">
<title>Node12</title>
<g id="a_Node000012"><a xlink:href="structDGtal_1_1concepts_1_1CEuclideanRing.html" target="_top" xlink:title="Aim: Defines the mathematical concept equivalent to a unitary commutative ring with a division operat...">
<polygon fill="white" stroke="#666666" points="1131.75,-90.5 986.75,-90.5 986.75,-54 1131.75,-54 1131.75,-90.5"/>
<text text-anchor="start" x="994.75" y="-77" font-family="FreeSans" font-size="10.00">DGtal::concepts::CEuclidean</text>
<text text-anchor="middle" x="1059.25" y="-62.75" font-family="FreeSans" font-size="10.00">Ring&lt; T &gt;</text>
</a>
</g>
</g>
<!-- Node11&#45;&gt;Node12 -->
<g id="edge11_Node000011_Node000012" class="edge">
<title>Node11&#45;&gt;Node12</title>
<g id="a_edge11_Node000011_Node000012"><a xlink:title=" ">
<path fill="none" stroke="#63b8ff" d="M962.48,-70.22C970.53,-70.39 978.6,-70.56 986.45,-70.73"/>
<polygon fill="#63b8ff" stroke="#63b8ff" points="962.72,-66.72 952.64,-70.01 962.57,-73.72 962.72,-66.72"/>
</a>
</g>
</g>
<!-- Node12&#45;&gt;Node9 -->
<g id="edge12_Node000012_Node000009" class="edge">
<title>Node12&#45;&gt;Node9</title>
<g id="a_edge12_Node000012_Node000009"><a xlink:title=" ">
<path fill="none" stroke="#63b8ff" d="M1143.43,-82.53C1151.44,-83.52 1159.54,-84.52 1167.5,-85.5"/>
<polygon fill="#63b8ff" stroke="#63b8ff" points="1144.07,-79.08 1133.71,-81.33 1143.21,-86.03 1144.07,-79.08"/>
</a>
</g>
</g>
</g>
</svg>
