<?xml version="1.0" encoding="UTF-8" standalone="no"?>
<!DOCTYPE svg PUBLIC "-//W3C//DTD SVG 1.1//EN"
 "http://www.w3.org/Graphics/SVG/1.1/DTD/svg11.dtd">
<!-- Generated by graphviz version 11.0.0 (0)
 -->
<!-- Title: DGtal::UpdateLastImagePosition&lt; Space, KSpace &gt; Pages: 1 -->
<svg width="188pt" height="161pt"
 viewBox="0.00 0.00 187.50 161.00" xmlns="http://www.w3.org/2000/svg" xmlns:xlink="http://www.w3.org/1999/xlink">
<g id="graph0" class="graph" transform="scale(1 1) rotate(0) translate(4 157)">
<title>DGtal::UpdateLastImagePosition&lt; Space, KSpace &gt;</title>
<!-- Node1 -->
<g id="Node000001" class="node">
<title>Node1</title>
<g id="a_Node000001"><a xlink:title="class to modify the position and orientation of an textured 2D image.">
<polygon fill="#999999" stroke="#666666" points="173.88,-36.5 5.62,-36.5 5.62,0 173.88,0 173.88,-36.5"/>
<text text-anchor="start" x="13.62" y="-23" font-family="FreeSans" font-size="10.00">DGtal::UpdateLastImagePosition</text>
<text text-anchor="middle" x="89.75" y="-8.75" font-family="FreeSans" font-size="10.00">&lt; Space, KSpace &gt;</text>
</a>
</g>
</g>
<!-- Node2 -->
<g id="Node000002" class="node">
<title>Node2</title>
<g id="a_Node000002"><a xlink:href="structDGtal_1_1DrawWithViewer3DModifier.html" target="_top" xlink:title="Base class specifying the methods for classes which intend to modify a Viewer3D stream.">
<polygon fill="white" stroke="#666666" points="178.75,-94.75 0.75,-94.75 0.75,-72.5 178.75,-72.5 178.75,-94.75"/>
<text text-anchor="middle" x="89.75" y="-81.25" font-family="FreeSans" font-size="10.00">DGtal::DrawWithViewer3DModifier</text>
</a>
</g>
</g>
<!-- Node2&#45;&gt;Node1 -->
<g id="edge1_Node000001_Node000002" class="edge">
<title>Node2&#45;&gt;Node1</title>
<g id="a_edge1_Node000001_Node000002"><a xlink:title=" ">
<path fill="none" stroke="#63b8ff" d="M89.75,-60.92C89.75,-53.1 89.75,-44.36 89.75,-36.92"/>
<polygon fill="#63b8ff" stroke="#63b8ff" points="86.25,-60.65 89.75,-70.65 93.25,-60.65 86.25,-60.65"/>
</a>
</g>
</g>
<!-- Node3 -->
<g id="Node000003" class="node">
<title>Node3</title>
<g id="a_Node000003"><a xlink:href="structDGtal_1_1DrawWithDisplay3DModifier.html" target="_top" xlink:title="Base class specifying the methods for classes which intend to modify a Viewer3D stream.">
<polygon fill="white" stroke="#666666" points="179.5,-153 0,-153 0,-130.75 179.5,-130.75 179.5,-153"/>
<text text-anchor="middle" x="89.75" y="-139.5" font-family="FreeSans" font-size="10.00">DGtal::DrawWithDisplay3DModifier</text>
</a>
</g>
</g>
<!-- Node3&#45;&gt;Node2 -->
<g id="edge2_Node000002_Node000003" class="edge">
<title>Node3&#45;&gt;Node2</title>
<g id="a_edge2_Node000002_Node000003"><a xlink:title=" ">
<path fill="none" stroke="#63b8ff" d="M89.75,-118.85C89.75,-110.7 89.75,-101.83 89.75,-95.16"/>
<polygon fill="#63b8ff" stroke="#63b8ff" points="86.25,-118.78 89.75,-128.78 93.25,-118.78 86.25,-118.78"/>
</a>
</g>
</g>
</g>
</svg>
