<?xml version="1.0" encoding="UTF-8" standalone="no"?>
<!DOCTYPE svg PUBLIC "-//W3C//DTD SVG 1.1//EN"
 "http://www.w3.org/Graphics/SVG/1.1/DTD/svg11.dtd">
<!-- Generated by graphviz version 11.0.0 (0)
 -->
<!-- Title: DGtal::MultipleAssociativeCategory Pages: 1 -->
<svg width="674pt" height="210pt"
 viewBox="0.00 0.00 674.25 209.50" xmlns="http://www.w3.org/2000/svg" xmlns:xlink="http://www.w3.org/1999/xlink">
<g id="graph0" class="graph" transform="scale(1 1) rotate(0) translate(4 205.5)">
<title>DGtal::MultipleAssociativeCategory</title>
<!-- Node1 -->
<g id="Node000001" class="node">
<title>Node1</title>
<g id="a_Node000001"><a xlink:title=" ">
<polygon fill="#999999" stroke="#666666" points="487.5,-118.5 350.75,-118.5 350.75,-82 487.5,-82 487.5,-118.5"/>
<text text-anchor="start" x="358.75" y="-105" font-family="FreeSans" font-size="10.00">DGtal::MultipleAssociative</text>
<text text-anchor="middle" x="419.12" y="-90.75" font-family="FreeSans" font-size="10.00">Category</text>
</a>
</g>
</g>
<!-- Node4 -->
<g id="Node000004" class="node">
<title>Node4</title>
<g id="a_Node000004"><a xlink:href="structDGtal_1_1MultimapAssociativeCategory.html" target="_top" xlink:title=" ">
<polygon fill="white" stroke="#666666" points="666.25,-201.5 523.5,-201.5 523.5,-165 666.25,-165 666.25,-201.5"/>
<text text-anchor="start" x="531.5" y="-188" font-family="FreeSans" font-size="10.00">DGtal::MultimapAssociative</text>
<text text-anchor="middle" x="594.88" y="-173.75" font-family="FreeSans" font-size="10.00">Category</text>
</a>
</g>
</g>
<!-- Node1&#45;&gt;Node4 -->
<g id="edge3_Node000001_Node000004" class="edge">
<title>Node1&#45;&gt;Node4</title>
<g id="a_edge3_Node000001_Node000004"><a xlink:title=" ">
<path fill="none" stroke="#63b8ff" d="M462.58,-124.2C481.06,-134.26 503.11,-145.81 523.5,-155.25 530.3,-158.4 537.56,-161.54 544.74,-164.51"/>
<polygon fill="#63b8ff" stroke="#63b8ff" points="464.49,-121.25 454.04,-119.51 461.12,-127.39 464.49,-121.25"/>
</a>
</g>
</g>
<!-- Node5 -->
<g id="Node000005" class="node">
<title>Node5</title>
<g id="a_Node000005"><a xlink:href="structDGtal_1_1MultisetAssociativeCategory.html" target="_top" xlink:title=" ">
<polygon fill="white" stroke="#666666" points="663.25,-146.5 526.5,-146.5 526.5,-110 663.25,-110 663.25,-146.5"/>
<text text-anchor="start" x="534.5" y="-133" font-family="FreeSans" font-size="10.00">DGtal::MultisetAssociative</text>
<text text-anchor="middle" x="594.88" y="-118.75" font-family="FreeSans" font-size="10.00">Category</text>
</a>
</g>
</g>
<!-- Node1&#45;&gt;Node5 -->
<g id="edge4_Node000001_Node000005" class="edge">
<title>Node1&#45;&gt;Node5</title>
<g id="a_edge4_Node000001_Node000005"><a xlink:title=" ">
<path fill="none" stroke="#63b8ff" d="M499.12,-112.98C508.13,-114.43 517.25,-115.9 526.1,-117.33"/>
<polygon fill="#63b8ff" stroke="#63b8ff" points="499.72,-109.53 489.29,-111.4 498.61,-116.44 499.72,-109.53"/>
</a>
</g>
</g>
<!-- Node6 -->
<g id="Node000006" class="node">
<title>Node6</title>
<g id="a_Node000006"><a xlink:href="structDGtal_1_1UnorderedMultimapAssociativeCategory.html" target="_top" xlink:title=" ">
<polygon fill="white" stroke="#666666" points="666.25,-91.5 523.5,-91.5 523.5,-55 666.25,-55 666.25,-91.5"/>
<text text-anchor="start" x="531.5" y="-78" font-family="FreeSans" font-size="10.00">DGtal::UnorderedMultimap</text>
<text text-anchor="middle" x="594.88" y="-63.75" font-family="FreeSans" font-size="10.00">AssociativeCategory</text>
</a>
</g>
</g>
<!-- Node1&#45;&gt;Node6 -->
<g id="edge5_Node000001_Node000006" class="edge">
<title>Node1&#45;&gt;Node6</title>
<g id="a_edge5_Node000001_Node000006"><a xlink:title=" ">
<path fill="none" stroke="#63b8ff" d="M499.09,-87.98C507.14,-86.73 515.28,-85.46 523.23,-84.23"/>
<polygon fill="#63b8ff" stroke="#63b8ff" points="498.64,-84.51 489.29,-89.5 499.71,-91.42 498.64,-84.51"/>
</a>
</g>
</g>
<!-- Node7 -->
<g id="Node000007" class="node">
<title>Node7</title>
<g id="a_Node000007"><a xlink:href="structDGtal_1_1UnorderedMultisetAssociativeCategory.html" target="_top" xlink:title=" ">
<polygon fill="white" stroke="#666666" points="663.25,-36.5 526.5,-36.5 526.5,0 663.25,0 663.25,-36.5"/>
<text text-anchor="start" x="534.5" y="-23" font-family="FreeSans" font-size="10.00">DGtal::UnorderedMultiset</text>
<text text-anchor="middle" x="594.88" y="-8.75" font-family="FreeSans" font-size="10.00">AssociativeCategory</text>
</a>
</g>
</g>
<!-- Node1&#45;&gt;Node7 -->
<g id="edge6_Node000001_Node000007" class="edge">
<title>Node1&#45;&gt;Node7</title>
<g id="a_edge6_Node000001_Node000007"><a xlink:title=" ">
<path fill="none" stroke="#63b8ff" d="M463.73,-76.21C481.98,-66.47 503.56,-55.4 523.5,-46.25 530.43,-43.07 537.84,-39.89 545.14,-36.88"/>
<polygon fill="#63b8ff" stroke="#63b8ff" points="462.16,-73.07 455.01,-80.89 465.48,-79.24 462.16,-73.07"/>
</a>
</g>
</g>
<!-- Node2 -->
<g id="Node000002" class="node">
<title>Node2</title>
<g id="a_Node000002"><a xlink:href="structDGtal_1_1AssociativeCategory.html" target="_top" xlink:title=" ">
<polygon fill="white" stroke="#666666" points="314.75,-111.38 172.75,-111.38 172.75,-89.12 314.75,-89.12 314.75,-111.38"/>
<text text-anchor="middle" x="243.75" y="-97.88" font-family="FreeSans" font-size="10.00">DGtal::AssociativeCategory</text>
</a>
</g>
</g>
<!-- Node2&#45;&gt;Node1 -->
<g id="edge1_Node000001_Node000002" class="edge">
<title>Node2&#45;&gt;Node1</title>
<g id="a_edge1_Node000001_Node000002"><a xlink:title=" ">
<path fill="none" stroke="#63b8ff" d="M326.16,-100.25C334.26,-100.25 342.43,-100.25 350.38,-100.25"/>
<polygon fill="#63b8ff" stroke="#63b8ff" points="326.28,-96.75 316.28,-100.25 326.28,-103.75 326.28,-96.75"/>
</a>
</g>
</g>
<!-- Node3 -->
<g id="Node000003" class="node">
<title>Node3</title>
<g id="a_Node000003"><a xlink:href="structDGtal_1_1ContainerCategory.html" target="_top" xlink:title=" ">
<polygon fill="white" stroke="#666666" points="136.75,-111.38 0,-111.38 0,-89.12 136.75,-89.12 136.75,-111.38"/>
<text text-anchor="middle" x="68.38" y="-97.88" font-family="FreeSans" font-size="10.00">DGtal::ContainerCategory</text>
</a>
</g>
</g>
<!-- Node3&#45;&gt;Node2 -->
<g id="edge2_Node000002_Node000003" class="edge">
<title>Node3&#45;&gt;Node2</title>
<g id="a_edge2_Node000002_Node000003"><a xlink:title=" ">
<path fill="none" stroke="#63b8ff" d="M148.17,-100.25C156.2,-100.25 164.32,-100.25 172.26,-100.25"/>
<polygon fill="#63b8ff" stroke="#63b8ff" points="148.42,-96.75 138.42,-100.25 148.42,-103.75 148.42,-96.75"/>
</a>
</g>
</g>
</g>
</svg>
