<?xml version="1.0" encoding="UTF-8" standalone="no"?>
<!DOCTYPE svg PUBLIC "-//W3C//DTD SVG 1.1//EN"
 "http://www.w3.org/Graphics/SVG/1.1/DTD/svg11.dtd">
<!-- Generated by graphviz version 11.0.0 (0)
 -->
<!-- Title: DGtal::ConvexHullCommonKernel&lt; dim, TCoordinateInteger, TInternalInteger &gt; Pages: 1 -->
<svg width="697pt" height="266pt"
 viewBox="0.00 0.00 697.25 265.75" xmlns="http://www.w3.org/2000/svg" xmlns:xlink="http://www.w3.org/1999/xlink">
<g id="graph0" class="graph" transform="scale(1 1) rotate(0) translate(4 261.75)">
<title>DGtal::ConvexHullCommonKernel&lt; dim, TCoordinateInteger, TInternalInteger &gt;</title>
<!-- Node1 -->
<g id="Node000001" class="node">
<title>Node1</title>
<g id="a_Node000001"><a xlink:title="Aim: the common part of all geometric kernels for computing the convex hull or Delaunay triangulation...">
<polygon fill="#999999" stroke="#666666" points="172.75,-153.75 0,-153.75 0,-103 172.75,-103 172.75,-153.75"/>
<text text-anchor="start" x="8" y="-140.25" font-family="FreeSans" font-size="10.00">DGtal::ConvexHullCommonKernel</text>
<text text-anchor="start" x="8" y="-126" font-family="FreeSans" font-size="10.00">&lt; dim, TCoordinateInteger,</text>
<text text-anchor="middle" x="86.38" y="-111.75" font-family="FreeSans" font-size="10.00"> TInternalInteger &gt;</text>
</a>
</g>
</g>
<!-- Node2 -->
<g id="Node000002" class="node">
<title>Node2</title>
<g id="a_Node000002"><a xlink:href="structDGtal_1_1ConvexHullCommonKernel.html" target="_top" xlink:title=" ">
<polygon fill="white" stroke="#666666" points="482.75,-188.75 310,-188.75 310,-138 482.75,-138 482.75,-188.75"/>
<text text-anchor="start" x="318" y="-175.25" font-family="FreeSans" font-size="10.00">DGtal::ConvexHullCommonKernel</text>
<text text-anchor="start" x="318" y="-161" font-family="FreeSans" font-size="10.00">&lt; dim, DGtal::int64_t, DGtal</text>
<text text-anchor="middle" x="396.38" y="-146.75" font-family="FreeSans" font-size="10.00">::int64_t &gt;</text>
</a>
</g>
</g>
<!-- Node1&#45;&gt;Node2 -->
<g id="edge1_Node000001_Node000002" class="edge">
<title>Node1&#45;&gt;Node2</title>
<g id="a_edge1_Node000001_Node000002"><a xlink:title=" ">
<path fill="none" stroke="orange" stroke-dasharray="5,2" d="M184.58,-139.42C224.65,-143.97 270.69,-149.21 309.51,-153.62"/>
<polygon fill="orange" stroke="orange" points="185.01,-135.95 174.67,-138.3 184.21,-142.9 185.01,-135.95"/>
</a>
</g>
<text text-anchor="start" x="196.75" y="-169.38" font-family="FreeSans" font-size="10.00" fill="grey"> &lt; dim, DGtal::int64</text>
<text text-anchor="middle" x="241.38" y="-155.12" font-family="FreeSans" font-size="10.00" fill="grey">_t, DGtal::int64_t &gt;</text>
</g>
<!-- Node5 -->
<g id="Node000005" class="node">
<title>Node5</title>
<g id="a_Node000005"><a xlink:href="structDGtal_1_1ConvexHullCommonKernel.html" target="_top" xlink:title=" ">
<polygon fill="white" stroke="#666666" points="482.75,-119.75 310,-119.75 310,-69 482.75,-69 482.75,-119.75"/>
<text text-anchor="start" x="318" y="-106.25" font-family="FreeSans" font-size="10.00">DGtal::ConvexHullCommonKernel</text>
<text text-anchor="start" x="318" y="-92" font-family="FreeSans" font-size="10.00">&lt; dim+1, DGtal::int64_t,</text>
<text text-anchor="middle" x="396.38" y="-77.75" font-family="FreeSans" font-size="10.00"> DGtal::int64_t &gt;</text>
</a>
</g>
</g>
<!-- Node1&#45;&gt;Node5 -->
<g id="edge4_Node000001_Node000005" class="edge">
<title>Node1&#45;&gt;Node5</title>
<g id="a_edge4_Node000001_Node000005"><a xlink:title=" ">
<path fill="none" stroke="orange" stroke-dasharray="5,2" d="M184.16,-108.79C186.37,-108.47 188.57,-108.16 190.75,-107.88 229.58,-102.77 272.82,-99.56 309.51,-97.55"/>
<polygon fill="orange" stroke="orange" points="183.82,-105.3 174.47,-110.28 184.89,-112.22 183.82,-105.3"/>
</a>
</g>
<text text-anchor="start" x="190.75" y="-126.38" font-family="FreeSans" font-size="10.00" fill="grey"> &lt; dim+1, DGtal::int64</text>
<text text-anchor="middle" x="241.38" y="-112.12" font-family="FreeSans" font-size="10.00" fill="grey">_t, DGtal::int64_t &gt;</text>
</g>
<!-- Node3 -->
<g id="Node000003" class="node">
<title>Node3</title>
<g id="a_Node000003"><a xlink:href="structDGtal_1_1ConvexHullIntegralKernel.html" target="_top" xlink:title="Aim: a geometric kernel to compute the convex hull of digital points with integer&#45;only arithmetic.">
<polygon fill="white" stroke="#666666" points="689.25,-257.75 518.75,-257.75 518.75,-207 689.25,-207 689.25,-257.75"/>
<text text-anchor="start" x="526.75" y="-244.25" font-family="FreeSans" font-size="10.00">DGtal::ConvexHullIntegral</text>
<text text-anchor="start" x="526.75" y="-230" font-family="FreeSans" font-size="10.00">Kernel&lt; dim, TCoordinateInteger,</text>
<text text-anchor="middle" x="604" y="-215.75" font-family="FreeSans" font-size="10.00"> TInternalInteger &gt;</text>
</a>
</g>
</g>
<!-- Node2&#45;&gt;Node3 -->
<g id="edge2_Node000002_Node000003" class="edge">
<title>Node2&#45;&gt;Node3</title>
<g id="a_edge2_Node000002_Node000003"><a xlink:title=" ">
<path fill="none" stroke="#63b8ff" d="M485.03,-192.79C498.62,-197.35 512.56,-202.03 525.89,-206.5"/>
<polygon fill="#63b8ff" stroke="#63b8ff" points="486.26,-189.51 475.67,-189.65 484.04,-196.15 486.26,-189.51"/>
</a>
</g>
</g>
<!-- Node4 -->
<g id="Node000004" class="node">
<title>Node4</title>
<g id="a_Node000004"><a xlink:href="structDGtal_1_1ConvexHullRationalKernel.html" target="_top" xlink:title="Aim: a geometric kernel to compute the convex hull of floating points with integer&#45;only arithmetic....">
<polygon fill="white" stroke="#666666" points="689.25,-188.75 518.75,-188.75 518.75,-138 689.25,-138 689.25,-188.75"/>
<text text-anchor="start" x="526.75" y="-175.25" font-family="FreeSans" font-size="10.00">DGtal::ConvexHullRational</text>
<text text-anchor="start" x="526.75" y="-161" font-family="FreeSans" font-size="10.00">Kernel&lt; dim, TCoordinateInteger,</text>
<text text-anchor="middle" x="604" y="-146.75" font-family="FreeSans" font-size="10.00"> TInternalInteger &gt;</text>
</a>
</g>
</g>
<!-- Node2&#45;&gt;Node4 -->
<g id="edge3_Node000002_Node000004" class="edge">
<title>Node2&#45;&gt;Node4</title>
<g id="a_edge3_Node000002_Node000004"><a xlink:title=" ">
<path fill="none" stroke="#63b8ff" d="M494.39,-163.38C502.41,-163.38 510.49,-163.38 518.42,-163.38"/>
<polygon fill="#63b8ff" stroke="#63b8ff" points="494.6,-159.88 484.6,-163.38 494.6,-166.88 494.6,-159.88"/>
</a>
</g>
</g>
<!-- Node6 -->
<g id="Node000006" class="node">
<title>Node6</title>
<g id="a_Node000006"><a xlink:href="structDGtal_1_1DelaunayIntegralKernel.html" target="_top" xlink:title="Aim: a geometric kernel to compute the Delaunay triangulation of digital points with integer&#45;only ari...">
<polygon fill="white" stroke="#666666" points="683.62,-119.75 524.38,-119.75 524.38,-69 683.62,-69 683.62,-119.75"/>
<text text-anchor="start" x="532.38" y="-106.25" font-family="FreeSans" font-size="10.00">DGtal::DelaunayIntegralKernel</text>
<text text-anchor="start" x="532.38" y="-92" font-family="FreeSans" font-size="10.00">&lt; dim, TCoordinateInteger,</text>
<text text-anchor="middle" x="604" y="-77.75" font-family="FreeSans" font-size="10.00"> TInternalInteger &gt;</text>
</a>
</g>
</g>
<!-- Node5&#45;&gt;Node6 -->
<g id="edge5_Node000005_Node000006" class="edge">
<title>Node5&#45;&gt;Node6</title>
<g id="a_edge5_Node000005_Node000006"><a xlink:title=" ">
<path fill="none" stroke="#63b8ff" d="M494.6,-94.38C504.45,-94.38 514.37,-94.38 524,-94.38"/>
<polygon fill="#63b8ff" stroke="#63b8ff" points="494.6,-90.88 484.6,-94.38 494.6,-97.88 494.6,-90.88"/>
</a>
</g>
</g>
<!-- Node7 -->
<g id="Node000007" class="node">
<title>Node7</title>
<g id="a_Node000007"><a xlink:href="structDGtal_1_1DelaunayRationalKernel.html" target="_top" xlink:title="Aim: a geometric kernel to compute the Delaunay triangulation of a range of floating points with inte...">
<polygon fill="white" stroke="#666666" points="683.62,-50.75 524.38,-50.75 524.38,0 683.62,0 683.62,-50.75"/>
<text text-anchor="start" x="532.38" y="-37.25" font-family="FreeSans" font-size="10.00">DGtal::DelaunayRationalKernel</text>
<text text-anchor="start" x="532.38" y="-23" font-family="FreeSans" font-size="10.00">&lt; dim, TCoordinateInteger,</text>
<text text-anchor="middle" x="604" y="-8.75" font-family="FreeSans" font-size="10.00"> TInternalInteger &gt;</text>
</a>
</g>
</g>
<!-- Node5&#45;&gt;Node7 -->
<g id="edge6_Node000005_Node000007" class="edge">
<title>Node5&#45;&gt;Node7</title>
<g id="a_edge6_Node000005_Node000007"><a xlink:title=" ">
<path fill="none" stroke="#63b8ff" d="M485.03,-64.96C498.62,-60.4 512.56,-55.72 525.89,-51.25"/>
<polygon fill="#63b8ff" stroke="#63b8ff" points="484.04,-61.6 475.67,-68.1 486.26,-68.24 484.04,-61.6"/>
</a>
</g>
</g>
</g>
</svg>
