<?xml version="1.0" encoding="UTF-8" standalone="no"?>
<!DOCTYPE svg PUBLIC "-//W3C//DTD SVG 1.1//EN"
 "http://www.w3.org/Graphics/SVG/1.1/DTD/svg11.dtd">
<!-- Generated by graphviz version 11.0.0 (0)
 -->
<!-- Title: DGtal::concepts::CPositiveIrreducibleFraction&lt; T &gt; Pages: 1 -->
<svg width="375pt" height="204pt"
 viewBox="0.00 0.00 374.50 204.38" xmlns="http://www.w3.org/2000/svg" xmlns:xlink="http://www.w3.org/1999/xlink">

<svg id="main" version="1.1" xmlns="http://www.w3.org/2000/svg" xmlns:xlink="http://www.w3.org/1999/xlink" xml:space="preserve" onload="init(evt)">
<style type="text/css"><![CDATA[
.node, .edge {opacity: 0.7;}
.node.selected, .edge.selected {opacity: 1;}
.edge:hover path { stroke: red; }
.edge:hover polygon { stroke: red; fill: red; }
]]></style>
<script type="application/ecmascript" xlink:href="svg.min.js"/>
<svg id="graph" class="graph">
<g id="graph0" class="graph" transform="scale(1 1) rotate(0) translate(4 200.38)">
<title>DGtal::concepts::CPositiveIrreducibleFraction&lt; T &gt;</title>
<!-- Node1 -->
<g id="Node000001" class="node">
<title>Node1</title>
<g id="a_Node000001"><a xlink:title="Aim: Defines positive irreducible fractions, i.e. fraction p/q, p and q non&#45;negative integers,...">
<polygon fill="#999999" stroke="#666666" points="366.5,-123.5 229,-123.5 229,-87 366.5,-87 366.5,-123.5"/>
<text text-anchor="start" x="237" y="-110" font-family="FreeSans" font-size="10.00">DGtal::concepts::CPositive</text>
<text text-anchor="middle" x="297.75" y="-95.75" font-family="FreeSans" font-size="10.00">IrreducibleFraction&lt; T &gt;</text>
</a>
</g>
</g>
<!-- Node2 -->
<g id="Node000002" class="node">
<title>Node2</title>
<g id="a_Node000002"><a xlink:href="structboost_1_1CopyConstructible.html" target="_top" xlink:title="Go to http://www.sgi.com/tech/stl/CopyConstructible.html.">
<polygon fill="white" stroke="#666666" points="173.88,-196.38 19.12,-196.38 19.12,-174.12 173.88,-174.12 173.88,-196.38"/>
<text text-anchor="middle" x="96.5" y="-182.88" font-family="FreeSans" font-size="10.00">boost::CopyConstructible&lt; T &gt;</text>
</a>
</g>
</g>
<!-- Node2&#45;&gt;Node1 -->
<g id="edge1_Node000001_Node000002" class="edge">
<title>Node2&#45;&gt;Node1</title>
<g id="a_edge1_Node000001_Node000002"><a xlink:title=" ">
<path fill="none" stroke="#63b8ff" d="M176.81,-170.69C182.35,-169.05 187.79,-167.24 193,-165.25 220.79,-154.62 249.91,-137.14 270.2,-123.79"/>
<polygon fill="#63b8ff" stroke="#63b8ff" points="176.26,-167.22 167.55,-173.25 178.12,-173.96 176.26,-167.22"/>
</a>
</g>
</g>
<!-- Node3 -->
<g id="Node000003" class="node">
<title>Node3</title>
<g id="a_Node000003"><a xlink:href="structboost_1_1DefaultConstructible.html" target="_top" xlink:title="Go to http://www.sgi.com/tech/stl/DefaultConstructible.html.">
<polygon fill="white" stroke="#666666" points="179.5,-156.38 13.5,-156.38 13.5,-134.12 179.5,-134.12 179.5,-156.38"/>
<text text-anchor="middle" x="96.5" y="-142.88" font-family="FreeSans" font-size="10.00">boost::DefaultConstructible&lt; T &gt;</text>
</a>
</g>
</g>
<!-- Node3&#45;&gt;Node1 -->
<g id="edge2_Node000001_Node000003" class="edge">
<title>Node3&#45;&gt;Node1</title>
<g id="a_edge2_Node000001_Node000003"><a xlink:title=" ">
<path fill="none" stroke="#63b8ff" d="M166.41,-131.42C186.62,-127.36 208.71,-122.93 228.85,-118.88"/>
<polygon fill="#63b8ff" stroke="#63b8ff" points="166,-127.93 156.88,-133.33 167.38,-134.79 166,-127.93"/>
</a>
</g>
</g>
<!-- Node4 -->
<g id="Node000004" class="node">
<title>Node4</title>
<g id="a_Node000004"><a xlink:href="structboost_1_1Assignable.html" target="_top" xlink:title="Go to http://www.sgi.com/tech/stl/Assignable.html.">
<polygon fill="white" stroke="#666666" points="156.25,-116.38 36.75,-116.38 36.75,-94.12 156.25,-94.12 156.25,-116.38"/>
<text text-anchor="middle" x="96.5" y="-102.88" font-family="FreeSans" font-size="10.00">boost::Assignable&lt; T &gt;</text>
</a>
</g>
</g>
<!-- Node4&#45;&gt;Node1 -->
<g id="edge3_Node000001_Node000004" class="edge">
<title>Node4&#45;&gt;Node1</title>
<g id="a_edge3_Node000001_Node000004"><a xlink:title=" ">
<path fill="none" stroke="#63b8ff" d="M168.11,-105.25C187.78,-105.25 209.11,-105.25 228.64,-105.25"/>
<polygon fill="#63b8ff" stroke="#63b8ff" points="168.26,-101.75 158.26,-105.25 168.26,-108.75 168.26,-101.75"/>
</a>
</g>
</g>
<!-- Node5 -->
<g id="Node000005" class="node">
<title>Node5</title>
<g id="a_Node000005"><a xlink:href="structDGtal_1_1concepts_1_1CBackInsertable.html" target="_top" xlink:title="Aim: Represents types for which a std::back_insert_iterator can be constructed with std::back_inserte...">
<polygon fill="white" stroke="#666666" points="193,-76.38 0,-76.38 0,-54.12 193,-54.12 193,-76.38"/>
<text text-anchor="middle" x="96.5" y="-62.88" font-family="FreeSans" font-size="10.00">DGtal::concepts::CBackInsertable&lt; T &gt;</text>
</a>
</g>
</g>
<!-- Node5&#45;&gt;Node1 -->
<g id="edge4_Node000001_Node000005" class="edge">
<title>Node5&#45;&gt;Node1</title>
<g id="a_edge4_Node000001_Node000005"><a xlink:title=" ">
<path fill="none" stroke="#63b8ff" d="M166.41,-79.08C186.62,-83.14 208.71,-87.57 228.85,-91.62"/>
<polygon fill="#63b8ff" stroke="#63b8ff" points="167.38,-75.71 156.88,-77.17 166,-82.57 167.38,-75.71"/>
</a>
</g>
</g>
<!-- Node6 -->
<g id="Node000006" class="node">
<title>Node6</title>
<g id="a_Node000006"><a xlink:href="structDGtal_1_1concepts_1_1CConstSinglePassRange.html" target="_top" xlink:title="Aim: Defines the concept describing a const single pass range.">
<polygon fill="white" stroke="#666666" points="174.25,-36.5 18.75,-36.5 18.75,0 174.25,0 174.25,-36.5"/>
<text text-anchor="start" x="26.75" y="-23" font-family="FreeSans" font-size="10.00">DGtal::concepts::CConstSingle</text>
<text text-anchor="middle" x="96.5" y="-8.75" font-family="FreeSans" font-size="10.00">PassRange&lt; T &gt;</text>
</a>
</g>
</g>
<!-- Node6&#45;&gt;Node1 -->
<g id="edge5_Node000001_Node000006" class="edge">
<title>Node6&#45;&gt;Node1</title>
<g id="a_edge5_Node000001_Node000006"><a xlink:title=" ">
<path fill="none" stroke="#63b8ff" d="M181.43,-40.68C185.37,-42.14 189.25,-43.66 193,-45.25 220.02,-56.67 248.75,-73.71 269.11,-86.72"/>
<polygon fill="#63b8ff" stroke="#63b8ff" points="182.91,-37.49 172.31,-37.48 180.59,-44.09 182.91,-37.49"/>
</a>
</g>
</g>
</g>
</svg>
</svg>

<style type='text/css'>
<![CDATA[
[data-mouse-over-selected='false'] { opacity: 0.7; }
[data-mouse-over-selected='true']  { opacity: 1.0; }
]]>
</style>
<script type="application/ecmascript"><![CDATA[
document.addEventListener('DOMContentLoaded', (event) => {
  highlightEdges();
  highlightAdjacentNodes();
});
]]></script>
</svg>
