<?xml version="1.0" encoding="UTF-8" standalone="no"?>
<!DOCTYPE svg PUBLIC "-//W3C//DTD SVG 1.1//EN"
 "http://www.w3.org/Graphics/SVG/1.1/DTD/svg11.dtd">
<!-- Generated by graphviz version 11.0.0 (0)
 -->
<!-- Title: DGtal::UnorderedMultisetAssociativeCategory Pages: 1 -->
<svg width="682pt" height="155pt"
 viewBox="0.00 0.00 681.75 154.50" xmlns="http://www.w3.org/2000/svg" xmlns:xlink="http://www.w3.org/1999/xlink">
<g id="graph0" class="graph" transform="scale(1 1) rotate(0) translate(4 150.5)">
<title>DGtal::UnorderedMultisetAssociativeCategory</title>
<!-- Node1 -->
<g id="Node000001" class="node">
<title>Node1</title>
<g id="a_Node000001"><a xlink:title=" ">
<polygon fill="#999999" stroke="#666666" points="673.75,-91.5 537,-91.5 537,-55 673.75,-55 673.75,-91.5"/>
<text text-anchor="start" x="545" y="-78" font-family="FreeSans" font-size="10.00">DGtal::UnorderedMultiset</text>
<text text-anchor="middle" x="605.38" y="-63.75" font-family="FreeSans" font-size="10.00">AssociativeCategory</text>
</a>
</g>
</g>
<!-- Node2 -->
<g id="Node000002" class="node">
<title>Node2</title>
<g id="a_Node000002"><a xlink:href="structDGtal_1_1UnorderedAssociativeCategory.html" target="_top" xlink:title=" ">
<polygon fill="white" stroke="#666666" points="501,-146.5 350.75,-146.5 350.75,-110 501,-110 501,-146.5"/>
<text text-anchor="start" x="358.75" y="-133" font-family="FreeSans" font-size="10.00">DGtal::UnorderedAssociative</text>
<text text-anchor="middle" x="425.88" y="-118.75" font-family="FreeSans" font-size="10.00">Category</text>
</a>
</g>
</g>
<!-- Node2&#45;&gt;Node1 -->
<g id="edge1_Node000001_Node000002" class="edge">
<title>Node2&#45;&gt;Node1</title>
<g id="a_edge1_Node000001_Node000002"><a xlink:title=" ">
<path fill="none" stroke="#63b8ff" d="M497.94,-106.23C513.21,-101.5 529.22,-96.54 544.04,-91.94"/>
<polygon fill="#63b8ff" stroke="#63b8ff" points="496.93,-102.88 488.41,-109.18 499,-109.56 496.93,-102.88"/>
</a>
</g>
</g>
<!-- Node3 -->
<g id="Node000003" class="node">
<title>Node3</title>
<g id="a_Node000003"><a xlink:href="structDGtal_1_1AssociativeCategory.html" target="_top" xlink:title=" ">
<polygon fill="white" stroke="#666666" points="314.75,-84.38 172.75,-84.38 172.75,-62.12 314.75,-62.12 314.75,-84.38"/>
<text text-anchor="middle" x="243.75" y="-70.88" font-family="FreeSans" font-size="10.00">DGtal::AssociativeCategory</text>
</a>
</g>
</g>
<!-- Node3&#45;&gt;Node2 -->
<g id="edge2_Node000002_Node000003" class="edge">
<title>Node3&#45;&gt;Node2</title>
<g id="a_edge2_Node000002_Node000003"><a xlink:title=" ">
<path fill="none" stroke="#63b8ff" d="M293.43,-88.11C315.09,-94.73 340.83,-102.59 363.77,-109.59"/>
<polygon fill="#63b8ff" stroke="#63b8ff" points="294.54,-84.79 283.96,-85.22 292.5,-91.49 294.54,-84.79"/>
</a>
</g>
</g>
<!-- Node5 -->
<g id="Node000005" class="node">
<title>Node5</title>
<g id="a_Node000005"><a xlink:href="structDGtal_1_1SimpleAssociativeCategory.html" target="_top" xlink:title=" ">
<polygon fill="white" stroke="#666666" points="490.88,-91.5 360.88,-91.5 360.88,-55 490.88,-55 490.88,-91.5"/>
<text text-anchor="start" x="368.88" y="-78" font-family="FreeSans" font-size="10.00">DGtal::SimpleAssociative</text>
<text text-anchor="middle" x="425.88" y="-63.75" font-family="FreeSans" font-size="10.00">Category</text>
</a>
</g>
</g>
<!-- Node3&#45;&gt;Node5 -->
<g id="edge5_Node000005_Node000003" class="edge">
<title>Node3&#45;&gt;Node5</title>
<g id="a_edge5_Node000005_Node000003"><a xlink:title=" ">
<path fill="none" stroke="#63b8ff" d="M326.45,-73.25C337.83,-73.25 349.38,-73.25 360.38,-73.25"/>
<polygon fill="#63b8ff" stroke="#63b8ff" points="326.68,-69.75 316.68,-73.25 326.68,-76.75 326.68,-69.75"/>
</a>
</g>
</g>
<!-- Node6 -->
<g id="Node000006" class="node">
<title>Node6</title>
<g id="a_Node000006"><a xlink:href="structDGtal_1_1MultipleAssociativeCategory.html" target="_top" xlink:title=" ">
<polygon fill="white" stroke="#666666" points="494.25,-36.5 357.5,-36.5 357.5,0 494.25,0 494.25,-36.5"/>
<text text-anchor="start" x="365.5" y="-23" font-family="FreeSans" font-size="10.00">DGtal::MultipleAssociative</text>
<text text-anchor="middle" x="425.88" y="-8.75" font-family="FreeSans" font-size="10.00">Category</text>
</a>
</g>
</g>
<!-- Node3&#45;&gt;Node6 -->
<g id="edge7_Node000006_Node000003" class="edge">
<title>Node3&#45;&gt;Node6</title>
<g id="a_edge7_Node000006_Node000003"><a xlink:title=" ">
<path fill="none" stroke="#63b8ff" d="M293.43,-58.39C315.09,-51.77 340.83,-43.91 363.77,-36.91"/>
<polygon fill="#63b8ff" stroke="#63b8ff" points="292.5,-55.01 283.96,-61.28 294.54,-61.71 292.5,-55.01"/>
</a>
</g>
</g>
<!-- Node4 -->
<g id="Node000004" class="node">
<title>Node4</title>
<g id="a_Node000004"><a xlink:href="structDGtal_1_1ContainerCategory.html" target="_top" xlink:title=" ">
<polygon fill="white" stroke="#666666" points="136.75,-84.38 0,-84.38 0,-62.12 136.75,-62.12 136.75,-84.38"/>
<text text-anchor="middle" x="68.38" y="-70.88" font-family="FreeSans" font-size="10.00">DGtal::ContainerCategory</text>
</a>
</g>
</g>
<!-- Node4&#45;&gt;Node3 -->
<g id="edge3_Node000003_Node000004" class="edge">
<title>Node4&#45;&gt;Node3</title>
<g id="a_edge3_Node000003_Node000004"><a xlink:title=" ">
<path fill="none" stroke="#63b8ff" d="M148.17,-73.25C156.2,-73.25 164.32,-73.25 172.26,-73.25"/>
<polygon fill="#63b8ff" stroke="#63b8ff" points="148.42,-69.75 138.42,-73.25 148.42,-76.75 148.42,-69.75"/>
</a>
</g>
</g>
<!-- Node5&#45;&gt;Node1 -->
<g id="edge4_Node000001_Node000005" class="edge">
<title>Node5&#45;&gt;Node1</title>
<g id="a_edge4_Node000001_Node000005"><a xlink:title=" ">
<path fill="none" stroke="#63b8ff" d="M502.45,-73.25C513.82,-73.25 525.48,-73.25 536.67,-73.25"/>
<polygon fill="#63b8ff" stroke="#63b8ff" points="502.72,-69.75 492.72,-73.25 502.72,-76.75 502.72,-69.75"/>
</a>
</g>
</g>
<!-- Node6&#45;&gt;Node1 -->
<g id="edge6_Node000001_Node000006" class="edge">
<title>Node6&#45;&gt;Node1</title>
<g id="a_edge6_Node000001_Node000006"><a xlink:title=" ">
<path fill="none" stroke="#63b8ff" d="M497.94,-40.27C513.21,-45 529.22,-49.96 544.04,-54.56"/>
<polygon fill="#63b8ff" stroke="#63b8ff" points="499,-36.94 488.41,-37.32 496.93,-43.62 499,-36.94"/>
</a>
</g>
</g>
</g>
</svg>
