<?xml version="1.0" encoding="UTF-8" standalone="no"?>
<!DOCTYPE svg PUBLIC "-//W3C//DTD SVG 1.1//EN"
 "http://www.w3.org/Graphics/SVG/1.1/DTD/svg11.dtd">
<!-- Generated by graphviz version 11.0.0 (0)
 -->
<!-- Title: DGtal::concepts::CBidirectionalRangeFromPoint&lt; T &gt; Pages: 1 -->
<svg width="800pt" height="100pt"
 viewBox="0.00 0.00 799.50 99.50" xmlns="http://www.w3.org/2000/svg" xmlns:xlink="http://www.w3.org/1999/xlink">
<g id="graph0" class="graph" transform="scale(1 1) rotate(0) translate(4 95.5)">
<title>DGtal::concepts::CBidirectionalRangeFromPoint&lt; T &gt;</title>
<!-- Node1 -->
<g id="Node000001" class="node">
<title>Node1</title>
<g id="a_Node000001"><a xlink:title="Aim: refined concept of single pass range with a begin() method from a point.">
<polygon fill="#999999" stroke="#666666" points="791.5,-63.5 633,-63.5 633,-27 791.5,-27 791.5,-63.5"/>
<text text-anchor="start" x="641" y="-50" font-family="FreeSans" font-size="10.00">DGtal::concepts::CBidirectional</text>
<text text-anchor="middle" x="712.25" y="-35.75" font-family="FreeSans" font-size="10.00">RangeFromPoint&lt; T &gt;</text>
</a>
</g>
</g>
<!-- Node2 -->
<g id="Node000002" class="node">
<title>Node2</title>
<g id="a_Node000002"><a xlink:href="structDGtal_1_1concepts_1_1CBidirectionalRange.html" target="_top" xlink:title="Aim: Defines the concept describing a bidirectional range.">
<polygon fill="white" stroke="#666666" points="583.88,-91.5 425.38,-91.5 425.38,-55 583.88,-55 583.88,-91.5"/>
<text text-anchor="start" x="433.38" y="-78" font-family="FreeSans" font-size="10.00">DGtal::concepts::CBidirectional</text>
<text text-anchor="middle" x="504.62" y="-63.75" font-family="FreeSans" font-size="10.00">Range&lt; T &gt;</text>
</a>
</g>
</g>
<!-- Node2&#45;&gt;Node1 -->
<g id="edge1_Node000001_Node000002" class="edge">
<title>Node2&#45;&gt;Node1</title>
<g id="a_edge1_Node000001_Node000002"><a xlink:title=" ">
<path fill="none" stroke="#63b8ff" d="M595.52,-61.01C607.89,-59.32 620.52,-57.6 632.68,-55.95"/>
<polygon fill="#63b8ff" stroke="#63b8ff" points="595.18,-57.52 585.74,-62.34 596.12,-64.46 595.18,-57.52"/>
</a>
</g>
</g>
<!-- Node3 -->
<g id="Node000003" class="node">
<title>Node3</title>
<g id="a_Node000003"><a xlink:href="structDGtal_1_1concepts_1_1CConstBidirectionalRange.html" target="_top" xlink:title="Aim: Defines the concept describing a bidirectional const range.">
<polygon fill="white" stroke="#666666" points="376.25,-63.5 191.5,-63.5 191.5,-27 376.25,-27 376.25,-63.5"/>
<text text-anchor="start" x="199.5" y="-50" font-family="FreeSans" font-size="10.00">DGtal::concepts::CConstBidirectional</text>
<text text-anchor="middle" x="283.88" y="-35.75" font-family="FreeSans" font-size="10.00">Range&lt; T &gt;</text>
</a>
</g>
</g>
<!-- Node3&#45;&gt;Node2 -->
<g id="edge2_Node000002_Node000003" class="edge">
<title>Node3&#45;&gt;Node2</title>
<g id="a_edge2_Node000002_Node000003"><a xlink:title=" ">
<path fill="none" stroke="#63b8ff" d="M388.11,-58.46C400.59,-60.06 413.17,-61.67 425.21,-63.21"/>
<polygon fill="#63b8ff" stroke="#63b8ff" points="388.56,-54.99 378.2,-57.19 387.67,-61.94 388.56,-54.99"/>
</a>
</g>
</g>
<!-- Node5 -->
<g id="Node000005" class="node">
<title>Node5</title>
<g id="a_Node000005"><a xlink:href="structDGtal_1_1concepts_1_1CConstBidirectionalRangeFromPoint.html" target="_top" xlink:title="Aim: refined concept of const bidirectional range with a begin() method from a point.">
<polygon fill="white" stroke="#666666" points="597,-36.5 412.25,-36.5 412.25,0 597,0 597,-36.5"/>
<text text-anchor="start" x="420.25" y="-23" font-family="FreeSans" font-size="10.00">DGtal::concepts::CConstBidirectional</text>
<text text-anchor="middle" x="504.62" y="-8.75" font-family="FreeSans" font-size="10.00">RangeFromPoint&lt; T &gt;</text>
</a>
</g>
</g>
<!-- Node3&#45;&gt;Node5 -->
<g id="edge5_Node000005_Node000003" class="edge">
<title>Node3&#45;&gt;Node5</title>
<g id="a_edge5_Node000005_Node000003"><a xlink:title=" ">
<path fill="none" stroke="#63b8ff" d="M388,-32.52C396.02,-31.53 404.1,-30.53 412.04,-29.55"/>
<polygon fill="#63b8ff" stroke="#63b8ff" points="387.69,-29.03 378.2,-33.73 388.55,-35.98 387.69,-29.03"/>
</a>
</g>
</g>
<!-- Node4 -->
<g id="Node000004" class="node">
<title>Node4</title>
<g id="a_Node000004"><a xlink:href="structDGtal_1_1concepts_1_1CConstSinglePassRange.html" target="_top" xlink:title="Aim: Defines the concept describing a const single pass range.">
<polygon fill="white" stroke="#666666" points="155.5,-63.5 0,-63.5 0,-27 155.5,-27 155.5,-63.5"/>
<text text-anchor="start" x="8" y="-50" font-family="FreeSans" font-size="10.00">DGtal::concepts::CConstSingle</text>
<text text-anchor="middle" x="77.75" y="-35.75" font-family="FreeSans" font-size="10.00">PassRange&lt; T &gt;</text>
</a>
</g>
</g>
<!-- Node4&#45;&gt;Node3 -->
<g id="edge3_Node000003_Node000004" class="edge">
<title>Node4&#45;&gt;Node3</title>
<g id="a_edge3_Node000003_Node000004"><a xlink:title=" ">
<path fill="none" stroke="#63b8ff" d="M167.38,-45.25C175.27,-45.25 183.27,-45.25 191.18,-45.25"/>
<polygon fill="#63b8ff" stroke="#63b8ff" points="167.43,-41.75 157.43,-45.25 167.43,-48.75 167.43,-41.75"/>
</a>
</g>
</g>
<!-- Node5&#45;&gt;Node1 -->
<g id="edge4_Node000001_Node000005" class="edge">
<title>Node5&#45;&gt;Node1</title>
<g id="a_edge4_Node000001_Node000005"><a xlink:title=" ">
<path fill="none" stroke="#63b8ff" d="M608.67,-31.78C616.72,-32.84 624.77,-33.89 632.62,-34.92"/>
<polygon fill="#63b8ff" stroke="#63b8ff" points="609.18,-28.32 598.81,-30.49 608.27,-35.26 609.18,-28.32"/>
</a>
</g>
</g>
</g>
</svg>
