<?xml version="1.0" encoding="UTF-8" standalone="no"?>
<!DOCTYPE svg PUBLIC "-//W3C//DTD SVG 1.1//EN"
 "http://www.w3.org/Graphics/SVG/1.1/DTD/svg11.dtd">
<!-- Generated by graphviz version 11.0.0 (0)
 -->
<!-- Title: DGtal::concepts::CVectorSpace&lt; T &gt; Pages: 1 -->
<svg width="722pt" height="343pt"
 viewBox="0.00 0.00 721.50 343.38" xmlns="http://www.w3.org/2000/svg" xmlns:xlink="http://www.w3.org/1999/xlink">
<g id="graph0" class="graph" transform="scale(1 1) rotate(0) translate(4 339.38)">
<title>DGtal::concepts::CVectorSpace&lt; T &gt;</title>
<!-- Node1 -->
<g id="Node000001" class="node">
<title>Node1</title>
<g id="a_Node000001"><a xlink:title="Aim: Base concept for vector space structure.">
<polygon fill="#999999" stroke="#666666" points="287.75,-240.5 155.5,-240.5 155.5,-204 287.75,-204 287.75,-240.5"/>
<text text-anchor="start" x="163.5" y="-227" font-family="FreeSans" font-size="10.00">DGtal::concepts::CVector</text>
<text text-anchor="middle" x="221.62" y="-212.75" font-family="FreeSans" font-size="10.00">Space&lt; T &gt;</text>
</a>
</g>
</g>
<!-- Node3 -->
<g id="Node000003" class="node">
<title>Node3</title>
<g id="a_Node000003"><a xlink:href="structDGtal_1_1concepts_1_1CDiscreteExteriorCalculusVectorSpace.html" target="_top" xlink:title="Aim: Lift linear algebra container concept into the dec package.">
<polygon fill="white" stroke="#666666" points="493.5,-287.5 323.75,-287.5 323.75,-251 493.5,-251 493.5,-287.5"/>
<text text-anchor="start" x="331.75" y="-274" font-family="FreeSans" font-size="10.00">DGtal::concepts::CDiscrete</text>
<text text-anchor="middle" x="408.62" y="-259.75" font-family="FreeSans" font-size="10.00">ExteriorCalculusVectorSpace&lt; T &gt;</text>
</a>
</g>
</g>
<!-- Node1&#45;&gt;Node3 -->
<g id="edge2_Node000001_Node000003" class="edge">
<title>Node1&#45;&gt;Node3</title>
<g id="a_edge2_Node000001_Node000003"><a xlink:title=" ">
<path fill="none" stroke="#63b8ff" d="M299.06,-241.67C310.63,-244.61 322.53,-247.63 334.03,-250.55"/>
<polygon fill="#63b8ff" stroke="#63b8ff" points="300.13,-238.33 289.58,-239.26 298.41,-245.11 300.13,-238.33"/>
</a>
</g>
</g>
<!-- Node4 -->
<g id="Node000004" class="node">
<title>Node4</title>
<g id="a_Node000004"><a xlink:href="structDGtal_1_1concepts_1_1CMatrix.html" target="_top" xlink:title="Aim: Represent any static or dynamic sized matrix having sparse or dense representation.">
<polygon fill="white" stroke="#666666" points="485.25,-233.38 332,-233.38 332,-211.12 485.25,-211.12 485.25,-233.38"/>
<text text-anchor="middle" x="408.62" y="-219.88" font-family="FreeSans" font-size="10.00">DGtal::concepts::CMatrix&lt; T &gt;</text>
</a>
</g>
</g>
<!-- Node1&#45;&gt;Node4 -->
<g id="edge3_Node000001_Node000004" class="edge">
<title>Node1&#45;&gt;Node4</title>
<g id="a_edge3_Node000001_Node000004"><a xlink:title=" ">
<path fill="none" stroke="#63b8ff" d="M299.54,-222.25C310.21,-222.25 321.15,-222.25 331.8,-222.25"/>
<polygon fill="#63b8ff" stroke="#63b8ff" points="299.62,-218.75 289.62,-222.25 299.62,-225.75 299.62,-218.75"/>
</a>
</g>
</g>
<!-- Node9 -->
<g id="Node000009" class="node">
<title>Node9</title>
<g id="a_Node000009"><a xlink:href="structDGtal_1_1concepts_1_1CVector.html" target="_top" xlink:title="Aim: Represent any static or dynamic sized column vector having sparse or dense representation.">
<polygon fill="white" stroke="#666666" points="485.62,-108.38 331.62,-108.38 331.62,-86.12 485.62,-86.12 485.62,-108.38"/>
<text text-anchor="middle" x="408.62" y="-94.88" font-family="FreeSans" font-size="10.00">DGtal::concepts::CVector&lt; T &gt;</text>
</a>
</g>
</g>
<!-- Node1&#45;&gt;Node9 -->
<g id="edge8_Node000001_Node000009" class="edge">
<title>Node1&#45;&gt;Node9</title>
<g id="a_edge8_Node000001_Node000009"><a xlink:title=" ">
<path fill="none" stroke="#63b8ff" d="M259.72,-197.19C299.62,-170.23 361.31,-128.54 390.8,-108.62"/>
<polygon fill="#63b8ff" stroke="#63b8ff" points="257.9,-194.19 251.58,-202.69 261.82,-199.99 257.9,-194.19"/>
</a>
</g>
</g>
<!-- Node2 -->
<g id="Node000002" class="node">
<title>Node2</title>
<g id="a_Node000002"><a xlink:href="structboost_1_1Assignable.html" target="_top" xlink:title="Go to http://www.sgi.com/tech/stl/Assignable.html.">
<polygon fill="white" stroke="#666666" points="119.5,-233.38 0,-233.38 0,-211.12 119.5,-211.12 119.5,-233.38"/>
<text text-anchor="middle" x="59.75" y="-219.88" font-family="FreeSans" font-size="10.00">boost::Assignable&lt; T &gt;</text>
</a>
</g>
</g>
<!-- Node2&#45;&gt;Node1 -->
<g id="edge1_Node000001_Node000002" class="edge">
<title>Node2&#45;&gt;Node1</title>
<g id="a_edge1_Node000001_Node000002"><a xlink:title=" ">
<path fill="none" stroke="#63b8ff" d="M131.29,-222.25C139.19,-222.25 147.22,-222.25 155.06,-222.25"/>
<polygon fill="#63b8ff" stroke="#63b8ff" points="131.34,-218.75 121.34,-222.25 131.34,-225.75 131.34,-218.75"/>
</a>
</g>
</g>
<!-- Node5 -->
<g id="Node000005" class="node">
<title>Node5</title>
<g id="a_Node000005"><a xlink:href="structDGtal_1_1concepts_1_1CDenseMatrix.html" target="_top" xlink:title="Aim: Represent any dynamic or static sized matrix having dense representation.">
<polygon fill="white" stroke="#666666" points="713.12,-335.38 529.88,-335.38 529.88,-313.12 713.12,-313.12 713.12,-335.38"/>
<text text-anchor="middle" x="621.5" y="-321.88" font-family="FreeSans" font-size="10.00">DGtal::concepts::CDenseMatrix&lt; T &gt;</text>
</a>
</g>
</g>
<!-- Node4&#45;&gt;Node5 -->
<g id="edge4_Node000004_Node000005" class="edge">
<title>Node4&#45;&gt;Node5</title>
<g id="a_edge4_Node000004_Node000005"><a xlink:title=" ">
<path fill="none" stroke="#63b8ff" d="M488.76,-239.03C490.39,-240.04 491.97,-241.11 493.5,-242.25 519.07,-261.26 503.76,-285.46 529.5,-304.25 534.07,-307.59 539.1,-310.39 544.36,-312.73"/>
<polygon fill="#63b8ff" stroke="#63b8ff" points="490.81,-236.15 480.33,-234.57 487.53,-242.34 490.81,-236.15"/>
</a>
</g>
</g>
<!-- Node6 -->
<g id="Node000006" class="node">
<title>Node6</title>
<g id="a_Node000006"><a xlink:href="structDGtal_1_1concepts_1_1CDynamicMatrix.html" target="_top" xlink:title="Aim: Represent any dynamic sized matrix having sparse or dense representation.">
<polygon fill="white" stroke="#666666" points="692.12,-295.5 550.88,-295.5 550.88,-259 692.12,-259 692.12,-295.5"/>
<text text-anchor="start" x="558.88" y="-282" font-family="FreeSans" font-size="10.00">DGtal::concepts::CDynamic</text>
<text text-anchor="middle" x="621.5" y="-267.75" font-family="FreeSans" font-size="10.00">Matrix&lt; T &gt;</text>
</a>
</g>
</g>
<!-- Node4&#45;&gt;Node6 -->
<g id="edge5_Node000004_Node000006" class="edge">
<title>Node4&#45;&gt;Node6</title>
<g id="a_edge5_Node000004_Node000006"><a xlink:title=" ">
<path fill="none" stroke="#63b8ff" d="M470.32,-236.46C478.13,-238.36 486.01,-240.33 493.5,-242.25 513.33,-247.34 534.81,-253.15 554.37,-258.56"/>
<polygon fill="#63b8ff" stroke="#63b8ff" points="471.38,-233.11 460.84,-234.17 469.74,-239.92 471.38,-233.11"/>
</a>
</g>
</g>
<!-- Node7 -->
<g id="Node000007" class="node">
<title>Node7</title>
<g id="a_Node000007"><a xlink:href="structDGtal_1_1concepts_1_1CSparseMatrix.html" target="_top" xlink:title="Aim: Represent any dynamic or static sized matrix having sparse representation.">
<polygon fill="white" stroke="#666666" points="694.38,-240.5 548.62,-240.5 548.62,-204 694.38,-204 694.38,-240.5"/>
<text text-anchor="start" x="556.62" y="-227" font-family="FreeSans" font-size="10.00">DGtal::concepts::CSparse</text>
<text text-anchor="middle" x="621.5" y="-212.75" font-family="FreeSans" font-size="10.00">Matrix&lt; T, TripletInterator &gt;</text>
</a>
</g>
</g>
<!-- Node4&#45;&gt;Node7 -->
<g id="edge6_Node000004_Node000007" class="edge">
<title>Node4&#45;&gt;Node7</title>
<g id="a_edge6_Node000004_Node000007"><a xlink:title=" ">
<path fill="none" stroke="#63b8ff" d="M496.61,-222.25C513.75,-222.25 531.56,-222.25 548.16,-222.25"/>
<polygon fill="#63b8ff" stroke="#63b8ff" points="496.97,-218.75 486.97,-222.25 496.97,-225.75 496.97,-218.75"/>
</a>
</g>
</g>
<!-- Node8 -->
<g id="Node000008" class="node">
<title>Node8</title>
<g id="a_Node000008"><a xlink:href="structDGtal_1_1concepts_1_1CStaticMatrix.html" target="_top" xlink:title="Aim: Represent any static sized matrix having sparse or dense representation.">
<polygon fill="white" stroke="#666666" points="684.62,-185.5 558.38,-185.5 558.38,-149 684.62,-149 684.62,-185.5"/>
<text text-anchor="start" x="566.38" y="-172" font-family="FreeSans" font-size="10.00">DGtal::concepts::CStatic</text>
<text text-anchor="middle" x="621.5" y="-157.75" font-family="FreeSans" font-size="10.00">Matrix&lt; T &gt;</text>
</a>
</g>
</g>
<!-- Node4&#45;&gt;Node8 -->
<g id="edge7_Node000004_Node000008" class="edge">
<title>Node4&#45;&gt;Node8</title>
<g id="a_edge7_Node000004_Node000008"><a xlink:title=" ">
<path fill="none" stroke="#63b8ff" d="M465.1,-207.78C493.67,-200.33 528.6,-191.22 558.1,-183.52"/>
<polygon fill="#63b8ff" stroke="#63b8ff" points="464.35,-204.36 455.55,-210.27 466.11,-211.13 464.35,-204.36"/>
</a>
</g>
</g>
<!-- Node10 -->
<g id="Node000010" class="node">
<title>Node10</title>
<g id="a_Node000010"><a xlink:href="structDGtal_1_1concepts_1_1CDenseVector.html" target="_top" xlink:title="Aim: Represent any dynamic or static sized matrix having dense representation.">
<polygon fill="white" stroke="#666666" points="713.5,-131.38 529.5,-131.38 529.5,-109.12 713.5,-109.12 713.5,-131.38"/>
<text text-anchor="middle" x="621.5" y="-117.88" font-family="FreeSans" font-size="10.00">DGtal::concepts::CDenseVector&lt; T &gt;</text>
</a>
</g>
</g>
<!-- Node9&#45;&gt;Node10 -->
<g id="edge9_Node000009_Node000010" class="edge">
<title>Node9&#45;&gt;Node10</title>
<g id="a_edge9_Node000009_Node000010"><a xlink:title=" ">
<path fill="none" stroke="#63b8ff" d="M497.37,-106.82C507.9,-107.97 518.68,-109.14 529.26,-110.3"/>
<polygon fill="#63b8ff" stroke="#63b8ff" points="497.88,-103.36 487.56,-105.75 497.12,-110.31 497.88,-103.36"/>
</a>
</g>
</g>
<!-- Node11 -->
<g id="Node000011" class="node">
<title>Node11</title>
<g id="a_Node000011"><a xlink:href="structDGtal_1_1concepts_1_1CDynamicVector.html" target="_top" xlink:title="Aim: Represent any dynamic sized column vector having sparse or dense representation.">
<polygon fill="white" stroke="#666666" points="692.12,-91.5 550.88,-91.5 550.88,-55 692.12,-55 692.12,-91.5"/>
<text text-anchor="start" x="558.88" y="-78" font-family="FreeSans" font-size="10.00">DGtal::concepts::CDynamic</text>
<text text-anchor="middle" x="621.5" y="-63.75" font-family="FreeSans" font-size="10.00">Vector&lt; T &gt;</text>
</a>
</g>
</g>
<!-- Node9&#45;&gt;Node11 -->
<g id="edge10_Node000009_Node000011" class="edge">
<title>Node9&#45;&gt;Node11</title>
<g id="a_edge10_Node000009_Node000011"><a xlink:title=" ">
<path fill="none" stroke="#63b8ff" d="M497.32,-87.27C515.1,-85.25 533.57,-83.14 550.64,-81.2"/>
<polygon fill="#63b8ff" stroke="#63b8ff" points="497.1,-83.77 487.56,-88.38 497.89,-90.73 497.1,-83.77"/>
</a>
</g>
</g>
<!-- Node12 -->
<g id="Node000012" class="node">
<title>Node12</title>
<g id="a_Node000012"><a xlink:href="structDGtal_1_1concepts_1_1CStaticVector.html" target="_top" xlink:title="Aim: Represent any static sized column vector having sparse or dense representation.">
<polygon fill="white" stroke="#666666" points="684.62,-36.5 558.38,-36.5 558.38,0 684.62,0 684.62,-36.5"/>
<text text-anchor="start" x="566.38" y="-23" font-family="FreeSans" font-size="10.00">DGtal::concepts::CStatic</text>
<text text-anchor="middle" x="621.5" y="-8.75" font-family="FreeSans" font-size="10.00">Vector&lt; T &gt;</text>
</a>
</g>
</g>
<!-- Node9&#45;&gt;Node12 -->
<g id="edge11_Node000009_Node000012" class="edge">
<title>Node9&#45;&gt;Node12</title>
<g id="a_edge11_Node000009_Node000012"><a xlink:title=" ">
<path fill="none" stroke="#63b8ff" d="M444.83,-81.13C468.51,-70.57 500.58,-56.82 529.5,-46.25 538.66,-42.9 548.43,-39.61 558.05,-36.53"/>
<polygon fill="#63b8ff" stroke="#63b8ff" points="443.65,-77.83 435.96,-85.12 446.52,-84.21 443.65,-77.83"/>
</a>
</g>
</g>
</g>
</svg>
