<?xml version="1.0" encoding="UTF-8" standalone="no"?>
<!DOCTYPE svg PUBLIC "-//W3C//DTD SVG 1.1//EN"
 "http://www.w3.org/Graphics/SVG/1.1/DTD/svg11.dtd">
<!-- Generated by graphviz version 11.0.0 (0)
 -->
<!-- Title: LibBoard::Arc Pages: 1 -->
<svg width="100pt" height="205pt"
 viewBox="0.00 0.00 99.75 205.00" xmlns="http://www.w3.org/2000/svg" xmlns:xlink="http://www.w3.org/1999/xlink">
<g id="graph0" class="graph" transform="scale(1 1) rotate(0) translate(4 201)">
<title>LibBoard::Arc</title>
<!-- Node1 -->
<g id="Node000001" class="node">
<title>Node1</title>
<g id="a_Node000001"><a xlink:title="An arc.">
<polygon fill="#999999" stroke="#666666" points="85,-22.25 6.75,-22.25 6.75,0 85,0 85,-22.25"/>
<text text-anchor="middle" x="45.88" y="-8.75" font-family="FreeSans" font-size="10.00">LibBoard::Arc</text>
</a>
</g>
</g>
<!-- Node2 -->
<g id="Node000002" class="node">
<title>Node2</title>
<g id="a_Node000002"><a xlink:href="structLibBoard_1_1Circle.html" target="_top" xlink:title="A circle.">
<polygon fill="white" stroke="#666666" points="89.88,-80.5 1.88,-80.5 1.88,-58.25 89.88,-58.25 89.88,-80.5"/>
<text text-anchor="middle" x="45.88" y="-67" font-family="FreeSans" font-size="10.00">LibBoard::Circle</text>
</a>
</g>
</g>
<!-- Node2&#45;&gt;Node1 -->
<g id="edge1_Node000001_Node000002" class="edge">
<title>Node2&#45;&gt;Node1</title>
<g id="a_edge1_Node000001_Node000002"><a xlink:title=" ">
<path fill="none" stroke="#63b8ff" d="M45.88,-46.35C45.88,-38.2 45.88,-29.33 45.88,-22.66"/>
<polygon fill="#63b8ff" stroke="#63b8ff" points="42.38,-46.28 45.88,-56.28 49.38,-46.28 42.38,-46.28"/>
</a>
</g>
</g>
<!-- Node3 -->
<g id="Node000003" class="node">
<title>Node3</title>
<g id="a_Node000003"><a xlink:href="structLibBoard_1_1Ellipse.html" target="_top" xlink:title="An ellipse.">
<polygon fill="white" stroke="#666666" points="91.75,-138.75 0,-138.75 0,-116.5 91.75,-116.5 91.75,-138.75"/>
<text text-anchor="middle" x="45.88" y="-125.25" font-family="FreeSans" font-size="10.00">LibBoard::Ellipse</text>
</a>
</g>
</g>
<!-- Node3&#45;&gt;Node2 -->
<g id="edge2_Node000002_Node000003" class="edge">
<title>Node3&#45;&gt;Node2</title>
<g id="a_edge2_Node000002_Node000003"><a xlink:title=" ">
<path fill="none" stroke="#63b8ff" d="M45.88,-104.6C45.88,-96.45 45.88,-87.58 45.88,-80.91"/>
<polygon fill="#63b8ff" stroke="#63b8ff" points="42.38,-104.53 45.88,-114.53 49.38,-104.53 42.38,-104.53"/>
</a>
</g>
</g>
<!-- Node4 -->
<g id="Node000004" class="node">
<title>Node4</title>
<g id="a_Node000004"><a xlink:href="structLibBoard_1_1Shape.html" target="_top" xlink:title="Abstract structure for a 2D shape.">
<polygon fill="white" stroke="#666666" points="91.75,-197 0,-197 0,-174.75 91.75,-174.75 91.75,-197"/>
<text text-anchor="middle" x="45.88" y="-183.5" font-family="FreeSans" font-size="10.00">LibBoard::Shape</text>
</a>
</g>
</g>
<!-- Node4&#45;&gt;Node3 -->
<g id="edge3_Node000003_Node000004" class="edge">
<title>Node4&#45;&gt;Node3</title>
<g id="a_edge3_Node000003_Node000004"><a xlink:title=" ">
<path fill="none" stroke="#63b8ff" d="M45.88,-162.85C45.88,-154.7 45.88,-145.83 45.88,-139.16"/>
<polygon fill="#63b8ff" stroke="#63b8ff" points="42.38,-162.78 45.88,-172.78 49.38,-162.78 42.38,-162.78"/>
</a>
</g>
</g>
</g>
</svg>
