<?xml version="1.0" encoding="UTF-8" standalone="no"?>
<!DOCTYPE svg PUBLIC "-//W3C//DTD SVG 1.1//EN"
 "http://www.w3.org/Graphics/SVG/1.1/DTD/svg11.dtd">
<!-- Generated by graphviz version 11.0.0 (0)
 -->
<!-- Title: DGtal::NumberTraits&lt; T &gt; Pages: 1 -->
<svg width="250pt" height="291pt"
 viewBox="0.00 0.00 250.00 290.50" xmlns="http://www.w3.org/2000/svg" xmlns:xlink="http://www.w3.org/1999/xlink">
<g id="graph0" class="graph" transform="scale(1 1) rotate(0) translate(4 286.5)">
<title>DGtal::NumberTraits&lt; T &gt;</title>
<!-- Node1 -->
<g id="Node000001" class="node">
<title>Node1</title>
<g id="a_Node000001"><a xlink:title="Aim: The traits class for all models of Cinteger.">
<polygon fill="#999999" stroke="#666666" points="187.88,-109 54.12,-109 54.12,-86.75 187.88,-86.75 187.88,-109"/>
<text text-anchor="middle" x="121" y="-95.5" font-family="FreeSans" font-size="10.00">DGtal::NumberTraits&lt; T &gt;</text>
</a>
</g>
</g>
<!-- Node4 -->
<g id="Node000004" class="node">
<title>Node4</title>
<g id="a_Node000004"><a xlink:href="structDGtal_1_1NumberTraits.html" target="_top" xlink:title=" ">
<polygon fill="white" stroke="#666666" points="112,-36.5 0,-36.5 0,0 112,0 112,-36.5"/>
<text text-anchor="start" x="8" y="-23" font-family="FreeSans" font-size="10.00">DGtal::NumberTraits</text>
<text text-anchor="middle" x="56" y="-8.75" font-family="FreeSans" font-size="10.00">&lt; Integer &gt;</text>
</a>
</g>
</g>
<!-- Node1&#45;&gt;Node4 -->
<g id="edge3_Node000001_Node000004" class="edge">
<title>Node1&#45;&gt;Node4</title>
<g id="a_edge3_Node000001_Node000004"><a xlink:title=" ">
<path fill="none" stroke="orange" stroke-dasharray="5,2" d="M104.96,-77.72C94.53,-65.26 81.02,-49.13 70.83,-36.97"/>
<polygon fill="orange" stroke="orange" points="102.16,-79.83 111.26,-85.25 107.53,-75.33 102.16,-79.83"/>
</a>
</g>
<text text-anchor="middle" x="124.38" y="-59.25" font-family="FreeSans" font-size="10.00" fill="grey"> &lt; Integer &gt;</text>
</g>
<!-- Node5 -->
<g id="Node000005" class="node">
<title>Node5</title>
<g id="a_Node000005"><a xlink:href="structDGtal_1_1NumberTraits.html" target="_top" xlink:title=" ">
<polygon fill="white" stroke="#666666" points="242,-36.5 130,-36.5 130,0 242,0 242,-36.5"/>
<text text-anchor="start" x="138" y="-23" font-family="FreeSans" font-size="10.00">DGtal::NumberTraits</text>
<text text-anchor="middle" x="186" y="-8.75" font-family="FreeSans" font-size="10.00">&lt; TInteger &gt;</text>
</a>
</g>
</g>
<!-- Node1&#45;&gt;Node5 -->
<g id="edge4_Node000001_Node000005" class="edge">
<title>Node1&#45;&gt;Node5</title>
<g id="a_edge4_Node000001_Node000005"><a xlink:title=" ">
<path fill="none" stroke="orange" stroke-dasharray="5,2" d="M145.17,-79.32C149,-76.02 152.76,-72.44 156,-68.75 164.48,-59.07 171.98,-46.7 177.36,-36.74"/>
<polygon fill="orange" stroke="orange" points="143.1,-76.49 137.48,-85.48 147.48,-81.95 143.1,-76.49"/>
</a>
</g>
<text text-anchor="middle" x="196" y="-59.25" font-family="FreeSans" font-size="10.00" fill="grey"> &lt; TInteger &gt;</text>
</g>
<!-- Node2 -->
<g id="Node000002" class="node">
<title>Node2</title>
<g id="a_Node000002"><a xlink:href="structDGtal_1_1NumberTraitsImpl.html" target="_top" xlink:title=" ">
<polygon fill="white" stroke="#666666" points="187.5,-181.5 54.5,-181.5 54.5,-145 187.5,-145 187.5,-181.5"/>
<text text-anchor="start" x="62.5" y="-168" font-family="FreeSans" font-size="10.00">DGtal::NumberTraitsImpl</text>
<text text-anchor="middle" x="121" y="-153.75" font-family="FreeSans" font-size="10.00">&lt; std::decay&lt; T &gt;::type &gt;</text>
</a>
</g>
</g>
<!-- Node2&#45;&gt;Node1 -->
<g id="edge1_Node000001_Node000002" class="edge">
<title>Node2&#45;&gt;Node1</title>
<g id="a_edge1_Node000001_Node000002"><a xlink:title=" ">
<path fill="none" stroke="#63b8ff" d="M121,-133.09C121,-124.67 121,-116 121,-109.49"/>
<polygon fill="#63b8ff" stroke="#63b8ff" points="117.5,-133.08 121,-143.08 124.5,-133.08 117.5,-133.08"/>
</a>
</g>
</g>
<!-- Node3 -->
<g id="Node000003" class="node">
<title>Node3</title>
<g id="a_Node000003"><a xlink:href="structDGtal_1_1NumberTraitsImpl.html" target="_top" xlink:title="Aim: The traits class for all models of Cinteger (implementation)">
<polygon fill="white" stroke="#666666" points="187.5,-282.5 54.5,-282.5 54.5,-246 187.5,-246 187.5,-282.5"/>
<text text-anchor="start" x="62.5" y="-269" font-family="FreeSans" font-size="10.00">DGtal::NumberTraitsImpl</text>
<text text-anchor="middle" x="121" y="-254.75" font-family="FreeSans" font-size="10.00">&lt; T, Enable &gt;</text>
</a>
</g>
</g>
<!-- Node3&#45;&gt;Node2 -->
<g id="edge2_Node000002_Node000003" class="edge">
<title>Node3&#45;&gt;Node2</title>
<g id="a_edge2_Node000002_Node000003"><a xlink:title=" ">
<path fill="none" stroke="orange" stroke-dasharray="5,2" d="M121,-234.52C121,-217.46 121,-196.39 121,-181.8"/>
<polygon fill="orange" stroke="orange" points="117.5,-234.04 121,-244.04 124.5,-234.04 117.5,-234.04"/>
</a>
</g>
<text text-anchor="start" x="121" y="-218.5" font-family="FreeSans" font-size="10.00" fill="grey"> &lt; std::decay&lt; T &gt;::</text>
<text text-anchor="middle" x="163.75" y="-204.25" font-family="FreeSans" font-size="10.00" fill="grey">type &gt;</text>
</g>
</g>
</svg>
