<?xml version="1.0" encoding="UTF-8" standalone="no"?>
<!DOCTYPE svg PUBLIC "-//W3C//DTD SVG 1.1//EN"
 "http://www.w3.org/Graphics/SVG/1.1/DTD/svg11.dtd">
<!-- Generated by graphviz version 11.0.0 (0)
 -->
<!-- Title: DGtal::concepts::CSinglePassRangeWithWritableIterator&lt; T, Value &gt; Pages: 1 -->
<svg width="786pt" height="128pt"
 viewBox="0.00 0.00 786.00 127.75" xmlns="http://www.w3.org/2000/svg" xmlns:xlink="http://www.w3.org/1999/xlink">
<g id="graph0" class="graph" transform="scale(1 1) rotate(0) translate(4 123.75)">
<title>DGtal::concepts::CSinglePassRangeWithWritableIterator&lt; T, Value &gt;</title>
<!-- Node1 -->
<g id="Node000001" class="node">
<title>Node1</title>
<g id="a_Node000001"><a xlink:title="Aim: refined concept of const single pass range which require that an output iterator exists.">
<polygon fill="#999999" stroke="#666666" points="353.75,-84.75 191.5,-84.75 191.5,-34 353.75,-34 353.75,-84.75"/>
<text text-anchor="start" x="199.5" y="-71.25" font-family="FreeSans" font-size="10.00">DGtal::concepts::CSingle</text>
<text text-anchor="start" x="199.5" y="-57" font-family="FreeSans" font-size="10.00">PassRangeWithWritableIterator</text>
<text text-anchor="middle" x="272.62" y="-42.75" font-family="FreeSans" font-size="10.00">&lt; T, Value &gt;</text>
</a>
</g>
</g>
<!-- Node3 -->
<g id="Node000003" class="node">
<title>Node3</title>
<g id="a_Node000003"><a xlink:href="structDGtal_1_1concepts_1_1CBidirectionalRangeWithWritableIterator.html" target="_top" xlink:title="Aim: refined concept of bidirectional range which require that a reverse output iterator exists.">
<polygon fill="white" stroke="#666666" points="550.12,-119.75 391.62,-119.75 391.62,-69 550.12,-69 550.12,-119.75"/>
<text text-anchor="start" x="399.62" y="-106.25" font-family="FreeSans" font-size="10.00">DGtal::concepts::CBidirectional</text>
<text text-anchor="start" x="399.62" y="-92" font-family="FreeSans" font-size="10.00">RangeWithWritableIterator</text>
<text text-anchor="middle" x="470.88" y="-77.75" font-family="FreeSans" font-size="10.00">&lt; T, Value &gt;</text>
</a>
</g>
</g>
<!-- Node1&#45;&gt;Node3 -->
<g id="edge2_Node000001_Node000003" class="edge">
<title>Node1&#45;&gt;Node3</title>
<g id="a_edge2_Node000001_Node000003"><a xlink:title=" ">
<path fill="none" stroke="#63b8ff" d="M365.32,-75.73C373.97,-77.27 382.68,-78.83 391.2,-80.34"/>
<polygon fill="#63b8ff" stroke="#63b8ff" points="365.96,-72.29 355.5,-73.98 364.73,-79.18 365.96,-72.29"/>
</a>
</g>
</g>
<!-- Node5 -->
<g id="Node000005" class="node">
<title>Node5</title>
<g id="a_Node000005"><a xlink:href="structDGtal_1_1concepts_1_1CSinglePassRangeWithWritableIteratorFromPoint.html" target="_top" xlink:title="Aim: refined concept of single pass range with a outputIterator() method from a point.">
<polygon fill="white" stroke="#666666" points="552,-50.75 389.75,-50.75 389.75,0 552,0 552,-50.75"/>
<text text-anchor="start" x="397.75" y="-37.25" font-family="FreeSans" font-size="10.00">DGtal::concepts::CSingle</text>
<text text-anchor="start" x="397.75" y="-23" font-family="FreeSans" font-size="10.00">PassRangeWithWritableIterator</text>
<text text-anchor="middle" x="470.88" y="-8.75" font-family="FreeSans" font-size="10.00">FromPoint&lt; T, Value &gt;</text>
</a>
</g>
</g>
<!-- Node1&#45;&gt;Node5 -->
<g id="edge4_Node000001_Node000005" class="edge">
<title>Node1&#45;&gt;Node5</title>
<g id="a_edge4_Node000001_Node000005"><a xlink:title=" ">
<path fill="none" stroke="#63b8ff" d="M365.29,-43.49C373.3,-42.11 381.38,-40.71 389.29,-39.34"/>
<polygon fill="#63b8ff" stroke="#63b8ff" points="364.76,-40.03 355.5,-45.19 365.96,-46.93 364.76,-40.03"/>
</a>
</g>
</g>
<!-- Node2 -->
<g id="Node000002" class="node">
<title>Node2</title>
<g id="a_Node000002"><a xlink:href="structDGtal_1_1concepts_1_1CConstSinglePassRange.html" target="_top" xlink:title="Aim: Defines the concept describing a const single pass range.">
<polygon fill="white" stroke="#666666" points="155.5,-77.62 0,-77.62 0,-41.12 155.5,-41.12 155.5,-77.62"/>
<text text-anchor="start" x="8" y="-64.12" font-family="FreeSans" font-size="10.00">DGtal::concepts::CConstSingle</text>
<text text-anchor="middle" x="77.75" y="-49.88" font-family="FreeSans" font-size="10.00">PassRange&lt; T &gt;</text>
</a>
</g>
</g>
<!-- Node2&#45;&gt;Node1 -->
<g id="edge1_Node000001_Node000002" class="edge">
<title>Node2&#45;&gt;Node1</title>
<g id="a_edge1_Node000001_Node000002"><a xlink:title=" ">
<path fill="none" stroke="#63b8ff" d="M167.1,-59.38C175.14,-59.38 183.25,-59.38 191.21,-59.38"/>
<polygon fill="#63b8ff" stroke="#63b8ff" points="167.32,-55.88 157.32,-59.38 167.32,-62.88 167.32,-55.88"/>
</a>
</g>
</g>
<!-- Node4 -->
<g id="Node000004" class="node">
<title>Node4</title>
<g id="a_Node000004"><a xlink:href="structDGtal_1_1concepts_1_1CBidirectionalRangeWithWritableIteratorFromPoint.html" target="_top" xlink:title="Aim: refined concept of single pass range with an routputIterator() method from a point.">
<polygon fill="white" stroke="#666666" points="778,-119.75 588,-119.75 588,-69 778,-69 778,-119.75"/>
<text text-anchor="start" x="596" y="-106.25" font-family="FreeSans" font-size="10.00">DGtal::concepts::CBidirectional</text>
<text text-anchor="start" x="596" y="-92" font-family="FreeSans" font-size="10.00">RangeWithWritableIteratorFromPoint</text>
<text text-anchor="middle" x="683" y="-77.75" font-family="FreeSans" font-size="10.00">&lt; T, Value &gt;</text>
</a>
</g>
</g>
<!-- Node3&#45;&gt;Node4 -->
<g id="edge3_Node000003_Node000004" class="edge">
<title>Node3&#45;&gt;Node4</title>
<g id="a_edge3_Node000003_Node000004"><a xlink:title=" ">
<path fill="none" stroke="#63b8ff" d="M561.91,-94.38C570.41,-94.38 579.05,-94.38 587.59,-94.38"/>
<polygon fill="#63b8ff" stroke="#63b8ff" points="561.93,-90.88 551.93,-94.38 561.93,-97.88 561.93,-90.88"/>
</a>
</g>
</g>
</g>
</svg>
