<?xml version="1.0" encoding="UTF-8" standalone="no"?>
<!DOCTYPE svg PUBLIC "-//W3C//DTD SVG 1.1//EN"
 "http://www.w3.org/Graphics/SVG/1.1/DTD/svg11.dtd">
<!-- Generated by graphviz version 11.0.0 (0)
 -->
<!-- Title: DGtal::concepts::CUnsignedNumber&lt; T &gt; Pages: 1 -->
<svg width="759pt" height="110pt"
 viewBox="0.00 0.00 759.00 110.25" xmlns="http://www.w3.org/2000/svg" xmlns:xlink="http://www.w3.org/1999/xlink">
<g id="graph0" class="graph" transform="scale(1 1) rotate(0) translate(4 106.25)">
<title>DGtal::concepts::CUnsignedNumber&lt; T &gt;</title>
<!-- Node1 -->
<g id="Node000001" class="node">
<title>Node1</title>
<g id="a_Node000001"><a xlink:title="Aim: Concept checking for Unsigned numbers. Models of this concept should be listed in NumberTraits c...">
<polygon fill="#999999" stroke="#666666" points="751,-49.38 605.25,-49.38 605.25,-12.88 751,-12.88 751,-49.38"/>
<text text-anchor="start" x="613.25" y="-35.88" font-family="FreeSans" font-size="10.00">DGtal::concepts::CUnsigned</text>
<text text-anchor="middle" x="678.12" y="-21.62" font-family="FreeSans" font-size="10.00">Number&lt; T &gt;</text>
</a>
</g>
</g>
<!-- Node2 -->
<g id="Node000002" class="node">
<title>Node2</title>
<g id="a_Node000002"><a xlink:href="structDGtal_1_1concepts_1_1CQuantity.html" target="_top" xlink:title="Aim: defines the concept of quantity in DGtal.">
<polygon fill="white" stroke="#666666" points="569.25,-42.25 406.25,-42.25 406.25,-20 569.25,-20 569.25,-42.25"/>
<text text-anchor="middle" x="487.75" y="-28.75" font-family="FreeSans" font-size="10.00">DGtal::concepts::CQuantity&lt; T &gt;</text>
</a>
</g>
</g>
<!-- Node2&#45;&gt;Node1 -->
<g id="edge1_Node000001_Node000002" class="edge">
<title>Node2&#45;&gt;Node1</title>
<g id="a_edge1_Node000001_Node000002"><a xlink:title=" ">
<path fill="none" stroke="#63b8ff" d="M581,-31.12C589,-31.12 597.02,-31.12 604.82,-31.12"/>
<polygon fill="#63b8ff" stroke="#63b8ff" points="581.24,-27.63 571.24,-31.13 581.24,-34.63 581.24,-27.63"/>
</a>
</g>
</g>
<!-- Node3 -->
<g id="Node000003" class="node">
<title>Node3</title>
<g id="a_Node000003"><a xlink:href="structDGtal_1_1concepts_1_1CLabel.html" target="_top" xlink:title="Aim: Define the concept of DGtal labels. Models of CLabel can be default&#45;constructible,...">
<polygon fill="white" stroke="#666666" points="360.12,-62.25 212.12,-62.25 212.12,-40 360.12,-40 360.12,-62.25"/>
<text text-anchor="middle" x="286.12" y="-48.75" font-family="FreeSans" font-size="10.00">DGtal::concepts::CLabel&lt; T &gt;</text>
</a>
</g>
</g>
<!-- Node3&#45;&gt;Node2 -->
<g id="edge2_Node000002_Node000003" class="edge">
<title>Node3&#45;&gt;Node2</title>
<g id="a_edge2_Node000002_Node000003"><a xlink:title=" ">
<path fill="none" stroke="#63b8ff" d="M371.83,-42.64C383.16,-41.5 394.76,-40.34 406.03,-39.21"/>
<polygon fill="#63b8ff" stroke="#63b8ff" points="371.71,-39.13 362.11,-43.61 372.41,-46.1 371.71,-39.13"/>
</a>
</g>
</g>
<!-- Node4 -->
<g id="Node000004" class="node">
<title>Node4</title>
<g id="a_Node000004"><a xlink:href="structboost_1_1DefaultConstructible.html" target="_top" xlink:title="Go to http://www.sgi.com/tech/stl/DefaultConstructible.html.">
<polygon fill="white" stroke="#666666" points="166,-102.25 0,-102.25 0,-80 166,-80 166,-102.25"/>
<text text-anchor="middle" x="83" y="-88.75" font-family="FreeSans" font-size="10.00">boost::DefaultConstructible&lt; T &gt;</text>
</a>
</g>
</g>
<!-- Node4&#45;&gt;Node3 -->
<g id="edge3_Node000003_Node000004" class="edge">
<title>Node4&#45;&gt;Node3</title>
<g id="a_edge3_Node000003_Node000004"><a xlink:title=" ">
<path fill="none" stroke="#63b8ff" d="M153.58,-77.29C177.48,-72.53 203.98,-67.26 226.88,-62.71"/>
<polygon fill="#63b8ff" stroke="#63b8ff" points="153.05,-73.82 143.93,-79.21 154.42,-80.69 153.05,-73.82"/>
</a>
</g>
</g>
<!-- Node5 -->
<g id="Node000005" class="node">
<title>Node5</title>
<g id="a_Node000005"><a xlink:href="structboost_1_1Assignable.html" target="_top" xlink:title="Go to http://www.sgi.com/tech/stl/Assignable.html.">
<polygon fill="white" stroke="#666666" points="142.75,-62.25 23.25,-62.25 23.25,-40 142.75,-40 142.75,-62.25"/>
<text text-anchor="middle" x="83" y="-48.75" font-family="FreeSans" font-size="10.00">boost::Assignable&lt; T &gt;</text>
</a>
</g>
</g>
<!-- Node5&#45;&gt;Node3 -->
<g id="edge4_Node000003_Node000005" class="edge">
<title>Node5&#45;&gt;Node3</title>
<g id="a_edge4_Node000003_Node000005"><a xlink:title=" ">
<path fill="none" stroke="#63b8ff" d="M154.35,-51.12C172.96,-51.12 193.09,-51.12 211.85,-51.12"/>
<polygon fill="#63b8ff" stroke="#63b8ff" points="154.5,-47.63 144.5,-51.13 154.5,-54.63 154.5,-47.63"/>
</a>
</g>
</g>
<!-- Node6 -->
<g id="Node000006" class="node">
<title>Node6</title>
<g id="a_Node000006"><a xlink:href="structboost_1_1EqualityComparable.html" target="_top" xlink:title="Go to http://www.sgi.com/tech/stl/EqualityComparable.html.">
<polygon fill="white" stroke="#666666" points="163.75,-22.25 2.25,-22.25 2.25,0 163.75,0 163.75,-22.25"/>
<text text-anchor="middle" x="83" y="-8.75" font-family="FreeSans" font-size="10.00">boost::EqualityComparable&lt; T &gt;</text>
</a>
</g>
</g>
<!-- Node6&#45;&gt;Node3 -->
<g id="edge5_Node000003_Node000006" class="edge">
<title>Node6&#45;&gt;Node3</title>
<g id="a_edge5_Node000003_Node000006"><a xlink:title=" ">
<path fill="none" stroke="#63b8ff" d="M153.58,-24.96C177.48,-29.72 203.98,-34.99 226.88,-39.54"/>
<polygon fill="#63b8ff" stroke="#63b8ff" points="154.42,-21.56 143.93,-23.04 153.05,-28.43 154.42,-21.56"/>
</a>
</g>
</g>
<!-- Node7 -->
<g id="Node000007" class="node">
<title>Node7</title>
<g id="a_Node000007"><a xlink:href="structboost_1_1LessThanComparable.html" target="_top" xlink:title="Go to http://www.sgi.com/tech/stl/LessThanComparable.html.">
<polygon fill="white" stroke="#666666" points="370.25,-22.25 202,-22.25 202,0 370.25,0 370.25,-22.25"/>
<text text-anchor="middle" x="286.12" y="-8.75" font-family="FreeSans" font-size="10.00">boost::LessThanComparable&lt; T &gt;</text>
</a>
</g>
</g>
<!-- Node7&#45;&gt;Node2 -->
<g id="edge6_Node000002_Node000007" class="edge">
<title>Node7&#45;&gt;Node2</title>
<g id="a_edge6_Node000002_Node000007"><a xlink:title=" ">
<path fill="none" stroke="#63b8ff" d="M381.89,-20.62C389.89,-21.42 397.94,-22.23 405.82,-23.02"/>
<polygon fill="#63b8ff" stroke="#63b8ff" points="382.43,-17.16 372.13,-19.64 381.73,-24.12 382.43,-17.16"/>
</a>
</g>
</g>
</g>
</svg>
