<?xml version="1.0" encoding="UTF-8" standalone="no"?>
<!DOCTYPE svg PUBLIC "-//W3C//DTD SVG 1.1//EN"
 "http://www.w3.org/Graphics/SVG/1.1/DTD/svg11.dtd">
<!-- Generated by graphviz version 11.0.0 (0)
 -->
<!-- Title: DGtal::UnorderedAssociativeCategory Pages: 1 -->
<!--zoomable 210 -->

<svg id="main" version="1.1" xmlns="http://www.w3.org/2000/svg" xmlns:xlink="http://www.w3.org/1999/xlink" xml:space="preserve" onload="init(evt)">
<style type="text/css"><![CDATA[
.node, .edge {opacity: 0.7;}
.node.selected, .edge.selected {opacity: 1;}
.edge:hover path { stroke: red; }
.edge:hover polygon { stroke: red; fill: red; }
]]></style>

<defs>
  <circle id="rim" cx="0" cy="0" r="7"/>
  <circle id="rim2" cx="0" cy="0" r="3.5"/>
  <g id="zoomPlus">
    <use xlink:href="#rim" fill="#404040"><set attributeName="fill" to="#808080" begin="zoomplus.mouseover" end="zoomplus.mouseout"/></use>
    <path d="M-4,0h8M0,-4v8" fill="none" stroke="white" stroke-width="1.5" pointer-events="none"/>
  </g>
  <g id="zoomMin">
    <use xlink:href="#rim" fill="#404040"><set attributeName="fill" to="#808080" begin="zoomminus.mouseover" end="zoomminus.mouseout"/></use>
    <path d="M-4,0h8" fill="none" stroke="white" stroke-width="1.5" pointer-events="none"/>
  </g>
  <g id="arrowUp" transform="translate(30 24)">
    <use xlink:href="#rim"/>
    <path pointer-events="none" fill="none" stroke="white" stroke-width="1.5" d="M0,-3.0v7 M-2.5,-0.5L0,-3.0L2.5,-0.5"/>
  </g>
  <g id="arrowRight" transform="rotate(90) translate(36 -43)">
    <use xlink:href="#rim"/>
    <path pointer-events="none" fill="none" stroke="white" stroke-width="1.5" d="M0,-3.0v7 M-2.5,-0.5L0,-3.0L2.5,-0.5"/>
  </g>
  <g id="arrowDown" transform="rotate(180) translate(-30 -48)">
    <use xlink:href="#rim"/>
    <path pointer-events="none" fill="none" stroke="white" stroke-width="1.5" d="M0,-3.0v7 M-2.5,-0.5L0,-3.0L2.5,-0.5"/>
  </g>
  <g id="arrowLeft" transform="rotate(270) translate(-36 17)">
    <use xlink:href="#rim"/>
    <path pointer-events="none" fill="none" stroke="white" stroke-width="1.5" d="M0,-3.0v7 M-2.5,-0.5L0,-3.0L2.5,-0.5"/>
  </g>
  <g id="resetDef">
    <use xlink:href="#rim2" fill="#404040"><set attributeName="fill" to="#808080" begin="reset.mouseover" end="reset.mouseout"/></use>
  </g>
</defs>
<script type="application/ecmascript">
var viewWidth = 716;
var viewHeight = 210;
var sectionId = 'dynsection-0';
</script>
<script type="application/ecmascript" xlink:href="svg.min.js"/>
<svg id="graph" class="graph">
<g id="viewport">
<title>DGtal::UnorderedAssociativeCategory</title>
<!-- Node1 -->
<g id="Node000001" class="node">
<title>Node1</title>
<g id="a_Node000001"><a xlink:title=" ">
<polygon fill="#999999" stroke="#666666" points="501,-118.5 350.75,-118.5 350.75,-82 501,-82 501,-118.5"/>
<text text-anchor="start" x="358.75" y="-105" font-family="FreeSans" font-size="10.00">DGtal::UnorderedAssociative</text>
<text text-anchor="middle" x="425.88" y="-90.75" font-family="FreeSans" font-size="10.00">Category</text>
</a>
</g>
</g>
<!-- Node4 -->
<g id="Node000004" class="node">
<title>Node4</title>
<g id="a_Node000004"><a xlink:href="structDGtal_1_1UnorderedMapAssociativeCategory.html" target="_top" xlink:title=" ">
<polygon fill="white" stroke="#666666" points="707.5,-201.5 537,-201.5 537,-165 707.5,-165 707.5,-201.5"/>
<text text-anchor="start" x="545" y="-188" font-family="FreeSans" font-size="10.00">DGtal::UnorderedMapAssociative</text>
<text text-anchor="middle" x="622.25" y="-173.75" font-family="FreeSans" font-size="10.00">Category</text>
</a>
</g>
</g>
<!-- Node1&#45;&gt;Node4 -->
<g id="edge3_Node000001_Node000004" class="edge">
<title>Node1&#45;&gt;Node4</title>
<g id="a_edge3_Node000001_Node000004"><a xlink:title=" ">
<path fill="none" stroke="#63b8ff" d="M471,-124.09C490.86,-134.35 514.8,-146.07 537,-155.25 544.83,-158.49 553.19,-161.63 561.48,-164.56"/>
<polygon fill="#63b8ff" stroke="#63b8ff" points="472.83,-121.1 462.35,-119.58 469.6,-127.31 472.83,-121.1"/>
</a>
</g>
</g>
<!-- Node5 -->
<g id="Node000005" class="node">
<title>Node5</title>
<g id="a_Node000005"><a xlink:href="structDGtal_1_1UnorderedMultimapAssociativeCategory.html" target="_top" xlink:title=" ">
<polygon fill="white" stroke="#666666" points="693.62,-146.5 550.88,-146.5 550.88,-110 693.62,-110 693.62,-146.5"/>
<text text-anchor="start" x="558.88" y="-133" font-family="FreeSans" font-size="10.00">DGtal::UnorderedMultimap</text>
<text text-anchor="middle" x="622.25" y="-118.75" font-family="FreeSans" font-size="10.00">AssociativeCategory</text>
</a>
</g>
</g>
<!-- Node1&#45;&gt;Node5 -->
<g id="edge4_Node000001_Node000005" class="edge">
<title>Node1&#45;&gt;Node5</title>
<g id="a_edge4_Node000001_Node000005"><a xlink:title=" ">
<path fill="none" stroke="#63b8ff" d="M512.57,-112.59C525.31,-114.43 538.31,-116.3 550.69,-118.09"/>
<polygon fill="#63b8ff" stroke="#63b8ff" points="513.36,-109.17 502.97,-111.21 512.37,-116.1 513.36,-109.17"/>
</a>
</g>
</g>
<!-- Node6 -->
<g id="Node000006" class="node">
<title>Node6</title>
<g id="a_Node000006"><a xlink:href="structDGtal_1_1UnorderedMultisetAssociativeCategory.html" target="_top" xlink:title=" ">
<polygon fill="white" stroke="#666666" points="690.62,-91.5 553.88,-91.5 553.88,-55 690.62,-55 690.62,-91.5"/>
<text text-anchor="start" x="561.88" y="-78" font-family="FreeSans" font-size="10.00">DGtal::UnorderedMultiset</text>
<text text-anchor="middle" x="622.25" y="-63.75" font-family="FreeSans" font-size="10.00">AssociativeCategory</text>
</a>
</g>
</g>
<!-- Node1&#45;&gt;Node6 -->
<g id="edge5_Node000001_Node000006" class="edge">
<title>Node1&#45;&gt;Node6</title>
<g id="a_edge5_Node000001_Node000006"><a xlink:title=" ">
<path fill="none" stroke="#63b8ff" d="M512.83,-88.31C526.46,-86.42 540.4,-84.48 553.54,-82.66"/>
<polygon fill="#63b8ff" stroke="#63b8ff" points="512.39,-84.84 502.97,-89.68 513.36,-91.77 512.39,-84.84"/>
</a>
</g>
</g>
<!-- Node7 -->
<g id="Node000007" class="node">
<title>Node7</title>
<g id="a_Node000007"><a xlink:href="structDGtal_1_1UnorderedSetAssociativeCategory.html" target="_top" xlink:title=" ">
<polygon fill="white" stroke="#666666" points="704.88,-36.5 539.62,-36.5 539.62,0 704.88,0 704.88,-36.5"/>
<text text-anchor="start" x="547.62" y="-23" font-family="FreeSans" font-size="10.00">DGtal::UnorderedSetAssociative</text>
<text text-anchor="middle" x="622.25" y="-8.75" font-family="FreeSans" font-size="10.00">Category</text>
</a>
</g>
</g>
<!-- Node1&#45;&gt;Node7 -->
<g id="edge6_Node000001_Node000007" class="edge">
<title>Node1&#45;&gt;Node7</title>
<g id="a_edge6_Node000001_Node000007"><a xlink:title=" ">
<path fill="none" stroke="#63b8ff" d="M472.22,-76.3C491.86,-66.38 515.28,-55.14 537,-46.25 544.85,-43.04 553.21,-39.92 561.51,-36.99"/>
<polygon fill="#63b8ff" stroke="#63b8ff" points="470.69,-73.15 463.38,-80.81 473.87,-79.38 470.69,-73.15"/>
</a>
</g>
</g>
<!-- Node2 -->
<g id="Node000002" class="node">
<title>Node2</title>
<g id="a_Node000002"><a xlink:href="structDGtal_1_1AssociativeCategory.html" target="_top" xlink:title=" ">
<polygon fill="white" stroke="#666666" points="314.75,-111.38 172.75,-111.38 172.75,-89.12 314.75,-89.12 314.75,-111.38"/>
<text text-anchor="middle" x="243.75" y="-97.88" font-family="FreeSans" font-size="10.00">DGtal::AssociativeCategory</text>
</a>
</g>
</g>
<!-- Node2&#45;&gt;Node1 -->
<g id="edge1_Node000001_Node000002" class="edge">
<title>Node2&#45;&gt;Node1</title>
<g id="a_edge1_Node000001_Node000002"><a xlink:title=" ">
<path fill="none" stroke="#63b8ff" d="M326.65,-100.25C334.54,-100.25 342.53,-100.25 350.35,-100.25"/>
<polygon fill="#63b8ff" stroke="#63b8ff" points="326.68,-96.75 316.68,-100.25 326.68,-103.75 326.68,-96.75"/>
</a>
</g>
</g>
<!-- Node3 -->
<g id="Node000003" class="node">
<title>Node3</title>
<g id="a_Node000003"><a xlink:href="structDGtal_1_1ContainerCategory.html" target="_top" xlink:title=" ">
<polygon fill="white" stroke="#666666" points="136.75,-111.38 0,-111.38 0,-89.12 136.75,-89.12 136.75,-111.38"/>
<text text-anchor="middle" x="68.38" y="-97.88" font-family="FreeSans" font-size="10.00">DGtal::ContainerCategory</text>
</a>
</g>
</g>
<!-- Node3&#45;&gt;Node2 -->
<g id="edge2_Node000002_Node000003" class="edge">
<title>Node3&#45;&gt;Node2</title>
<g id="a_edge2_Node000002_Node000003"><a xlink:title=" ">
<path fill="none" stroke="#63b8ff" d="M148.17,-100.25C156.2,-100.25 164.32,-100.25 172.26,-100.25"/>
<polygon fill="#63b8ff" stroke="#63b8ff" points="148.42,-96.75 138.42,-100.25 148.42,-103.75 148.42,-96.75"/>
</a>
</g>
</g>
</g>
</svg>

<g id="navigator" transform="translate(0 0)" fill="#404254">
  <rect fill="#f2f5e9" fill-opacity="0.5" stroke="#606060" stroke-width=".5" x="0" y="0" width="60" height="60"/>
  <use id="zoomplus" xlink:href="#zoomPlus" x="17" y="9" onmousedown="handleZoom(evt,'in')"/>
  <use id="zoomminus" xlink:href="#zoomMin" x="42" y="9" onmousedown="handleZoom(evt,'out')"/>
  <use id="reset" xlink:href="#resetDef" x="30" y="36" onmousedown="handleReset()"/>
   <use id="arrowup" xlink:href="#arrowUp" x="0" y="0" onmousedown="handlePan(0,-1)"/>
  <use id="arrowright" xlink:href="#arrowRight" x="0" y="0" onmousedown="handlePan(1,0)"/>
  <use id="arrowdown" xlink:href="#arrowDown" x="0" y="0" onmousedown="handlePan(0,1)"/>
  <use id="arrowleft" xlink:href="#arrowLeft" x="0" y="0" onmousedown="handlePan(-1,0)"/>
</g>
<svg viewBox="0 0 15 15" width="100%" height="30px" preserveAspectRatio="xMaxYMin meet">
 <g id="arrow_out" transform="scale(0.3 0.3)">
  <a xlink:href="structDGtal_1_1UnorderedAssociativeCategory__inherit__graph_org.svg" target="_base">
   <rect id="button" ry="5" rx="5" y="6" x="6" height="38" width="38"
        fill="#f2f5e9" fill-opacity="0.5" stroke="#606060" stroke-width="1.0"/>
   <path id="arrow"
     d="M 11.500037,31.436501 C 11.940474,20.09759 22.043105,11.32322 32.158766,21.979434 L 37.068811,17.246167 C 37.068811,17.246167 37.088388,32 37.088388,32 L 22.160133,31.978069 C 22.160133,31.978069 26.997745,27.140456 26.997745,27.140456 C 18.528582,18.264221 13.291696,25.230495 11.500037,31.436501 z"
     style="fill:#404040;"/>
  </a>
 </g>
</svg>

<style type='text/css'>
<![CDATA[
[data-mouse-over-selected='false'] { opacity: 0.7; }
[data-mouse-over-selected='true']  { opacity: 1.0; }
]]>
</style>
<script type="application/ecmascript"><![CDATA[
document.addEventListener('DOMContentLoaded', (event) => {
  highlightEdges();
  highlightAdjacentNodes();
});
]]></script>
</svg>
