<?xml version="1.0" encoding="UTF-8" standalone="no"?>
<!DOCTYPE svg PUBLIC "-//W3C//DTD SVG 1.1//EN"
 "http://www.w3.org/Graphics/SVG/1.1/DTD/svg11.dtd">
<!-- Generated by graphviz version 11.0.0 (0)
 -->
<!-- Title: DGtal::concepts::CDynamicBidirectionalSegmentComputer&lt; T &gt; Pages: 1 -->
<svg width="1339pt" height="150pt"
 viewBox="0.00 0.00 1338.75 150.25" xmlns="http://www.w3.org/2000/svg" xmlns:xlink="http://www.w3.org/1999/xlink">
<g id="graph0" class="graph" transform="scale(1 1) rotate(0) translate(4 146.25)">
<title>DGtal::concepts::CDynamicBidirectionalSegmentComputer&lt; T &gt;</title>
<!-- Node1 -->
<g id="Node000001" class="node">
<title>Node1</title>
<g id="a_Node000001"><a xlink:title="Aim: Defines the concept describing a dynamic and bidirectional segment computer, ie....">
<polygon fill="#999999" stroke="#666666" points="1330.75,-89.38 1146.75,-89.38 1146.75,-52.88 1330.75,-52.88 1330.75,-89.38"/>
<text text-anchor="start" x="1154.75" y="-75.88" font-family="FreeSans" font-size="10.00">DGtal::concepts::CDynamic</text>
<text text-anchor="middle" x="1238.75" y="-61.62" font-family="FreeSans" font-size="10.00">BidirectionalSegmentComputer&lt; T &gt;</text>
</a>
</g>
</g>
<!-- Node2 -->
<g id="Node000002" class="node">
<title>Node2</title>
<g id="a_Node000002"><a xlink:href="structDGtal_1_1concepts_1_1CBidirectionalSegmentComputer.html" target="_top" xlink:title="Aim: Defines the concept describing a bidirectional segment computer, &#160;&#160;ie. a model of concepts::CSeg...">
<polygon fill="white" stroke="#666666" points="1110.75,-117.38 952.25,-117.38 952.25,-80.88 1110.75,-80.88 1110.75,-117.38"/>
<text text-anchor="start" x="960.25" y="-103.88" font-family="FreeSans" font-size="10.00">DGtal::concepts::CBidirectional</text>
<text text-anchor="middle" x="1031.5" y="-89.62" font-family="FreeSans" font-size="10.00">SegmentComputer&lt; T &gt;</text>
</a>
</g>
</g>
<!-- Node2&#45;&gt;Node1 -->
<g id="edge1_Node000001_Node000002" class="edge">
<title>Node2&#45;&gt;Node1</title>
<g id="a_edge1_Node000001_Node000002"><a xlink:title=" ">
<path fill="none" stroke="#63b8ff" d="M1122.18,-86.89C1130.17,-85.8 1138.27,-84.7 1146.27,-83.6"/>
<polygon fill="#63b8ff" stroke="#63b8ff" points="1121.91,-83.4 1112.47,-88.21 1122.86,-90.33 1121.91,-83.4"/>
</a>
</g>
</g>
<!-- Node3 -->
<g id="Node000003" class="node">
<title>Node3</title>
<g id="a_Node000003"><a xlink:href="structDGtal_1_1concepts_1_1CForwardSegmentComputer.html" target="_top" xlink:title="Aim: Defines the concept describing a forward segment computer. Like any model of CIncrementalSegment...">
<polygon fill="white" stroke="#666666" points="916.25,-89.38 776.5,-89.38 776.5,-52.88 916.25,-52.88 916.25,-89.38"/>
<text text-anchor="start" x="784.5" y="-75.88" font-family="FreeSans" font-size="10.00">DGtal::concepts::CForward</text>
<text text-anchor="middle" x="846.38" y="-61.62" font-family="FreeSans" font-size="10.00">SegmentComputer&lt; T &gt;</text>
</a>
</g>
</g>
<!-- Node3&#45;&gt;Node2 -->
<g id="edge2_Node000002_Node000003" class="edge">
<title>Node3&#45;&gt;Node2</title>
<g id="a_edge2_Node000002_Node000003"><a xlink:title=" ">
<path fill="none" stroke="#63b8ff" d="M927.83,-83.43C935.84,-84.65 943.97,-85.89 951.96,-87.12"/>
<polygon fill="#63b8ff" stroke="#63b8ff" points="928.52,-79.99 918.1,-81.94 927.46,-86.91 928.52,-79.99"/>
</a>
</g>
</g>
<!-- Node11 -->
<g id="Node000011" class="node">
<title>Node11</title>
<g id="a_Node000011"><a xlink:href="structDGtal_1_1concepts_1_1CDynamicSegmentComputer.html" target="_top" xlink:title="Aim: Defines the concept describing a dynamic segment computer, &#160;&#160;ie. a model of CSegment that can ex...">
<polygon fill="white" stroke="#666666" points="1102.12,-62.38 960.88,-62.38 960.88,-25.88 1102.12,-25.88 1102.12,-62.38"/>
<text text-anchor="start" x="968.88" y="-48.88" font-family="FreeSans" font-size="10.00">DGtal::concepts::CDynamic</text>
<text text-anchor="middle" x="1031.5" y="-34.62" font-family="FreeSans" font-size="10.00">SegmentComputer&lt; T &gt;</text>
</a>
</g>
</g>
<!-- Node3&#45;&gt;Node11 -->
<g id="edge11_Node000011_Node000003" class="edge">
<title>Node3&#45;&gt;Node11</title>
<g id="a_edge11_Node000011_Node000003"><a xlink:title=" ">
<path fill="none" stroke="#63b8ff" d="M927.86,-59.26C938.76,-57.65 949.87,-56.01 960.56,-54.44"/>
<polygon fill="#63b8ff" stroke="#63b8ff" points="927.49,-55.78 918.1,-60.7 928.51,-62.7 927.49,-55.78"/>
</a>
</g>
</g>
<!-- Node4 -->
<g id="Node000004" class="node">
<title>Node4</title>
<g id="a_Node000004"><a xlink:href="structDGtal_1_1concepts_1_1CIncrementalSegmentComputer.html" target="_top" xlink:title="Aim: Defines the concept describing an incremental segment computer, &#160;&#160;ie. a model of CSegmentFactory...">
<polygon fill="white" stroke="#666666" points="740.5,-89.38 582.75,-89.38 582.75,-52.88 740.5,-52.88 740.5,-89.38"/>
<text text-anchor="start" x="590.75" y="-75.88" font-family="FreeSans" font-size="10.00">DGtal::concepts::CIncremental</text>
<text text-anchor="middle" x="661.62" y="-61.62" font-family="FreeSans" font-size="10.00">SegmentComputer&lt; T &gt;</text>
</a>
</g>
</g>
<!-- Node4&#45;&gt;Node3 -->
<g id="edge3_Node000003_Node000004" class="edge">
<title>Node4&#45;&gt;Node3</title>
<g id="a_edge3_Node000003_Node000004"><a xlink:title=" ">
<path fill="none" stroke="#63b8ff" d="M752.25,-71.12C760.29,-71.12 768.35,-71.12 776.18,-71.12"/>
<polygon fill="#63b8ff" stroke="#63b8ff" points="752.44,-67.63 742.44,-71.13 752.44,-74.63 752.44,-67.63"/>
</a>
</g>
</g>
<!-- Node5 -->
<g id="Node000005" class="node">
<title>Node5</title>
<g id="a_Node000005"><a xlink:href="structDGtal_1_1concepts_1_1CSegmentFactory.html" target="_top" xlink:title="Aim: Defines the concept describing a segment ie. a valid and not empty subrange, which can construct...">
<polygon fill="white" stroke="#666666" points="546.75,-89.38 403.25,-89.38 403.25,-52.88 546.75,-52.88 546.75,-89.38"/>
<text text-anchor="start" x="411.25" y="-75.88" font-family="FreeSans" font-size="10.00">DGtal::concepts::CSegment</text>
<text text-anchor="middle" x="475" y="-61.62" font-family="FreeSans" font-size="10.00">Factory&lt; T &gt;</text>
</a>
</g>
</g>
<!-- Node5&#45;&gt;Node4 -->
<g id="edge4_Node000004_Node000005" class="edge">
<title>Node5&#45;&gt;Node4</title>
<g id="a_edge4_Node000004_Node000005"><a xlink:title=" ">
<path fill="none" stroke="#63b8ff" d="M558.36,-71.12C566.38,-71.12 574.51,-71.12 582.49,-71.12"/>
<polygon fill="#63b8ff" stroke="#63b8ff" points="558.63,-67.63 548.63,-71.13 558.63,-74.63 558.63,-67.63"/>
</a>
</g>
</g>
<!-- Node6 -->
<g id="Node000006" class="node">
<title>Node6</title>
<g id="a_Node000006"><a xlink:href="structDGtal_1_1concepts_1_1CSegment.html" target="_top" xlink:title="Aim: Defines the concept describing a segment, ie. a valid and not empty range.">
<polygon fill="white" stroke="#666666" points="367.25,-82.25 202,-82.25 202,-60 367.25,-60 367.25,-82.25"/>
<text text-anchor="middle" x="284.62" y="-68.75" font-family="FreeSans" font-size="10.00">DGtal::concepts::CSegment&lt; T &gt;</text>
</a>
</g>
</g>
<!-- Node6&#45;&gt;Node5 -->
<g id="edge5_Node000005_Node000006" class="edge">
<title>Node6&#45;&gt;Node5</title>
<g id="a_edge5_Node000005_Node000006"><a xlink:title=" ">
<path fill="none" stroke="#63b8ff" d="M379,-71.12C387.01,-71.12 395.03,-71.12 402.82,-71.12"/>
<polygon fill="#63b8ff" stroke="#63b8ff" points="379.21,-67.63 369.21,-71.13 379.21,-74.63 379.21,-67.63"/>
</a>
</g>
</g>
<!-- Node7 -->
<g id="Node000007" class="node">
<title>Node7</title>
<g id="a_Node000007"><a xlink:href="structboost_1_1DefaultConstructible.html" target="_top" xlink:title="Go to http://www.sgi.com/tech/stl/DefaultConstructible.html.">
<polygon fill="white" stroke="#666666" points="166,-142.25 0,-142.25 0,-120 166,-120 166,-142.25"/>
<text text-anchor="middle" x="83" y="-128.75" font-family="FreeSans" font-size="10.00">boost::DefaultConstructible&lt; T &gt;</text>
</a>
</g>
</g>
<!-- Node7&#45;&gt;Node6 -->
<g id="edge6_Node000006_Node000007" class="edge">
<title>Node7&#45;&gt;Node6</title>
<g id="a_edge6_Node000006_Node000007"><a xlink:title=" ">
<path fill="none" stroke="#63b8ff" d="M145.39,-116.78C152.37,-114.96 159.35,-113.06 166,-111.12 195.61,-102.5 228.84,-91.03 252.41,-82.58"/>
<polygon fill="#63b8ff" stroke="#63b8ff" points="144.79,-113.32 135.96,-119.18 146.51,-120.11 144.79,-113.32"/>
</a>
</g>
</g>
<!-- Node8 -->
<g id="Node000008" class="node">
<title>Node8</title>
<g id="a_Node000008"><a xlink:href="structboost_1_1CopyConstructible.html" target="_top" xlink:title="Go to http://www.sgi.com/tech/stl/CopyConstructible.html.">
<polygon fill="white" stroke="#666666" points="160.38,-102.25 5.62,-102.25 5.62,-80 160.38,-80 160.38,-102.25"/>
<text text-anchor="middle" x="83" y="-88.75" font-family="FreeSans" font-size="10.00">boost::CopyConstructible&lt; T &gt;</text>
</a>
</g>
</g>
<!-- Node8&#45;&gt;Node6 -->
<g id="edge7_Node000006_Node000008" class="edge">
<title>Node8&#45;&gt;Node6</title>
<g id="a_edge7_Node000006_Node000008"><a xlink:title=" ">
<path fill="none" stroke="#63b8ff" d="M172.04,-82.3C181.87,-81.32 191.84,-80.32 201.58,-79.34"/>
<polygon fill="#63b8ff" stroke="#63b8ff" points="171.72,-78.82 162.12,-83.3 172.41,-85.78 171.72,-78.82"/>
</a>
</g>
</g>
<!-- Node9 -->
<g id="Node000009" class="node">
<title>Node9</title>
<g id="a_Node000009"><a xlink:href="structboost_1_1Assignable.html" target="_top" xlink:title="Go to http://www.sgi.com/tech/stl/Assignable.html.">
<polygon fill="white" stroke="#666666" points="142.75,-62.25 23.25,-62.25 23.25,-40 142.75,-40 142.75,-62.25"/>
<text text-anchor="middle" x="83" y="-48.75" font-family="FreeSans" font-size="10.00">boost::Assignable&lt; T &gt;</text>
</a>
</g>
</g>
<!-- Node9&#45;&gt;Node6 -->
<g id="edge8_Node000006_Node000009" class="edge">
<title>Node9&#45;&gt;Node6</title>
<g id="a_edge8_Node000006_Node000009"><a xlink:title=" ">
<path fill="none" stroke="#63b8ff" d="M154.09,-58.15C169.5,-59.69 185.94,-61.34 201.76,-62.92"/>
<polygon fill="#63b8ff" stroke="#63b8ff" points="154.89,-54.71 144.59,-57.2 154.19,-61.67 154.89,-54.71"/>
</a>
</g>
</g>
<!-- Node10 -->
<g id="Node000010" class="node">
<title>Node10</title>
<g id="a_Node000010"><a xlink:href="structboost_1_1EqualityComparable.html" target="_top" xlink:title="Go to http://www.sgi.com/tech/stl/EqualityComparable.html.">
<polygon fill="white" stroke="#666666" points="163.75,-22.25 2.25,-22.25 2.25,0 163.75,0 163.75,-22.25"/>
<text text-anchor="middle" x="83" y="-8.75" font-family="FreeSans" font-size="10.00">boost::EqualityComparable&lt; T &gt;</text>
</a>
</g>
</g>
<!-- Node10&#45;&gt;Node6 -->
<g id="edge9_Node000006_Node000010" class="edge">
<title>Node10&#45;&gt;Node6</title>
<g id="a_edge9_Node000006_Node000010"><a xlink:title=" ">
<path fill="none" stroke="#63b8ff" d="M145.39,-25.47C152.37,-27.29 159.35,-29.19 166,-31.12 195.61,-39.75 228.84,-51.22 252.41,-59.67"/>
<polygon fill="#63b8ff" stroke="#63b8ff" points="146.51,-22.14 135.96,-23.07 144.79,-28.93 146.51,-22.14"/>
</a>
</g>
</g>
<!-- Node11&#45;&gt;Node1 -->
<g id="edge10_Node000001_Node000011" class="edge">
<title>Node11&#45;&gt;Node1</title>
<g id="a_edge10_Node000001_Node000011"><a xlink:title=" ">
<path fill="none" stroke="#63b8ff" d="M1113.68,-54.8C1124.49,-56.23 1135.63,-57.69 1146.59,-59.13"/>
<polygon fill="#63b8ff" stroke="#63b8ff" points="1114.43,-51.37 1104.06,-53.54 1113.52,-58.31 1114.43,-51.37"/>
</a>
</g>
</g>
</g>
</svg>
