<?xml version="1.0" encoding="UTF-8" standalone="no"?>
<!DOCTYPE svg PUBLIC "-//W3C//DTD SVG 1.1//EN"
 "http://www.w3.org/Graphics/SVG/1.1/DTD/svg11.dtd">
<!-- Generated by graphviz version 11.0.0 (0)
 -->
<!-- Title: DGtal::PairAssociativeCategory Pages: 1 -->
<svg width="725pt" height="194pt"
 viewBox="0.00 0.00 725.25 194.38" xmlns="http://www.w3.org/2000/svg" xmlns:xlink="http://www.w3.org/1999/xlink">
<g id="graph0" class="graph" transform="scale(1 1) rotate(0) translate(4 190.38)">
<title>DGtal::PairAssociativeCategory</title>
<!-- Node1 -->
<g id="Node000001" class="node">
<title>Node1</title>
<g id="a_Node000001"><a xlink:title=" ">
<polygon fill="#999999" stroke="#666666" points="510.75,-111.38 350.75,-111.38 350.75,-89.12 510.75,-89.12 510.75,-111.38"/>
<text text-anchor="middle" x="430.75" y="-97.88" font-family="FreeSans" font-size="10.00">DGtal::PairAssociativeCategory</text>
</a>
</g>
</g>
<!-- Node4 -->
<g id="Node000004" class="node">
<title>Node4</title>
<g id="a_Node000004"><a xlink:href="structDGtal_1_1MapAssociativeCategory.html" target="_top" xlink:title=" ">
<polygon fill="white" stroke="#666666" points="713.12,-186.38 550.88,-186.38 550.88,-164.12 713.12,-164.12 713.12,-186.38"/>
<text text-anchor="middle" x="632" y="-172.88" font-family="FreeSans" font-size="10.00">DGtal::MapAssociativeCategory</text>
</a>
</g>
</g>
<!-- Node1&#45;&gt;Node4 -->
<g id="edge3_Node000001_Node000004" class="edge">
<title>Node1&#45;&gt;Node4</title>
<g id="a_edge3_Node000001_Node000004"><a xlink:title=" ">
<path fill="none" stroke="#63b8ff" d="M462.43,-117.14C485.17,-129.1 517.21,-144.81 546.75,-155.25 555.68,-158.4 565.32,-161.22 574.77,-163.67"/>
<polygon fill="#63b8ff" stroke="#63b8ff" points="464.18,-114.1 453.71,-112.48 460.88,-120.28 464.18,-114.1"/>
</a>
</g>
</g>
<!-- Node5 -->
<g id="Node000005" class="node">
<title>Node5</title>
<g id="a_Node000005"><a xlink:href="structDGtal_1_1MultimapAssociativeCategory.html" target="_top" xlink:title=" ">
<polygon fill="white" stroke="#666666" points="703.38,-146.5 560.62,-146.5 560.62,-110 703.38,-110 703.38,-146.5"/>
<text text-anchor="start" x="568.62" y="-133" font-family="FreeSans" font-size="10.00">DGtal::MultimapAssociative</text>
<text text-anchor="middle" x="632" y="-118.75" font-family="FreeSans" font-size="10.00">Category</text>
</a>
</g>
</g>
<!-- Node1&#45;&gt;Node5 -->
<g id="edge4_Node000001_Node000005" class="edge">
<title>Node1&#45;&gt;Node5</title>
<g id="a_edge4_Node000001_Node000005"><a xlink:title=" ">
<path fill="none" stroke="#63b8ff" d="M522.23,-112.96C535.01,-114.76 548,-116.59 560.33,-118.32"/>
<polygon fill="#63b8ff" stroke="#63b8ff" points="522.96,-109.53 512.57,-111.61 521.99,-116.47 522.96,-109.53"/>
</a>
</g>
</g>
<!-- Node6 -->
<g id="Node000006" class="node">
<title>Node6</title>
<g id="a_Node000006"><a xlink:href="structDGtal_1_1UnorderedMapAssociativeCategory.html" target="_top" xlink:title=" ">
<polygon fill="white" stroke="#666666" points="717.25,-91.5 546.75,-91.5 546.75,-55 717.25,-55 717.25,-91.5"/>
<text text-anchor="start" x="554.75" y="-78" font-family="FreeSans" font-size="10.00">DGtal::UnorderedMapAssociative</text>
<text text-anchor="middle" x="632" y="-63.75" font-family="FreeSans" font-size="10.00">Category</text>
</a>
</g>
</g>
<!-- Node1&#45;&gt;Node6 -->
<g id="edge5_Node000001_Node000006" class="edge">
<title>Node1&#45;&gt;Node6</title>
<g id="a_edge5_Node000001_Node000006"><a xlink:title=" ">
<path fill="none" stroke="#63b8ff" d="M522.33,-87.98C530.34,-86.89 538.43,-85.79 546.39,-84.71"/>
<polygon fill="#63b8ff" stroke="#63b8ff" points="522.01,-84.49 512.57,-89.3 522.95,-91.42 522.01,-84.49"/>
</a>
</g>
</g>
<!-- Node7 -->
<g id="Node000007" class="node">
<title>Node7</title>
<g id="a_Node000007"><a xlink:href="structDGtal_1_1UnorderedMultimapAssociativeCategory.html" target="_top" xlink:title=" ">
<polygon fill="white" stroke="#666666" points="703.38,-36.5 560.62,-36.5 560.62,0 703.38,0 703.38,-36.5"/>
<text text-anchor="start" x="568.62" y="-23" font-family="FreeSans" font-size="10.00">DGtal::UnorderedMultimap</text>
<text text-anchor="middle" x="632" y="-8.75" font-family="FreeSans" font-size="10.00">AssociativeCategory</text>
</a>
</g>
</g>
<!-- Node1&#45;&gt;Node7 -->
<g id="edge6_Node000001_Node000007" class="edge">
<title>Node1&#45;&gt;Node7</title>
<g id="a_edge6_Node000001_Node000007"><a xlink:title=" ">
<path fill="none" stroke="#63b8ff" d="M464.45,-83.63C487.22,-72.38 518.46,-57.55 546.75,-46.25 554.77,-43.05 563.31,-39.91 571.76,-36.96"/>
<polygon fill="#63b8ff" stroke="#63b8ff" points="463.05,-80.42 455.66,-88.01 466.18,-86.68 463.05,-80.42"/>
</a>
</g>
</g>
<!-- Node2 -->
<g id="Node000002" class="node">
<title>Node2</title>
<g id="a_Node000002"><a xlink:href="structDGtal_1_1AssociativeCategory.html" target="_top" xlink:title=" ">
<polygon fill="white" stroke="#666666" points="314.75,-111.38 172.75,-111.38 172.75,-89.12 314.75,-89.12 314.75,-111.38"/>
<text text-anchor="middle" x="243.75" y="-97.88" font-family="FreeSans" font-size="10.00">DGtal::AssociativeCategory</text>
</a>
</g>
</g>
<!-- Node2&#45;&gt;Node1 -->
<g id="edge1_Node000001_Node000002" class="edge">
<title>Node2&#45;&gt;Node1</title>
<g id="a_edge1_Node000001_Node000002"><a xlink:title=" ">
<path fill="none" stroke="#63b8ff" d="M326.71,-100.25C334.62,-100.25 342.63,-100.25 350.51,-100.25"/>
<polygon fill="#63b8ff" stroke="#63b8ff" points="326.73,-96.75 316.73,-100.25 326.73,-103.75 326.73,-96.75"/>
</a>
</g>
</g>
<!-- Node3 -->
<g id="Node000003" class="node">
<title>Node3</title>
<g id="a_Node000003"><a xlink:href="structDGtal_1_1ContainerCategory.html" target="_top" xlink:title=" ">
<polygon fill="white" stroke="#666666" points="136.75,-111.38 0,-111.38 0,-89.12 136.75,-89.12 136.75,-111.38"/>
<text text-anchor="middle" x="68.38" y="-97.88" font-family="FreeSans" font-size="10.00">DGtal::ContainerCategory</text>
</a>
</g>
</g>
<!-- Node3&#45;&gt;Node2 -->
<g id="edge2_Node000002_Node000003" class="edge">
<title>Node3&#45;&gt;Node2</title>
<g id="a_edge2_Node000002_Node000003"><a xlink:title=" ">
<path fill="none" stroke="#63b8ff" d="M148.17,-100.25C156.2,-100.25 164.32,-100.25 172.26,-100.25"/>
<polygon fill="#63b8ff" stroke="#63b8ff" points="148.42,-96.75 138.42,-100.25 148.42,-103.75 148.42,-96.75"/>
</a>
</g>
</g>
</g>
</svg>
