<?xml version="1.0" encoding="UTF-8" standalone="no"?>
<!DOCTYPE svg PUBLIC "-//W3C//DTD SVG 1.1//EN"
 "http://www.w3.org/Graphics/SVG/1.1/DTD/svg11.dtd">
<!-- Generated by graphviz version 11.0.0 (0)
 -->
<!-- Title: DGtal::concepts::CLabel&lt; T &gt; Pages: 1 -->
<svg width="1315pt" height="192pt"
 viewBox="0.00 0.00 1314.75 191.50" xmlns="http://www.w3.org/2000/svg" xmlns:xlink="http://www.w3.org/1999/xlink">
<g id="graph0" class="graph" transform="scale(1 1) rotate(0) translate(4 187.5)">
<title>DGtal::concepts::CLabel&lt; T &gt;</title>
<!-- Node1 -->
<g id="Node000001" class="node">
<title>Node1</title>
<g id="a_Node000001"><a xlink:title="Aim: Define the concept of DGtal labels. Models of CLabel can be default&#45;constructible,...">
<polygon fill="#999999" stroke="#666666" points="350,-107.38 202,-107.38 202,-85.12 350,-85.12 350,-107.38"/>
<text text-anchor="middle" x="276" y="-93.88" font-family="FreeSans" font-size="10.00">DGtal::concepts::CLabel&lt; T &gt;</text>
</a>
</g>
</g>
<!-- Node5 -->
<g id="Node000005" class="node">
<title>Node5</title>
<g id="a_Node000005"><a xlink:href="structDGtal_1_1concepts_1_1CQuantity.html" target="_top" xlink:title="Aim: defines the concept of quantity in DGtal.">
<polygon fill="white" stroke="#666666" points="549,-107.38 386,-107.38 386,-85.12 549,-85.12 549,-107.38"/>
<text text-anchor="middle" x="467.5" y="-93.88" font-family="FreeSans" font-size="10.00">DGtal::concepts::CQuantity&lt; T &gt;</text>
</a>
</g>
</g>
<!-- Node1&#45;&gt;Node5 -->
<g id="edge4_Node000001_Node000005" class="edge">
<title>Node1&#45;&gt;Node5</title>
<g id="a_edge4_Node000001_Node000005"><a xlink:title=" ">
<path fill="none" stroke="#63b8ff" d="M361.77,-96.25C369.68,-96.25 377.68,-96.25 385.56,-96.25"/>
<polygon fill="#63b8ff" stroke="#63b8ff" points="361.78,-92.75 351.78,-96.25 361.78,-99.75 361.78,-92.75"/>
</a>
</g>
</g>
<!-- Node2 -->
<g id="Node000002" class="node">
<title>Node2</title>
<g id="a_Node000002"><a xlink:href="structboost_1_1DefaultConstructible.html" target="_top" xlink:title="Go to http://www.sgi.com/tech/stl/DefaultConstructible.html.">
<polygon fill="white" stroke="#666666" points="166,-147.38 0,-147.38 0,-125.12 166,-125.12 166,-147.38"/>
<text text-anchor="middle" x="83" y="-133.88" font-family="FreeSans" font-size="10.00">boost::DefaultConstructible&lt; T &gt;</text>
</a>
</g>
</g>
<!-- Node2&#45;&gt;Node1 -->
<g id="edge1_Node000001_Node000002" class="edge">
<title>Node2&#45;&gt;Node1</title>
<g id="a_edge1_Node000001_Node000002"><a xlink:title=" ">
<path fill="none" stroke="#63b8ff" d="M150.7,-122.28C173.23,-117.56 198.13,-112.35 219.69,-107.83"/>
<polygon fill="#63b8ff" stroke="#63b8ff" points="150.05,-118.84 140.98,-124.32 151.49,-125.69 150.05,-118.84"/>
</a>
</g>
</g>
<!-- Node3 -->
<g id="Node000003" class="node">
<title>Node3</title>
<g id="a_Node000003"><a xlink:href="structboost_1_1Assignable.html" target="_top" xlink:title="Go to http://www.sgi.com/tech/stl/Assignable.html.">
<polygon fill="white" stroke="#666666" points="142.75,-107.38 23.25,-107.38 23.25,-85.12 142.75,-85.12 142.75,-107.38"/>
<text text-anchor="middle" x="83" y="-93.88" font-family="FreeSans" font-size="10.00">boost::Assignable&lt; T &gt;</text>
</a>
</g>
</g>
<!-- Node3&#45;&gt;Node1 -->
<g id="edge2_Node000001_Node000003" class="edge">
<title>Node3&#45;&gt;Node1</title>
<g id="a_edge2_Node000001_Node000003"><a xlink:title=" ">
<path fill="none" stroke="#63b8ff" d="M154.19,-96.25C169.66,-96.25 186.09,-96.25 201.67,-96.25"/>
<polygon fill="#63b8ff" stroke="#63b8ff" points="154.64,-92.75 144.64,-96.25 154.64,-99.75 154.64,-92.75"/>
</a>
</g>
</g>
<!-- Node4 -->
<g id="Node000004" class="node">
<title>Node4</title>
<g id="a_Node000004"><a xlink:href="structboost_1_1EqualityComparable.html" target="_top" xlink:title="Go to http://www.sgi.com/tech/stl/EqualityComparable.html.">
<polygon fill="white" stroke="#666666" points="163.75,-67.38 2.25,-67.38 2.25,-45.12 163.75,-45.12 163.75,-67.38"/>
<text text-anchor="middle" x="83" y="-53.88" font-family="FreeSans" font-size="10.00">boost::EqualityComparable&lt; T &gt;</text>
</a>
</g>
</g>
<!-- Node4&#45;&gt;Node1 -->
<g id="edge3_Node000001_Node000004" class="edge">
<title>Node4&#45;&gt;Node1</title>
<g id="a_edge3_Node000001_Node000004"><a xlink:title=" ">
<path fill="none" stroke="#63b8ff" d="M150.7,-70.22C173.23,-74.94 198.13,-80.15 219.69,-84.67"/>
<polygon fill="#63b8ff" stroke="#63b8ff" points="151.49,-66.81 140.98,-68.18 150.05,-73.66 151.49,-66.81"/>
</a>
</g>
</g>
<!-- Node6 -->
<g id="Node000006" class="node">
<title>Node6</title>
<g id="a_Node000006"><a xlink:href="structDGtal_1_1concepts_1_1CBoundedNumber.html" target="_top" xlink:title="Aim: The concept CBoundedNumber specifies what are the bounded numbers. Models of this concept should...">
<polygon fill="white" stroke="#666666" points="730,-183.5 585.75,-183.5 585.75,-147 730,-147 730,-183.5"/>
<text text-anchor="start" x="593.75" y="-170" font-family="FreeSans" font-size="10.00">DGtal::concepts::CBounded</text>
<text text-anchor="middle" x="657.88" y="-155.75" font-family="FreeSans" font-size="10.00">Number&lt; T &gt;</text>
</a>
</g>
</g>
<!-- Node5&#45;&gt;Node6 -->
<g id="edge5_Node000005_Node000006" class="edge">
<title>Node5&#45;&gt;Node6</title>
<g id="a_edge5_Node000005_Node000006"><a xlink:title=" ">
<path fill="none" stroke="#63b8ff" d="M510.75,-111.72C538.96,-122.06 576.22,-135.71 606.05,-146.63"/>
<polygon fill="#63b8ff" stroke="#63b8ff" points="512.04,-108.47 501.45,-108.32 509.64,-115.05 512.04,-108.47"/>
</a>
</g>
</g>
<!-- Node7 -->
<g id="Node000007" class="node">
<title>Node7</title>
<g id="a_Node000007"><a xlink:href="structDGtal_1_1concepts_1_1CIntegralNumber.html" target="_top" xlink:title="Aim: Concept checking for Integral Numbers. Models of this concept should be listed in NumberTraits c...">
<polygon fill="white" stroke="#666666" points="917.75,-141.5 779.5,-141.5 779.5,-105 917.75,-105 917.75,-141.5"/>
<text text-anchor="start" x="787.5" y="-128" font-family="FreeSans" font-size="10.00">DGtal::concepts::CIntegral</text>
<text text-anchor="middle" x="848.62" y="-113.75" font-family="FreeSans" font-size="10.00">Number&lt; T &gt;</text>
</a>
</g>
</g>
<!-- Node5&#45;&gt;Node7 -->
<g id="edge6_Node000005_Node000007" class="edge">
<title>Node5&#45;&gt;Node7</title>
<g id="a_edge6_Node000005_Node000007"><a xlink:title=" ">
<path fill="none" stroke="#63b8ff" d="M560.83,-102.83C628.26,-107.63 718.2,-114.03 779.25,-118.38"/>
<polygon fill="#63b8ff" stroke="#63b8ff" points="561.1,-99.34 550.88,-102.12 560.6,-106.32 561.1,-99.34"/>
</a>
</g>
</g>
<!-- Node9 -->
<g id="Node000009" class="node">
<title>Node9</title>
<g id="a_Node000009"><a xlink:href="structDGtal_1_1concepts_1_1CSignedNumber.html" target="_top" xlink:title="Aim: Concept checking for Signed Numbers. Models of this concept should be listed in NumberTraits cla...">
<polygon fill="white" stroke="#666666" points="724.38,-91.5 591.38,-91.5 591.38,-55 724.38,-55 724.38,-91.5"/>
<text text-anchor="start" x="599.38" y="-78" font-family="FreeSans" font-size="10.00">DGtal::concepts::CSigned</text>
<text text-anchor="middle" x="657.88" y="-63.75" font-family="FreeSans" font-size="10.00">Number&lt; T &gt;</text>
</a>
</g>
</g>
<!-- Node5&#45;&gt;Node9 -->
<g id="edge8_Node000005_Node000009" class="edge">
<title>Node5&#45;&gt;Node9</title>
<g id="a_edge8_Node000005_Node000009"><a xlink:title=" ">
<path fill="none" stroke="#63b8ff" d="M560.59,-85.01C570.85,-83.75 581.15,-82.5 591,-81.29"/>
<polygon fill="#63b8ff" stroke="#63b8ff" points="560.49,-81.49 550.98,-86.18 561.33,-88.44 560.49,-81.49"/>
</a>
</g>
</g>
<!-- Node12 -->
<g id="Node000012" class="node">
<title>Node12</title>
<g id="a_Node000012"><a xlink:href="structDGtal_1_1concepts_1_1CUnsignedNumber.html" target="_top" xlink:title="Aim: Concept checking for Unsigned numbers. Models of this concept should be listed in NumberTraits c...">
<polygon fill="white" stroke="#666666" points="730.75,-36.5 585,-36.5 585,0 730.75,0 730.75,-36.5"/>
<text text-anchor="start" x="593" y="-23" font-family="FreeSans" font-size="10.00">DGtal::concepts::CUnsigned</text>
<text text-anchor="middle" x="657.88" y="-8.75" font-family="FreeSans" font-size="10.00">Number&lt; T &gt;</text>
</a>
</g>
</g>
<!-- Node5&#45;&gt;Node12 -->
<g id="edge12_Node000005_Node000012" class="edge">
<title>Node5&#45;&gt;Node12</title>
<g id="a_edge12_Node000005_Node000012"><a xlink:title=" ">
<path fill="none" stroke="#63b8ff" d="M505.05,-80.19C527.94,-70.22 558.09,-57.26 585,-46.25 592.56,-43.16 600.6,-39.95 608.46,-36.85"/>
<polygon fill="#63b8ff" stroke="#63b8ff" points="503.92,-76.86 496.15,-84.07 506.72,-83.28 503.92,-76.86"/>
</a>
</g>
</g>
<!-- Node8 -->
<g id="Node000008" class="node">
<title>Node8</title>
<g id="a_Node000008"><a xlink:href="structDGtal_1_1concepts_1_1CInteger.html" target="_top" xlink:title="Aim: Concept checking for Integer Numbers. More precisely, this concept is a refinement of both CEucl...">
<polygon fill="white" stroke="#666666" points="1306.75,-106.38 1147.5,-106.38 1147.5,-84.12 1306.75,-84.12 1306.75,-106.38"/>
<text text-anchor="middle" x="1227.12" y="-92.88" font-family="FreeSans" font-size="10.00">DGtal::concepts::CInteger&lt; T &gt;</text>
</a>
</g>
</g>
<!-- Node7&#45;&gt;Node8 -->
<g id="edge7_Node000007_Node000008" class="edge">
<title>Node7&#45;&gt;Node8</title>
<g id="a_edge7_Node000007_Node000008"><a xlink:title=" ">
<path fill="none" stroke="#63b8ff" d="M929.52,-117.31C993.68,-112.54 1083.33,-105.87 1147.23,-101.12"/>
<polygon fill="#63b8ff" stroke="#63b8ff" points="929.47,-113.8 919.75,-118.03 929.98,-120.78 929.47,-113.8"/>
</a>
</g>
</g>
<!-- Node10 -->
<g id="Node000010" class="node">
<title>Node10</title>
<g id="a_Node000010"><a xlink:href="structDGtal_1_1concepts_1_1CCommutativeRing.html" target="_top" xlink:title="Aim: Defines the mathematical concept equivalent to a unitary commutative ring.">
<polygon fill="white" stroke="#666666" points="930.5,-86.5 766.75,-86.5 766.75,-50 930.5,-50 930.5,-86.5"/>
<text text-anchor="start" x="774.75" y="-73" font-family="FreeSans" font-size="10.00">DGtal::concepts::CCommutative</text>
<text text-anchor="middle" x="848.62" y="-58.75" font-family="FreeSans" font-size="10.00">Ring&lt; T &gt;</text>
</a>
</g>
</g>
<!-- Node9&#45;&gt;Node10 -->
<g id="edge9_Node000009_Node000010" class="edge">
<title>Node9&#45;&gt;Node10</title>
<g id="a_edge9_Node000009_Node000010"><a xlink:title=" ">
<path fill="none" stroke="#63b8ff" d="M735.88,-71.21C745.97,-70.94 756.34,-70.67 766.49,-70.4"/>
<polygon fill="#63b8ff" stroke="#63b8ff" points="736.04,-67.7 726.14,-71.47 736.23,-74.7 736.04,-67.7"/>
</a>
</g>
</g>
<!-- Node11 -->
<g id="Node000011" class="node">
<title>Node11</title>
<g id="a_Node000011"><a xlink:href="structDGtal_1_1concepts_1_1CEuclideanRing.html" target="_top" xlink:title="Aim: Defines the mathematical concept equivalent to a unitary commutative ring with a division operat...">
<polygon fill="white" stroke="#666666" points="1111.5,-90.5 966.5,-90.5 966.5,-54 1111.5,-54 1111.5,-90.5"/>
<text text-anchor="start" x="974.5" y="-77" font-family="FreeSans" font-size="10.00">DGtal::concepts::CEuclidean</text>
<text text-anchor="middle" x="1039" y="-62.75" font-family="FreeSans" font-size="10.00">Ring&lt; T &gt;</text>
</a>
</g>
</g>
<!-- Node10&#45;&gt;Node11 -->
<g id="edge10_Node000010_Node000011" class="edge">
<title>Node10&#45;&gt;Node11</title>
<g id="a_edge10_Node000010_Node000011"><a xlink:title=" ">
<path fill="none" stroke="#63b8ff" d="M942.23,-70.22C950.28,-70.39 958.35,-70.56 966.2,-70.73"/>
<polygon fill="#63b8ff" stroke="#63b8ff" points="942.47,-66.72 932.39,-70.01 942.32,-73.72 942.47,-66.72"/>
</a>
</g>
</g>
<!-- Node11&#45;&gt;Node8 -->
<g id="edge11_Node000011_Node000008" class="edge">
<title>Node11&#45;&gt;Node8</title>
<g id="a_edge11_Node000011_Node000008"><a xlink:title=" ">
<path fill="none" stroke="#63b8ff" d="M1123.18,-82.53C1131.19,-83.52 1139.29,-84.52 1147.25,-85.5"/>
<polygon fill="#63b8ff" stroke="#63b8ff" points="1123.82,-79.08 1113.46,-81.33 1122.96,-86.03 1123.82,-79.08"/>
</a>
</g>
</g>
</g>
</svg>
