<?xml version="1.0" encoding="UTF-8" standalone="no"?>
<!DOCTYPE svg PUBLIC "-//W3C//DTD SVG 1.1//EN"
 "http://www.w3.org/Graphics/SVG/1.1/DTD/svg11.dtd">
<!-- Generated by graphviz version 11.0.0 (0)
 -->
<!-- Title: DGtal::Board3DTo2DFactory&lt; TSpace, TKSpace &gt; Pages: 1 -->
<svg width="176pt" height="204pt"
 viewBox="0.00 0.00 176.12 203.75" xmlns="http://www.w3.org/2000/svg" xmlns:xlink="http://www.w3.org/1999/xlink">
<g id="graph0" class="graph" transform="scale(1 1) rotate(0) translate(4 199.75)">
<title>DGtal::Board3DTo2DFactory&lt; TSpace, TKSpace &gt;</title>
<!-- Node1 -->
<g id="Node000001" class="node">
<title>Node1</title>
<g id="a_Node000001"><a xlink:title="Factory for GPL Display3D:">
<polygon fill="#999999" stroke="#666666" points="147.25,-36.5 0,-36.5 0,0 147.25,0 147.25,-36.5"/>
<text text-anchor="start" x="8" y="-23" font-family="FreeSans" font-size="10.00">DGtal::Board3DTo2DFactory</text>
<text text-anchor="middle" x="73.62" y="-8.75" font-family="FreeSans" font-size="10.00">&lt; TSpace, TKSpace &gt;</text>
</a>
</g>
</g>
<!-- Node2 -->
<g id="Node000002" class="node">
<title>Node2</title>
<g id="a_Node000002"><a xlink:href="structDGtal_1_1Display3DFactory.html" target="_top" xlink:title=" ">
<polygon fill="white" stroke="#666666" points="138.25,-109 9,-109 9,-72.5 138.25,-72.5 138.25,-109"/>
<text text-anchor="start" x="17" y="-95.5" font-family="FreeSans" font-size="10.00">DGtal::Display3DFactory</text>
<text text-anchor="middle" x="73.62" y="-81.25" font-family="FreeSans" font-size="10.00">&lt; TSpace, TKSpace &gt;</text>
</a>
</g>
</g>
<!-- Node2&#45;&gt;Node1 -->
<g id="edge1_Node000001_Node000002" class="edge">
<title>Node2&#45;&gt;Node1</title>
<g id="a_edge1_Node000001_Node000002"><a xlink:title=" ">
<path fill="none" stroke="#63b8ff" d="M73.62,-60.97C73.62,-52.84 73.62,-44.23 73.62,-36.97"/>
<polygon fill="#63b8ff" stroke="#63b8ff" points="70.13,-60.81 73.63,-70.81 77.13,-60.81 70.13,-60.81"/>
</a>
</g>
</g>
<!-- Node3 -->
<g id="Node000003" class="node">
<title>Node3</title>
<g id="a_Node000003"><a xlink:href="structDGtal_1_1Display3DFactory.html" target="_top" xlink:title="Factory for GPL Display3D:">
<polygon fill="white" stroke="#666666" points="138.25,-195.75 9,-195.75 9,-159.25 138.25,-159.25 138.25,-195.75"/>
<text text-anchor="start" x="17" y="-182.25" font-family="FreeSans" font-size="10.00">DGtal::Display3DFactory</text>
<text text-anchor="middle" x="73.62" y="-168" font-family="FreeSans" font-size="10.00">&lt; TSpace, TKSpace &gt;</text>
</a>
</g>
</g>
<!-- Node3&#45;&gt;Node2 -->
<g id="edge2_Node000002_Node000003" class="edge">
<title>Node3&#45;&gt;Node2</title>
<g id="a_edge2_Node000002_Node000003"><a xlink:title=" ">
<path fill="none" stroke="orange" stroke-dasharray="5,2" d="M73.62,-147.48C73.62,-134.79 73.62,-120.31 73.62,-109.29"/>
<polygon fill="orange" stroke="orange" points="70.13,-147.43 73.63,-157.43 77.13,-147.43 70.13,-147.43"/>
</a>
</g>
<text text-anchor="middle" x="120.88" y="-131.75" font-family="FreeSans" font-size="10.00" fill="grey"> &lt; TSpace, TKSpace &gt;</text>
</g>
</g>
</svg>
