<?xml version="1.0" encoding="UTF-8" standalone="no"?>
<!DOCTYPE svg PUBLIC "-//W3C//DTD SVG 1.1//EN"
 "http://www.w3.org/Graphics/SVG/1.1/DTD/svg11.dtd">
<!-- Generated by graphviz version 11.0.0 (0)
 -->
<!-- Title: LibBoard::GouraudTriangle Pages: 1 -->
<svg width="149pt" height="147pt"
 viewBox="0.00 0.00 149.25 146.75" xmlns="http://www.w3.org/2000/svg" xmlns:xlink="http://www.w3.org/1999/xlink">
<g id="graph0" class="graph" transform="scale(1 1) rotate(0) translate(4 142.75)">
<title>LibBoard::GouraudTriangle</title>
<!-- Node1 -->
<g id="Node000001" class="node">
<title>Node1</title>
<g id="a_Node000001"><a xlink:title="A triangle with shaded filling according to colors given for each vertex.">
<polygon fill="#999999" stroke="#666666" points="141.25,-22.25 0,-22.25 0,0 141.25,0 141.25,-22.25"/>
<text text-anchor="middle" x="70.62" y="-8.75" font-family="FreeSans" font-size="10.00">LibBoard::GouraudTriangle</text>
</a>
</g>
</g>
<!-- Node2 -->
<g id="Node000002" class="node">
<title>Node2</title>
<g id="a_Node000002"><a xlink:href="structLibBoard_1_1Polyline.html" target="_top" xlink:title="A polygonal line described by a series of 2D points.">
<polygon fill="white" stroke="#666666" points="120.25,-80.5 21,-80.5 21,-58.25 120.25,-58.25 120.25,-80.5"/>
<text text-anchor="middle" x="70.62" y="-67" font-family="FreeSans" font-size="10.00">LibBoard::Polyline</text>
</a>
</g>
</g>
<!-- Node2&#45;&gt;Node1 -->
<g id="edge1_Node000001_Node000002" class="edge">
<title>Node2&#45;&gt;Node1</title>
<g id="a_edge1_Node000001_Node000002"><a xlink:title=" ">
<path fill="none" stroke="#63b8ff" d="M70.62,-46.35C70.62,-38.2 70.62,-29.33 70.62,-22.66"/>
<polygon fill="#63b8ff" stroke="#63b8ff" points="67.13,-46.28 70.63,-56.28 74.13,-46.28 67.13,-46.28"/>
</a>
</g>
</g>
<!-- Node3 -->
<g id="Node000003" class="node">
<title>Node3</title>
<g id="a_Node000003"><a xlink:href="structLibBoard_1_1Shape.html" target="_top" xlink:title="Abstract structure for a 2D shape.">
<polygon fill="white" stroke="#666666" points="116.5,-138.75 24.75,-138.75 24.75,-116.5 116.5,-116.5 116.5,-138.75"/>
<text text-anchor="middle" x="70.62" y="-125.25" font-family="FreeSans" font-size="10.00">LibBoard::Shape</text>
</a>
</g>
</g>
<!-- Node3&#45;&gt;Node2 -->
<g id="edge2_Node000002_Node000003" class="edge">
<title>Node3&#45;&gt;Node2</title>
<g id="a_edge2_Node000002_Node000003"><a xlink:title=" ">
<path fill="none" stroke="#63b8ff" d="M70.62,-104.6C70.62,-96.45 70.62,-87.58 70.62,-80.91"/>
<polygon fill="#63b8ff" stroke="#63b8ff" points="67.13,-104.53 70.63,-114.53 74.13,-104.53 67.13,-104.53"/>
</a>
</g>
</g>
</g>
</svg>
