<?xml version="1.0" encoding="UTF-8" standalone="no"?>
<!DOCTYPE svg PUBLIC "-//W3C//DTD SVG 1.1//EN"
 "http://www.w3.org/Graphics/SVG/1.1/DTD/svg11.dtd">
<!-- Generated by graphviz version 11.0.0 (0)
 -->
<!-- Title: LibBoard::TransformTikZ Pages: 1 -->
<svg width="138pt" height="147pt"
 viewBox="0.00 0.00 138.00 146.75" xmlns="http://www.w3.org/2000/svg" xmlns:xlink="http://www.w3.org/1999/xlink">
<g id="graph0" class="graph" transform="scale(1 1) rotate(0) translate(4 142.75)">
<title>LibBoard::TransformTikZ</title>
<!-- Node1 -->
<g id="Node000001" class="node">
<title>Node1</title>
<g id="a_Node000001"><a xlink:title="Structure representing a scaling and translation suitable for an TikZ output.">
<polygon fill="#999999" stroke="#666666" points="130,-22.25 0,-22.25 0,0 130,0 130,-22.25"/>
<text text-anchor="middle" x="65" y="-8.75" font-family="FreeSans" font-size="10.00">LibBoard::TransformTikZ</text>
</a>
</g>
</g>
<!-- Node2 -->
<g id="Node000002" class="node">
<title>Node2</title>
<g id="a_Node000002"><a xlink:href="structLibBoard_1_1TransformSVG.html" target="_top" xlink:title="Structure representing a scaling and translation suitable for an SVG output.">
<polygon fill="white" stroke="#666666" points="130,-80.5 0,-80.5 0,-58.25 130,-58.25 130,-80.5"/>
<text text-anchor="middle" x="65" y="-67" font-family="FreeSans" font-size="10.00">LibBoard::TransformSVG</text>
</a>
</g>
</g>
<!-- Node2&#45;&gt;Node1 -->
<g id="edge1_Node000001_Node000002" class="edge">
<title>Node2&#45;&gt;Node1</title>
<g id="a_edge1_Node000001_Node000002"><a xlink:title=" ">
<path fill="none" stroke="#63b8ff" d="M65,-46.35C65,-38.2 65,-29.33 65,-22.66"/>
<polygon fill="#63b8ff" stroke="#63b8ff" points="61.5,-46.28 65,-56.28 68.5,-46.28 61.5,-46.28"/>
</a>
</g>
</g>
<!-- Node3 -->
<g id="Node000003" class="node">
<title>Node3</title>
<g id="a_Node000003"><a xlink:href="structLibBoard_1_1Transform.html" target="_top" xlink:title="base class for transforms.">
<polygon fill="white" stroke="#666666" points="120.62,-138.75 9.38,-138.75 9.38,-116.5 120.62,-116.5 120.62,-138.75"/>
<text text-anchor="middle" x="65" y="-125.25" font-family="FreeSans" font-size="10.00">LibBoard::Transform</text>
</a>
</g>
</g>
<!-- Node3&#45;&gt;Node2 -->
<g id="edge2_Node000002_Node000003" class="edge">
<title>Node3&#45;&gt;Node2</title>
<g id="a_edge2_Node000002_Node000003"><a xlink:title=" ">
<path fill="none" stroke="#63b8ff" d="M65,-104.6C65,-96.45 65,-87.58 65,-80.91"/>
<polygon fill="#63b8ff" stroke="#63b8ff" points="61.5,-104.53 65,-114.53 68.5,-104.53 61.5,-104.53"/>
</a>
</g>
</g>
</g>
</svg>
