<?xml version="1.0" encoding="UTF-8" standalone="no"?>
<!DOCTYPE svg PUBLIC "-//W3C//DTD SVG 1.1//EN"
 "http://www.w3.org/Graphics/SVG/1.1/DTD/svg11.dtd">
<!-- Generated by graphviz version 11.0.0 (0)
 -->
<!-- Title: DGtal::NumberTraitsImpl&lt; T, Enable &gt; Pages: 1 -->
<!--zoomable 161 -->

<svg id="main" version="1.1" xmlns="http://www.w3.org/2000/svg" xmlns:xlink="http://www.w3.org/1999/xlink" xml:space="preserve" onload="init(evt)">
<style type="text/css"><![CDATA[
.node, .edge {opacity: 0.7;}
.node.selected, .edge.selected {opacity: 1;}
.edge:hover path { stroke: red; }
.edge:hover polygon { stroke: red; fill: red; }
]]></style>

<defs>
  <circle id="rim" cx="0" cy="0" r="7"/>
  <circle id="rim2" cx="0" cy="0" r="3.5"/>
  <g id="zoomPlus">
    <use xlink:href="#rim" fill="#404040"><set attributeName="fill" to="#808080" begin="zoomplus.mouseover" end="zoomplus.mouseout"/></use>
    <path d="M-4,0h8M0,-4v8" fill="none" stroke="white" stroke-width="1.5" pointer-events="none"/>
  </g>
  <g id="zoomMin">
    <use xlink:href="#rim" fill="#404040"><set attributeName="fill" to="#808080" begin="zoomminus.mouseover" end="zoomminus.mouseout"/></use>
    <path d="M-4,0h8" fill="none" stroke="white" stroke-width="1.5" pointer-events="none"/>
  </g>
  <g id="arrowUp" transform="translate(30 24)">
    <use xlink:href="#rim"/>
    <path pointer-events="none" fill="none" stroke="white" stroke-width="1.5" d="M0,-3.0v7 M-2.5,-0.5L0,-3.0L2.5,-0.5"/>
  </g>
  <g id="arrowRight" transform="rotate(90) translate(36 -43)">
    <use xlink:href="#rim"/>
    <path pointer-events="none" fill="none" stroke="white" stroke-width="1.5" d="M0,-3.0v7 M-2.5,-0.5L0,-3.0L2.5,-0.5"/>
  </g>
  <g id="arrowDown" transform="rotate(180) translate(-30 -48)">
    <use xlink:href="#rim"/>
    <path pointer-events="none" fill="none" stroke="white" stroke-width="1.5" d="M0,-3.0v7 M-2.5,-0.5L0,-3.0L2.5,-0.5"/>
  </g>
  <g id="arrowLeft" transform="rotate(270) translate(-36 17)">
    <use xlink:href="#rim"/>
    <path pointer-events="none" fill="none" stroke="white" stroke-width="1.5" d="M0,-3.0v7 M-2.5,-0.5L0,-3.0L2.5,-0.5"/>
  </g>
  <g id="resetDef">
    <use xlink:href="#rim2" fill="#404040"><set attributeName="fill" to="#808080" begin="reset.mouseover" end="reset.mouseout"/></use>
  </g>
</defs>
<script type="application/ecmascript">
var viewWidth = 928;
var viewHeight = 161;
var sectionId = 'dynsection-0';
</script>
<script type="application/ecmascript" xlink:href="svg.min.js"/>
<svg id="graph" class="graph">
<g id="viewport">
<title>DGtal::NumberTraitsImpl&lt; T, Enable &gt;</title>
<!-- Node1 -->
<g id="Node000001" class="node">
<title>Node1</title>
<g id="a_Node000001"><a xlink:title="Aim: The traits class for all models of Cinteger (implementation)">
<polygon fill="#999999" stroke="#666666" points="133,-93.62 0,-93.62 0,-57.12 133,-57.12 133,-93.62"/>
<text text-anchor="start" x="8" y="-80.12" font-family="FreeSans" font-size="10.00">DGtal::NumberTraitsImpl</text>
<text text-anchor="middle" x="66.5" y="-65.88" font-family="FreeSans" font-size="10.00">&lt; T, Enable &gt;</text>
</a>
</g>
</g>
<!-- Node2 -->
<g id="Node000002" class="node">
<title>Node2</title>
<g id="a_Node000002"><a xlink:href="structDGtal_1_1NumberTraitsImpl.html" target="_top" xlink:title=" ">
<polygon fill="white" stroke="#666666" points="409.25,-93.62 276.25,-93.62 276.25,-57.12 409.25,-57.12 409.25,-93.62"/>
<text text-anchor="start" x="284.25" y="-80.12" font-family="FreeSans" font-size="10.00">DGtal::NumberTraitsImpl</text>
<text text-anchor="middle" x="342.75" y="-65.88" font-family="FreeSans" font-size="10.00">&lt; std::decay&lt; T &gt;::type &gt;</text>
</a>
</g>
</g>
<!-- Node1&#45;&gt;Node2 -->
<g id="edge1_Node000001_Node000002" class="edge">
<title>Node1&#45;&gt;Node2</title>
<g id="a_edge1_Node000001_Node000002"><a xlink:title=" ">
<path fill="none" stroke="orange" stroke-dasharray="5,2" d="M144.62,-75.38C186.05,-75.38 236.59,-75.38 276.12,-75.38"/>
<polygon fill="orange" stroke="orange" points="144.7,-71.88 134.7,-75.38 144.7,-78.88 144.7,-71.88"/>
</a>
</g>
<text text-anchor="start" x="161.88" y="-94.38" font-family="FreeSans" font-size="10.00" fill="grey"> &lt; std::decay&lt; T &gt;::</text>
<text text-anchor="middle" x="204.62" y="-80.12" font-family="FreeSans" font-size="10.00" fill="grey">type &gt;</text>
</g>
<!-- Node6 -->
<g id="Node000006" class="node">
<title>Node6</title>
<g id="a_Node000006"><a xlink:href="structDGtal_1_1NumberTraitsImpl.html" target="_top" xlink:title=" ">
<polygon fill="white" stroke="#666666" points="560.25,-152.75 427.25,-152.75 427.25,-102 560.25,-102 560.25,-152.75"/>
<text text-anchor="start" x="435.25" y="-139.25" font-family="FreeSans" font-size="10.00">DGtal::NumberTraitsImpl</text>
<text text-anchor="start" x="435.25" y="-125" font-family="FreeSans" font-size="10.00">&lt; std::decay&lt; Integer</text>
<text text-anchor="middle" x="493.75" y="-110.75" font-family="FreeSans" font-size="10.00"> &gt;::type &gt;</text>
</a>
</g>
</g>
<!-- Node1&#45;&gt;Node6 -->
<g id="edge5_Node000001_Node000006" class="edge">
<title>Node1&#45;&gt;Node6</title>
<g id="a_edge5_Node000001_Node000006"><a xlink:title=" ">
<path fill="none" stroke="orange" stroke-dasharray="5,2" d="M122.98,-97.74C132.21,-100.75 141.79,-103.46 151,-105.38 245.45,-124.97 357.46,-128.57 426.82,-128.57"/>
<polygon fill="orange" stroke="orange" points="124.36,-94.51 113.77,-94.58 122.09,-101.14 124.36,-94.51"/>
</a>
</g>
<text text-anchor="start" x="153.62" y="-139.38" font-family="FreeSans" font-size="10.00" fill="grey"> &lt; std::decay&lt; Integer</text>
<text text-anchor="middle" x="204.62" y="-125.12" font-family="FreeSans" font-size="10.00" fill="grey"> &gt;::type &gt;</text>
</g>
<!-- Node7 -->
<g id="Node000007" class="node">
<title>Node7</title>
<g id="a_Node000007"><a xlink:href="structDGtal_1_1NumberTraitsImpl.html" target="_top" xlink:title=" ">
<polygon fill="white" stroke="#666666" points="560.25,-50.75 427.25,-50.75 427.25,0 560.25,0 560.25,-50.75"/>
<text text-anchor="start" x="435.25" y="-37.25" font-family="FreeSans" font-size="10.00">DGtal::NumberTraitsImpl</text>
<text text-anchor="start" x="435.25" y="-23" font-family="FreeSans" font-size="10.00">&lt; std::decay&lt; TInteger</text>
<text text-anchor="middle" x="493.75" y="-8.75" font-family="FreeSans" font-size="10.00"> &gt;::type &gt;</text>
</a>
</g>
</g>
<!-- Node1&#45;&gt;Node7 -->
<g id="edge7_Node000001_Node000007" class="edge">
<title>Node1&#45;&gt;Node7</title>
<g id="a_edge7_Node000001_Node000007"><a xlink:title=" ">
<path fill="none" stroke="orange" stroke-dasharray="5,2" d="M118.6,-52.53C129.12,-48.67 140.28,-45.17 151,-42.88 245.4,-22.64 357.65,-21.04 427.06,-22.58"/>
<polygon fill="orange" stroke="orange" points="117.38,-49.25 109.3,-56.11 119.89,-55.78 117.38,-49.25"/>
</a>
</g>
<text text-anchor="start" x="151" y="-61.38" font-family="FreeSans" font-size="10.00" fill="grey"> &lt; std::decay&lt; TInteger</text>
<text text-anchor="middle" x="204.62" y="-47.12" font-family="FreeSans" font-size="10.00" fill="grey"> &gt;::type &gt;</text>
</g>
<!-- Node3 -->
<g id="Node000003" class="node">
<title>Node3</title>
<g id="a_Node000003"><a xlink:href="structDGtal_1_1NumberTraits.html" target="_top" xlink:title="Aim: The traits class for all models of Cinteger.">
<polygon fill="white" stroke="#666666" points="712,-86.5 578.25,-86.5 578.25,-64.25 712,-64.25 712,-86.5"/>
<text text-anchor="middle" x="645.12" y="-73" font-family="FreeSans" font-size="10.00">DGtal::NumberTraits&lt; T &gt;</text>
</a>
</g>
</g>
<!-- Node2&#45;&gt;Node3 -->
<g id="edge2_Node000002_Node000003" class="edge">
<title>Node2&#45;&gt;Node3</title>
<g id="a_edge2_Node000002_Node000003"><a xlink:title=" ">
<path fill="none" stroke="#63b8ff" d="M421.07,-75.38C469.61,-75.38 531.55,-75.38 577.84,-75.38"/>
<polygon fill="#63b8ff" stroke="#63b8ff" points="421.18,-71.88 411.18,-75.38 421.18,-78.88 421.18,-71.88"/>
</a>
</g>
</g>
<!-- Node4 -->
<g id="Node000004" class="node">
<title>Node4</title>
<g id="a_Node000004"><a xlink:href="structDGtal_1_1NumberTraits.html" target="_top" xlink:title=" ">
<polygon fill="white" stroke="#666666" points="920,-128.62 808,-128.62 808,-92.12 920,-92.12 920,-128.62"/>
<text text-anchor="start" x="816" y="-115.12" font-family="FreeSans" font-size="10.00">DGtal::NumberTraits</text>
<text text-anchor="middle" x="864" y="-100.88" font-family="FreeSans" font-size="10.00">&lt; Integer &gt;</text>
</a>
</g>
</g>
<!-- Node3&#45;&gt;Node4 -->
<g id="edge3_Node000003_Node000004" class="edge">
<title>Node3&#45;&gt;Node4</title>
<g id="a_edge3_Node000003_Node000004"><a xlink:title=" ">
<path fill="none" stroke="orange" stroke-dasharray="5,2" d="M723.67,-87.89C751.46,-92.37 782.21,-97.34 807.73,-101.46"/>
<polygon fill="orange" stroke="orange" points="724.3,-84.45 713.87,-86.31 723.18,-91.36 724.3,-84.45"/>
</a>
</g>
<text text-anchor="middle" x="760" y="-102.12" font-family="FreeSans" font-size="10.00" fill="grey"> &lt; Integer &gt;</text>
</g>
<!-- Node5 -->
<g id="Node000005" class="node">
<title>Node5</title>
<g id="a_Node000005"><a xlink:href="structDGtal_1_1NumberTraits.html" target="_top" xlink:title=" ">
<polygon fill="white" stroke="#666666" points="920,-66.62 808,-66.62 808,-30.12 920,-30.12 920,-66.62"/>
<text text-anchor="start" x="816" y="-53.12" font-family="FreeSans" font-size="10.00">DGtal::NumberTraits</text>
<text text-anchor="middle" x="864" y="-38.88" font-family="FreeSans" font-size="10.00">&lt; TInteger &gt;</text>
</a>
</g>
</g>
<!-- Node3&#45;&gt;Node5 -->
<g id="edge4_Node000003_Node000005" class="edge">
<title>Node3&#45;&gt;Node5</title>
<g id="a_edge4_Node000003_Node000005"><a xlink:title=" ">
<path fill="none" stroke="orange" stroke-dasharray="5,2" d="M723.78,-62.96C725.88,-62.67 727.95,-62.39 730,-62.12 755.43,-58.8 783.69,-55.79 807.6,-53.43"/>
<polygon fill="orange" stroke="orange" points="723.37,-59.48 713.96,-64.35 724.35,-66.41 723.37,-59.48"/>
</a>
</g>
<text text-anchor="middle" x="760" y="-66.12" font-family="FreeSans" font-size="10.00" fill="grey"> &lt; TInteger &gt;</text>
</g>
<!-- Node6&#45;&gt;Node4 -->
<g id="edge6_Node000006_Node000004" class="edge">
<title>Node6&#45;&gt;Node4</title>
<g id="a_edge6_Node000006_Node000004"><a xlink:title=" ">
<path fill="none" stroke="#63b8ff" d="M572.05,-123.81C642.56,-120.55 745.01,-115.82 807.65,-112.93"/>
<polygon fill="#63b8ff" stroke="#63b8ff" points="571.93,-120.31 562.1,-124.27 572.25,-127.3 571.93,-120.31"/>
</a>
</g>
</g>
<!-- Node7&#45;&gt;Node5 -->
<g id="edge8_Node000007_Node000005" class="edge">
<title>Node7&#45;&gt;Node5</title>
<g id="a_edge8_Node000007_Node000005"><a xlink:title=" ">
<path fill="none" stroke="#63b8ff" d="M572.05,-30.2C642.56,-34.61 745.01,-41.01 807.65,-44.92"/>
<polygon fill="#63b8ff" stroke="#63b8ff" points="572.3,-26.71 562.1,-29.58 571.86,-33.7 572.3,-26.71"/>
</a>
</g>
</g>
</g>
</svg>

<g id="navigator" transform="translate(0 0)" fill="#404254">
  <rect fill="#f2f5e9" fill-opacity="0.5" stroke="#606060" stroke-width=".5" x="0" y="0" width="60" height="60"/>
  <use id="zoomplus" xlink:href="#zoomPlus" x="17" y="9" onmousedown="handleZoom(evt,'in')"/>
  <use id="zoomminus" xlink:href="#zoomMin" x="42" y="9" onmousedown="handleZoom(evt,'out')"/>
  <use id="reset" xlink:href="#resetDef" x="30" y="36" onmousedown="handleReset()"/>
   <use id="arrowup" xlink:href="#arrowUp" x="0" y="0" onmousedown="handlePan(0,-1)"/>
  <use id="arrowright" xlink:href="#arrowRight" x="0" y="0" onmousedown="handlePan(1,0)"/>
  <use id="arrowdown" xlink:href="#arrowDown" x="0" y="0" onmousedown="handlePan(0,1)"/>
  <use id="arrowleft" xlink:href="#arrowLeft" x="0" y="0" onmousedown="handlePan(-1,0)"/>
</g>
<svg viewBox="0 0 15 15" width="100%" height="30px" preserveAspectRatio="xMaxYMin meet">
 <g id="arrow_out" transform="scale(0.3 0.3)">
  <a xlink:href="structDGtal_1_1NumberTraitsImpl__inherit__graph_org.svg" target="_base">
   <rect id="button" ry="5" rx="5" y="6" x="6" height="38" width="38"
        fill="#f2f5e9" fill-opacity="0.5" stroke="#606060" stroke-width="1.0"/>
   <path id="arrow"
     d="M 11.500037,31.436501 C 11.940474,20.09759 22.043105,11.32322 32.158766,21.979434 L 37.068811,17.246167 C 37.068811,17.246167 37.088388,32 37.088388,32 L 22.160133,31.978069 C 22.160133,31.978069 26.997745,27.140456 26.997745,27.140456 C 18.528582,18.264221 13.291696,25.230495 11.500037,31.436501 z"
     style="fill:#404040;"/>
  </a>
 </g>
</svg>

<style type='text/css'>
<![CDATA[
[data-mouse-over-selected='false'] { opacity: 0.7; }
[data-mouse-over-selected='true']  { opacity: 1.0; }
]]>
</style>
<script type="application/ecmascript"><![CDATA[
document.addEventListener('DOMContentLoaded', (event) => {
  highlightEdges();
  highlightAdjacentNodes();
});
]]></script>
</svg>
