<?xml version="1.0" encoding="UTF-8" standalone="no"?>
<!DOCTYPE svg PUBLIC "-//W3C//DTD SVG 1.1//EN"
 "http://www.w3.org/Graphics/SVG/1.1/DTD/svg11.dtd">
<!-- Generated by graphviz version 11.0.0 (0)
 -->
<!-- Title: DGtal::MapAssociativeCategory Pages: 1 -->
<svg width="717pt" height="139pt"
 viewBox="0.00 0.00 717.00 138.50" xmlns="http://www.w3.org/2000/svg" xmlns:xlink="http://www.w3.org/1999/xlink">
<g id="graph0" class="graph" transform="scale(1 1) rotate(0) translate(4 134.5)">
<title>DGtal::MapAssociativeCategory</title>
<!-- Node1 -->
<g id="Node000001" class="node">
<title>Node1</title>
<g id="a_Node000001"><a xlink:title=" ">
<polygon fill="#999999" stroke="#666666" points="709,-76.38 546.75,-76.38 546.75,-54.12 709,-54.12 709,-76.38"/>
<text text-anchor="middle" x="627.88" y="-62.88" font-family="FreeSans" font-size="10.00">DGtal::MapAssociativeCategory</text>
</a>
</g>
</g>
<!-- Node2 -->
<g id="Node000002" class="node">
<title>Node2</title>
<g id="a_Node000002"><a xlink:href="structDGtal_1_1OrderedAssociativeCategory.html" target="_top" xlink:title=" ">
<polygon fill="white" stroke="#666666" points="499.88,-130.5 361.62,-130.5 361.62,-94 499.88,-94 499.88,-130.5"/>
<text text-anchor="start" x="369.62" y="-117" font-family="FreeSans" font-size="10.00">DGtal::OrderedAssociative</text>
<text text-anchor="middle" x="430.75" y="-102.75" font-family="FreeSans" font-size="10.00">Category</text>
</a>
</g>
</g>
<!-- Node2&#45;&gt;Node1 -->
<g id="edge1_Node000001_Node000002" class="edge">
<title>Node2&#45;&gt;Node1</title>
<g id="a_edge1_Node000001_Node000002"><a xlink:title=" ">
<path fill="none" stroke="#63b8ff" d="M511.36,-93.07C534.22,-87.57 558.43,-81.74 578.76,-76.84"/>
<polygon fill="#63b8ff" stroke="#63b8ff" points="510.64,-89.65 501.74,-95.39 512.28,-96.45 510.64,-89.65"/>
</a>
</g>
</g>
<!-- Node3 -->
<g id="Node000003" class="node">
<title>Node3</title>
<g id="a_Node000003"><a xlink:href="structDGtal_1_1AssociativeCategory.html" target="_top" xlink:title=" ">
<polygon fill="white" stroke="#666666" points="314.75,-76.38 172.75,-76.38 172.75,-54.12 314.75,-54.12 314.75,-76.38"/>
<text text-anchor="middle" x="243.75" y="-62.88" font-family="FreeSans" font-size="10.00">DGtal::AssociativeCategory</text>
</a>
</g>
</g>
<!-- Node3&#45;&gt;Node2 -->
<g id="edge2_Node000002_Node000003" class="edge">
<title>Node3&#45;&gt;Node2</title>
<g id="a_edge2_Node000002_Node000003"><a xlink:title=" ">
<path fill="none" stroke="#63b8ff" d="M301.62,-79.7C320.53,-84.5 341.79,-89.9 361.47,-94.9"/>
<polygon fill="#63b8ff" stroke="#63b8ff" points="302.5,-76.31 291.95,-77.24 300.78,-83.1 302.5,-76.31"/>
</a>
</g>
</g>
<!-- Node5 -->
<g id="Node000005" class="node">
<title>Node5</title>
<g id="a_Node000005"><a xlink:href="structDGtal_1_1PairAssociativeCategory.html" target="_top" xlink:title=" ">
<polygon fill="white" stroke="#666666" points="510.75,-76.38 350.75,-76.38 350.75,-54.12 510.75,-54.12 510.75,-76.38"/>
<text text-anchor="middle" x="430.75" y="-62.88" font-family="FreeSans" font-size="10.00">DGtal::PairAssociativeCategory</text>
</a>
</g>
</g>
<!-- Node3&#45;&gt;Node5 -->
<g id="edge5_Node000005_Node000003" class="edge">
<title>Node3&#45;&gt;Node5</title>
<g id="a_edge5_Node000005_Node000003"><a xlink:title=" ">
<path fill="none" stroke="#63b8ff" d="M326.71,-65.25C334.62,-65.25 342.63,-65.25 350.51,-65.25"/>
<polygon fill="#63b8ff" stroke="#63b8ff" points="326.73,-61.75 316.73,-65.25 326.73,-68.75 326.73,-61.75"/>
</a>
</g>
</g>
<!-- Node6 -->
<g id="Node000006" class="node">
<title>Node6</title>
<g id="a_Node000006"><a xlink:href="structDGtal_1_1UniqueAssociativeCategory.html" target="_top" xlink:title=" ">
<polygon fill="white" stroke="#666666" points="497.25,-36.5 364.25,-36.5 364.25,0 497.25,0 497.25,-36.5"/>
<text text-anchor="start" x="372.25" y="-23" font-family="FreeSans" font-size="10.00">DGtal::UniqueAssociative</text>
<text text-anchor="middle" x="430.75" y="-8.75" font-family="FreeSans" font-size="10.00">Category</text>
</a>
</g>
</g>
<!-- Node3&#45;&gt;Node6 -->
<g id="edge7_Node000006_Node000003" class="edge">
<title>Node3&#45;&gt;Node6</title>
<g id="a_edge7_Node000006_Node000003"><a xlink:title=" ">
<path fill="none" stroke="#63b8ff" d="M301.46,-50.84C321.21,-45.83 343.53,-40.16 363.95,-34.97"/>
<polygon fill="#63b8ff" stroke="#63b8ff" points="300.78,-47.4 291.95,-53.26 302.5,-54.19 300.78,-47.4"/>
</a>
</g>
</g>
<!-- Node4 -->
<g id="Node000004" class="node">
<title>Node4</title>
<g id="a_Node000004"><a xlink:href="structDGtal_1_1ContainerCategory.html" target="_top" xlink:title=" ">
<polygon fill="white" stroke="#666666" points="136.75,-76.38 0,-76.38 0,-54.12 136.75,-54.12 136.75,-76.38"/>
<text text-anchor="middle" x="68.38" y="-62.88" font-family="FreeSans" font-size="10.00">DGtal::ContainerCategory</text>
</a>
</g>
</g>
<!-- Node4&#45;&gt;Node3 -->
<g id="edge3_Node000003_Node000004" class="edge">
<title>Node4&#45;&gt;Node3</title>
<g id="a_edge3_Node000003_Node000004"><a xlink:title=" ">
<path fill="none" stroke="#63b8ff" d="M148.17,-65.25C156.2,-65.25 164.32,-65.25 172.26,-65.25"/>
<polygon fill="#63b8ff" stroke="#63b8ff" points="148.42,-61.75 138.42,-65.25 148.42,-68.75 148.42,-61.75"/>
</a>
</g>
</g>
<!-- Node5&#45;&gt;Node1 -->
<g id="edge4_Node000001_Node000005" class="edge">
<title>Node5&#45;&gt;Node1</title>
<g id="a_edge4_Node000001_Node000005"><a xlink:title=" ">
<path fill="none" stroke="#63b8ff" d="M522.35,-65.25C530.35,-65.25 538.41,-65.25 546.31,-65.25"/>
<polygon fill="#63b8ff" stroke="#63b8ff" points="522.63,-61.75 512.63,-65.25 522.63,-68.75 522.63,-61.75"/>
</a>
</g>
</g>
<!-- Node6&#45;&gt;Node1 -->
<g id="edge6_Node000001_Node000006" class="edge">
<title>Node6&#45;&gt;Node1</title>
<g id="a_edge6_Node000001_Node000006"><a xlink:title=" ">
<path fill="none" stroke="#63b8ff" d="M508.6,-36.76C532.21,-42.45 557.51,-48.54 578.63,-53.63"/>
<polygon fill="#63b8ff" stroke="#63b8ff" points="509.55,-33.39 499.01,-34.45 507.91,-40.2 509.55,-33.39"/>
</a>
</g>
</g>
</g>
</svg>
