<?xml version="1.0" encoding="UTF-8" standalone="no"?>
<!DOCTYPE svg PUBLIC "-//W3C//DTD SVG 1.1//EN"
 "http://www.w3.org/Graphics/SVG/1.1/DTD/svg11.dtd">
<!-- Generated by graphviz version 11.0.0 (0)
 -->
<!-- Title: DGtal::DrawWithDisplay3DModifier Pages: 1 -->
<svg width="616pt" height="603pt"
 viewBox="0.00 0.00 616.25 602.62" xmlns="http://www.w3.org/2000/svg" xmlns:xlink="http://www.w3.org/1999/xlink">
<g id="graph0" class="graph" transform="scale(1 1) rotate(0) translate(4 598.62)">
<title>DGtal::DrawWithDisplay3DModifier</title>
<!-- Node1 -->
<g id="Node000001" class="node">
<title>Node1</title>
<g id="a_Node000001"><a xlink:title="Base class specifying the methods for classes which intend to modify a Viewer3D stream.">
<polygon fill="#999999" stroke="#666666" points="179.5,-296.38 0,-296.38 0,-274.12 179.5,-274.12 179.5,-296.38"/>
<text text-anchor="middle" x="89.75" y="-282.88" font-family="FreeSans" font-size="10.00">DGtal::DrawWithDisplay3DModifier</text>
</a>
</g>
</g>
<!-- Node2 -->
<g id="Node000002" class="node">
<title>Node2</title>
<g id="a_Node000002"><a xlink:href="structDGtal_1_1ClippingPlane.html" target="_top" xlink:title="Class for adding a Clipping plane through the Viewer3D stream. Realizes the concept CDrawableWithView...">
<polygon fill="white" stroke="#666666" points="359.75,-436.38 249.25,-436.38 249.25,-414.12 359.75,-414.12 359.75,-436.38"/>
<text text-anchor="middle" x="304.5" y="-422.88" font-family="FreeSans" font-size="10.00">DGtal::ClippingPlane</text>
</a>
</g>
</g>
<!-- Node1&#45;&gt;Node2 -->
<g id="edge1_Node000001_Node000002" class="edge">
<title>Node1&#45;&gt;Node2</title>
<g id="a_edge1_Node000001_Node000002"><a xlink:title=" ">
<path fill="none" stroke="#63b8ff" d="M105.92,-305.57C127.28,-332.65 168.86,-380.09 215.5,-405.25 225.7,-410.75 237.36,-414.75 248.78,-417.64"/>
<polygon fill="#63b8ff" stroke="#63b8ff" points="108.8,-303.57 99.92,-297.79 103.26,-307.84 108.8,-303.57"/>
</a>
</g>
</g>
<!-- Node3 -->
<g id="Node000003" class="node">
<title>Node3</title>
<g id="a_Node000003"><a xlink:href="structDGtal_1_1CustomColors3D.html" target="_top" xlink:title=" ">
<polygon fill="white" stroke="#666666" points="367.62,-396.38 241.38,-396.38 241.38,-374.12 367.62,-374.12 367.62,-396.38"/>
<text text-anchor="middle" x="304.5" y="-382.88" font-family="FreeSans" font-size="10.00">DGtal::CustomColors3D</text>
</a>
</g>
</g>
<!-- Node1&#45;&gt;Node3 -->
<g id="edge2_Node000001_Node000003" class="edge">
<title>Node1&#45;&gt;Node3</title>
<g id="a_edge2_Node000001_Node000003"><a xlink:title=" ">
<path fill="none" stroke="#63b8ff" d="M113.83,-303.56C137.88,-321.78 177.33,-349.26 215.5,-365.25 223.59,-368.64 232.35,-371.51 241.11,-373.91"/>
<polygon fill="#63b8ff" stroke="#63b8ff" points="116.06,-300.87 106,-297.54 111.79,-306.41 116.06,-300.87"/>
</a>
</g>
</g>
<!-- Node4 -->
<g id="Node000004" class="node">
<title>Node4</title>
<g id="a_Node000004"><a xlink:href="structDGtal_1_1CustomStyle3D.html" target="_top" xlink:title="Modifier class in a Display3D stream. Useful to choose your own style for a given class....">
<polygon fill="white" stroke="#666666" points="364.25,-356.38 244.75,-356.38 244.75,-334.12 364.25,-334.12 364.25,-356.38"/>
<text text-anchor="middle" x="304.5" y="-342.88" font-family="FreeSans" font-size="10.00">DGtal::CustomStyle3D</text>
</a>
</g>
</g>
<!-- Node1&#45;&gt;Node4 -->
<g id="edge3_Node000001_Node000004" class="edge">
<title>Node1&#45;&gt;Node4</title>
<g id="a_edge3_Node000001_Node000004"><a xlink:title=" ">
<path fill="none" stroke="#63b8ff" d="M134.92,-300.44C158.65,-308.35 188.51,-317.87 215.5,-325.25 226.38,-328.22 238.1,-331.11 249.33,-333.72"/>
<polygon fill="#63b8ff" stroke="#63b8ff" points="136.16,-297.17 125.57,-297.31 133.94,-303.81 136.16,-297.17"/>
</a>
</g>
</g>
<!-- Node5 -->
<g id="Node000005" class="node">
<title>Node5</title>
<g id="a_Node000005"><a xlink:href="structDGtal_1_1DrawWithViewer3DModifier.html" target="_top" xlink:title="Base class specifying the methods for classes which intend to modify a Viewer3D stream.">
<polygon fill="white" stroke="#666666" points="393.5,-316.38 215.5,-316.38 215.5,-294.12 393.5,-294.12 393.5,-316.38"/>
<text text-anchor="middle" x="304.5" y="-302.88" font-family="FreeSans" font-size="10.00">DGtal::DrawWithViewer3DModifier</text>
</a>
</g>
</g>
<!-- Node1&#45;&gt;Node5 -->
<g id="edge4_Node000001_Node000005" class="edge">
<title>Node1&#45;&gt;Node5</title>
<g id="a_edge4_Node000001_Node000005"><a xlink:title=" ">
<path fill="none" stroke="#63b8ff" d="M191.08,-294.68C199.14,-295.44 207.24,-296.2 215.2,-296.95"/>
<polygon fill="#63b8ff" stroke="#63b8ff" points="191.53,-291.21 181.25,-293.76 190.88,-298.18 191.53,-291.21"/>
</a>
</g>
</g>
<!-- Node18 -->
<g id="Node000018" class="node">
<title>Node18</title>
<g id="a_Node000018"><a xlink:href="structDGtal_1_1SetMode3D.html" target="_top" xlink:title="Modifier class in a Display3D stream. Useful to choose your own mode for a given class....">
<polygon fill="white" stroke="#666666" points="356.38,-276.38 252.62,-276.38 252.62,-254.12 356.38,-254.12 356.38,-276.38"/>
<text text-anchor="middle" x="304.5" y="-262.88" font-family="FreeSans" font-size="10.00">DGtal::SetMode3D</text>
</a>
</g>
</g>
<!-- Node1&#45;&gt;Node18 -->
<g id="edge17_Node000001_Node000018" class="edge">
<title>Node1&#45;&gt;Node18</title>
<g id="a_edge17_Node000001_Node000018"><a xlink:title=" ">
<path fill="none" stroke="#63b8ff" d="M191.11,-275.82C212.27,-273.83 233.76,-271.81 252.2,-270.07"/>
<polygon fill="#63b8ff" stroke="#63b8ff" points="190.88,-272.32 181.25,-276.74 191.53,-279.29 190.88,-272.32"/>
</a>
</g>
</g>
<!-- Node19 -->
<g id="Node000019" class="node">
<title>Node19</title>
<g id="a_Node000019"><a xlink:href="structDGtal_1_1SetName3D.html" target="_top" xlink:title=" ">
<polygon fill="white" stroke="#666666" points="356.75,-236.38 252.25,-236.38 252.25,-214.12 356.75,-214.12 356.75,-236.38"/>
<text text-anchor="middle" x="304.5" y="-222.88" font-family="FreeSans" font-size="10.00">DGtal::SetName3D</text>
</a>
</g>
</g>
<!-- Node1&#45;&gt;Node19 -->
<g id="edge18_Node000001_Node000019" class="edge">
<title>Node1&#45;&gt;Node19</title>
<g id="a_edge18_Node000001_Node000019"><a xlink:title=" ">
<path fill="none" stroke="#63b8ff" d="M134.92,-270.06C158.65,-262.15 188.51,-252.63 215.5,-245.25 227.29,-242.03 240.06,-238.91 252.13,-236.14"/>
<polygon fill="#63b8ff" stroke="#63b8ff" points="133.94,-266.69 125.57,-273.19 136.16,-273.33 133.94,-266.69"/>
</a>
</g>
</g>
<!-- Node20 -->
<g id="Node000020" class="node">
<title>Node20</title>
<g id="a_Node000020"><a xlink:href="structDGtal_1_1SetSelectCallback3D.html" target="_top" xlink:title=" ">
<polygon fill="white" stroke="#666666" points="375.12,-196.38 233.88,-196.38 233.88,-174.12 375.12,-174.12 375.12,-196.38"/>
<text text-anchor="middle" x="304.5" y="-182.88" font-family="FreeSans" font-size="10.00">DGtal::SetSelectCallback3D</text>
</a>
</g>
</g>
<!-- Node1&#45;&gt;Node20 -->
<g id="edge19_Node000001_Node000020" class="edge">
<title>Node1&#45;&gt;Node20</title>
<g id="a_edge19_Node000001_Node000020"><a xlink:title=" ">
<path fill="none" stroke="#63b8ff" d="M113.83,-266.94C137.88,-248.72 177.33,-221.24 215.5,-205.25 223.3,-201.98 231.73,-199.2 240.17,-196.85"/>
<polygon fill="#63b8ff" stroke="#63b8ff" points="111.79,-264.09 106,-272.96 116.06,-269.63 111.79,-264.09"/>
</a>
</g>
</g>
<!-- Node21 -->
<g id="Node000021" class="node">
<title>Node21</title>
<g id="a_Node000021"><a xlink:href="structDGtal_1_1TransformedPrism.html" target="_top" xlink:title="class to modify the position and scale to construct better illustration mode.">
<polygon fill="white" stroke="#666666" points="371.75,-156.38 237.25,-156.38 237.25,-134.12 371.75,-134.12 371.75,-156.38"/>
<text text-anchor="middle" x="304.5" y="-142.88" font-family="FreeSans" font-size="10.00">DGtal::TransformedPrism</text>
</a>
</g>
</g>
<!-- Node1&#45;&gt;Node21 -->
<g id="edge20_Node000001_Node000021" class="edge">
<title>Node1&#45;&gt;Node21</title>
<g id="a_edge20_Node000001_Node000021"><a xlink:title=" ">
<path fill="none" stroke="#63b8ff" d="M105.92,-264.93C127.28,-237.85 168.86,-190.41 215.5,-165.25 222.26,-161.6 229.65,-158.62 237.19,-156.18"/>
<polygon fill="#63b8ff" stroke="#63b8ff" points="103.26,-262.66 99.92,-272.71 108.8,-266.93 103.26,-262.66"/>
</a>
</g>
</g>
<!-- Node6 -->
<g id="Node000006" class="node">
<title>Node6</title>
<g id="a_Node000006"><a xlink:href="structDGtal_1_1AddTextureImage2DWithFunctor.html" target="_top" xlink:title="class to insert a custom 2D textured image by using a conversion functor and allows to change the def...">
<polygon fill="white" stroke="#666666" points="601.88,-594.62 435.88,-594.62 435.88,-543.88 601.88,-543.88 601.88,-594.62"/>
<text text-anchor="start" x="443.88" y="-581.12" font-family="FreeSans" font-size="10.00">DGtal::AddTextureImage2DWith</text>
<text text-anchor="start" x="443.88" y="-566.88" font-family="FreeSans" font-size="10.00">Functor&lt; TImageType, TFunctor,</text>
<text text-anchor="middle" x="518.88" y="-552.62" font-family="FreeSans" font-size="10.00"> Space, KSpace &gt;</text>
</a>
</g>
</g>
<!-- Node5&#45;&gt;Node6 -->
<g id="edge5_Node000005_Node000006" class="edge">
<title>Node5&#45;&gt;Node6</title>
<g id="a_edge5_Node000005_Node000006"><a xlink:title=" ">
<path fill="none" stroke="#63b8ff" d="M392,-323.74C392.51,-324.23 393.01,-324.73 393.5,-325.25 458.36,-393.64 370.08,-461.09 429.5,-534.25 432.31,-537.71 435.51,-540.83 438.99,-543.64"/>
<polygon fill="#63b8ff" stroke="#63b8ff" points="394.24,-321.04 384.19,-317.69 389.95,-326.58 394.24,-321.04"/>
</a>
</g>
</g>
<!-- Node7 -->
<g id="Node000007" class="node">
<title>Node7</title>
<g id="a_Node000007"><a xlink:href="structDGtal_1_1AddTextureImage3DWithFunctor.html" target="_top" xlink:title="class to insert a custom 3D textured image by using a conversion functor and allows to change the def...">
<polygon fill="white" stroke="#666666" points="601.88,-525.62 435.88,-525.62 435.88,-474.88 601.88,-474.88 601.88,-525.62"/>
<text text-anchor="start" x="443.88" y="-512.12" font-family="FreeSans" font-size="10.00">DGtal::AddTextureImage3DWith</text>
<text text-anchor="start" x="443.88" y="-497.88" font-family="FreeSans" font-size="10.00">Functor&lt; TImageType, TFunctor,</text>
<text text-anchor="middle" x="518.88" y="-483.62" font-family="FreeSans" font-size="10.00"> Space, KSpace &gt;</text>
</a>
</g>
</g>
<!-- Node5&#45;&gt;Node7 -->
<g id="edge6_Node000005_Node000007" class="edge">
<title>Node5&#45;&gt;Node7</title>
<g id="a_edge6_Node000005_Node000007"><a xlink:title=" ">
<path fill="none" stroke="#63b8ff" d="M391.56,-323.46C392.22,-324.04 392.87,-324.64 393.5,-325.25 439.57,-370.03 387.01,-417.06 429.5,-465.25 432.56,-468.72 436,-471.84 439.71,-474.66"/>
<polygon fill="#63b8ff" stroke="#63b8ff" points="393.68,-320.67 383.51,-317.71 389.61,-326.37 393.68,-320.67"/>
</a>
</g>
</g>
<!-- Node8 -->
<g id="Node000008" class="node">
<title>Node8</title>
<g id="a_Node000008"><a xlink:href="structDGtal_1_1CameraDirection.html" target="_top" xlink:title="CameraDirection class to set camera direction.">
<polygon fill="white" stroke="#666666" points="581.62,-456.38 456.12,-456.38 456.12,-434.12 581.62,-434.12 581.62,-456.38"/>
<text text-anchor="middle" x="518.88" y="-442.88" font-family="FreeSans" font-size="10.00">DGtal::CameraDirection</text>
</a>
</g>
</g>
<!-- Node5&#45;&gt;Node8 -->
<g id="edge7_Node000005_Node000008" class="edge">
<title>Node5&#45;&gt;Node8</title>
<g id="a_edge7_Node000005_Node000008"><a xlink:title=" ">
<path fill="none" stroke="#63b8ff" d="M390.6,-322.85C391.6,-323.62 392.56,-324.42 393.5,-325.25 428.88,-356.55 394.11,-393.96 429.5,-425.25 437.04,-431.92 446.34,-436.5 456.04,-439.63"/>
<polygon fill="#63b8ff" stroke="#63b8ff" points="392.68,-320.03 382.37,-317.58 388.9,-325.92 392.68,-320.03"/>
</a>
</g>
</g>
<!-- Node9 -->
<g id="Node000009" class="node">
<title>Node9</title>
<g id="a_Node000009"><a xlink:href="structDGtal_1_1CameraPosition.html" target="_top" xlink:title="CameraPosition class to set camera position.">
<polygon fill="white" stroke="#666666" points="579,-416.38 458.75,-416.38 458.75,-394.12 579,-394.12 579,-416.38"/>
<text text-anchor="middle" x="518.88" y="-402.88" font-family="FreeSans" font-size="10.00">DGtal::CameraPosition</text>
</a>
</g>
</g>
<!-- Node5&#45;&gt;Node9 -->
<g id="edge8_Node000005_Node000009" class="edge">
<title>Node5&#45;&gt;Node9</title>
<g id="a_edge8_Node000005_Node000009"><a xlink:title=" ">
<path fill="none" stroke="#63b8ff" d="M388.64,-322.02C390.31,-323.04 391.93,-324.11 393.5,-325.25 418.68,-343.49 404.31,-367.02 429.5,-385.25 438.04,-391.43 448.16,-395.74 458.45,-398.75"/>
<polygon fill="#63b8ff" stroke="#63b8ff" points="390.48,-319.04 379.99,-317.54 387.26,-325.25 390.48,-319.04"/>
</a>
</g>
</g>
<!-- Node10 -->
<g id="Node000010" class="node">
<title>Node10</title>
<g id="a_Node000010"><a xlink:href="structDGtal_1_1CameraUpVector.html" target="_top" xlink:title="CameraUpVector class to set camera up&#45;vector.">
<polygon fill="white" stroke="#666666" points="582.75,-376.38 455,-376.38 455,-354.12 582.75,-354.12 582.75,-376.38"/>
<text text-anchor="middle" x="518.88" y="-362.88" font-family="FreeSans" font-size="10.00">DGtal::CameraUpVector</text>
</a>
</g>
</g>
<!-- Node5&#45;&gt;Node10 -->
<g id="edge9_Node000005_Node000010" class="edge">
<title>Node5&#45;&gt;Node10</title>
<g id="a_edge9_Node000005_Node000010"><a xlink:title=" ">
<path fill="none" stroke="#63b8ff" d="M377.83,-319.93C383.18,-321.55 388.46,-323.32 393.5,-325.25 410.6,-331.79 412.4,-338.72 429.5,-345.25 438.02,-348.51 447.22,-351.31 456.35,-353.71"/>
<polygon fill="#63b8ff" stroke="#63b8ff" points="378.8,-316.57 368.22,-317.22 376.89,-323.3 378.8,-316.57"/>
</a>
</g>
</g>
<!-- Node11 -->
<g id="Node000011" class="node">
<title>Node11</title>
<g id="a_Node000011"><a xlink:href="structDGtal_1_1CameraZNearFar.html" target="_top" xlink:title="CameraZNearFar class to set near and far distance.">
<polygon fill="white" stroke="#666666" points="582.75,-336.38 455,-336.38 455,-314.12 582.75,-314.12 582.75,-336.38"/>
<text text-anchor="middle" x="518.88" y="-322.88" font-family="FreeSans" font-size="10.00">DGtal::CameraZNearFar</text>
</a>
</g>
</g>
<!-- Node5&#45;&gt;Node11 -->
<g id="edge10_Node000005_Node000011" class="edge">
<title>Node5&#45;&gt;Node11</title>
<g id="a_edge10_Node000005_Node000011"><a xlink:title=" ">
<path fill="none" stroke="#63b8ff" d="M404.79,-314.6C421.71,-316.19 438.86,-317.81 454.52,-319.28"/>
<polygon fill="#63b8ff" stroke="#63b8ff" points="405.51,-311.15 395.23,-313.7 404.86,-318.12 405.51,-311.15"/>
</a>
</g>
</g>
<!-- Node12 -->
<g id="Node000012" class="node">
<title>Node12</title>
<g id="a_Node000012"><a xlink:href="structDGtal_1_1Translate2DDomain.html" target="_top" xlink:title="class to modify the data of an given image and also the possibility to translate it (optional).">
<polygon fill="white" stroke="#666666" points="588.75,-296.38 449,-296.38 449,-274.12 588.75,-274.12 588.75,-296.38"/>
<text text-anchor="middle" x="518.88" y="-282.88" font-family="FreeSans" font-size="10.00">DGtal::Translate2DDomain</text>
</a>
</g>
</g>
<!-- Node5&#45;&gt;Node12 -->
<g id="edge11_Node000005_Node000012" class="edge">
<title>Node5&#45;&gt;Node12</title>
<g id="a_edge11_Node000005_Node000012"><a xlink:title=" ">
<path fill="none" stroke="#63b8ff" d="M404.97,-295.88C419.76,-294.49 434.72,-293.08 448.7,-291.76"/>
<polygon fill="#63b8ff" stroke="#63b8ff" points="404.86,-292.38 395.23,-296.8 405.51,-299.35 404.86,-292.38"/>
</a>
</g>
</g>
<!-- Node13 -->
<g id="Node000013" class="node">
<title>Node13</title>
<g id="a_Node000013"><a xlink:href="structDGtal_1_1Update2DDomainPosition.html" target="_top" xlink:title="class to modify the position and orientation of an 2D domain.">
<polygon fill="white" stroke="#666666" points="603.38,-256.5 434.38,-256.5 434.38,-220 603.38,-220 603.38,-256.5"/>
<text text-anchor="start" x="442.38" y="-243" font-family="FreeSans" font-size="10.00">DGtal::Update2DDomainPosition</text>
<text text-anchor="middle" x="518.88" y="-228.75" font-family="FreeSans" font-size="10.00">&lt; Space, KSpace &gt;</text>
</a>
</g>
</g>
<!-- Node5&#45;&gt;Node13 -->
<g id="edge12_Node000005_Node000013" class="edge">
<title>Node5&#45;&gt;Node13</title>
<g id="a_edge12_Node000005_Node000013"><a xlink:title=" ">
<path fill="none" stroke="#63b8ff" d="M377.83,-290.57C383.18,-288.95 388.46,-287.18 393.5,-285.25 410.6,-278.71 412.65,-272.41 429.5,-265.25 436.44,-262.3 443.81,-259.53 451.22,-256.96"/>
<polygon fill="#63b8ff" stroke="#63b8ff" points="376.89,-287.2 368.22,-293.28 378.8,-293.93 376.89,-287.2"/>
</a>
</g>
</g>
<!-- Node14 -->
<g id="Node000014" class="node">
<title>Node14</title>
<g id="a_Node000014"><a xlink:href="structDGtal_1_1UpdateImage3DEmbedding.html" target="_top" xlink:title="class to modify the 3d embedding of the image (useful to display not only 2D slice images)....">
<polygon fill="white" stroke="#666666" points="608.25,-201.5 429.5,-201.5 429.5,-165 608.25,-165 608.25,-201.5"/>
<text text-anchor="start" x="437.5" y="-188" font-family="FreeSans" font-size="10.00">DGtal::UpdateImage3DEmbedding</text>
<text text-anchor="middle" x="518.88" y="-173.75" font-family="FreeSans" font-size="10.00">&lt; Space, KSpace &gt;</text>
</a>
</g>
</g>
<!-- Node5&#45;&gt;Node14 -->
<g id="edge13_Node000005_Node000014" class="edge">
<title>Node5&#45;&gt;Node14</title>
<g id="a_edge13_Node000005_Node000014"><a xlink:title=" ">
<path fill="none" stroke="#63b8ff" d="M389.46,-288.2C390.85,-287.27 392.2,-286.28 393.5,-285.25 422.15,-262.52 401.82,-235.16 429.5,-211.25 433.64,-207.67 438.24,-204.55 443.11,-201.83"/>
<polygon fill="#63b8ff" stroke="#63b8ff" points="388.11,-284.94 381.16,-292.94 391.58,-291.03 388.11,-284.94"/>
</a>
</g>
</g>
<!-- Node15 -->
<g id="Node000015" class="node">
<title>Node15</title>
<g id="a_Node000015"><a xlink:href="structDGtal_1_1UpdateImageData.html" target="_top" xlink:title="class to modify the data of an given image and also the possibility to translate it (optional).">
<polygon fill="white" stroke="#666666" points="587.25,-146.5 450.5,-146.5 450.5,-110 587.25,-110 587.25,-146.5"/>
<text text-anchor="start" x="458.5" y="-133" font-family="FreeSans" font-size="10.00">DGtal::UpdateImageData</text>
<text text-anchor="middle" x="518.88" y="-118.75" font-family="FreeSans" font-size="10.00">&lt; TImageType, TFunctor &gt;</text>
</a>
</g>
</g>
<!-- Node5&#45;&gt;Node15 -->
<g id="edge14_Node000005_Node000015" class="edge">
<title>Node5&#45;&gt;Node15</title>
<g id="a_edge14_Node000005_Node000015"><a xlink:title=" ">
<path fill="none" stroke="#63b8ff" d="M391.13,-287.37C391.94,-286.69 392.73,-285.98 393.5,-285.25 436.6,-244.2 388.15,-199.06 429.5,-156.25 435.31,-150.23 442.41,-145.5 450.03,-141.79"/>
<polygon fill="#63b8ff" stroke="#63b8ff" points="389.28,-284.4 383.04,-292.96 393.25,-290.16 389.28,-284.4"/>
</a>
</g>
</g>
<!-- Node16 -->
<g id="Node000016" class="node">
<title>Node16</title>
<g id="a_Node000016"><a xlink:href="structDGtal_1_1UpdateImagePosition.html" target="_top" xlink:title="class to modify the position and orientation of an textured 2D image.">
<polygon fill="white" stroke="#666666" points="593.62,-91.5 444.12,-91.5 444.12,-55 593.62,-55 593.62,-91.5"/>
<text text-anchor="start" x="452.12" y="-78" font-family="FreeSans" font-size="10.00">DGtal::UpdateImagePosition</text>
<text text-anchor="middle" x="518.88" y="-63.75" font-family="FreeSans" font-size="10.00">&lt; Space, KSpace &gt;</text>
</a>
</g>
</g>
<!-- Node5&#45;&gt;Node16 -->
<g id="edge15_Node000005_Node000016" class="edge">
<title>Node5&#45;&gt;Node16</title>
<g id="a_edge15_Node000005_Node000016"><a xlink:title=" ">
<path fill="none" stroke="#63b8ff" d="M391.99,-286.74C392.5,-286.26 393.01,-285.76 393.5,-285.25 451.52,-225.44 374.02,-163.42 429.5,-101.25 433.68,-96.57 438.64,-92.66 444.04,-89.4"/>
<polygon fill="#63b8ff" stroke="#63b8ff" points="389.95,-283.9 384.11,-292.74 394.19,-289.47 389.95,-283.9"/>
</a>
</g>
</g>
<!-- Node17 -->
<g id="Node000017" class="node">
<title>Node17</title>
<g id="a_Node000017"><a xlink:href="structDGtal_1_1UpdateLastImagePosition.html" target="_top" xlink:title="class to modify the position and orientation of an textured 2D image.">
<polygon fill="white" stroke="#666666" points="603,-36.5 434.75,-36.5 434.75,0 603,0 603,-36.5"/>
<text text-anchor="start" x="442.75" y="-23" font-family="FreeSans" font-size="10.00">DGtal::UpdateLastImagePosition</text>
<text text-anchor="middle" x="518.88" y="-8.75" font-family="FreeSans" font-size="10.00">&lt; Space, KSpace &gt;</text>
</a>
</g>
</g>
<!-- Node5&#45;&gt;Node17 -->
<g id="edge16_Node000005_Node000017" class="edge">
<title>Node5&#45;&gt;Node17</title>
<g id="a_edge16_Node000005_Node000017"><a xlink:title=" ">
<path fill="none" stroke="#63b8ff" d="M392.02,-286.77C392.52,-286.28 393.02,-285.77 393.5,-285.25 466.6,-206.54 359.75,-127.94 429.5,-46.25 432.53,-42.7 436.01,-39.6 439.79,-36.88"/>
<polygon fill="#63b8ff" stroke="#63b8ff" points="389.96,-283.94 384.26,-292.88 394.29,-289.44 389.96,-283.94"/>
</a>
</g>
</g>
</g>
</svg>
