<?xml version="1.0" encoding="UTF-8" standalone="no"?>
<!DOCTYPE svg PUBLIC "-//W3C//DTD SVG 1.1//EN"
 "http://www.w3.org/Graphics/SVG/1.1/DTD/svg11.dtd">
<!-- Generated by graphviz version 11.0.0 (0)
 -->
<!-- Title: DGtal::concepts::CDrawableWithViewer3D&lt; T, S, KS &gt; Pages: 1 -->
<svg width="153pt" height="204pt"
 viewBox="0.00 0.00 153.00 203.75" xmlns="http://www.w3.org/2000/svg" xmlns:xlink="http://www.w3.org/1999/xlink">
<g id="graph0" class="graph" transform="scale(1 1) rotate(0) translate(4 199.75)">
<title>DGtal::concepts::CDrawableWithViewer3D&lt; T, S, KS &gt;</title>
<!-- Node1 -->
<g id="Node000001" class="node">
<title>Node1</title>
<g id="a_Node000001"><a xlink:title="Aim: The concept CDrawableWithViewer3D specifies what are the classes that admit an export with Viewe...">
<polygon fill="#999999" stroke="#666666" points="145,-36.5 0,-36.5 0,0 145,0 145,-36.5"/>
<text text-anchor="start" x="8" y="-23" font-family="FreeSans" font-size="10.00">DGtal::concepts::CDrawable</text>
<text text-anchor="middle" x="72.5" y="-8.75" font-family="FreeSans" font-size="10.00">WithViewer3D&lt; T, S, KS &gt;</text>
</a>
</g>
</g>
<!-- Node2 -->
<g id="Node000002" class="node">
<title>Node2</title>
<g id="a_Node000002"><a xlink:href="structDGtal_1_1concepts_1_1CDrawableWithDisplay3D.html" target="_top" xlink:title=" ">
<polygon fill="white" stroke="#666666" points="145,-109 0,-109 0,-72.5 145,-72.5 145,-109"/>
<text text-anchor="start" x="8" y="-95.5" font-family="FreeSans" font-size="10.00">DGtal::concepts::CDrawable</text>
<text text-anchor="middle" x="72.5" y="-81.25" font-family="FreeSans" font-size="10.00">WithDisplay3D&lt; T, S, KS &gt;</text>
</a>
</g>
</g>
<!-- Node2&#45;&gt;Node1 -->
<g id="edge1_Node000001_Node000002" class="edge">
<title>Node2&#45;&gt;Node1</title>
<g id="a_edge1_Node000001_Node000002"><a xlink:title=" ">
<path fill="none" stroke="#63b8ff" d="M72.5,-60.97C72.5,-52.84 72.5,-44.23 72.5,-36.97"/>
<polygon fill="#63b8ff" stroke="#63b8ff" points="69,-60.81 72.5,-70.81 76,-60.81 69,-60.81"/>
</a>
</g>
</g>
<!-- Node3 -->
<g id="Node000003" class="node">
<title>Node3</title>
<g id="a_Node000003"><a xlink:href="structDGtal_1_1concepts_1_1CDrawableWithDisplay3D.html" target="_top" xlink:title=" ">
<polygon fill="white" stroke="#666666" points="145,-195.75 0,-195.75 0,-159.25 145,-159.25 145,-195.75"/>
<text text-anchor="start" x="8" y="-182.25" font-family="FreeSans" font-size="10.00">DGtal::concepts::CDrawable</text>
<text text-anchor="middle" x="72.5" y="-168" font-family="FreeSans" font-size="10.00">WithDisplay3D&lt; T, Sp, KSp &gt;</text>
</a>
</g>
</g>
<!-- Node3&#45;&gt;Node2 -->
<g id="edge2_Node000002_Node000003" class="edge">
<title>Node3&#45;&gt;Node2</title>
<g id="a_edge2_Node000002_Node000003"><a xlink:title=" ">
<path fill="none" stroke="orange" stroke-dasharray="5,2" d="M72.5,-147.48C72.5,-134.79 72.5,-120.31 72.5,-109.29"/>
<polygon fill="orange" stroke="orange" points="69,-147.43 72.5,-157.43 76,-147.43 69,-147.43"/>
</a>
</g>
<text text-anchor="middle" x="98" y="-131.75" font-family="FreeSans" font-size="10.00" fill="grey"> &lt; T, S, KS &gt;</text>
</g>
</g>
</svg>
