<?xml version="1.0" encoding="UTF-8" standalone="no"?>
<!DOCTYPE svg PUBLIC "-//W3C//DTD SVG 1.1//EN"
 "http://www.w3.org/Graphics/SVG/1.1/DTD/svg11.dtd">
<!-- Generated by graphviz version 11.0.0 (0)
 -->
<!-- Title: DGtal::MultisetAssociativeCategory Pages: 1 -->
<svg width="670pt" height="155pt"
 viewBox="0.00 0.00 669.75 154.50" xmlns="http://www.w3.org/2000/svg" xmlns:xlink="http://www.w3.org/1999/xlink">
<g id="graph0" class="graph" transform="scale(1 1) rotate(0) translate(4 150.5)">
<title>DGtal::MultisetAssociativeCategory</title>
<!-- Node1 -->
<g id="Node000001" class="node">
<title>Node1</title>
<g id="a_Node000001"><a xlink:title=" ">
<polygon fill="#999999" stroke="#666666" points="661.75,-91.5 525,-91.5 525,-55 661.75,-55 661.75,-91.5"/>
<text text-anchor="start" x="533" y="-78" font-family="FreeSans" font-size="10.00">DGtal::MultisetAssociative</text>
<text text-anchor="middle" x="593.38" y="-63.75" font-family="FreeSans" font-size="10.00">Category</text>
</a>
</g>
</g>
<!-- Node2 -->
<g id="Node000002" class="node">
<title>Node2</title>
<g id="a_Node000002"><a xlink:href="structDGtal_1_1OrderedAssociativeCategory.html" target="_top" xlink:title=" ">
<polygon fill="white" stroke="#666666" points="489,-146.5 350.75,-146.5 350.75,-110 489,-110 489,-146.5"/>
<text text-anchor="start" x="358.75" y="-133" font-family="FreeSans" font-size="10.00">DGtal::OrderedAssociative</text>
<text text-anchor="middle" x="419.88" y="-118.75" font-family="FreeSans" font-size="10.00">Category</text>
</a>
</g>
</g>
<!-- Node2&#45;&gt;Node1 -->
<g id="edge1_Node000001_Node000002" class="edge">
<title>Node2&#45;&gt;Node1</title>
<g id="a_edge1_Node000001_Node000002"><a xlink:title=" ">
<path fill="none" stroke="#63b8ff" d="M489.53,-106.23C504.29,-101.5 519.76,-96.54 534.08,-91.94"/>
<polygon fill="#63b8ff" stroke="#63b8ff" points="488.83,-102.78 480.38,-109.17 490.97,-109.45 488.83,-102.78"/>
</a>
</g>
</g>
<!-- Node3 -->
<g id="Node000003" class="node">
<title>Node3</title>
<g id="a_Node000003"><a xlink:href="structDGtal_1_1AssociativeCategory.html" target="_top" xlink:title=" ">
<polygon fill="white" stroke="#666666" points="314.75,-84.38 172.75,-84.38 172.75,-62.12 314.75,-62.12 314.75,-84.38"/>
<text text-anchor="middle" x="243.75" y="-70.88" font-family="FreeSans" font-size="10.00">DGtal::AssociativeCategory</text>
</a>
</g>
</g>
<!-- Node3&#45;&gt;Node2 -->
<g id="edge2_Node000002_Node000003" class="edge">
<title>Node3&#45;&gt;Node2</title>
<g id="a_edge2_Node000002_Node000003"><a xlink:title=" ">
<path fill="none" stroke="#63b8ff" d="M292.1,-88.2C312.98,-94.8 337.73,-102.62 359.81,-109.59"/>
<polygon fill="#63b8ff" stroke="#63b8ff" points="293.29,-84.91 282.7,-85.24 291.18,-91.59 293.29,-84.91"/>
</a>
</g>
</g>
<!-- Node5 -->
<g id="Node000005" class="node">
<title>Node5</title>
<g id="a_Node000005"><a xlink:href="structDGtal_1_1SimpleAssociativeCategory.html" target="_top" xlink:title=" ">
<polygon fill="white" stroke="#666666" points="484.88,-91.5 354.88,-91.5 354.88,-55 484.88,-55 484.88,-91.5"/>
<text text-anchor="start" x="362.88" y="-78" font-family="FreeSans" font-size="10.00">DGtal::SimpleAssociative</text>
<text text-anchor="middle" x="419.88" y="-63.75" font-family="FreeSans" font-size="10.00">Category</text>
</a>
</g>
</g>
<!-- Node3&#45;&gt;Node5 -->
<g id="edge5_Node000005_Node000003" class="edge">
<title>Node3&#45;&gt;Node5</title>
<g id="a_edge5_Node000005_Node000003"><a xlink:title=" ">
<path fill="none" stroke="#63b8ff" d="M326.47,-73.25C335.87,-73.25 345.35,-73.25 354.48,-73.25"/>
<polygon fill="#63b8ff" stroke="#63b8ff" points="326.58,-69.75 316.58,-73.25 326.58,-76.75 326.58,-69.75"/>
</a>
</g>
</g>
<!-- Node6 -->
<g id="Node000006" class="node">
<title>Node6</title>
<g id="a_Node000006"><a xlink:href="structDGtal_1_1MultipleAssociativeCategory.html" target="_top" xlink:title=" ">
<polygon fill="white" stroke="#666666" points="488.25,-36.5 351.5,-36.5 351.5,0 488.25,0 488.25,-36.5"/>
<text text-anchor="start" x="359.5" y="-23" font-family="FreeSans" font-size="10.00">DGtal::MultipleAssociative</text>
<text text-anchor="middle" x="419.88" y="-8.75" font-family="FreeSans" font-size="10.00">Category</text>
</a>
</g>
</g>
<!-- Node3&#45;&gt;Node6 -->
<g id="edge7_Node000006_Node000003" class="edge">
<title>Node3&#45;&gt;Node6</title>
<g id="a_edge7_Node000006_Node000003"><a xlink:title=" ">
<path fill="none" stroke="#63b8ff" d="M292.1,-58.3C312.98,-51.7 337.73,-43.88 359.81,-36.91"/>
<polygon fill="#63b8ff" stroke="#63b8ff" points="291.18,-54.91 282.7,-61.26 293.29,-61.59 291.18,-54.91"/>
</a>
</g>
</g>
<!-- Node4 -->
<g id="Node000004" class="node">
<title>Node4</title>
<g id="a_Node000004"><a xlink:href="structDGtal_1_1ContainerCategory.html" target="_top" xlink:title=" ">
<polygon fill="white" stroke="#666666" points="136.75,-84.38 0,-84.38 0,-62.12 136.75,-62.12 136.75,-84.38"/>
<text text-anchor="middle" x="68.38" y="-70.88" font-family="FreeSans" font-size="10.00">DGtal::ContainerCategory</text>
</a>
</g>
</g>
<!-- Node4&#45;&gt;Node3 -->
<g id="edge3_Node000003_Node000004" class="edge">
<title>Node4&#45;&gt;Node3</title>
<g id="a_edge3_Node000003_Node000004"><a xlink:title=" ">
<path fill="none" stroke="#63b8ff" d="M148.17,-73.25C156.2,-73.25 164.32,-73.25 172.26,-73.25"/>
<polygon fill="#63b8ff" stroke="#63b8ff" points="148.42,-69.75 138.42,-73.25 148.42,-76.75 148.42,-69.75"/>
</a>
</g>
</g>
<!-- Node5&#45;&gt;Node1 -->
<g id="edge4_Node000001_Node000005" class="edge">
<title>Node5&#45;&gt;Node1</title>
<g id="a_edge4_Node000001_Node000005"><a xlink:title=" ">
<path fill="none" stroke="#63b8ff" d="M496.49,-73.25C505.82,-73.25 515.31,-73.25 524.51,-73.25"/>
<polygon fill="#63b8ff" stroke="#63b8ff" points="496.74,-69.75 486.74,-73.25 496.74,-76.75 496.74,-69.75"/>
</a>
</g>
</g>
<!-- Node6&#45;&gt;Node1 -->
<g id="edge6_Node000001_Node000006" class="edge">
<title>Node6&#45;&gt;Node1</title>
<g id="a_edge6_Node000001_Node000006"><a xlink:title=" ">
<path fill="none" stroke="#63b8ff" d="M489.53,-40.27C504.29,-45 519.76,-49.96 534.08,-54.56"/>
<polygon fill="#63b8ff" stroke="#63b8ff" points="490.97,-37.05 480.38,-37.33 488.83,-43.72 490.97,-37.05"/>
</a>
</g>
</g>
</g>
</svg>
