<?xml version="1.0" encoding="UTF-8" standalone="no"?>
<!DOCTYPE svg PUBLIC "-//W3C//DTD SVG 1.1//EN"
 "http://www.w3.org/Graphics/SVG/1.1/DTD/svg11.dtd">
<!-- Generated by graphviz version 11.0.0 (0)
 -->
<!-- Title: LibBoard::Arrow Pages: 1 -->
<svg width="100pt" height="147pt"
 viewBox="0.00 0.00 99.75 146.75" xmlns="http://www.w3.org/2000/svg" xmlns:xlink="http://www.w3.org/1999/xlink">
<g id="graph0" class="graph" transform="scale(1 1) rotate(0) translate(4 142.75)">
<title>LibBoard::Arrow</title>
<!-- Node1 -->
<g id="Node000001" class="node">
<title>Node1</title>
<g id="a_Node000001"><a xlink:title="A line between two points with an arrow at one extremity.">
<polygon fill="#999999" stroke="#666666" points="91.75,-22.25 0,-22.25 0,0 91.75,0 91.75,-22.25"/>
<text text-anchor="middle" x="45.88" y="-8.75" font-family="FreeSans" font-size="10.00">LibBoard::Arrow</text>
</a>
</g>
</g>
<!-- Node2 -->
<g id="Node000002" class="node">
<title>Node2</title>
<g id="a_Node000002"><a xlink:href="structLibBoard_1_1Line.html" target="_top" xlink:title="A line between two points.">
<polygon fill="white" stroke="#666666" points="87.25,-80.5 4.5,-80.5 4.5,-58.25 87.25,-58.25 87.25,-80.5"/>
<text text-anchor="middle" x="45.88" y="-67" font-family="FreeSans" font-size="10.00">LibBoard::Line</text>
</a>
</g>
</g>
<!-- Node2&#45;&gt;Node1 -->
<g id="edge1_Node000001_Node000002" class="edge">
<title>Node2&#45;&gt;Node1</title>
<g id="a_edge1_Node000001_Node000002"><a xlink:title=" ">
<path fill="none" stroke="#63b8ff" d="M45.88,-46.35C45.88,-38.2 45.88,-29.33 45.88,-22.66"/>
<polygon fill="#63b8ff" stroke="#63b8ff" points="42.38,-46.28 45.88,-56.28 49.38,-46.28 42.38,-46.28"/>
</a>
</g>
</g>
<!-- Node3 -->
<g id="Node000003" class="node">
<title>Node3</title>
<g id="a_Node000003"><a xlink:href="structLibBoard_1_1Shape.html" target="_top" xlink:title="Abstract structure for a 2D shape.">
<polygon fill="white" stroke="#666666" points="91.75,-138.75 0,-138.75 0,-116.5 91.75,-116.5 91.75,-138.75"/>
<text text-anchor="middle" x="45.88" y="-125.25" font-family="FreeSans" font-size="10.00">LibBoard::Shape</text>
</a>
</g>
</g>
<!-- Node3&#45;&gt;Node2 -->
<g id="edge2_Node000002_Node000003" class="edge">
<title>Node3&#45;&gt;Node2</title>
<g id="a_edge2_Node000002_Node000003"><a xlink:title=" ">
<path fill="none" stroke="#63b8ff" d="M45.88,-104.6C45.88,-96.45 45.88,-87.58 45.88,-80.91"/>
<polygon fill="#63b8ff" stroke="#63b8ff" points="42.38,-104.53 45.88,-114.53 49.38,-104.53 42.38,-104.53"/>
</a>
</g>
</g>
</g>
</svg>
