<?xml version="1.0" encoding="UTF-8" standalone="no"?>
<!DOCTYPE svg PUBLIC "-//W3C//DTD SVG 1.1//EN"
 "http://www.w3.org/Graphics/SVG/1.1/DTD/svg11.dtd">
<!-- Generated by graphviz version 11.0.0 (0)
 -->
<!-- Title: DGtal::UniqueAssociativeCategory Pages: 1 -->
<svg width="698pt" height="179pt"
 viewBox="0.00 0.00 698.25 179.38" xmlns="http://www.w3.org/2000/svg" xmlns:xlink="http://www.w3.org/1999/xlink">
<g id="graph0" class="graph" transform="scale(1 1) rotate(0) translate(4 175.38)">
<title>DGtal::UniqueAssociativeCategory</title>
<!-- Node1 -->
<g id="Node000001" class="node">
<title>Node1</title>
<g id="a_Node000001"><a xlink:title=" ">
<polygon fill="#999999" stroke="#666666" points="483.75,-114.5 350.75,-114.5 350.75,-78 483.75,-78 483.75,-114.5"/>
<text text-anchor="start" x="358.75" y="-101" font-family="FreeSans" font-size="10.00">DGtal::UniqueAssociative</text>
<text text-anchor="middle" x="417.25" y="-86.75" font-family="FreeSans" font-size="10.00">Category</text>
</a>
</g>
</g>
<!-- Node4 -->
<g id="Node000004" class="node">
<title>Node4</title>
<g id="a_Node000004"><a xlink:href="structDGtal_1_1MapAssociativeCategory.html" target="_top" xlink:title=" ">
<polygon fill="white" stroke="#666666" points="686.12,-171.38 523.88,-171.38 523.88,-149.12 686.12,-149.12 686.12,-171.38"/>
<text text-anchor="middle" x="605" y="-157.88" font-family="FreeSans" font-size="10.00">DGtal::MapAssociativeCategory</text>
</a>
</g>
</g>
<!-- Node1&#45;&gt;Node4 -->
<g id="edge3_Node000001_Node000004" class="edge">
<title>Node1&#45;&gt;Node4</title>
<g id="a_edge3_Node000001_Node000004"><a xlink:title=" ">
<path fill="none" stroke="#63b8ff" d="M467.14,-119.51C483.62,-126.79 502.26,-134.43 519.75,-140.25 529.16,-143.38 539.33,-146.23 549.22,-148.73"/>
<polygon fill="#63b8ff" stroke="#63b8ff" points="468.6,-116.33 458.05,-115.43 465.73,-122.72 468.6,-116.33"/>
</a>
</g>
</g>
<!-- Node5 -->
<g id="Node000005" class="node">
<title>Node5</title>
<g id="a_Node000005"><a xlink:href="structDGtal_1_1SetAssociativeCategory.html" target="_top" xlink:title=" ">
<polygon fill="white" stroke="#666666" points="683.5,-131.38 526.5,-131.38 526.5,-109.12 683.5,-109.12 683.5,-131.38"/>
<text text-anchor="middle" x="605" y="-117.88" font-family="FreeSans" font-size="10.00">DGtal::SetAssociativeCategory</text>
</a>
</g>
</g>
<!-- Node1&#45;&gt;Node5 -->
<g id="edge4_Node000001_Node000005" class="edge">
<title>Node1&#45;&gt;Node5</title>
<g id="a_edge4_Node000001_Node000005"><a xlink:title=" ">
<path fill="none" stroke="#63b8ff" d="M495.38,-106.22C505.58,-107.53 516.05,-108.89 526.26,-110.21"/>
<polygon fill="#63b8ff" stroke="#63b8ff" points="495.87,-102.75 485.5,-104.94 494.97,-109.69 495.87,-102.75"/>
</a>
</g>
</g>
<!-- Node6 -->
<g id="Node000006" class="node">
<title>Node6</title>
<g id="a_Node000006"><a xlink:href="structDGtal_1_1UnorderedMapAssociativeCategory.html" target="_top" xlink:title=" ">
<polygon fill="white" stroke="#666666" points="690.25,-91.5 519.75,-91.5 519.75,-55 690.25,-55 690.25,-91.5"/>
<text text-anchor="start" x="527.75" y="-78" font-family="FreeSans" font-size="10.00">DGtal::UnorderedMapAssociative</text>
<text text-anchor="middle" x="605" y="-63.75" font-family="FreeSans" font-size="10.00">Category</text>
</a>
</g>
</g>
<!-- Node1&#45;&gt;Node6 -->
<g id="edge5_Node000001_Node000006" class="edge">
<title>Node1&#45;&gt;Node6</title>
<g id="a_edge5_Node000001_Node000006"><a xlink:title=" ">
<path fill="none" stroke="#63b8ff" d="M495.19,-86.72C503.2,-85.73 511.38,-84.72 519.47,-83.72"/>
<polygon fill="#63b8ff" stroke="#63b8ff" points="495,-83.22 485.5,-87.92 495.86,-90.17 495,-83.22"/>
</a>
</g>
</g>
<!-- Node7 -->
<g id="Node000007" class="node">
<title>Node7</title>
<g id="a_Node000007"><a xlink:href="structDGtal_1_1UnorderedSetAssociativeCategory.html" target="_top" xlink:title=" ">
<polygon fill="white" stroke="#666666" points="687.62,-36.5 522.38,-36.5 522.38,0 687.62,0 687.62,-36.5"/>
<text text-anchor="start" x="530.38" y="-23" font-family="FreeSans" font-size="10.00">DGtal::UnorderedSetAssociative</text>
<text text-anchor="middle" x="605" y="-8.75" font-family="FreeSans" font-size="10.00">Category</text>
</a>
</g>
</g>
<!-- Node1&#45;&gt;Node7 -->
<g id="edge6_Node000001_Node000007" class="edge">
<title>Node1&#45;&gt;Node7</title>
<g id="a_edge6_Node000001_Node000007"><a xlink:title=" ">
<path fill="none" stroke="#63b8ff" d="M462.87,-72.63C480.36,-63.8 500.76,-54.04 519.75,-46.25 527.59,-43.03 535.95,-39.91 544.25,-36.98"/>
<polygon fill="#63b8ff" stroke="#63b8ff" points="461.6,-69.34 454.29,-77 464.78,-75.58 461.6,-69.34"/>
</a>
</g>
</g>
<!-- Node2 -->
<g id="Node000002" class="node">
<title>Node2</title>
<g id="a_Node000002"><a xlink:href="structDGtal_1_1AssociativeCategory.html" target="_top" xlink:title=" ">
<polygon fill="white" stroke="#666666" points="314.75,-107.38 172.75,-107.38 172.75,-85.12 314.75,-85.12 314.75,-107.38"/>
<text text-anchor="middle" x="243.75" y="-93.88" font-family="FreeSans" font-size="10.00">DGtal::AssociativeCategory</text>
</a>
</g>
</g>
<!-- Node2&#45;&gt;Node1 -->
<g id="edge1_Node000001_Node000002" class="edge">
<title>Node2&#45;&gt;Node1</title>
<g id="a_edge1_Node000001_Node000002"><a xlink:title=" ">
<path fill="none" stroke="#63b8ff" d="M326.29,-96.25C334.32,-96.25 342.4,-96.25 350.25,-96.25"/>
<polygon fill="#63b8ff" stroke="#63b8ff" points="326.51,-92.75 316.51,-96.25 326.51,-99.75 326.51,-92.75"/>
</a>
</g>
</g>
<!-- Node3 -->
<g id="Node000003" class="node">
<title>Node3</title>
<g id="a_Node000003"><a xlink:href="structDGtal_1_1ContainerCategory.html" target="_top" xlink:title=" ">
<polygon fill="white" stroke="#666666" points="136.75,-107.38 0,-107.38 0,-85.12 136.75,-85.12 136.75,-107.38"/>
<text text-anchor="middle" x="68.38" y="-93.88" font-family="FreeSans" font-size="10.00">DGtal::ContainerCategory</text>
</a>
</g>
</g>
<!-- Node3&#45;&gt;Node2 -->
<g id="edge2_Node000002_Node000003" class="edge">
<title>Node3&#45;&gt;Node2</title>
<g id="a_edge2_Node000002_Node000003"><a xlink:title=" ">
<path fill="none" stroke="#63b8ff" d="M148.17,-96.25C156.2,-96.25 164.32,-96.25 172.26,-96.25"/>
<polygon fill="#63b8ff" stroke="#63b8ff" points="148.42,-92.75 138.42,-96.25 148.42,-99.75 148.42,-92.75"/>
</a>
</g>
</g>
</g>
</svg>
