<?xml version="1.0" encoding="UTF-8" standalone="no"?>
<!DOCTYPE svg PUBLIC "-//W3C//DTD SVG 1.1//EN"
 "http://www.w3.org/Graphics/SVG/1.1/DTD/svg11.dtd">
<!-- Generated by graphviz version 11.0.0 (0)
 -->
<!-- Title: DGtal::C2x2DetComputer&lt; T &gt; Pages: 1 -->
<svg width="368pt" height="110pt"
 viewBox="0.00 0.00 367.75 110.25" xmlns="http://www.w3.org/2000/svg" xmlns:xlink="http://www.w3.org/1999/xlink">
<g id="graph0" class="graph" transform="scale(1 1) rotate(0) translate(4 106.25)">
<title>DGtal::C2x2DetComputer&lt; T &gt;</title>
<!-- Node1 -->
<g id="Node000001" class="node">
<title>Node1</title>
<g id="a_Node000001"><a xlink:title="Aim: This concept gathers all models that are able to compute the (sign of the) determinant of a 2x2 ...">
<polygon fill="#999999" stroke="#666666" points="359.75,-62.25 202,-62.25 202,-40 359.75,-40 359.75,-62.25"/>
<text text-anchor="middle" x="280.88" y="-48.75" font-family="FreeSans" font-size="10.00">DGtal::C2x2DetComputer&lt; T &gt;</text>
</a>
</g>
</g>
<!-- Node2 -->
<g id="Node000002" class="node">
<title>Node2</title>
<g id="a_Node000002"><a xlink:href="structboost_1_1DefaultConstructible.html" target="_top" xlink:title="Go to http://www.sgi.com/tech/stl/DefaultConstructible.html.">
<polygon fill="white" stroke="#666666" points="166,-102.25 0,-102.25 0,-80 166,-80 166,-102.25"/>
<text text-anchor="middle" x="83" y="-88.75" font-family="FreeSans" font-size="10.00">boost::DefaultConstructible&lt; T &gt;</text>
</a>
</g>
</g>
<!-- Node2&#45;&gt;Node1 -->
<g id="edge1_Node000001_Node000002" class="edge">
<title>Node2&#45;&gt;Node1</title>
<g id="a_edge1_Node000001_Node000002"><a xlink:title=" ">
<path fill="none" stroke="#63b8ff" d="M152.08,-77.22C175.28,-72.49 200.94,-67.24 223.15,-62.71"/>
<polygon fill="#63b8ff" stroke="#63b8ff" points="151.5,-73.77 142.4,-79.2 152.9,-80.63 151.5,-73.77"/>
</a>
</g>
</g>
<!-- Node3 -->
<g id="Node000003" class="node">
<title>Node3</title>
<g id="a_Node000003"><a xlink:href="structboost_1_1CopyConstructible.html" target="_top" xlink:title="Go to http://www.sgi.com/tech/stl/CopyConstructible.html.">
<polygon fill="white" stroke="#666666" points="160.38,-62.25 5.62,-62.25 5.62,-40 160.38,-40 160.38,-62.25"/>
<text text-anchor="middle" x="83" y="-48.75" font-family="FreeSans" font-size="10.00">boost::CopyConstructible&lt; T &gt;</text>
</a>
</g>
</g>
<!-- Node3&#45;&gt;Node1 -->
<g id="edge2_Node000001_Node000003" class="edge">
<title>Node3&#45;&gt;Node1</title>
<g id="a_edge2_Node000001_Node000003"><a xlink:title=" ">
<path fill="none" stroke="#63b8ff" d="M172.26,-51.12C182.06,-51.12 191.98,-51.12 201.63,-51.12"/>
<polygon fill="#63b8ff" stroke="#63b8ff" points="172.37,-47.63 162.37,-51.13 172.37,-54.63 172.37,-47.63"/>
</a>
</g>
</g>
<!-- Node4 -->
<g id="Node000004" class="node">
<title>Node4</title>
<g id="a_Node000004"><a xlink:href="structboost_1_1Assignable.html" target="_top" xlink:title="Go to http://www.sgi.com/tech/stl/Assignable.html.">
<polygon fill="white" stroke="#666666" points="142.75,-22.25 23.25,-22.25 23.25,0 142.75,0 142.75,-22.25"/>
<text text-anchor="middle" x="83" y="-8.75" font-family="FreeSans" font-size="10.00">boost::Assignable&lt; T &gt;</text>
</a>
</g>
</g>
<!-- Node4&#45;&gt;Node1 -->
<g id="edge3_Node000001_Node000004" class="edge">
<title>Node4&#45;&gt;Node1</title>
<g id="a_edge3_Node000001_Node000004"><a xlink:title=" ">
<path fill="none" stroke="#63b8ff" d="M152.08,-25.03C175.28,-29.76 200.94,-35.01 223.15,-39.54"/>
<polygon fill="#63b8ff" stroke="#63b8ff" points="152.9,-21.62 142.4,-23.05 151.5,-28.48 152.9,-21.62"/>
</a>
</g>
</g>
</g>
</svg>
