<?xml version="1.0" encoding="UTF-8" standalone="no"?>
<!DOCTYPE svg PUBLIC "-//W3C//DTD SVG 1.1//EN"
 "http://www.w3.org/Graphics/SVG/1.1/DTD/svg11.dtd">
<!-- Generated by graphviz version 11.0.0 (0)
 -->
<!-- Title: testBasicBoolFunctors.cpp Pages: 1 -->
<svg width="2729pt" height="336pt"
 viewBox="0.00 0.00 2729.12 335.75" xmlns="http://www.w3.org/2000/svg" xmlns:xlink="http://www.w3.org/1999/xlink">
<g id="graph0" class="graph" transform="scale(1 1) rotate(0) translate(4 331.75)">
<title>testBasicBoolFunctors.cpp</title>
<!-- Node1 -->
<g id="Node000001" class="node">
<title>Node1</title>
<g id="a_Node000001"><a xlink:title=" ">
<polygon fill="#999999" stroke="#666666" points="320.12,-327.75 181.88,-327.75 181.88,-305.5 320.12,-305.5 320.12,-327.75"/>
<text text-anchor="middle" x="251" y="-314.25" font-family="FreeSans" font-size="10.00">testBasicBoolFunctors.cpp</text>
</a>
</g>
</g>
<!-- Node2 -->
<g id="Node000002" class="node">
<title>Node2</title>
<g id="a_Node000002"><a xlink:title=" ">
<polygon fill="#e0e0e0" stroke="#999999" points="1544.25,-22.25 1487.75,-22.25 1487.75,0 1544.25,0 1544.25,-22.25"/>
<text text-anchor="middle" x="1516" y="-8.75" font-family="FreeSans" font-size="10.00">iostream</text>
</a>
</g>
</g>
<!-- Node1&#45;&gt;Node2 -->
<g id="edge1_Node000001_Node000002" class="edge">
<title>Node1&#45;&gt;Node2</title>
<g id="a_edge1_Node000001_Node000002"><a xlink:title=" ">
<path fill="none" stroke="#63b8ff" d="M181.42,-311.11C107.13,-302.07 0,-274.99 0,-194 0,-194 0,-194 0,-126.62 0,-90.96 11.15,-76.14 42,-58.25 105.71,-21.3 1246.04,-13.51 1475.84,-12.31"/>
<polygon fill="#63b8ff" stroke="#63b8ff" points="1475.8,-15.81 1485.78,-12.26 1475.76,-8.81 1475.8,-15.81"/>
</a>
</g>
</g>
<!-- Node3 -->
<g id="Node000003" class="node">
<title>Node3</title>
<g id="a_Node000003"><a xlink:href="Common_8h_source.html" target="_top" xlink:title=" ">
<polygon fill="white" stroke="#666666" points="1256.25,-269.5 1133.75,-269.5 1133.75,-247.25 1256.25,-247.25 1256.25,-269.5"/>
<text text-anchor="middle" x="1195" y="-256" font-family="FreeSans" font-size="10.00">DGtal/base/Common.h</text>
</a>
</g>
</g>
<!-- Node1&#45;&gt;Node3 -->
<g id="edge2_Node000001_Node000003" class="edge">
<title>Node1&#45;&gt;Node3</title>
<g id="a_edge2_Node000001_Node000003"><a xlink:title=" ">
<path fill="none" stroke="#63b8ff" d="M320.41,-311.49C493.84,-301.15 944.82,-274.28 1122.01,-263.72"/>
<polygon fill="#63b8ff" stroke="#63b8ff" points="1121.99,-267.23 1131.76,-263.14 1121.57,-260.24 1121.99,-267.23"/>
</a>
</g>
</g>
<!-- Node39 -->
<g id="Node000039" class="node">
<title>Node39</title>
<g id="a_Node000039"><a xlink:href="BasicBoolFunctors_8h_source.html" target="_top" xlink:title=" ">
<polygon fill="white" stroke="#666666" points="355.62,-138.75 190.38,-138.75 190.38,-116.5 355.62,-116.5 355.62,-138.75"/>
<text text-anchor="middle" x="273" y="-125.25" font-family="FreeSans" font-size="10.00">DGtal/base/BasicBoolFunctors.h</text>
</a>
</g>
</g>
<!-- Node1&#45;&gt;Node39 -->
<g id="edge73_Node000001_Node000039" class="edge">
<title>Node1&#45;&gt;Node39</title>
<g id="a_edge73_Node000001_Node000039"><a xlink:title=" ">
<path fill="none" stroke="#63b8ff" d="M252.25,-305.04C255.74,-275.34 265.69,-190.79 270.43,-150.5"/>
<polygon fill="#63b8ff" stroke="#63b8ff" points="273.9,-150.94 271.59,-140.6 266.95,-150.12 273.9,-150.94"/>
</a>
</g>
</g>
<!-- Node3&#45;&gt;Node2 -->
<g id="edge3_Node000003_Node000002" class="edge">
<title>Node3&#45;&gt;Node2</title>
<g id="a_edge3_Node000003_Node000002"><a xlink:title=" ">
<path fill="none" stroke="#63b8ff" d="M1256.59,-257.06C1398.23,-255.7 1737.57,-248.54 1772,-211.25 1783,-199.33 1782.65,-186.99 1772,-174.75 1696,-87.41 1590,-226.09 1514,-138.75 1488.73,-109.71 1498.96,-61.16 1507.95,-33.37"/>
<polygon fill="#63b8ff" stroke="#63b8ff" points="1511.25,-34.55 1511.25,-23.96 1504.64,-32.24 1511.25,-34.55"/>
</a>
</g>
</g>
<!-- Node4 -->
<g id="Node000004" class="node">
<title>Node4</title>
<g id="a_Node000004"><a xlink:title=" ">
<polygon fill="#e0e0e0" stroke="#999999" points="616.5,-204.12 555.5,-204.12 555.5,-181.88 616.5,-181.88 616.5,-204.12"/>
<text text-anchor="middle" x="586" y="-190.62" font-family="FreeSans" font-size="10.00">exception</text>
</a>
</g>
</g>
<!-- Node3&#45;&gt;Node4 -->
<g id="edge4_Node000003_Node000004" class="edge">
<title>Node3&#45;&gt;Node4</title>
<g id="a_edge4_Node000003_Node000004"><a xlink:title=" ">
<path fill="none" stroke="#63b8ff" d="M1133.71,-255.01C1006.96,-249.69 719.91,-235.34 625,-211.25 622.24,-210.55 619.42,-209.67 616.64,-208.68"/>
<polygon fill="#63b8ff" stroke="#63b8ff" points="618.17,-205.52 607.59,-205.03 615.55,-212.02 618.17,-205.52"/>
</a>
</g>
</g>
<!-- Node5 -->
<g id="Node000005" class="node">
<title>Node5</title>
<g id="a_Node000005"><a xlink:title=" ">
<polygon fill="#e0e0e0" stroke="#999999" points="735.75,-204.12 634.25,-204.12 634.25,-181.88 735.75,-181.88 735.75,-204.12"/>
<text text-anchor="middle" x="685" y="-190.62" font-family="FreeSans" font-size="10.00">boost/version.hpp</text>
</a>
</g>
</g>
<!-- Node3&#45;&gt;Node5 -->
<g id="edge5_Node000003_Node000005" class="edge">
<title>Node3&#45;&gt;Node5</title>
<g id="a_edge5_Node000003_Node000005"><a xlink:title=" ">
<path fill="none" stroke="#63b8ff" d="M1133.35,-254.53C1046.19,-249.73 882.25,-237.79 745,-211.25 739.69,-210.22 734.18,-208.94 728.73,-207.54"/>
<polygon fill="#63b8ff" stroke="#63b8ff" points="729.78,-204.2 719.21,-204.95 727.94,-210.96 729.78,-204.2"/>
</a>
</g>
</g>
<!-- Node6 -->
<g id="Node000006" class="node">
<title>Node6</title>
<g id="a_Node000006"><a xlink:title=" ">
<polygon fill="#e0e0e0" stroke="#999999" points="888.25,-204.12 753.75,-204.12 753.75,-181.88 888.25,-181.88 888.25,-204.12"/>
<text text-anchor="middle" x="821" y="-190.62" font-family="FreeSans" font-size="10.00">boost/concept_check.hpp</text>
</a>
</g>
</g>
<!-- Node3&#45;&gt;Node6 -->
<g id="edge6_Node000003_Node000006" class="edge">
<title>Node3&#45;&gt;Node6</title>
<g id="a_edge6_Node000003_Node000006"><a xlink:title=" ">
<path fill="none" stroke="#63b8ff" d="M1133.43,-249.12C1073.02,-240.72 978.38,-226.76 897,-211.25 890.28,-209.97 883.25,-208.52 876.29,-207.02"/>
<polygon fill="#63b8ff" stroke="#63b8ff" points="877.09,-203.61 866.58,-204.88 875.59,-210.45 877.09,-203.61"/>
</a>
</g>
</g>
<!-- Node7 -->
<g id="Node000007" class="node">
<title>Node7</title>
<g id="a_Node000007"><a xlink:title=" ">
<polygon fill="#e0e0e0" stroke="#999999" points="1030,-204.12 906,-204.12 906,-181.88 1030,-181.88 1030,-204.12"/>
<text text-anchor="middle" x="968" y="-190.62" font-family="FreeSans" font-size="10.00">boost/static_assert.hpp</text>
</a>
</g>
</g>
<!-- Node3&#45;&gt;Node7 -->
<g id="edge7_Node000003_Node000007" class="edge">
<title>Node3&#45;&gt;Node7</title>
<g id="a_edge7_Node000003_Node000007"><a xlink:title=" ">
<path fill="none" stroke="#63b8ff" d="M1157.01,-246.77C1118.51,-236.02 1058.79,-219.35 1016.81,-207.63"/>
<polygon fill="#63b8ff" stroke="#63b8ff" points="1017.77,-204.26 1007.2,-204.94 1015.89,-211 1017.77,-204.26"/>
</a>
</g>
</g>
<!-- Node8 -->
<g id="Node000008" class="node">
<title>Node8</title>
<g id="a_Node000008"><a xlink:title=" ">
<polygon fill="#e0e0e0" stroke="#999999" points="1184,-204.12 1048,-204.12 1048,-181.88 1184,-181.88 1184,-204.12"/>
<text text-anchor="middle" x="1116" y="-190.62" font-family="FreeSans" font-size="10.00">boost/concept/assert.hpp</text>
</a>
</g>
</g>
<!-- Node3&#45;&gt;Node8 -->
<g id="edge8_Node000003_Node000008" class="edge">
<title>Node3&#45;&gt;Node8</title>
<g id="a_edge8_Node000003_Node000008"><a xlink:title=" ">
<path fill="none" stroke="#63b8ff" d="M1181.95,-246.91C1169.95,-237.28 1151.9,-222.8 1137.72,-211.43"/>
<polygon fill="#63b8ff" stroke="#63b8ff" points="1140.24,-208.96 1130.25,-205.43 1135.86,-214.42 1140.24,-208.96"/>
</a>
</g>
</g>
<!-- Node9 -->
<g id="Node000009" class="node">
<title>Node9</title>
<g id="a_Node000009"><a xlink:title=" ">
<polygon fill="#e0e0e0" stroke="#999999" points="1347.88,-204.12 1202.12,-204.12 1202.12,-181.88 1347.88,-181.88 1347.88,-204.12"/>
<text text-anchor="middle" x="1275" y="-190.62" font-family="FreeSans" font-size="10.00">boost/concept/requires.hpp</text>
</a>
</g>
</g>
<!-- Node3&#45;&gt;Node9 -->
<g id="edge9_Node000003_Node000009" class="edge">
<title>Node3&#45;&gt;Node9</title>
<g id="a_edge9_Node000003_Node000009"><a xlink:title=" ">
<path fill="none" stroke="#63b8ff" d="M1208.21,-246.91C1220.37,-237.28 1238.64,-222.8 1253,-211.43"/>
<polygon fill="#63b8ff" stroke="#63b8ff" points="1254.92,-214.37 1260.58,-205.42 1250.57,-208.89 1254.92,-214.37"/>
</a>
</g>
</g>
<!-- Node10 -->
<g id="Node000010" class="node">
<title>Node10</title>
<g id="a_Node000010"><a xlink:title=" ">
<polygon fill="#e0e0e0" stroke="#999999" points="1486.12,-211.25 1365.88,-211.25 1365.88,-174.75 1486.12,-174.75 1486.12,-211.25"/>
<text text-anchor="start" x="1373.88" y="-197.75" font-family="FreeSans" font-size="10.00">boost/iterator/iterator</text>
<text text-anchor="middle" x="1426" y="-183.5" font-family="FreeSans" font-size="10.00">_concepts.hpp</text>
</a>
</g>
</g>
<!-- Node3&#45;&gt;Node10 -->
<g id="edge10_Node000003_Node000010" class="edge">
<title>Node3&#45;&gt;Node10</title>
<g id="a_edge10_Node000003_Node000010"><a xlink:title=" ">
<path fill="none" stroke="#63b8ff" d="M1233.66,-246.77C1266.54,-237.75 1314.6,-224.56 1354.46,-213.63"/>
<polygon fill="#63b8ff" stroke="#63b8ff" points="1355.29,-217.03 1364.01,-211.01 1353.44,-210.28 1355.29,-217.03"/>
</a>
</g>
</g>
<!-- Node11 -->
<g id="Node000011" class="node">
<title>Node11</title>
<g id="a_Node000011"><a xlink:title=" ">
<polygon fill="#e0e0e0" stroke="#999999" points="1659.38,-204.12 1504.62,-204.12 1504.62,-181.88 1659.38,-181.88 1659.38,-204.12"/>
<text text-anchor="middle" x="1582" y="-190.62" font-family="FreeSans" font-size="10.00">boost/concept_archetype.hpp</text>
</a>
</g>
</g>
<!-- Node3&#45;&gt;Node11 -->
<g id="edge11_Node000003_Node000011" class="edge">
<title>Node3&#45;&gt;Node11</title>
<g id="a_edge11_Node000003_Node000011"><a xlink:title=" ">
<path fill="none" stroke="#63b8ff" d="M1256.61,-248.7C1317.34,-239.95 1412.74,-225.72 1495,-211.25 1502.92,-209.86 1511.24,-208.31 1519.45,-206.74"/>
<polygon fill="#63b8ff" stroke="#63b8ff" points="1519.91,-210.21 1529.06,-204.87 1518.58,-203.34 1519.91,-210.21"/>
</a>
</g>
</g>
<!-- Node12 -->
<g id="Node000012" class="node">
<title>Node12</title>
<g id="a_Node000012"><a xlink:title=" ">
<polygon fill="#e0e0e0" stroke="#999999" points="651.25,-138.75 606.75,-138.75 606.75,-116.5 651.25,-116.5 651.25,-138.75"/>
<text text-anchor="middle" x="629" y="-125.25" font-family="FreeSans" font-size="10.00">cmath</text>
</a>
</g>
</g>
<!-- Node3&#45;&gt;Node12 -->
<g id="edge12_Node000003_Node000012" class="edge">
<title>Node3&#45;&gt;Node12</title>
<g id="a_edge12_Node000003_Node000012"><a xlink:title=" ">
<path fill="none" stroke="#63b8ff" d="M1133.26,-257.74C976.82,-258.03 574.36,-254.52 534,-211.25 522.94,-199.39 525.39,-188.5 534,-174.75 541.13,-163.36 571.23,-149.9 595.67,-140.46"/>
<polygon fill="#63b8ff" stroke="#63b8ff" points="596.84,-143.76 604.97,-136.97 594.38,-137.21 596.84,-143.76"/>
</a>
</g>
</g>
<!-- Node13 -->
<g id="Node000013" class="node">
<title>Node13</title>
<g id="a_Node000013"><a xlink:title=" ">
<polygon fill="#e0e0e0" stroke="#999999" points="1762.75,-204.12 1715.25,-204.12 1715.25,-181.88 1762.75,-181.88 1762.75,-204.12"/>
<text text-anchor="middle" x="1739" y="-190.62" font-family="FreeSans" font-size="10.00">stdio.h</text>
</a>
</g>
</g>
<!-- Node3&#45;&gt;Node13 -->
<g id="edge13_Node000003_Node000013" class="edge">
<title>Node3&#45;&gt;Node13</title>
<g id="a_edge13_Node000003_Node000013"><a xlink:title=" ">
<path fill="none" stroke="#63b8ff" d="M1256.5,-258.33C1352.91,-258.37 1544.72,-252.57 1701,-211.25 1703.45,-210.6 1705.93,-209.81 1708.4,-208.93"/>
<polygon fill="#63b8ff" stroke="#63b8ff" points="1709.62,-212.21 1717.55,-205.18 1706.97,-205.73 1709.62,-212.21"/>
</a>
</g>
</g>
<!-- Node14 -->
<g id="Node000014" class="node">
<title>Node14</title>
<g id="a_Node000014"><a xlink:href="Config_8h_source.html" target="_top" xlink:title=" ">
<polygon fill="white" stroke="#666666" points="1967.25,-80.5 1856.75,-80.5 1856.75,-58.25 1967.25,-58.25 1967.25,-80.5"/>
<text text-anchor="middle" x="1912" y="-67" font-family="FreeSans" font-size="10.00">DGtal/base/Config.h</text>
</a>
</g>
</g>
<!-- Node3&#45;&gt;Node14 -->
<g id="edge14_Node000003_Node000014" class="edge">
<title>Node3&#45;&gt;Node14</title>
<g id="a_edge14_Node000003_Node000014"><a xlink:title=" ">
<path fill="none" stroke="#63b8ff" d="M1256.73,-255.95C1405.33,-252.09 1774.25,-239.73 1822,-211.25 1867.53,-184.09 1893.91,-123.97 1905.28,-91.75"/>
<polygon fill="#63b8ff" stroke="#63b8ff" points="1908.58,-92.92 1908.44,-82.33 1901.94,-90.7 1908.58,-92.92"/>
</a>
</g>
</g>
<!-- Node16 -->
<g id="Node000016" class="node">
<title>Node16</title>
<g id="a_Node000016"><a xlink:href="Trace_8h_source.html" target="_top" xlink:title=" ">
<polygon fill="white" stroke="#666666" points="2366.62,-204.12 2261.38,-204.12 2261.38,-181.88 2366.62,-181.88 2366.62,-204.12"/>
<text text-anchor="middle" x="2314" y="-190.62" font-family="FreeSans" font-size="10.00">DGtal/base/Trace.h</text>
</a>
</g>
</g>
<!-- Node3&#45;&gt;Node16 -->
<g id="edge17_Node000003_Node000016" class="edge">
<title>Node3&#45;&gt;Node16</title>
<g id="a_edge17_Node000003_Node000016"><a xlink:title=" ">
<path fill="none" stroke="#63b8ff" d="M1256.62,-254.94C1403.67,-248.98 1786.62,-232.57 2106,-211.25 2154.25,-208.03 2208.72,-203.48 2249.81,-199.86"/>
<polygon fill="#63b8ff" stroke="#63b8ff" points="2249.87,-203.37 2259.52,-199 2249.25,-196.4 2249.87,-203.37"/>
</a>
</g>
</g>
<!-- Node23 -->
<g id="Node000023" class="node">
<title>Node23</title>
<g id="a_Node000023"><a xlink:href="TraceWriterTerm_8h_source.html" target="_top" xlink:title=" ">
<polygon fill="white" stroke="#666666" points="2092.62,-138.75 1933.38,-138.75 1933.38,-116.5 2092.62,-116.5 2092.62,-138.75"/>
<text text-anchor="middle" x="2013" y="-125.25" font-family="FreeSans" font-size="10.00">DGtal/base/TraceWriterTerm.h</text>
</a>
</g>
</g>
<!-- Node3&#45;&gt;Node23 -->
<g id="edge40_Node000003_Node000023" class="edge">
<title>Node3&#45;&gt;Node23</title>
<g id="a_edge40_Node000003_Node000023"><a xlink:title=" ">
<path fill="none" stroke="#63b8ff" d="M1256.48,-257.06C1402.37,-255.7 1765.81,-248.56 1881,-211.25 1924.14,-197.28 1967.42,-166.14 1992.13,-146.34"/>
<polygon fill="#63b8ff" stroke="#63b8ff" points="1994.26,-149.12 1999.78,-140.07 1989.82,-143.7 1994.26,-149.12"/>
</a>
</g>
</g>
<!-- Node24 -->
<g id="Node000024" class="node">
<title>Node24</title>
<g id="a_Node000024"><a xlink:href="Assert_8h_source.html" target="_top" xlink:title=" ">
<polygon fill="white" stroke="#666666" points="2687.25,-138.75 2576.75,-138.75 2576.75,-116.5 2687.25,-116.5 2687.25,-138.75"/>
<text text-anchor="middle" x="2632" y="-125.25" font-family="FreeSans" font-size="10.00">DGtal/base/Assert.h</text>
</a>
</g>
</g>
<!-- Node3&#45;&gt;Node24 -->
<g id="edge45_Node000003_Node000024" class="edge">
<title>Node3&#45;&gt;Node24</title>
<g id="a_edge45_Node000003_Node000024"><a xlink:title=" ">
<path fill="none" stroke="#63b8ff" d="M1256.51,-257.18C1467.04,-256.19 2157.8,-249.97 2376,-211.25 2457.06,-196.87 2547.86,-163.12 2596.56,-143.49"/>
<polygon fill="#63b8ff" stroke="#63b8ff" points="2597.81,-146.76 2605.75,-139.75 2595.17,-140.28 2597.81,-146.76"/>
</a>
</g>
</g>
<!-- Node27 -->
<g id="Node000027" class="node">
<title>Node27</title>
<g id="a_Node000027"><a xlink:href="TraceWriterFile_8h_source.html" target="_top" xlink:title=" ">
<polygon fill="white" stroke="#666666" points="2261.5,-138.75 2110.5,-138.75 2110.5,-116.5 2261.5,-116.5 2261.5,-138.75"/>
<text text-anchor="middle" x="2186" y="-125.25" font-family="FreeSans" font-size="10.00">DGtal/base/TraceWriterFile.h</text>
</a>
</g>
</g>
<!-- Node3&#45;&gt;Node27 -->
<g id="edge41_Node000003_Node000027" class="edge">
<title>Node3&#45;&gt;Node27</title>
<g id="a_edge41_Node000003_Node000027"><a xlink:title=" ">
<path fill="none" stroke="#63b8ff" d="M1256.67,-255.48C1409.3,-250.48 1801.56,-235.61 1930,-211.25 2010.67,-195.95 2101.27,-162.7 2150.12,-143.37"/>
<polygon fill="#63b8ff" stroke="#63b8ff" points="2151.36,-146.64 2159.35,-139.68 2148.76,-140.14 2151.36,-146.64"/>
</a>
</g>
</g>
<!-- Node28 -->
<g id="Node000028" class="node">
<title>Node28</title>
<g id="a_Node000028"><a xlink:href="ConceptUtils_8h_source.html" target="_top" xlink:title=" ">
<polygon fill="white" stroke="#666666" points="957.5,-138.75 818.5,-138.75 818.5,-116.5 957.5,-116.5 957.5,-138.75"/>
<text text-anchor="middle" x="888" y="-125.25" font-family="FreeSans" font-size="10.00">DGtal/base/ConceptUtils.h</text>
</a>
</g>
</g>
<!-- Node3&#45;&gt;Node28 -->
<g id="edge46_Node000003_Node000028" class="edge">
<title>Node3&#45;&gt;Node28</title>
<g id="a_edge46_Node000003_Node000028"><a xlink:title=" ">
<path fill="none" stroke="#63b8ff" d="M1133.35,-257.65C979.18,-257.69 586.44,-253.6 547,-211.25 535.94,-199.38 536.33,-186.97 547,-174.75 563.88,-155.43 711.63,-141.27 807.02,-134.05"/>
<polygon fill="#63b8ff" stroke="#63b8ff" points="807.16,-137.54 816.88,-133.31 806.64,-130.56 807.16,-137.54"/>
</a>
</g>
</g>
<!-- Node29 -->
<g id="Node000029" class="node">
<title>Node29</title>
<g id="a_Node000029"><a xlink:href="BasicTypes_8h_source.html" target="_top" xlink:title=" ">
<polygon fill="white" stroke="#666666" points="1467.38,-138.75 1336.62,-138.75 1336.62,-116.5 1467.38,-116.5 1467.38,-138.75"/>
<text text-anchor="middle" x="1402" y="-125.25" font-family="FreeSans" font-size="10.00">DGtal/base/BasicTypes.h</text>
</a>
</g>
</g>
<!-- Node3&#45;&gt;Node29 -->
<g id="edge48_Node000003_Node000029" class="edge">
<title>Node3&#45;&gt;Node29</title>
<g id="a_edge48_Node000003_Node000029"><a xlink:title=" ">
<path fill="none" stroke="#63b8ff" d="M1256.29,-255.9C1378,-252.32 1640.84,-241.19 1668,-211.25 1678.9,-199.24 1678.45,-187.16 1668,-174.75 1661.83,-167.42 1555.09,-150.65 1478.73,-139.48"/>
<polygon fill="#63b8ff" stroke="#63b8ff" points="1479.59,-136.07 1469.19,-138.09 1478.59,-142.99 1479.59,-136.07"/>
</a>
</g>
</g>
<!-- Node32 -->
<g id="Node000032" class="node">
<title>Node32</title>
<g id="a_Node000032"><a xlink:href="BasicFunctors_8h_source.html" target="_top" xlink:title=" ">
<polygon fill="white" stroke="#666666" points="461.12,-204.12 316.88,-204.12 316.88,-181.88 461.12,-181.88 461.12,-204.12"/>
<text text-anchor="middle" x="389" y="-190.62" font-family="FreeSans" font-size="10.00">DGtal/base/BasicFunctors.h</text>
</a>
</g>
</g>
<!-- Node3&#45;&gt;Node32 -->
<g id="edge53_Node000003_Node000032" class="edge">
<title>Node3&#45;&gt;Node32</title>
<g id="a_edge53_Node000003_Node000032"><a xlink:title=" ">
<path fill="none" stroke="#63b8ff" d="M1133.42,-256.32C1007.38,-253.49 711.57,-243.6 466,-211.25 456.88,-210.05 447.27,-208.45 438.03,-206.72"/>
<polygon fill="#63b8ff" stroke="#63b8ff" points="438.98,-203.34 428.49,-204.84 437.63,-210.2 438.98,-203.34"/>
</a>
</g>
</g>
<!-- Node42 -->
<g id="Node000042" class="node">
<title>Node42</title>
<g id="a_Node000042"><a xlink:href="BasicArchetypes_8h_source.html" target="_top" xlink:title=" ">
<polygon fill="white" stroke="#666666" points="1679.12,-138.75 1522.88,-138.75 1522.88,-116.5 1679.12,-116.5 1679.12,-138.75"/>
<text text-anchor="middle" x="1601" y="-125.25" font-family="FreeSans" font-size="10.00">DGtal/base/BasicArchetypes.h</text>
</a>
</g>
</g>
<!-- Node3&#45;&gt;Node42 -->
<g id="edge69_Node000003_Node000042" class="edge">
<title>Node3&#45;&gt;Node42</title>
<g id="a_edge69_Node000003_Node000042"><a xlink:title=" ">
<path fill="none" stroke="#63b8ff" d="M1256.53,-257.35C1404.03,-256.65 1768.24,-250.89 1805,-211.25 1816.03,-199.35 1815.13,-187.42 1805,-174.75 1796.74,-164.42 1731.79,-150.9 1677.37,-141.18"/>
<polygon fill="#63b8ff" stroke="#63b8ff" points="1678.24,-137.78 1667.78,-139.49 1677.02,-144.67 1678.24,-137.78"/>
</a>
</g>
</g>
<!-- Node43 -->
<g id="Node000043" class="node">
<title>Node43</title>
<g id="a_Node000043"><a xlink:href="Exceptions_8h_source.html" target="_top" xlink:title=" ">
<polygon fill="white" stroke="#666666" points="201,-204.12 71,-204.12 71,-181.88 201,-181.88 201,-204.12"/>
<text text-anchor="middle" x="136" y="-190.62" font-family="FreeSans" font-size="10.00">DGtal/base/Exceptions.h</text>
</a>
</g>
</g>
<!-- Node3&#45;&gt;Node43 -->
<g id="edge71_Node000003_Node000043" class="edge">
<title>Node3&#45;&gt;Node43</title>
<g id="a_edge71_Node000003_Node000043"><a xlink:title=" ">
<path fill="none" stroke="#63b8ff" d="M1133.52,-255.85C985.5,-251.84 597.63,-239.32 275,-211.25 254.76,-209.49 232.92,-207.04 212.68,-204.54"/>
<polygon fill="#63b8ff" stroke="#63b8ff" points="213.16,-201.07 202.8,-203.3 212.29,-208.02 213.16,-201.07"/>
</a>
</g>
</g>
<!-- Node14&#45;&gt;Node2 -->
<g id="edge15_Node000014_Node000002" class="edge">
<title>Node14&#45;&gt;Node2</title>
<g id="a_edge15_Node000014_Node000002"><a xlink:title=" ">
<path fill="none" stroke="#63b8ff" d="M1856.27,-60.17C1851.78,-59.52 1847.31,-58.87 1843,-58.25 1739.31,-43.33 1617.05,-26.21 1555.55,-17.63"/>
<polygon fill="#63b8ff" stroke="#63b8ff" points="1556.33,-14.21 1545.94,-16.29 1555.36,-21.14 1556.33,-14.21"/>
</a>
</g>
</g>
<!-- Node15 -->
<g id="Node000015" class="node">
<title>Node15</title>
<g id="a_Node000015"><a xlink:title=" ">
<polygon fill="#e0e0e0" stroke="#999999" points="2198.5,-22.25 2155.5,-22.25 2155.5,0 2198.5,0 2198.5,-22.25"/>
<text text-anchor="middle" x="2177" y="-8.75" font-family="FreeSans" font-size="10.00">string</text>
</a>
</g>
</g>
<!-- Node14&#45;&gt;Node15 -->
<g id="edge16_Node000014_Node000015" class="edge">
<title>Node14&#45;&gt;Node15</title>
<g id="a_edge16_Node000014_Node000015"><a xlink:title=" ">
<path fill="none" stroke="#63b8ff" d="M1961.84,-57.79C2015.22,-46.46 2098.39,-28.81 2144.12,-19.1"/>
<polygon fill="#63b8ff" stroke="#63b8ff" points="2144.63,-22.57 2153.68,-17.07 2143.17,-15.73 2144.63,-22.57"/>
</a>
</g>
</g>
<!-- Node16&#45;&gt;Node2 -->
<g id="edge18_Node000016_Node000002" class="edge">
<title>Node16&#45;&gt;Node2</title>
<g id="a_edge18_Node000016_Node000002"><a xlink:title=" ">
<path fill="none" stroke="#63b8ff" d="M2261.19,-188.69C2166.15,-182.15 1970.37,-165.79 1908,-138.75 1856.28,-116.33 1861.43,-81.32 1810,-58.25 1725.1,-20.17 1614.15,-12.84 1555.82,-11.84"/>
<polygon fill="#63b8ff" stroke="#63b8ff" points="1556.09,-8.34 1546.06,-11.73 1556.02,-15.34 1556.09,-8.34"/>
</a>
</g>
</g>
<!-- Node16&#45;&gt;Node14 -->
<g id="edge22_Node000016_Node000014" class="edge">
<title>Node16&#45;&gt;Node14</title>
<g id="a_edge22_Node000016_Node000014"><a xlink:title=" ">
<path fill="none" stroke="#63b8ff" d="M2261.18,-192.2C2165.99,-191.41 1971.14,-184.13 1924,-138.75 1911.79,-127 1909.37,-107.52 1909.68,-92.36"/>
<polygon fill="#63b8ff" stroke="#63b8ff" points="1913.17,-92.61 1910.32,-82.41 1906.18,-92.16 1913.17,-92.61"/>
</a>
</g>
</g>
<!-- Node16&#45;&gt;Node15 -->
<g id="edge20_Node000016_Node000015" class="edge">
<title>Node16&#45;&gt;Node15</title>
<g id="a_edge20_Node000016_Node000015"><a xlink:title=" ">
<path fill="none" stroke="#63b8ff" d="M2349.53,-181.44C2401.38,-166.02 2491.73,-139.12 2492,-138.75 2497.91,-130.82 2497.53,-124.7 2492,-116.5 2428.65,-22.54 2276.7,-11.35 2209.69,-11.21"/>
<polygon fill="#63b8ff" stroke="#63b8ff" points="2210.06,-7.7 2200.09,-11.27 2210.11,-14.7 2210.06,-7.7"/>
</a>
</g>
</g>
<!-- Node17 -->
<g id="Node000017" class="node">
<title>Node17</title>
<g id="a_Node000017"><a xlink:title=" ">
<polygon fill="#e0e0e0" stroke="#999999" points="2437.12,-22.25 2382.88,-22.25 2382.88,0 2437.12,0 2437.12,-22.25"/>
<text text-anchor="middle" x="2410" y="-8.75" font-family="FreeSans" font-size="10.00">ostream</text>
</a>
</g>
</g>
<!-- Node16&#45;&gt;Node17 -->
<g id="edge19_Node000016_Node000017" class="edge">
<title>Node16&#45;&gt;Node17</title>
<g id="a_edge19_Node000016_Node000017"><a xlink:title=" ">
<path fill="none" stroke="#63b8ff" d="M2348.26,-181.45C2356.04,-179.16 2364.28,-176.8 2372,-174.75 2439.51,-156.79 2481.63,-193.51 2525,-138.75 2558.2,-96.83 2487.8,-51.24 2443.12,-27.87"/>
<polygon fill="#63b8ff" stroke="#63b8ff" points="2444.78,-24.79 2434.28,-23.38 2441.61,-31.03 2444.78,-24.79"/>
</a>
</g>
</g>
<!-- Node18 -->
<g id="Node000018" class="node">
<title>Node18</title>
<g id="a_Node000018"><a xlink:title=" ">
<polygon fill="#e0e0e0" stroke="#999999" points="2357.62,-138.75 2318.38,-138.75 2318.38,-116.5 2357.62,-116.5 2357.62,-138.75"/>
<text text-anchor="middle" x="2338" y="-125.25" font-family="FreeSans" font-size="10.00">stack</text>
</a>
</g>
</g>
<!-- Node16&#45;&gt;Node18 -->
<g id="edge21_Node000016_Node000018" class="edge">
<title>Node16&#45;&gt;Node18</title>
<g id="a_edge21_Node000016_Node000018"><a xlink:title=" ">
<path fill="none" stroke="#63b8ff" d="M2317.96,-181.53C2321.25,-172.86 2326.02,-160.26 2330.08,-149.53"/>
<polygon fill="#63b8ff" stroke="#63b8ff" points="2333.31,-150.9 2333.57,-140.31 2326.76,-148.42 2333.31,-150.9"/>
</a>
</g>
</g>
<!-- Node19 -->
<g id="Node000019" class="node">
<title>Node19</title>
<g id="a_Node000019"><a xlink:href="Clock_8h_source.html" target="_top" xlink:title=" ">
<polygon fill="white" stroke="#666666" points="1801.25,-138.75 1696.75,-138.75 1696.75,-116.5 1801.25,-116.5 1801.25,-138.75"/>
<text text-anchor="middle" x="1749" y="-125.25" font-family="FreeSans" font-size="10.00">DGtal/base/Clock.h</text>
</a>
</g>
</g>
<!-- Node16&#45;&gt;Node19 -->
<g id="edge23_Node000016_Node000019" class="edge">
<title>Node16&#45;&gt;Node19</title>
<g id="a_edge23_Node000016_Node000019"><a xlink:title=" ">
<path fill="none" stroke="#63b8ff" d="M2261.1,-187.16C2169.89,-178.63 1977.21,-159.84 1815,-138.75 1814.32,-138.66 1813.63,-138.57 1812.94,-138.48"/>
<polygon fill="#63b8ff" stroke="#63b8ff" points="1813.45,-135.02 1803.07,-137.12 1812.49,-141.95 1813.45,-135.02"/>
</a>
</g>
</g>
<!-- Node22 -->
<g id="Node000022" class="node">
<title>Node22</title>
<g id="a_Node000022"><a xlink:href="TraceWriter_8h_source.html" target="_top" xlink:title=" ">
<polygon fill="white" stroke="#666666" points="2338.5,-80.5 2205.5,-80.5 2205.5,-58.25 2338.5,-58.25 2338.5,-80.5"/>
<text text-anchor="middle" x="2272" y="-67" font-family="FreeSans" font-size="10.00">DGtal/base/TraceWriter.h</text>
</a>
</g>
</g>
<!-- Node16&#45;&gt;Node22 -->
<g id="edge27_Node000016_Node000022" class="edge">
<title>Node16&#45;&gt;Node22</title>
<g id="a_edge27_Node000016_Node000022"><a xlink:title=" ">
<path fill="none" stroke="#63b8ff" d="M2310.42,-181.63C2303.54,-161.7 2288.35,-117.71 2279.26,-91.41"/>
<polygon fill="#63b8ff" stroke="#63b8ff" points="2282.64,-90.46 2276.07,-82.15 2276.02,-92.74 2282.64,-90.46"/>
</a>
</g>
</g>
<!-- Node16&#45;&gt;Node23 -->
<g id="edge30_Node000016_Node000023" class="edge">
<title>Node16&#45;&gt;Node23</title>
<g id="a_edge30_Node000016_Node000023"><a xlink:title=" ">
<path fill="none" stroke="#63b8ff" d="M2263.62,-181.39C2211.48,-170.41 2130,-153.26 2074.19,-141.51"/>
<polygon fill="#63b8ff" stroke="#63b8ff" points="2075.03,-138.11 2064.52,-139.47 2073.59,-144.96 2075.03,-138.11"/>
</a>
</g>
</g>
<!-- Node16&#45;&gt;Node24 -->
<g id="edge35_Node000016_Node000024" class="edge">
<title>Node16&#45;&gt;Node24</title>
<g id="a_edge35_Node000016_Node000024"><a xlink:title=" ">
<path fill="none" stroke="#63b8ff" d="M2362.03,-181.39C2416.22,-170.2 2504.55,-152.58 2565.38,-140.82"/>
<polygon fill="#63b8ff" stroke="#63b8ff" points="2565.76,-144.31 2574.91,-138.98 2564.43,-137.43 2565.76,-144.31"/>
</a>
</g>
</g>
<!-- Node26 -->
<g id="Node000026" class="node">
<title>Node26</title>
<g id="a_Node000026"><a xlink:href="Trace_8ih_source.html" target="_top" xlink:title=" ">
<polygon fill="white" stroke="#666666" points="2482.75,-138.75 2375.25,-138.75 2375.25,-116.5 2482.75,-116.5 2482.75,-138.75"/>
<text text-anchor="middle" x="2429" y="-125.25" font-family="FreeSans" font-size="10.00">DGtal/base/Trace.ih</text>
</a>
</g>
</g>
<!-- Node16&#45;&gt;Node26 -->
<g id="edge39_Node000016_Node000026" class="edge">
<title>Node16&#45;&gt;Node26</title>
<g id="a_edge39_Node000016_Node000026"><a xlink:title=" ">
<path fill="none" stroke="#63b8ff" d="M2333.25,-181.39C2351.52,-171.32 2379.22,-156.06 2400.13,-144.53"/>
<polygon fill="#63b8ff" stroke="#63b8ff" points="2401.68,-147.68 2408.75,-139.79 2398.3,-141.55 2401.68,-147.68"/>
</a>
</g>
</g>
<!-- Node19&#45;&gt;Node2 -->
<g id="edge24_Node000019_Node000002" class="edge">
<title>Node19&#45;&gt;Node2</title>
<g id="a_edge24_Node000019_Node000002"><a xlink:title=" ">
<path fill="none" stroke="#63b8ff" d="M1733.77,-116.21C1712.51,-101.96 1672.45,-76.11 1636,-58.25 1609.87,-45.45 1579.24,-33.73 1555.46,-25.3"/>
<polygon fill="#63b8ff" stroke="#63b8ff" points="1556.75,-22.04 1546.16,-22.05 1554.45,-28.65 1556.75,-22.04"/>
</a>
</g>
</g>
<!-- Node20 -->
<g id="Node000020" class="node">
<title>Node20</title>
<g id="a_Node000020"><a xlink:title=" ">
<polygon fill="#e0e0e0" stroke="#999999" points="1626.62,-80.5 1581.38,-80.5 1581.38,-58.25 1626.62,-58.25 1626.62,-80.5"/>
<text text-anchor="middle" x="1604" y="-67" font-family="FreeSans" font-size="10.00">cstdlib</text>
</a>
</g>
</g>
<!-- Node19&#45;&gt;Node20 -->
<g id="edge25_Node000019_Node000020" class="edge">
<title>Node19&#45;&gt;Node20</title>
<g id="a_edge25_Node000019_Node000020"><a xlink:title=" ">
<path fill="none" stroke="#63b8ff" d="M1721.73,-116.04C1697.86,-106.79 1663.1,-93.3 1637.54,-83.39"/>
<polygon fill="#63b8ff" stroke="#63b8ff" points="1638.86,-80.14 1628.27,-79.79 1636.33,-86.67 1638.86,-80.14"/>
</a>
</g>
</g>
<!-- Node21 -->
<g id="Node000021" class="node">
<title>Node21</title>
<g id="a_Node000021"><a xlink:href="Clock_8ih_source.html" target="_top" xlink:title=" ">
<polygon fill="white" stroke="#666666" points="1801.38,-80.5 1694.62,-80.5 1694.62,-58.25 1801.38,-58.25 1801.38,-80.5"/>
<text text-anchor="middle" x="1748" y="-67" font-family="FreeSans" font-size="10.00">DGtal/base/Clock.ih</text>
</a>
</g>
</g>
<!-- Node19&#45;&gt;Node21 -->
<g id="edge26_Node000019_Node000021" class="edge">
<title>Node19&#45;&gt;Node21</title>
<g id="a_edge26_Node000019_Node000021"><a xlink:title=" ">
<path fill="none" stroke="#63b8ff" d="M1748.81,-116.04C1748.69,-109.37 1748.54,-100.49 1748.39,-92.34"/>
<polygon fill="#63b8ff" stroke="#63b8ff" points="1751.89,-92.36 1748.21,-82.42 1744.89,-92.48 1751.89,-92.36"/>
</a>
</g>
</g>
<!-- Node22&#45;&gt;Node2 -->
<g id="edge28_Node000022_Node000002" class="edge">
<title>Node22&#45;&gt;Node2</title>
<g id="a_edge28_Node000022_Node000002"><a xlink:title=" ">
<path fill="none" stroke="#63b8ff" d="M2205.24,-63.41C2051.94,-52 1678.48,-24.21 1555.78,-15.09"/>
<polygon fill="#63b8ff" stroke="#63b8ff" points="1556.12,-11.6 1545.89,-14.35 1555.6,-18.58 1556.12,-11.6"/>
</a>
</g>
</g>
<!-- Node22&#45;&gt;Node17 -->
<g id="edge29_Node000022_Node000017" class="edge">
<title>Node22&#45;&gt;Node17</title>
<g id="a_edge29_Node000022_Node000017"><a xlink:title=" ">
<path fill="none" stroke="#63b8ff" d="M2297.96,-57.79C2319.35,-49.07 2349.94,-36.61 2373.75,-26.9"/>
<polygon fill="#63b8ff" stroke="#63b8ff" points="2374.82,-30.24 2382.76,-23.23 2372.18,-23.76 2374.82,-30.24"/>
</a>
</g>
</g>
<!-- Node23&#45;&gt;Node2 -->
<g id="edge31_Node000023_Node000002" class="edge">
<title>Node23&#45;&gt;Node2</title>
<g id="a_edge31_Node000023_Node000002"><a xlink:title=" ">
<path fill="none" stroke="#63b8ff" d="M2010.64,-116.2C2006.52,-100.68 1996.45,-71.86 1976,-58.25 1907.63,-12.73 1654.53,-10.51 1555.8,-11.45"/>
<polygon fill="#63b8ff" stroke="#63b8ff" points="1556.03,-7.95 1546.07,-11.57 1556.1,-14.95 1556.03,-7.95"/>
</a>
</g>
</g>
<!-- Node23&#45;&gt;Node14 -->
<g id="edge34_Node000023_Node000014" class="edge">
<title>Node23&#45;&gt;Node14</title>
<g id="a_edge34_Node000023_Node000014"><a xlink:title=" ">
<path fill="none" stroke="#63b8ff" d="M1994,-116.04C1979.05,-107.72 1957.96,-95.97 1940.91,-86.48"/>
<polygon fill="#63b8ff" stroke="#63b8ff" points="1942.67,-83.45 1932.23,-81.64 1939.27,-89.57 1942.67,-83.45"/>
</a>
</g>
</g>
<!-- Node23&#45;&gt;Node15 -->
<g id="edge32_Node000023_Node000015" class="edge">
<title>Node23&#45;&gt;Node15</title>
<g id="a_edge32_Node000023_Node000015"><a xlink:title=" ">
<path fill="none" stroke="#63b8ff" d="M2028.13,-116.06C2056.57,-96.21 2118.2,-53.18 2152.58,-29.18"/>
<polygon fill="#63b8ff" stroke="#63b8ff" points="2154.47,-32.13 2160.66,-23.53 2150.46,-26.39 2154.47,-32.13"/>
</a>
</g>
</g>
<!-- Node23&#45;&gt;Node22 -->
<g id="edge33_Node000023_Node000022" class="edge">
<title>Node23&#45;&gt;Node22</title>
<g id="a_edge33_Node000023_Node000022"><a xlink:title=" ">
<path fill="none" stroke="#63b8ff" d="M2061.72,-116.04C2104.4,-106.77 2166.59,-93.27 2212.27,-83.35"/>
<polygon fill="#63b8ff" stroke="#63b8ff" points="2212.99,-86.77 2222.02,-81.23 2211.51,-79.93 2212.99,-86.77"/>
</a>
</g>
</g>
<!-- Node24&#45;&gt;Node15 -->
<g id="edge38_Node000024_Node000015" class="edge">
<title>Node24&#45;&gt;Node15</title>
<g id="a_edge38_Node000024_Node000015"><a xlink:title=" ">
<path fill="none" stroke="#63b8ff" d="M2614.37,-116.22C2587.73,-100.99 2535.21,-72.86 2487,-58.25 2389.04,-28.57 2267.65,-17.6 2210.17,-13.87"/>
<polygon fill="#63b8ff" stroke="#63b8ff" points="2210.61,-10.39 2200.41,-13.28 2210.18,-17.38 2210.61,-10.39"/>
</a>
</g>
</g>
<!-- Node24&#45;&gt;Node16 -->
<g id="edge36_Node000024_Node000016" class="edge">
<title>Node24&#45;&gt;Node16</title>
<g id="a_edge36_Node000024_Node000016"><a xlink:title=" ">
<path fill="none" stroke="#63b8ff" d="M2584.06,-139.21C2529.09,-150.57 2438.88,-168.56 2377.97,-180.32"/>
<polygon fill="#63b8ff" stroke="#63b8ff" points="2377.59,-176.83 2368.43,-182.16 2378.92,-183.7 2377.59,-176.83"/>
</a>
</g>
</g>
<!-- Node25 -->
<g id="Node000025" class="node">
<title>Node25</title>
<g id="a_Node000025"><a xlink:title=" ">
<polygon fill="#e0e0e0" stroke="#999999" points="2721.12,-80.5 2576.88,-80.5 2576.88,-58.25 2721.12,-58.25 2721.12,-80.5"/>
<text text-anchor="middle" x="2649" y="-67" font-family="FreeSans" font-size="10.00">boost/current_function.hpp</text>
</a>
</g>
</g>
<!-- Node24&#45;&gt;Node25 -->
<g id="edge37_Node000024_Node000025" class="edge">
<title>Node24&#45;&gt;Node25</title>
<g id="a_edge37_Node000024_Node000025"><a xlink:title=" ">
<path fill="none" stroke="#63b8ff" d="M2635.2,-116.04C2637.26,-109.21 2640.02,-100.07 2642.53,-91.77"/>
<polygon fill="#63b8ff" stroke="#63b8ff" points="2645.84,-92.94 2645.38,-82.36 2639.14,-90.92 2645.84,-92.94"/>
</a>
</g>
</g>
<!-- Node27&#45;&gt;Node2 -->
<g id="edge42_Node000027_Node000002" class="edge">
<title>Node27&#45;&gt;Node2</title>
<g id="a_edge42_Node000027_Node000002"><a xlink:title=" ">
<path fill="none" stroke="#63b8ff" d="M2162.97,-116.02C2128.23,-100.53 2060.02,-72.08 1999,-58.25 1837.7,-21.69 1639.7,-14.08 1556.18,-12.52"/>
<polygon fill="#63b8ff" stroke="#63b8ff" points="1556.28,-9.02 1546.22,-12.35 1556.16,-16.02 1556.28,-9.02"/>
</a>
</g>
</g>
<!-- Node27&#45;&gt;Node15 -->
<g id="edge43_Node000027_Node000015" class="edge">
<title>Node27&#45;&gt;Node15</title>
<g id="a_edge43_Node000027_Node000015"><a xlink:title=" ">
<path fill="none" stroke="#63b8ff" d="M2185.17,-116.06C2183.71,-97.48 2180.65,-58.62 2178.72,-34.04"/>
<polygon fill="#63b8ff" stroke="#63b8ff" points="2182.22,-33.87 2177.95,-24.18 2175.24,-34.42 2182.22,-33.87"/>
</a>
</g>
</g>
<!-- Node27&#45;&gt;Node22 -->
<g id="edge44_Node000027_Node000022" class="edge">
<title>Node27&#45;&gt;Node22</title>
<g id="a_edge44_Node000027_Node000022"><a xlink:title=" ">
<path fill="none" stroke="#63b8ff" d="M2202.18,-116.04C2214.67,-107.87 2232.19,-96.41 2246.56,-87.02"/>
<polygon fill="#63b8ff" stroke="#63b8ff" points="2248.18,-90.14 2254.63,-81.74 2244.35,-84.28 2248.18,-90.14"/>
</a>
</g>
</g>
<!-- Node28&#45;&gt;Node2 -->
<g id="edge47_Node000028_Node000002" class="edge">
<title>Node28&#45;&gt;Node2</title>
<g id="a_edge47_Node000028_Node000002"><a xlink:title=" ">
<path fill="none" stroke="#63b8ff" d="M942.23,-116.02C1012.64,-102.33 1139.39,-77.91 1248,-58.25 1328.98,-43.59 1423.94,-27.51 1476.29,-18.74"/>
<polygon fill="#63b8ff" stroke="#63b8ff" points="1476.64,-22.23 1485.92,-17.13 1475.48,-15.33 1476.64,-22.23"/>
</a>
</g>
</g>
<!-- Node29&#45;&gt;Node2 -->
<g id="edge50_Node000029_Node000002" class="edge">
<title>Node29&#45;&gt;Node2</title>
<g id="a_edge50_Node000029_Node000002"><a xlink:title=" ">
<path fill="none" stroke="#63b8ff" d="M1412.52,-116.06C1431.86,-96.63 1473.3,-55.01 1497.46,-30.75"/>
<polygon fill="#63b8ff" stroke="#63b8ff" points="1499.86,-33.29 1504.44,-23.74 1494.9,-28.36 1499.86,-33.29"/>
</a>
</g>
</g>
<!-- Node29&#45;&gt;Node20 -->
<g id="edge49_Node000029_Node000020" class="edge">
<title>Node29&#45;&gt;Node20</title>
<g id="a_edge49_Node000029_Node000020"><a xlink:title=" ">
<path fill="none" stroke="#63b8ff" d="M1439.99,-116.04C1477.43,-105.62 1534.09,-89.84 1570.06,-79.83"/>
<polygon fill="#63b8ff" stroke="#63b8ff" points="1570.8,-83.25 1579.5,-77.2 1568.93,-76.51 1570.8,-83.25"/>
</a>
</g>
</g>
<!-- Node30 -->
<g id="Node000030" class="node">
<title>Node30</title>
<g id="a_Node000030"><a xlink:title=" ">
<polygon fill="#e0e0e0" stroke="#999999" points="1428.88,-80.5 1331.12,-80.5 1331.12,-58.25 1428.88,-58.25 1428.88,-80.5"/>
<text text-anchor="middle" x="1380" y="-67" font-family="FreeSans" font-size="10.00">boost/cstdint.hpp</text>
</a>
</g>
</g>
<!-- Node29&#45;&gt;Node30 -->
<g id="edge51_Node000029_Node000030" class="edge">
<title>Node29&#45;&gt;Node30</title>
<g id="a_edge51_Node000029_Node000030"><a xlink:title=" ">
<path fill="none" stroke="#63b8ff" d="M1397.86,-116.04C1395.16,-109.13 1391.53,-99.86 1388.25,-91.48"/>
<polygon fill="#63b8ff" stroke="#63b8ff" points="1391.57,-90.36 1384.67,-82.32 1385.05,-92.91 1391.57,-90.36"/>
</a>
</g>
</g>
<!-- Node31 -->
<g id="Node000031" class="node">
<title>Node31</title>
<g id="a_Node000031"><a xlink:title=" ">
<polygon fill="#e0e0e0" stroke="#999999" points="1313.25,-80.5 1256.75,-80.5 1256.75,-58.25 1313.25,-58.25 1313.25,-80.5"/>
<text text-anchor="middle" x="1285" y="-67" font-family="FreeSans" font-size="10.00">gmpxx.h</text>
</a>
</g>
</g>
<!-- Node29&#45;&gt;Node31 -->
<g id="edge52_Node000029_Node000031" class="edge">
<title>Node29&#45;&gt;Node31</title>
<g id="a_edge52_Node000029_Node000031"><a xlink:title=" ">
<path fill="none" stroke="#63b8ff" d="M1379.99,-116.04C1362.26,-107.52 1337.08,-95.42 1317.1,-85.81"/>
<polygon fill="#63b8ff" stroke="#63b8ff" points="1318.8,-82.74 1308.27,-81.56 1315.77,-89.05 1318.8,-82.74"/>
</a>
</g>
</g>
<!-- Node32&#45;&gt;Node3 -->
<g id="edge64_Node000032_Node000003" class="edge">
<title>Node32&#45;&gt;Node3</title>
<g id="a_edge64_Node000032_Node000003"><a xlink:title=" ">
<path fill="none" stroke="#63b8ff" d="M444.35,-204.55C457.37,-207.09 471.17,-209.56 484,-211.25 716.05,-241.82 992.95,-252.33 1122.09,-255.79"/>
<polygon fill="#63b8ff" stroke="#63b8ff" points="1121.78,-259.28 1131.86,-256.04 1121.96,-252.28 1121.78,-259.28"/>
</a>
</g>
</g>
<!-- Node32&#45;&gt;Node12 -->
<g id="edge56_Node000032_Node000012" class="edge">
<title>Node32&#45;&gt;Node12</title>
<g id="a_edge56_Node000032_Node000012"><a xlink:title=" ">
<path fill="none" stroke="#63b8ff" d="M434.08,-181.43C474.16,-171.83 534.58,-156.85 595.41,-139.38"/>
<polygon fill="#63b8ff" stroke="#63b8ff" points="596.28,-142.77 604.91,-136.63 594.33,-136.05 596.28,-142.77"/>
</a>
</g>
</g>
<!-- Node33 -->
<g id="Node000033" class="node">
<title>Node33</title>
<g id="a_Node000033"><a xlink:title=" ">
<polygon fill="#e0e0e0" stroke="#999999" points="814.5,-80.5 753.5,-80.5 753.5,-58.25 814.5,-58.25 814.5,-80.5"/>
<text text-anchor="middle" x="784" y="-67" font-family="FreeSans" font-size="10.00">algorithm</text>
</a>
</g>
</g>
<!-- Node32&#45;&gt;Node33 -->
<g id="edge54_Node000032_Node000033" class="edge">
<title>Node32&#45;&gt;Node33</title>
<g id="a_edge54_Node000032_Node000033"><a xlink:title=" ">
<path fill="none" stroke="#63b8ff" d="M407.13,-181.39C425.5,-170.65 454.72,-153.55 480,-138.75 496.89,-128.86 499.59,-123.13 518,-116.5 611.63,-82.79 641.3,-99.43 739,-80.5 740,-80.31 741.01,-80.11 742.02,-79.9"/>
<polygon fill="#63b8ff" stroke="#63b8ff" points="742.51,-83.38 751.58,-77.9 741.08,-76.53 742.51,-83.38"/>
</a>
</g>
</g>
<!-- Node34 -->
<g id="Node000034" class="node">
<title>Node34</title>
<g id="a_Node000034"><a xlink:title=" ">
<polygon fill="#e0e0e0" stroke="#999999" points="588.88,-138.75 527.12,-138.75 527.12,-116.5 588.88,-116.5 588.88,-138.75"/>
<text text-anchor="middle" x="558" y="-125.25" font-family="FreeSans" font-size="10.00">functional</text>
</a>
</g>
</g>
<!-- Node32&#45;&gt;Node34 -->
<g id="edge55_Node000032_Node000034" class="edge">
<title>Node32&#45;&gt;Node34</title>
<g id="a_edge55_Node000032_Node000034"><a xlink:title=" ">
<path fill="none" stroke="#63b8ff" d="M417.29,-181.39C445.28,-170.9 488.33,-154.75 519.44,-143.09"/>
<polygon fill="#63b8ff" stroke="#63b8ff" points="520.35,-146.48 528.49,-139.69 517.89,-139.93 520.35,-146.48"/>
</a>
</g>
</g>
<!-- Node35 -->
<g id="Node000035" class="node">
<title>Node35</title>
<g id="a_Node000035"><a xlink:href="Color_8h_source.html" target="_top" xlink:title=" ">
<polygon fill="white" stroke="#666666" points="470.75,-138.75 381.25,-138.75 381.25,-116.5 470.75,-116.5 470.75,-138.75"/>
<text text-anchor="middle" x="426" y="-125.25" font-family="FreeSans" font-size="10.00">DGtal/io/Color.h</text>
</a>
</g>
</g>
<!-- Node32&#45;&gt;Node35 -->
<g id="edge57_Node000032_Node000035" class="edge">
<title>Node32&#45;&gt;Node35</title>
<g id="a_edge57_Node000032_Node000035"><a xlink:title=" ">
<path fill="none" stroke="#63b8ff" d="M395.11,-181.53C400.34,-172.58 408,-159.45 414.39,-148.51"/>
<polygon fill="#63b8ff" stroke="#63b8ff" points="417.22,-150.6 419.24,-140.2 411.18,-147.07 417.22,-150.6"/>
</a>
</g>
</g>
<!-- Node32&#45;&gt;Node39 -->
<g id="edge65_Node000032_Node000039" class="edge">
<title>Node32&#45;&gt;Node39</title>
<g id="a_edge65_Node000032_Node000039"><a xlink:title=" ">
<path fill="none" stroke="#63b8ff" d="M369.58,-181.39C351.16,-171.32 323.22,-156.06 302.12,-144.53"/>
<polygon fill="#63b8ff" stroke="#63b8ff" points="303.88,-141.5 293.42,-139.78 300.52,-147.65 303.88,-141.5"/>
</a>
</g>
</g>
<!-- Node35&#45;&gt;Node2 -->
<g id="edge58_Node000035_Node000002" class="edge">
<title>Node35&#45;&gt;Node2</title>
<g id="a_edge58_Node000035_Node000002"><a xlink:title=" ">
<path fill="none" stroke="#63b8ff" d="M471.22,-117.37C472.84,-117.07 474.43,-116.78 476,-116.5 577.84,-98.23 608.35,-114.7 706,-80.5 724.83,-73.9 725.87,-63.94 745,-58.25 884.09,-16.88 1339.12,-12.49 1476.42,-12.13"/>
<polygon fill="#63b8ff" stroke="#63b8ff" points="1476.1,-15.63 1486.09,-12.11 1476.08,-8.63 1476.1,-15.63"/>
</a>
</g>
</g>
<!-- Node35&#45;&gt;Node3 -->
<g id="edge59_Node000035_Node000003" class="edge">
<title>Node35&#45;&gt;Node3</title>
<g id="a_edge59_Node000035_Node000003"><a xlink:title=" ">
<path fill="none" stroke="#63b8ff" d="M385.31,-139.24C354.93,-148.08 317.15,-161.35 308,-174.75 298.85,-188.15 296.83,-199.49 308,-211.25 335.87,-240.61 915.05,-252.84 1122.16,-256.29"/>
<polygon fill="#63b8ff" stroke="#63b8ff" points="1121.93,-259.78 1131.99,-256.45 1122.05,-252.78 1121.93,-259.78"/>
</a>
</g>
</g>
<!-- Node35&#45;&gt;Node33 -->
<g id="edge61_Node000035_Node000033" class="edge">
<title>Node35&#45;&gt;Node33</title>
<g id="a_edge61_Node000035_Node000033"><a xlink:title=" ">
<path fill="none" stroke="#63b8ff" d="M471.08,-118.75C475.77,-117.97 480.48,-117.21 485,-116.5 597.64,-98.86 626.85,-101.03 739,-80.5 740,-80.32 741.01,-80.13 742.03,-79.93"/>
<polygon fill="#63b8ff" stroke="#63b8ff" points="742.5,-83.41 751.6,-77.98 741.1,-76.55 742.5,-83.41"/>
</a>
</g>
</g>
<!-- Node36 -->
<g id="Node000036" class="node">
<title>Node36</title>
<g id="a_Node000036"><a xlink:title=" ">
<polygon fill="#e0e0e0" stroke="#999999" points="697.25,-80.5 580.75,-80.5 580.75,-58.25 697.25,-58.25 697.25,-80.5"/>
<text text-anchor="middle" x="639" y="-67" font-family="FreeSans" font-size="10.00">boost/lexical_cast.hpp</text>
</a>
</g>
</g>
<!-- Node35&#45;&gt;Node36 -->
<g id="edge60_Node000035_Node000036" class="edge">
<title>Node35&#45;&gt;Node36</title>
<g id="a_edge60_Node000035_Node000036"><a xlink:title=" ">
<path fill="none" stroke="#63b8ff" d="M466.06,-116.04C500.72,-106.89 551.01,-93.61 588.44,-83.73"/>
<polygon fill="#63b8ff" stroke="#63b8ff" points="588.88,-87.23 597.65,-81.29 587.09,-80.46 588.88,-87.23"/>
</a>
</g>
</g>
<!-- Node37 -->
<g id="Node000037" class="node">
<title>Node37</title>
<g id="a_Node000037"><a xlink:title=" ">
<polygon fill="#e0e0e0" stroke="#999999" points="453,-80.5 413,-80.5 413,-58.25 453,-58.25 453,-80.5"/>
<text text-anchor="middle" x="433" y="-67" font-family="FreeSans" font-size="10.00">array</text>
</a>
</g>
</g>
<!-- Node35&#45;&gt;Node37 -->
<g id="edge62_Node000035_Node000037" class="edge">
<title>Node35&#45;&gt;Node37</title>
<g id="a_edge62_Node000035_Node000037"><a xlink:title=" ">
<path fill="none" stroke="#63b8ff" d="M427.32,-116.04C428.16,-109.29 429.28,-100.28 430.3,-92.05"/>
<polygon fill="#63b8ff" stroke="#63b8ff" points="433.74,-92.77 431.5,-82.41 426.79,-91.9 433.74,-92.77"/>
</a>
</g>
</g>
<!-- Node38 -->
<g id="Node000038" class="node">
<title>Node38</title>
<g id="a_Node000038"><a xlink:href="Color_8ih_source.html" target="_top" xlink:title=" ">
<polygon fill="white" stroke="#666666" points="562.88,-80.5 471.12,-80.5 471.12,-58.25 562.88,-58.25 562.88,-80.5"/>
<text text-anchor="middle" x="517" y="-67" font-family="FreeSans" font-size="10.00">DGtal/io/Color.ih</text>
</a>
</g>
</g>
<!-- Node35&#45;&gt;Node38 -->
<g id="edge63_Node000035_Node000038" class="edge">
<title>Node35&#45;&gt;Node38</title>
<g id="a_edge63_Node000035_Node000038"><a xlink:title=" ">
<path fill="none" stroke="#63b8ff" d="M443.12,-116.04C456.46,-107.8 475.23,-96.19 490.51,-86.75"/>
<polygon fill="#63b8ff" stroke="#63b8ff" points="492.01,-89.94 498.67,-81.7 488.33,-83.98 492.01,-89.94"/>
</a>
</g>
</g>
<!-- Node39&#45;&gt;Node2 -->
<g id="edge66_Node000039_Node000002" class="edge">
<title>Node39&#45;&gt;Node2</title>
<g id="a_edge66_Node000039_Node000002"><a xlink:title=" ">
<path fill="none" stroke="#63b8ff" d="M295.39,-116.06C314.37,-106.97 342.21,-93.34 366,-80.5 383.22,-71.2 385.22,-63.76 404,-58.25 508.37,-27.61 1289.5,-15.18 1476.07,-12.64"/>
<polygon fill="#63b8ff" stroke="#63b8ff" points="1476.02,-16.14 1485.97,-12.5 1475.93,-9.14 1476.02,-16.14"/>
</a>
</g>
</g>
<!-- Node40 -->
<g id="Node000040" class="node">
<title>Node40</title>
<g id="a_Node000040"><a xlink:title=" ">
<polygon fill="#e0e0e0" stroke="#999999" points="171.62,-80.5 66.38,-80.5 66.38,-58.25 171.62,-58.25 171.62,-80.5"/>
<text text-anchor="middle" x="119" y="-67" font-family="FreeSans" font-size="10.00">boost/function.hpp</text>
</a>
</g>
</g>
<!-- Node39&#45;&gt;Node40 -->
<g id="edge67_Node000039_Node000040" class="edge">
<title>Node39&#45;&gt;Node40</title>
<g id="a_edge67_Node000039_Node000040"><a xlink:title=" ">
<path fill="none" stroke="#63b8ff" d="M244.03,-116.04C219.84,-107.21 185.1,-94.52 158.38,-84.76"/>
<polygon fill="#63b8ff" stroke="#63b8ff" points="159.85,-81.57 149.26,-81.43 157.45,-88.15 159.85,-81.57"/>
</a>
</g>
</g>
<!-- Node41 -->
<g id="Node000041" class="node">
<title>Node41</title>
<g id="a_Node000041"><a xlink:href="BasicBoolFunctors_8ih_source.html" target="_top" xlink:title=" ">
<polygon fill="white" stroke="#666666" points="356.75,-80.5 189.25,-80.5 189.25,-58.25 356.75,-58.25 356.75,-80.5"/>
<text text-anchor="middle" x="273" y="-67" font-family="FreeSans" font-size="10.00">DGtal/base/BasicBoolFunctors.ih</text>
</a>
</g>
</g>
<!-- Node39&#45;&gt;Node41 -->
<g id="edge68_Node000039_Node000041" class="edge">
<title>Node39&#45;&gt;Node41</title>
<g id="a_edge68_Node000039_Node000041"><a xlink:title=" ">
<path fill="none" stroke="#63b8ff" d="M273,-116.04C273,-109.37 273,-100.49 273,-92.34"/>
<polygon fill="#63b8ff" stroke="#63b8ff" points="276.5,-92.42 273,-82.42 269.5,-92.42 276.5,-92.42"/>
</a>
</g>
</g>
<!-- Node42&#45;&gt;Node2 -->
<g id="edge70_Node000042_Node000002" class="edge">
<title>Node42&#45;&gt;Node2</title>
<g id="a_edge70_Node000042_Node000002"><a xlink:title=" ">
<path fill="none" stroke="#63b8ff" d="M1593.16,-116.06C1578.92,-96.89 1548.65,-56.1 1530.54,-31.71"/>
<polygon fill="#63b8ff" stroke="#63b8ff" points="1533.5,-29.82 1524.73,-23.88 1527.88,-34 1533.5,-29.82"/>
</a>
</g>
</g>
<!-- Node43&#45;&gt;Node2 -->
<g id="edge72_Node000043_Node000002" class="edge">
<title>Node43&#45;&gt;Node2</title>
<g id="a_edge72_Node000043_Node000002"><a xlink:title=" ">
<path fill="none" stroke="#63b8ff" d="M121.4,-181.52C89.49,-157.43 19.28,-97.18 57,-58.25 82.4,-32.03 1244.8,-15.63 1476.19,-12.63"/>
<polygon fill="#63b8ff" stroke="#63b8ff" points="1475.94,-16.13 1485.89,-12.5 1475.85,-9.13 1475.94,-16.13"/>
</a>
</g>
</g>
</g>
</svg>
