<?xml version="1.0" encoding="UTF-8" standalone="no"?>
<!DOCTYPE svg PUBLIC "-//W3C//DTD SVG 1.1//EN"
 "http://www.w3.org/Graphics/SVG/1.1/DTD/svg11.dtd">
<!-- Generated by graphviz version 11.0.0 (0)
 -->
<!-- Title: testBenchmark.cpp Pages: 1 -->
<svg width="348pt" height="89pt"
 viewBox="0.00 0.00 348.12 88.50" xmlns="http://www.w3.org/2000/svg" xmlns:xlink="http://www.w3.org/1999/xlink">

<svg id="main" version="1.1" xmlns="http://www.w3.org/2000/svg" xmlns:xlink="http://www.w3.org/1999/xlink" xml:space="preserve" onload="init(evt)">
<style type="text/css"><![CDATA[
.node, .edge {opacity: 0.7;}
.node.selected, .edge.selected {opacity: 1;}
.edge:hover path { stroke: red; }
.edge:hover polygon { stroke: red; fill: red; }
]]></style>
<script type="application/ecmascript" xlink:href="svg.min.js"/>
<svg id="graph" class="graph">
<g id="graph0" class="graph" transform="scale(1 1) rotate(0) translate(4 84.5)">
<title>testBenchmark.cpp</title>
<!-- Node1 -->
<g id="Node000001" class="node">
<title>Node1</title>
<g id="a_Node000001"><a xlink:title=" ">
<polygon fill="#999999" stroke="#666666" points="182.62,-80.5 75.88,-80.5 75.88,-58.25 182.62,-58.25 182.62,-80.5"/>
<text text-anchor="middle" x="129.25" y="-67" font-family="FreeSans" font-size="10.00">testBenchmark.cpp</text>
</a>
</g>
</g>
<!-- Node2 -->
<g id="Node000002" class="node">
<title>Node2</title>
<g id="a_Node000002"><a xlink:title=" ">
<polygon fill="#e0e0e0" stroke="#999999" points="56.5,-22.25 0,-22.25 0,0 56.5,0 56.5,-22.25"/>
<text text-anchor="middle" x="28.25" y="-8.75" font-family="FreeSans" font-size="10.00">iostream</text>
</a>
</g>
</g>
<!-- Node1&#45;&gt;Node2 -->
<g id="edge1_Node000001_Node000002" class="edge">
<title>Node1&#45;&gt;Node2</title>
<g id="a_edge1_Node000001_Node000002"><a xlink:title=" ">
<path fill="none" stroke="#63b8ff" d="M110.25,-57.79C95.3,-49.47 74.21,-37.72 57.16,-28.23"/>
<polygon fill="#63b8ff" stroke="#63b8ff" points="58.92,-25.2 48.48,-23.39 55.52,-31.32 58.92,-25.2"/>
</a>
</g>
</g>
<!-- Node3 -->
<g id="Node000003" class="node">
<title>Node3</title>
<g id="a_Node000003"><a xlink:title=" ">
<polygon fill="#e0e0e0" stroke="#999999" points="117.75,-22.25 74.75,-22.25 74.75,0 117.75,0 117.75,-22.25"/>
<text text-anchor="middle" x="96.25" y="-8.75" font-family="FreeSans" font-size="10.00">string</text>
</a>
</g>
</g>
<!-- Node1&#45;&gt;Node3 -->
<g id="edge2_Node000001_Node000003" class="edge">
<title>Node1&#45;&gt;Node3</title>
<g id="a_edge2_Node000001_Node000003"><a xlink:title=" ">
<path fill="none" stroke="#63b8ff" d="M123.04,-57.79C118.85,-50.65 113.18,-40.98 108.13,-32.38"/>
<polygon fill="#63b8ff" stroke="#63b8ff" points="111.27,-30.82 103.2,-23.96 105.24,-34.36 111.27,-30.82"/>
</a>
</g>
</g>
<!-- Node4 -->
<g id="Node000004" class="node">
<title>Node4</title>
<g id="a_Node000004"><a xlink:title=" ">
<polygon fill="#e0e0e0" stroke="#999999" points="188.62,-22.25 135.88,-22.25 135.88,0 188.62,0 188.62,-22.25"/>
<text text-anchor="middle" x="162.25" y="-8.75" font-family="FreeSans" font-size="10.00">sstream</text>
</a>
</g>
</g>
<!-- Node1&#45;&gt;Node4 -->
<g id="edge3_Node000001_Node000004" class="edge">
<title>Node1&#45;&gt;Node4</title>
<g id="a_edge3_Node000001_Node000004"><a xlink:title=" ">
<path fill="none" stroke="#63b8ff" d="M135.46,-57.79C139.65,-50.65 145.32,-40.98 150.37,-32.38"/>
<polygon fill="#63b8ff" stroke="#63b8ff" points="153.26,-34.36 155.3,-23.96 147.23,-30.82 153.26,-34.36"/>
</a>
</g>
</g>
<!-- Node5 -->
<g id="Node000005" class="node">
<title>Node5</title>
<g id="a_Node000005"><a xlink:title=" ">
<polygon fill="#e0e0e0" stroke="#999999" points="340.12,-22.25 206.38,-22.25 206.38,0 340.12,0 340.12,-22.25"/>
<text text-anchor="middle" x="273.25" y="-8.75" font-family="FreeSans" font-size="10.00">benchmark/benchmark.h</text>
</a>
</g>
</g>
<!-- Node1&#45;&gt;Node5 -->
<g id="edge4_Node000001_Node000005" class="edge">
<title>Node1&#45;&gt;Node5</title>
<g id="a_edge4_Node000001_Node000005"><a xlink:title=" ">
<path fill="none" stroke="#63b8ff" d="M156.34,-57.79C178.76,-49.03 210.87,-36.49 235.76,-26.77"/>
<polygon fill="#63b8ff" stroke="#63b8ff" points="236.84,-30.11 244.88,-23.21 234.29,-23.59 236.84,-30.11"/>
</a>
</g>
</g>
</g>
</svg>
</svg>

<style type='text/css'>
<![CDATA[
[data-mouse-over-selected='false'] { opacity: 0.7; }
[data-mouse-over-selected='true']  { opacity: 1.0; }
]]>
</style>
<script type="application/ecmascript"><![CDATA[
document.addEventListener('DOMContentLoaded', (event) => {
  highlightEdges();
  highlightAdjacentNodes();
});
]]></script>
</svg>
